<?xml version="1.0" encoding="utf-8"?>
<!-- Generator: Adobe Illustrator 18.0.0, SVG Export Plug-In . SVG Version: 6.00 Build 0)  -->
<!DOCTYPE svg PUBLIC "-//W3C//DTD SVG 1.1//EN" "http://www.w3.org/Graphics/SVG/1.1/DTD/svg11.dtd">
<svg version="1.1" id="Layer_1" xmlns="http://www.w3.org/2000/svg" xmlns:xlink="http://www.w3.org/1999/xlink" x="0px" y="0px"
	 viewBox="0 0 450 450" enable-background="new 0 0 450 450" xml:space="preserve">
<g transform="matrix( 0.3221282958984375, 0, 0, 0.4059906005859375, 4.7,565.95) ">
	<g>
		<g id="Layer5_671_MEMBER_0_FILL">
			<path fill="#DFE6EC" d="M952.1-285.7v-154.9H414.6v154.9H952.1z"/>
		</g>
	</g>
</g>
<g transform="matrix( 1, 0, 0, 1, 0,0) ">
	<g>
		<g id="Layer5_671_MEMBER_1_FILL">
			
				<radialGradient id="SVGID_1_" cx="-463.2191" cy="1.6989" r="2.2451" gradientTransform="matrix(2.9059 2.9059 -2.9059 2.9059 1502.1566 1758.5503)" gradientUnits="userSpaceOnUse">
				<stop  offset="0" style="stop-color:#A5A39C"/>
				<stop  offset="1" style="stop-color:#34342F"/>
			</radialGradient>
			<path fill="url(#SVGID_1_)" d="M151.2,408.5c-2.5,0-4.9,0.8-6.6,2.5c-1.6,2.1-2.5,4.1-2.5,6.6c0,2.9,0.8,4.9,2.5,6.6
				c1.6,1.6,3.7,2.5,6.6,2.5c2.9,0,4.9-0.8,6.6-2.5c1.6-1.6,2.5-3.7,2.5-6.2c0-2.5-0.8-4.9-2.5-7
				C156.2,409.3,153.7,408.5,151.2,408.5 M153.3,413.8c0.4,0,0.8,0,1.2,0.4l0,0c0.4,0.4,0.4,0.8,0.4,1.2c0,0.4,0,0.8-0.4,1.2
				l-1.2,0.8l1.2,1.2c0.4,0.4,0.4,0.8,0.4,1.2c0,0.4,0,0.8-0.4,1.6c-0.4,0.4-0.8,0.4-1.2,0.4c-0.4,0-0.8,0-1.2-0.4l-1.2-1.2
				l-0.8,1.2c-0.4,0.4-0.4,0.4-1.2,0.4c-0.4,0-0.8,0-1.2-0.4c-0.4-0.4-0.8-1.2-0.8-1.6s0.4-0.4,0.8-1.2l0.8-0.8l-0.8-1.2
				c-0.4-0.4-0.8-0.8-0.8-1.2c0-0.4,0.4-0.4,0.8-1.2c0.4-0.4,0.8-0.4,1.2-0.4c0.4,0,0.8,0,1.2,0.4l0.8,1.2l1.2-1.2
				C152.5,413.8,152.9,413.8,153.3,413.8z"/>
			<path fill="#010101" d="M154.5,414.2c-0.4-0.4-0.8-0.4-1.2-0.4c-0.4,0-0.8,0-1.2,0.4l-1.2,1.2l-0.8-1.2c-0.4-0.4-0.4-0.4-1.2-0.4
				c-0.4,0-0.8,0-1.2,0.4c-0.4,0.4-0.8,0.8-0.8,1.2c0,0.4,0.4,0.8,0.8,1.2l0.8,1.2l-0.8,0.8c-0.4,0.4-0.8,0.8-0.8,1.2
				c0,0.4,0.4,0.8,0.8,1.6c0.4,0.4,0.8,0.4,1.2,0.4s0.8,0,1.2-0.4l0.8-1.2l1.2,1.2c0.4,0.4,0.8,0.4,1.2,0.4c0.4,0,0.8,0,1.2-0.4
				c0.4-0.4,0.4-1.2,0.4-1.6s0-0.8-0.4-1.2l-1.2-1.2l1.2-0.8c0.4-0.4,0.4-0.8,0.4-1.2C155.3,415.1,154.9,414.7,154.5,414.2
				L154.5,414.2z"/>
		</g>
	</g>
</g>
<g transform="matrix( 1, 0, 0, 1, 0,0) ">
	<g>
		<g id="Layer5_671_MEMBER_2_FILL">
			
				<radialGradient id="SVGID_2_" cx="-463.2191" cy="1.6989" r="2.2451" gradientTransform="matrix(2.9059 2.9059 -2.9059 2.9059 1649.2799 1758.5503)" gradientUnits="userSpaceOnUse">
				<stop  offset="0" style="stop-color:#A5A39C"/>
				<stop  offset="1" style="stop-color:#34342F"/>
			</radialGradient>
			<path fill="url(#SVGID_2_)" d="M298.4,408.5c-2.5,0-4.9,0.8-6.6,2.5c-1.6,2.1-2.5,4.1-2.5,6.6c0,2.9,0.8,4.9,2.5,6.6
				c1.6,1.6,4.1,2.5,6.6,2.5c2.5,0,4.9-0.8,6.6-2.5c1.6-1.6,2.5-3.7,2.5-6.6c0-2.5-0.8-4.5-2.5-6.6
				C302.9,409.3,300.8,408.5,298.4,408.5 M300.4,413.8c0.4,0,0.8,0,1.2,0.4s0.4,0.8,0.4,1.2c0,0.4,0,0.8-0.4,1.2l-0.8,0.8l0.8,1.2
				c0.4,0.4,0.4,0.8,0.4,1.2c0,0.4,0,0.8-0.4,1.2c-0.4,0.4-0.8,0.4-1.2,0.4s-0.8,0-1.2-0.4l-1.2-1.2l-1.2,1.2
				c-0.4,0.4-0.8,0.4-1.2,0.4s-0.8,0-1.2-0.4s-0.4-0.8-0.4-1.2c0-0.4,0-0.8,0.4-1.2l1.2-1.2l-1.2-0.4c-0.4-0.4-0.4-0.8-0.4-1.2
				c0-0.4,0-0.8,0.4-1.2c0.4-0.4,0.8-0.4,1.2-0.4s0.8,0,1.2,0.4l1.2,0.8l1.2-1.2C299.6,413.8,300,413.8,300.4,413.8z"/>
			<path fill="#010101" d="M301.6,414.2c-0.4-0.4-0.8-0.4-1.2-0.4c-0.4,0-0.8,0-1.2,0.4l-1.2,1.2l-1.2-0.8c-0.4-0.4-0.8-0.4-1.2-0.4
				s-0.8,0-1.2,0.4c-0.4,0.4-0.4,0.8-0.4,1.2c0,0.4,0,0.8,0.4,1.2l1.2,0.4l-1.2,1.2c-0.4,0.4-0.4,0.8-0.4,1.2c0,0.4,0,0.8,0.4,1.2
				c0.4,0.4,0.8,0.4,1.2,0.4s0.8,0,1.2-0.4l1.2-1.2l1.2,1.2c0.4,0.4,0.8,0.4,1.2,0.4c0.4,0,0.8,0,1.2-0.4s0.4-0.8,0.4-1.2
				c0-0.4,0-0.8-0.4-1.2l-0.8-1.2l0.8-0.8c0.4-0.4,0.4-0.8,0.4-1.2C302.1,415.1,302.1,414.7,301.6,414.2z"/>
		</g>
	</g>
</g>
<g transform="matrix( 0.523590087890625, 0, 0, 0.586517333984375, -179.2,467.5) ">
	<g>
		<g id="Layer5_699_MEMBER_0_FILL">
			<path fill="#DFE6EC" d="M1040.5-642.2v-154.9H503.3v154.9H1040.5z"/>
		</g>
	</g>
</g>
<g transform="matrix( 1, 0, 0, 1, 0,0) ">
	<g>
		<g id="Layer5_699_MEMBER_1_FILL">
			
				<radialGradient id="SVGID_3_" cx="-463.219" cy="1.6989" r="2.4572" gradientTransform="matrix(2.9059 2.9059 -2.9059 2.9059 1450.3759 1386.0165)" gradientUnits="userSpaceOnUse">
				<stop  offset="0" style="stop-color:#A5A39C"/>
				<stop  offset="1" style="stop-color:#34342F"/>
			</radialGradient>
			<path fill="url(#SVGID_3_)" d="M99.5,34.9c-3.3,0-5.3,0.8-7,2.9c-2.1,2.1-3.3,4.5-3.3,7.4c0,2.9,1.2,5.3,3.3,7.4
				c1.6,2.1,4.1,3.3,7,3.3c2.9,0,5.3-1.2,7-3.3c2.1-2.1,2.9-4.1,2.9-7c0-2.9-0.8-5.3-2.9-7.4C104.4,35.8,102.3,34.9,99.5,34.9
				 M94.9,42.3c0,0,0.4-0.4,1.2-0.8c0-0.4,0.4-0.8,1.2-0.8c0.4,0,0.4,0,1.2,0.4l1.2,1.2l0.4-0.8c0.4-0.4,0.8-0.8,1.2-0.8
				c0.8,0,1.2,0,1.2,0.4v0.4c0.4,0.4,0.8,0.4,0.8,0.8c0,0.8-0.4,1.2-0.8,1.6l-1.2,0.8l1.2,1.2c0.4,0.4,0.8,0.8,0.8,1.2
				c0,0.4-0.4,0.8-0.8,1.2c0,0.4-0.4,0.4-1.2,0.4c-0.4,0-0.8-0.4-1.6-0.4l-0.4-0.8l-1.2,0.8c-0.4,0.4-0.8,0.8-0.8,0.8
				c-0.8,0-1.2-0.4-1.6-0.4c-0.8-0.4-1.2-0.8-1.2-1.2s0.4-0.8,1.2-1.2l0.8-1.2L95.8,44C95.3,43.6,94.9,43.2,94.9,42.3z"/>
			<path fill="#010101" d="M95.8,41.5c-0.8,0.4-1.2,0.8-1.2,0.8c0,0.8,0.4,1.2,1.2,1.6l0.8,1.2L95.8,46c-0.8,0.4-1.2,0.8-1.2,1.2
				c0,0.4,0.4,0.8,1.2,1.2c0.4,0.4,0.8,0.8,1.6,0.8c0.4,0,0.4-0.4,1.2-0.4l1.2-0.8l0.4,0.8c0.4,0,0.8,0.4,1.2,0.4
				c0.8,0,1.2-0.4,1.2-0.4c0.4-0.4,0.8-0.8,0.8-1.2s-0.4-0.8-0.8-1.2l-1.2-1.2l1.2-0.8c0.4-0.4,0.8-0.8,0.8-1.6
				c0-0.4-0.4-0.4-0.8-0.8v-0.8c0-0.4-0.4-0.4-1.2-0.4c-0.4,0-0.8,0.4-1.6,0.8l-0.4,0.8l-1.2-1.2c-0.4,0-0.8-0.4-0.8-0.4
				C96.6,40.7,96.2,41.1,95.8,41.5z"/>
		</g>
	</g>
</g>
<g transform="matrix( 1, 0, 0, 1, 0,0) ">
	<g>
		<g id="Layer5_699_MEMBER_2_FILL">
			
				<radialGradient id="SVGID_4_" cx="-463.2191" cy="1.6989" r="2.4572" gradientTransform="matrix(2.9059 2.9059 -2.9059 2.9059 1702.0881 1386.0165)" gradientUnits="userSpaceOnUse">
				<stop  offset="0" style="stop-color:#A5A39C"/>
				<stop  offset="1" style="stop-color:#34342F"/>
			</radialGradient>
			<path fill="url(#SVGID_4_)" d="M341.1,44.8c0,2.9,0.8,5.3,2.5,7.4c2.1,2.1,4.5,3.3,7,3.3c2.9,0,5.3-0.8,7-3.3
				c2.1-2.1,2.9-4.5,2.9-7.4c0-2.9-0.8-4.9-2.9-7.4c-1.6-1.6-4.1-2.9-7-2.9c-2.9,0-4.9,0.8-7,2.9C341.9,39.9,341.1,42.3,341.1,44.8
				 M346.8,42.7c0-0.4,0-0.4,0.4-1.2c0.4-0.4,0.8-0.8,1.6-0.8c0.4,0,0.8,0.4,1.2,0.8l0.8,0.4l1.2-1.2c0-0.4,0.4-0.4,1.2-0.4
				c0.4,0,0.8,0.4,1.2,0.8c0.4,0.4,0.4,0.8,0.4,1.2c0,0.4,0,1.2-0.4,1.6l-0.8,0.8l0.8,1.2c0.4,0.4,0.4,0.8,0.4,1.6
				c0,0.4,0,0.4-0.4,1.2c-0.4,0.4-0.8,0.4-1.2,0.4c-0.8,0-1.2-0.4-1.2-0.4l-1.2-0.8l-0.8,0.8c-0.4,0.4-0.8,0.4-1.2,0.4
				c-0.4,0-1.2-0.4-1.6-0.4c-0.4-0.4-0.4-0.8-0.4-1.2c0-0.8,0-1.2,0.4-1.6l1.2-1.2l-1.2-0.4C347.3,43.6,346.8,43.2,346.8,42.7z"/>
			<path fill="#010101" d="M347.3,41.5c-0.4,0.4-0.4,0.8-0.4,1.2c0,0.4,0,1.2,0.4,1.6l1.2,0.8l-1.2,0.8c-0.4,0.4-0.4,0.8-0.4,1.6
				c0,0.4,0,0.4,0.4,1.2c0.4,0.4,0.8,0.4,1.6,0.4c0.4,0,0.8-0.4,1.2-0.4l0.8-0.8l1.2,0.8c0,0.4,0.4,0.4,1.2,0.4
				c0.4,0,0.8-0.4,1.2-0.4c0.4-0.4,0.4-0.8,0.4-1.2c0-0.8,0-1.2-0.4-1.6l-0.8-1.2l0.8-0.8c0.4-0.4,0.4-0.8,0.4-1.6
				c0-0.4,0-0.4-0.4-1.2c-0.4-0.4-0.8-0.8-1.2-0.8c-0.8,0-1.2,0-1.2,0.4l-1.2,1.2l-0.8-0.4c-0.4-0.4-0.8-0.8-1.2-0.8
				C348.1,40.7,347.7,41.1,347.3,41.5z"/>
		</g>
	</g>
</g>
<g transform="matrix( 0.39410400390625, 0, 0, 0.39410400390625, 118.7,307.8) ">
	<g>
		<g id="Layer5_700_FILL">
			<path fill="#2F3031" d="M607.1-459.2c0-45.6-22.6-68.6-68.6-68.6H-0.8c-45.6,0-68.2,22.6-68.2,68.6V80.4
				C-69,126-46.4,149-0.8,149h539.2c45.6,0,68.6-22.6,68.6-68.6L607.1-459.2L607.1-459.2z"/>
		</g>
	</g>
	<g transform="matrix( 2.5373992919921875, 0, 0, 2.5373992919921875, -301.2,-781) ">
		<path id="Layer5_700_1_STROKES" fill="none" stroke="#585C66" stroke-linecap="round" stroke-linejoin="round" d="M-1066.9-2956
			h539.6c45.6,0,68.2,23,68.2,68.6v539.2c0,45.6-23,68.6-68.2,68.6h-539.6c-45.6,0-68.2-22.6-68.2-68.6v-539.2
			C-1135.1-2933.4-1112.5-2956-1066.9-2956z"/>
	</g>
</g>
<g transform="matrix( 1, 0, 0, 1, 0,0) ">
	<g>
		<g id="Layer5_701_FILL">
			
				<radialGradient id="SVGID_5_" cx="-264.5688" cy="-142.7169" r="5.525" gradientTransform="matrix(4.1096 0 0 4.1096 1410 725.4807)" gradientUnits="userSpaceOnUse">
				<stop  offset="0" style="stop-color:#505050"/>
				<stop  offset="1" style="stop-color:#010101"/>
			</radialGradient>
			<path fill="url(#SVGID_5_)" d="M300,138.9c0,6.2,2.5,11.9,7,16.8c4.5,4.1,9.9,6.2,16,6.2c6.6,0,11.9-2.1,16-6.2
				c4.9-4.9,7.4-10.3,7.4-16.8c0-5.8-2.5-11.1-7.4-15.6c-4.1-4.1-9.5-6.2-16-6.2c-6.2,0-11.5,2.1-16,6.2
				C302.1,127.8,300,133.2,300,138.9 M321,127.4c0.4-0.4,1.2-0.8,1.6-0.8l0,0c0.8,0,1.2,0,1.6,0.8c0.4,0.4,0.4,0.8,0.4,1.6v20.5
				c0,0.4,0,0.8-0.4,1.2c-0.4,0.4-0.8,0.8-1.6,0.8l0,0c-0.4,0-1.2-0.4-1.6-0.8c-0.4-0.4-0.8-1.2-0.8-1.2V129
				C320.1,128.2,320.5,127.8,321,127.4z"/>
			<path fill="#010101" d="M322.6,126.6c-0.4,0-1.2,0-1.6,0.8c-0.4,0.8-0.8,0.8-0.8,1.6v20.5c0,0.4,0.4,0.8,0.8,1.2
				c0.4,0.4,1.2,0.8,1.6,0.8l0,0c0.8,0,1.2-0.4,1.6-0.8c0.4-0.4,0.4-1.2,0.4-1.2V129c0-0.8,0-1.2-0.4-1.6
				C324.2,127,323.4,126.6,322.6,126.6L322.6,126.6z"/>
		</g>
	</g>
</g>
<g transform="matrix( 1, 0, 0, 1, 0,0) ">
	<g>
		<g id="Layer5_702_FILL">
			
				<radialGradient id="SVGID_6_" cx="-463.2191" cy="1.6989" r="5.5331" gradientTransform="matrix(2.9059 2.9059 -2.9059 2.9059 1477.2937 1480.3315)" gradientUnits="userSpaceOnUse">
				<stop  offset="0" style="stop-color:#505050"/>
				<stop  offset="1" style="stop-color:#010101"/>
			</radialGradient>
			<path fill="url(#SVGID_6_)" d="M103.2,139.7c0,6.2,2.5,11.5,6.6,15.6c4.5,4.5,9.9,6.6,16,6.6c6.6,0,12.3-2.1,16.4-6.6
				c4.1-4.1,6.2-9.5,6.2-16c0-6.2-2.5-11.5-6.6-16c-4.1-4.1-9.5-6.6-15.6-6.6c-6.6,0-11.9,2.1-16,6.2
				C105.6,127.8,103.6,133.2,103.2,139.7 M116.7,146.7c0-0.8,0-1.6,0.4-2.1l14.8-14.4c0.4-0.4,1.2-0.4,1.6-0.4c0.8,0,1.2,0,1.6,0.4
				c0.4,0.4,0.8,0.8,1.2,1.6c0,0.8-0.4,1.2-1.2,1.2l-14.8,14.8c-0.4,0.4-0.8,0.4-1.2,0.4c-0.8,0-1.6,0-2.1-0.4
				C116.7,147.9,116.7,147.5,116.7,146.7z"/>
			<path fill="#010101" d="M117.1,145.1c-0.4,0.4-0.4,1.2-0.4,2.1c0,0.4,0,1.2,0.4,1.6c0.4,0.4,1.2,0.4,2.1,0.4c0.4,0,0.8,0,1.2-0.4
				l14.8-14.8c0.4-0.4,0.8-0.8,1.2-1.2c0-0.8-0.4-1.2-1.2-1.6c-0.4-0.4-0.8-0.4-1.6-0.4c-0.4,0-1.2,0-1.6,0.4L117.1,145.1z"/>
		</g>
	</g>
</g>
<g transform="matrix( 1, 0, 0, 1, 0,0) ">
	<g>
		<g id="Layer5_703_FILL">
			
				<radialGradient id="SVGID_7_" cx="-471.2395" cy="323.1758" r="5.5252" gradientTransform="matrix(-1.0689 3.9682 -3.9588 -1.0689 1000.8669 2548.9998)" gradientUnits="userSpaceOnUse">
				<stop  offset="0" style="stop-color:#505050"/>
				<stop  offset="1" style="stop-color:#010101"/>
			</radialGradient>
			<path fill="url(#SVGID_7_)" d="M244.5,322.2c-3.3-5.8-7.8-9-14-10.7c-5.8-1.6-11.5-0.8-17.3,2.5c-5.3,3.3-9,7.8-10.7,13.6
				c-1.6,6.2-0.8,11.9,2.1,17.3c3.3,5.8,7.8,9.5,14,11.1c5.8,1.6,11.5,0.4,17.3-2.9c5.3-2.9,8.6-7.4,10.3-13.6
				C248.2,333.7,247.8,327.9,244.5,322.2 M235.5,334.1c0.4,0.4,0.8,0.8,1.2,1.2c0.4,0.4,0.4,0.8,0,1.6c-0.4,0.8-0.4,1.2-1.2,1.6
				c-0.4,0-0.8,0-1.6,0l-19.7-5.8c-0.4,0-0.8-0.4-1.2-1.2c-0.4-0.4-0.4-0.8-0.4-1.6c0-0.4,0.4-1.2,1.2-1.6c0.4-0.4,1.2-0.4,1.6,0
				L235.5,334.1z"/>
			<path fill="#010101" d="M236.7,335.3c-0.4-0.4-0.8-0.8-1.2-1.2l-19.7-5.3c-0.8,0-1.6,0-1.6,0c-0.8,0.4-1.2,1.2-1.2,1.6
				c0,0.8,0,1.2,0.4,1.6c0.4,0.8,0.8,1.2,1.2,1.2l19.7,5.8c0.8,0,1.2,0,1.6,0c0.8-0.4,1.2-0.8,1.2-1.6
				C237.1,336.6,237.1,335.8,236.7,335.3z"/>
		</g>
	</g>
</g>
<g transform="matrix( 1, 0, 0, 1, 0,0) ">
	<g>
		<g id="Layer5_704_FILL">
			<path fill="#010101" d="M291.4,140.1c0-2.9,0.4-5.8,1.2-8.2H157.4c0.8,2.5,1.2,5.3,1.2,8.2c0,8.2-2.9,15.2-8.6,21.4
				c-6.2,5.8-13.2,9-21.8,9c-4.5,0-9-0.8-13.2-2.9v136.4c0,19.7,9.9,29.2,29.6,29.2h49.7c0-8.2,3.3-15.6,9.5-21.4
				c5.8-5.8,12.7-9,21-9c8.2,0,15.6,2.9,21.4,9c6.2,5.8,9,13.2,9,21.4h49.7c19.7,0,29.6-9.9,29.6-29.2V167.3
				c-3.7,2.1-8.2,2.9-12.7,2.9c-8.2,0-15.6-2.9-21.8-9C294.2,155.3,291.4,148.4,291.4,140.1z"/>
		</g>
	</g>
</g>
<g transform="matrix( 1, 0, 0, 1, 0,0) ">
	<g>
		<g id="Layer5_705_FILL">
			<path fill="#FFFFFF" d="M129.9,230.1c-0.8-1.2-2.5-2.1-4.1-2.1s-2.9,0.8-3.7,2.1c-1.2,1.2-1.6,2.9-1.6,4.9s0.4,3.7,1.6,4.9
				c0.8,1.2,2.1,1.6,3.7,1.6s2.9-0.4,4.1-1.6c0.8-1.2,1.6-2.9,1.6-5.3S130.7,231,129.9,230.1 M122.9,231.4c0.4-0.8,1.6-1.2,2.5-1.2
				c2.5,0,3.7,1.6,3.7,4.9c0,1.6-0.4,3.3-1.2,4.1c-0.4,0.8-1.6,1.2-2.5,1.2s-2.1-0.4-2.5-1.2c-0.4-0.8-0.8-2.1-0.8-4.1
				C122.1,233.4,122.5,232.2,122.9,231.4 M144.7,233.8v-3.7h6.2v-2.1h-8.2v13.6h2.1v-6.2h4.5v-1.6L144.7,233.8 M141.4,230.1v-2.1
				h-8.2v13.6h2.1v-6.2h4.5v-1.6h-4.5v-3.7H141.4z"/>
		</g>
	</g>
</g>
<g transform="matrix( 1, 0, 0, 1, 0,0) ">
	<g>
		<g id="Layer5_706_FILL">
			<path fill="#FFFFFF" d="M161.9,168.5v10.3h2.1v-13.2h-0.4c-0.4,0.8-1.2,1.2-2.5,1.6c-0.4,0.8-1.2,1.2-2.1,1.2v1.6L161.9,168.5z"
				/>
		</g>
	</g>
</g>
<g transform="matrix( 1, 0, 0, 1, 0,0) ">
	<g>
		<g id="Layer5_707_FILL">
			<path fill="#FFFFFF" d="M223.2,139.3c-0.8,0-1.6,0-2.5,0c-0.4,0.4-0.8,0.8-1.2,1.6l1.2,0.8c0-0.4,0.4-0.4,1.2-0.8
				c0.4-0.4,0.8-0.4,1.2-0.4c1.2,0,2.1,0.4,2.1,2.1c0,0.8-0.4,2.1-1.2,3.3l-4.1,6.2v0.4h8.2v-1.6h-5.3l3.3-4.9
				c1.2-1.6,1.6-2.9,1.6-3.7c0-1.2-0.4-2.1-1.2-2.9C225.2,139.3,224.4,139.3,223.2,139.3z"/>
		</g>
	</g>
</g>
<g transform="matrix( 1, 0, 0, 1, 0,0) ">
	<g>
		<g id="Layer5_708_FILL">
			<path fill="#FFFFFF" d="M221.1,109.7h-0.8L217,120l-3.3-10.3h-0.8l-2.1,13.6h1.6l1.6-8.6l3.3,9h0.4l3.3-9l1.6,8.6h1.2
				L221.1,109.7 M233.4,109.7h-8.2v13.6h8.2v-1.6h-6.2v-4.9h4.5v-1.6h-4.5v-3.7h6.2V109.7 M191.9,109.3h-0.4l-5.8,14h2.1l0.8-2.9
				h5.3l0.8,2.9h2.1L191.9,109.3 M189.5,119.2l2.5-6.2l1.6,6.2H189.5 M200.5,109.7h-0.8l-2.5,13.6h1.6l1.6-8.6l3.3,9h0.4l3.3-9
				l1.2,8.6h2.1l-3.3-13.6h-0.8l-3.3,10.3L200.5,109.7 M245.3,111.4v-1.6h-10.7v1.6h4.5v11.9h1.6v-11.9H245.3 M253.2,115.1h-4.5
				v-3.7h6.2v-1.6h-8.2v13.6h8.2v-1.6h-6.2v-4.9h4.5V115.1 M265.5,113.4c0-2.5-1.6-3.7-4.9-3.7c-0.4,0-1.2,0-2.1,0h-1.2v13.6h1.6
				v-5.8c0.8,0,1.6,0,2.1,0l3.7,5.8h2.1l-4.1-6.2c0.8,0,1.2-0.4,2.1-1.2C265.5,115.1,265.5,114.2,265.5,113.4 M263,111.8
				c0.4,0.4,0.8,0.8,0.8,1.6s-0.4,1.6-0.8,2.1c-0.4,0.4-1.2,0.4-2.5,0.4c-0.4,0-0.8,0-1.2,0v-4.5c0.4,0,0.8,0,1.2,0
				C261.4,111.4,262.2,111.4,263,111.8z"/>
		</g>
	</g>
</g>
<g transform="matrix( 1, 0, 0, 1, 0,0) ">
	<g>
		<g id="Layer5_709_FILL">
			<path fill="#FFFFFF" d="M288.1,166.8c1.6,0,2.5,0.8,2.5,2.5s-0.8,2.1-2.5,2.1h-0.4v1.6h0.4c0.8,0,1.6,0.4,2.1,0.8
				c0.4,0.4,0.8,0.8,0.8,1.6c0,2.1-0.8,2.9-2.9,2.9c-0.8,0-1.6-0.4-2.5-1.2l-1.2,1.6c0.4,0.4,0.8,0.4,1.6,0.8
				c0.4,0.4,1.2,0.4,1.6,0.4c1.6,0,2.9-0.4,3.7-1.2c0.8-0.8,1.2-2.1,1.2-3.3c0-0.8-0.4-1.6-0.8-2.5c-0.4-0.8-1.2-1.2-1.6-1.2
				c0.4-0.4,0.8-0.8,1.2-1.2c0.4-0.8,0.8-1.2,0.8-2.1c0-1.2-0.4-2.1-1.2-2.9c-0.8-0.8-2.1-1.2-3.3-1.2s-2.5,0.4-3.3,1.2l1.2,1.6
				C286.4,167.3,286.8,166.8,288.1,166.8z"/>
		</g>
	</g>
</g>
<text transform="matrix(1 0 0 1 170.9726 34.9314)"><tspan x="0" y="0" font-family="'MSReferenceSansSerif'" font-size="24">AMMETER</tspan><tspan x="0" y="28.8" font-family="'MSReferenceSansSerif'" font-size="24">SWITCH</tspan></text>
<text transform="matrix(1 0 0 1 178.9726 421.6437)" font-family="'MSReferenceSansSerif'" font-size="16">HEATER ON</text>
</svg>
