<?xml version="1.0" encoding="utf-8"?>
<!-- Generator: Adobe Illustrator 18.0.0, SVG Export Plug-In . SVG Version: 6.00 Build 0)  -->
<!DOCTYPE svg PUBLIC "-//W3C//DTD SVG 1.1//EN" "http://www.w3.org/Graphics/SVG/1.1/DTD/svg11.dtd">
<svg version="1.1" id="Layer_1" xmlns="http://www.w3.org/2000/svg" xmlns:xlink="http://www.w3.org/1999/xlink" x="0px" y="0px"
	 viewBox="0 0 450 450" enable-background="new 0 0 450 450" xml:space="preserve">
<g transform="matrix( 0.5235748291015625, 0, 0, 0.586517333984375, -178.5,22.8) ">
	<g>
		<g id="Layer5_377_MEMBER_0_FILL">
			<path fill="#DFE6EC" d="M1002.9,95V-39H538V95C538,95,1002.9,95,1002.9,95z"/>
		</g>
	</g>
</g>
<g transform="matrix( 1, 0, 0, 1, 0,0) ">
	<g>
		<g id="Layer5_377_MEMBER_1_FILL">
			
				<radialGradient id="SVGID_1_" cx="-138.1267" cy="303.7116" r="2.4572" gradientTransform="matrix(2.5134 2.5134 -2.5134 2.5134 1225.944 -376.6578)" gradientUnits="userSpaceOnUse">
				<stop  offset="0" style="stop-color:#A5A39C"/>
				<stop  offset="1" style="stop-color:#34342F"/>
			</radialGradient>
			<path fill="url(#SVGID_1_)" d="M106.8,39.5c0,2.5,0.7,4.6,2.5,5.7c1.8,1.8,3.6,2.8,6,2.8c2.5,0,4.6-1.1,6.4-2.8
				c1.4-1.4,2.1-3.6,2.1-5.7c0-2.5-0.7-4.6-2.1-6.4c-1.8-1.8-3.9-2.5-6.4-2.5s-4.3,0.7-6,2.5C107.5,34.8,106.8,37,106.8,39.5
				 M111.8,37.3c0,0,0-0.4,0.4-1.1c0.4-0.4,1.1-0.7,1.4-0.7c0.4,0,0.7,0,1.1,0.4l1.1,1.1l1.1-0.7c0.4-0.4,0.7-0.7,1.1-0.7
				c0.4,0,1.1,0,1.4,0.4l0,0c0.4,0.4,0.4,0.7,0.4,1.1c0,0.4,0,0.7-0.4,1.4l-1.1,0.7l1.1,1.1c0.4,0.4,0.4,0.7,0.4,1.1
				c0,0.4,0,0.4-0.4,0.7c-0.4,0.7-1.1,1.1-1.4,1.1s-0.7,0-1.1-0.7l-1.1-1.1l-1.1,0.7c-0.4,0.7-0.4,1.1-1.1,1.1c-0.4,0-1.1,0-1.4-0.7
				v-0.4c-0.4-0.4-0.4-0.4-0.4-0.7c0-0.4,0-1.1,0.4-1.1l1.1-1.1l-1.1-0.4C112.1,38.4,111.8,37.7,111.8,37.3z"/>
			<path fill="#010101" d="M112.1,36.6c-0.4,0.4-0.4,0.7-0.4,1.1c0,0.4,0,0.7,0.4,1.4l1.1,0.7l-1.1,0.7c-0.4,0.4-0.4,0.7-0.4,1.1
				c0,0.4,0,0.4,0.4,0.7v0.4c0.4,0.4,1.1,0.7,1.4,0.7c0.4,0,0.7-0.4,1.1-1.1l1.1-0.7l1.1,1.1c0.4,0.4,0.7,0.7,1.1,0.7
				c0.4,0,1.1-0.4,1.4-1.1c0.4-0.4,0.4-0.4,0.4-0.7c0-0.7,0-1.1-0.4-1.1l-1.1-1.1l1.1-0.7c0.4-0.7,0.4-1.1,0.4-1.4
				c0-0.4,0-0.7-0.4-1.1l0,0c-0.4-0.4-1.1-0.4-1.4-0.4s-0.7,0.4-1.1,0.7l-1.1,0.7l-1.1-1.1c-0.4-0.4-0.4-0.4-1.1-0.4
				C113.2,35.9,112.9,36.3,112.1,36.6z"/>
		</g>
	</g>
</g>
<g transform="matrix( 1, 0, 0, 1, 0,0) ">
	<g>
		<g id="Layer5_377_MEMBER_2_FILL">
			
				<radialGradient id="SVGID_2_" cx="-138.1267" cy="303.7116" r="2.4572" gradientTransform="matrix(2.5134 2.5134 -2.5134 2.5134 1444.5459 -376.6578)" gradientUnits="userSpaceOnUse">
				<stop  offset="0" style="stop-color:#A5A39C"/>
				<stop  offset="1" style="stop-color:#34342F"/>
			</radialGradient>
			<path fill="url(#SVGID_2_)" d="M327.9,33.4c-1.4,1.8-2.5,3.9-2.5,6.4c0,2.5,0.7,4.6,2.5,5.7c1.8,1.8,3.6,2.8,6.4,2.8
				c2.5,0,4.3-1.1,6-2.8c1.8-1.4,2.8-3.6,2.8-5.7c0-2.5-1.1-4.6-2.8-6.4c-1.8-1.8-3.6-2.5-6-2.5C331.5,30.9,329.3,31.6,327.9,33.4
				 M336.4,39.5l1.1,1.1c0.4,0.4,0.4,0.7,0.4,1.4c0,0,0,0.4-0.4,0.7c-0.4,0.7-0.7,1.1-1.1,1.1s-0.7,0-1.1-0.7l-1.1-1.1l-1.1,0.7
				c-0.4,0.4-0.7,0.7-1.1,0.7c-0.4,0-0.7-0.4-1.4-1.1c-0.4-0.4-0.4-0.4-0.4-0.7c0-0.7,0-1.1,0.4-1.4l1.1-1.1l-1.1-0.7
				c-0.4-0.7-0.4-1.1-0.4-1.1c0-0.4,0-0.7,0.4-1.1c0.4-0.4,1.1-0.7,1.4-0.4c0.4,0,0.7,0,1.1,0.4l1.1,0.7l1.1-1.1
				c0.4-0.4,0.7-0.4,1.1-0.4s0.7,0,1.1,0.4c0.4,0.4,0.4,0.7,0.4,1.1c0,0.4,0,0.7-0.4,1.1L336.4,39.5z"/>
			<path fill="#010101" d="M337.1,40.5l-1.1-1.1l1.1-0.7c0.4-0.7,0.4-1.1,0.4-1.1c0-0.4,0-0.7-0.4-1.1c-0.4-0.4-0.7-0.4-1.1-0.4
				c-0.4,0-0.7,0-1.1,0.4l-1.1,1.1l-1.1-0.7c-0.4-0.4-0.7-0.7-1.1-0.4c-0.4,0-0.7,0-1.4,0.4c-0.4,0.4-0.4,0.7-0.4,1.1
				c0,0.4,0,0.7,0.4,1.1l1.1,0.7l-1.1,1.1c-0.4,0.4-0.4,0.7-0.4,1.4c0,0,0,0.4,0.4,0.7c0.4,0.7,1.1,1.1,1.4,1.1s0.7,0,1.1-0.7
				l1.1-1.1l1.1,1.1c0.4,0.4,0.7,0.7,1.1,0.7s0.7-0.4,1.1-1.1c0.4-0.4,0.4-0.4,0.4-0.7C337.5,41.2,337.5,40.5,337.1,40.5z"/>
		</g>
	</g>
</g>
<g transform="matrix( 0.4074554443359375, 0, 0, 0.4074554443359375, -198,35.5) ">
	<g>
		<g id="Layer5_536_FILL">
			<path fill="#232324" d="M1480.3,229.3c0-26.7-9.6-49.4-28.4-68.6c-18.8-18.8-41.6-28.4-68.2-28.4H692c-26.7,0-49.4,9.6-68.6,28.4
				c-18.8,18.8-28.1,41.9-28.1,68.6V921c0,26.7,9.6,49.4,28.1,68.2c18.8,18.8,41.9,28.4,68.6,28.4h691.7c26.7,0,49.4-9.6,68.2-28.4
				c18.8-18.8,28.4-41.6,28.4-68.2L1480.3,229.3L1480.3,229.3z"/>
		</g>
	</g>
</g>
<g transform="matrix( 0.4074554443359375, 0, 0, 0.4074554443359375, -198,35.5) ">
	<g>
		<g id="Layer5_537_FILL">
			<path fill="#010101" d="M1469,575.2c0-119.1-41.9-220.7-126.2-305c-84.2-84.2-185.9-126.5-305-126.5s-220.4,42.3-305,126.5
				c-84.2,84.2-126.5,185.9-126.5,305s41.9,220.7,126.5,305c84.2,84.2,185.9,126.5,305,126.5s220.7-42.3,305-126.5
				C1427,795.6,1469,693.9,1469,575.2z"/>
		</g>
	</g>
</g>
<g transform="matrix( 0.4074554443359375, 0, 0, 0.4074554443359375, -198,35.5) ">
	<g>
		<g id="Layer5_538_FILL">
			<path fill="#E8E3DD" d="M1446.9,575.2c0-113-39.8-209.4-119.8-289.3c-80-80-176.3-119.8-289.3-119.8
				c-113,0-209.4,39.8-289.3,119.8S628.7,462.1,628.7,575.2s39.8,209.4,119.8,289.3s176.3,119.8,289.3,119.8
				c113,0,209.4-39.8,289.3-119.8C1407.1,784.2,1446.9,687.8,1446.9,575.2z"/>
		</g>
	</g>
</g>
<g transform="matrix( 1, 0, 0, 1, 0,0) ">
	<g>
		<g id="Layer5_539_FILL">
			
				<radialGradient id="SVGID_3_" cx="-248.7749" cy="286.5832" r="3.9125" gradientTransform="matrix(3.5545 0 0 3.5545 967.1801 -896.5034)" gradientUnits="userSpaceOnUse">
				<stop  offset="0" style="stop-color:#505050"/>
				<stop  offset="1" style="stop-color:#010101"/>
			</radialGradient>
			<path fill="url(#SVGID_3_)" d="M73,112.3c-2.8,2.8-4.3,6-4.3,10c0,3.9,1.4,7.1,4.3,10c2.5,2.5,5.7,3.9,10,3.9
				c3.9,0,7.1-1.4,10-3.9c2.8-2.8,4.3-6,4.3-10c0-3.9-1.4-7.1-4.3-10c-2.8-2.8-6-4.3-10-4.3C79.1,108.1,75.9,109.5,73,112.3
				 M75.9,122.3c0-0.7,0.4-1.4,1.1-1.8c0.4-0.7,1.1-1.1,1.8-1.1h2.1v-1.8c0-0.7,0-1.4,0.4-1.8c0.4-0.4,1.1-0.7,1.8-0.7
				s1.4,0.4,1.8,0.7c0.7,0.4,1.1,1.1,1.1,1.8v1.8h1.4c0.7,0,1.4,0.4,1.8,1.1c0.7,0.4,1.1,1.1,1.1,1.8c0,0.7-0.4,1.4-1.1,2.1
				c-0.4,0.4-1.1,0.7-1.8,0.7h-1.8v1.8c0,0.7-0.4,1.4-1.1,1.8c-0.4,0.4-1.1,0.7-1.8,0.7s-1.4-0.4-1.8-0.7c-0.4-0.4-0.4-1.1-0.4-1.8
				v-1.8h-2.1c-0.7,0-1.4-0.4-1.8-0.7C76.2,123.7,75.9,123,75.9,122.3z"/>
			<path fill="#010101" d="M76.6,120.5c-0.7,0.4-1.1,1.1-1.1,1.8c0,0.7,0.4,1.4,1.1,2.1c0.4,0.4,1.1,0.7,1.8,0.7h2.1v1.8
				c0,0.7,0,1.4,0.4,1.8c0.4,0.4,1.1,0.7,1.8,0.7s1.4-0.4,1.8-0.7c0.7-0.4,1.1-1.1,1.1-1.8v-1.8h1.8c0.7,0,1.4-0.4,1.8-0.7
				c0.7-0.7,1.1-1.1,1.1-2.1c0-0.7-0.4-1.4-1.1-1.8c-0.4-0.7-1.1-1.1-1.8-1.1h-1.8v-1.8c0-0.7-0.4-1.4-1.1-1.8
				c-0.4-0.4-1.1-0.7-1.8-0.7s-1.4,0.4-1.8,0.7c-0.4,0.4-0.4,1.1-0.4,1.8v1.8h-2.1C77.7,119.4,77,119.8,76.6,120.5z"/>
		</g>
	</g>
</g>
<g transform="matrix( 1, 0, 0, 1, 0,0) ">
	<g>
		<g id="Layer5_540_FILL">
			
				<radialGradient id="SVGID_4_" cx="-248.7749" cy="286.5832" r="3.9125" gradientTransform="matrix(3.5545 0 0 3.5545 1257.7606 -896.5034)" gradientUnits="userSpaceOnUse">
				<stop  offset="0" style="stop-color:#505050"/>
				<stop  offset="1" style="stop-color:#010101"/>
			</radialGradient>
			<path fill="url(#SVGID_4_)" d="M363.8,112.3c-2.8,2.8-4.3,6-4.3,10c0,3.9,1.4,7.1,4.3,10c2.5,2.5,5.7,3.9,10,3.9s7.1-1.4,9.6-3.9
				c2.8-2.8,4.3-6,4.3-10c0-3.9-1.4-7.1-4.3-10c-2.5-2.8-5.7-4.3-9.6-4.3S366.3,109.5,363.8,112.3 M375.5,115.9
				c0.4,0.4,0.4,1.1,0.4,1.8v1.8h2.1c0.7,0,1.1,0.4,1.8,1.1c0.4,0.4,0.4,1.1,0.4,1.8c0,0.7-0.4,1.4-0.4,2.1
				c-0.7,0.4-1.1,0.7-1.8,0.7h-2.1v1.8c0,0.7-0.4,1.4-0.4,1.8c-0.7,0.4-1.4,0.7-2.1,0.7c-0.7,0-1.4-0.4-1.8-0.7
				c-0.4-0.4-0.4-1.1-0.4-1.8v-1.8h-2.1c-0.4,0-1.1-0.4-1.8-0.7c-0.4-0.7-0.7-1.1-0.7-2.1c0-0.7,0.4-1.4,0.7-1.8
				c0.7-0.7,1.1-1.1,1.8-1.1h2.1v-1.8c0-0.7,0-1.4,0.4-1.8c0.7-0.4,1.4-0.7,1.8-0.7C374.1,115.2,374.8,115.2,375.5,115.9z"/>
			<path fill="#010101" d="M375.9,117.7c0-0.7-0.4-1.4-0.4-1.8c-0.7-0.4-1.4-0.7-2.1-0.7c-0.7,0-1.4,0.4-1.8,0.7
				c-0.4,0.4-0.4,1.1-0.4,1.8v1.8h-2.1c-0.4,0-1.1,0.4-1.8,1.1c-0.4,0.4-0.7,1.1-0.7,1.8c0,0.7,0.4,1.4,0.7,2.1
				c0.7,0.4,1.1,0.7,1.8,0.7h2.1v1.8c0,0.7,0,1.4,0.4,1.8c0.7,0.4,1.4,0.7,1.8,0.7c0.7,0,1.4-0.4,2.1-0.7c0.4-0.4,0.4-1.1,0.4-1.8
				v-1.8h2.1c0.7,0,1.1-0.4,1.8-0.7c0.4-0.7,0.4-1.1,0.4-2.1c0-0.7-0.4-1.4-0.4-1.8c-0.7-0.7-1.1-1.1-1.8-1.1h-2.1V117.7z"/>
		</g>
	</g>
</g>
<g transform="matrix( 1, 0, 0, 1, 0,0) ">
	<g>
		<g id="Layer5_541_FILL">
			
				<radialGradient id="SVGID_5_" cx="-248.7749" cy="286.5832" r="3.9125" gradientTransform="matrix(3.5545 0 0 3.5545 1257.7606 -599.7025)" gradientUnits="userSpaceOnUse">
				<stop  offset="0" style="stop-color:#505050"/>
				<stop  offset="1" style="stop-color:#010101"/>
			</radialGradient>
			<path fill="url(#SVGID_5_)" d="M383,408.8c-2.5-2.5-5.7-3.9-9.6-3.9c-3.6,0-6.8,1.4-10,3.9c-2.8,2.8-4.3,6.4-4.3,10
				s1.4,7.1,4.3,10c2.8,2.8,6,4.3,10,4.3c3.9,0,7.1-1.4,9.6-4.3c2.8-2.8,4.3-6,4.3-10C387.3,415.2,385.8,412,383,408.8 M373.4,412
				L373.4,412c0.7,0,1.4,0.4,2.1,0.7c0.4,0.7,0.4,1.1,0.4,1.8v1.8h2.1c0.7,0,1.1,0.4,1.8,1.1c0.4,0.4,0.4,1.1,0.4,1.8
				c0,0.7-0.4,1.4-0.4,1.8c-0.7,0.4-1.1,0.7-1.8,0.7h-2.1v2.1c0,0.7-0.4,1.4-0.4,1.8c-0.7,0.4-1.1,0.7-1.8,0.7h-0.4
				c-0.7,0-1.4-0.4-1.8-0.7s-0.4-1.1-0.4-1.8v-2.1h-2.1c-0.7,0-1.1-0.4-1.8-0.7c-0.4-0.4-0.7-1.1-0.7-1.8c0-0.7,0.4-1.4,0.7-1.8
				c0.7-0.7,1.1-1.1,1.8-1.1h2.1v-1.8c0-0.7,0-1.1,0.4-1.8S372.7,412,373.4,412z"/>
			<path fill="#010101" d="M373.8,412L373.8,412c-1.1,0-1.4,0.4-2.1,0.7c-0.4,0.7-0.4,1.1-0.4,1.8v1.8h-2.1c-0.7,0-1.1,0.4-1.8,1.1
				c-0.4,0.4-0.7,1.1-0.7,1.8c0,0.7,0.4,1.4,0.7,1.8c0.7,0.4,1.1,0.7,1.8,0.7h2.1v2.1c0,0.7,0,1.4,0.4,1.8c0.7,0.4,1.4,0.7,1.8,0.7
				h0.4c0.7,0,1.1-0.4,1.8-0.7c0.4-0.4,0.4-1.1,0.4-1.8v-2.1h2.1c0.7,0,1.1-0.4,1.8-0.7c0.4-0.4,0.4-1.1,0.4-1.8
				c0-0.7-0.4-1.4-0.4-1.8c-0.7-0.7-1.1-1.1-1.8-1.1h-2.1v-1.8c0-0.7-0.4-1.1-0.4-1.8C374.8,412,374.1,412,373.8,412z"/>
		</g>
	</g>
</g>
<g transform="matrix( 1, 0, 0, 1, 0,0) ">
	<g>
		<g id="Layer5_542_FILL">
			
				<radialGradient id="SVGID_6_" cx="-248.7749" cy="286.5832" r="3.9125" gradientTransform="matrix(3.5545 0 0 3.5545 962.0261 -600.058)" gradientUnits="userSpaceOnUse">
				<stop  offset="0" style="stop-color:#505050"/>
				<stop  offset="1" style="stop-color:#010101"/>
			</radialGradient>
			<path fill="url(#SVGID_6_)" d="M91.9,418.7c0-3.6-1.4-6.8-4.3-10c-2.8-2.5-6-3.9-10-3.9c-3.9,0-7.1,1.4-9.6,3.9
				c-2.8,2.8-3.9,6.4-3.9,10c0,3.9,1.4,7.5,3.9,10c2.5,2.8,5.7,4.3,9.6,4.3s7.1-1.4,10-4.3C90.5,425.8,91.9,422.6,91.9,418.7
				 M84.8,418.7L84.8,418.7c0,1.1,0,1.8-0.4,2.1c-0.7,0.4-1.4,0.7-1.8,0.7h-2.1v1.8c0,0.7-0.4,1.4-1.1,2.1c-0.4,0.4-1.1,0.7-1.4,0.7
				h-0.4c-0.7,0-1.1-0.4-1.8-0.7c-0.4-0.4-0.4-1.1-0.4-2.1v-1.8h-2.1c-1.1,0-1.8-0.4-1.8-0.7c-0.4-0.4-0.4-1.1-0.4-1.8v-0.4
				c0-0.7,0-1.1,0.4-1.4c0.4-0.7,1.1-1.1,1.8-1.1h2.1v-1.8c0-0.7,0-1.1,0.4-1.8c0.7-0.4,1.1-0.7,1.8-0.7H78c0.4,0,1.1,0.4,1.4,0.7
				c0.7,0.7,1.1,1.1,1.1,1.8v1.8h2.1c0.4,0,1.1,0.4,1.8,1.1C84.8,417.7,84.8,418,84.8,418.7z"/>
			<path fill="#010101" d="M84.8,419.1L84.8,419.1c0-1.1,0-1.4-0.4-1.8c-0.7-0.7-1.4-1.1-1.8-1.1h-2.1v-1.8c0-0.7-0.4-1.1-1.1-1.8
				c-0.4-0.4-1.1-0.7-1.4-0.7h-0.4c-0.7,0-1.1,0.4-1.8,0.7c-0.4,0.7-0.4,1.1-0.4,1.8v1.8h-2.1c-1.1,0-1.8,0.4-1.8,1.1
				c-0.4,0.4-0.4,0.7-0.4,1.4v0.4c0,0.7,0,1.4,0.4,1.8c0.4,0.4,1.1,0.7,1.8,0.7h2.1v1.8c0,0.7,0,1.4,0.4,2.1
				c0.7,0.4,1.1,0.7,1.8,0.7H78c0.4,0,1.1-0.4,1.4-0.7c0.7-0.4,1.1-1.1,1.1-2.1v-1.8h2.1c0.4,0,1.1-0.4,1.8-0.7
				C84.8,420.1,84.8,419.8,84.8,419.1z"/>
		</g>
	</g>
</g>
<g transform="matrix( 1, 0, 0, 1, 0,0) ">
	<g>
		<g id="Layer5_543_FILL">
			<path fill="#16151A" d="M167.6,147.2l-6.8-28.4l-10.7,5L167.6,147.2z"/>
		</g>
	</g>
</g>
<g transform="matrix( 0.4058990478515625, 0.0355072021484375, -0.0355072021484375, 0.4058990478515625, -197.2,-21.8) ">
	<g>
		<g id="Layer5_544_FILL">
			<path fill="#010101" d="M1092.1,229.3v58.3h3.6v-58.3H1092.1z"/>
		</g>
	</g>
</g>
<g transform="matrix( 0.4012603759765625, 0.0707550048828125, -0.0707550048828125, 0.4012603759765625, -183.5,-64.6) ">
	<g>
		<g id="Layer5_545_FILL">
			<path fill="#010101" d="M1128.2,240.4v58.3h3.6v-58.3H1128.2z"/>
		</g>
	</g>
</g>
<g transform="matrix( 0.3935699462890625, 0.105438232421875, -0.105438232421875, 0.3935699462890625, -166.25,-106.15) ">
	<g>
		<g id="Layer5_546_FILL">
			<path fill="#010101" d="M1163.9,248v57.9h3.6V248H1163.9z"/>
		</g>
	</g>
</g>
<g transform="matrix( 0.3828887939453125, 0.139373779296875, -0.139373779296875, 0.3828887939453125, -145.45,-145.9) ">
	<g>
		<g id="Layer5_547_FILL">
			<path fill="#010101" d="M1200.9,253.5v57.9h3.6l0-57.9H1200.9z"/>
		</g>
	</g>
</g>
<g transform="matrix( 0.3528594970703125, 0.2037353515625, -0.2037353515625, 0.3528594970703125, -93.8,-219.05) ">
	<g>
		<g id="Layer5_548_FILL">
			<path fill="#010101" d="M1276.1,254.6v58.3h3.6v-58.3H1276.1z"/>
		</g>
	</g>
</g>
<g transform="matrix( 0.2881011962890625, 0.2881011962890625, -0.2881011962890625, 0.2881011962890625, 5.35,-309.6) ">
	<g>
		<g id="Layer5_549_FILL">
			<path fill="#010101" d="M1384.5,231.4v57.9h3.6V231h-3.6V231.4z"/>
		</g>
	</g>
</g>
<g transform="matrix( 0.333770751953125, 0.23370361328125, -0.23370361328125, 0.333770751953125, -63.45,-252.4) ">
	<g>
		<g id="Layer5_550_FILL">
			<path fill="#010101" d="M1311.7,248.3v57.9h3.6l0-57.9H1311.7z"/>
		</g>
	</g>
</g>
<g transform="matrix( 0.312103271484375, 0.2619171142578125, -0.2619171142578125, 0.3121185302734375, -30.25,-282.4) ">
	<g>
		<g id="Layer5_551_FILL">
			<path fill="#010101" d="M1349,241.9v57.9h3.6v-57.9H1349z"/>
		</g>
	</g>
</g>
<g transform="matrix( 0.23370361328125, 0.333770751953125, -0.333770751953125, 0.23370361328125, 83.25,-354.35) ">
	<g>
		<g id="Layer5_552_FILL">
			<path fill="#010101" d="M1452.4,199.1V257h3.6v-57.9H1452.4z"/>
		</g>
	</g>
</g>
<g transform="matrix( 0.203704833984375, 0.35284423828125, -0.35284423828125, 0.2037353515625, 124.75,-371.4) ">
	<g>
		<g id="Layer5_553_FILL">
			<path fill="#010101" d="M1484,179.6v58.3h3.6v-58.3H1484z"/>
		</g>
	</g>
</g>
<g transform="matrix( 1.05303955078125, 0, 0, 1.05303955078125, -581.05,-3) ">
	<g>
		<g id="Layer5_554_FILL">
			<path fill="#CB2026" d="M903.1,193.6l-20.6,9.6l0.4,1.1l20.6-9.6L903.1,193.6z"/>
		</g>
	</g>
</g>
<g transform="matrix( 0.1393585205078125, 0.3828277587890625, -0.3828582763671875, 0.1393585205078125, 211.3,-394.3) ">
	<g>
		<g id="Layer5_555_FILL">
			<path fill="#010101" d="M1541.3,132.7l0,57.9l3.6,0v-57.9H1541.3z"/>
		</g>
	</g>
</g>
<g transform="matrix( 0.0707550048828125, 0.401214599609375, -0.401214599609375, 0.0707550048828125, 300.6,-401.85) ">
	<g>
		<g id="Layer5_556_FILL">
			<path fill="#010101" d="M1590.1,76.6v57.9h3.6V76.6H1590.1z"/>
		</g>
	</g>
</g>
<g transform="matrix( 0.0355072021484375, 0.4058685302734375, -0.4058837890625, 0.0355072021484375, 345.55,-399.85) ">
	<g>
		<g id="Layer5_557_FILL">
			<path fill="#010101" d="M1610.1,44.3v57.9h3.6l0-57.9L1610.1,44.3z"/>
		</g>
	</g>
</g>
<g transform="matrix( 0.000030517578125, 0.407440185546875, -0.407440185546875, 0.000030517578125, 389.85,-394) ">
	<g>
		<g id="Layer5_558_FILL">
			<path fill="#010101" d="M1626.9,12.5l0,57.9h3.6V12.5L1626.9,12.5z"/>
		</g>
	</g>
</g>
<g transform="matrix( -0.0355072021484375, 0.4058837890625, -0.4058837890625, -0.0355072021484375, 433.75,-384.35) ">
	<g>
		<g id="Layer5_559_FILL">
			<path fill="#010101" d="M1640.3-22.3l0,57.9l3.6,0v-57.9L1640.3-22.3z"/>
		</g>
	</g>
</g>
<g transform="matrix( -0.105438232421875, 0.393524169921875, -0.393524169921875, -0.105438232421875, 517.95,-353.15) ">
	<g>
		<g id="Layer5_560_FILL">
			<path fill="#010101" d="M1661.8-94.4v58.3h3.6l0-58.3H1661.8z"/>
		</g>
	</g>
</g>
<g transform="matrix( -0.1393585205078125, 0.3828582763671875, -0.3828887939453125, -0.1393585205078125, 557.75,-332.5) ">
	<g>
		<g id="Layer5_561_FILL">
			<path fill="#010101" d="M1666.2-131.4l0,57.9l3.6,0v-57.9H1666.2z"/>
		</g>
	</g>
</g>
<g transform="matrix( -0.1721954345703125, 0.3692626953125, -0.3692626953125, -0.1721954345703125, 595.55,-308.45) ">
	<g>
		<g id="Layer5_562_FILL">
			<path fill="#010101" d="M1667.2-168.2l0,57.9h3.6v-57.9H1667.2z"/>
		</g>
	</g>
</g>
<g transform="matrix( -0.2037353515625, 0.3528594970703125, -0.3528594970703125, -0.2037353515625, 631.05,-280.55) ">
	<g>
		<g id="Layer5_563_FILL">
			<path fill="#010101" d="M1668.9-206.7v58.3h3.6v-58.3H1668.9z"/>
		</g>
	</g>
</g>
<g transform="matrix( 0.4058990478515625, -0.0355072021484375, 0.0355072021484375, 0.4058990478515625, -213,66.15) ">
	<g>
		<g id="Layer5_564_FILL">
			<path fill="#010101" d="M1024.6,195.1v58.3h3.6l0-58.3H1024.6z"/>
		</g>
	</g>
</g>
<g transform="matrix( 0.40130615234375, -0.0707550048828125, 0.0707550048828125, 0.40130615234375, -215,111.05) ">
	<g>
		<g id="Layer5_565_FILL">
			<path fill="#010101" d="M994.2,175.5v58.3h3.6l0-58.3H994.2z"/>
		</g>
	</g>
</g>
<g transform="matrix( 0.39361572265625, -0.10546875, 0.10546875, 0.39361572265625, -213.1,156) ">
	<g>
		<g id="Layer5_566_FILL">
			<path fill="#010101" d="M965.1,153.4v57.9h3.6v-57.9H965.1z"/>
		</g>
	</g>
</g>
<g transform="matrix( 0.3829193115234375, -0.139373779296875, 0.139373779296875, 0.3829193115234375, -207.4,200.4) ">
	<g>
		<g id="Layer5_567_FILL">
			<path fill="#010101" d="M937.8,127.1l0,58.3h3.6l0-58.3H937.8z"/>
		</g>
	</g>
</g>
<g transform="matrix( 0.352874755859375, -0.2037506103515625, 0.2037506103515625, 0.352874755859375, -184.55,286.95) ">
	<g>
		<g id="Layer5_568_FILL">
			<path fill="#010101" d="M889.8,68.7l0,57.9h3.6V68.7H889.8z"/>
		</g>
	</g>
</g>
<g transform="matrix( 0.3337860107421875, -0.23370361328125, 0.23370361328125, 0.3337860107421875, -167.4,328.5) ">
	<g>
		<g id="Layer5_569_FILL">
			<path fill="#010101" d="M870.4,37.8l0,57.9h3.6l0-57.9L870.4,37.8z"/>
		</g>
	</g>
</g>
<g transform="matrix( 0.3121185302734375, -0.261932373046875, 0.261932373046875, 0.3121185302734375, -146.85,368.5) ">
	<g>
		<g id="Layer5_570_FILL">
			<path fill="#010101" d="M852.7,4.5l0,58.3l3.6,0l0-58.3L852.7,4.5z"/>
		</g>
	</g>
</g>
<g transform="matrix( 0.2881011962890625, -0.2881011962890625, 0.2881011962890625, 0.2881011962890625, -122.85,406.35) ">
	<g>
		<g id="Layer5_571_FILL">
			<path fill="#010101" d="M838.6-29.9v58.3h3.6v-58.3H838.6z"/>
		</g>
	</g>
</g>
<g transform="matrix( 0.23370361328125, -0.333770751953125, 0.333770751953125, 0.23370361328125, -65.3,475.1) ">
	<g>
		<g id="Layer5_572_FILL">
			<path fill="#010101" d="M821-101.9V-44h3.6v-57.9H821z"/>
		</g>
	</g>
</g>
<g transform="matrix( 0.2037353515625, -0.35284423828125, 0.35284423828125, 0.2037353515625, -32.35,505.65) ">
	<g>
		<g id="Layer5_573_FILL">
			<path fill="#010101" d="M815.3-138.8v58.3h3.6v-58.3H815.3z"/>
		</g>
	</g>
</g>
<g transform="matrix( 0.1721954345703125, -0.3692474365234375, 0.3692474365234375, 0.1721954345703125, 3.1,532.9) ">
	<g>
		<g id="Layer5_574_FILL">
			<path fill="#010101" d="M814.7-176.8l0,58.3h3.6l0-58.3H814.7z"/>
		</g>
	</g>
</g>
<g transform="matrix( 0.1393585205078125, -0.3828277587890625, 0.3828277587890625, 0.1393585205078125, 40.9,557.45) ">
	<g>
		<g id="Layer5_575_FILL">
			<path fill="#010101" d="M814.6-213.2l0,57.9h3.6l0-57.9H814.6z"/>
		</g>
	</g>
</g>
<g transform="matrix( 0.0707550048828125, -0.401214599609375, 0.401214599609375, 0.0707550048828125, 122.15,595.5) ">
	<g>
		<g id="Layer5_576_FILL">
			<path fill="#010101" d="M828.4-286.2v57.9h3.6v-57.9H828.4z"/>
		</g>
	</g>
</g>
<g transform="matrix( 0.0355072021484375, -0.4058685302734375, 0.4058685302734375, 0.0355072021484375, 164.9,608.95) ">
	<g>
		<g id="Layer5_577_FILL">
			<path fill="#010101" d="M841.2-322.1l0,57.9h3.6l0-57.9H841.2z"/>
		</g>
	</g>
</g>
<g transform="matrix( 0.000030517578125, -0.407440185546875, 0.407440185546875, 0.000030517578125, 208.65,618.95) ">
	<g>
		<g id="Layer5_578_FILL">
			<path fill="#010101" d="M854.8-356.5l0,58.3h3.6l0-58.3H854.8z"/>
		</g>
	</g>
</g>
<g transform="matrix( -0.0355072021484375, -0.4058685302734375, 0.4058685302734375, -0.0355072021484375, 253.2,624.85) ">
	<g>
		<g id="Layer5_579_FILL">
			<path fill="#010101" d="M872.6-389.4v57.9h3.6v-57.9H872.6z"/>
		</g>
	</g>
</g>
<g transform="matrix( -0.105438232421875, -0.393524169921875, 0.393524169921875, -0.105438232421875, 342.85,625.05) ">
	<g>
		<g id="Layer5_580_FILL">
			<path fill="#010101" d="M915.9-450.1l0,58.3h3.6l0-58.3H915.9z"/>
		</g>
	</g>
</g>
<g transform="matrix( -0.1393585205078125, -0.3828582763671875, 0.3828582763671875, -0.1393585205078125, 387.35,619.45) ">
	<g>
		<g id="Layer5_581_FILL">
			<path fill="#010101" d="M941-477.9l0,58.3h3.6l0-58.3H941z"/>
		</g>
	</g>
</g>
<g transform="matrix( -0.1721954345703125, -0.3692474365234375, 0.3692474365234375, -0.1721954345703125, 431.25,609.8) ">
	<g>
		<g id="Layer5_582_FILL">
			<path fill="#010101" d="M968.7-502.2l0,58.3h3.6l0-58.3H968.7z"/>
		</g>
	</g>
</g>
<g transform="matrix( -0.203704833984375, -0.35284423828125, 0.35284423828125, -0.203704833984375, 474.05,596.25) ">
	<g>
		<g id="Layer5_583_FILL">
			<path fill="#010101" d="M999.4-524.3v58.3h3.6v-58.3H999.4z"/>
		</g>
	</g>
</g>
<g transform="matrix( 1, 0, 0, 1, 0,0) ">
	<g>
		<g id="Layer5_584_FILL">
			<path fill="#16151A" d="M282,147.5l17.4-23.8l-11-5L282,147.5z"/>
		</g>
	</g>
</g>
<g transform="matrix( 1, 0, 0, 1, 0,0) ">
	<g>
		<g id="Layer5_585_FILL">
			<path fill="#16151A" d="M355.3,234.6l29.1-1.4l-3.2-11.4L355.3,234.6z"/>
		</g>
	</g>
</g>
<g transform="matrix( 1, 0, 0, 1, 0,0) ">
	<g>
		<g id="Layer5_586_FILL">
			<path fill="#16151A" d="M335.4,346.9l20.3,21.3l6.8-10L335.4,346.9z"/>
		</g>
	</g>
</g>
<g transform="matrix( 1, 0, 0, 1, 0,0) ">
	<g>
		<g id="Layer5_587_FILL">
			<path fill="#16151A" d="M64.9,233.2l29.1,1.4l-25.9-12.8L64.9,233.2z"/>
		</g>
	</g>
</g>
<g transform="matrix( 1, 0, 0, 1, 0,0) ">
	<g>
		<g id="Layer5_588_FILL">
			<path fill="#16151A" d="M113.9,346.9l-26.7,11.7l6.8,10L113.9,346.9z"/>
		</g>
	</g>
</g>
<g transform="matrix( 0.7334442138671875, -0.0000152587890625, 0, 0.4074554443359375, -596.1,35.4) ">
	<g>
		<g id="Layer5_589_FILL">
			<path fill="#010101" d="M1117.3,179.6v55.8v2.5h3.6v-58.3H1117.3z"/>
		</g>
	</g>
</g>
<g transform="matrix( 0.471466064453125, 0.5618438720703125, -0.3121337890625, 0.261932373046875, -217.2,-623.1) ">
	<g>
		<g id="Layer5_590_FILL">
			<path fill="#010101" d="M1318,182.5l0,55.5v2.5h3.6v-58.3h-3.6V182.5z"/>
		</g>
	</g>
</g>
<g transform="matrix( -0.127349853515625, 0.7222900390625, -0.40130615234375, -0.0707550048828125, 530.8,-756.05) ">
	<g>
		<g id="Layer5_591_FILL">
			<path fill="#010101" d="M1448.3-92.5v55.8v2.5l3.6,0v-58.3H1448.3z"/>
		</g>
	</g>
</g>
<g transform="matrix( 0.471466064453125, -0.5618743896484375, 0.3121337890625, 0.261932373046875, -335.25,749.1) ">
	<g>
		<g id="Layer5_592_FILL">
			<path fill="#010101" d="M989.2-98.1v55.8l0,2.5l3.6,0l0-58.3L989.2-98.1L989.2-98.1z"/>
		</g>
	</g>
</g>
<g transform="matrix( -0.1273651123046875, -0.7223052978515625, 0.40130615234375, -0.0707550048828125, 379,1007.8) ">
	<g>
		<g id="Layer5_593_FILL">
			<path fill="#010101" d="M1025.7-454.1v55.5v2.5h3.6v-57.9L1025.7-454.1L1025.7-454.1z"/>
		</g>
	</g>
</g>
<g transform="matrix( 1, 0, 0, 1, 0,0) ">
	<g>
		<g id="Layer5_594_FILL">
			<path fill="#010101" d="M123.9,314.9c-1.8,0-3.2,0.4-3.9,1.4c-1.1,1.1-1.4,2.5-1.4,4.3v12.1c0,2.1,0.4,3.9,1.4,5
				c1.1,1.1,2.1,1.4,3.9,1.4s2.8-0.4,3.9-1.4c0.7-1.1,1.1-2.8,1.1-5v-12.1c0-1.8-0.4-3.2-1.1-4.6
				C127.1,315.6,125.7,314.9,123.9,314.9 M121.7,320.3c0-0.7,0.4-1.1,0.7-1.4c0.4-0.4,1.1-0.4,1.8-0.4c0.4,0,0.7,0,1.4,0.4
				c0.4,0.4,0.4,0.7,0.4,1.4v13.5c0,0.7,0,1.4-0.4,1.8c-0.4,0.4-0.7,0.4-1.4,0.4c-0.7,0-1.4-0.4-1.8-0.4c-0.4-0.7-0.7-1.1-0.7-1.8
				V320.3z"/>
		</g>
	</g>
</g>
<g transform="matrix( 1, 0, 0, 1, 0,0) ">
	<g>
		<g id="Layer5_595_FILL">
			<path fill="#010101" d="M109.7,226.1c-1.1-1.1-2.5-1.4-3.9-1.4c-1.8,0-3.2,0.7-3.9,1.8c-1.1,1.1-1.8,2.8-1.8,5v0.4h3.9V231
				c0-1.1,0-2.1,0.4-2.5c0.4-0.7,0.7-1.1,1.4-1.1c0.4,0,1.1,0.4,1.4,1.1c0,0.4,0,1.1,0,1.8c0,1.4-0.7,3.6-1.8,5.7
				c-1.4,2.5-3.2,5.3-5.3,8.9v3.2h10.3v-2.8H104c2.8-4.3,4.6-7.1,5.7-9.2c0.7-2.1,1.1-3.9,1.1-5.7S110.4,227.1,109.7,226.1
				 M118.9,224.6c-1.8,0-3.2,0.7-4.3,1.4c-1.1,1.1-1.4,2.5-1.4,4.3v12.1c0,2.1,0.4,3.9,1.4,4.6c1.1,1.1,2.1,1.8,3.9,1.8
				s3.2-0.7,3.9-1.8c0.7-1.1,1.4-2.5,1.4-4.6v-12.1c0-1.8-0.4-3.2-1.4-4.3C122.1,225,120.7,224.6,118.9,224.6 M116.8,229.6
				c0-0.4,0-0.7,0.4-1.1c0.4-0.4,0.7-0.7,1.4-0.7c0.4,0,1.1,0.4,1.4,0.7c0.4,0.4,0.4,0.7,0.4,1.4v13.5c0,0.7,0,1.4-0.4,1.8
				c-0.4,0.4-0.7,0.7-1.4,0.7s-1.1-0.4-1.4-0.7c-0.4-0.4-0.4-1.1-0.4-1.8V229.6 M137.7,242.8v-12.1c0-1.8-0.4-3.2-1.4-4.3
				c-1.1-1.1-2.1-1.4-3.6-1.4c-1.8,0-3.2,0.7-3.9,1.4c-1.1,1.1-1.8,2.5-1.8,4.3v12.1c0,2.1,0.7,3.9,1.8,4.6c0.7,1.1,2.1,1.8,3.9,1.8
				s2.8-0.7,3.9-1.8C137,246.3,137.7,244.9,137.7,242.8 M133.5,228.6c0.4,0.4,0.7,0.7,0.7,1.4v13.5c0,0.7-0.4,1.4-0.7,1.8
				c-0.4,0.4-0.7,0.7-1.1,0.7c-0.7,0-1.4-0.4-1.8-0.7c-0.4-0.4-0.4-1.1-0.4-1.8v-13.9c0-0.4,0-0.7,0.4-1.1c0.4-0.4,1.1-0.7,1.8-0.7
				C132.8,227.8,133.1,228.2,133.5,228.6z"/>
		</g>
	</g>
</g>
<g transform="matrix( 1, 0, 0, 1, 0,0) ">
	<g>
		<g id="Layer5_596_FILL">
			<path fill="#010101" d="M180.7,155.7c-1.1-1.1-2.5-1.4-3.9-1.4c-1.8,0-3.2,0.4-4.3,1.4c-1.1,1.1-1.4,2.5-1.4,4.3V172
				c0,2.1,0.4,3.9,1.4,5c1.1,1.1,2.5,1.4,4.3,1.4s3.2-0.4,3.9-1.4c0.7-1.1,1.1-2.8,1.1-5v-11.7C181.8,158.2,181.5,156.8,180.7,155.7
				 M177.9,157.8c0.4,0.4,0.7,1.1,0.7,1.4v13.9c0,0.7-0.4,1.1-0.7,1.4c-0.4,0.4-0.7,0.7-1.1,0.7c-0.7,0-1.4-0.4-1.8-0.7
				c-0.4-0.4-0.7-1.1-0.7-1.4v-13.9c0-0.4,0.4-1.1,0.7-1.4c0.4-0.4,1.1-0.4,1.8-0.4C177.2,157.5,177.5,157.8,177.9,157.8
				 M190.3,154.3c-1.8,0-3.2,0.4-3.9,1.4c-1.1,1.1-1.8,2.5-1.8,4.3V172c0,2.1,0.7,3.9,1.8,5c0.7,1.1,2.1,1.4,3.9,1.4
				s3.2-0.4,3.9-1.4c1.1-1.1,1.4-2.8,1.4-5v-11.7c0-1.8-0.4-3.2-1.4-4.6C193.2,155,191.8,154.3,190.3,154.3 M188.2,159.2
				c0-0.4,0-1.1,0.4-1.4c0.4-0.4,0.7-0.4,1.4-0.4c0.7,0,1.1,0,1.1,0.4c0.4,0.4,0.7,1.1,0.7,1.4v13.9c0,0.7-0.4,1.1-0.7,1.4
				c0,0.4-0.4,0.7-1.1,0.7c-0.7,0-1.1-0.4-1.4-0.7c-0.4-0.4-0.4-1.1-0.4-1.4V159.2 M163.3,154.6l-6,14.6v3.2h6v5.7h3.6v-5.7h2.1
				v-3.2h-2.1v-14.6H163.3 M160.5,169.2l3.2-8.5v8.5H160.5z"/>
		</g>
	</g>
</g>
<g transform="matrix( 1, 0, 0, 1, 0,0) ">
	<g>
		<g id="Layer5_597_FILL">
			<path fill="#010101" d="M274.2,162.1c0-1.8-0.4-3.2-1.4-4.6c-0.7-0.7-2.1-1.1-3.9-1.1s-2.8,0.4-3.9,1.4c-1.1,1.1-1.8,2.5-1.8,4.3
				v12.1c0,2.1,0.7,3.9,1.8,4.6c0.7,1.1,2.1,1.8,3.9,1.8s3.2-0.7,3.9-1.8c1.1-1.1,1.4-2.5,1.4-4.6V162.1 M267.5,160
				c0.4-0.4,0.7-0.7,1.4-0.7s1.1,0.4,1.4,0.7c0.4,0.4,0.4,1.1,0.4,1.8v13.5c0,0.7,0,1.4-0.4,1.8s-0.7,0.7-1.4,0.7s-1.1-0.4-1.4-0.7
				c-0.4-0.4-0.7-1.1-0.7-1.8v-13.5C266.8,161,267.1,160.3,267.5,160 M255.4,156.4c-1.8,0-3.2,0.4-3.9,1.4c-1.1,1.1-1.4,2.5-1.4,4.3
				v12.1c0,2.1,0.4,3.9,1.4,4.6c1.1,1.1,2.5,1.8,4.3,1.8c1.8,0,3.2-0.7,3.9-1.8c1.1-1.1,1.4-2.5,1.4-4.6v-3.9c0-1.4-0.4-2.8-1.1-3.2
				c-0.7-0.7-1.8-1.4-2.8-1.4c-0.7,0-1.4,0-1.8,0.4c-0.7,0.4-1.1,0.7-1.8,1.1v-5.7c0-0.7,0.4-1.1,0.7-1.4c0.4-0.4,0.7-0.7,1.4-0.7
				c0.4,0,0.7,0.4,1.4,0.7c0.4,0.4,0.4,1.1,0.4,1.8v1.4h3.6v-1.1c0-1.8-0.4-3.2-1.4-4.6C258.6,156.8,257.2,156.4,255.4,156.4
				 M253.6,170.3c0.4-0.7,0.4-1.1,1.1-1.1c0.4,0,1.1-0.4,1.4-0.4c0.4,0,0.7,0,1.4,0.4c0.4,0.4,0.4,0.7,0.4,1.4v4.6
				c0,0.7,0,1.4-0.4,1.8c-0.4,0.4-0.7,0.7-1.4,0.7s-1.1-0.4-1.4-0.7c-0.4-0.4-0.7-1.1-0.7-1.8v-5 M287.7,162.1
				c0-1.8-0.4-3.2-1.1-4.6c-1.1-1.1-2.5-1.4-3.9-1.4c-1.8,0-3.2,0.4-4.3,1.4c-1.1,1.1-1.4,2.5-1.4,4.3v12.4c0,2.1,0.4,3.9,1.4,4.6
				c1.1,1.1,2.1,1.8,3.9,1.8s3.2-0.7,4.3-1.8c0.7-1.1,1.1-2.5,1.1-4.6V162.1 M283.8,160c0.4,0.4,0.7,1.1,0.7,1.8v13.5
				c0,0.7-0.4,1.4-0.7,1.8s-0.7,0.7-1.4,0.7c-0.7,0-1.1-0.4-1.4-0.7c-0.4-0.4-0.7-1.1-0.7-1.8v-13.5c0-0.7,0.4-1.1,0.7-1.4
				c0.4-0.4,0.7-0.7,1.4-0.7C282.8,159.6,283.1,159.6,283.8,160z"/>
		</g>
	</g>
</g>
<g transform="matrix( 1, 0, 0, 1, 0,0) ">
	<g>
		<g id="Layer5_598_FILL">
			<path fill="#010101" d="M315.8,230.7c-0.7-1.1-2.1-1.4-3.6-1.4c-1.4,0-2.8,0.4-3.9,1.4c-0.7,1.1-1.1,2.5-1.1,4.6
				c0,1.4,0.4,2.5,0.7,3.2c0.4,0.7,0.7,1.4,1.4,2.1c-0.7,0.4-1.4,1.1-1.8,2.5c-0.4,1.1-0.4,2.1-0.4,3.6c0,2.5,0.4,4.3,1.4,5.3
				c0.7,1.1,2.1,1.8,3.9,1.8s2.8-0.7,3.6-1.8c1.1-1.1,1.4-2.8,1.4-5.3c0-1.4,0-2.8-0.4-3.6c-0.4-1.1-1.1-2.1-1.4-2.5
				c0.4-0.4,1.1-1.1,1.4-2.1c0.4-1.1,0.4-2.1,0.4-3.6C317.2,233.2,316.9,231.8,315.8,230.7 M312.3,231.8c0.7,0,1.1,0.4,1.4,1.1
				c0.4,0.4,0.4,1.4,0.4,2.8c0,1.1,0,2.1-0.4,2.5c-0.4,0.4-0.7,0.7-1.4,0.7c-0.7,0-1.1-0.4-1.4-0.7c-0.4-0.4-0.4-1.4-0.4-2.8
				c0-1.1,0-2.1,0.4-2.5C311.2,232.1,311.6,231.8,312.3,231.8 M312.6,242.8c0.7,0,1.1,0.4,1.4,0.7c0.4,0.7,0.4,1.4,0.4,2.8
				c0,1.4,0,2.5-0.4,2.8c-0.4,0.7-0.7,1.1-1.4,1.1s-1.4-0.4-1.4-1.1c-0.4-0.7-0.7-1.8-0.7-3.2c0-1.1,0.4-2.1,0.7-2.5
				C311.2,242.8,311.6,242.8,312.6,242.8 M325.4,229.3c-1.8,0-3.2,0.4-3.9,1.4c-1.1,1.1-1.4,2.5-1.4,4.3V247c0,2.1,0.4,3.9,1.4,4.6
				c1.1,1.1,2.1,1.8,3.9,1.8s3.2-0.7,3.9-1.8c0.7-1.1,1.4-2.5,1.4-4.6V235c0-1.8-0.4-3.2-1.4-4.6
				C328.3,229.6,326.8,229.3,325.4,229.3 M326.5,232.8c0.4,0.4,0.4,0.7,0.4,1.4v13.5c0,0.7-0.4,1.4-0.4,1.8
				c-0.4,0.4-0.7,0.7-1.4,0.7c-0.7,0-1.4-0.4-1.8-0.7c-0.4-0.4-0.7-1.1-0.7-1.8v-13.9c0-0.4,0.4-0.7,0.7-1.1
				c0.4-0.4,1.1-0.7,1.8-0.7C325.8,232.5,326.1,232.5,326.5,232.8 M342.8,230.7c-1.1-1.1-2.1-1.4-3.9-1.4s-3.2,0.4-3.9,1.4
				c-1.1,1.1-1.4,2.5-1.4,4.3V247c0,2.1,0.4,3.9,1.4,4.6c0.7,1.1,2.1,1.8,3.9,1.8s3.2-0.7,3.9-1.8c1.1-1.1,1.4-2.5,1.4-4.6V235
				C344.3,233.2,343.5,231.8,342.8,230.7 M336.8,234.2c0-0.4,0-0.7,0.4-1.1c0.4-0.4,0.7-0.7,1.4-0.7c0.7,0,1.1,0.4,1.4,0.7
				c0.4,0.4,0.4,0.7,0.4,1.4v13.5c0,0.7-0.4,1.4-0.4,1.8c0,0.4-0.7,0.7-1.4,0.7c-0.7,0-1.1-0.4-1.4-0.7c-0.4-0.4-0.4-1.1-0.4-1.8
				V234.2z"/>
		</g>
	</g>
</g>
<g transform="matrix( 1, 0, 0, 1, 0,0) ">
	<g>
		<g id="Layer5_599_FILL">
			<path fill="#010101" d="M281.3,321.7h2.8v18.1h3.6v-23.5h-2.5c-0.7,0.7-1.1,1.4-1.4,1.4c-0.7,0.7-1.4,1.1-2.5,1.4V321.7
				 M301.2,317.4c-1.1-1.1-2.5-1.8-4.3-1.8s-3.2,0.7-3.9,1.8c-1.1,1.1-1.4,2.5-1.4,4.3v12.1c0,2.1,0.4,3.9,1.4,5
				c0.7,1.1,2.1,1.8,3.9,1.8s3.2-0.7,4.3-1.8c0.7-1.1,1.1-2.8,1.1-5V322C302.3,319.9,302,318.5,301.2,317.4 M295.6,319.9
				c0.4-0.4,0.7-0.7,1.4-0.7c0.4,0,1.1,0.4,1.4,0.7c0.4,0.4,0.4,0.7,0.4,1.4v13.5c0,0.7,0,1.4-0.4,1.8c-0.4,0.4-0.7,0.4-1.4,0.4
				c-0.7,0-1.1-0.4-1.4-0.4c-0.4-0.4-0.7-1.1-0.7-1.8V321C294.8,320.3,294.8,319.9,295.6,319.9 M315.8,322c0-1.8-0.4-3.2-1.4-4.6
				c-1.1-1.1-2.1-1.8-3.9-1.8s-3.2,0.7-3.9,1.8c-1.1,1.1-1.4,2.5-1.4,4.3v12.1c0,2.1,0.4,3.9,1.4,5c1.1,1.1,2.1,1.8,3.9,1.8
				s3.2-0.7,4.3-1.8c1.1-1.1,1.4-2.8,1.4-5V322 M312.3,321.3v13.5c0,0.7-0.4,1.4-0.7,1.8c-0.4,0.4-0.7,0.4-1.4,0.4s-1.1-0.4-1.4-0.4
				c-0.4-0.4-0.4-1.1-0.4-1.8V321c0-0.4,0-0.7,0.4-1.1c0.4-0.4,1.1-0.7,1.4-0.7s1.1,0.4,1.4,0.7
				C312.3,319.9,312.3,320.6,312.3,321.3 M328.3,317.4c-1.1-1.1-2.1-1.8-3.9-1.8s-3.2,0.7-4.3,1.8c-1.1,1.1-1.4,2.5-1.4,4.3v12.1
				c0,2.1,0.4,3.9,1.4,5c0.7,1.1,2.1,1.8,3.9,1.8s3.2-0.7,3.9-1.8c1.1-1.1,1.4-2.8,1.4-5V322C329.7,319.9,329,318.5,328.3,317.4
				 M324,319.2c0.4,0,1.1,0.4,1.4,0.7c0.4,0.4,0.4,0.7,0.4,1.4v13.5c0,0.7,0,1.4-0.4,1.8c0,0.4-0.4,0.4-1.4,0.4
				c-1.1,0-1.1-0.4-1.4-0.4c-0.4-0.4-0.7-1.1-0.7-1.8V321c0-0.4,0.4-0.7,0.7-1.1C322.9,319.5,323.3,319.2,324,319.2z"/>
		</g>
	</g>
</g>
<text transform="matrix(1 0 0 1 169.4215 47.9859)" font-family="'MSReferenceSansSerif'" font-size="24">AMMETER</text>
</svg>
