<?xml version="1.0" encoding="utf-8"?>
<!-- Generator: Adobe Illustrator 18.0.0, SVG Export Plug-In . SVG Version: 6.00 Build 0)  -->
<!DOCTYPE svg PUBLIC "-//W3C//DTD SVG 1.1//EN" "http://www.w3.org/Graphics/SVG/1.1/DTD/svg11.dtd">
<svg version="1.1" id="Layer_1" xmlns="http://www.w3.org/2000/svg" xmlns:xlink="http://www.w3.org/1999/xlink" x="0px" y="0px"
	 viewBox="0 0 450 450" enable-background="new 0 0 450 450" xml:space="preserve">
<g transform="matrix( 0.523590087890625, 0, 0, 0.586517333984375, -288.75,467.5) ">
	<g>
		<g id="Layer5_690_MEMBER_0_FILL">
			<path fill="#DFE6EC" d="M1308.8-608.1v-189.1H653.1v189.1H1308.8z"/>
		</g>
	</g>
</g>
<g transform="matrix( 1, 0, 0, 1, 0,0) ">
	<g>
		<g id="Layer5_690_MEMBER_1_FILL">
			
				<radialGradient id="SVGID_1_" cx="-378.8163" cy="-59.0118" r="2.4572" gradientTransform="matrix(3.5473 3.5473 -3.5473 3.5473 1205.3383 1607.9154)" gradientUnits="userSpaceOnUse">
				<stop  offset="0" style="stop-color:#A5A39C"/>
				<stop  offset="1" style="stop-color:#34342F"/>
			</radialGradient>
			<path fill="url(#SVGID_1_)" d="M58.7,54.7c0,3.5,1,6.5,3.5,9c2,2.5,5,4,8.5,4c3.5,0,6.5-1.5,9-4c2-2.5,3.5-5.5,3.5-8.5
				c0-3.5-1-6.5-3.5-9s-5.5-3.5-9-3.5c-3.5,0-6.5,1-8.5,3.5C60.2,48.7,58.7,51.7,58.7,54.7 M75.3,50.2v0.5c0.5,0.5,0.5,0.5,0.5,1
				c0,1,0,1.5-0.5,2l-1.5,1l1.5,1.5c0.5,0.5,0.5,1,0.5,1.5s0,1-0.5,1.5c0,0.5-0.5,1-1.5,1c-0.5,0-1.5-0.5-2-0.5l-1-1l-1.5,1
				c0,0-0.5,0.5-1,0.5c-1,0-1.5-0.5-2-0.5c-0.5-0.5-1-1-1-1.5s0.5-1,1-1.5l1-1.5l-1-1.5c-0.5-0.5-1-1-1-2c0,0,0.5-0.5,1-1
				c0.5-0.5,1.5-1,2-1s1,0,1.5,0.5l1.5,1.5l1-1c0.5-0.5,1-1,1.5-1C74.7,49.7,75.3,50.2,75.3,50.2z"/>
			<path fill="#010101" d="M75.3,50.7v-0.5c0,0-0.5-0.5-1.5-0.5c-0.5,0-1,0.5-2,1l-1,1l-1-1.5c-0.5,0-1-0.5-1.5-0.5
				c-1,0-1.5,0.5-2,1c-0.5,0.5-1,1-1,1c0,1,0.5,1.5,1,2l1,1.5l-1,1c-0.5,0.5-1,1-1,1.5s0.5,1,1,1.5c0.5,0.5,1.5,1,2,1s1-0.5,1.5-0.5
				l1.5-1l1,1c0.5,0,1,0.5,1.5,0.5s1-0.5,1.5-0.5c0.5-0.5,0.5-1,0.5-1.5s0-1-0.5-1.5l-1.5-1.5l1.5-1c0.5-0.5,0.5-1,0.5-2
				C75.8,51.7,75.8,51.2,75.3,50.7z"/>
		</g>
	</g>
</g>
<g transform="matrix( 1, 0, 0, 1, 0,0) ">
	<g>
		<g id="Layer5_690_MEMBER_2_FILL">
			
				<radialGradient id="SVGID_2_" cx="-378.8163" cy="-59.0118" r="2.4572" gradientTransform="matrix(3.5473 3.5473 -3.5473 3.5473 1512.8634 1607.9154)" gradientUnits="userSpaceOnUse">
				<stop  offset="0" style="stop-color:#A5A39C"/>
				<stop  offset="1" style="stop-color:#34342F"/>
			</radialGradient>
			<path fill="url(#SVGID_2_)" d="M378.3,42.6c-3.5,0-6.5,1-9,3.5c-2,2.5-3.5,5.5-3.5,9c0,3.5,1,6.5,3.5,9s5.5,4,9,4s6-1,8-4
				c2.5-2.5,4-5.5,4-9c0-3.5-1.5-6-4-9C384.3,43.6,381.8,42.6,378.3,42.6 M382.3,50.7c0.5,0.5,1,1,1,1.5s-0.5,1.5-1,2l-1,1l1,1.5
				c0.5,0.5,1,1,1,2c0,0.5-0.5,0.5-1,1.5c-0.5,0.5-0.5,0.5-1.5,0.5c-0.5,0-1.5-0.5-2-0.5l-0.5-1l-1.5,1c-0.5,0.5-1,0.5-2,0.5
				c-0.5,0-0.5-0.5-1-0.5c-0.5-0.5-1-1-1-1.5c0-1,0.5-1.5,1-2l1-1.5l-1-1c-0.5-0.5-1-1.5-1-2c0-0.5,0.5-0.5,1-1.5c0.5-0.5,1-1,1-1
				c1,0,1.5,0.5,2,1l1.5,0.5l1-1c0.5-0.5,1.5-0.5,2-0.5C381.8,49.7,382.3,50.2,382.3,50.7z"/>
			<path fill="#010101" d="M383.3,52.2c0-0.5-0.5-0.5-1-1.5c-0.5-0.5-0.5-1-1.5-1c-0.5,0-1.5,0-2,0.5l-0.5,1.5l-1.5-0.5
				c-0.5-0.5-1-1-2-1c-0.5,0-0.5,0.5-1,1c-0.5,0.5-1,1-1,1.5s0.5,1.5,1,2l1,1l-1,1.5c-0.5,0.5-1,1-1,2c0,0.5,0.5,0.5,1,1.5
				c0.5,0.5,1,0.5,1,0.5c1,0,1.5-0.5,2-0.5l1.5-1l0.5,1c0.5,0.5,1.5,0.5,2,0.5c0.5,0,1-0.5,1.5-0.5c0.5-0.5,1-1,1-1.5
				c0-1-0.5-1.5-1-2l-1-1.5l1-1C383.3,53.2,383.3,52.7,383.3,52.2z"/>
		</g>
	</g>
</g>
<g transform="matrix( 0.39410400390625, 0, 0, 0.39410400390625, 9.1,307.8) ">
	<g>
		<g id="Layer5_691_FILL">
			<path fill="#2F3031" d="M959.1-388.1c0-55.7-27.6-83.8-83.8-83.8H217.1c-55.7,0-83.3,27.6-83.3,83.8v658.7
				c0,55.7,27.6,83.8,83.3,83.8h658.7c55.7,0,83.8-27.6,83.8-83.8v-658.7H959.1z"/>
		</g>
	</g>
	<g transform="matrix( 2.5373992919921875, 0, 0, 2.5373992919921875, -23.1,-781) ">
		<path id="Layer5_691_1_STROKES" fill="none" stroke="#585C66" stroke-linecap="round" stroke-linejoin="round" d="M42.6-3608.5
			h658.7c55.7,0,83.3,28.1,83.3,83.8v658.2c0,55.7-27.6,83.8-83.3,83.8H42.6c-55.7,0-83.8-27.6-83.8-83.8v-658.2
			C-41.2-3580.9-13.1-3608.5,42.6-3608.5z"/>
	</g>
</g>
<g transform="matrix( 1, 0, 0, 1, 0,0) ">
	<g>
		<g id="Layer5_692_FILL">
			
				<radialGradient id="SVGID_3_" cx="-155.0188" cy="-122.7169" r="5.525" gradientTransform="matrix(5.0167 0 0 5.0167 1121.7391 785.2861)" gradientUnits="userSpaceOnUse">
				<stop  offset="0" style="stop-color:#505050"/>
				<stop  offset="1" style="stop-color:#010101"/>
			</radialGradient>
			<path fill="url(#SVGID_3_)" d="M324.1,150.5c-5.5,5.5-8,12-8,19.1c0,7.5,2.5,14.5,8,20.6c5.5,5,12,7.5,19.6,7.5s14-2.5,19.6-7.5
				c5.5-6,8.5-12.5,8.5-20.6c0-7-3-13.5-8.5-19.1c-5-5-11.5-7.5-19.6-7.5C336.1,142.5,329.6,145,324.1,150.5 M341.6,184.6
				c-0.5-0.5-1-1.5-1-1.5V158c0-1,0.5-1.5,1-2s1.5-1,2-1h0.5c0.5,0,1.5,0,1.5,1c0.5,0.5,1,1,1,2v25.1c0,0.5-0.5,1-1,1.5
				c0,0.5-0.5,1-1.5,1l0,0C343.1,185.6,342.6,185.1,341.6,184.6z"/>
			<path fill="#010101" d="M341.1,182.6c0,0.5,0.5,1,1,1.5s1.5,1,2,1h0c0.5,0,1.5-0.5,1.5-1c0.5-0.5,1-1.5,1-1.5v-25.1
				c0-1-0.5-1.5-1-2c-0.5-0.5-1-1-1.5-1l0,0c-1,0-1.5,0-2,1c-0.5,0.5-1,1-1,2L341.1,182.6L341.1,182.6z"/>
		</g>
	</g>
</g>
<g transform="matrix( 1, 0, 0, 1, 0,0) ">
	<g>
		<g id="Layer5_693_FILL">
			
				<radialGradient id="SVGID_4_" cx="-378.8186" cy="-59.0065" r="5.5316" gradientTransform="matrix(3.5473 3.5473 -3.5473 3.5473 1238.6995 1723.0493)" gradientUnits="userSpaceOnUse">
				<stop  offset="0" style="stop-color:#505050"/>
				<stop  offset="1" style="stop-color:#010101"/>
			</radialGradient>
			<path fill="url(#SVGID_4_)" d="M123.9,189.6c5-5,7.5-11.5,7.5-19.6c0-7.5-3-14-8-19.6c-5-5-11.5-8-19.1-8c-8,0-14.5,2.5-19.6,7.5
				c-5.5,5.5-8,12-8,20.1c0,7.5,3,14,8,19.1c5.5,5.5,12,8,19.6,8C111.9,197.7,118.4,195.2,123.9,189.6 M114.9,159.5
				c0.5,0.5,1,1,1.5,2c0,1-0.5,1.5-1.5,1.5l-17.6,18.1c-0.5,0.5-1,0.5-2,0.5s-1.5,0-2-0.5c-1-0.5-1.5-1.5-1.5-2c0-1,0-2,0.5-2.5
				l18.1-17.6c0.5-0.5,1-0.5,2-0.5C113.9,158.5,114.4,159,114.9,159.5z"/>
			<path fill="#010101" d="M115.9,161.5c0-1-0.5-1.5-1.5-2c-0.5-0.5-1-0.5-2-0.5s-1.5,0-2,0.5l-18.1,17.6c-0.5,0.5-0.5,1.5-0.5,2.5
				c0,0.5,0.5,1.5,1.5,2c0.5,0.5,1,0.5,2,0.5c0.5,0,1.5,0,2-0.5l17.6-18.1C115.4,163,115.9,162,115.9,161.5z"/>
		</g>
	</g>
</g>
<g transform="matrix( 1, 0, 0, 1, 0,0) ">
	<g>
		<g id="Layer5_694_FILL">
			
				<radialGradient id="SVGID_5_" cx="-490.7037" cy="224.1217" r="5.5277" gradientTransform="matrix(-1.3048 4.8441 -4.8326 -1.3048 667.7789 3076.7144)" gradientUnits="userSpaceOnUse">
				<stop  offset="0" style="stop-color:#505050"/>
				<stop  offset="1" style="stop-color:#010101"/>
			</radialGradient>
			<path fill="url(#SVGID_5_)" d="M210.7,383.3c-6.5,4-10.5,9.5-12.5,16.6c-2,7.5-1,14.5,2.5,21.1c4,7,9.5,11.5,17.1,13.5
				c7,2,14,0.5,21.1-3.5c6-3.5,10.5-9,12-16.6c2-7.5,1.5-14.5-2-21.1c-4-7-9.5-11-17.1-13C224.7,378.3,217.2,379.3,210.7,383.3
				 M237.3,407.9c1,0.5,1.5,1,2,1.5c0.5,0.5,0.5,1,0,2c-0.5,1-0.5,1.5-1.5,2c-0.5,0-1.5,0-2,0l-24.1-7c-0.5,0-1.5-0.5-2-1.5
				c-0.5-0.5-0.5-1-0.5-2c0-0.5,1-1.5,2-2c0.5-0.5,1-0.5,2,0L237.3,407.9z"/>
			<path fill="#010101" d="M239.3,409.4c-0.5-0.5-1-1-2-1.5l-24.1-6.5c-1,0-1.5,0-2,0c-1,0.5-1.5,1.5-2,2c0,1,0,1.5,0.5,2
				c0.5,1,1,1.5,2,1.5l24.1,7c0.5,0,1.5,0,2,0c1-0.5,1.5-1,1.5-2C239.3,410.9,239.3,409.9,239.3,409.4z"/>
		</g>
	</g>
</g>
<g transform="matrix( 1, 0, 0, 1, 0,0) ">
	<g>
		<g id="Layer5_695_FILL">
			<path fill="#010101" d="M305.5,171.1c0-3.5,0.5-7,1.5-10H142c1,3,1.5,6.5,1.5,10c0,10-3.5,18.6-10.5,26.1c-7,7-16.1,11-26.1,11
				c-5.5,0-11-1-16.1-3.5v166.6c0,24.1,12,35.6,36.1,35.6h60.7c0-10,4-19.1,11.5-26.1c7-7,15.6-11,25.6-11s19.1,3.5,26.1,11
				c7,7,10.5,16.1,10.5,26.1h60.7c24.1,0,36.1-12,36.1-35.6V204.2c-4.5,2.5-10,3.5-16.1,3.5c-10,0-18.6-3.5-26.1-11
				C309,189.6,305.5,181.1,305.5,171.1z"/>
		</g>
	</g>
</g>
<g transform="matrix( 1, 0, 0, 1, 0,0) ">
	<g>
		<g id="Layer5_696_FILL">
			<path fill="#FFFFFF" d="M235.3,176.1v-4.5h8v-2h-10v16.1h2v-7.5h5.5v-1.5h-5.5 M231.3,171.6v-2h-10v16.1h2v-7.5h6v-1.5h-6v-4.5h8
				 M207.2,171.6c-1,1.5-1.5,3.5-1.5,6s0.5,4.5,1.5,6c1,1.5,3,2.5,4.5,2.5c2,0,4-0.5,5-2c1.5-1.5,2-3.5,2-6.5c0-2.5-0.5-4.5-2-6
				c-1-1.5-2.5-2-5-2C210.2,169.6,208.2,170.1,207.2,171.6 M207.7,177.6c0-2,0.5-3.5,1.5-4.5c0.5-1,1.5-1.5,3-1.5c3,0,4.5,2,4.5,6
				c0,2-0.5,3.5-1,4.5c-1,1-2,2-3.5,2s-2.5-0.5-3-2C208.2,181.1,207.7,179.6,207.7,177.6z"/>
		</g>
	</g>
</g>
<g transform="matrix( 1, 0, 0, 1, 0,0) ">
	<g>
		<g id="Layer5_697_FILL">
			<path fill="#FFFFFF" d="M299,202.7c-1-1.5-2.5-2.5-5-2.5c-2,0-3.5,1-4.5,2.5c-1.5,1.5-2,3.5-2,6s0.5,4.5,2,6
				c1,1.5,2.5,2.5,4.5,2.5c2,0,4-0.5,5-2c1-1.5,2-3.5,2-6.5C300.5,206.2,300,204.2,299,202.7 M298.5,208.7c0,2-0.5,3.5-1,4.5
				c-1,1-2,2-3.5,2c-1.5,0-2.5-0.5-3-2c-0.5-1.5-1-3-1-4.5c0-2,0.5-3.5,1-4.5c1-1,2-1.5,3-1.5C297,202.7,298.5,204.7,298.5,208.7
				 M314,200.7h-2v11l-8-11h-1v16.6h2v-11.5l8.5,12h0.5V200.7z"/>
		</g>
	</g>
</g>
<g transform="matrix( 1, 0, 0, 1, 0,0) ">
	<g>
		<g id="Layer5_698_FILL">
			<path fill="#FFFFFF" d="M165.1,149.5h2.5l-6.5-17.1h-1l-6.5,17.1h2.5l1.5-3.5h6.5L165.1,149.5 M158.5,144.5l2.5-7.5l2,7.5H158.5
				 M181.1,144.5v-11.5h-2.5v11.5c0,1-0.5,2-1,2.5c-1,0.5-2,1-3,1c-1,0-2-0.5-3-1c-0.5-0.5-0.5-1.5-0.5-2.5v-11.5h-2.5v11.5
				c0,1.5,0.5,3,1.5,4c1,1,2.5,1.5,4.5,1.5c2,0,3-0.5,4-1.5C180.6,147.5,181.1,146,181.1,144.5 M251.8,132.9c-0.5,0-1.5,0-3,0V150h2
				v-7c1,0,1.5,0,2,0c4.5,0,6.5-2,6.5-5.5C259.4,134.4,256.9,132.9,251.8,132.9 M250.8,134.9c0.5,0,1,0,1.5,0c3,0,4.5,1,4.5,3
				c0,2-1.5,3-4,3c0,0-0.5,0-2,0V134.9 M267.4,132.4h-0.5l-7,17.1h3l1-3.5h6.5l1,3.5h2.5L267.4,132.4 M266.9,137l2.5,7.5h-5
				L266.9,137 M280.9,134.9c0.5,0,1,0.5,1.5,0.5l0.5-2c-1-0.5-2-0.5-4-0.5c-1.5,0-2.5,0.5-3.5,1.5s-1.5,2-1.5,3c0,1,0.5,2,1,3
				c0.5,0.5,1.5,1.5,2,2l1.5,0.5c1,0.5,2,1,2,1.5s0.5,1,0.5,1.5c0,1-0.5,1.5-1,1.5c-0.5,0.5-1,1-2,1c-0.5,0-1,0-2-0.5
				c-0.5,0-1-0.5-1.5-0.5l-1,2.5c1,0.5,2.5,0.5,4,0.5c1.5,0,3-0.5,4.5-1c1-1,1.5-2,1.5-3c0-1,0-2-0.5-2.5c-0.5-1-1.5-1.5-2.5-2.5
				l-1.5-0.5c-1-0.5-1.5-0.5-1.5-1c-0.5,0-0.5-0.5-1-1c0-0.5,0-1,0-1.5s0.5-1,0.5-1.5c0.5-0.5,1-0.5,2-0.5
				C279.9,134.4,280.4,134.4,280.9,134.9 M190.1,134.9h5.5v-2h-13v2h5.5V150h2V134.9 M209.2,134.9c-1.5-1.5-3-2-5.5-2
				c-2,0-4,1-4.5,2.5c-1.5,1.5-2,3.5-2,6s0.5,4.5,2,6.5c1,1.5,2.5,2.5,4.5,2.5c2.5,0,4-1,5.5-2.5c1-1.5,1.5-3.5,1.5-6.5
				C210.7,138.5,210.2,136,209.2,134.9 M203.7,134.4c3,0,4.5,2,4.5,6.5c0,2-0.5,3.5-1.5,5c-1,1-2,1.5-3.5,1.5c-1.5,0-2.5-0.5-3.5-2
				c-1-1.5-1.5-3-1.5-5c0-2,0.5-3.5,1.5-5C201.2,134.9,202.7,134.4,203.7,134.4 M218.7,143.5v-2h-5v2H218.7 M236.3,132.9h-2.5
				l5.5,9.5v7.5h2v-7.5l5.5-9.5h-2.5l-4,7.5L236.3,132.9 M231.8,136.5c0-1-0.5-2-1.5-3c-1-0.5-2-0.5-4-0.5c-1,0-2.5,0-4.5,0V150h4.5
				c2,0,3.5-0.5,4.5-1.5c1-1,2-2,2-3.5c0-1-0.5-2-1-3c-0.5-0.5-1.5-1-3-1.5c0.5,0,1.5-0.5,2-1C231.3,138.5,231.8,137.5,231.8,136.5
				 M229.3,142c0.5,0.5,1,1.5,1,2.5c0,1-0.5,2-1,2.5c-0.5,0.5-1.5,1-3,1c-0.5,0-1,0-2,0v-6.5h2C227.8,141,228.8,141.5,229.3,142
				 M224.2,139.5v-5c0.5,0,1.5,0,2,0c2,0,3,0.5,3,2c0,2-1,3-3.5,3C225.3,139.5,224.7,139.5,224.2,139.5 M293,145c0,1-0.5,1.5-1,1.5
				c-0.5,0.5-1.5,1-2,1s-1,0-2-0.5c-1,0-1.5-0.5-1.5-0.5l-1,2.5c1,0.5,2,0.5,4,0.5c1.5,0,3-0.5,4.5-1c1-1,1.5-2,1.5-3
				c0-1-0.5-2-0.5-2.5c-0.5-1-1-1.5-2.5-2.5L291,140c-1-0.5-1.5-0.5-1.5-1c-0.5,0-0.5-0.5-1-1c0-0.5,0-1,0-1.5c0-0.5,0.5-1,0.5-1.5
				c0.5-0.5,1-0.5,1.5-0.5c0.5,0,1.5,0,2,0c0.5,0,1,0.5,1.5,0.5l0.5-2c-0.5-0.5-2-0.5-4-0.5c-1.5,0-2.5,0.5-3.5,1.5
				c-1,1-1.5,2-1.5,3c0,1,0.5,2,1,3c0.5,0.5,1,1.5,2,2l1.5,0.5c1,0.5,2,1,2,1.5C293,144,293,144.5,293,145z"/>
		</g>
	</g>
</g>
<text transform="matrix(1 0 0 1 152.0332 36)"><tspan x="0" y="0" font-family="'MSReferenceSansSerif'" font-size="24">AUTOMATIC</tspan><tspan x="25.5" y="28.8" font-family="'MSReferenceSansSerif'" font-size="24">BYPASS</tspan><tspan x="23.1" y="57.6" font-family="'MSReferenceSansSerif'" font-size="24">SWITCH</tspan></text>
</svg>
