<?xml version="1.0" encoding="utf-8"?>
<!-- Generator: Adobe Illustrator 18.0.0, SVG Export Plug-In . SVG Version: 6.00 Build 0)  -->
<!DOCTYPE svg PUBLIC "-//W3C//DTD SVG 1.1//EN" "http://www.w3.org/Graphics/SVG/1.1/DTD/svg11.dtd">
<svg version="1.1" id="Layer_1" xmlns="http://www.w3.org/2000/svg" xmlns:xlink="http://www.w3.org/1999/xlink" x="0px" y="0px"
	 viewBox="0 0 450 450" enable-background="new 0 0 450 450" xml:space="preserve">
<g transform="matrix( 0.523590087890625, 0, 0, 0.586517333984375, 109.4,619.05) ">
	<g>
		<g id="Layer5_349_MEMBER_0_FILL">
			<path fill="#DFE6EC" d="M547.1-867.3v-188.3h-653.3v188.3H547.1z"/>
		</g>
	</g>
</g>
<g transform="matrix( 1, 0, 0, 1, 0,0) ">
	<g>
		<g id="Layer5_349_MEMBER_1_FILL">
			
				<radialGradient id="SVGID_1_" cx="-767.1679" cy="116.1935" r="2.4589" gradientTransform="matrix(3.5316 3.5316 -3.5316 3.5316 3194.4956 2354.0261)" gradientUnits="userSpaceOnUse">
				<stop  offset="0" style="stop-color:#A5A39C"/>
				<stop  offset="1" style="stop-color:#34342F"/>
			</radialGradient>
			<path fill="url(#SVGID_1_)" d="M83.4,46.4c-2-2.5-5-3.5-9-3.5c-3,0-5.5,1-8,3.5c-2.5,2.5-3.5,5.5-3.5,8.5c0,3.5,1.5,6.5,4,8.5
				c2,2.5,5,4,8,4c3.5,0,6.5-1.5,9-4c2.5-2,3.5-5,3.5-8C87.4,52.4,85.9,48.9,83.4,46.4 M69.9,52.4c0-0.5,0-1,1-1.5
				c0.5-0.5,1-0.5,1.5-1c0.5,0,1,0,1.5,0.5l1,1.5l1.5-1.5c0.5-0.5,1-0.5,2-1c0.5,0,1,0,1.5,0.5l0,0c0.5,0.5,1,1,1,1.5s-0.5,1-1,2
				l-2,1.5l1.5,1.5c0.5,0,1,0.5,1,1.5c0,0.5-0.5,1-1,1.5c-0.5,0.5-1,1-1.5,1s-1.5,0-2-1l-1.5-1l-0.5,1c-0.5,0.5-1,1-1.5,1
				c-1,0-1.5,0-1.5-1l0,0c-0.5-0.5-1-1-1-1.5s0-1,1-1.5l1.5-1.5l-1.5-1.5C69.9,53.4,69.9,52.9,69.9,52.4z"/>
			<path fill="#010101" d="M70.4,50.9c-0.5,0.5-1,1-1,1.5s0,1,1,2l1.5,1.5l-1.5,1.5c-0.5,0.5-1,0.5-1,1.5c0,0.5,0,1,1,1.5l0,0
				c0.5,0.5,1,1,1.5,1c0.5,0,1-0.5,1.5-1l1-1l1.5,1c0.5,0.5,1,1,2,1c0.5,0,1-0.5,1.5-1c0.5-0.5,1-1,1-1.5s-0.5-1-1-1.5l-1.5-2.5
				l1.5-1c0.5-0.5,1-1.5,1-2c0-0.5-0.5-1-1-1.5l0,0c-0.5,0-1-0.5-1.5-0.5s-1.5,0.5-2,1l-1.5,1.5l-0.5-2c-0.5,0-1-0.5-1.5-0.5
				C71.4,50.4,70.9,50.4,70.4,50.9z"/>
		</g>
	</g>
</g>
<g transform="matrix( 1, 0, 0, 1, 0,0) ">
	<g>
		<g id="Layer5_349_MEMBER_2_FILL">
			
				<radialGradient id="SVGID_2_" cx="-767.1679" cy="116.1935" r="2.4581" gradientTransform="matrix(3.5316 3.5316 -3.5316 3.5316 3495.6614 2354.0261)" gradientUnits="userSpaceOnUse">
				<stop  offset="0" style="stop-color:#A5A39C"/>
				<stop  offset="1" style="stop-color:#34342F"/>
			</radialGradient>
			<path fill="url(#SVGID_2_)" d="M384.6,46.4c-2.5-2.5-5-3.5-9-3.5c-3.5,0-6,1-8.5,3.5c-2,2.5-3.5,5.5-3.5,8.5c0,3.5,1,6.5,3.5,8.5
				c2.5,2.5,5.5,4,8.5,4c3.5,0,6.5-1.5,9-4c2-2,3-5,3-8.5C388.1,51.9,387.1,48.9,384.6,46.4 M373.1,50.4c0.5,0,1,0,2,0.5l1,1
				l1.5-1.5c0.5-0.5,1-0.5,1.5,0c0.5,0,1,0,1.5,0.5c0.5,0.5,1,1,1,1.5s-0.5,1-1,2l-1,0.5l1,1.5c0.5,0,1,0.5,1,1.5c0,0.5-0.5,0.5-1,1
				c-0.5,0.5-0.5,1-1.5,1c-1,0-1.5,0-1.5-1l-1.5-1l-1,1c-0.5,0.5-1.5,1-2,1s-1-0.5-1.5-1c-0.5-0.5-0.5-0.5-0.5-1c0-1,0-1.5,0.5-1.5
				l1.5-1.5l-1.5-0.5c-0.5-1-0.5-1.5-0.5-2s0-1,0.5-1.5C372.1,50.4,372.6,49.9,373.1,50.4z"/>
			<path fill="#010101" d="M375.1,50.9c-0.5-0.5-1.5-0.5-2-0.5c-0.5,0-1,0-1.5,0.5c-0.5,0.5-0.5,1-0.5,1.5s0,1,0.5,2l1.5,0.5
				l-1.5,1.5c-0.5,0-0.5,0.5-0.5,1.5c0,0.5,0,0.5,0.5,1c0.5,0.5,1,1,1.5,1c0.5,0,1,0,2-1l1-1l1.5,1c0.5,0.5,1,1,1.5,1
				c0.5,0,1-0.5,1.5-1c0.5-0.5,1-0.5,1-1c0-1-0.5-1.5-1-1.5l-1-1.5l1-1c0.5-0.5,1-1.5,1-2c0-0.5-0.5-1-1-1.5
				c-0.5-0.5-0.5-0.5-1.5-0.5c-1,0-1.5,0-1.5,0l-1.5,1.5L375.1,50.9z"/>
		</g>
	</g>
</g>
<g transform="matrix( 0.39410400390625, 0, 0, 0.39410400390625, 407.35,459.75) ">
	<g>
		<g id="Layer5_350_FILL">
			<path fill="#2F3031" d="M-52.1-770.7c0-55.4-27.5-83.4-83.4-83.4h-655.8c-55.4,0-82.9,27.5-82.9,83.4v655.8
				c0,55.4,27.5,83.4,82.9,83.4h655.8c55.4,0,83.4-27.5,83.4-83.4V-770.7z"/>
		</g>
	</g>
	<g transform="matrix( 2.5373992919921875, 0, 0, 2.5373992919921875, -1033.6,-1166.55) ">
		<path id="Layer5_350_1_STROKES" fill="none" stroke="#585C66" stroke-linecap="round" stroke-linejoin="round" d="M-5002.4-5513.3
			h655.3c55.4,0,82.9,27.5,82.9,82.9v655.8c0,55.4-28,82.9-82.9,82.9h-655.3c-55.4,0-82.9-27.5-82.9-82.9v-655.8
			C-5085.3-5485.4-5057.9-5513.3-5002.4-5513.3z"/>
	</g>
</g>
<g transform="matrix( 1, 0, 0, 1, 0,0) ">
	<g>
		<g id="Layer5_351_FILL">
			<path fill="#FFFFFF" d="M183.3,136.3h-2.5v16.5h2.5v-4.5l2-2.5l4.5,7.5h2.5l-5.5-9l5-7h-3l-6,9v-10 M207.8,145.8c1,0,2,0,2.5,0
				l4,7h2.5l-5-7.5c1,0,2-1,2.5-2c0.5-0.5,1-1.5,1-2.5c0-3-2-4.5-6-4.5c-0.5,0-1,0-2,0h-2v16.5h2.5V145.8 M209.3,143.8
				c-0.5,0-1,0-1.5-0.5v-5c0.5,0,1,0,1.5,0c1.5,0,2.5,0.5,2.5,1c1,0.5,1.5,1,1.5,2c0,1-0.5,1.5-1,2S210.8,143.8,209.3,143.8
				 M203.3,138.8v-2h-9.5v16.5h9.5v-2h-7.5v-5.5h5.5v-2h-5.5v-4.5h7.5 M133.9,136.3c-1,0-2.5,0-4.5,0v16.5h4.5c2,0,3-0.5,4-1.5
				s2-2,2-3.5c0-1,0-2-1-2.5c-1-1-2-1.5-3-1.5c1,0,1.5-0.5,1.5-1.5c0.5-0.5,1-1,1-2c0-1.5-0.5-2.5-1.5-3
				C136.8,136.8,135.3,136.3,133.9,136.3 M131.9,144.8h2c1.5,0,2.5,0.5,3,1c0.5,0.5,0.5,1.5,0.5,2.5c0,1,0,2-0.5,2c-1,0.5-2,1-3,1
				c-0.5,0-1,0-2,0V144.8 M133.9,143.3c-0.5,0-1.5,0-2,0v-5c0.5,0,1.5,0,2,0c2,0,3,0.5,3,2.5C136.8,142.3,135.8,143.3,133.9,143.3
				 M172.8,136.3h-1l-6.5,16.5h2.5l1.5-3.5h6l1,3.5h2.5L172.8,136.3 M169.8,147.8l2.5-7.5l2,7.5H169.8 M157.8,143.3v-4.5h7.5v-2h-10
				v16.5h9.5v-2h-7.5v-5.5h5.5v-2h-5 M149.3,145.3c1,0,1.5-1,2-2c0.5-0.5,1-1.5,1-2.5c0-3-2-4.5-5.5-4.5c-0.5,0-1.5,0-2.5,0h-1.5
				v16.5h2v-7c1,0,2,0,2.5,0l4,7h2.5L149.3,145.3 M150.3,141.3c0,1-0.5,1.5-1,2c-1,0.5-2,1-3,1c-0.5,0-1,0-1.5-0.5v-5
				c0.5,0,1,0,1.5,0c1.5,0,2.5,0.5,3,1S150.3,140.3,150.3,141.3 M283.2,145.8c1,0,2,0,2.5,0l4,7h2.5l-5-7.5c1,0,1.5-1,2-2
				c0.5-0.5,1-1.5,1-2.5c0-3-2-4.5-5.5-4.5c-0.5,0-1.5,0-2.5,0h-1.5v16.5h2v-7 M283.2,143.8v-5c0.5,0,1,0,1.5,0c1.5,0,2.5,0.5,3,1
				c0.5,0.5,1,1,1,2c0,1,0,1.5-1,2c-1,0.5-2,1-3,1C284.2,143.8,283.7,143.8,283.2,143.8 M311.2,136.3h-2.5v16.5h9.5v-2h-7V136.3
				 M306.2,144.3c0-2.5-0.5-4.5-2-6c-1-1.5-3-2-5-2c-2,0-3.5,0.5-4.5,2c-1.5,1.5-2,3.5-2,6s0.5,4.5,2,6c1,2,2.5,2.5,4.5,2.5
				c2,0,3.5-1,5-2.5C305.7,149.3,306.2,147.3,306.2,144.3 M296.2,139.8c1-1,2-1.5,3-1.5c3,0,4.5,2,4.5,6c0,2-0.5,4-1.5,5
				c-0.5,1-2,1.5-3.5,1.5c-1.5,0-2.5-0.5-3-1.5c-0.5-1.5-1-3-1-5C295.7,142.8,295.7,141.3,296.2,139.8 M249.2,138.3
				c-1-1.5-2.5-2-5-2c-2,0-3.5,0.5-5,2c-1,1.5-1.5,3.5-1.5,6s0.5,4.5,1.5,6c1,2,2.5,2.5,5,2.5c2,0,4-1,5-2.5c1.5-1.5,2-3.5,2-6.5
				S250.7,139.8,249.2,138.3 M240.2,144.3c0-2,0.5-3.5,1.5-4.5c0.5-1,1.5-1.5,3-1.5c3,0,4.5,2,4.5,6c0,2,0,4-1,5c-1,1-2,1.5-3.5,1.5
				s-2.5-0.5-3-1.5C240.7,148.3,240.2,146.3,240.2,144.3 M226.2,138.8c-1.5,1.5-2,3.5-2,6s0.5,4.5,2,6c1.5,2,3,2.5,5,2.5
				s3.5-0.5,5-2l-1-1.5c-1,1-2,1.5-3.5,1.5c-1.5,0-2.5-0.5-3.5-1.5c-1-1-1.5-2.5-1.5-5c0-2,0.5-3.5,1.5-5c1-1,2-1.5,3.5-1.5
				c1.5,0,2.5,0.5,3,1l1-2c-1-0.5-2.5-0.5-4-0.5C229.2,136.3,227.7,137.3,226.2,138.8 M266.7,136.3v2h5v14h2v-14h5.5v-2H266.7
				 M254.7,136.3h-1v16.5h2v-11.5l8.5,12h0.5v-16.5h-2v11.5L254.7,136.3z"/>
		</g>
	</g>
</g>
<g transform="matrix( 1, 0, 0, 1, 0,0) ">
	<g>
		<g id="Layer5_352_FILL">
			
				<radialGradient id="SVGID_3_" cx="-553.1688" cy="-273.1669" r="5.525" gradientTransform="matrix(4.9945 0 0 4.9945 3106.5483 1534.9629)" gradientUnits="userSpaceOnUse">
				<stop  offset="0" style="stop-color:#505050"/>
				<stop  offset="1" style="stop-color:#010101"/>
			</radialGradient>
			<path fill="url(#SVGID_3_)" d="M316.1,170.8c0,8,3,14.5,8.5,20.5c5.5,5,12,7.5,19.5,7.5c8,0,14.5-2.5,19.5-7.5
				c5.5-6,8.5-12.5,8.5-20.5c0-7-3-13.5-8.5-19c-5-5.5-11.5-8-19.5-8c-7.5,0-14,2.5-19.5,8C318.6,157.3,316.1,163.8,316.1,170.8
				 M341.6,156.8c1-0.5,1.5-1,2-1l0,0c1,0,1.5,0.5,2,1c0.5,0.5,0.5,1,0.5,2v25c0,0.5,0,1.5-0.5,2c-0.5,0.5-1,1-2,1l0,0
				c-0.5,0-1-0.5-2-1c-0.5-0.5-0.5-1.5-0.5-2v-25C341.1,157.8,341.1,157.3,341.6,156.8z"/>
			<path fill="#010101" d="M343.6,155.8c-0.5,0-1,0.5-2,1c-0.5,0.5-0.5,1-0.5,2v25c0,0.5,0,1.5,0.5,2c1,0.5,1.5,1,2,1l0,0
				c1,0,1.5-0.5,2-1c0.5-0.5,0.5-1.5,0.5-2v-25c0-1,0-1.5-0.5-2C345.6,156.3,344.6,155.8,343.6,155.8L343.6,155.8z"/>
		</g>
	</g>
</g>
<g transform="matrix( 1, 0, 0, 1, 0,0) ">
	<g>
		<g id="Layer5_353_FILL">
			
				<radialGradient id="SVGID_4_" cx="-767.1679" cy="116.1935" r="5.5331" gradientTransform="matrix(3.5316 3.5316 -3.5316 3.5316 3224.7124 2470.147)" gradientUnits="userSpaceOnUse">
				<stop  offset="0" style="stop-color:#505050"/>
				<stop  offset="1" style="stop-color:#010101"/>
			</radialGradient>
			<path fill="url(#SVGID_4_)" d="M124.9,190.8c5-5,8-11.5,8-19.5c0-7.5-2.5-13.5-8.5-19c-5-5.5-11.5-8-19-8.5c-8,0-14.5,3-19.5,8
				c-5.5,5.5-8.5,12-9,20c0,7.5,3,14,8.5,19c5.5,5.5,12,8.5,19,8.5C112.9,198.8,119.4,196.3,124.9,190.8 M113.9,159.8
				c0.5,0,1.5,0,2,0.5c0.5,0.5,1,1.5,1,2.5c0,0.5-0.5,1-1,1.5l-17.5,18c-0.5,0.5-1.5,1-1.5,0.5c-1,0.5-1.5,0-2.5-0.5
				c-0.5-0.5-1-1.5-1-2c0-1,0.5-1.5,1-2.5l18-17.5C112.4,160.3,113.4,159.8,113.9,159.8z"/>
			<path fill="#010101" d="M115.9,160.3c-0.5,0-1-0.5-2-0.5c-1,0-1.5,0-2,0.5l-18,18c-0.5,0.5-1,1.5-1,2.5c0,0.5,0.5,1.5,1,2
				c0.5,0.5,1.5,1,2.5,0.5c0.5,0.5,1,0,1.5-0.5l17.5-18c0.5-0.5,1-1,1-1.5C116.9,161.8,116.4,161.3,115.9,160.3z"/>
		</g>
	</g>
</g>
<g transform="matrix( 1, 0, 0, 1, 0,0) ">
	<g>
		<g id="Layer5_354_FILL">
			
				<radialGradient id="SVGID_5_" cx="-532.907" cy="649.1733" r="5.5277" gradientTransform="matrix(-1.2991 4.8226 -4.8112 -1.2991 2656.3054 3820.6526)" gradientUnits="userSpaceOnUse">
				<stop  offset="0" style="stop-color:#505050"/>
				<stop  offset="1" style="stop-color:#010101"/>
			</radialGradient>
			<path fill="url(#SVGID_5_)" d="M251.2,414.5c2-7.5,1.5-14.5-2.5-20.5c-4-7-9.5-11.5-16.5-13.5c-7.5-2-14.5-1-21.5,2.5
				c-6.5,4-11,9.5-13,17c-2,7.5-1.5,14.5,2.5,20.5c4,7,10,11.5,17.5,13.5c6.5,1.5,13.5,0.5,20.5-3.5
				C245.2,427,249.7,422,251.2,414.5 M239.2,409.5c0.5,0.5,0.5,1,0,2c0,1-0.5,1.5-1,1.5c-1,0.5-1.5,0.5-2.5,0l-24.5-6.5
				c-0.5,0-1-0.5-1.5-1.5c-0.5-0.5-1-1.5-0.5-2.5c0-0.5,0.5-1,1.5-1.5c0.5-0.5,1-0.5,2-0.5l24,6.5
				C238.7,408.5,239.2,408.5,239.2,409.5z"/>
			<path fill="#010101" d="M239.7,411.5c0-1,0-1.5,0-2c-0.5-0.5-1-1-1.5-1.5l-24.5-6.5c-1,0-1.5,0-2,0.5c-1,0.5-1.5,1-1.5,1.5
				c-0.5,1,0,2,0.5,2.5c0.5,0.5,1,1,1.5,1.5l24.5,6.5c0.5,0.5,1.5,0,2.5,0C239.2,413,239.2,412,239.7,411.5z"/>
		</g>
	</g>
</g>
<g transform="matrix( 1, 0, 0, 1, 0,0) ">
	<g>
		<g id="Layer5_355_FILL">
			<path fill="#010101" d="M307.2,161.8H142.8c1,3,1.5,6.5,1.5,10c0,10-3.5,18.5-11,26c-7,7-16,11-26,11c-6,0-11-1-16-3.5v165.8
				c0,24,12,35.5,36.5,35.5h60.4c0-10,3.5-18.5,11-26c7-7,15.5-10.5,26-10.5c10,0,18.5,3.5,26,10.5c7,7.5,11,16,11,26h60.9
				c24,0,35.5-12,35.5-35.5V205.8c-4.5,2-10,3.5-15.5,3.5c-10.5,0-19-3.5-26.5-11c-7-7.5-11-16-11-26
				C305.7,168.3,306.2,165.3,307.2,161.8z"/>
		</g>
	</g>
</g>
<g transform="matrix( 1, 0, 0, 1, 0,0) ">
	<g>
		<g id="Layer5_356_FILL">
			<path fill="#FFFFFF" d="M337.6,221.8h-10v16h9.5v-2h-7.5v-5.5h5.5v-2h-5.5v-4h7.5v-2.5 M302.7,224.3c-1,1.5-1.5,3.5-1.5,5.5
				c0,2.5,0.5,4.5,1.5,6c1,1.5,3,2.5,5,2.5c2,0,3.5-0.5,5-2c1-1.5,1.5-3.5,1.5-6.5c0-2.5-0.5-4.5-1.5-6c-1-1.5-2.5-2.5-5-2.5
				C305.7,221.8,304.2,222.3,302.7,224.3 M307.7,223.8c3,0,4.5,2,4.5,6c0,2-0.5,3.5-1,4.5c-1,1.5-2,2-3.5,2c-1.5,0-2.5-0.5-3.5-2
				c-0.5-1-0.5-2.5-0.5-4.5s0.5-3.5,1-4.5C305.2,224.3,306.7,223.8,307.7,223.8 M324.6,222.3c-0.5-0.5-2-0.5-4-0.5
				c-1.5,0-2.5,0.5-3,1.5c-1,1-1.5,2-1.5,3s0,1.5,0.5,2.5c0.5,1,1.5,1.5,2.5,2l1,0.5c1.5,0.5,2,1,2.5,1.5c0,0.5,0,1,0,2
				c0,0.5,0,1-0.5,1.5c-0.5,0.5-1,1-2,1c-0.5,0-1,0-1.5-0.5c-0.5,0-1-0.5-1.5-0.5l-1.5,1.5c1,0.5,2.5,1,4,1c2,0,3-0.5,4-1.5
				c1-1,1.5-2,1.5-2.5c0-1.5-0.5-2.5-1-3.5c-0.5-0.5-1-1-2-1.5l-1.5-1c-0.5-0.5-1-1-1.5-1c-0.5,0-0.5,0-0.5-1c0-0.5,0-0.5,0-1
				c0-1,0-1.5,0.5-1.5c0.5-0.5,1-0.5,1.5-0.5c0.5,0,1.5,0,2,0.5c0.5,0,1,0.5,1.5,0.5L324.6,222.3 M283.7,223.8c1.5,0,2.5,0,3,0l1-2
				c-1-0.5-2.5-0.5-4-0.5c-2,0-4,1-5,2.5c-1.5,1.5-2.5,3.5-2.5,6c0,2.5,0.5,4.5,2,5.5c1,1.5,3,2.5,5,2.5c2,0,3.5-0.5,5-1.5l-1.5-2
				c-0.5,1.5-1.5,2-3,2c-1.5,0-2.5-0.5-3.5-2c-1-1-1.5-2.5-1.5-4c0-2,0.5-3.5,1.5-5C281.2,224.3,282.2,223.8,283.7,223.8
				 M292.7,221.8h-2.5v16h9.5v-2h-7.5v-14H292.7z"/>
		</g>
	</g>
</g>
<g transform="matrix( 1, 0, 0, 1, 0,0) ">
	<g>
		<g id="Layer5_357_FILL">
			<path fill="#FFFFFF" d="M158.3,221.8h-2v16h2V221.8 M165.3,221.8c-0.5,0-1.5,0-3.5,0v16h2.5v-6c0.5,0,1,0,1.5,0c4,0,6-2,6-5.5
				C171.8,223.3,169.8,221.8,165.3,221.8 M164.3,229.7v-5.5c0.5,0,0.5,0,1,0c3,0,4.5,1,4.5,2.5c0,2-1.5,3-4.5,3H164.3 M128.9,224.3
				h5v14h2v-14h5.5v-2.5h-12.5V224.3 M144.8,221.8h-1.5v16h2v-7c1,0,2,0,2.5,0l4,7h2.5l-5-7.5c1,0,1.5-0.5,2-1.5
				c1-0.5,1.5-1.5,1.5-2.5c0-3-2-5-6-5C146.3,221.8,145.8,221.8,144.8,221.8 M145.3,228.7v-5c0.5,0,1,0,1.5,0c1.5,0,2.5,0,3,0
				c0.5,0.5,1,1.5,1,2.5c0,1,0,1.5-1,2c-0.5,0.5-1.5,1-2.5,1S145.8,229.2,145.3,228.7z"/>
		</g>
	</g>
</g>
<g transform="matrix( 1, 0, 0, 1, 556.25,27.1) ">
	<g>
		<g id="Layer5_796_FILL">
			<path fill="#700F10" d="M-372.7,164.7l20.5,20.5c5.5-5.5,12.5-8.5,20.5-8.5s15,3,20.5,8.5l20.5-20.5c-11.5-11.5-25-17-41-17
				S-361.2,153.7-372.7,164.7z"/>
		</g>
	</g>
</g>
<text transform="matrix(1 0 0 1 118.4564 37)"><tspan x="0" y="0" font-family="'MSReferenceSansSerif'" font-size="24">GENERATOR No2</tspan><tspan x="-8.9" y="28.8" font-family="'MSReferenceSansSerif'" font-size="24">CIRCUIT BREAKER</tspan><tspan x="53.4" y="57.6" font-family="'MSReferenceSansSerif'" font-size="24">SWITCH</tspan></text>
</svg>
