<?xml version="1.0" encoding="utf-8"?>
<!-- Generator: Adobe Illustrator 18.0.0, SVG Export Plug-In . SVG Version: 6.00 Build 0)  -->
<!DOCTYPE svg PUBLIC "-//W3C//DTD SVG 1.1//EN" "http://www.w3.org/Graphics/SVG/1.1/DTD/svg11.dtd">
<svg version="1.1" id="Layer_1" xmlns="http://www.w3.org/2000/svg" xmlns:xlink="http://www.w3.org/1999/xlink" x="0px" y="0px"
	 viewBox="0 0 450 450" enable-background="new 0 0 450 450" xml:space="preserve">
<g transform="matrix( 0.523590087890625, 0, 0, 0.586517333984375, -398.35,619.05) ">
	<g>
		<g id="Layer5_713_MEMBER_0_FILL">
			<path fill="#DFE6EC" d="M1517.1-867.3v-188.3H863.8v188.3H1517.1z"/>
		</g>
	</g>
</g>
<g transform="matrix( 1, 0, 0, 1, 0,0) ">
	<g>
		<g id="Layer5_713_MEMBER_1_FILL">
			
				<radialGradient id="SVGID_1_" cx="-407.916" cy="-242.3096" r="2.4578" gradientTransform="matrix(3.5316 3.5316 -3.5316 3.5316 659.6605 2351.377)" gradientUnits="userSpaceOnUse">
				<stop  offset="0" style="stop-color:#A5A39C"/>
				<stop  offset="1" style="stop-color:#34342F"/>
			</radialGradient>
			<path fill="url(#SVGID_1_)" d="M74.9,43c-3.5,0-6.5,1-8.5,3.5c-2.5,2.5-3.5,5.5-3.5,8.5c0,3.5,1,6.5,3.5,8.5c2,2.5,5,4,8.5,4
				s6.5-1.5,8.5-4c2.5-2,3.5-5,3.5-8c0-3-1.5-6.5-3.5-9C80.9,44,78.4,43,74.9,43 M72.4,49.9c0.5,0,1,0,1.5,0.5l1,1.5l1.5-1.5
				c0.5-0.5,1-0.5,2-1c0.5,0,1,0,1.5,0.5l0,0c0.5,0.5,1,1,1,1.5s0,1-1,2l-2,1.5l1.5,1.5c0.5,0,1,0.5,1,1.5c0,0.5,0,1-1,1.5
				c-0.5,0.5-1,1-1.5,1s-1.5,0-2-1l-1.5-1l-0.5,1c-0.5,0.5-1,1-1.5,1c-1,0-1.5,0-1.5-1l0,0c-0.5-0.5-1-1-1-1.5s0.5-1,1-1.5l1.5-1.5
				l-1.5-1.5c-0.5-0.5-1-1.5-1-2s0.5-1,1-1.5C70.9,50.4,71.4,50.4,72.4,49.9z"/>
			<path fill="#010101" d="M73.9,50.4c-1,0-1.5-0.5-1.5-0.5c-1,0-1.5,0.5-1.5,1c-0.5,0.5-1,1-1,1.5s0.5,1,1,2l1.5,1.5l-1.5,1.5
				c-0.5,0.5-1,0.5-1,1.5c0,0.5,0.5,1,1,1.5l0,0c0.5,0.5,1,1,1.5,1s1-0.5,1.5-1l1-1l1.5,1c0.5,0.5,1,1,2,1c0.5,0,1-0.5,1.5-1
				c0.5-0.5,1-1,1-1.5s0-1-1-1.5l-2-2.5l1.5-1c0.5-0.5,1-1.5,1-2c0-0.5,0-1-1-1.5l0,0c-0.5,0-1-0.5-1.5-0.5s-1.5,0.5-2,1l-1.5,1.5
				L73.9,50.4z"/>
		</g>
	</g>
</g>
<g transform="matrix( 1, 0, 0, 1, 0,0) ">
	<g>
		<g id="Layer5_713_MEMBER_2_FILL">
			
				<radialGradient id="SVGID_2_" cx="-407.9173" cy="-242.3096" r="2.4594" gradientTransform="matrix(3.5316 3.5316 -3.5316 3.5316 960.8258 2351.377)" gradientUnits="userSpaceOnUse">
				<stop  offset="0" style="stop-color:#A5A39C"/>
				<stop  offset="1" style="stop-color:#34342F"/>
			</radialGradient>
			<path fill="url(#SVGID_2_)" d="M376.1,43c-3.5,0-6,1-8.5,3.5s-4,5.5-4,8.5c0,3.5,1,6.5,3.5,8.5c2.5,2.5,5.5,4,8.5,4
				c3.5,0,6.5-1.5,9-4c2-2,3.5-5,3.5-8.5c0-3-1-6-3.5-9C382.6,44,379.6,43,376.1,43 M377.1,50.4c0.5-0.5,1-0.5,1.5,0
				c0.5,0,1,0,1.5,0.5c0.5,0.5,1,1,1,1.5s-0.5,1-1,2l-0.5,0.5l1,1.5c0.5,0,1,0.5,1,1.5c0,0.5-0.5,0.5-1,1c-0.5,0.5-1,1-1.5,1
				c-1,0-1.5,0-1.5-1l-1.5-1l-1,1c-0.5,0.5-1.5,1-2,1s-1-0.5-1.5-1c-0.5-0.5-0.5-0.5-0.5-1c0-1,0-1.5,0.5-1.5l1.5-1.5l-1.5-0.5
				c-0.5-1-0.5-1.5-0.5-2s0-1,0.5-1.5c0.5-0.5,1-0.5,1.5-0.5s1.5,0,2,0.5l1,1L377.1,50.4z"/>
			<path fill="#010101" d="M379.1,50.4c-1,0-1.5,0-1.5,0l-1.5,1.5l-1-1c-0.5-0.5-1.5-0.5-2-0.5c-0.5,0-1,0-1.5,0.5
				c-0.5,0.5-0.5,1-0.5,1.5s0,1,0.5,2l1.5,0.5l-1.5,1.5c-0.5,0-0.5,0.5-0.5,1.5c0,0.5,0,0.5,0.5,1c0.5,0.5,1,1,1.5,1
				c0.5,0,1.5,0,2-1l1-1l1.5,1c0.5,0.5,1,1,1.5,1c0.5,0,1-0.5,1.5-1c0.5-0.5,1-0.5,1-1c0-1-0.5-1.5-1-1.5l-1-1.5l1-1
				c0.5-0.5,1-1.5,1-2c0-0.5-0.5-1-1-1.5C379.6,50.4,379.1,50.4,379.1,50.4z"/>
		</g>
	</g>
</g>
<g transform="matrix( 0.39410400390625, 0, 0, 0.39410400390625, -100.45,459.75) ">
	<g>
		<g id="Layer5_714_FILL">
			<path fill="#2F3031" d="M1235.9-770.7c0-55.4-27.5-83.4-83.4-83.4H497.2c-55.4,0-82.9,27.5-82.9,83.4v655.8
				c0,55.4,27.5,83.4,82.9,83.4H1153c55.4,0,83.4-27.5,83.4-83.4v-655.8H1235.9z"/>
		</g>
	</g>
	<g transform="matrix( 2.5373992919921875, 0, 0, 2.5373992919921875, 254.9,-1166.55) ">
		<path id="Layer5_714_1_STROKES" fill="none" stroke="#585C66" stroke-linecap="round" stroke-linejoin="round" d="M1432.4-5513.3
			h655.8c55.4,0,82.9,27.5,82.9,82.9v655.8c0,55.4-27.5,82.9-82.9,82.9h-655.8c-55.4,0-83.4-27.5-82.9-82.9v-655.8
			C1349.5-5485.4,1377-5513.3,1432.4-5513.3z"/>
	</g>
</g>
<g transform="matrix( 1, 0, 0, 1, 0,0) ">
	<g>
		<g id="Layer5_715_FILL">
			<path fill="#FFFFFF" d="M195.8,138.8h7.5v-2h-9.5v16.5h9.5v-2h-7.5v-5.5h5.5v-2h-5.5V138.8 M209.8,136.3c-0.5,0-1.5,0-2,0h-1.5
				v16.5h2v-7c1,0,2,0,2.5,0l4.5,7h2.5l-5-7.5c1,0,2-1,2.5-2c0.5-0.5,1-1.5,1-2.5C215.3,137.8,213.3,136.3,209.8,136.3 M207.8,143.8
				v-5c1,0,1.5,0,1.5,0c1.5,0,2.5,0.5,3,1c1,0.5,1.5,1,1.5,2c0,1-0.5,1.5-1,2c-0.5,0.5-1.5,1-2.5,1
				C208.8,143.8,208.3,143.8,207.8,143.8 M180.8,136.3v16.5h2.5v-4.5l2-2.5l4.5,7.5h2.5l-5.5-9l5-7h-3l-5.5,9v-9h-2.5 M146.8,136.3
				c-0.5,0-1.5,0-3,0h-1.5v16.5h2v-7c1,0,1.5,0,2,0l4,7h3.5l-4.5-7.5c1,0,1.5-1,2-2c0.5-0.5,1-1.5,1-2.5
				C152.3,137.8,150.8,136.3,146.8,136.3 M144.8,138.8c0.5,0,1,0,1.5,0c1.5,0,2.5,0.5,3,1c0.5,0.5,1,1,1,2c0,1,0,1.5-0.5,2
				c-1,0.5-2,1-3,1c-0.5,0-1,0-1.5-0.5v-5.5 M137.8,142.3c0.5-0.5,1-1,1-2c0-1.5-0.5-2.5-1.5-3c-1-0.5-2-1-4-1c-0.5,0-2,0-4,0v16.5
				h4.5c2,0,3-0.5,4-1.5s2-2,2-3.5c0-1,0-2-1-2.5c-1-1-2-1.5-3-1.5C136.8,143.3,137.3,143.3,137.8,142.3 M131.9,144.8h1.5
				c1.5,0,2.5,0.5,3.5,1c0.5,0.5,0.5,1.5,0.5,2.5c0,1,0,2-0.5,2c-1,0.5-2,1-3.5,1c0,0-0.5,0-1.5,0V144.8 M133.4,143.3
				c-0.5,0-1,0-1.5,0v-5c0.5,0,1.5,0,2,0c2,0,3,0.5,3,2.5C136.8,142.3,135.8,143.3,133.4,143.3 M165.3,138.8v-2h-9.5v16.5h9.5v-2
				h-7.5v-5.5h5.5v-2h-5.5v-4.5h7.5 M172.8,136.3h-1l-6.5,16.5h2l1.5-3.5h6l1,3.5h3L172.8,136.3 M174.3,147.8h-4.5l2.5-7.5
				L174.3,147.8 M294.7,138.8c-1.5,1.5-2,3.5-2,6s0.5,4.5,2,6c1,2,2.5,2.5,4.5,2.5c2,0,3.5-1,5-2.5c1-1.5,1.5-3.5,1.5-6.5
				c0-2.5-0.5-4.5-1.5-6s-3-2-5-2C297.7,136.3,296.2,137.3,294.7,138.8 M296.2,139.8c1-1,2-1.5,3.5-1.5c3,0,4.5,2,4.5,6
				c0,2-0.5,4-1.5,5c-0.5,1-1.5,1.5-3.5,1.5c-1.5,0-2.5-0.5-3.5-1.5c-0.5-1.5-1-3-1-5C295.2,142.8,295.7,141.3,296.2,139.8
				 M311.2,136.3h-2.5v16.5h9.5v-2h-7V136.3 M281.2,136.3v16.5h2v-7c1,0,2,0,2.5,0l4,7h2.5l-4.5-7.5c1,0,1.5-1,2-2
				c0.5-0.5,1-1.5,1-2.5c0-3-2-4.5-6-4.5c-0.5,0-1.5,0-2.5,0H281.2 M283.2,143.8v-5c0.5,0,1,0,1.5,0c1.5,0,2.5,0.5,3,1
				c0.5,0.5,1,1,1,2c0,1-0.5,1.5-1,2c-1,0.5-2,1-3,1C284.2,143.8,283.7,143.8,283.2,143.8 M239.7,138.8c-1,1.5-1.5,3.5-1.5,6
				s0.5,4.5,1.5,6c1,2,3,2.5,5,2.5s4-1,5-2.5c1.5-1.5,2-3.5,2-6.5s-0.5-4.5-2-6c-1-1.5-2.5-2-5-2
				C242.2,136.3,240.7,137.3,239.7,138.8 M240.2,144.3c0-2,0.5-3.5,1.5-4.5c0.5-1,1.5-1.5,3-1.5c3,0,4,2,4,6c0,2-0.5,4-1,5
				c-1,1-2,1.5-3.5,1.5c-1.5,0-2.5-0.5-3-1.5C240.7,148.3,240.2,146.3,240.2,144.3 M234.7,139.3l1-2c-1-0.5-2.5-0.5-4-0.5
				c-2,0-4,0.5-5,2c-1.5,1.5-2,3.5-2,6s0.5,4.5,1.5,6c1,2,3,2.5,5,2.5s3.5-0.5,5-2l-1.5-1.5c-1,1-2,1.5-3.5,1.5s-2.5-0.5-3.5-1.5
				c-1-1-1.5-2.5-1.5-5c0-2,0.5-3.5,1.5-5c1-1,2-1.5,3.5-1.5C232.7,138.3,233.7,138.8,234.7,139.3 M264.7,136.3h-2v11.5l-8-11.5h-1
				v16.5h2v-11.5l8.5,12h0.5V136.3 M266.7,136.3v2h5v14h2v-14h5.5v-2H266.7z"/>
		</g>
	</g>
</g>
<g transform="matrix( 1, 0, 0, 1, 0,0) ">
	<g>
		<g id="Layer5_716_FILL">
			
				<radialGradient id="SVGID_3_" cx="-45.4188" cy="-273.1669" r="5.525" gradientTransform="matrix(4.9945 0 0 4.9945 570.616 1534.9629)" gradientUnits="userSpaceOnUse">
				<stop  offset="0" style="stop-color:#505050"/>
				<stop  offset="1" style="stop-color:#010101"/>
			</radialGradient>
			<path fill="url(#SVGID_3_)" d="M363.1,151.8c-5-5.5-11.5-8-19.5-8c-7.5,0-14,2.5-19,8c-5.5,5.5-8.5,12-8.5,19
				c0,8,3,14.5,8.5,20.5c5.5,5,11.5,7.5,19,7.5c8,0,14.5-2.5,19.5-7.5c6-6,9-12.5,9-20.5C371.6,163.8,368.6,157.3,363.1,151.8
				 M341.6,156.8c0.5-0.5,1.5-1,2-1h0.5c1,0,1.5,0.5,1.5,1c0.5,0.5,1,1,1,2v25c0,0.5-0.5,1.5-1,2c-0.5,0.5-1,1-1.5,1h-0.5
				c-0.5,0-1.5-0.5-2-1c-0.5-0.5-1-1.5-1-2v-25C341.1,157.8,341.1,157.3,341.6,156.8z"/>
			<path fill="#010101" d="M343.6,155.8c-0.5,0-1.5,0.5-2,1c-0.5,0.5-1,1-1,2v25c0,0.5,0.5,1.5,1,2c0.5,0.5,1.5,1,2,1h0.5
				c1,0,1.5-0.5,1.5-1c0.5-0.5,1-1.5,1-2v-25c0-1-0.5-1.5-1-2C345.6,156.3,344.6,155.8,343.6,155.8L343.6,155.8z"/>
		</g>
	</g>
</g>
<g transform="matrix( 1, 0, 0, 1, 0,0) ">
	<g>
		<g id="Layer5_717_FILL">
			
				<radialGradient id="SVGID_4_" cx="-407.9148" cy="-242.3057" r="5.5312" gradientTransform="matrix(3.5316 3.5316 -3.5316 3.5316 689.8769 2467.498)" gradientUnits="userSpaceOnUse">
				<stop  offset="0" style="stop-color:#505050"/>
				<stop  offset="1" style="stop-color:#010101"/>
			</radialGradient>
			<path fill="url(#SVGID_4_)" d="M124.4,151.8c-5-5.5-11.5-8-19-8.5c-8,0-14.5,3-19.5,8c-5.5,5.5-8.5,12-9,20c0,7.5,3,14,8.5,19
				c5.5,5.5,12,8.5,19,8.5c8,0,15-2.5,20-8.5c5-5,8-11.5,8-19.5C132.4,163.8,129.9,157.3,124.4,151.8 M113.9,159.8
				c0.5,0,1.5,0,2,0.5c0.5,0.5,1,1.5,1,2.5c0,0.5,0,1-1,1.5l-17.5,18c-0.5,0.5-1.5,1-1.5,0.5c-1,0.5-1.5,0-2.5-0.5
				c-1-0.5-1.5-1.5-1.5-2c0-1,0.5-1.5,1-2.5l18-17.5C112.4,160.3,113.4,159.8,113.9,159.8z"/>
			<path fill="#010101" d="M115.9,160.3c-0.5,0-1-0.5-2-0.5c-1,0-1.5,0-2,0.5l-18,18c-0.5,0.5-1,1.5-1,2.5c0,0.5,0.5,1.5,1.5,2
				c0.5,0.5,1.5,1,2.5,0.5c0.5,0.5,1,0,1.5-0.5l17.5-18c0.5-0.5,1-1,1-1.5C116.9,161.8,116.4,161.3,115.9,160.3z"/>
		</g>
	</g>
</g>
<g transform="matrix( 1, 0, 0, 1, 0,0) ">
	<g>
		<g id="Layer5_718_FILL">
			
				<radialGradient id="SVGID_5_" cx="-664.2932" cy="158.5458" r="5.5277" gradientTransform="matrix(-1.2991 4.8226 -4.8112 -1.2991 125.0935 3817.0359)" gradientUnits="userSpaceOnUse">
				<stop  offset="0" style="stop-color:#505050"/>
				<stop  offset="1" style="stop-color:#010101"/>
			</radialGradient>
			<path fill="url(#SVGID_5_)" d="M200.8,421c4,7,10,11.5,17.5,13.5c7,1.5,13.5,0.5,20.5-3.5c6.5-3.5,10.5-9,12.5-16.5
				s1.5-14.5-2.5-20.5c-4-7-9.5-11.5-16.5-13.5c-7.5-2-14.5-1-21.5,2.5c-6.5,4-10.5,9.5-12.5,17C196.3,407.5,197.3,414.5,200.8,421
				 M212.3,407c-1,0-1.5-0.5-1.5-1.5c-0.5-0.5-1-1.5-0.5-2.5c0-0.5,0.5-1,1.5-1.5c0.5-0.5,1.5-0.5,2.5-0.5l24,6.5
				c0.5,0,1,0.5,1.5,1.5c0.5,0.5,0.5,1,0,2c0,1-0.5,1.5-1.5,1.5c-0.5,0.5-1.5,0.5-2,0L212.3,407z"/>
			<path fill="#010101" d="M210.8,405.5c0,0.5,0.5,1,1.5,1.5l24,6.5c0.5,0.5,1.5,0,2,0c0.5-0.5,1-1,1.5-1.5c0-1,0-1.5,0-2
				c-0.5-0.5-1-1-1.5-1.5l-24.5-7c-1,0-1.5,0-2.5,0.5c-0.5,0.5-1,1-1.5,1.5C209.8,404.6,209.8,405,210.8,405.5z"/>
		</g>
	</g>
</g>
<g transform="matrix( 1, 0, 0, 1, 0,0) ">
	<g>
		<g id="Layer5_719_FILL">
			<path fill="#010101" d="M305.7,172.3c0-3.5,0.5-7,1.5-10H142.8c1,3,1.5,6.5,1.5,10c0,10-3.5,18.5-11,26c-7,7-16,11-26.5,11
				c-5.5,0-11-1-15.5-3.5v165.8c0,24,12,35.5,36,35.5h60.9c0-10,3.5-18.5,11-26c7-7,15.5-10.5,26-10.5c10,0,19,3.5,26.5,10.5
				c7,7.5,11,16,11,26h60.9c24,0,36-12,36-35.5V205.8c-4.5,2-10,3.5-16,3.5c-10,0-19-3.5-26-11C309.2,190.8,305.7,182.3,305.7,172.3
				z"/>
		</g>
	</g>
</g>
<g transform="matrix( 1, 0, 0, 1, 0,0) ">
	<g>
		<g id="Layer5_720_FILL">
			<path fill="#FFFFFF" d="M330.1,228.2v-4h7.5v-2.5h-9.5v16h9.5v-2h-7.5v-5.5h5.5v-2H330.1 M324.6,222.3c-0.5-0.5-2-0.5-4-0.5
				c-1.5,0-2.5,0.5-3.5,1.5c-1,1-1.5,2-1.5,3s0.5,1.5,1,2.5c0.5,1,1.5,1.5,2.5,2l1,0.5c1.5,0.5,2,1,2,1.5s0.5,1,0.5,2
				c0,0.5,0,1-0.5,1.5c-0.5,0.5-1,1-2,1c-0.5,0-1,0-1.5-0.5c-0.5,0-1-0.5-1.5-0.5l-1.5,1.5c1,0.5,2.5,1,4,1c1.5,0,3-0.5,4-1.5
				c1-1,2-2,2-2.5c0-1.5-0.5-2.5-1-3.5c-0.5-0.5-1-1-2-1.5l-1.5-1c-0.5-0.5-1-1-1.5-1c-0.5,0-0.5,0-0.5-1c0-0.5,0-0.5,0-1
				c0-1,0-1.5,0-1.5c0.5-0.5,1.5-0.5,2-0.5c0.5,0,1,0,1.5,0.5c0.5,0,1,0.5,1.5,0.5L324.6,222.3 M301.2,229.7c0,2.5,0.5,4.5,1.5,6
				c1,1.5,3,2.5,5,2.5c2,0,3.5-0.5,4.5-2c1.5-1.5,2-3.5,2-6.5c0-2.5-0.5-4.5-2-6c-1-1.5-2.5-2.5-4.5-2.5c-2,0-3.5,1-5,2.5
				C301.7,225.7,301.2,227.7,301.2,229.7 M303.7,229.7c0-2,0.5-3.5,1-4.5c0.5-1,2-1.5,3.5-1.5c3,0,4,2,4,6c0,2-0.5,3.5-1,4.5
				c-1,1.5-2,2-3.5,2c-1.5,0-2.5-0.5-3.5-2C303.7,233.2,303.7,231.7,303.7,229.7 M287.7,222.3c-1-0.5-2.5-0.5-4-0.5
				c-2,0-4,1-5.5,2.5c-1.5,1.5-2,3.5-2,6s0.5,4.5,2,5.5c1,1.5,3,2.5,5,2.5c2,0,3.5-0.5,5-1.5l-1.5-2c-1,1.5-2,2-3.5,2
				c-1.5,0-2.5-0.5-3.5-2c-1-1-1.5-2.5-1.5-4c0-2,0.5-3.5,1.5-5c1-1,2-1.5,3.5-1.5c1.5,0,2.5,0,3,0L287.7,222.3 M292.7,221.8h-2v16
				h9.5v-2h-7v-14H292.7z"/>
		</g>
	</g>
</g>
<g transform="matrix( 1, 0, 0, 1, 0,0) ">
	<g>
		<g id="Layer5_721_FILL">
			<path fill="#FFFFFF" d="M158.3,221.8h-2v16h2V221.8 M165.3,221.8c-0.5,0-1.5,0-3,0v16h2v-6c1,0,1.5,0,1.5,0c4,0,6-2,6-5.5
				C171.8,223.3,169.8,221.8,165.3,221.8 M164.3,224.3c0.5,0,1,0,1.5,0c3,0,4.5,1,4.5,2.5c0,2-1.5,3-4,3h-1.5v-5.5 M144.8,221.8
				h-1.5v16h2v-7c1,0,2,0,2.5,0l4,7h2.5l-4.5-7.5c1,0,1.5-0.5,2-1.5c1-0.5,1.5-1.5,1.5-2.5c0-3-2-5-6-5
				C146.3,221.8,145.8,221.8,144.8,221.8 M150.3,226.2c0,1,0,1.5-1,2c-0.5,0.5-1.5,1-2.5,1c-0.5,0-1.5,0-2-0.5v-5c0.5,0,1,0,1.5,0
				c1.5,0,2.5,0,3,0C150.3,224.8,150.3,225.2,150.3,226.2 M128.9,221.8v2.5h4.5v14h2.5v-14h5.5v-2.5H128.9z"/>
		</g>
	</g>
</g>
<g transform="matrix( 1, 0, 0, 1, 48.5,27.1) ">
	<g>
		<g id="Layer5_795_FILL">
			<path fill="#700F10" d="M135.3,164.7l20.5,20.5c5.5-5.5,12.5-8.5,20.5-8.5s15,3,20.5,8.5l20.5-20.5c-11.5-11.5-25-17-41-17
				S146.3,153.7,135.3,164.7z"/>
		</g>
	</g>
</g>
<text transform="matrix(1 0 0 1 120.4569 36.9524)"><tspan x="0" y="0" font-family="'MSReferenceSansSerif'" font-size="24">GENERATOR No1</tspan><tspan x="-8.9" y="28.8" font-family="'MSReferenceSansSerif'" font-size="24">CIRCUIT BREAKER</tspan><tspan x="53.4" y="57.6" font-family="'MSReferenceSansSerif'" font-size="24">SWITCH</tspan></text>
</svg>
