<?xml version="1.0" encoding="utf-8"?>
<!-- Generator: Adobe Illustrator 18.0.0, SVG Export Plug-In . SVG Version: 6.00 Build 0)  -->
<!DOCTYPE svg PUBLIC "-//W3C//DTD SVG 1.1//EN" "http://www.w3.org/Graphics/SVG/1.1/DTD/svg11.dtd">
<svg version="1.1" id="Layer_1" xmlns="http://www.w3.org/2000/svg" xmlns:xlink="http://www.w3.org/1999/xlink" x="0px" y="0px"
	 viewBox="0 0 86.4 46.3" enable-background="new 0 0 86.4 46.3" xml:space="preserve">
<g transform="matrix( 0.6604461669921875, 0, 0, 1.22900390625, -195.9,476.75) ">
	<g>
		<g id="Layer5_710_MEMBER_0_FILL">
			<path fill="#DFE6EC" d="M427.4-350.2v-37.7H296.6v37.7H427.4z"/>
		</g>
	</g>
</g>
<g transform="matrix( 0.6443023681640625, 0, 0, 0.446990966796875, -181.2,495.9) ">
	<g>
		<g id="Layer5_710_MEMBER_1_FILL">
			<path fill="#010101" d="M413.6-1070v-37.7H282.8v37.7H413.6z"/>
		</g>
	</g>
</g>
<g transform="matrix( 1.05303955078125, 0, 0, 1.05303955078125, -586.15,-15.15) ">
	<g>
		<g id="Layer5_710_MEMBER_2_FILL">
			<path fill="#CB2026" d="M561.9,27.3c1.2,1.2,2.6,1.8,4.3,1.8h63c1.7,0,3.1-0.6,4.3-1.8c1.2-1.2,1.8-2.6,1.8-4.2
				c0-1.7-0.6-3.1-1.8-4.2c-1.2-1.2-2.6-1.8-4.3-1.8h-63c-1.7,0-3.1,0.6-4.3,1.8c-1.2,1.2-1.7,2.6-1.8,4.2
				C560.1,24.8,560.7,26.2,561.9,27.3z"/>
		</g>
	</g>
	<g transform="matrix( 0.9496307373046875, 0, 0, 0.9496307373046875, 556.65,14.4) ">
		<path id="Layer5_710_MEMBER_2_1_STROKES" fill="none" stroke="#FFFFFF" stroke-width="1.5" stroke-miterlimit="10" d="M566.1,17.1
			h63c1.7,0,3.1,0.6,4.2,1.8c1.2,1.2,1.8,2.6,1.8,4.3c0,1.7-0.6,3.1-1.8,4.2c-1.2,1.2-2.6,1.8-4.2,1.8h-63c-1.7,0-3.1-0.6-4.3-1.8
			c-1.2-1.2-1.8-2.6-1.8-4.2c0-1.7,0.6-3.1,1.8-4.3C563.1,17.7,564.5,17.1,566.1,17.1z"/>
	</g>
</g>
<g transform="matrix( 1, 0, 0, 1, 0,0) ">
	<g>
		<g id="Layer5_710_MEMBER_3_FILL">
			<path fill="#010101" d="M83.2,41.5L72,24.7L60.9,41.5H83.2 M80.6,40.1H63.5L72,27.3L80.6,40.1 M74,31.5l-4.8,3.7l3.6,0l-4,3.4h0
				l6.7-4.1h-4L74,31.5z"/>
		</g>
	</g>
</g>
<g transform="matrix( 1, 0, 0, 1, 0,0) ">
	<g>
		<g id="Layer5_710_MEMBER_4_FILL">
			<path fill="#FFFFFF" d="M58,7.5V6h-5.8v7h5.9v-1.6h-3.8v-1.4h3.4V8.7h-3.4V7.5H58 M49.3,6.2c-0.4-0.2-1-0.3-1.8-0.3
				c-0.8,0-1.4,0.1-1.9,0.3c-0.6,0.3-1.1,0.8-1.4,1.3c-0.3,0.6-0.4,1.2-0.4,2c0,0.7,0.1,1.4,0.4,1.9c0.3,0.5,0.7,1,1.3,1.3
				c0.5,0.3,1.2,0.4,2,0.4c0.7,0,1.3-0.1,1.8-0.2c0.5-0.2,1.1-0.5,1.7-0.9V9h-3.4v1.4H49v0.7c-0.3,0.2-0.5,0.3-0.8,0.4
				c-0.2,0-0.5,0-0.8,0c-0.5,0-0.8-0.2-1.1-0.5c-0.3-0.3-0.4-0.8-0.4-1.6c0-0.7,0.1-1.3,0.4-1.6c0.3-0.3,0.7-0.5,1.1-0.5
				c0.3,0,0.5,0,0.8,0.2c0.2,0.2,0.4,0.4,0.5,0.6l2.1-0.3c-0.1-0.4-0.3-0.8-0.6-1.1C50,6.5,49.7,6.3,49.3,6.2 M64.4,6.2
				C64.1,6.1,63.6,6,63,6h-3.7v7h2.2v-2.8h0.2c0.2,0,0.4,0,0.6,0.1c0.1,0.1,0.2,0.3,0.4,0.5l1.1,2.2h2.5L65.1,11
				c0-0.1-0.1-0.2-0.3-0.4c-0.1-0.2-0.3-0.3-0.4-0.4c-0.1-0.1-0.3-0.2-0.6-0.3c0.3-0.1,0.6-0.2,0.8-0.3C65,9.5,65.2,9.3,65.4,9
				c0.2-0.3,0.3-0.6,0.3-1c0-0.5-0.1-0.8-0.4-1.1C65.1,6.5,64.8,6.3,64.4,6.2 M61.5,7.5h0.9c0.4,0,0.7,0,0.9,0.1
				c0.2,0.2,0.3,0.3,0.3,0.5c0,0.2-0.1,0.3-0.2,0.5c-0.1,0.1-0.1,0.2-0.3,0.2c-0.3,0.1-0.5,0.1-0.6,0.1h-0.9V7.5 M38,13V9.2l2.6,3.9
				h2V6h-2v3.9L37.9,6h-2v7H38 M29.8,13l0.3-1.2h2.5L33,13h2.3l-2.6-7h-2.4l-2.6,7H29.8 M31.4,7.9l0.8,2.5h-1.5L31.4,7.9 M25.5,6.3
				C25.1,6.1,24.6,6,24,6h-3.2v7H24c0.4,0,0.8-0.1,1.3-0.2c0.4-0.1,0.7-0.3,1-0.5c0.3-0.3,0.5-0.6,0.8-1.1c0.2-0.4,0.3-1,0.3-1.7
				c0-0.5-0.1-1-0.2-1.4c-0.1-0.4-0.3-0.8-0.5-1.1C26.2,6.7,25.9,6.5,25.5,6.3 M22.9,7.6h0.5c0.6,0,1,0.2,1.2,0.5
				C24.9,8.3,25,8.8,25,9.5c0,0.6,0,1-0.1,1.3c-0.1,0.2-0.3,0.4-0.4,0.5c-0.2,0.1-0.6,0.2-1.1,0.2h-0.5V7.6z"/>
		</g>
	</g>
</g>
<g transform="matrix( 1, 0, 0, 1, 0,0) ">
	<g>
		<g id="Layer5_710_MEMBER_5_FILL">
			<path fill="#010101" d="M55.7,35.8v-1.5h-5.8v7h5.9v-1.5h-3.7v-1.4h3.4V37h-3.4v-1.1H55.7 M42,35.9c-0.3,0.6-0.5,1.2-0.5,2
				c0,0.7,0.1,1.3,0.4,1.9c0.3,0.5,0.7,1,1.2,1.3c0.5,0.3,1.2,0.4,2,0.4c0.7,0,1.3-0.1,1.8-0.2c0.5-0.2,1.1-0.5,1.7-0.8v-3h-3.4v1.5
				h1.5v0.6c-0.3,0.2-0.5,0.3-0.8,0.4c-0.3,0.1-0.5,0.1-0.8,0.1c-0.5,0-0.8-0.2-1.1-0.5c-0.3-0.3-0.5-0.9-0.5-1.6
				c0-0.7,0.1-1.2,0.5-1.5c0.3-0.3,0.6-0.5,1-0.5c0.3,0,0.6,0.1,0.8,0.2c0.2,0.1,0.3,0.3,0.4,0.6l2.1-0.4c-0.2-0.4-0.4-0.8-0.6-1
				c-0.3-0.3-0.6-0.5-0.9-0.7c-0.4-0.1-1-0.2-1.8-0.2c-0.8,0-1.4,0.1-1.9,0.3C42.7,34.9,42.3,35.3,42,35.9 M22.8,34.4h-2.2v7h5.5
				v-1.7h-3.4V34.4 M38.5,34.4h-2.4l-2.7,7h2.3l0.4-1.2h2.4l0.3,1.2h2.3L38.5,34.4 M37.3,36.2l0.8,2.5h-1.6L37.3,36.2 M26.6,36.1
				h2.2v5.3H31v-5.3h2.2v-1.7h-6.5V36.1 M27.2,23.8H25v7h2.2V23.8 M39.1,26.3v-2.5h-2.2v7h2.2V28h2.4v2.9h2.1v-7h-2.1v2.5H39.1
				 M31.1,25.7c0.3-0.3,0.6-0.5,1.1-0.5c0.3,0,0.6,0.1,0.8,0.3c0.2,0.1,0.4,0.3,0.4,0.6l2.1-0.4c-0.1-0.4-0.3-0.8-0.6-1.1
				c-0.2-0.3-0.5-0.5-0.9-0.6c-0.4-0.2-1-0.3-1.8-0.3c-0.8,0-1.4,0.1-1.9,0.4c-0.6,0.3-1.1,0.7-1.4,1.3c-0.3,0.6-0.5,1.2-0.5,2
				c0,0.7,0.1,1.4,0.4,1.9c0.3,0.6,0.7,1,1.2,1.3c0.5,0.3,1.2,0.5,2,0.5c0.7,0,1.3-0.1,1.8-0.2c0.5-0.2,1.1-0.5,1.7-0.9v-3h-3.4v1.5
				h1.5v0.6c-0.3,0.2-0.5,0.3-0.8,0.4c-0.2,0.1-0.5,0.1-0.8,0.1c-0.5,0-0.9-0.1-1.1-0.5c-0.3-0.3-0.4-0.9-0.4-1.6
				C30.7,26.6,30.8,26.1,31.1,25.7 M15.8,34.3c-1.1,0-2,0.3-2.6,0.9c-0.7,0.6-1,1.5-1,2.7c0,0.8,0.2,1.5,0.5,2
				c0.3,0.6,0.8,1,1.3,1.3c0.5,0.2,1.1,0.3,2,0.3c0.8,0,1.5-0.1,2-0.4c0.5-0.3,0.9-0.7,1.1-1.2c0.3-0.5,0.4-1.2,0.4-2
				c0-1.2-0.3-2.1-0.9-2.7C17.8,34.6,16.9,34.3,15.8,34.3 M14.7,36.4c0.3-0.3,0.7-0.5,1.1-0.5c0.5,0,0.8,0.2,1.1,0.5
				c0.2,0.3,0.4,0.7,0.4,1.4c0,0.8-0.1,1.3-0.4,1.6c-0.2,0.3-0.6,0.5-1.1,0.5c-0.5,0-0.8-0.2-1.1-0.5c-0.2-0.3-0.3-0.8-0.3-1.5
				C14.4,37.1,14.5,36.6,14.7,36.4 M6.4,34.4H4.2l2.7,7h2.3l2.6-7H9.6l-1.6,5L6.4,34.4 M19,23.8h-2.1v7H19V28h2.4v2.9h2.1v-7h-2.1
				v2.5H19V23.8z"/>
		</g>
	</g>
</g>
</svg>
