<?xml version="1.0" encoding="utf-8"?>
<!-- Generator: Adobe Illustrator 18.0.0, SVG Export Plug-In . SVG Version: 6.00 Build 0)  -->
<!DOCTYPE svg PUBLIC "-//W3C//DTD SVG 1.1//EN" "http://www.w3.org/Graphics/SVG/1.1/DTD/svg11.dtd">
<svg version="1.1" id="Layer_1" xmlns="http://www.w3.org/2000/svg" xmlns:xlink="http://www.w3.org/1999/xlink" x="0px" y="0px"
	 viewBox="0 0 450 450" enable-background="new 0 0 450 450" xml:space="preserve">
<g transform="matrix( 0.5235748291015625, 0, 0, 0.586517333984375, -68.1,22.8) ">
	<g>
		<g id="Layer5_378_MEMBER_0_FILL">
			<path fill="#DFE6EC" d="M754,72.8V-39H366.2V72.8C366.2,72.8,754,72.8,754,72.8z"/>
		</g>
	</g>
</g>
<g transform="matrix( 1, 0, 0, 1, 0,0) ">
	<g>
		<g id="Layer5_378_MEMBER_1_FILL">
			
				<radialGradient id="SVGID_1_" cx="-225.4008" cy="359.301" r="2.4572" gradientTransform="matrix(2.0961 2.0961 -2.0961 2.0961 1359.3931 -247.7128)" gradientUnits="userSpaceOnUse">
				<stop  offset="0" style="stop-color:#A5A39C"/>
				<stop  offset="1" style="stop-color:#34342F"/>
			</radialGradient>
			<path fill="url(#SVGID_1_)" d="M133.8,25.8c-2.1,0-3.9,0.6-5,2.1c-1.5,1.5-2.4,3-2.4,5.3c0,2.1,0.9,3.9,2.4,4.7
				c1.2,1.5,3,2.4,5,2.4c2.1,0,3.9-0.9,5.3-2.4c1.2-1.2,2.1-3,2.1-4.7c0-2.1-0.6-3.9-2.1-5.3C137.7,26.4,135.9,25.8,133.8,25.8
				 M133.8,31.1l0.6-0.6c0.3-0.3,0.9-0.6,1.2-0.6c0.3,0,0.6,0,0.9,0.3l0,0c0.3,0.3,0.6,0.6,0.6,0.9s-0.3,0.6-0.6,1.2l-0.6,0.6
				l0.6,0.9c0.3,0.3,0.6,0.6,0.6,0.9s-0.3,0.3-0.6,0.6c-0.3,0.6-0.3,0.9-0.9,0.9c-0.3,0-0.9,0-1.2-0.6l-0.6-0.6l-0.6,0.6
				c-0.3,0.6-0.9,0.9-1.2,0.9c-0.3,0-0.6,0-0.9-0.6v-0.3c-0.3-0.3-0.6-0.3-0.6-0.6c0-0.3,0.3-0.9,0.6-0.9l0.6-0.9l-0.6-0.6
				c-0.3-0.6-0.6-0.9-0.6-1.2c0,0,0.3-0.3,0.6-0.9c0.3-0.3,0.6-0.6,0.9-0.6c0.3,0,0.6,0,1.2,0.3L133.8,31.1z"/>
			<path fill="#010101" d="M134.4,30.5l-0.6,0.6l-0.6-0.9c-0.3-0.3-0.9-0.3-1.2-0.3c-0.3,0-0.6,0.3-0.9,0.6
				c-0.3,0.3-0.6,0.6-0.6,0.9s0.3,0.6,0.6,1.2l0.6,0.6l-0.6,0.9c-0.3,0.3-0.6,0.6-0.6,0.9s0.3,0.3,0.6,0.6l0,0
				c0.3,0.3,0.6,0.6,0.9,0.6c0.3,0,0.6-0.3,1.2-0.9l0.6-0.6l0.6,0.9c0.3,0.3,0.9,0.6,1.2,0.6c0.3,0,0.6-0.3,0.9-0.9
				c0.3-0.3,0.6-0.3,0.6-0.6c0-0.6-0.3-0.9-0.6-0.9l-0.6-0.9l0.6-0.6c0.3-0.6,0.6-0.9,0.6-1.2s-0.3-0.6-0.6-0.9l0,0
				c-0.3-0.3-0.3-0.3-0.9-0.3C135,29.9,134.7,30.2,134.4,30.5z"/>
		</g>
	</g>
</g>
<g transform="matrix( 1, 0, 0, 1, 0,0) ">
	<g>
		<g id="Layer5_378_MEMBER_2_FILL">
			
				<radialGradient id="SVGID_2_" cx="-225.3977" cy="359.301" r="2.4557" gradientTransform="matrix(2.0961 2.0961 -2.0961 2.0961 1541.557 -247.7128)" gradientUnits="userSpaceOnUse">
				<stop  offset="0" style="stop-color:#A5A39C"/>
				<stop  offset="1" style="stop-color:#34342F"/>
			</radialGradient>
			<path fill="url(#SVGID_2_)" d="M308.7,32.9c0,2.1,0.6,3.9,2.1,4.7c1.5,1.5,3.3,2.4,5,2.4c2.1,0,3.9-0.9,5.3-2.4
				c1.5-1.2,2.1-3,2.1-4.7c0-2.1-0.6-3.9-2.1-5.3c-1.5-1.5-3.3-2.1-5.3-2.1c-1.8,0-3.6,0.6-5,2.1C309.6,29.3,308.7,31.1,308.7,32.9
				 M314.4,29.9c0.6,0,0.9,0,1.2,0.3l0.3,0.6l0.9-0.9c0.3-0.3,0.6-0.3,0.9-0.3c0.3,0,0.6,0,1.2,0.3c0.3,0.3,0.3,0.6,0.3,0.9
				s0,0.6-0.3,0.9l-0.9,0.6l0.9,0.9c0.3,0.3,0.3,0.6,0.3,1.2c0,0,0,0.3-0.3,0.6c-0.3,0.6-0.9,0.9-1.2,0.9c-0.3,0-0.6,0-0.9-0.6
				l-0.9-0.9l-0.3,1.2c-0.3,0.3-0.6,0.6-1.2,0.6c-0.3,0-0.6-0.3-0.9-0.9c-0.3-0.3-0.3-0.3-0.3-0.6c0-0.6,0-0.9,0.3-1.2l0.9-0.9
				l-0.9-0.6c-0.3-0.6-0.3-0.9-0.3-0.9c0-0.3,0-0.6,0.3-0.9C313.8,29.9,314.1,29.9,314.4,29.9z"/>
			<path fill="#010101" d="M315.6,30.5c-0.3-0.3-0.6-0.6-1.2-0.3c-0.3,0-0.6,0-0.9,0.3c-0.3,0.3-0.3,0.6-0.3,0.9s0,0.6,0.3,0.9
				l0.9,0.6l-0.9,0.9c-0.3,0.3-0.3,0.6-0.3,1.2c0,0,0,0.3,0.3,0.6c0.3,0.6,0.6,0.9,0.9,0.9c0.6,0,0.9,0,1.2-0.6l0.3-0.9l0.9,0.9
				c0.3,0.3,0.6,0.6,0.9,0.6c0.3,0,0.6-0.3,1.2-0.9c0.3-0.3,0.3-0.3,0.3-0.6c0-0.6,0-0.9-0.3-1.2l-0.9-0.9l0.9-0.6
				c0.3-0.6,0.3-0.9,0.3-0.9c0-0.3,0-0.6-0.3-0.9c-0.3-0.3-0.9-0.3-1.2-0.3c-0.3,0-0.6,0-0.9,0.3l-0.9,0.9L315.6,30.5z"/>
		</g>
	</g>
</g>
<g transform="matrix( 0.4074554443359375, 0, 0, 0.4074554443359375, -87.7,35.5) ">
	<g>
		<g id="Layer5_600_FILL">
			<path fill="#232324" d="M1136.2,176.8c0-22.2-8-41.2-23.7-57.2c-15.7-15.7-34.7-23.7-56.9-23.7H478.7c-22.2,0-41.2,8-57.2,23.7
				c-15.7,15.7-23.4,35-23.4,57.2v576.9c0,22.2,8,41.2,23.4,56.9c15.7,15.7,35,23.7,57.2,23.7h576.9c22.2,0,41.2-8,56.9-23.7
				c15.7-15.7,23.7-34.7,23.7-56.9V176.8z"/>
		</g>
	</g>
</g>
<g transform="matrix( 0.4074554443359375, 0, 0, 0.4074554443359375, -87.7,35.5) ">
	<g>
		<g id="Layer5_601_FILL">
			<path fill="#010101" d="M1126.8,465.2c0-99.3-35-184.1-105.2-254.3s-155-105.5-254.3-105.5s-183.8,35.3-254.3,105.5
				c-70.3,70.3-105.5,155-105.5,254.3s35,184.1,105.5,254.3c70.3,70.3,155,105.5,254.3,105.5s184.1-35.3,254.3-105.5
				C1091.8,649,1126.8,564.2,1126.8,465.2z"/>
		</g>
	</g>
</g>
<g transform="matrix( 0.4074554443359375, 0, 0, 0.4074554443359375, -87.7,35.5) ">
	<g>
		<g id="Layer5_602_FILL">
			<path fill="#E8E3DD" d="M1108.4,465.2c0-94.3-33.2-174.6-99.9-241.3S861.4,124,767.2,124s-174.6,33.2-241.3,99.9
				S426,371,426,465.2s33.2,174.6,99.9,241.3s147,99.9,241.3,99.9s174.6-33.2,241.3-99.9C1075.2,639.5,1108.4,559.2,1108.4,465.2z"
				/>
		</g>
	</g>
</g>
<g transform="matrix( 1, 0, 0, 1, 0,0) ">
	<g>
		<g id="Layer5_603_FILL">
			
				<radialGradient id="SVGID_3_" cx="-359.0749" cy="260.5832" r="3.9125" gradientTransform="matrix(2.9644 0 0 2.9644 1170.6521 -670.6016)" gradientUnits="userSpaceOnUse">
				<stop  offset="0" style="stop-color:#505050"/>
				<stop  offset="1" style="stop-color:#010101"/>
			</radialGradient>
			<path fill="url(#SVGID_3_)" d="M98,93.7c-2.4,2.4-3.3,5-3.3,8.3c0,3.3,1.2,5.9,3.3,8.3c2.4,2.1,5,3.3,8.3,3.3s5.9-1.2,8.3-3.3
				c2.4-2.4,3.3-5,3.3-8.3s-1.2-5.9-3.3-8.3c-2.1-2.4-4.7-3.6-8.3-3.6C103,90.1,100.3,91.3,98,93.7 M100.3,102
				c0-0.6,0.3-1.2,0.9-1.5c0.3-0.6,0.9-0.9,1.5-0.9h1.5v-1.5c0-0.6,0.3-1.2,0.6-1.5c0.3-0.3,0.9-0.6,1.5-0.6c0.9,0,1.2,0.3,1.5,0.6
				c0.6,0.3,0.9,0.9,0.9,1.5v1.5h1.5c0.6,0,1.2,0.3,1.5,0.9c0.3,0.3,0.6,0.9,0.6,1.5s-0.3,1.2-0.6,1.8c-0.3,0.3-0.9,0.6-1.5,0.6
				h-1.5v1.5c0,0.6-0.3,1.2-0.9,1.5c-0.3,0.3-0.6,0.6-1.5,0.6c-0.6,0-1.2-0.3-1.5-0.6c-0.6-0.6-0.6-0.9-0.6-1.8v-1.5h-1.8
				c-0.6,0-1.2-0.3-1.5-0.6C100.6,103.2,100.3,102.6,100.3,102z"/>
			<path fill="#010101" d="M101.2,100.5c-0.6,0.3-0.9,0.9-0.9,1.5s0.3,1.2,0.9,1.8c0.3,0.3,0.9,0.6,1.5,0.6h1.5v1.5
				c0,0.6,0.3,1.2,0.6,1.5c0.3,0.3,0.9,0.6,1.5,0.6c0.9,0,1.2-0.3,1.5-0.6c0.6-0.3,0.9-0.9,0.9-1.5v-1.5h1.5c0.6,0,1.2-0.3,1.5-0.6
				c0.3-0.6,0.6-0.9,0.6-1.8c0-0.6-0.3-1.2-0.6-1.5c-0.3-0.6-0.9-0.9-1.5-0.9h-1.5v-1.5c0-0.6-0.3-1.2-0.9-1.5
				c-0.3-0.3-0.6-0.6-1.5-0.6c-0.6,0-1.2,0.3-1.5,0.6c-0.6,0.3-0.6,0.9-0.6,1.5v1.5h-1.8C101.8,99.6,101.5,99.9,101.2,100.5z"/>
		</g>
	</g>
</g>
<g transform="matrix( 1, 0, 0, 1, 0,0) ">
	<g>
		<g id="Layer5_604_FILL">
			
				<radialGradient id="SVGID_4_" cx="-359.0749" cy="260.5832" r="3.9125" gradientTransform="matrix(2.9644 0 0 2.9644 1413.1422 -670.6016)" gradientUnits="userSpaceOnUse">
				<stop  offset="0" style="stop-color:#505050"/>
				<stop  offset="1" style="stop-color:#010101"/>
			</radialGradient>
			<path fill="url(#SVGID_4_)" d="M340.5,93.7c-2.4,2.4-3.6,5-3.6,8.3c0,3.3,1.2,5.9,3.6,8.3c2.1,2.1,4.7,3.3,8.3,3.3
				c3.3,0,5.9-1.2,8-3.3c2.4-2.4,3.3-5,3.3-8.3s-1.2-5.9-3.3-8.3c-2.1-2.4-4.7-3.6-8-3.6C345.2,90.1,342.5,91.3,340.5,93.7
				 M343.4,100.5c0.3-0.6,0.9-0.9,1.5-0.9h1.8v-1.5c0-0.6,0.3-1.2,0.6-1.5c0.3-0.3,0.9-0.6,1.5-0.6c0.6,0,1.2,0.3,1.5,0.6
				c0.3,0.3,0.6,0.9,0.6,1.5v1.5h1.5c0.6,0,1.2,0.3,1.5,0.9c0.3,0.3,0.6,0.9,0.6,1.5s-0.3,1.2-0.6,1.8c-0.3,0.3-0.9,0.6-1.5,0.6
				h-1.5v1.5c0,0.6-0.3,1.2-0.6,1.5c-0.3,0.3-0.9,0.6-1.5,0.6c-0.6,0-1.2-0.3-1.5-0.6c-0.3-0.3-0.6-0.9-0.6-1.5v-1.5h-1.8
				c-0.6,0-0.9-0.3-1.5-0.6c-0.3-0.6-0.6-0.9-0.6-1.8C342.8,101.1,342.8,100.8,343.4,100.5z"/>
			<path fill="#010101" d="M344.6,99.6c-0.6,0-0.9,0.3-1.5,0.9c-0.3,0.3-0.6,0.9-0.6,1.5s0.3,1.2,0.6,1.8c0.3,0.3,0.9,0.6,1.5,0.6
				h1.8v1.5c0,0.6,0.3,1.2,0.6,1.5s0.9,0.6,1.5,0.6c0.6,0,1.2-0.3,1.5-0.6c0.3-0.3,0.6-0.9,0.6-1.5v-1.5h1.5c0.6,0,1.2-0.3,1.5-0.6
				c0.3-0.6,0.6-0.9,0.6-1.8c0-0.6-0.3-1.2-0.6-1.5c-0.3-0.6-0.9-0.9-1.5-0.9h-1.5v-1.5c0-0.6-0.3-1.2-0.6-1.5
				c-0.3-0.3-0.9-0.6-1.5-0.6c-0.6,0-1.2,0.3-1.5,0.6c-0.3,0.3-0.6,0.9-0.6,1.5v1.5H344.6z"/>
		</g>
	</g>
</g>
<g transform="matrix( 1, 0, 0, 1, 0,0) ">
	<g>
		<g id="Layer5_605_FILL">
			
				<radialGradient id="SVGID_5_" cx="-359.0749" cy="260.5832" r="3.9125" gradientTransform="matrix(2.9644 0 0 2.9644 1413.1422 -423.0721)" gradientUnits="userSpaceOnUse">
				<stop  offset="0" style="stop-color:#505050"/>
				<stop  offset="1" style="stop-color:#010101"/>
			</radialGradient>
			<path fill="url(#SVGID_5_)" d="M360,349.5c0-3.3-1.2-5.9-3.3-8.3c-2.1-2.1-4.7-3.3-8-3.3s-5.9,1.2-8.3,3.3
				c-2.4,2.4-3.6,5.3-3.6,8.3s1.2,5.9,3.6,8.3s5,3.6,8.3,3.6s5.9-1.2,8-3.6C358.8,355.1,360,352.5,360,349.5 M350.8,345.7v1.5h1.5
				c0.6,0,1.2,0.3,1.5,0.9c0.3,0.3,0.6,0.9,0.6,1.5s-0.3,1.2-0.6,1.5c-0.3,0.3-0.9,0.6-1.5,0.6h-1.5v1.8c0,0.6-0.3,1.2-0.6,1.5
				c-0.3,0.3-0.9,0.6-1.2,0.6h-0.3c-0.6,0-1.2-0.3-1.5-0.6c-0.3-0.3-0.6-0.9-0.6-1.5v-1.8h-1.5c-0.6,0-1.2-0.3-1.5-0.6
				c-0.3-0.3-0.6-0.9-0.6-1.5s0.3-1.2,0.6-1.5c0.3-0.6,0.9-0.9,1.5-0.9h1.5v-1.5c0-0.6,0.3-0.9,0.6-1.5c0.3-0.3,0.9-0.6,1.5-0.6h0.3
				c0.6,0,0.9,0.3,1.2,0.6C350.5,344.5,350.8,345.1,350.8,345.7z"/>
			<path fill="#010101" d="M350.8,347.1v-1.5c0-0.6-0.3-0.9-0.6-1.5c-0.3-0.3-0.9-0.6-1.2-0.6h-0.3c-0.6,0-1.2,0.3-1.5,0.6
				c-0.3,0.6-0.6,0.9-0.6,1.5v1.5h-1.5c-0.6,0-1.2,0.3-1.5,0.9c-0.3,0.3-0.6,0.9-0.6,1.5s0.3,1.2,0.6,1.5c0.3,0.3,0.9,0.6,1.5,0.6
				h1.5v1.8c0,0.6,0.3,1.2,0.6,1.5c0.3,0.3,0.9,0.6,1.5,0.6h0.3c0.6,0,0.9-0.3,1.2-0.6c0.3-0.3,0.6-0.9,0.6-1.5v-1.8h1.5
				c0.6,0,1.2-0.3,1.5-0.6c0.3-0.3,0.6-0.9,0.6-1.5s-0.3-1.2-0.6-1.5c-0.3-0.6-0.9-0.9-1.5-0.9H350.8z"/>
		</g>
	</g>
</g>
<g transform="matrix( 1, 0, 0, 1, 0,0) ">
	<g>
		<g id="Layer5_606_FILL">
			
				<radialGradient id="SVGID_6_" cx="-359.0749" cy="260.5832" r="3.9125" gradientTransform="matrix(2.9644 0 0 2.9644 1166.3536 -423.3685)" gradientUnits="userSpaceOnUse">
				<stop  offset="0" style="stop-color:#505050"/>
				<stop  offset="1" style="stop-color:#010101"/>
			</radialGradient>
			<path fill="url(#SVGID_6_)" d="M113.7,349.2c0-3-1.2-5.6-3.9-8.3c-2.1-2.1-4.7-3.3-8.3-3.3c-3,0-5.6,1.2-8,3.3
				c-2.4,2.4-3.3,5.3-3.3,8.3c0,3.3,1.2,6.2,3.3,8.3c2.4,2.4,5,3.6,8,3.6c3.3,0,5.9-1.2,8.3-3.6
				C112.5,355.1,113.7,352.5,113.7,349.2 M107.8,349.2L107.8,349.2c0,0.9,0,1.5-0.3,1.8c-0.6,0.3-1.2,0.6-1.8,0.6h-1.5v1.5
				c0,0.6-0.3,1.2-0.6,1.8c-0.3,0.3-0.9,0.6-1.2,0.6h-0.6c-0.3,0-0.9-0.3-1.5-0.6c-0.3-0.3-0.3-0.9-0.3-1.8v-1.5h-1.8
				c-0.6,0-1.2-0.3-1.5-0.6s-0.6-0.9-0.6-1.5v-0.3c0-0.6,0.3-0.9,0.6-1.2c0.3-0.6,0.9-0.9,1.5-0.9h1.5v-1.5c0-0.6,0-0.9,0.3-1.5
				c0.6-0.3,1.2-0.6,1.5-0.6h0.6c0.6,0,0.9,0.3,1.2,0.6c0.3,0.6,0.6,0.9,0.6,1.5v1.5h1.5c0.6,0,1.2,0.3,1.8,0.9
				C107.8,348.3,107.8,348.6,107.8,349.2z"/>
			<path fill="#010101" d="M107.8,349.5L107.8,349.5c0-0.9,0-1.2-0.3-1.5c-0.6-0.6-1.2-0.9-1.8-0.9h-1.5v-1.5c0-0.6-0.3-0.9-0.6-1.5
				c-0.3-0.3-0.9-0.6-1.2-0.6h-0.6c-0.3,0-0.9,0.3-1.5,0.6c-0.3,0.6-0.3,0.9-0.3,1.5v1.5h-1.8c-0.6,0-1.2,0.3-1.5,0.9
				c-0.3,0.3-0.6,0.6-0.6,1.2v0.3c0,0.6,0.3,1.2,0.6,1.5s0.9,0.6,1.5,0.6h1.5v1.5c0,0.6,0,1.2,0.3,1.8c0.6,0.3,1.2,0.6,1.5,0.6h0.6
				c0.6,0,0.9-0.3,1.2-0.6c0.3-0.3,0.6-0.9,0.6-1.8v-1.5h1.5c0.6,0,1.2-0.3,1.8-0.6C107.8,350.4,107.8,350.1,107.8,349.5z"/>
		</g>
	</g>
</g>
<g transform="matrix( 1, 0, 0, 1, 0,0) ">
	<g>
		<g id="Layer5_607_FILL">
			<path fill="#CB2026" d="M219.8,88.3l5,23.7l5-23.7H219.8z"/>
		</g>
	</g>
</g>
<g transform="matrix( 1, 0, 0, 1, 0,0) ">
	<g>
		<g id="Layer5_608_FILL">
			<path fill="#16151A" d="M326.2,133.1l-15.1,19.3l21.6-11.3L326.2,133.1z"/>
		</g>
	</g>
</g>
<g transform="matrix( 1, 0, 0, 1, 0,0) ">
	<g>
		<g id="Layer5_609_FILL">
			<path fill="#16151A" d="M360.3,243.7l-24.3,0.9l22.5,8.9L360.3,243.7z"/>
		</g>
	</g>
</g>
<g transform="matrix( 1, 0, 0, 1, 0,0) ">
	<g>
		<g id="Layer5_610_FILL">
			<path fill="#16151A" d="M138,152.1l-15.1-19.3l-6.2,8L138,152.1z"/>
		</g>
	</g>
</g>
<g transform="matrix( 1, 0, 0, 1, 0,0) ">
	<g>
		<g id="Layer5_611_FILL">
			<path fill="#16151A" d="M90.6,253.5l22.5-8.9l-24.3-0.9L90.6,253.5z"/>
		</g>
	</g>
</g>
<g transform="matrix( 0.4058990478515625, 0.0355072021484375, -0.0355072021484375, 0.4058990478515625, -87,-21.8) ">
	<g>
		<g id="Layer5_612_FILL">
			<path fill="#010101" d="M812.7,208.8l0,48.3h3v-48.3H812.7z"/>
		</g>
	</g>
</g>
<g transform="matrix( 0.4012603759765625, 0.0707550048828125, -0.0707550048828125, 0.4012603759765625, -73.4,-64.6) ">
	<g>
		<g id="Layer5_613_FILL">
			<path fill="#010101" d="M841.8,244.7v48.6h3v-48.6H841.8z"/>
		</g>
	</g>
</g>
<g transform="matrix( 0.3935699462890625, 0.105438232421875, -0.105438232421875, 0.3935699462890625, -55.95,-106.15) ">
	<g>
		<g id="Layer5_614_FILL">
			<path fill="#010101" d="M874.7,277.2v48.3h3v-48.3H874.7z"/>
		</g>
	</g>
</g>
<g transform="matrix( 0.3828887939453125, 0.139373779296875, -0.139373779296875, 0.3828887939453125, -35.1,-145.9) ">
	<g>
		<g id="Layer5_615_FILL">
			<path fill="#010101" d="M909.8,308.1v48.3h3v-48.3H909.8z"/>
		</g>
	</g>
</g>
<g transform="matrix( 0.3528594970703125, 0.2037353515625, -0.2037353515625, 0.3528594970703125, 16.3,-219.05) ">
	<g>
		<g id="Layer5_616_FILL">
			<path fill="#010101" d="M986.2,360.7l0,48.6h3v-48.6H986.2z"/>
		</g>
	</g>
</g>
<g transform="matrix( 0.2881011962890625, 0.2881011962890625, -0.2881011962890625, 0.2881011962890625, 115.6,-309.6) ">
	<g>
		<g id="Layer5_617_FILL">
			<path fill="#010101" d="M1115.6,410.4V459h3v-48.6H1115.6z"/>
		</g>
	</g>
</g>
<g transform="matrix( 0.333770751953125, 0.23370361328125, -0.23370361328125, 0.333770751953125, 46.7,-252.4) ">
	<g>
		<g id="Layer5_618_FILL">
			<path fill="#010101" d="M1027,379.7V428h3v-48.3H1027z"/>
		</g>
	</g>
</g>
<g transform="matrix( 0.312103271484375, 0.2619171142578125, -0.2619171142578125, 0.3121185302734375, 80.05,-282.4) ">
	<g>
		<g id="Layer5_619_FILL">
			<path fill="#010101" d="M1071.3,397l0,48.3h3V397H1071.3z"/>
		</g>
	</g>
</g>
<g transform="matrix( 0.23370361328125, 0.333770751953125, -0.333770751953125, 0.23370361328125, 193.5,-354.35) ">
	<g>
		<g id="Layer5_620_FILL">
			<path fill="#010101" d="M1207.2,423.6v48.3h3v-48.3H1207.2z"/>
		</g>
	</g>
</g>
<g transform="matrix( 0.203704833984375, 0.35284423828125, -0.35284423828125, 0.2037353515625, 234.9,-371.4) ">
	<g>
		<g id="Layer5_621_FILL">
			<path fill="#010101" d="M1253.3,425v48.3h3V425H1253.3z"/>
		</g>
	</g>
</g>
<g transform="matrix( 0.1721954345703125, 0.3692474365234375, -0.3692474365234375, 0.1721954345703125, 277.75,-384.9) ">
	<g>
		<g id="Layer5_622_FILL">
			<path fill="#010101" d="M1299.2,421.7v48.6h3v-48.6H1299.2z"/>
		</g>
	</g>
</g>
<g transform="matrix( 0.1393585205078125, 0.3828277587890625, -0.3828582763671875, 0.1393585205078125, 321.55,-394.3) ">
	<g>
		<g id="Layer5_623_FILL">
			<path fill="#010101" d="M1345.7,415l0,48.3h3V415H1345.7z"/>
		</g>
	</g>
</g>
<g transform="matrix( 0.0707550048828125, 0.401214599609375, -0.401214599609375, 0.0707550048828125, 410.85,-401.85) ">
	<g>
		<g id="Layer5_624_FILL">
			<path fill="#010101" d="M1434.7,389.5v48.3h3v-48.3H1434.7z"/>
		</g>
	</g>
</g>
<g transform="matrix( 0.0355072021484375, 0.4058685302734375, -0.4058837890625, 0.0355072021484375, 455.85,-399.85) ">
	<g>
		<g id="Layer5_625_FILL">
			<path fill="#010101" d="M1477.2,369.8v48.3h3l0-48.3H1477.2z"/>
		</g>
	</g>
</g>
<g transform="matrix( 0.000030517578125, 0.407440185546875, -0.407440185546875, 0.000030517578125, 500.1,-394) ">
	<g>
		<g id="Layer5_626_FILL">
			<path fill="#010101" d="M1517.4,348.5v48.6h3l0-48.6H1517.4z"/>
		</g>
	</g>
</g>
<g transform="matrix( -0.0355072021484375, 0.4058837890625, -0.4058837890625, -0.0355072021484375, 544.05,-384.35) ">
	<g>
		<g id="Layer5_627_FILL">
			<path fill="#010101" d="M1555,322.2l0,48.3h3v-48.3H1555z"/>
		</g>
	</g>
</g>
<g transform="matrix( -0.105438232421875, 0.393524169921875, -0.393524169921875, -0.105438232421875, 628.2,-353.15) ">
	<g>
		<g id="Layer5_628_FILL">
			<path fill="#010101" d="M1626.1,261l0,48.6h3V261H1626.1z"/>
		</g>
	</g>
</g>
<g transform="matrix( -0.1393585205078125, 0.3828582763671875, -0.3828887939453125, -0.1393585205078125, 668,-332.5) ">
	<g>
		<g id="Layer5_629_FILL">
			<path fill="#010101" d="M1656,226.2v48.3h3l0-48.3H1656z"/>
		</g>
	</g>
</g>
<g transform="matrix( -0.1721954345703125, 0.3692626953125, -0.3692626953125, -0.1721954345703125, 705.85,-308.45) ">
	<g>
		<g id="Layer5_630_FILL">
			<path fill="#010101" d="M1682.5,188.9v48.3l3,0v-48.3H1682.5z"/>
		</g>
	</g>
</g>
<g transform="matrix( -0.2037353515625, 0.3528594970703125, -0.3528594970703125, -0.2037353515625, 741.3,-280.55) ">
	<g>
		<g id="Layer5_631_FILL">
			<path fill="#010101" d="M1708.9,148.5v48.6h3v-48.6H1708.9z"/>
		</g>
	</g>
</g>
<g transform="matrix( 0.4058990478515625, -0.0355072021484375, 0.0355072021484375, 0.4058990478515625, -102.6,66.15) ">
	<g>
		<g id="Layer5_632_FILL">
			<path fill="#010101" d="M765.7,128.1v48.6h3v-48.6C768.6,128.1,765.7,128.1,765.7,128.1z"/>
		</g>
	</g>
</g>
<g transform="matrix( 0.40130615234375, -0.0707550048828125, 0.0707550048828125, 0.40130615234375, -104.85,111.05) ">
	<g>
		<g id="Layer5_633_FILL">
			<path fill="#010101" d="M746.2,85.8v48.6h3V85.8L746.2,85.8z"/>
		</g>
	</g>
</g>
<g transform="matrix( 0.39361572265625, -0.10546875, 0.10546875, 0.39361572265625, -102.95,156) ">
	<g>
		<g id="Layer5_634_FILL">
			<path fill="#010101" d="M731.5,42.3v48.3h3V42.3L731.5,42.3z"/>
		</g>
	</g>
</g>
<g transform="matrix( 0.3829193115234375, -0.139373779296875, 0.139373779296875, 0.3829193115234375, -97.3,200.4) ">
	<g>
		<g id="Layer5_635_FILL">
			<path fill="#010101" d="M720.2-3.2l0,48.6l3,0l0-48.6L720.2-3.2z"/>
		</g>
	</g>
</g>
<g transform="matrix( 0.352874755859375, -0.2037506103515625, 0.2037506103515625, 0.352874755859375, -74.35,286.95) ">
	<g>
		<g id="Layer5_636_FILL">
			<path fill="#010101" d="M710.3-96.2l0,48.3l3,0l0-48.3H710.3z"/>
		</g>
	</g>
</g>
<g transform="matrix( 0.3337860107421875, -0.23370361328125, 0.23370361328125, 0.3337860107421875, -57.1,328.5) ">
	<g>
		<g id="Layer5_637_FILL">
			<path fill="#010101" d="M712-141.8v48.3h3l0-48.3H712z"/>
		</g>
	</g>
</g>
<g transform="matrix( 0.3121185302734375, -0.261932373046875, 0.261932373046875, 0.3121185302734375, -36.6,368.5) ">
	<g>
		<g id="Layer5_638_FILL">
			<path fill="#010101" d="M716-188l0,48.3h3l0-48.3L716-188z"/>
		</g>
	</g>
</g>
<g transform="matrix( 0.2881011962890625, -0.2881011962890625, 0.2881011962890625, 0.2881011962890625, -12.55,406.35) ">
	<g>
		<g id="Layer5_639_FILL">
			<path fill="#010101" d="M725.4-233.5v48.3h3v-48.3H725.4z"/>
		</g>
	</g>
</g>
<g transform="matrix( 0.23370361328125, -0.333770751953125, 0.333770751953125, 0.23370361328125, 44.9,475.1) ">
	<g>
		<g id="Layer5_640_FILL">
			<path fill="#010101" d="M755.5-321.5v48.3h3v-48.3H755.5z"/>
		</g>
	</g>
</g>
<g transform="matrix( 0.2037353515625, -0.35284423828125, 0.35284423828125, 0.2037353515625, 78.05,505.65) ">
	<g>
		<g id="Layer5_641_FILL">
			<path fill="#010101" d="M775.6-361.9l0,48.6h3l0-48.6H775.6z"/>
		</g>
	</g>
</g>
<g transform="matrix( 0.1721954345703125, -0.3692474365234375, 0.3692474365234375, 0.1721954345703125, 113.4,532.9) ">
	<g>
		<g id="Layer5_642_FILL">
			<path fill="#010101" d="M799.8-402.8v48.6h3v-48.6H799.8z"/>
		</g>
	</g>
</g>
<g transform="matrix( 0.1393585205078125, -0.3828277587890625, 0.3828277587890625, 0.1393585205078125, 151.15,557.45) ">
	<g>
		<g id="Layer5_643_FILL">
			<path fill="#010101" d="M825.6-439.7l0,48.3h3l0-48.3H825.6z"/>
		</g>
	</g>
</g>
<g transform="matrix( 0.0707550048828125, -0.401214599609375, 0.401214599609375, 0.0707550048828125, 232.5,595.5) ">
	<g>
		<g id="Layer5_644_FILL">
			<path fill="#010101" d="M890.2-506.2v48.6h3v-48.6L890.2-506.2z"/>
		</g>
	</g>
</g>
<g transform="matrix( 0.0355072021484375, -0.4058685302734375, 0.4058685302734375, 0.0355072021484375, 275.25,608.95) ">
	<g>
		<g id="Layer5_645_FILL">
			<path fill="#010101" d="M927.3-535.4v48.3h3v-48.3H927.3z"/>
		</g>
	</g>
</g>
<g transform="matrix( 0.000030517578125, -0.407440185546875, 0.407440185546875, 0.000030517578125, 318.95,618.95) ">
	<g>
		<g id="Layer5_646_FILL">
			<path fill="#010101" d="M965.1-561.3l0,48.3h3v-48.3H965.1z"/>
		</g>
	</g>
</g>
<g transform="matrix( -0.0355072021484375, -0.4058685302734375, 0.4058685302734375, -0.0355072021484375, 363.35,624.85) ">
	<g>
		<g id="Layer5_647_FILL">
			<path fill="#010101" d="M1006-584.4v48.3h3v-48.3H1006z"/>
		</g>
	</g>
</g>
<g transform="matrix( -0.105438232421875, -0.393524169921875, 0.393524169921875, -0.105438232421875, 453.1,625.05) ">
	<g>
		<g id="Layer5_648_FILL">
			<path fill="#010101" d="M1092.5-617.5v48.6h3v-48.6H1092.5z"/>
		</g>
	</g>
</g>
<g transform="matrix( -0.1393585205078125, -0.3828582763671875, 0.3828582763671875, -0.1393585205078125, 497.6,619.45) ">
	<g>
		<g id="Layer5_649_FILL">
			<path fill="#010101" d="M1137.3-628.7v48.3h3l0-48.3H1137.3z"/>
		</g>
	</g>
</g>
<g transform="matrix( -0.1721954345703125, -0.3692474365234375, 0.3692474365234375, -0.1721954345703125, 541.65,609.8) ">
	<g>
		<g id="Layer5_650_FILL">
			<path fill="#010101" d="M1182.8-635v48.6h3l0-48.6H1182.8z"/>
		</g>
	</g>
</g>
<g transform="matrix( -0.203704833984375, -0.35284423828125, 0.35284423828125, -0.203704833984375, 584.25,596.25) ">
	<g>
		<g id="Layer5_651_FILL">
			<path fill="#010101" d="M1230.4-638.7v48.3h3v-48.3H1230.4z"/>
		</g>
	</g>
</g>
<g transform="matrix( 0.6647491455078125, 0.3099822998046875, -0.1721954345703125, 0.369293212890625, -369.35,-335.8) ">
	<g>
		<g id="Layer5_652_FILL">
			<path fill="#010101" d="M1055.7,301.9l0,48.6h3v-48.6H1055.7z"/>
		</g>
	</g>
</g>
<g transform="matrix( 0.1898193359375, 0.7084197998046875, -0.3935699462890625, 0.105438232421875, 252.3,-772.35) ">
	<g>
		<g id="Layer5_653_FILL">
			<path fill="#010101" d="M1302.5,370v48.3h3V370H1302.5z"/>
		</g>
	</g>
</g>
<g transform="matrix( -0.4206695556640625, 0.600738525390625, -0.3337860107421875, -0.23370361328125, 986.45,-576.75) ">
	<g>
		<g id="Layer5_654_FILL">
			<path fill="#010101" d="M1490.2,72.8v48.3h3V72.8H1490.2z"/>
		</g>
	</g>
</g>
<g transform="matrix( 0.6647491455078125, -0.3099822998046875, 0.1721954345703125, 0.369293212890625, -434.45,420.95) ">
	<g>
		<g id="Layer5_655_FILL">
			<path fill="#010101" d="M926.4-82.9v46.5v2.1h3v-48.6L926.4-82.9L926.4-82.9z"/>
		</g>
	</g>
</g>
<g transform="matrix( 0.1898193359375, -0.7084197998046875, 0.3935699462890625, 0.105438232421875, 103.65,957.5) ">
	<g>
		<g id="Layer5_656_FILL">
			<path fill="#010101" d="M1006.2-507.2v46.2v2.1h3l0-48.3H1006.2z"/>
		</g>
	</g>
</g>
<g transform="matrix( -0.4206695556640625, -0.600738525390625, 0.3337860107421875, -0.23370361328125, 860.2,890.4) ">
	<g>
		<g id="Layer5_657_FILL">
			<path fill="#010101" d="M1238.2-671.5v46.5v2.1h3v-48.6H1238.2z"/>
		</g>
	</g>
</g>
<g transform="matrix( 0.4527130126953125, 0, 0, 0.4527130126953125, -139.55,23.85) ">
	<g>
		<g id="Layer5_658_FILL">
			<path fill="#010101" d="M592,621.7c0-1.2-0.3-2.1-1.2-2.7c-0.9-0.9-1.8-1.2-2.7-1.2s-2.1,0.3-2.7,1.2c-0.9,0.9-1.2,1.8-1.2,2.7
				c0,1.2,0.3,2.1,1.2,3c0.9,0.9,1.8,1.2,2.7,1.2s2.1-0.3,2.7-1.2C591.7,623.7,592,622.9,592,621.7z"/>
		</g>
	</g>
</g>
<g transform="matrix( 1, 0, 0, 1, 0,0) ">
	<g>
		<g id="Layer5_659_FILL">
			<path fill="#010101" d="M149.6,268.6l-0.3,6.8h1.5c0.3-0.3,0.3-0.6,0.6-0.6c0.3-0.3,0.3-0.3,0.3-0.3c0.3,0,0.6,0,0.9,0.3
				c0,0.3,0.3,0.6,0.3,0.9v3c0,0.3,0,0.6-0.3,0.9c-0.3,0.3-0.3,0.6-0.9,0.6c-0.3,0-0.6-0.3-0.6-0.6c-0.3-0.3-0.6-0.6-0.6-1.2v-0.6
				H149v0.3c0,1.2,0.3,1.8,0.6,2.7c0.3,0.6,1.2,0.9,1.8,0.9c0.6,0,1.5-0.3,2.1-0.9c0.6-0.6,0.9-1.2,0.9-2.1v-3.6
				c0-0.9-0.3-1.5-0.6-2.1c-0.3-0.3-0.9-0.3-1.5-0.3c-0.3,0-0.6,0-0.9,0c-0.3,0-0.6,0.3-0.9,0.6l0.3-2.7h3.3v-2.1L149.6,268.6
				 M142.4,268.6v6.8h1.5c0-0.3,0.3-0.6,0.3-0.6c0.3-0.3,0.6-0.3,0.9-0.3c0.3,0,0.6,0,0.6,0.3c0,0.3,0,0.6,0,0.9v3
				c0,0.3,0,0.6,0,0.9c-0.3,0.3-0.3,0.6-0.6,0.6c-0.6,0-0.9-0.3-0.9-0.6c-0.3-0.3-0.3-0.6-0.3-1.2v-0.6h-1.8v0.3
				c0,1.2,0.3,1.8,0.9,2.7c0.3,0.6,1.2,0.9,1.8,0.9c0.9,0,1.5-0.3,2.1-0.9c0.6-0.6,0.9-1.2,0.9-2.1v-3.6c0-0.9-0.3-1.5-0.3-2.1
				c-0.6,0-1.2-0.3-1.8-0.3c-0.3,0-0.6,0-0.9,0c-0.3,0-0.6,0.3-0.9,0.6v-2.7h3.6v-2.1H142.4z"/>
		</g>
	</g>
</g>
<g transform="matrix( 1, 0, 0, 1, 0,0) ">
	<g>
		<g id="Layer5_660_FILL">
			<path fill="#010101" d="M131.8,231.2h-7.4l-0.3,10.1l2.7,0.3c0-0.6,0.3-0.9,0.6-1.2c0.3-0.3,0.6-0.3,0.6-0.3c0.6,0,0.9,0,1.2,0.3
				c0.3,0.3,0.3,0.9,0.3,1.2v5c0,0.6,0,1.2-0.3,1.2c-0.3,0.3-0.6,0.6-1.2,0.6c-0.3,0-0.9-0.3-1.2-0.6c-0.3-0.6-0.3-1.2-0.3-1.8v-0.9
				h-3v0.9c0,1.8,0.3,3,1.2,3.9c0.6,0.9,1.5,1.5,3,1.5s2.7-0.3,3.3-1.2c0.6-0.9,1.2-2.1,1.2-3.6v-5.3c0-1.2-0.3-2.1-0.9-2.7
				c-0.6-0.9-1.2-1.2-2.4-1.2c-0.3,0-0.9,0-1.5,0.3c-0.3,0.3-0.9,0.6-1.2,1.2v-4.7h5v-3 M140.1,233.9c0.3,0.3,0.6,0.9,0.6,1.2v1.2h3
				v-0.6c0-1.5-0.6-2.7-1.5-3.9c-0.9-0.9-1.8-1.5-3.3-1.5c-1.2,0-2.4,0.6-3.3,1.5c-0.9,0.9-1.2,2.1-1.2,3.6v10.1
				c0,1.8,0.3,3.3,1.2,4.2c0.9,0.9,1.8,1.5,3.3,1.5s2.7-0.6,3.3-1.5c0.9-0.9,1.5-2.4,1.5-4.2v-3.3c0-1.2-0.3-2.1-1.2-3
				c-0.6-0.6-1.2-0.9-2.4-0.9c-0.3,0-0.9,0-1.5,0.3c-0.3,0.3-0.9,0.6-1.2,0.9v-4.7c0-0.3,0.3-0.6,0.6-1.2c0.3-0.3,0.6-0.3,0.9-0.3
				C139.5,233.6,139.8,233.9,140.1,233.9 M140.1,241.9c0.3,0.3,0.3,0.6,0.3,1.2v3.9c0,0.6-0.3,1.2-0.6,1.2c-0.3,0.3-0.6,0.6-1.2,0.6
				c-0.3,0-0.6-0.3-0.9-0.6c-0.3-0.6-0.6-0.9-0.6-1.2v-4.2c0.3-0.3,0.3-0.6,0.9-0.9c0.3-0.3,0.6-0.6,1.2-0.6
				C139.5,241.3,139.8,241.3,140.1,241.9z"/>
		</g>
	</g>
</g>
<g transform="matrix( 0.4074554443359375, 0, 0, 0.4074554443359375, -89.8,34.3) ">
	<g>
		<g id="Layer5_661_FILL">
			<path fill="#46474D" d="M706.1,404c-18.1,18.1-27,39.7-27,65.2c0,25.5,8.9,47.1,27,65.2c18.1,18.1,39.7,27,64.9,27
				c25.5,0,47.1-8.9,65.2-27c18.1-18.1,27-39.7,27-65.2s-8.9-47.1-27-65.2c-18.1-18.1-39.7-27-65.2-27
				C745.8,377,724.1,385.9,706.1,404z"/>
		</g>
	</g>
</g>
<g transform="matrix( 1, 0, 0, 1, 0,0) ">
	<g>
		<g id="Layer5_662_FILL">
			<path fill="#010101" d="M157,157.7c-0.9,0.9-1.2,2.4-1.2,3.9c0,1.2,0.3,2.1,0.3,2.7c0.3,0.6,0.6,1.2,1.5,1.8
				c-0.9,0.3-1.5,0.9-1.8,1.8c-0.3,0.9-0.3,1.8-0.3,3.3c0,1.8,0.3,3.3,1.2,4.2c0.9,1.2,1.8,1.8,3.3,1.8s2.7-0.6,3.3-1.8
				c0.6-0.9,1.2-2.4,1.2-4.2c0-1.5-0.3-2.4-0.6-3.3c-0.3-0.9-0.6-1.5-1.2-1.8c0.6-0.6,1.2-0.9,1.2-1.8s0.3-1.8,0.3-3
				c0-1.5-0.3-2.7-1.2-3.9c-0.6-0.9-1.5-1.2-3-1.2C158.4,156.5,157.6,156.8,157,157.7 M158.4,161.6c0-0.9,0-1.8,0.3-2.4
				c0.3-0.3,0.6-0.6,1.2-0.6s0.9,0.3,1.2,0.6c0.3,0.6,0.3,1.2,0.3,2.4s0,1.8-0.3,2.4c-0.3,0.6-0.6,0.9-1.2,0.9s-0.9-0.3-1.2-0.9
				C158.7,163.3,158.4,162.7,158.4,161.6 M161.1,168.4c0.3,0.6,0.3,1.5,0.3,2.7s0,2.1-0.3,2.4c-0.3,0.6-0.6,0.9-1.2,0.9
				s-0.9-0.3-1.2-0.9c-0.3-0.6-0.3-1.5-0.3-2.7s0-1.8,0.3-2.4c0.3-0.6,0.6-0.9,1.2-0.9S161.1,167.8,161.1,168.4 M148.7,166
				c0.3-0.3,0.6-0.3,0.9-0.3c0.6,0,0.9,0,1.2,0.3c0.3,0.3,0.3,0.6,0.3,1.2v5c0,0.6-0.3,0.9-0.6,1.2c-0.3,0.6-0.6,0.9-0.9,0.9
				c-0.6,0-0.9-0.3-1.2-0.9c-0.3-0.3-0.3-0.9-0.3-1.5V171h-2.7v0.6c0,1.8,0.3,3,0.9,3.9c0.9,0.9,1.8,1.5,3,1.5
				c1.5,0,2.4-0.6,3.3-1.2c0.9-0.9,1.2-2.1,1.2-3.6v-5c0-1.5-0.3-2.4-0.9-3c-0.6-0.9-1.2-1.2-2.1-1.2c-0.3,0-0.9,0-1.5,0.3
				c-0.3,0.3-0.9,0.6-1.2,0.9v-4.7h5.3v-3h-7.7v10.7h2.4C148.1,166.6,148.4,166.3,148.7,166z"/>
		</g>
	</g>
</g>
<g transform="matrix( 1, 0, 0, 1, 0,0) ">
	<g>
		<g id="Layer5_663_FILL">
			<path fill="#010101" d="M216.6,122.7c-0.9,0.9-1.2,2.1-1.2,3.6v10.1c0,1.8,0.3,3,0.9,3.9c0.9,0.9,2.1,1.5,3.3,1.5
				c1.5,0,2.7-0.6,3.6-1.5c0.9-0.9,1.2-2.4,1.2-3.9v-3.3c0-1.2-0.3-2.1-0.9-2.7c-0.6-0.9-1.2-1.2-2.4-1.2c-0.6,0-0.9,0-1.5,0.3
				c-0.3,0.3-0.9,0.9-1.5,1.2v-5c0-0.3,0.3-0.9,0.6-0.9c0.3-0.3,0.6-0.3,0.9-0.3c0.6,0,0.9,0,1.2,0.3c0.3,0.3,0.6,0.6,0.6,1.2v1.5h3
				v-0.6c0-1.5-0.3-2.7-1.2-3.9c-0.9-0.9-2.1-1.5-3.6-1.5C218.3,121.2,217.4,121.5,216.6,122.7 M219.8,131.6c0.6,0,0.9,0.3,1.2,0.6
				c0.3,0.3,0.3,0.6,0.3,1.2v3.9c0,0.6-0.3,1.2-0.6,1.5c-0.3,0.3-0.6,0.3-1.2,0.3c-0.3,0-0.6,0-0.9-0.3c-0.3-0.6-0.6-0.9-0.6-1.5
				v-4.2c0.3-0.3,0.6-0.6,0.9-0.9C219.5,131.9,219.8,131.6,219.8,131.6 M227.8,122.7c-0.9,0.9-1.5,2.1-1.5,3.6v10.1
				c0,1.8,0.3,3,1.5,3.9c0.6,0.9,1.8,1.5,3.3,1.5s2.4-0.6,3.3-1.5c0.6-0.9,1.2-2.4,1.2-3.9v-10.1c0-1.5-0.3-2.7-1.2-3.9
				c-0.9-0.9-2.1-1.5-3.3-1.5C229.6,121.2,228.4,121.5,227.8,122.7 M229.3,125.4c0-0.3,0.3-0.9,0.3-0.9c0.3-0.3,0.9-0.3,1.5-0.3
				c0.3,0,0.9,0,1.2,0.3c0.3,0.3,0.3,0.6,0.3,1.2v11.6c0,0.6,0,1.2-0.3,1.5c-0.3,0.3-0.6,0.3-1.2,0.3c-0.6,0-1.2,0-1.5-0.3
				c-0.3-0.6-0.3-0.9-0.3-1.5V125.4z"/>
		</g>
	</g>
</g>
<g transform="matrix( 1, 0, 0, 1, 0,0) ">
	<g>
		<g id="Layer5_664_FILL">
			<path fill="#010101" d="M299.6,159.8c0,0.3,0,0.9,0,1.8c0,1.2-0.6,3-1.5,5s-2.7,4.4-4.4,7.1v3h8.6v-3h-5.3
				c2.4-3.3,3.9-5.9,4.7-7.7c0.6-1.8,1.2-3.3,1.2-4.7s-0.3-2.7-1.2-3.6s-2.1-1.2-3.3-1.2c-1.5,0-2.7,0.6-3,1.5
				c-0.9,0.9-1.5,2.4-1.5,4.2v0.6h3v-0.9c0-0.9,0.3-1.5,0.6-2.1c0.3-0.3,0.6-0.6,0.9-0.6C298.7,159.2,299.3,159.2,299.6,159.8
				 M291.6,161.3c0-1.5-0.3-2.7-1.2-3.9c-0.9-0.9-1.8-1.2-3.3-1.2s-2.7,0.3-3.3,1.2c-0.9,0.9-1.2,2.1-1.2,3.6v10.4
				c0,1.8,0.3,3.3,1.2,3.9c0.9,0.9,2.1,1.5,3.6,1.5c1.5,0,2.7-0.6,3.3-1.5c0.9-0.9,1.2-2.4,1.2-3.9v-3.3c0-1.2-0.3-2.4-0.9-3
				c-0.6-0.6-1.5-0.9-2.4-0.9c-0.6,0-0.9,0-1.5,0.3c-0.6,0.3-0.9,0.6-1.2,0.9v-5c0-0.3,0-0.9,0.3-0.9c0.3-0.3,0.6-0.6,1.2-0.6
				c0.3,0,0.6,0,1.2,0.6c0.3,0.3,0.3,0.9,0.3,1.2v1.2h3v-0.6 M285.6,172.2v-3.9c0-0.6,0.3-0.9,0.6-1.2c0.3,0,0.9,0,1.2,0
				c0.3,0,0.9,0,1.2,0.3c0.3,0.3,0.3,0.6,0.3,1.2v3.9c0,0.6,0,0.9-0.3,1.2c-0.3,0.3-0.6,0.6-1.2,0.6s-0.9-0.3-1.2-0.6
				C285.9,173.1,285.6,172.8,285.6,172.2z"/>
		</g>
	</g>
</g>
<g transform="matrix( 1, 0, 0, 1, 0,0) ">
	<g>
		<g id="Layer5_665_FILL">
			<path fill="#010101" d="M306.4,232.1c-0.9,0.9-1.2,2.1-1.2,3.6v10.1c0,1.8,0.3,3.3,1.2,4.2s2.1,1.5,3.6,1.5s2.4-0.6,3.3-1.5
				c0.9-0.9,1.2-2.4,1.2-4.2v-3.3c0-1.2-0.3-2.1-0.9-3c-0.6-0.6-1.5-0.9-2.4-0.9c-0.6,0-1.2,0-1.5,0.3c-0.3,0.3-0.9,0.6-1.5,0.9
				v-4.7c0-0.3,0.3-0.6,0.6-1.2c0.3-0.3,0.6-0.3,1.2-0.3c0.3,0,0.6,0,1.2,0.3c0.3,0.3,0.3,0.9,0.3,1.2v1.2h3v-0.6
				c0-1.5-0.3-2.7-1.2-3.9c-0.9-0.9-1.8-1.5-3.3-1.5C308.4,230.9,307.3,231.2,306.4,232.1 M310.8,241.9c0.3,0.3,0.3,0.6,0.3,1.2v3.9
				c0,0.6,0,1.2-0.3,1.2c-0.3,0.3-0.6,0.6-1.2,0.6c-0.6,0-0.9-0.3-1.2-0.6c-0.3-0.6-0.6-0.9-0.6-1.2v-4.2c0.3-0.3,0.6-0.6,0.9-0.9
				c0.3-0.3,0.6-0.6,0.9-0.6C310.2,241.3,310.5,241.3,310.8,241.9 M323.9,231.2h-2.7l-5.3,12.2v2.7h5.3v4.7h2.7V246h1.8v-2.7h-1.8
				V231.2 M320.9,243.4h-2.7l2.7-7.1V243.4z"/>
		</g>
	</g>
</g>
<g transform="matrix( 1, 0, 0, 1, 0,0) ">
	<g>
		<g id="Layer5_666_FILL">
			<path fill="#010101" d="M292.1,269.2c-0.6,0.6-0.6,1.2-0.9,2.4v6.5c0,1.2,0.3,2.1,0.9,2.7c0.6,0.6,1.2,0.9,2.4,0.9
				c0.9,0,1.5-0.3,2.4-0.9c0.6-0.6,0.9-1.5,0.9-2.7v-2.4c0-0.6-0.3-1.2-0.6-1.5c-0.3-0.6-0.9-0.9-1.5-0.9c-0.3,0-0.9,0-1.2,0.3
				c-0.3,0-0.6,0.3-0.9,0.6v-3.3c0,0,0-0.3,0.3-0.3c0-0.3,0.3-0.3,0.9-0.3c0.3,0,0.6,0,0.9,0.3c0.3,0.3,0.3,0.3,0.3,0.6v0.9h1.8
				v-0.6c0-0.9-0.3-1.8-0.9-2.4c-0.6-0.6-1.5-0.9-2.4-0.9C293.3,268.3,292.7,268.6,292.1,269.2 M293.6,275.4
				c0.3-0.3,0.6-0.3,0.9-0.3s0.6,0,0.9,0.3c0.3,0.3,0.3,0.6,0.3,0.9v2.4c0,0.3,0,0.6-0.3,0.9c-0.3,0.3-0.6,0.3-0.9,0.3
				c-0.3,0-0.6-0.3-0.9-0.3c0-0.3-0.3-0.6-0.3-0.9V276C293.6,275.7,293.6,275.7,293.6,275.4 M304,270.7v-2.1h-4.7l-0.3,6.8h1.5
				c0-0.3,0.3-0.6,0.6-0.6c0.3-0.3,0.3-0.3,0.6-0.3s0.3,0,0.6,0.3c0,0.3,0.3,0.6,0.3,0.9v3c0,0.3,0,0.6-0.3,0.9
				c-0.3,0.3-0.6,0.6-0.6,0.6c-0.3,0-0.6-0.3-0.9-0.6c-0.3-0.3-0.3-0.6-0.3-1.2v-0.6H299v0.3c0,1.2,0.3,1.8,0.6,2.7
				c0.3,0.6,1.2,0.9,2.1,0.9c0.9,0,1.5-0.3,2.1-0.9c0.3-0.6,0.6-1.2,0.6-2.1v-3.6c0-0.9,0-1.5-0.3-2.1c-0.6,0-1.2-0.3-1.8-0.3
				c-0.3,0-0.6,0-0.9,0c-0.3,0-0.6,0.3-1.2,0.6l0.3-2.7H304L304,270.7z"/>
		</g>
	</g>
</g>
<g transform="matrix( 0.5235748291015625, 0, 0, 0.586517333984375, -68,152.45) ">
	<g>
		<g id="Layer5_670_MEMBER_0_FILL">
			<path fill="#DFE6EC" d="M754.4,507V395.3H366.6V507C366.6,507,754.4,507,754.4,507z"/>
		</g>
	</g>
</g>
<g transform="matrix( 1, 0, 0, 1, 0,0) ">
	<g>
		<g id="Layer5_670_MEMBER_1_FILL">
			
				<radialGradient id="SVGID_7_" cx="-225.4008" cy="359.301" r="2.4572" gradientTransform="matrix(2.0961 2.0961 -2.0961 2.0961 1361.4681 137.0698)" gradientUnits="userSpaceOnUse">
				<stop  offset="0" style="stop-color:#A5A39C"/>
				<stop  offset="1" style="stop-color:#34342F"/>
			</radialGradient>
			<path fill="url(#SVGID_7_)" d="M141.3,412.6c-1.5-1.2-3.3-1.8-5.3-1.8s-3.6,0.6-4.7,1.8c-1.5,1.5-2.4,3.3-2.4,5.3
				c0,2.1,0.9,3.9,2.4,5.3c1.2,1.5,3,2.1,4.7,2.1c2.1,0,3.9-0.6,5.3-2.1c1.2-1.5,2.1-3,2.1-5C143,415.9,142.4,414.1,141.3,412.6
				 M137.7,414.7c0.3,0,0.6,0,0.9,0.3v0.3c0.3,0.3,0.6,0.6,0.6,0.9c0,0.3-0.3,0.6-0.6,0.9l-0.9,0.9l0.9,0.9c0.3,0.3,0.6,0.3,0.6,0.9
				c0,0.6-0.3,0.6-0.6,0.9c-0.3,0.3-0.3,0.6-0.9,0.6c-0.3,0-0.9,0-1.2-0.3l-0.9-0.9l-0.3,0.9c-0.3,0.3-0.9,0.6-1.2,0.6
				s-0.6,0-0.9-0.3v-0.3c-0.3-0.3-0.6-0.6-0.6-0.9c0-0.3,0.3-0.6,0.6-0.9l0.6-0.9l-0.6-0.9c-0.3-0.3-0.6-0.6-0.6-0.9
				c0-0.3,0.3-0.6,0.6-0.9c0.3-0.3,0.6-0.3,0.9-0.3c0.3,0,0.6,0,1.2,0.3l0.3,0.9l0.9-0.9C137.1,415,137.4,415,137.7,414.7z"/>
			<path fill="#010101" d="M138.6,415c-0.3,0-0.3-0.3-0.9-0.3c-0.3,0-0.9,0.3-1.2,0.3l-0.9,0.9l-0.3-0.9c-0.3,0-0.9-0.3-1.2-0.3
				c-0.3,0-0.6,0.3-0.9,0.3c-0.3,0.3-0.6,0.6-0.6,0.9c0,0.3,0.3,0.6,0.6,0.9l0.6,0.9l-0.6,0.9c-0.3,0.3-0.6,0.3-0.6,0.9
				s0.3,0.6,0.6,0.9v0.3c0.3,0.3,0.6,0.3,0.9,0.3c0.3,0,0.6-0.3,1.2-0.6l0.3-0.9l0.9,0.9c0.3,0.3,0.9,0.3,1.2,0.3
				c0.3,0,0.6-0.3,0.9-0.6c0.3-0.3,0.6-0.6,0.6-0.9c0-0.3-0.3-0.6-0.6-0.9l-0.9-0.9l0.9-0.9c0.3-0.3,0.6-0.6,0.6-0.9
				C139.2,415.3,138.9,415.3,138.6,415L138.6,415z"/>
		</g>
	</g>
</g>
<g transform="matrix( 1, 0, 0, 1, 0,0) ">
	<g>
		<g id="Layer5_670_MEMBER_2_FILL">
			
				<radialGradient id="SVGID_8_" cx="-225.3973" cy="359.301" r="2.4554" gradientTransform="matrix(2.0961 2.0961 -2.0961 2.0961 1540.0748 137.0698)" gradientUnits="userSpaceOnUse">
				<stop  offset="0" style="stop-color:#A5A39C"/>
				<stop  offset="1" style="stop-color:#34342F"/>
			</radialGradient>
			<path fill="url(#SVGID_8_)" d="M319.7,423c1.5-1.5,2.1-3.3,2.1-5.3c0-1.8-0.6-3.6-2.1-5.3c-1.2-1.2-3-1.8-5.3-1.8
				c-1.8,0-3.6,0.6-5,1.8c-1.5,1.5-2.1,3.3-2.1,5.3c0,2.1,0.6,3.9,2.1,5.3c1.5,1.5,3.3,2.1,5,2.1C316.7,425.1,318.2,424.2,319.7,423
				 M317.6,416.2c0,0.3,0,0.6-0.3,0.9l-0.9,0.9l0.9,0.9c0.3,0.3,0.3,0.6,0.3,0.9s0,0.6-0.3,0.9c-0.3,0.3-0.9,0.6-1.2,0.6
				s-0.6,0-0.9-0.3l-0.9-0.9l-0.6,0.9c-0.3,0.3-0.6,0.3-0.9,0.3c-0.3,0-0.6-0.3-1.2-0.6c0-0.3-0.3-0.6-0.3-0.9s0-0.6,0.3-0.9
				l0.9-0.9l-0.9-0.6c0-0.3-0.3-0.6-0.3-1.2c0-0.3,0-0.6,0.3-0.9c0.3-0.3,0.9-0.3,1.2-0.3c0.6,0,0.9,0,0.9,0.3l0.6,0.6l0.9-0.9
				c0.3,0,0.6,0,0.9,0c0.3,0,0.6,0,1.2,0.3C317.6,415.6,317.6,415.9,317.6,416.2z"/>
			<path fill="#010101" d="M317.3,417.1c0.3-0.3,0.3-0.6,0.3-0.9c0-0.3,0-0.6-0.3-0.9c-0.3-0.3-0.9-0.3-1.2-0.3s-0.6,0-0.9,0
				l-0.9,0.9l-0.6-0.6c-0.3-0.3-0.6-0.3-0.9-0.3c-0.3,0-0.6,0-1.2,0.3c0,0.3-0.3,0.6-0.3,0.9c0,0.3,0,0.9,0.3,1.2l0.9,0.6l-0.9,0.9
				c0,0.3-0.3,0.6-0.3,0.9c0,0.3,0,0.6,0.3,0.9c0.3,0.3,0.9,0.6,1.2,0.6c0.6,0,0.9,0,0.9-0.3l0.6-0.9l0.9,0.9
				c0.3,0.3,0.6,0.3,0.9,0.3c0.3,0,0.6-0.3,1.2-0.6c0.3-0.3,0.3-0.6,0.3-0.9c0-0.3,0-0.6-0.3-0.9l-0.9-0.9L317.3,417.1z"/>
		</g>
	</g>
</g>
<text transform="matrix(1 0 0 1 151.1285 27.7903)"><tspan x="0" y="0" font-family="'MSReferenceSansSerif'" font-size="24">FREQUENCY </tspan><tspan x="36.6" y="28.8" font-family="'MSReferenceSansSerif'" font-size="24">METER</tspan></text>
<text transform="matrix(1 0 0 1 165.2065 414.7233)"><tspan x="0" y="0" font-family="'MSReferenceSansSerif'" font-size="16">480V GROUND</tspan><tspan x="-17.2" y="19.2" font-family="'MSReferenceSansSerif'" font-size="16">DETECTOR LIGHTS</tspan></text>
</svg>
