<?xml version="1.0" encoding="utf-8"?>
<!-- Generator: Adobe Illustrator 18.0.0, SVG Export Plug-In . SVG Version: 6.00 Build 0)  -->
<!DOCTYPE svg PUBLIC "-//W3C//DTD SVG 1.1//EN" "http://www.w3.org/Graphics/SVG/1.1/DTD/svg11.dtd">
<svg version="1.1" id="Layer_1" xmlns="http://www.w3.org/2000/svg" xmlns:xlink="http://www.w3.org/1999/xlink" x="0px" y="0px"
	 viewBox="0 0 450 450" enable-background="new 0 0 450 450" xml:space="preserve">
<g transform="matrix( 0.523223876953125, 0, 0, 0.586090087890625, -107.5,363.15) ">
	<g>
		<g id="Layer5_740_MEMBER_0_FILL_1_">
			<path fill="#DFE6EC" d="M986.3-95.5v-96.9H650.2v96.9H986.3z"/>
		</g>
	</g>
</g>
<g transform="matrix( 0.5235748291015625, 0, 0, 0.69146728515625, -68,263.6) ">
	<g>
		<g id="Layer5_739_MEMBER_0_FILL">
			<path fill="#DFE6EC" d="M742.2-284.2v-96.9H406.2v96.9H742.2z"/>
		</g>
	</g>
</g>
<g transform="matrix( 1, 0, 0, 1, 0,0) ">
	<g>
		<g id="Layer5_739_MEMBER_1_FILL">
			
				<radialGradient id="SVGID_1_" cx="-383.4752" cy="165.1338" r="2.4572" gradientTransform="matrix(1.8183 1.8183 -1.8183 1.8183 1152.4209 430.4425)" gradientUnits="userSpaceOnUse">
				<stop  offset="0" style="stop-color:#A5A39C"/>
				<stop  offset="1" style="stop-color:#34342F"/>
			</radialGradient>
			<path fill="url(#SVGID_1_)" d="M150.6,29.1c-1.3,1.3-2.1,2.8-2.1,4.6s0.8,3.3,2.1,4.6c1,1.3,2.6,1.8,4.1,1.8
				c1.8,0,3.3-0.5,4.6-1.8c1-1.3,1.8-2.6,1.8-4.4s-0.5-3.3-1.8-4.6c-1.3-1-2.8-1.5-4.6-1.5C153.1,27.3,151.8,27.8,150.6,29.1
				 M153.6,30.9c0.3,0,0.5,0,1,0l0.3,1l0.8-0.8c0.3-0.3,0.8-0.3,1-0.3c0.3,0,0.5,0,0.8,0v0.3c0.3,0.3,0.5,0.5,0.5,0.8
				c0,0.3-0.3,0.5-0.5,0.8l-1,0.8l0.8,0.8c0.3,0.3,0.5,0.5,0.5,0.8c0,0.3-0.3,0.5-0.5,1c-0.3,0.3-0.3,0.3-0.8,0.3
				c-0.3,0-0.8,0-1-0.3l-0.8-0.8l-0.3,0.8c-0.3,0.3-0.8,0.3-1,0.3c-0.3,0-0.5,0-0.8-0.3l0,0c-0.3-0.3-0.5-0.8-0.5-1s0.3-0.5,0.5-0.8
				l0.5-0.8l-0.3-0.5c-0.3-0.3-0.5-0.5-0.5-0.8c0-0.3,0.3-0.5,0.5-0.8C153.1,31.1,153.4,30.9,153.6,30.9z"/>
			<path fill="#010101" d="M154.4,31.1c-0.3,0-0.8,0-1,0s-0.5,0.3-0.8,0.3c-0.3,0.3-0.5,0.5-0.5,0.8c0,0.3,0.3,0.5,0.5,0.8l0.5,0.8
				l-0.3,0.5c-0.3,0.3-0.5,0.5-0.5,0.8c0,0.3,0.3,0.5,0.5,1l0,0c0.3,0.3,0.5,0.3,0.8,0.3s0.5,0,1-0.3l0.3-0.8l0.5,0.8
				c0.3,0.3,0.8,0.3,1,0.3c0.3,0,0.5,0,0.8-0.3s0.5-0.8,0.5-1s-0.3-0.5-0.5-0.8l-0.8-0.8l0.8-0.8c0.3-0.3,0.5-0.5,0.5-0.8
				c0-0.3-0.3-0.5-0.5-0.8v-0.3c-0.3,0-0.3,0-0.8,0c-0.3,0-0.8,0.3-1,0.3l-0.8,0.8L154.4,31.1z"/>
		</g>
	</g>
</g>
<g transform="matrix( 1, 0, 0, 1, 0,0) ">
	<g>
		<g id="Layer5_739_MEMBER_2_FILL">
			
				<radialGradient id="SVGID_2_" cx="-383.4734" cy="165.1338" r="2.4563" gradientTransform="matrix(1.8183 1.8183 -1.8183 1.8183 1307.3495 430.4425)" gradientUnits="userSpaceOnUse">
				<stop  offset="0" style="stop-color:#A5A39C"/>
				<stop  offset="1" style="stop-color:#34342F"/>
			</radialGradient>
			<path fill="url(#SVGID_2_)" d="M305.4,38.1c1.3,1.3,2.8,1.8,4.4,1.8c1.8,0,3.3-0.5,4.6-1.8c1.3-1.3,1.8-2.6,1.8-4.6
				c0-1.5-0.5-3.1-1.8-4.6c-1-1-2.6-1.5-4.6-1.5c-1.5,0-3.1,0.5-4.4,1.5c-1.3,1.3-1.8,2.8-1.8,4.6S304.3,36.8,305.4,38.1
				 M309.7,31.9l0.8-0.8c0.3,0,0.5,0,0.8,0s0.5,0,1,0.3c0.3,0.3,0.3,0.5,0.3,0.8c0,0.3,0,0.5-0.3,0.8l-0.8,0.8l0.8,0.8
				c0.3,0.3,0.3,0.5,0.3,0.8s0,0.5-0.3,0.8c-0.3,0.3-0.8,0.3-1,0.3s-0.5,0-0.8-0.3l-0.8-0.8l-0.5,0.8c-0.3,0.3-0.5,0.3-0.8,0.3
				c-0.3,0-0.5,0-1-0.3c0-0.3-0.3-0.5-0.3-0.8s0-0.5,0.3-0.8l0.8-0.8l-0.8-0.5c0-0.3-0.3-0.5-0.3-1c0-0.3,0-0.5,0.3-0.8
				c0.3-0.3,0.8-0.3,1-0.3c0.5,0,0.8,0,0.8,0.3L309.7,31.9z"/>
			<path fill="#010101" d="M310.5,31.1l-0.8,0.8l-0.5-0.5c-0.3-0.3-0.5-0.3-0.8-0.3c-0.3,0-0.5,0-1,0.3c0,0.3-0.3,0.5-0.3,0.8
				c0,0.3,0,0.8,0.3,1l0.8,0.5l-0.8,0.8c0,0.3-0.3,0.5-0.3,0.8s0,0.5,0.3,0.8c0.3,0.3,0.8,0.3,1,0.3c0.5,0,0.8,0,0.8-0.3l0.5-0.8
				l0.8,0.8c0.3,0.3,0.5,0.3,0.8,0.3s0.5,0,1-0.3c0.3-0.3,0.3-0.5,0.3-0.8s0-0.5-0.3-0.8l-0.8-0.8l0.8-0.8c0.3-0.3,0.3-0.5,0.3-0.8
				c0-0.3,0-0.5-0.3-0.8c-0.3-0.3-0.8-0.3-1-0.3C311,30.9,310.8,30.9,310.5,31.1z"/>
		</g>
	</g>
</g>
<g transform="matrix( 0.523223876953125, 0, 0, 0.586090087890625, -107.5,363.15) ">
	<g>
		<g id="Layer5_740_MEMBER_0_FILL">
			<path fill="#DFE6EC" d="M622.5-96.8v-96.9H286.4v96.9H622.5z"/>
		</g>
	</g>
</g>
<g transform="matrix( 1, 0, 0, 1, 0,0) ">
	<g>
		<g id="Layer5_740_MEMBER_1_FILL">
			
				<radialGradient id="SVGID_3_" cx="-383.4752" cy="165.1338" r="2.4749" gradientTransform="matrix(1.8183 1.8183 -1.8183 1.8183 1206.8066 674.7282)" gradientUnits="userSpaceOnUse">
				<stop  offset="0" style="stop-color:#A5A39C"/>
				<stop  offset="1" style="stop-color:#34342F"/>
			</radialGradient>
			<path fill="url(#SVGID_3_)" d="M213.8,282.3c1-1,1.5-2.6,1.5-4.6c0-1.5-0.5-2.8-1.5-4.1c-1.3-1.3-2.6-1.8-4.6-1.8
				c-1.8,0-3.1,0.5-4.4,1.8s-1.8,2.6-1.8,4.1c0,1.8,0.5,3.3,1.8,4.6s2.6,2.1,4.4,2.1C211,284.4,212.5,283.6,213.8,282.3
				 M211.5,275.7c0.3,0.5,0.5,0.8,0.5,1s-0.3,0.5-0.5,0.8l-0.5,0.3l0.5,1c0.3,0.3,0.5,0.5,0.5,0.8s-0.3,0.5-0.5,0.8
				c-0.3,0.3-0.3,0.5-0.8,0.5c-0.3,0-0.8,0-1-0.3l-0.8-0.8l-0.8,0.8c0,0.3-0.3,0.3-1,0.3c-0.3,0-0.5-0.3-0.8-0.5
				c-0.3-0.3-0.3-0.5-0.3-0.8c0-0.3,0-0.5,0.3-0.8l0.5-1l-0.5-0.3c-0.3-0.3-0.3-0.5-0.3-0.8c0-0.3,0-0.5,0.3-1
				c0.3-0.3,0.5-0.3,0.8,0c0.5,0,0.8,0,1,0l0.8,0.8l0.8-0.8c0.3-0.3,0.5-0.3,1,0C211,275.4,211.2,275.4,211.5,275.7z"/>
			<path fill="#010101" d="M212,276.7c0-0.3-0.3-0.5-0.5-1c-0.3,0-0.3,0-0.8,0c-0.3,0-0.8,0-1,0l-0.8,0.8l-0.8-0.8
				c0-0.3-0.3-0.3-1,0c-0.3,0-0.5,0-0.8,0c-0.3,0.5-0.3,0.8-0.3,1s0,0.5,0.3,0.8l0.5,0.3l-0.5,1c-0.3,0.3-0.3,0.5-0.3,0.8
				s0,0.5,0.3,0.8c0.3,0.3,0.5,0.5,0.8,0.5c0.5,0,0.8,0,1-0.3l0.8-0.8l0.8,0.8c0.3,0.3,0.5,0.3,1,0.3c0.3,0,0.5-0.3,0.8-0.5
				c0.3-0.3,0.5-0.5,0.5-0.8c0-0.3-0.3-0.5-0.5-0.8l-0.5-1l0.5-0.3C211.8,276.9,212,276.7,212,276.7z"/>
		</g>
	</g>
</g>
<g transform="matrix( 1, 0, 0, 1, 0,0) ">
	<g>
		<g id="Layer5_740_MEMBER_2_FILL">
			
				<radialGradient id="SVGID_4_" cx="-383.4752" cy="165.1338" r="2.4749" gradientTransform="matrix(1.8183 1.8183 -1.8183 1.8183 1049.178 674.7282)" gradientUnits="userSpaceOnUse">
				<stop  offset="0" style="stop-color:#A5A39C"/>
				<stop  offset="1" style="stop-color:#34342F"/>
			</radialGradient>
			<path fill="url(#SVGID_4_)" d="M55.9,273.6c-1.3-1.3-2.6-1.8-4.4-1.8c-1.8,0-3.3,0.5-4.6,1.8c-1.3,1.3-1.8,2.6-1.8,4.1
				c0,1.8,0.5,3.3,1.8,4.6c1.3,1.3,2.6,2.1,4.6,2.1c1.8,0,3.1-0.8,4.4-2.1c1.3-1,1.8-2.6,1.8-4.4C57.7,276.2,57.2,274.9,55.9,273.6
				 M53.9,275.7c0.3,0.3,0.3,0.8,0.3,1s0,0.5-0.3,1h-0.8l0.8,1c0.3,0.3,0.3,0.5,0.3,0.8s0,0.5-0.3,0.8c-0.3,0.3-0.8,0.5-1,0.5
				c-0.3,0-0.5,0-0.8-0.3l-0.5-0.8l-0.8,0.5c0,0.3-0.3,0.5-0.5,0.5c-0.5,0-0.8,0-1-0.3v-0.3c-0.3-0.3-0.3-0.5-0.3-0.8s0-0.5,0.3-0.8
				l0.5-0.8l-0.5-0.5c-0.3-0.3-0.3-0.8-0.3-1s0-0.5,0.3-1c0.3,0,0.5-0.3,1-0.3c0.3,0,0.5,0,0.5,0.3l1,0.8l0.5-0.8
				c0.3,0,0.5-0.3,0.8-0.3C53.4,275.4,53.6,275.4,53.9,275.7z"/>
			<path fill="#010101" d="M54.1,276.4c0-0.3,0-0.5-0.3-1c-0.3-0.3-0.8-0.3-1-0.3c-0.3,0-0.5,0.3-0.8,0.3l-0.5,0.8l-1-0.8
				c0-0.3-0.3-0.3-0.5-0.3c-0.5,0-0.8,0.3-1,0.3c-0.3,0.5-0.3,0.8-0.3,1s0,0.5,0.3,1l0.5,0.5l-0.5,0.8c-0.3,0.3-0.3,0.5-0.3,0.8
				s0,0.5,0.3,0.8v0.3c0.3,0.3,0.5,0.3,1,0.3c0.3,0,0.5-0.3,0.5-0.5l1-0.8l0.5,0.8c0.3,0.3,0.5,0.3,0.8,0.3c0.3,0,0.8-0.3,1-0.5
				c0.3-0.3,0.3-0.5,0.3-0.8c0-0.3,0-0.5-0.3-0.8l-0.8-0.8l0.8-0.3C54.1,276.9,54.1,276.7,54.1,276.4z"/>
		</g>
	</g>
</g>
<g transform="matrix( 1, 0, 0, 1, 0,0) ">
	<g>
		<g id="Layer5_741_MEMBER_0_FILL">
			
				<radialGradient id="SVGID_5_" cx="-383.4752" cy="165.1333" r="2.4752" gradientTransform="matrix(1.8183 1.8183 -1.8183 1.8183 1395.5494 675.4996)" gradientUnits="userSpaceOnUse">
				<stop  offset="0" style="stop-color:#A5A39C"/>
				<stop  offset="1" style="stop-color:#34342F"/>
			</radialGradient>
			<path fill="url(#SVGID_5_)" d="M393.6,274.1c-1.3,1.3-1.8,2.8-1.8,4.4c0,1.8,0.5,3.3,1.8,4.4c1.3,1.5,2.6,2.3,4.4,2.3
				s3.3-0.8,4.6-2.3c1.3-1,1.8-2.6,1.8-4.4c0-1.5-0.5-3.1-1.8-4.4c-1.3-1.3-2.6-1.8-4.6-1.8C396.4,272.3,394.8,272.8,393.6,274.1
				 M399.5,276.2c0.3,0,0.5,0,0.8,0.3c0.3,0.5,0.5,0.8,0.5,1c0,0-0.3,0.3-0.5,0.8l-0.5,0.5l0.5,0.8c0.3,0.3,0.5,0.5,0.5,0.8
				c0,0.3-0.3,0.5-0.5,0.8c-0.3,0.3-0.3,0.5-0.8,0.5c-0.3,0-0.8,0-1-0.3l-0.8-0.8l-0.5,0.8c-0.3,0.3-0.5,0.3-1,0.3
				c-0.3,0-0.5-0.3-0.8-0.5c-0.3,0-0.5-0.3-0.5-0.8c0-0.3,0.3-0.5,0.5-0.8l0.3-0.8l-0.3-0.3c-0.3-0.5-0.5-0.8-0.5-0.8
				c0-0.3,0.3-0.5,0.5-1c0.3-0.3,0.3-0.3,0.8-0.3s0.8,0,1,0.3l0.5,0.8l0.8-0.8C399,276.2,399.2,275.9,399.5,276.2z"/>
			<path fill="#010101" d="M400.2,276.4c-0.3-0.3-0.3-0.3-0.8-0.3c-0.3,0-0.8,0-1,0.3l-0.8,0.8l-0.5-0.8c-0.3-0.3-0.5-0.3-1-0.3
				c-0.3,0-0.5,0-0.8,0.3c-0.3,0.5-0.5,0.8-0.5,1c0,0,0.3,0.3,0.5,0.8l0.3,0.3l-0.3,0.8c-0.3,0.3-0.5,0.5-0.5,0.8
				c0,0.3,0.3,0.5,0.5,0.8s0.3,0.5,0.8,0.5s0.8,0,1-0.3l0.5-0.8l0.8,0.8c0.3,0.3,0.5,0.3,1,0.3c0.3,0,0.5-0.3,0.8-0.5
				c0.3,0,0.5-0.3,0.5-0.8c0-0.3-0.3-0.5-0.5-0.8l-0.5-0.8l0.5-0.5c0.3-0.3,0.5-0.5,0.5-0.8C400.8,277.2,400.5,276.7,400.2,276.4z"
				/>
		</g>
	</g>
</g>
<g transform="matrix( 1, 0, 0, 1, 0,0) ">
	<g>
		<g id="Layer5_741_MEMBER_1_FILL">
			
				<radialGradient id="SVGID_6_" cx="-383.4743" cy="165.1338" r="2.4744" gradientTransform="matrix(1.8183 1.8183 -1.8183 1.8183 1237.9209 675.4996)" gradientUnits="userSpaceOnUse">
				<stop  offset="0" style="stop-color:#A5A39C"/>
				<stop  offset="1" style="stop-color:#34342F"/>
			</radialGradient>
			<path fill="url(#SVGID_6_)" d="M244.9,274.1c-1.3-1.3-2.8-1.8-4.6-1.8c-1.8,0-3.3,0.5-4.6,1.8c-1.3,1.3-1.8,2.6-1.8,4.4
				c0,1.8,0.5,3.3,1.8,4.4c1.3,1.5,2.8,2.3,4.6,2.3c1.8,0,3.3-0.8,4.6-2.3c1.3-1,1.8-2.6,1.8-4.1
				C246.7,276.9,246.2,275.4,244.9,274.1 M238.5,278.7l-0.3-0.8c-0.3-0.3-0.3-0.5-0.3-0.8c0-0.3,0-0.5,0.3-1c0.3-0.3,0.5-0.3,1-0.3
				c0.3,0,0.5,0,0.8,0.3l0.8,0.8l0.5-0.8c0.3-0.3,0.5-0.3,0.8-0.3c0.3,0,0.8,0,1,0.3c0.3,0.3,0.3,0.8,0.3,1s0,0.5-0.3,0.8l-0.8,0.5
				l0.8,0.8c0.3,0.3,0.3,0.5,0.3,0.8s0,0.5-0.3,0.8c-0.3,0.3-0.8,0.5-1,0.5s-0.5,0-0.8-0.3l-1-0.8l-0.8,0.5
				c-0.3,0.3-0.3,0.5-0.8,0.5c-0.5,0-0.8,0-1-0.3v-0.3c-0.3,0-0.3-0.3-0.3-0.8c0-0.3,0-0.5,0.3-0.8L238.5,278.7z"/>
			<path fill="#010101" d="M238,278l0.3,0.8l-0.3,0.8c-0.3,0.3-0.3,0.5-0.3,0.8c0,0.3,0,0.5,0.3,0.8v0.3c0.3,0.3,0.5,0.3,1,0.3
				c0.3,0,0.5-0.3,0.8-0.5l0.5-0.8l0.5,0.8c0.3,0.3,0.5,0.3,0.8,0.3c0.3,0,0.8-0.3,1-0.5c0.3,0,0.3-0.3,0.3-0.8c0-0.3,0-0.5-0.3-0.8
				l-0.8-0.8l0.8-0.5c0.3-0.3,0.3-0.5,0.3-0.8c0-0.3,0-0.5-0.3-1c-0.3-0.3-0.8-0.3-1-0.3c-0.3,0-0.5,0.3-0.8,0.3l-0.5,0.8l-0.8-0.8
				c-0.3-0.3-0.3-0.3-0.8-0.3c-0.5,0-0.8,0.3-1,0.3c-0.3,0.5-0.3,0.8-0.3,1C237.7,277.5,237.7,277.7,238,278z"/>
		</g>
	</g>
</g>
<g transform="matrix( 0.523590087890625, 0, 0, 0.586517333984375, -107.8,418.95) ">
	<g>
		<g id="Layer5_742_MEMBER_0_FILL">
			<path fill="#DFE6EC" d="M623.1,51.3v-96.9H286.7v96.9H623.1z"/>
		</g>
	</g>
</g>
<g transform="matrix( 1, 0, 0, 1, 0,0) ">
	<g>
		<g id="Layer5_742_MEMBER_1_FILL">
			
				<radialGradient id="SVGID_7_" cx="-383.7484" cy="164.8588" r="2.4563" gradientTransform="matrix(1.8183 1.8183 -1.8183 1.8183 1048.4066 818.0853)" gradientUnits="userSpaceOnUse">
				<stop  offset="0" style="stop-color:#A5A39C"/>
				<stop  offset="1" style="stop-color:#34342F"/>
			</radialGradient>
			<path fill="url(#SVGID_7_)" d="M44.6,420.2c0,1.8,0.5,3.3,1.5,4.6c1.3,1.3,2.8,1.8,4.6,1.8s3.1-0.5,4.4-1.8s1.8-2.6,1.8-4.4
				s-0.5-3.3-1.8-4.6c-1.3-1-2.8-1.5-4.4-1.5c-1.8,0-3.3,0.5-4.6,1.5C45.4,416.9,44.6,418.4,44.6,420.2 M49.5,417.6
				c0.3,0,0.5,0,0.8,0.3l0.8,0.8l0.5-0.8c0.3-0.3,0.5-0.3,1-0.3c0.3,0,0.5,0,1,0.3l0,0c0.3,0.3,0.3,0.5,0.3,0.8c0,0.3,0,0.5-0.3,1
				l-0.8,0.5l0.8,0.8c0.3,0,0.3,0.3,0.3,0.8c0,0.3,0,0.5-0.3,0.8c-0.3,0.3-0.8,0.5-1,0.5c-0.3,0-0.8,0-1-0.3L51,422l-0.8,0.5
				c-0.3,0.3-0.5,0.5-0.8,0.5c-0.3,0-0.8,0-1-0.3v-0.3c-0.3-0.3-0.3-0.3-0.3-0.8c0-0.3,0.3-0.5,0.3-0.8l0.5-0.8l-0.5-0.8
				c-0.3-0.3-0.3-0.8-0.3-1c0-0.3,0.3-0.5,0.3-0.8C48.7,417.6,49.2,417.6,49.5,417.6z"/>
			<path fill="#010101" d="M50.3,417.9c-0.3-0.3-0.5-0.3-0.8-0.3c-0.3,0-0.8,0.3-1,0.3c-0.3,0.3-0.3,0.5-0.3,0.8
				c0,0.3,0.3,0.5,0.3,1l0.5,0.8l-0.5,0.8c-0.3,0.3-0.3,0.5-0.3,0.8c0,0.3,0.3,0.5,0.3,0.8v0.3c0.3,0.3,0.5,0.3,1,0.3
				s0.5-0.3,0.8-0.5l0.8-0.5l0.5,0.8c0.3,0.3,0.5,0.3,1,0.3c0.3,0,0.5-0.3,1-0.5c0.3-0.3,0.3-0.3,0.3-0.8c0-0.5,0-0.8-0.3-0.8
				l-0.8-0.8l0.8-0.5c0.3-0.3,0.3-0.8,0.3-1c0-0.3,0-0.5-0.3-0.8l0,0c-0.3-0.3-0.8-0.3-1-0.3c-0.3,0-0.8,0.3-1,0.3l-0.5,0.8
				L50.3,417.9z"/>
		</g>
	</g>
</g>
<g transform="matrix( 1, 0, 0, 1, 0,0) ">
	<g>
		<g id="Layer5_742_MEMBER_2_FILL">
			
				<radialGradient id="SVGID_8_" cx="-383.7502" cy="164.8588" r="2.4572" gradientTransform="matrix(1.8183 1.8183 -1.8183 1.8183 1206.0352 818.0853)" gradientUnits="userSpaceOnUse">
				<stop  offset="0" style="stop-color:#A5A39C"/>
				<stop  offset="1" style="stop-color:#34342F"/>
			</radialGradient>
			<path fill="url(#SVGID_8_)" d="M204.3,415.6c-1.3,1.3-1.8,2.8-1.8,4.6s0.5,3.3,1.8,4.6c1.3,1.3,2.6,1.8,4.1,1.8
				c1.8,0,3.3-0.5,4.6-1.8s2.1-2.6,2.1-4.6c0-1.5-0.8-3.1-2.1-4.6c-1-1-2.6-1.5-4.6-1.5C206.9,414,205.6,414.5,204.3,415.6
				 M206.1,418.9c0-0.3,0-0.5,0.3-1c0.3-0.3,0.5-0.3,0.8-0.3s0.8,0,1,0.3l0.3,0.8l0.8-0.8c0.3-0.3,0.5-0.3,1-0.3
				c0.3,0,0.3,0,0.5,0.3c0.3,0.3,0.5,0.8,0.5,1c0,0.3-0.3,0.5-0.5,0.8l-0.5,0.5l0.5,0.8c0.3,0,0.5,0.5,0.5,1c0,0.3-0.3,0.3-0.5,0.5
				s-0.3,0.5-0.5,0.5c-0.5,0-0.8,0-1-0.3l-0.8-0.8l-0.3,0.8c-0.3,0.3-0.5,0.3-1,0.3c-0.3,0-0.5-0.3-0.8-0.5
				c-0.3-0.3-0.3-0.3-0.3-0.5c0-0.5,0-0.8,0.3-1l0.5-0.8l-0.5-0.3C206.1,419.2,206.1,418.9,206.1,418.9z"/>
			<path fill="#010101" d="M206.4,417.9c-0.3,0.3-0.3,0.8-0.3,1c0,0.3,0,0.5,0.3,1l0.5,0.3l-0.5,0.8c-0.3,0-0.3,0.5-0.3,1
				c0,0.3,0,0.3,0.3,0.5c0.3,0.3,0.5,0.5,0.8,0.5s0.8,0,1-0.3l0.3-0.8l0.8,0.8c0.3,0.3,0.5,0.3,1,0.3c0.3,0,0.3-0.3,0.5-0.5
				s0.5-0.3,0.5-0.5c0-0.5-0.3-0.8-0.5-1l-0.5-0.8l0.5-0.5c0.3-0.3,0.5-0.5,0.5-0.8c0-0.3-0.3-0.5-0.5-1c-0.3-0.3-0.3-0.3-0.5-0.3
				c-0.5,0-0.8,0-1,0.3l-0.8,0.8l-0.3-0.8c-0.3-0.3-0.5-0.3-1-0.3C206.9,417.6,206.6,417.6,206.4,417.9z"/>
		</g>
	</g>
</g>
<g transform="matrix( 0.523590087890625, 0, 0, 0.586517333984375, -34.2,418.95) ">
	<g>
		<g id="Layer5_743_MEMBER_0_FILL">
			<path fill="#DFE6EC" d="M843.9,51.3v-96.9H507.6v96.9H843.9z"/>
		</g>
	</g>
</g>
<g transform="matrix( 1, 0, 0, 1, 0,0) ">
	<g>
		<g id="Layer5_743_MEMBER_1_FILL">
			
				<radialGradient id="SVGID_9_" cx="-383.7502" cy="164.8588" r="2.4572" gradientTransform="matrix(1.8183 1.8183 -1.8183 1.8183 1238.3066 818.0853)" gradientUnits="userSpaceOnUse">
				<stop  offset="0" style="stop-color:#A5A39C"/>
				<stop  offset="1" style="stop-color:#34342F"/>
			</radialGradient>
			<path fill="url(#SVGID_9_)" d="M245.2,415.6c-1.3-1-2.8-1.5-4.6-1.5s-3.3,0.5-4.6,1.5c-1,1.3-1.5,2.8-1.5,4.6s0.5,3.3,1.5,4.6
				c1.3,1.3,2.6,1.8,4.6,1.8c1.8,0,3.3-0.5,4.6-1.8c1-1.3,1.5-2.6,1.5-4.4C247,418.4,246.5,416.9,245.2,415.6 M238,421.7
				c0-0.3,0-0.5,0.3-0.8l0.8-0.8l-0.8-0.8c-0.3-0.3-0.3-0.8-0.3-1s0-0.5,0.3-0.8c0.3-0.3,0.8-0.3,1-0.3s0.5,0,0.8,0.3l0.8,0.8
				l0.8-0.8c0.3-0.3,0.5-0.3,0.8-0.3c0.3,0,0.8,0,1,0.3l0,0c0,0.3,0,0.5,0,0.8c0,0.3,0,0.5,0,1l-0.8,0.5l0.8,0.8c0,0,0,0.3,0,0.8
				c0,0.3,0,0.5,0,0.8c-0.3,0.3-0.8,0.5-1,0.5c-0.3,0-0.5,0-0.8-0.3l-0.8-0.8l-0.8,0.5c-0.3,0.3-0.5,0.5-0.8,0.5c-0.3,0-0.8,0-1-0.3
				v-0.3C238.2,422,238,422,238,421.7z"/>
			<path fill="#010101" d="M238.5,421c-0.3,0.3-0.3,0.5-0.3,0.8c0,0.3,0,0.5,0.3,0.8v0.3c0.3,0.3,0.8,0.3,1,0.3s0.5-0.3,0.8-0.5
				l0.8-0.5l0.8,0.8c0.3,0.3,0.5,0.3,0.8,0.3c0.3,0,0.8-0.3,1-0.5c0-0.3,0-0.3,0-0.8s0-0.8,0-0.8l-0.8-0.8l0.8-0.5c0-0.3,0-0.8,0-1
				c0-0.3,0-0.5,0-0.8l0,0c-0.3-0.3-0.8-0.3-1-0.3s-0.5,0.3-0.8,0.3l-0.8,0.8l-0.8-0.8c-0.3-0.3-0.5-0.3-0.8-0.3
				c-0.3,0-0.8,0.3-1,0.3c-0.3,0.3-0.3,0.5-0.3,0.8c0,0.3,0,0.5,0.3,1l0.8,0.8L238.5,421z"/>
		</g>
	</g>
</g>
<g transform="matrix( 1, 0, 0, 1, 0,0) ">
	<g>
		<g id="Layer5_743_MEMBER_2_FILL">
			
				<radialGradient id="SVGID_10_" cx="-383.7502" cy="164.8588" r="2.4572" gradientTransform="matrix(1.8183 1.8183 -1.8183 1.8183 1395.678 818.0853)" gradientUnits="userSpaceOnUse">
				<stop  offset="0" style="stop-color:#A5A39C"/>
				<stop  offset="1" style="stop-color:#34342F"/>
			</radialGradient>
			<path fill="url(#SVGID_10_)" d="M392.3,420.2c0,1.8,0.5,3.3,1.8,4.6c1.3,1.3,2.6,1.8,4.1,1.8c1.8,0,3.3-0.5,4.6-1.8
				s1.8-2.6,1.8-4.6c0-1.5-0.5-3.1-1.8-4.6c-1.3-1-2.8-1.5-4.6-1.5c-1.5,0-3.1,0.5-4.1,1.5C392.8,416.9,392.3,418.4,392.3,420.2
				 M400.5,417.9c0.3,0.3,0.5,0.8,0.5,1c0,0.3-0.3,0.5-0.5,0.8l-0.8,0.5l0.8,0.8c0.3,0,0.5,0.5,0.5,1c0,0.3-0.3,0.3-0.5,0.5
				c-0.3,0.3-0.5,0.5-0.8,0.5c-0.3,0-0.8,0-1-0.3l-0.8-0.8l-0.5,0.8c0,0.3-0.3,0.3-0.8,0.3c-0.3,0-0.5-0.3-1-0.5
				c-0.3-0.3-0.3-0.3-0.3-0.5c0-0.5,0-0.8,0.3-1l0.8-0.8l-0.8-0.3c-0.3-0.5-0.3-0.8-0.3-1c0-0.3,0-0.5,0.3-1c0.3-0.3,0.8-0.3,1-0.3
				c0.5,0,0.8,0,0.8,0.3l0.5,0.8l0.8-0.8c0.3-0.3,0.5-0.3,1-0.3C400,417.6,400.2,417.6,400.5,417.9z"/>
			<path fill="#010101" d="M401,418.9c0-0.3-0.3-0.5-0.5-1c-0.3-0.3-0.5-0.3-0.8-0.3c-0.3,0-0.8,0-1,0.3l-0.8,0.8l-0.5-0.8
				c0-0.3-0.3-0.3-0.8-0.3c-0.3,0-0.5,0-1,0.3c-0.3,0.3-0.3,0.8-0.3,1c0,0.3,0,0.5,0.3,1l0.8,0.3l-0.8,0.8c-0.3,0-0.3,0.5-0.3,1
				c0,0.3,0,0.3,0.3,0.5c0.3,0.3,0.8,0.5,1,0.5c0.5,0,0.8,0,0.8-0.3l0.5-0.8l0.8,0.8c0.3,0.3,0.5,0.3,1,0.3c0.3,0,0.5-0.3,0.8-0.5
				c0.3-0.3,0.5-0.3,0.5-0.5c0-0.5-0.3-0.8-0.5-1l-0.8-0.8l0.8-0.5C400.8,419.2,401,418.9,401,418.9z"/>
		</g>
	</g>
</g>
<text transform="matrix(1 0 0 1 180.4815 15.0002)"><tspan x="0" y="0" font-family="'MSReferenceSansSerif'" font-size="14">480V GROUND</tspan><tspan x="-15.1" y="16.8" font-family="'MSReferenceSansSerif'" font-size="14">DETECTOR LIGHTS</tspan><tspan x="0.2" y="33.6" font-family="'MSReferenceSansSerif'" font-size="14">PUSH TO TEST</tspan><tspan x="25.5" y="50.4" font-family="'MSReferenceSansSerif'" font-size="14">LIGHTS</tspan></text>
<text transform="matrix(1 0 0 1 68.707 275.1429)"><tspan x="0" y="0" font-family="'MSReferenceSansSerif'" font-size="16">DROOP ADJUST </tspan><tspan x="22.6" y="19.2" font-family="'MSReferenceSansSerif'" font-size="16">RHEOSTAT</tspan></text>
<text transform="matrix(1 0 0 1 247.1566 275.3143)"><tspan x="0" y="0" font-family="'MSReferenceSansSerif'" font-size="16">VOLTAGE ADJUST</tspan><tspan x="28.5" y="19.2" font-family="'MSReferenceSansSerif'" font-size="16">RHEOSTAT</tspan></text>
<text transform="matrix(1 0 0 1 65.1411 422.2856)"><tspan x="0" y="0" font-family="'MSReferenceSansSerif'" font-size="16">DROOP SWITCH</tspan><tspan x="-12.8" y="19.2" font-family="'MSReferenceSansSerif'" font-size="16">DROOP          ISOC</tspan></text>
<text transform="matrix(1 0 0 1 243.0399 408.3333)"><tspan x="0" y="0" font-family="'MSReferenceSansSerif'" font-size="16">GENERATOR NO 1</tspan><tspan x="12.2" y="19.2" font-family="'MSReferenceSansSerif'" font-size="16">SPEED ADJUST</tspan><tspan x="29.4" y="38.4" font-family="'MSReferenceSansSerif'" font-size="16">RHEOSTAT</tspan></text>
</svg>
