<?xml version="1.0" encoding="utf-8"?>
<!-- Generator: Adobe Illustrator 18.0.0, SVG Export Plug-In . SVG Version: 6.00 Build 0)  -->
<!DOCTYPE svg PUBLIC "-//W3C//DTD SVG 1.1//EN" "http://www.w3.org/Graphics/SVG/1.1/DTD/svg11.dtd">
<svg version="1.1" id="Layer_1" xmlns="http://www.w3.org/2000/svg" xmlns:xlink="http://www.w3.org/1999/xlink" x="0px" y="0px"
	 viewBox="0 0 450 450" enable-background="new 0 0 450 450" xml:space="preserve">
<g transform="matrix( 0.5235748291015625, 0, 0, 0.586517333984375, -399.05,152.6) ">
	<g>
		<g id="Layer5_667_MEMBER_0_FILL">
			<path fill="#DFE6EC" d="M909.4,105.4V63H762.2v42.5H909.4z"/>
		</g>
	</g>
</g>
<g transform="matrix( 1, 0, 0, 1, 0,0) ">
	<g>
		<g id="Layer5_667_MEMBER_1_FILL">
			
				<radialGradient id="SVGID_1_" cx="-19.7561" cy="226.4672" r="2.4572" gradientTransform="matrix(0.7965 0.7965 -0.7965 0.7965 200.6102 37.3439)" gradientUnits="userSpaceOnUse">
				<stop  offset="0" style="stop-color:#A5A39C"/>
				<stop  offset="1" style="stop-color:#34342F"/>
			</radialGradient>
			<path fill="url(#SVGID_1_)" d="M6.5,200.1c-0.6-0.6-1.2-0.8-2-0.8s-1.4,0.2-1.9,0.8c-0.6,0.6-0.9,1.2-0.9,2s0.3,1.5,0.9,2
				c0.5,0.6,1.1,0.9,1.9,0.9s1.5-0.3,2-0.9c0.5-0.6,0.8-1.1,0.8-1.9C7.2,201.3,7,200.6,6.5,200.1 M3.4,202.6c0-0.1,0-0.2,0.1-0.3
				l0.3-0.3l-0.3-0.2c-0.1-0.1-0.1-0.2-0.1-0.3s0-0.2,0.1-0.3c0.1-0.1,0.2-0.1,0.5-0.2c0.1,0,0.2,0,0.3,0.1l0.2,0.3l0.3-0.3
				c0.1-0.1,0.3-0.1,0.3-0.2c0.1,0,0.3,0,0.5,0.1v0.1c0.1,0.1,0.1,0.2,0.1,0.3s0,0.3-0.1,0.5L5.3,202l0.3,0.3
				c0.1,0.1,0.1,0.2,0.1,0.3s0,0.2-0.1,0.5c-0.1,0.1-0.2,0.1-0.5,0.1c-0.1,0-0.2,0-0.3-0.1l-0.3-0.3l-0.2,0.3
				c-0.1,0.1-0.3,0.1-0.3,0.1c-0.2,0-0.3,0-0.5-0.1l0,0C3.4,202.9,3.4,202.8,3.4,202.6z"/>
			<path fill="#010101" d="M3.5,202.3c-0.1,0.1-0.1,0.2-0.1,0.3s0,0.2,0.1,0.5l0,0c0.1,0.1,0.2,0.1,0.5,0.1c0.1,0,0.2-0.1,0.3-0.1
				l0.2-0.3l0.3,0.3c0.1,0.1,0.3,0.1,0.3,0.1c0.1,0,0.3-0.1,0.5-0.1c0-0.2,0.1-0.3,0.1-0.5s0-0.2-0.1-0.3L5.3,202l0.2-0.2
				c0.1-0.1,0.1-0.2,0.1-0.5s0-0.2-0.1-0.3v-0.1c-0.1-0.1-0.2-0.1-0.5-0.1c-0.1,0-0.2,0.1-0.3,0.2l-0.2,0.3L4.3,201
				c-0.1-0.1-0.3-0.1-0.3-0.1c-0.2,0-0.3,0.1-0.5,0.2s-0.1,0.2-0.1,0.3s0,0.3,0.1,0.5l0.3,0.3L3.5,202.3z"/>
		</g>
	</g>
</g>
<g transform="matrix( 1, 0, 0, 1, 0,0) ">
	<g>
		<g id="Layer5_667_MEMBER_2_FILL">
			
				<radialGradient id="SVGID_2_" cx="-19.7561" cy="226.4672" r="2.4572" gradientTransform="matrix(0.7965 0.7965 -0.7965 0.7965 268.7578 37.3439)" gradientUnits="userSpaceOnUse">
				<stop  offset="0" style="stop-color:#A5A39C"/>
				<stop  offset="1" style="stop-color:#34342F"/>
			</radialGradient>
			<path fill="url(#SVGID_2_)" d="M74.6,200.1c-0.6-0.5-1.1-0.7-1.9-0.7s-1.5,0.2-2,0.7c-0.5,0.6-0.8,1.2-0.8,1.9
				c0,0.8,0.2,1.5,0.8,2c0.6,0.6,1.2,0.9,2,0.9s1.4-0.3,1.9-0.9c0.6-0.6,0.8-1.1,0.8-2C75.4,201.3,75.1,200.6,74.6,200.1
				 M71.5,202.3l0.3-0.3l-0.3-0.2c-0.1-0.1-0.1-0.2-0.1-0.5c0-0.1,0-0.2,0.1-0.3s0.2-0.1,0.3-0.1c0.2,0,0.3,0,0.5,0.1l0.3,0.2
				l0.2-0.3c0.1-0.1,0.2-0.1,0.3-0.1c0.1,0,0.2,0,0.3,0.1c0.1,0.1,0.1,0.2,0.1,0.3s0,0.3-0.1,0.5l-0.2,0.2l0.2,0.3
				c0.1,0.1,0.1,0.2,0.1,0.3s0,0.2-0.1,0.3s-0.2,0.1-0.3,0.1c-0.2,0-0.3,0-0.3-0.1l-0.2-0.3l-0.3,0.3c-0.1,0.1-0.2,0.1-0.5,0.1
				c-0.1,0-0.2-0.1-0.3-0.1c-0.1-0.1-0.1-0.2-0.1-0.3C71.4,202.5,71.5,202.4,71.5,202.3z"/>
			<path fill="#010101" d="M71.9,202l-0.3,0.3c-0.1,0.1-0.1,0.2-0.1,0.3s0,0.2,0.1,0.3s0.2,0.1,0.3,0.1c0.2,0,0.3,0,0.5-0.1l0.3-0.3
				l0.2,0.3c0.1,0.1,0.2,0.1,0.3,0.1c0.1,0,0.2-0.1,0.3-0.1c0.1-0.1,0.1-0.2,0.1-0.3s0-0.2-0.1-0.3l-0.2-0.3l0.2-0.2
				c0.1-0.1,0.1-0.2,0.1-0.5c0-0.1,0-0.2-0.1-0.3s-0.2-0.1-0.3-0.1c-0.2,0-0.3,0-0.3,0.1l-0.2,0.3l-0.3-0.2
				c-0.1-0.1-0.2-0.1-0.5-0.1c-0.1,0-0.2,0-0.3,0.1s-0.1,0.2-0.1,0.3s0,0.3,0.1,0.5L71.9,202z"/>
		</g>
	</g>
</g>
<g transform="matrix( 0.7006988525390625, 0, 0, 0.699493408203125, -395.3,154.1) ">
	<g>
		<g id="Layer5_668_MEMBER_0_FILL">
			<path fill="#DFE6EC" d="M958.8,99.8V57.4H811.5v42.5H958.8z"/>
		</g>
	</g>
</g>
<g transform="matrix( 0.5235748291015625, 0, 0, 0.586517333984375, -233.6,193.65) ">
	<g>
		<g id="Layer5_669_MEMBER_0_FILL">
			<path fill="#DFE6EC" d="M949.4,114.3V71.8H802.1v42.5H949.4z"/>
		</g>
	</g>
</g>
<g transform="matrix( 1, 0, 0, 1, 0,0) ">
	<g>
		<g id="Layer5_669_MEMBER_1_FILL">
			
				<radialGradient id="SVGID_3_" cx="-19.7569" cy="226.4702" r="2.4611" gradientTransform="matrix(0.7965 0.7965 -0.7965 0.7965 386.4111 83.414)" gradientUnits="userSpaceOnUse">
				<stop  offset="0" style="stop-color:#A5A39C"/>
				<stop  offset="1" style="stop-color:#34342F"/>
			</radialGradient>
			<path fill="url(#SVGID_3_)" d="M187.5,248c0,0.8,0.2,1.4,0.8,1.9c0.6,0.6,1.2,0.9,2,0.9s1.4-0.3,2-0.9c0.5-0.6,0.8-1.1,0.8-1.9
				s-0.2-1.5-0.8-2s-1.2-0.8-2-0.8s-1.5,0.2-2,0.8C187.8,246.7,187.5,247.2,187.5,248 M190.9,246.9c0.1,0,0.3,0.1,0.5,0.2
				c0.1,0.1,0.1,0.2,0.1,0.3s0,0.2-0.1,0.3l-0.3,0.3l0.3,0.3c0.1,0.1,0.1,0.2,0.1,0.3s0,0.2-0.1,0.3s-0.2,0.2-0.5,0.2
				c-0.1,0-0.3,0-0.3-0.1l-0.2-0.2l-0.3,0.1c-0.1,0.1-0.2,0.2-0.3,0.2c-0.1,0-0.2,0-0.5-0.1V249c-0.1-0.1-0.1-0.1-0.1-0.3
				c0-0.1,0.1-0.2,0.1-0.3l0.3-0.3l-0.3-0.3c-0.1-0.1-0.1-0.2-0.1-0.3s0.1-0.2,0.1-0.3c0.1-0.1,0.3-0.1,0.5-0.2
				c0.1,0,0.2,0.1,0.3,0.2l0.3,0.2l0.2-0.2C190.6,247,190.8,246.9,190.9,246.9z"/>
			<path fill="#010101" d="M191.3,247.1c-0.1-0.1-0.2-0.2-0.5-0.2c-0.1,0.1-0.3,0.1-0.3,0.2l-0.2,0.2l-0.3-0.2
				c-0.1-0.1-0.2-0.2-0.3-0.2c-0.1,0.1-0.2,0.1-0.5,0.2c-0.1,0.1-0.1,0.2-0.1,0.3s0.1,0.2,0.1,0.3l0.3,0.3l-0.3,0.3
				c-0.1,0.1-0.1,0.2-0.1,0.3s0.1,0.2,0.1,0.3V249c0.1,0.1,0.3,0.1,0.5,0.1c0.1,0,0.2-0.1,0.3-0.2l0.3-0.1l0.2,0.2
				c0.1,0.1,0.2,0.1,0.3,0.1s0.3-0.1,0.5-0.2s0.1-0.1,0.1-0.3c0-0.1,0-0.2-0.1-0.3l-0.3-0.3l0.3-0.3c0.1-0.1,0.1-0.2,0.1-0.3
				C191.4,247.4,191.4,247.2,191.3,247.1z"/>
		</g>
	</g>
</g>
<g transform="matrix( 1, 0, 0, 1, 0,0) ">
	<g>
		<g id="Layer5_669_MEMBER_2_FILL">
			
				<radialGradient id="SVGID_4_" cx="-19.7561" cy="226.4672" r="2.4572" gradientTransform="matrix(0.7965 0.7965 -0.7965 0.7965 455.46 83.414)" gradientUnits="userSpaceOnUse">
				<stop  offset="0" style="stop-color:#A5A39C"/>
				<stop  offset="1" style="stop-color:#34342F"/>
			</radialGradient>
			<path fill="url(#SVGID_4_)" d="M256.6,248c0,0.8,0.2,1.4,0.8,1.9s1.1,0.9,2,0.9c0.8,0,1.4-0.3,1.9-0.9s0.9-1.1,0.9-1.9
				c0-0.7-0.3-1.4-0.9-1.9c-0.6-0.6-1.1-0.8-1.9-0.8s-1.5,0.2-2,0.8C256.9,246.7,256.6,247.4,256.6,248 M260,247
				c0.1,0,0.2,0,0.3,0.1s0.1,0.3,0.1,0.5s0,0.1-0.1,0.3l-0.3,0.3l0.3,0.3c0.1,0.1,0.1,0.2,0.1,0.3s0,0.2-0.1,0.3s-0.2,0.2-0.3,0.2
				c-0.1,0-0.3,0-0.5-0.1l-0.2-0.2l-0.2-0.1c-0.1,0.1-0.2,0.1-0.3,0.1c-0.1,0-0.2-0.1-0.3-0.2s-0.2-0.1-0.2-0.3
				c0-0.1,0.1-0.2,0.2-0.3l0.2-0.3l-0.2-0.2c-0.1-0.1-0.2-0.2-0.2-0.3s0.1-0.2,0.2-0.5c0.1-0.1,0.2-0.2,0.3-0.1
				c0.1-0.1,0.2,0,0.3,0.1l0.3,0.2l0.2-0.2C259.7,246.9,259.9,246.9,260,247z"/>
			<path fill="#010101" d="M260.3,247.1c-0.1-0.1-0.2-0.1-0.3-0.1c-0.1-0.1-0.3,0-0.5,0.1l-0.2,0.2l-0.3-0.2
				c-0.1-0.1-0.2-0.2-0.3-0.1c-0.1-0.1-0.2,0-0.3,0.1c-0.1,0.1-0.2,0.3-0.2,0.5s0.1,0.2,0.2,0.3l0.2,0.2l-0.2,0.3
				c-0.1,0.1-0.2,0.2-0.2,0.3s0.1,0.2,0.2,0.3c0.1,0.1,0.2,0.2,0.3,0.2c0.1,0,0.2,0,0.3-0.1l0.3-0.2l0.2,0.2
				c0.1,0.1,0.3,0.1,0.5,0.1s0.2-0.1,0.3-0.2c0.1-0.1,0.1-0.1,0.1-0.3c0-0.1,0-0.2-0.1-0.3l-0.3-0.3l0.3-0.3
				c0.1-0.1,0.1-0.2,0.1-0.3C260.4,247.4,260.4,247.2,260.3,247.1z"/>
		</g>
	</g>
</g>
<g transform="matrix( 0.5235748291015625, 0, 0, 0.586517333984375, -68,152.45) ">
	<g>
		<g id="Layer5_670_MEMBER_0_FILL">
			<path fill="#DFE6EC" d="M989.4,105.4V62.9H842.1v42.5H989.4z"/>
		</g>
	</g>
</g>
<g transform="matrix( 1, 0, 0, 1, 0,0) ">
	<g>
		<g id="Layer5_670_MEMBER_1_FILL">
			
				<radialGradient id="SVGID_5_" cx="-19.7561" cy="226.4672" r="2.4572" gradientTransform="matrix(0.7965 0.7965 -0.7965 0.7965 573.5076 37.4002)" gradientUnits="userSpaceOnUse">
				<stop  offset="0" style="stop-color:#A5A39C"/>
				<stop  offset="1" style="stop-color:#34342F"/>
			</radialGradient>
			<path fill="url(#SVGID_5_)" d="M379.4,200.1c-0.6-0.5-1.2-0.7-2-0.7c-0.8,0-1.4,0.2-1.8,0.7c-0.6,0.6-0.9,1.2-0.9,2
				s0.3,1.5,0.9,2c0.5,0.6,1.1,0.8,1.8,0.8c0.8,0,1.5-0.2,2-0.8c0.5-0.6,0.8-1.1,0.8-1.9S379.9,200.7,379.4,200.1 M378.1,201
				c0.1,0,0.2,0,0.3,0.1v0.1c0.1,0.1,0.2,0.2,0.2,0.3s-0.1,0.2-0.2,0.3l-0.3,0.3l0.3,0.3c0.1,0.1,0.2,0.1,0.2,0.3s-0.1,0.2-0.2,0.3
				c-0.1,0.1-0.1,0.2-0.3,0.2c-0.1,0-0.3,0-0.5-0.1l-0.3-0.3l-0.1,0.3c-0.1,0.1-0.3,0.2-0.5,0.2s-0.2,0-0.3-0.1v-0.1
				c-0.1-0.1-0.2-0.2-0.2-0.3s0.1-0.2,0.2-0.3l0.2-0.3l-0.2-0.3c-0.1-0.1-0.2-0.2-0.2-0.3s0.1-0.2,0.2-0.3c0.1-0.1,0.2-0.1,0.3-0.1
				c0.1,0,0.2,0,0.5,0.1l0.1,0.3l0.3-0.3C377.8,201.1,378,201,378.1,201z"/>
			<path fill="#010101" d="M378.4,201c-0.1,0-0.1-0.1-0.3-0.1c-0.1,0-0.3,0.1-0.5,0.1l-0.3,0.3l-0.1-0.3c-0.1,0-0.3-0.1-0.5-0.1
				c-0.1,0-0.2,0.1-0.3,0.1c-0.1,0.1-0.2,0.2-0.2,0.3s0.1,0.2,0.2,0.3l0.2,0.3l-0.2,0.3c-0.1,0.1-0.2,0.1-0.2,0.3s0.1,0.2,0.2,0.3
				v0.1c0.1,0.1,0.2,0.1,0.3,0.1c0.1,0,0.2-0.1,0.5-0.2l0.1-0.3l0.3,0.3c0.1,0.1,0.3,0.1,0.5,0.1s0.2-0.1,0.3-0.2
				c0.1-0.1,0.2-0.2,0.2-0.3s-0.1-0.2-0.2-0.3l-0.3-0.3l0.3-0.3c0.1-0.1,0.2-0.2,0.2-0.3S378.6,201.2,378.4,201L378.4,201z"/>
		</g>
	</g>
</g>
<g transform="matrix( 1, 0, 0, 1, 0,0) ">
	<g>
		<g id="Layer5_670_MEMBER_2_FILL">
			
				<radialGradient id="SVGID_6_" cx="-19.7561" cy="226.4672" r="2.4572" gradientTransform="matrix(0.7965 0.7965 -0.7965 0.7965 641.3737 37.4002)" gradientUnits="userSpaceOnUse">
				<stop  offset="0" style="stop-color:#A5A39C"/>
				<stop  offset="1" style="stop-color:#34342F"/>
			</radialGradient>
			<path fill="url(#SVGID_6_)" d="M447.2,204c0.6-0.6,0.8-1.2,0.8-2c0-0.7-0.2-1.4-0.8-2c-0.5-0.5-1.1-0.7-2-0.7
				c-0.7,0-1.4,0.2-1.9,0.7c-0.6,0.6-0.8,1.2-0.8,2s0.2,1.5,0.8,2c0.6,0.6,1.2,0.8,1.9,0.8C446.1,204.8,446.7,204.6,447.2,204
				 M446.5,201.4c0,0.1,0,0.2-0.1,0.3l-0.3,0.3l0.3,0.3c0.1,0.1,0.1,0.2,0.1,0.3s0,0.2-0.1,0.3c-0.1,0.1-0.3,0.2-0.5,0.2
				s-0.2,0-0.3-0.1l-0.3-0.3l-0.2,0.3c-0.1,0.1-0.2,0.1-0.3,0.1c-0.1,0-0.2-0.1-0.5-0.2c0-0.1-0.1-0.2-0.1-0.3s0-0.2,0.1-0.3
				l0.3-0.3l-0.3-0.2c0-0.1-0.1-0.2-0.1-0.5c0-0.1,0-0.2,0.1-0.3s0.3-0.1,0.5-0.1c0.2,0,0.3,0,0.3,0.1l0.2,0.2l0.3-0.3
				c0.1,0,0.2,0,0.3,0c0.1,0,0.2,0,0.5,0.1C446.4,201.2,446.5,201.3,446.5,201.4z"/>
			<path fill="#010101" d="M446.3,201.7c0.1-0.1,0.1-0.2,0.1-0.3s0-0.2-0.1-0.3c-0.1-0.1-0.3-0.1-0.5-0.1s-0.2,0-0.3,0l-0.3,0.3
				l-0.2-0.2c-0.1-0.1-0.2-0.1-0.3-0.1c-0.1,0-0.2,0-0.5,0.1c0,0.1-0.1,0.2-0.1,0.3s0,0.3,0.1,0.5l0.3,0.2l-0.3,0.3
				c0,0.1-0.1,0.2-0.1,0.3s0,0.2,0.1,0.3c0.1,0.1,0.3,0.2,0.5,0.2c0.2,0,0.3,0,0.3-0.1l0.2-0.3l0.3,0.3c0.1,0.1,0.2,0.1,0.3,0.1
				c0.1,0,0.2-0.1,0.5-0.2c0.1-0.1,0.1-0.2,0.1-0.3s0-0.2-0.1-0.3l-0.3-0.3L446.3,201.7z"/>
		</g>
	</g>
</g>
<text transform="matrix(1 0 0 1 194.6927 209.0063)" font-family="'MSReferenceSansSerif'" font-size="16">3508 B</text>
<text transform="matrix(1 0 0 1 181.9497 221.9998)" font-family="'MSReferenceSansSerif'" font-size="12">Gen #1  (G-1)</text>
<text transform="matrix(1 0 0 1 4.1302 198.2614)"><tspan x="0" y="0" font-family="'MSReferenceSansSerif'" font-size="8">GENERATOR No1</tspan><tspan x="-4.1" y="12.6" font-family="'MSReferenceSansSerif'" font-size="8">POWER AVAILABLE</tspan></text>
<text transform="matrix(1 0 0 1 381.6562 199.2616)"><tspan x="0" y="0" font-family="'MSReferenceSansSerif'" font-size="8">480V GROUND</tspan><tspan x="-8.6" y="12.6" font-family="'MSReferenceSansSerif'" font-size="8">DETECTOR LIGHTS</tspan></text>
<text transform="matrix(1 0 0 1 212.9268 241.6665)"><tspan x="0" y="0" font-family="'MSReferenceSansSerif'" font-size="6">MANUAL</tspan><tspan x="-17.2" y="7.2" font-family="'MSReferenceSansSerif'" font-size="6">VOLTAGE CONTROL</tspan><tspan x="-0.2" y="14.4" font-family="'MSReferenceSansSerif'" font-size="6">MODULE</tspan></text>
</svg>
