<?xml version="1.0" encoding="utf-8"?>
<!-- Generator: Adobe Illustrator 18.0.0, SVG Export Plug-In . SVG Version: 6.00 Build 0)  -->
<!DOCTYPE svg PUBLIC "-//W3C//DTD SVG 1.1//EN" "http://www.w3.org/Graphics/SVG/1.1/DTD/svg11.dtd">
<svg version="1.1" id="Layer_1" xmlns="http://www.w3.org/2000/svg" xmlns:xlink="http://www.w3.org/1999/xlink" x="0px" y="0px"
	 viewBox="0 0 450 450" enable-background="new 0 0 450 450" xml:space="preserve">
<g transform="matrix( 0.523590087890625, 0, 0, 0.586517333984375, -288.75,619.05) ">
	<g>
		<g id="Layer5_722_MEMBER_0_FILL">
			<path fill="#DFE6EC" d="M1304.5-869v-186.6h-647V-869H1304.5z"/>
		</g>
	</g>
</g>
<g transform="matrix( 1, 0, 0, 1, 0,0) ">
	<g>
		<g id="Layer5_722_MEMBER_1_FILL">
			
				<radialGradient id="SVGID_1_" cx="-486.2965" cy="-166.9421" r="2.4572" gradientTransform="matrix(3.5005 3.5005 -3.5005 3.5005 1193.7915 2341.4819)" gradientUnits="userSpaceOnUse">
				<stop  offset="0" style="stop-color:#A5A39C"/>
				<stop  offset="1" style="stop-color:#34342F"/>
			</radialGradient>
			<path fill="url(#SVGID_1_)" d="M75.7,42.6c-3.5,0-6.4,1-8.4,3c-2,3-3.5,5.9-3.5,9.4s1,5.9,3.5,8.4c2,2.5,5,4,8.4,4s6.4-1.5,8.9-4
				c2.5-2.5,3.5-5,3.5-7.9c0-3.5-1-6.4-3.5-9.4C82.2,43.6,79.2,42.6,75.7,42.6 M71.8,50.5c0.5-0.5,1-1,1.5-1c0.5,0,1,0,1.5,1l1,1.5
				l1-1.5c1-0.5,1.5-1,2-1s1,0,1.5,1l0,0c0.5,0.5,0.5,1,0.5,1.5c0,0.5,0,1.5-0.5,2l-1.5,1.5l1.5,1c0.5,0,0.5,0.5,0.5,1.5
				c0,0.5,0,1-0.5,1.5c0,0-0.5,0.5-1.5,0.5c-0.5,0-1,0-2-0.5l-1-1.5l-1,1c-0.5,0.5-1,1-1.5,1c-0.5,0-1,0-1.5-0.5l0,0
				c-0.5-0.5-1-1-1-1.5s0.5-1,1-1.5l1-1.5l-1-1.5c-0.5-0.5-1-1-1-2C70.8,51.5,70.8,51,71.8,50.5z"/>
			<path fill="#010101" d="M73.3,49.5c-0.5,0-1,0.5-1.5,1c-0.5,0.5-1,1-1,1.5c0,0.5,0.5,1.5,1,2l1,1.5l-1,1.5c-0.5,0.5-1,1-1,1.5
				c0,0.5,0.5,1,1,1.5l0,0c0.5,0.5,1,0.5,1.5,0.5c0.5,0,1,0,1.5-1l1-1l1,1c1,0.5,1.5,0.5,2,0.5s1,0,1.5-1c0.5-0.5,0.5-1,0.5-1.5
				c0-0.5,0-1-0.5-1.5l-1.5-1.5l1.5-1c0.5-0.5,0.5-1,0.5-2c0-0.5,0-1-0.5-1.5l0,0c0,0-0.5-0.5-1.5-0.5c-0.5,0-1,0.5-2,1l-1,1.5
				l-1-1.5C74.3,50,73.8,49.5,73.3,49.5z"/>
		</g>
	</g>
</g>
<g transform="matrix( 1, 0, 0, 1, 0,0) ">
	<g>
		<g id="Layer5_722_MEMBER_2_FILL">
			
				<radialGradient id="SVGID_2_" cx="-486.2965" cy="-166.9421" r="2.4572" gradientTransform="matrix(3.5005 3.5005 -3.5005 3.5005 1492.3063 2341.4819)" gradientUnits="userSpaceOnUse">
				<stop  offset="0" style="stop-color:#A5A39C"/>
				<stop  offset="1" style="stop-color:#34342F"/>
			</radialGradient>
			<path fill="url(#SVGID_2_)" d="M374.3,42.6c-3.5,0-5.9,1-8.4,3c-2,2.5-3,5.4-3,8.9c0,3.5,1,5.9,3,8.4c2.5,2.5,5.4,4,8.4,4
				c3.5,0,6.4-1.5,8.9-4c2.5-2.5,3.5-5,3.5-8.4c0-3.5-1-6.4-3.5-8.9C380.7,43.6,377.7,42.6,374.3,42.6 M369.8,50.5
				c0.5-0.5,1.5-1,2-0.5c1,0,1.5,0,1.5,0.5l1.5,1l1.5-1.5c0.5-0.5,1-0.5,1.5-0.5c0.5,0,1.5,0,2,0.5c0.5,0.5,0.5,1,0.5,1.5
				c0,0.5-0.5,1.5-0.5,2l-1.5,1.5l1.5,1.5c0.5,0,0.5,0.5,0.5,1.5c0,0.5-0.5,1-0.5,1.5c-0.5,0.5-1,1-2,1c-0.5,0-1,0-1.5-0.5l-1.5-1.5
				l-1.5,1c-0.5,0.5-1,0.5-1.5,0.5c-0.5,0-1,0-2-1c0-0.5-0.5-0.5-0.5-1.5c0-1,0-1.5,0.5-1.5l1.5-1.5l-1.5-1c0-0.5-0.5-1.5-0.5-2
				C369.3,51.5,369.3,51,369.8,50.5z"/>
			<path fill="#010101" d="M371.3,50c-0.5,0-1,0-2,0.5c0,0.5-0.5,1-0.5,1.5c0,0.5,0,1.5,0.5,2l1.5,1l-1.5,1.5c0,0-0.5,0.5-0.5,1.5
				c0,0.5,0,1,0.5,1.5c0.5,0.5,1.5,1,2,1c1,0,1.5,0,1.5-0.5l1.5-1.5l1.5,1.5c0.5,0.5,1,0.5,1.5,0.5c0.5,0,1.5,0,2-1
				c0.5-0.5,0.5-0.5,0.5-1.5s-0.5-1.5-0.5-1.5l-1.5-1.5l1.5-1.5c0.5-0.5,0.5-1,0.5-2c0-0.5-0.5-1-0.5-1.5c-0.5-0.5-1-0.5-2-0.5
				c-0.5,0-1,0-1.5,0.5l-1.5,1.5l-1.5-1C372.8,50,372.3,49.5,371.3,50z"/>
		</g>
	</g>
</g>
<g transform="matrix( 0.39410400390625, 0, 0, 0.39410400390625, 9.1,460.6) ">
	<g>
		<g id="Layer5_723_FILL">
			<path fill="#2F3031" d="M953.7-765.6c0-55-27.2-82.7-82.7-82.7H221.5c-55,0-82.2,27.2-82.2,82.7v650c0,55,27.2,82.7,82.2,82.7
				h650c55,0,82.7-27.2,82.7-82.7v-650H953.7z"/>
		</g>
	</g>
	<g transform="matrix( 2.5373992919921875, 0, 0, 2.5373992919921875, -23.1,-1168.75) ">
		<path id="Layer5_723_1_STROKES" fill="none" stroke="#585C66" stroke-linecap="round" stroke-linejoin="round" d="M45-5464.9h650
			c55,0,82.2,27.2,82.2,82.7v649.5c0,55-27.2,82.7-82.2,82.7H45c-55,0-82.7-27.2-82.7-82.7v-649.5
			C-37.6-5437.7-9.9-5464.9,45-5464.9z"/>
	</g>
</g>
<g transform="matrix( 1, 0, 0, 1, 0,0) ">
	<g>
		<g id="Layer5_724_FILL">
			
				<radialGradient id="SVGID_3_" cx="-155.0188" cy="-275.1669" r="5.525" gradientTransform="matrix(4.9505 0 0 4.9505 1109.901 1536.0579)" gradientUnits="userSpaceOnUse">
				<stop  offset="0" style="stop-color:#505050"/>
				<stop  offset="1" style="stop-color:#010101"/>
			</radialGradient>
			<path fill="url(#SVGID_3_)" d="M322.8,155c-5.4,5.4-7.9,11.9-7.9,18.8c0,7.9,2.5,14.4,7.9,19.8c5.4,5,11.9,7.4,19.3,7.4
				c7.4,0,13.9-2.5,18.8-7.4c5.9-5.4,8.9-12.4,8.9-19.8c0-6.9-3-13.4-8.9-18.8c-5-5.4-11.4-7.9-18.8-7.9
				C334.7,147,328.2,150,322.8,155 M339.6,161.9c0-1,0.5-1.5,1-2.5c0.5-0.5,1.5-0.5,2-0.5h0c0.5,0,1,0,1.5,0.5c0.5,0.5,1,1.5,1,2.5
				v24.8c0,0.5-0.5,1.5-1,2c-0.5,0.5-1,1-1.5,1l0,0c-1,0-1.5-0.5-2-1c-0.5-0.5-1-1-1-2L339.6,161.9L339.6,161.9z"/>
			<path fill="#010101" d="M340.1,159.9c-0.5,0.5-1,1.5-1,2.5v24.8c0,0.5,0.5,1.5,1,2c0.5,0.5,1.5,1,2,1h0.5c0.5,0,1-0.5,1.5-1
				c0.5-0.5,1-1,1-2v-24.8c0-1-0.5-1.5-1-2.5c-0.5-0.5-1-0.5-1.5-0.5l0,0C341.6,158.9,341.1,159.4,340.1,159.9z"/>
		</g>
	</g>
</g>
<g transform="matrix( 1, 0, 0, 1, 0,0) ">
	<g>
		<g id="Layer5_725_FILL">
			
				<radialGradient id="SVGID_4_" cx="-486.2965" cy="-166.9421" r="5.5331" gradientTransform="matrix(3.5005 3.5005 -3.5005 3.5005 1223.7419 2460.7891)" gradientUnits="userSpaceOnUse">
				<stop  offset="0" style="stop-color:#505050"/>
				<stop  offset="1" style="stop-color:#010101"/>
			</radialGradient>
			<path fill="url(#SVGID_4_)" d="M78.2,174.8c0,7.4,3,13.4,7.9,18.8c5.4,5.4,11.9,7.9,19.3,7.9c7.9,0,14.9-2.5,20.3-7.9
				c5-5,7.4-11.4,7.4-19.8c0-7.4-2.5-13.4-7.9-18.8s-11.4-7.9-18.8-8.4c-7.9,0-14.4,3-19.3,7.9C81.2,160.4,78.2,166.8,78.2,174.8
				 M114.4,162.9c1,0,1.5,0,2,1c0.5,0.5,1,1,1.5,2c-0.5,1-0.5,1.5-1.5,2L99,185.6c-0.5,0.5-1,0.5-2,0c-0.5,0-1.5,0-2,0
				c-0.5-1-1-1.5-1-2.5c0-1,0-1.5,0.5-2l17.8-17.3C112.9,163.4,113.4,162.9,114.4,162.9z"/>
			<path fill="#010101" d="M116.3,163.9c-0.5-0.5-1-1-2-1s-1.5,0-2,1l-17.8,17.3c-0.5,0.5-0.5,1-0.5,2c0,0.5,0.5,1.5,1,2.5
				c0.5,0.5,1.5,0.5,2,0c1,0,1.5,0,2,0l17.3-17.8c0.5-0.5,1-1,1.5-2C117.3,164.9,116.8,164.4,116.3,163.9z"/>
		</g>
	</g>
</g>
<g transform="matrix( 1, 0, 0, 1, 0,0) ">
	<g>
		<g id="Layer5_726_FILL">
			
				<radialGradient id="SVGID_5_" cx="-637.4572" cy="263.2865" r="5.5309" gradientTransform="matrix(-1.2876 4.7802 -4.7688 -1.2876 659.7876 3794.676)" gradientUnits="userSpaceOnUse">
				<stop  offset="0" style="stop-color:#505050"/>
				<stop  offset="1" style="stop-color:#010101"/>
			</radialGradient>
			<path fill="url(#SVGID_5_)" d="M210.9,384.7c-6.4,4-10.4,9.4-12.4,16.3c-2,7.4-1.5,14.4,2,20.8c4,6.9,9.9,11.4,17.3,13.4
				c6.9,1.5,13.9,0.5,20.3-3.5s10.4-8.9,12.4-16.3s1-14.4-2.5-20.8c-4-6.9-9.4-10.9-16.3-12.9C224.8,380.2,217.3,381.2,210.9,384.7
				 M211.4,402.5c0.5,0,1,0,2,0l24.3,6.4c0.5,0,1.5,0.5,2,1.5c0.5,0.5,0.5,1.5,0,2.5c0,0.5-0.5,1-1.5,1.5c-0.5,0.5-1.5,0.5-2,0
				l-23.8-6.4c-0.5,0-1.5-0.5-2-1.5c-0.5-0.5-0.5-1-0.5-2C209.9,404,210.4,403.5,211.4,402.5z"/>
			<path fill="#010101" d="M213.4,402.5c-1,0-1.5,0-2,0c-1,0.5-1.5,1.5-2,2c0,1,0,1.5,0.5,2c0.5,1,1,1.5,2,1.5l23.8,6.4
				c0.5,0,1.5,0,2,0c1-0.5,1.5-1,1.5-1.5c0-1,0-2,0-2.5c-0.5-0.5-1-1-2-1.5L213.4,402.5z"/>
		</g>
	</g>
</g>
<g transform="matrix( 1, 0, 0, 1, 0,0) ">
	<g>
		<g id="Layer5_727_FILL">
			<path fill="#010101" d="M107.9,211.9c-5.9,0-10.9-1-15.8-3.5v163.9c0,23.8,11.9,35.6,35.6,35.6h59.9c0-10.4,3.5-18.8,10.9-25.7
				c6.9-6.9,15.8-10.4,25.7-10.4c10.4,0,18.8,3.5,25.7,10.4c7.4,6.9,10.9,15.3,10.9,25.7h59.9c23.8,0,35.6-11.9,35.6-35.6V208.4
				c-4.5,2.5-9.9,3.5-15.8,3.5c-9.9,0-18.8-3.5-25.7-10.4c-6.9-7.4-10.4-15.8-10.4-25.7c0-4,0.5-7.4,1.5-9.9H142.6
				c1,3,1.5,6.4,1.5,9.9c0,9.9-3.5,18.3-10.4,25.7C126.2,208.4,117.8,211.9,107.9,211.9z"/>
		</g>
	</g>
</g>
<g transform="matrix( 1, 0, 0, 1, 0,0) ">
	<g>
		<g id="Layer5_728_FILL">
			<path fill="#FFFFFF" d="M219.3,188.6c0-2.5-0.5-5-2-6.4c-1-1.5-2.5-2-4.5-2s-4,0.5-5,2.5c-1,1.5-2,3.5-2,5.9s0.5,4.5,2,5.9
				c1,1.5,3,2.5,5,2.5s3.5-0.5,4.5-2C218.8,193.1,219.3,191.1,219.3,188.6 M216.8,188.6c0,2-0.5,3.5-1,4.5c-1,1.5-2,2-3,2
				c-1.5,0-3-0.5-3.5-2c-1-1-1.5-2.5-1.5-4.5s0.5-3.5,1.5-4.5c0.5-1,1.5-1.5,3.5-1.5C215.3,182.2,216.8,184.2,216.8,188.6
				 M229.7,188.6v-2h-5.9v-4.5h7.9v-2h-9.9V196h2v-7.4L229.7,188.6 M241.1,188.6v-2h-5.4v-4.5h7.4v-2h-9.9V196h2.5v-7.4L241.1,188.6
				L241.1,188.6z"/>
		</g>
	</g>
</g>
<g transform="matrix( 1, 0, 0, 1, 0,0) ">
	<g>
		<g id="Layer5_729_FILL">
			<path fill="#FFFFFF" d="M165.3,142.6l0.5-2c-0.5-0.5-2-1-3.5-1s-2.5,0.5-3.5,1.5c-1,0.5-1.5,1.5-1.5,2.5c0,1,0.5,2,1,2.5
				c0.5,0.5,1,1.5,2.5,2l1.5,0.5c1,0.5,1.5,1,2,1.5c0,0.5,0.5,1.5,0.5,2c0,0.5-0.5,1.5-1,1.5c-0.5,0.5-1,1-1.5,1c-0.5,0-1.5,0-2-1
				c-1,0-1,0-1.5-0.5l-1.5,2c1,0.5,2.5,1,4,1c2,0,3-0.5,4-1.5c1-1,1.5-2,1.5-3c0-1.5-0.5-2.5-1-3c-0.5-0.5-1-1.5-2.5-2l-1-0.5
				c-1-0.5-1.5-1-1.5-1.5c-0.5,0-0.5,0-0.5-0.5c0-0.5-0.5-0.5-0.5-1.5c0-0.5,0-1,0.5-1.5c0.5-0.5,1-0.5,2-0.5c0.5,0,1,0,1.5,0
				C164.9,142.1,165.3,142.1,165.3,142.6 M180.2,139.6h-2l-4,7.4l-4-7.4h-2l4.5,8.9v6.9h2v-6.9L180.2,139.6 M250.5,142.1h5v13.9h2.5
				v-13.9h5.4v-2.5h-12.9V142.1 M248,139.6h-2v15.8h2V139.6 M289.1,139.6h-2v6.9h-6.9v-6.9h-2v15.8h2v-6.9h6.9v7.4h2V139.6
				 M270.8,139.6c-2,0-3.5,1-4.5,2.5c-1.5,1.5-2,3.5-2,5.9c0,2.5,0.5,4.5,2,5.4c1,1.5,3,2.5,4.5,2.5s4-0.5,5.4-1.5l-1.5-2
				c-1,1.5-2,2-3.5,2c-1.5,0-2.5-0.5-3-2c-1-1-1-2.5-1.5-4.5c0-2,0.5-3.5,1.5-5c1-1,2-1.5,3-1.5c1.5,0,2.5,0,3,0.5l1-1.5
				C273.3,139.6,272.3,139.6,270.8,139.6 M192.6,139.6h-2V151l-7.9-11.4h-0.5v15.8h2v-11.4l8.4,11.4h0.5v-15.8 M202.5,139.6
				c-2,0-4,1-5.4,2.5c-1.5,1.5-2,3.5-2,5.9c0,2.5,0.5,4.5,2,5.4c1.5,1.5,3,2.5,5,2.5c2,0,3.5-0.5,5-1.5l-1.5-2c-1,1.5-2,2-3.5,2
				s-2.5-0.5-3.5-2c-1-1-1.5-2.5-1.5-4.5s0.5-3.5,1.5-5c1-1,2-1.5,3.5-1.5c1.5,0,2.5,0,3,0.5l0.5-1.5
				C205,139.6,204,139.6,202.5,139.6 M227.2,139.6h-2l5,16.3h0.5l4-10.9l4,10.9h1l5-16.3h-2.5l-3.5,11.4l-3.5-11.4h-1l-4,11.4
				L227.2,139.6 M223.3,140.6c-0.5-0.5-1.5-1-3.5-1c-1.5,0-2.5,0.5-3.5,1.5c-1,0.5-1.5,1.5-1.5,2.5c0,1,0.5,2,1,2.5c0,0.5,1,1.5,2,2
				l1,0.5c1,0.5,2,1,2.5,1.5c0,0.5,0.5,1.5,0.5,2c0,0.5-0.5,1.5-1,1.5c-0.5,0.5-1,1-2,1c-0.5,0-1,0-2-1c-0.5,0-1-0.5-1.5-0.5l-1,2
				c1,0.5,2,1,4,1c1.5,0,3-0.5,4-1.5c1-1,1.5-2,1.5-3c0-1.5-0.5-2.5-1-3c-0.5-0.5-1-1.5-2-2l-1.5-0.5c-0.5-0.5-1-1-1.5-1.5
				c-0.5,0-0.5,0-0.5-0.5c-0.5-0.5-0.5-0.5-0.5-1.5c0-0.5,0.5-1,0.5-1.5c0.5-0.5,1-0.5,2-0.5c0.5,0,1,0,1.5,0s1,0.5,1.5,0.5
				L223.3,140.6z"/>
		</g>
	</g>
</g>
<g transform="matrix( 1, 0, 0, 1, 0,0) ">
	<g>
		<g id="Layer5_797_FILL">
			<path fill="#FFFFFF" d="M297,221.3l3-2v12.4h2v-16.3h-0.5c-0.5,0.5-1.5,1.5-2,2.5c-1,0.5-1.5,1.5-2.5,1.5V221.3 M308.4,216.3
				c-1,1-1.5,2-1.5,3c0,1,0,2,0.5,2.5c0.5,1,1.5,1.5,2,2l1.5,0.5c1,0.5,2,1,2,1.5c0.5,0.5,0.5,1,0.5,1.5c0,1-0.5,1.5-0.5,1.5
				c-0.5,0.5-1,1-2,1c-0.5,0-1,0-1.5,0c-0.5,0-1-0.5-1.5-1l-1,2c1,0.5,2,1,3.5,1c1.5,0,3-0.5,4-1.5c1-1,1.5-2,1.5-3s0-2-0.5-2.5
				c-0.5-1-1.5-1.5-2-2l-1.5-0.5c-1-0.5-1.5-1-2-1c-0.5,0-0.5-0.5-0.5-1c0-0.5-0.5-0.5-0.5-1.5c0-0.5,0-1,0.5-1.5
				c0.5-0.5,1-0.5,2-0.5c0.5,0,1,0,1.5,0c0.5,0,1,0.5,1.5,0.5l1-2c-1-0.5-2-1-4-1C310.4,215.3,309.4,215.3,308.4,216.3 M288.1,223.8
				v2h5v-2H288.1 M282.7,215.3h-0.5c-0.5,0.5-1.5,1.5-2,2.5c-1,0.5-1.5,1.5-2.5,1.5v2l3-2v12.4h2V215.3 M264.4,227.7
				c-1-1-1.5-2.5-1.5-4.5s0.5-3.5,1.5-4.5c1-1.5,2-2,4-2c1,0,2,0.5,3,1.5l1-2c-1-1-2.5-1.5-4-1.5c-2.5,0-4.5,1-5.9,2.5
				c-1.5,1.5-2,3.5-2,5.9s0.5,4.5,2,5.9c1.5,1.5,3,2,5,2c1,0,2,0,3-0.5s2-0.5,2.5-1.5v-6.4h-4.5v2h2v4c-0.5,0.5-1.5,1-3,1
				C266.3,229.7,265.3,229.2,264.4,227.7z"/>
		</g>
	</g>
</g>
<text transform="matrix(1 0 0 1 112.843 34.5743)"><tspan x="0" y="0" font-family="'MSReferenceSansSerif'" font-size="24">GENERATOR No 2</tspan><tspan x="2.2" y="28.8" font-family="'MSReferenceSansSerif'" font-size="24">SYNCHRONIZING</tspan><tspan x="57.6" y="57.6" font-family="'MSReferenceSansSerif'" font-size="24">SWITCH</tspan></text>
</svg>
