<?xml version="1.0" encoding="utf-8"?>
<!-- Generator: Adobe Illustrator 18.0.0, SVG Export Plug-In . SVG Version: 6.00 Build 0)  -->
<!DOCTYPE svg PUBLIC "-//W3C//DTD SVG 1.1//EN" "http://www.w3.org/Graphics/SVG/1.1/DTD/svg11.dtd">
<svg version="1.1" id="Layer_1" xmlns="http://www.w3.org/2000/svg" xmlns:xlink="http://www.w3.org/1999/xlink" x="0px" y="0px"
	 viewBox="0 0 450 450" enable-background="new 0 0 450 450" xml:space="preserve">
<g>
	<g transform="matrix( 0.523590087890625, 0, 0, 0.586517333984375, 386.6,418.95) ">
		<g>
			<g id="Layer5_314_MEMBER_0_FILL_1_">
				<path fill="#DFE6EC" d="M121-423.3v-119.4h-414.2v119.4H121z"/>
			</g>
		</g>
	</g>
	<g transform="matrix( 1, 0, 0, 1, 0,0) ">
		<g>
			<g id="Layer5_314_MEMBER_1_FILL_1_">
				
					<radialGradient id="SVGID_1_" cx="-754.7614" cy="437.7695" r="2.4572" gradientTransform="matrix(2.2392 2.2392 -2.2392 2.2392 2914.1055 844.8748)" gradientUnits="userSpaceOnUse">
					<stop  offset="0" style="stop-color:#A5A39C"/>
					<stop  offset="1" style="stop-color:#34342F"/>
				</radialGradient>
				<path fill="url(#SVGID_1_)" d="M236.2,135.2c0,2.2,0.6,4.1,2.2,5.7s3.2,2.2,5.7,2.2c2.2,0,3.8-0.6,5.4-2.2
					c1.6-1.6,2.2-3.2,2.2-5.4c0-2.2-0.6-4.1-2.2-5.7c-1.6-1.3-3.5-1.9-5.4-1.9c-2.2,0-4.1,0.6-5.7,1.9
					C236.8,131.1,236.2,133,236.2,135.2 M246.9,133.3c0,0.3,0,0.6-0.3,1.3l-1,0.6l1,0.6c0.3,0,0.3,0.3,0.3,1c0,0.3,0,0.6-0.3,1
					c-0.3,0.3-0.6,0.6-1,0.6c-0.3,0-1,0-1-0.3l-0.6-1l-1,0.6c-0.3,0.3-0.6,0.6-1,0.6s-1,0-1.3-0.3v-0.3c-0.3-0.3-0.3-0.3-0.3-1
					c0-0.3,0-0.6,0.3-1l0.6-1l-0.6-1c-0.3-0.3-0.3-1-0.3-1.3c0-0.3,0-0.6,0.3-1c0.3-0.3,0.6-0.3,1.3-0.3c0.3,0,0.6,0,1,0.3l1,1
					l0.6-1c0.3-0.3,0.6-0.3,1-0.3c0.3,0,0.6,0,1,0.3l0,0C246.9,132.7,246.9,133,246.9,133.3z"/>
				<path fill="#010101" d="M246.6,134.2c0.3-0.3,0.3-1,0.3-1.3c0-0.3,0-0.6-0.3-1l0,0c-0.3-0.3-0.6-0.3-1-0.3c-0.3,0-1,0.3-1,0.3
					l-0.6,1l-1-1c-0.3-0.3-0.6-0.3-1-0.3s-1,0.3-1.3,0.3c-0.3,0.3-0.3,0.6-0.3,1c0,0.3,0,0.6,0.3,1.3l0.6,1l-0.6,0.6
					c-0.3,0.3-0.3,0.6-0.3,1c0,0.3,0,0.6,0.3,1v0.3c0.3,0.3,0.6,0.3,1.3,0.3c0.6,0,0.6-0.3,1-0.6l1-0.6l0.6,1c0.3,0.3,0.6,0.3,1,0.3
					c0.3,0,0.6-0.3,1-0.6c0.3-0.3,0.3-0.3,0.3-1c0-0.6,0-1-0.3-1l-1-0.6L246.6,134.2z"/>
			</g>
		</g>
	</g>
	<g transform="matrix( 1, 0, 0, 1, 0,0) ">
		<g>
			<g id="Layer5_314_MEMBER_2_FILL_1_">
				
					<radialGradient id="SVGID_2_" cx="-754.7614" cy="437.7695" r="2.4572" gradientTransform="matrix(2.2392 2.2392 -2.2392 2.2392 3108.2292 844.8748)" gradientUnits="userSpaceOnUse">
					<stop  offset="0" style="stop-color:#A5A39C"/>
					<stop  offset="1" style="stop-color:#34342F"/>
				</radialGradient>
				<path fill="url(#SVGID_2_)" d="M430.3,135.2c0,2.2,0.6,4.1,2.2,5.7c1.6,1.6,3.2,2.2,5.4,2.2s4.1-0.6,5.7-2.2s2.5-3.2,2.5-5.7
					c0-1.9-1-3.8-2.5-5.7c-1.3-1.3-3.2-1.9-5.7-1.9c-1.9,0-3.8,0.6-5.4,1.9C431.2,131.1,430.3,133,430.3,135.2 M437.2,132.3l0.6,1
					l1-1c0.3-0.3,0.6-0.3,1.3-0.3c0.3,0,0.3,0,0.6,0.3c0.3,0.3,0.6,1,0.6,1.3c0,0.3-0.3,0.6-0.6,1l-0.6,0.6l0.6,1
					c0.3,0,0.6,0.6,0.6,1.3c0,0.3-0.3,0.3-0.6,0.6c-0.3,0.3-0.3,0.6-0.6,0.6c-0.6,0-1,0-1.3-0.3l-1-1l-0.6,1c-0.3,0.3-0.6,0.3-1,0.3
					s-0.6-0.3-1-0.6c-0.3-0.3-0.6-0.3-0.6-0.6c0-0.6,0.3-1,0.6-1.3l0.6-1l-0.6-0.3c-0.3-0.6-0.6-1-0.6-1.3c0-0.3,0.3-0.6,0.6-1.3
					c0.3-0.3,0.6-0.3,1-0.3S436.9,132,437.2,132.3z"/>
				<path fill="#010101" d="M437.9,133l-0.6-1c-0.3-0.3-0.6-0.3-1-0.3s-0.6,0-1,0.3c-0.3,0.3-0.6,1-0.6,1.3c0,0.3,0.3,0.6,0.6,1.3
					l0.6,0.3l-0.6,1c-0.3,0-0.6,0.6-0.6,1.3c0,0.3,0.3,0.3,0.6,0.6c0.3,0.3,0.6,0.6,1,0.6s1,0,1-0.3l0.6-1l1,1
					c0.3,0.3,0.6,0.3,1.3,0.3c0.3,0,0.3-0.3,0.6-0.6c0.3-0.3,0.6-0.3,0.6-0.6c0-0.6-0.3-1-0.6-1.3l-0.6-1l0.6-0.6
					c0.3-0.3,0.6-0.6,0.6-1c0-0.3-0.3-0.6-0.6-1.3c-0.3-0.3-0.3-0.3-0.6-0.3c-0.6,0-1,0-1.3,0.3L437.9,133z"/>
			</g>
		</g>
	</g>
</g>
<g>
	<g transform="matrix( 0.523590087890625, 0, 0, 0.586517333984375, 386.6,418.95) ">
		<g>
			<g id="Layer5_314_MEMBER_0_FILL_2_">
				<path fill="#DFE6EC" d="M-324.3-420v-119.4h-414.2V-420H-324.3z"/>
			</g>
		</g>
	</g>
	<g transform="matrix( 1, 0, 0, 1, 0,0) ">
		<g>
			<g id="Layer5_314_MEMBER_1_FILL_2_">
				
					<radialGradient id="SVGID_3_" cx="-806.3959" cy="490.26" r="2.4572" gradientTransform="matrix(2.2392 2.2392 -2.2392 2.2392 2914.1055 844.8748)" gradientUnits="userSpaceOnUse">
					<stop  offset="0" style="stop-color:#A5A39C"/>
					<stop  offset="1" style="stop-color:#34342F"/>
				</radialGradient>
				<path fill="url(#SVGID_3_)" d="M3,137.1c0,2.2,0.6,4.1,2.2,5.7s3.2,2.2,5.7,2.2c2.2,0,3.8-0.6,5.4-2.2s2.2-3.2,2.2-5.4
					c0-2.2-0.6-4.1-2.2-5.7c-1.6-1.3-3.5-1.9-5.4-1.9c-2.2,0-4.1,0.6-5.7,1.9C3.6,133,3,134.9,3,137.1 M13.8,135.2
					c0,0.3,0,0.6-0.3,1.3l-1,0.6l1,0.6c0.3,0,0.3,0.3,0.3,1c0,0.3,0,0.6-0.3,1c-0.3,0.3-0.6,0.6-1,0.6c-0.3,0-1,0-1-0.3l-0.6-1
					l-1,0.6c-0.3,0.3-0.6,0.6-1,0.6s-1,0-1.3-0.3v-0.3c-0.3-0.3-0.3-0.3-0.3-1c0-0.3,0-0.6,0.3-1l0.6-1l-0.6-1
					c-0.3-0.3-0.3-1-0.3-1.3c0-0.3,0-0.6,0.3-1c0.3-0.3,0.6-0.3,1.3-0.3c0.3,0,0.6,0,1,0.3l1,1l0.6-1c0.3-0.3,0.6-0.3,1-0.3
					s0.6,0,1,0.3l0,0C13.8,134.6,13.8,134.9,13.8,135.2z"/>
				<path fill="#010101" d="M13.4,136.2c0.3-0.3,0.3-1,0.3-1.3c0-0.3,0-0.6-0.3-1l0,0c-0.3-0.3-0.6-0.3-1-0.3c-0.3,0-1,0.3-1,0.3
					l-0.6,1l-1-1c-0.3-0.3-0.6-0.3-1-0.3s-1,0.3-1.3,0.3c-0.3,0.3-0.3,0.6-0.3,1c0,0.3,0,0.6,0.3,1.3l0.6,1l-0.6,0.6
					c-0.3,0.3-0.3,0.6-0.3,1c0,0.3,0,0.6,0.3,1v0.3c0.3,0.3,0.6,0.3,1.3,0.3c0.6,0,0.6-0.3,1-0.6l1-0.6l0.6,1c0.3,0.3,0.6,0.3,1,0.3
					s0.6-0.3,1-0.6c0.3-0.3,0.3-0.3,0.3-1c0-0.6,0-1-0.3-1l-1-0.6L13.4,136.2z"/>
			</g>
		</g>
	</g>
	<g transform="matrix( 1, 0, 0, 1, 0,0) ">
		<g>
			<g id="Layer5_314_MEMBER_2_FILL_2_">
				
					<radialGradient id="SVGID_4_" cx="-806.3959" cy="490.26" r="2.4572" gradientTransform="matrix(2.2392 2.2392 -2.2392 2.2392 3108.2292 844.8748)" gradientUnits="userSpaceOnUse">
					<stop  offset="0" style="stop-color:#A5A39C"/>
					<stop  offset="1" style="stop-color:#34342F"/>
				</radialGradient>
				<path fill="url(#SVGID_4_)" d="M197.1,137.1c0,2.2,0.6,4.1,2.2,5.7c1.6,1.6,3.2,2.2,5.4,2.2s4.1-0.6,5.7-2.2s2.5-3.2,2.5-5.7
					c0-1.9-1-3.8-2.5-5.7c-1.3-1.3-3.2-1.9-5.7-1.9c-1.9,0-3.8,0.6-5.4,1.9C198.1,133,197.1,134.9,197.1,137.1 M204.1,134.3l0.6,1
					l1-1c0.3-0.3,0.6-0.3,1.3-0.3c0.3,0,0.3,0,0.6,0.3c0.3,0.3,0.6,1,0.6,1.3c0,0.3-0.3,0.6-0.6,1l-0.6,0.6l0.6,1
					c0.3,0,0.6,0.6,0.6,1.3c0,0.3-0.3,0.3-0.6,0.6c-0.3,0.3-0.3,0.6-0.6,0.6c-0.6,0-1,0-1.3-0.3l-1-1l-0.6,1c-0.3,0.3-0.6,0.3-1,0.3
					c-0.3,0-0.6-0.3-1-0.6c-0.3-0.3-0.6-0.3-0.6-0.6c0-0.6,0.3-1,0.6-1.3l0.6-1l-0.6-0.3c-0.3-0.6-0.6-1-0.6-1.3
					c0-0.3,0.3-0.6,0.6-1.3c0.3-0.3,0.6-0.3,1-0.3C203.5,133.9,203.8,133.9,204.1,134.3z"/>
				<path fill="#010101" d="M204.7,134.9l-0.6-1c-0.3-0.3-0.6-0.3-1-0.3c-0.3,0-0.6,0-1,0.3c-0.3,0.3-0.6,1-0.6,1.3
					c0,0.3,0.3,0.6,0.6,1.3l0.6,0.3l-0.6,1c-0.3,0-0.6,0.6-0.6,1.3c0,0.3,0.3,0.3,0.6,0.6c0.3,0.3,0.6,0.6,1,0.6c0.3,0,1,0,1-0.3
					l0.6-1l1,1c0.3,0.3,0.6,0.3,1.3,0.3c0.3,0,0.3-0.3,0.6-0.6c0.3-0.3,0.6-0.3,0.6-0.6c0-0.6-0.3-1-0.6-1.3l-0.6-1l0.6-0.6
					c0.3-0.3,0.6-0.6,0.6-1c0-0.3-0.3-0.6-0.6-1.3c-0.3-0.3-0.3-0.3-0.6-0.3c-0.6,0-1,0-1.3,0.3L204.7,134.9z"/>
			</g>
		</g>
	</g>
</g>
<g transform="matrix( 0.523590087890625, 0, 0, 0.586517333984375, 386.6,418.95) ">
	<g>
		<g id="Layer5_314_MEMBER_0_FILL">
			<path fill="#DFE6EC" d="M-323.9-120.1v-119.4h-414.2v119.4H-323.9z"/>
		</g>
	</g>
</g>
<g transform="matrix( 1, 0, 0, 1, 0,0) ">
	<g>
		<g id="Layer5_314_MEMBER_1_FILL">
			
				<radialGradient id="SVGID_5_" cx="-767.0771" cy="529.5039" r="2.4572" gradientTransform="matrix(2.2392 2.2392 -2.2392 2.2392 2914.1055 844.8748)" gradientUnits="userSpaceOnUse">
				<stop  offset="0" style="stop-color:#A5A39C"/>
				<stop  offset="1" style="stop-color:#34342F"/>
			</radialGradient>
			<path fill="url(#SVGID_5_)" d="M3.2,313c0,2.2,0.6,4.1,2.2,5.7s3.2,2.2,5.7,2.2c2.2,0,3.8-0.6,5.4-2.2s2.2-3.2,2.2-5.4
				s-0.6-4.1-2.2-5.7c-1.6-1.3-3.5-1.9-5.4-1.9c-2.2,0-4.1,0.6-5.7,1.9C3.8,308.9,3.2,310.8,3.2,313 M13.9,311.1
				c0,0.3,0,0.6-0.3,1.3l-1,0.6l1,0.6c0.3,0,0.3,0.3,0.3,1c0,0.3,0,0.6-0.3,1c-0.3,0.3-0.6,0.6-1,0.6c-0.3,0-1,0-1-0.3l-0.6-1
				l-1,0.6c-0.3,0.3-0.6,0.6-1,0.6s-1,0-1.3-0.3v-0.3c-0.3-0.3-0.3-0.3-0.3-1c0-0.3,0-0.6,0.3-1l0.6-1l-0.6-1
				c-0.3-0.3-0.3-1-0.3-1.3s0-0.6,0.3-1c0.3-0.3,0.6-0.3,1.3-0.3c0.3,0,0.6,0,1,0.3l1,1l0.6-1c0.3-0.3,0.6-0.3,1-0.3s0.6,0,1,0.3
				l0,0C13.9,310.5,13.9,310.8,13.9,311.1z"/>
			<path fill="#010101" d="M13.6,312.1c0.3-0.3,0.3-1,0.3-1.3c0-0.3,0-0.6-0.3-1l0,0c-0.3-0.3-0.6-0.3-1-0.3c-0.3,0-1,0.3-1,0.3
				l-0.6,1l-1-1c-0.3-0.3-0.6-0.3-1-0.3s-1,0.3-1.3,0.3c-0.3,0.3-0.3,0.6-0.3,1s0,0.6,0.3,1.3l0.6,1l-0.6,0.6
				c-0.3,0.3-0.3,0.6-0.3,1c0,0.3,0,0.6,0.3,1v0.3c0.3,0.3,0.6,0.3,1.3,0.3c0.6,0,0.6-0.3,1-0.6l1-0.6l0.6,1c0.3,0.3,0.6,0.3,1,0.3
				s0.6-0.3,1-0.6c0.3-0.3,0.3-0.3,0.3-1s0-1-0.3-1l-1-0.6L13.6,312.1z"/>
		</g>
	</g>
</g>
<g transform="matrix( 1, 0, 0, 1, 0,0) ">
	<g>
		<g id="Layer5_314_MEMBER_2_FILL">
			
				<radialGradient id="SVGID_6_" cx="-767.0771" cy="529.5039" r="2.4572" gradientTransform="matrix(2.2392 2.2392 -2.2392 2.2392 3108.2292 844.8748)" gradientUnits="userSpaceOnUse">
				<stop  offset="0" style="stop-color:#A5A39C"/>
				<stop  offset="1" style="stop-color:#34342F"/>
			</radialGradient>
			<path fill="url(#SVGID_6_)" d="M197.3,313c0,2.2,0.6,4.1,2.2,5.7c1.6,1.6,3.2,2.2,5.4,2.2s4.1-0.6,5.7-2.2s2.5-3.2,2.5-5.7
				c0-1.9-1-3.8-2.5-5.7c-1.3-1.3-3.2-1.9-5.7-1.9c-1.9,0-3.8,0.6-5.4,1.9C198.2,308.9,197.3,310.8,197.3,313 M204.3,310.2l0.6,1
				l1-1c0.3-0.3,0.6-0.3,1.3-0.3c0.3,0,0.3,0,0.6,0.3c0.3,0.3,0.6,1,0.6,1.3c0,0.3-0.3,0.6-0.6,1l-0.6,0.6l0.6,1
				c0.3,0,0.6,0.6,0.6,1.3c0,0.3-0.3,0.3-0.6,0.6c-0.3,0.3-0.3,0.6-0.6,0.6c-0.6,0-1,0-1.3-0.3l-1-1l-0.6,1c-0.3,0.3-0.6,0.3-1,0.3
				c-0.3,0-0.6-0.3-1-0.6c-0.3-0.3-0.6-0.3-0.6-0.6c0-0.6,0.3-1,0.6-1.3l0.6-1l-0.6-0.3c-0.3-0.6-0.6-1-0.6-1.3
				c0-0.3,0.3-0.6,0.6-1.3c0.3-0.3,0.6-0.3,1-0.3C203.6,309.9,203.9,309.9,204.3,310.2z"/>
			<path fill="#010101" d="M204.9,310.8l-0.6-1c-0.3-0.3-0.6-0.3-1-0.3c-0.3,0-0.6,0-1,0.3c-0.3,0.3-0.6,1-0.6,1.3s0.3,0.6,0.6,1.3
				l0.6,0.3l-0.6,1c-0.3,0-0.6,0.6-0.6,1.3c0,0.3,0.3,0.3,0.6,0.6s0.6,0.6,1,0.6c0.3,0,1,0,1-0.3l0.6-1l1,1c0.3,0.3,0.6,0.3,1.3,0.3
				c0.3,0,0.3-0.3,0.6-0.6c0.3-0.3,0.6-0.3,0.6-0.6c0-0.6-0.3-1-0.6-1.3l-0.6-1l0.6-0.6c0.3-0.3,0.6-0.6,0.6-1
				c0-0.3-0.3-0.6-0.6-1.3c-0.3-0.3-0.3-0.3-0.6-0.3c-0.6,0-1,0-1.3,0.3L204.9,310.8z"/>
		</g>
	</g>
</g>
<g transform="matrix( 0.523590087890625, 0, 0, 0.586517333984375, 460.15,418.95) ">
	<g>
		<g id="Layer5_315_MEMBER_0_FILL">
			<path fill="#DFE6EC" d="M-19.6-120.1v-119.4h-414.2v119.4H-19.6z"/>
		</g>
	</g>
</g>
<g transform="matrix( 1, 0, 0, 1, 0,0) ">
	<g>
		<g id="Layer5_315_MEMBER_1_FILL">
			
				<radialGradient id="SVGID_7_" cx="-767.0771" cy="529.5039" r="2.4572" gradientTransform="matrix(2.2392 2.2392 -2.2392 2.2392 3147.9722 844.8748)" gradientUnits="userSpaceOnUse">
				<stop  offset="0" style="stop-color:#A5A39C"/>
				<stop  offset="1" style="stop-color:#34342F"/>
			</radialGradient>
			<path fill="url(#SVGID_7_)" d="M239.1,307.3c-1.6,1.6-2.2,3.5-2.2,5.7c0,2.2,0.6,4.1,2.2,5.7s3.5,2.2,5.7,2.2
				c2.2,0,4.1-0.6,5.7-2.2c1.3-1.6,2.2-3.2,2.2-5.4s-0.6-4.1-2.2-5.7c-1.6-1.3-3.5-1.9-5.7-1.9C242.3,305.4,240.7,306.1,239.1,307.3
				 M247.6,311.1c0,0.3,0,0.6,0,1.3l-1,0.6l1,1c0,0,0,0.3,0,1c0,0.3,0,0.6,0,1c-0.3,0.3-1,0.6-1.3,0.6c-0.3,0-0.6,0-1-0.3l-1-1
				l-0.6,0.3c-0.3,0.3-0.6,0.6-1,0.6c-0.3,0-1,0-1.3-0.3v-0.3c-0.3-0.3-0.6-0.3-0.6-1c0-0.3,0-0.6,0.6-1l1-1l-1-1
				c-0.3-0.3-0.6-1-0.6-1.3s0-0.6,0.6-1c0.3-0.3,1-0.3,1.3-0.3c0.3,0,0.6,0,1,0.3l1,1l1-1c0.3-0.3,0.6-0.3,1-0.3c0.3,0,1,0,1.3,0.3
				l0,0C247.6,310.5,247.6,310.8,247.6,311.1z"/>
			<path fill="#010101" d="M247.6,312.1c0-0.3,0-1,0-1.3c0-0.3,0-0.6,0-1l0,0c-0.3-0.3-1-0.3-1.3-0.3c-0.3,0-0.6,0.3-1,0.3l-1,1
				l-0.6-0.6c-0.3-0.3-0.6-0.3-1-0.3c-0.3,0-1,0.3-1.3,0.3c-0.3,0.3-0.6,0.6-0.6,1c0,0.3,0,0.6,0.6,1.3l1,1l-1,0.3
				c-0.3,0.3-0.6,0.6-0.6,1c0,0.3,0,0.6,0.6,1v0.3c0.3,0.3,1,0.3,1.3,0.3c0.3,0,0.6-0.3,1-0.6l1-0.6l1,1c0.3,0.3,0.6,0.3,1,0.3
				c0.3,0,1-0.3,1.3-0.6c0-0.3,0-0.3,0-1s0-1,0-1l-1-1L247.6,312.1z"/>
		</g>
	</g>
</g>
<g transform="matrix( 1, 0, 0, 1, 0,0) ">
	<g>
		<g id="Layer5_315_MEMBER_3_FILL">
			
				<radialGradient id="SVGID_8_" cx="-767.0771" cy="529.5039" r="2.4572" gradientTransform="matrix(2.2392 2.2392 -2.2392 2.2392 3341.7798 844.8748)" gradientUnits="userSpaceOnUse">
				<stop  offset="0" style="stop-color:#A5A39C"/>
				<stop  offset="1" style="stop-color:#34342F"/>
			</radialGradient>
			<path fill="url(#SVGID_8_)" d="M438.3,305.4c-1.9,0-3.8,0.6-5.4,1.9c-1.3,1.6-1.9,3.5-1.9,5.7c0,2.2,0.6,4.1,1.9,5.7
				c1.6,1.6,3.2,2.2,5.4,2.2s4.1-0.6,5.7-2.2c1.6-1.6,2.2-3.2,2.2-5.7c0-1.9-0.6-3.8-2.2-5.7C442.7,306.1,440.8,305.4,438.3,305.4
				 M436.7,309.9c0.6,0,1,0,1,0.3l0.6,1l1-1c0.3-0.3,0.6-0.3,1.3-0.3c0.3,0,0.6,0,1,0.3c0.3,0.3,0.3,1,0.3,1.3c0,0.3,0,0.6-0.3,1
				l-1,0.6l1,1c0.3,0,0.3,0.6,0.3,1.3c0,0.3,0,0.3-0.3,0.6c-0.3,0.3-0.6,0.6-1,0.6c-0.3,0-1,0-1.3-0.3l-1-1l-0.6,1
				c0,0.3-0.3,0.3-1,0.3c-0.3,0-0.6-0.3-1-0.6c-0.3-0.3-0.3-0.3-0.3-0.6c0-0.6,0-1,0.3-1.3l1-1l-1-0.3c-0.3-0.6-0.3-1-0.3-1.3
				c0-0.3,0-0.6,0.3-1.3C436.1,309.9,436.4,309.9,436.7,309.9z"/>
			<path fill="#010101" d="M437.6,310.2c0-0.3-0.3-0.3-1-0.3c-0.3,0-0.6,0-1,0.3c-0.3,0.3-0.3,1-0.3,1.3c0,0.3,0,0.6,0.3,1.3l1,0.3
				l-1,1c-0.3,0-0.3,0.6-0.3,1.3c0,0.3,0,0.3,0.3,0.6c0.3,0.3,0.6,0.6,1,0.6c0.6,0,1,0,1-0.3l0.6-1l1,1c0.3,0.3,0.6,0.3,1.3,0.3
				c0.3,0,0.6-0.3,1-0.6c0.3-0.3,0.3-0.3,0.3-0.6c0-0.6,0-1-0.3-1.3l-1-1l1-0.6c0.3-0.3,0.3-0.6,0.3-1s0-0.6-0.3-1.3
				c-0.3-0.3-0.6-0.3-1-0.3c-0.3,0-1,0-1.3,0.3l-1,1L437.6,310.2z"/>
		</g>
	</g>
</g>
<text transform="matrix(1 0 0 1 25.6839 135.6798)"><tspan x="0" y="0" font-family="'MSReferenceSansSerif'" font-size="18">SPEED CONTROL</tspan><tspan x="0" y="21.6" font-family="'MSReferenceSansSerif'" font-size="18">Rated             Idle</tspan></text>
<text transform="matrix(1 0 0 1 255.7583 133.6331)"><tspan x="0" y="0" font-family="'MSReferenceSansSerif'" font-size="18">VOLTAGE ADJUST</tspan><tspan x="32" y="21.6" font-family="'MSReferenceSansSerif'" font-size="18">RHEOSTAT</tspan></text>
<text transform="matrix(1 0 0 1 273.0137 312.8782)"><tspan x="0" y="0" font-family="'MSReferenceSansSerif'" font-size="18">SPEED ADJUST</tspan><tspan x="19.3" y="21.6" font-family="'MSReferenceSansSerif'" font-size="18">RHEOSTAT</tspan></text>
<text transform="matrix(1 0 0 1 29.6157 309.8698)"><tspan x="0" y="0" font-family="'MSReferenceSansSerif'" font-size="18">DROOP SWITCH</tspan><tspan x="-8" y="21.6" font-family="'MSReferenceSansSerif'" font-size="18">DROOP        ISOC</tspan></text>
</svg>
