<?xml version="1.0" encoding="utf-8"?>
<!-- Generator: Adobe Illustrator 18.0.0, SVG Export Plug-In . SVG Version: 6.00 Build 0)  -->
<!DOCTYPE svg PUBLIC "-//W3C//DTD SVG 1.1//EN" "http://www.w3.org/Graphics/SVG/1.1/DTD/svg11.dtd">
<svg version="1.1" id="Layer_1" xmlns="http://www.w3.org/2000/svg" xmlns:xlink="http://www.w3.org/1999/xlink" x="0px" y="0px"
	 viewBox="0 0 450 450" enable-background="new 0 0 450 450" xml:space="preserve">
<g transform="matrix( 0.7006988525390625, 0, 0, 0.699493408203125, 113.15,154.1) ">
	<g>
		<g id="Layer5_294_MEMBER_0_FILL">
			<path fill="#DFE6EC" d="M78,98.9v-69h-239.4v69H78z"/>
		</g>
	</g>
</g>
<g transform="matrix( 0.5235748291015625, 0, 0, 0.586517333984375, 274.8,193.65) ">
	<g>
		<g id="Layer5_295_MEMBER_0_FILL">
			<path fill="#DFE6EC" d="M-245.1,152.4v-69h-239.4v69H-245.1z"/>
		</g>
	</g>
</g>
<g transform="matrix( 1, 0, 0, 1, 0,0) ">
	<g>
		<g id="Layer5_295_MEMBER_1_FILL">
			
				<radialGradient id="SVGID_1_" cx="-510.445" cy="640.8348" r="2.4614" gradientTransform="matrix(1.2951 1.2951 -1.2951 1.2951 1518.5773 93.6273)" gradientUnits="userSpaceOnUse">
				<stop  offset="0" style="stop-color:#A5A39C"/>
				<stop  offset="1" style="stop-color:#34342F"/>
			</radialGradient>
			<path fill="url(#SVGID_1_)" d="M24.4,259.3c-0.9,0.7-1.3,1.8-1.3,3.1c0,1.3,0.4,2.2,1.3,3.1c0.9,0.9,1.8,1.5,3.3,1.5
				c1.3,0,2.2-0.5,3.3-1.5c0.7-0.9,1.3-1.8,1.3-3.1c0-1.3-0.4-2.4-1.3-3.3c-0.9-0.9-2-1.3-3.3-1.3C26.4,258.1,25.3,258.6,24.4,259.3
				 M29.3,261c0.2,0.2,0.2,0.4,0.2,0.5s0,0.4-0.2,0.5l-0.5,0.5l0.5,0.5c0.2,0.2,0.2,0.4,0.2,0.5c0,0.2,0,0.4-0.2,0.5
				c-0.2,0.2-0.4,0.4-0.5,0.4c-0.2,0-0.4,0-0.5-0.2l-0.5-0.4l-0.5,0c-0.2,0.2-0.2,0.4-0.5,0.4c-0.2,0-0.5,0-0.7-0.2v-0.2
				c-0.2-0.2-0.4-0.2-0.4-0.5c0-0.2,0.2-0.4,0.4-0.5l0.5-0.5l-0.5-0.5c-0.2-0.2-0.4-0.4-0.4-0.5c0-0.2,0.2-0.4,0.4-0.5
				c0.2-0.2,0.5-0.2,0.7-0.4c0.2,0,0.4,0.2,0.5,0.4l0.5,0.4l0.5-0.4c0.2-0.2,0.4-0.2,0.5-0.4C28.9,260.6,29.1,260.6,29.3,261z"/>
			<path fill="#010101" d="M29.5,261.5c0-0.2,0-0.4-0.2-0.5c-0.2-0.2-0.4-0.4-0.5-0.4c-0.2,0.2-0.4,0.2-0.5,0.4l-0.5,0.4l-0.5-0.4
				c-0.2-0.2-0.2-0.4-0.5-0.4c-0.2,0.2-0.5,0.2-0.7,0.4c-0.2,0.2-0.4,0.4-0.4,0.5s0.2,0.4,0.4,0.5l0.5,0.5l-0.5,0.5
				c-0.2,0.2-0.4,0.4-0.4,0.5c0,0.2,0.2,0.4,0.4,0.5v-0.2c0.2,0.2,0.5,0.2,0.7,0.2c0.2,0,0.4-0.2,0.5-0.4l0.5-0.2l0.5,0.4
				c0.2,0.2,0.4,0.2,0.5,0.2c0.2,0,0.4-0.2,0.5-0.4c0.2-0.2,0.2-0.2,0.2-0.5c0-0.2,0-0.4-0.2-0.5l-0.5-0.5l0.5-0.5
				C29.3,261.9,29.5,261.7,29.5,261.5z"/>
		</g>
	</g>
</g>
<g transform="matrix( 1, 0, 0, 1, 0,0) ">
	<g>
		<g id="Layer5_295_MEMBER_2_FILL">
			
				<radialGradient id="SVGID_2_" cx="-510.4397" cy="640.8318" r="2.4559" gradientTransform="matrix(1.2951 1.2951 -1.2951 1.2951 1630.8484 93.6273)" gradientUnits="userSpaceOnUse">
				<stop  offset="0" style="stop-color:#A5A39C"/>
				<stop  offset="1" style="stop-color:#34342F"/>
			</radialGradient>
			<path fill="url(#SVGID_2_)" d="M136.8,259.3c-0.9,0.9-1.3,2-1.3,3.1c0,1.3,0.4,2.2,1.3,3.1c0.7,0.9,1.8,1.5,3.1,1.5
				s2.2-0.5,3.1-1.5c0.9-0.9,1.3-1.8,1.5-3.1c0-1.1-0.5-2.2-1.5-3.1c-0.9-0.9-1.8-1.3-3.1-1.3S137.5,258.6,136.8,259.3 M141.6,261
				c0.2,0.2,0.2,0.5,0.2,0.7c0,0.2,0,0.2-0.2,0.5l-0.5,0.2l0.5,0.5c0.2,0.2,0.2,0.4,0.2,0.5s0,0.4-0.2,0.5c-0.2,0.2-0.4,0.4-0.5,0.4
				c-0.2,0-0.5,0-0.5-0.2l-0.5-0.4l-0.5,0.2c-0.2,0.2-0.4,0.2-0.5,0.2s-0.4-0.2-0.5-0.4c-0.2-0.2-0.4-0.2-0.4-0.5
				c0-0.2,0.2-0.4,0.4-0.5l0.4-0.5l-0.4-0.4c-0.2-0.2-0.4-0.4-0.4-0.5c0-0.2,0.2-0.4,0.4-0.7c0.2-0.2,0.4-0.4,0.5-0.2
				c0.2-0.2,0.4,0,0.5,0.2l0.5,0.4l0.5-0.4c0.2-0.2,0.4-0.4,0.5-0.2C141.2,260.8,141.4,260.8,141.6,261z"/>
			<path fill="#010101" d="M141.8,261.5c0-0.2,0-0.4-0.2-0.7c-0.2-0.2-0.4-0.2-0.5-0.2c-0.2-0.2-0.5,0-0.5,0.2l-0.5,0.4l-0.5-0.4
				c-0.2-0.2-0.4-0.4-0.5-0.2c-0.2-0.2-0.4,0-0.5,0.2s-0.4,0.5-0.4,0.7c0,0.2,0.2,0.4,0.4,0.5l0.4,0.4l-0.4,0.5
				c-0.2,0.2-0.4,0.4-0.4,0.5s0.2,0.4,0.4,0.5c0.2,0.2,0.4,0.4,0.5,0.4c0.2,0,0.4,0,0.5-0.2l0.5-0.4l0.5,0.4
				c0.2,0.2,0.4,0.2,0.5,0.2s0.4-0.2,0.5-0.4c0.2-0.2,0.2-0.2,0.2-0.5c0-0.2,0-0.4-0.2-0.5l-0.5-0.5l0.5-0.5
				C141.6,261.9,141.8,261.7,141.8,261.5z"/>
		</g>
	</g>
</g>
<g transform="matrix( 0.5235748291015625, 0, 0, 0.586517333984375, 440.5,152.45) ">
	<g>
		<g id="Layer5_296_MEMBER_0_FILL">
			<path fill="#DFE6EC" d="M18.1,94v-69h-239.4v69H18.1z"/>
		</g>
	</g>
</g>
<g transform="matrix( 1, 0, 0, 1, 0,0) ">
	<g>
		<g id="Layer5_296_MEMBER_1_FILL">
			
				<radialGradient id="SVGID_3_" cx="-510.4421" cy="640.8318" r="2.4572" gradientTransform="matrix(1.2951 1.2951 -1.2951 1.2951 1822.8813 18.8105)" gradientUnits="userSpaceOnUse">
				<stop  offset="0" style="stop-color:#A5A39C"/>
				<stop  offset="1" style="stop-color:#34342F"/>
			</radialGradient>
			<path fill="url(#SVGID_3_)" d="M331.9,183.3c-1.3,0-2.4,0.4-3.1,1.1c-0.9,0.9-1.5,2-1.5,3.3c0,1.3,0.5,2.4,1.5,3.3
				c0.7,0.9,1.8,1.3,3.1,1.3s2.4-0.4,3.3-1.3c0.7-0.9,1.3-1.8,1.3-3.1c0-1.3-0.4-2.4-1.3-3.3C334.2,183.7,333.2,183.3,331.9,183.3
				 M331.9,186.6l0.4-0.5c0.2-0.2,0.5-0.2,0.7-0.2c0.2,0,0.4,0,0.5,0.2v0.2c0.2,0.2,0.4,0.4,0.4,0.5c0,0.2-0.2,0.4-0.4,0.5l-0.4,0.5
				l0.4,0.5c0.2,0.2,0.4,0.2,0.4,0.5s-0.2,0.4-0.4,0.5c-0.2,0.2-0.2,0.4-0.5,0.4c-0.2,0-0.5,0-0.7-0.2l-0.4-0.5l-0.4,0.5
				c-0.2,0.2-0.5,0.4-0.5,0.4c-0.2,0-0.4,0-0.5-0.2v-0.2c-0.2-0.2-0.4-0.4-0.4-0.5c0-0.2,0.2-0.4,0.4-0.5l0.4-0.5l-0.4-0.5
				c-0.2-0.2-0.4-0.4-0.4-0.5s0.2-0.4,0.4-0.5c0.2-0.2,0.4-0.2,0.5-0.2c0.2,0,0.4,0,0.5,0.2L331.9,186.6z"/>
			<path fill="#010101" d="M332.2,186.1l-0.4,0.5l-0.4-0.5c-0.2,0-0.5-0.2-0.5-0.2c-0.2,0-0.4,0.2-0.5,0.2c-0.2,0.2-0.4,0.4-0.4,0.5
				s0.2,0.4,0.4,0.5l0.4,0.5l-0.4,0.5c-0.2,0.2-0.4,0.2-0.4,0.5s0.2,0.4,0.4,0.5v0.2c0.2,0.2,0.4,0.2,0.5,0.2c0.2,0,0.4-0.2,0.5-0.4
				l0.4-0.5l0.4,0.5c0.2,0.2,0.5,0.2,0.7,0.2c0.2,0,0.4-0.2,0.5-0.4c0.2-0.2,0.4-0.4,0.4-0.5s-0.2-0.4-0.4-0.5l-0.4-0.5l0.4-0.5
				c0.2-0.2,0.4-0.4,0.4-0.5s-0.2-0.4-0.4-0.5v-0.2c-0.2,0-0.2-0.2-0.5-0.2C332.8,185.9,332.6,186.1,332.2,186.1z"/>
		</g>
	</g>
</g>
<g transform="matrix( 1, 0, 0, 1, 0,0) ">
	<g>
		<g id="Layer5_296_MEMBER_2_FILL">
			
				<radialGradient id="SVGID_4_" cx="-510.4421" cy="640.8318" r="2.4572" gradientTransform="matrix(1.2951 1.2951 -1.2951 1.2951 1933.1377 18.8105)" gradientUnits="userSpaceOnUse">
				<stop  offset="0" style="stop-color:#A5A39C"/>
				<stop  offset="1" style="stop-color:#34342F"/>
			</radialGradient>
			<path fill="url(#SVGID_4_)" d="M442.1,183.3c-1.1,0-2.2,0.4-3.1,1.1c-0.9,0.9-1.3,2-1.3,3.3c0,1.3,0.4,2.4,1.3,3.3s2,1.3,3.1,1.3
				c1.3,0,2.4-0.4,3.3-1.3c0.9-0.9,1.3-2,1.3-3.3c0-1.1-0.4-2.2-1.3-3.3C444.7,183.7,443.6,183.3,442.1,183.3 M442.7,185.9
				c0.2,0,0.4,0,0.5,0s0.4,0,0.7,0.2c0.2,0.2,0.2,0.4,0.2,0.5s0,0.4-0.2,0.5l-0.5,0.5l0.5,0.5c0.2,0.2,0.2,0.4,0.2,0.5
				s0,0.4-0.2,0.5c-0.2,0.2-0.5,0.4-0.7,0.4c-0.2,0-0.4,0-0.5-0.2l-0.5-0.5l-0.4,0.5c-0.2,0.2-0.4,0.2-0.7,0.2
				c-0.2,0-0.4-0.2-0.5-0.4s-0.2-0.4-0.2-0.5s0-0.4,0.2-0.5l0.5-0.5l-0.5-0.4c-0.2-0.2-0.2-0.4-0.2-0.7c0-0.2,0-0.4,0.2-0.5
				s0.4-0.2,0.5-0.2c0.4,0,0.5,0,0.7,0.2l0.4,0.4L442.7,185.9z"/>
			<path fill="#010101" d="M443.2,185.9c-0.2,0-0.4,0-0.5,0l-0.5,0.5l-0.4-0.4c-0.2-0.2-0.4-0.2-0.7-0.2c-0.2,0-0.4,0-0.5,0.2
				s-0.2,0.4-0.2,0.5s0,0.5,0.2,0.7l0.5,0.4l-0.5,0.5c-0.2,0.2-0.2,0.4-0.2,0.5s0,0.4,0.2,0.5s0.4,0.4,0.5,0.4c0.4,0,0.5,0,0.7-0.2
				l0.4-0.5l0.5,0.5c0.2,0.2,0.4,0.2,0.5,0.2s0.4-0.2,0.7-0.4c0.2-0.2,0.2-0.4,0.2-0.5s0-0.4-0.2-0.5l-0.5-0.5l0.5-0.5
				c0.2-0.2,0.2-0.4,0.2-0.5s0-0.4-0.2-0.5C443.6,186.1,443.4,185.9,443.2,185.9z"/>
		</g>
	</g>
</g>
<text transform="matrix(1 0 0 1 344.5 192.3079)" font-family="'MSReferenceSansSerif'" font-size="14">SYNC LIGHT</text>
<text transform="matrix(1 0 0 1 62.7377 255)"><tspan x="0" y="0" font-family="'MSReferenceSansSerif'" font-size="10">MANUAL</tspan><tspan x="-28.6" y="12" font-family="'MSReferenceSansSerif'" font-size="10">VOLTAGE CONTROL</tspan><tspan x="-0.4" y="24" font-family="'MSReferenceSansSerif'" font-size="10">MODULE</tspan></text>
<text transform="matrix(1 0 0 1 54.0204 192.3076)" font-family="'MSReferenceSansSerif'" font-size="18">D 398</text>
<text transform="matrix(1 0 0 1 2.7139 215.5)" font-family="'MSReferenceSansSerif'" font-size="18">Gen #2</text>
<text transform="matrix(1 0 0 1 105.3834 212.4762)" font-family="'MSReferenceSansSerif'" font-size="18">(G-2)</text>
</svg>
