<?xml version="1.0" encoding="utf-8"?>
<!-- Generator: Adobe Illustrator 18.0.0, SVG Export Plug-In . SVG Version: 6.00 Build 0)  -->
<!DOCTYPE svg PUBLIC "-//W3C//DTD SVG 1.1//EN" "http://www.w3.org/Graphics/SVG/1.1/DTD/svg11.dtd">
<svg version="1.1" id="Layer_1" xmlns="http://www.w3.org/2000/svg" xmlns:xlink="http://www.w3.org/1999/xlink" x="0px" y="0px"
	 viewBox="0 0 450 450" enable-background="new 0 0 450 450" xml:space="preserve">
<g transform="matrix( 0.523590087890625, 0, 0, 0.586517333984375, -179.2,619.05) ">
	<g>
		<g id="Layer5_730_MEMBER_0_FILL">
			<path fill="#DFE6EC" d="M1096.1-868.6v-187H447.7v187H1096.1z"/>
		</g>
	</g>
</g>
<g transform="matrix( 1, 0, 0, 1, 0,0) ">
	<g>
		<g id="Layer5_730_MEMBER_1_FILL">
			
				<radialGradient id="SVGID_1_" cx="-563.6291" cy="-89.1603" r="2.4577" gradientTransform="matrix(3.5082 3.5082 -3.5082 3.5082 1737.3756 2344.8181)" gradientUnits="userSpaceOnUse">
				<stop  offset="0" style="stop-color:#A5A39C"/>
				<stop  offset="1" style="stop-color:#34342F"/>
			</radialGradient>
			<path fill="url(#SVGID_1_)" d="M72.9,42.7c-3.5,0-6.4,1-8.4,3.5c-2.5,2.5-4,5-4,8.9c0,3.5,1.5,6,4,8.4c2,2.5,5,4,8.4,4
				c3.5,0,6.4-1.5,8.9-4c2-2.5,3-5,3-7.9c0-3.5-1-6.4-3-8.9C79.4,43.7,76.4,42.7,72.9,42.7 M67.5,51.6c0-0.5,0.5-0.5,1-1.5
				c0.5-0.5,1-0.5,2-0.5c0.5,0,1,0.5,1.5,1l1,1.5l1.5-1.5c0-1,0.5-1,1.5-1c1,0,1.5,0.5,2,1l0,0c0.5,0.5,0.5,0.5,0.5,1.5
				c0,0.5,0,1.5-0.5,1.5l-2,1l1.5,1c0.5,0.5,0.5,1,0.5,2c0,0.5,0,1-0.5,1.5c-0.5,0.5-1,0.5-1.5,0.5c-0.5,0-1.5,0-2-0.5l-1.5-1l-1,1
				c-0.5,0.5-1,0.5-1,0.5c-1,0-1.5,0-2-0.5c-0.5-0.5-1-1-1-1.5c0-0.5,0.5-1,1-2l1.5-0.5l-1.5-1.5C68,53.1,67.5,52.6,67.5,51.6z"/>
			<path fill="#010101" d="M68.5,50.6c-0.5,0.5-1,1-1,1.5s0.5,1.5,1,1.5l1.5,1.5l-1.5,0.5c-0.5,0.5-1,1.5-1,2c0,0.5,0.5,1,1,1.5
				c0.5,0.5,1,0.5,2,0.5c0.5,0,1,0,1.5-0.5l1-1l1.5,1c0,0.5,0.5,0.5,1.5,0.5c1,0,1.5,0,2-0.5s0.5-1,0.5-1.5c0-0.5,0-1.5-0.5-2l-2-1
				l1.5-1.5c0.5-0.5,0.5-1,0.5-1.5s0-1-0.5-1.5l0,0c-0.5-0.5-1-0.5-1.5-0.5c-0.5,0-1.5,0-2,1l-1.5,1.5l-1-1.5c-0.5-1-1-1-1-1
				C69.5,49.6,69,49.6,68.5,50.6z"/>
		</g>
	</g>
</g>
<g transform="matrix( 1, 0, 0, 1, 0,0) ">
	<g>
		<g id="Layer5_730_MEMBER_2_FILL">
			
				<radialGradient id="SVGID_2_" cx="-563.6323" cy="-89.1603" r="2.4601" gradientTransform="matrix(3.5082 3.5082 -3.5082 3.5082 2042.0062 2344.8181)" gradientUnits="userSpaceOnUse">
				<stop  offset="0" style="stop-color:#A5A39C"/>
				<stop  offset="1" style="stop-color:#34342F"/>
			</radialGradient>
			<path fill="url(#SVGID_2_)" d="M386,46.1c-2.5-2.5-5-3.5-8.9-3.5c-3.5,0-6,1-8.4,3.5c-2.5,2.5-3.5,5-3.5,8.9c0,3.5,1,6,3.5,8.4
				c2.5,2.5,5.5,4,8.4,4c3.5,0,6.4-1.5,8.9-4c2-2.5,3.5-5,3.5-8.4C389.5,51.1,388.5,48.1,386,46.1 M372.6,52.1c0-0.5,0-1,0.5-1.5
				c0.5-0.5,1-1,2-1c0.5,0,1,0.5,2,1l1,1l1.5-1.5c0.5-0.5,1-1,2-1c0.5,0,1,0.5,1.5,1c0.5,0.5,0.5,1,0.5,1.5s0,1-0.5,1.5l-2,1.5l1,1
				c0.5,0.5,0.5,1,0.5,2c0,0.5,0,1-0.5,1.5s-1,0.5-1.5,0.5c-1,0-1.5,0-2-0.5l-1-1l-1,1c-1,0.5-1.5,0.5-2,0.5c-0.5,0-1.5,0-2-0.5
				c0-0.5,0-1,0-1.5c0-1,0-1.5,0.5-2l1.5-1l-1.5-1C372.6,53.1,372.6,52.6,372.6,52.1z"/>
			<path fill="#010101" d="M373.1,50.6c-0.5,0.5-0.5,1-0.5,1.5s0,1,0.5,2l1.5,1l-1.5,1c-0.5,0-0.5,1-0.5,1.5s0,1,0.5,1.5
				c0.5,0.5,1,0.5,2,0.5c0.5,0,1,0,2-0.5l1-1l1.5,1c0.5,0.5,1,0.5,2,0.5c0.5,0,1,0,1.5-0.5c0.5-0.5,0.5-1,0.5-1.5c0-1,0-1.5-0.5-2
				l-2-1l1-1.5c0.5-0.5,0.5-1,0.5-1.5s0-1-0.5-1.5c-0.5-0.5-1-0.5-1.5-0.5c-1,0-1.5,0.5-2,1l-1,1l-1-1c-1-1-1.5-1-2-1
				C374.1,49.6,373.6,49.6,373.1,50.6z"/>
		</g>
	</g>
</g>
<g transform="matrix( 0.39410400390625, 0, 0, 0.39410400390625, 118.7,460.4) ">
	<g>
		<g id="Layer5_731_FILL">
			<path fill="#2F3031" d="M677-766.7c0-55.1-27.3-82.9-82.9-82.9H-56.8c-55.1,0-82.4,27.3-82.4,82.9v651.4
				c0,55.1,27.3,82.9,82.4,82.9h650.9c55.1,0,82.9-27.3,82.9-82.9L677-766.7L677-766.7z"/>
		</g>
	</g>
	<g transform="matrix( 2.5373992919921875, 0, 0, 2.5373992919921875, -301.2,-1168.2) ">
		<path id="Layer5_731_1_STROKES" fill="none" stroke="#585C66" stroke-linecap="round" stroke-linejoin="round" d="M-1334.6-5476.9
			h651.4c55.1,0,82.4,27.3,82.4,82.9v650.9c0,55.1-27.8,82.9-82.4,82.9h-651.4c-55.1,0-82.4-27.8-82.4-82.9V-5394
			C-1417-5449.1-1389.7-5476.9-1334.6-5476.9z"/>
	</g>
</g>
<g transform="matrix( 1, 0, 0, 1, 0,0) ">
	<g>
		<g id="Layer5_732_FILL">
			
				<radialGradient id="SVGID_3_" cx="-264.5688" cy="-275.1669" r="5.525" gradientTransform="matrix(4.9614 0 0 4.9614 1655.623 1537.4607)" gradientUnits="userSpaceOnUse">
				<stop  offset="0" style="stop-color:#505050"/>
				<stop  offset="1" style="stop-color:#010101"/>
			</radialGradient>
			<path fill="url(#SVGID_3_)" d="M323.5,153.3c-5.5,5.5-8.4,11.9-8.4,18.9c0,7.4,3,14.4,8.4,19.8c5.5,5,11.9,7.4,19.3,7.4
				c7.9,0,14.4-2.5,19.3-7.4c6-6,8.9-12.4,8.9-19.8c0-6.9-3-13.4-8.9-18.9c-5-5-11.4-7.4-19.3-7.4
				C335.4,145.4,328.9,147.9,323.5,153.3 M342.8,157.3L342.8,157.3c1,0,1.5,0.5,2,1s0.5,1,0.5,2v25.3c0,0.5,0,1-0.5,1.5
				c-0.5,0.5-1,1-2,1l0,0c-0.5,0-1.5-0.5-2-1s-1-1.5-1-1.5v-25.3c0-1,0.5-1.5,1-2S342.3,157.3,342.8,157.3z"/>
			<path fill="#010101" d="M343.3,157.3L343.3,157.3c-1,0-1.5,0.5-2,1s-1,1-1,2v25.3c0,0.5,0.5,1,1,1.5c0.5,0.5,1.5,1,2,1l0,0
				c1,0,1.5-0.5,2-1c0.5-0.5,0.5-1.5,0.5-1.5v-25.3c0-1,0-1.5-0.5-2C344.8,157.8,343.8,157.3,343.3,157.3z"/>
		</g>
	</g>
</g>
<g transform="matrix( 1, 0, 0, 1, 0,0) ">
	<g>
		<g id="Layer5_733_FILL">
			
				<radialGradient id="SVGID_4_" cx="-563.6283" cy="-89.1603" r="5.5331" gradientTransform="matrix(3.5082 3.5082 -3.5082 3.5082 1770.369 2462.6516)" gradientUnits="userSpaceOnUse">
				<stop  offset="0" style="stop-color:#505050"/>
				<stop  offset="1" style="stop-color:#010101"/>
			</radialGradient>
			<path fill="url(#SVGID_4_)" d="M133,172.7c0-7.4-3-13.4-7.9-18.9c-5-5-11.4-7.9-18.9-7.9c-7.9,0-14.4,2.5-19.3,7.4
				c-5.5,5.5-8.4,11.9-8.4,19.8c0,7.4,3,13.9,7.9,18.9c5.5,5.5,11.9,7.9,19.3,7.9c7.9,0,14.9-2.5,19.8-7.9
				C130.5,187,133,180.6,133,172.7 M114.6,161.2c1,0,1.5,0,2,1c0.5,0.5,1,1,1.5,2c0,1-0.5,1.5-1.5,1.5l-17.9,17.9
				c-0.5,0.5-1,0.5-1.5,0.5c-1,0-2,0-2.5-0.5c-0.5-1-0.5-1.5-0.5-2c0-1,0-1.5,0.5-2.5l17.9-17.4
				C113.1,161.7,113.6,161.2,114.6,161.2z"/>
			<path fill="#010101" d="M116.6,162.2c-0.5-0.5-1-1-2-1c-0.5,0-1.5,0-2,1l-17.9,17.4c-0.5,0.5-0.5,1.5-0.5,2.5c0,0.5,0,1,0.5,2
				c0.5,0.5,1.5,0.5,2.5,0.5c0.5,0,1,0,1.5-0.5l17.9-17.9c0.5-0.5,1-1,1.5-1.5C117.6,163.2,117.1,162.2,116.6,162.2z"/>
		</g>
	</g>
</g>
<g transform="matrix( 1, 0, 0, 1, 0,0) ">
	<g>
		<g id="Layer5_734_FILL">
			
				<radialGradient id="SVGID_5_" cx="-608.3337" cy="369.7343" r="5.5261" gradientTransform="matrix(-1.2905 4.7907 -4.7793 -1.2905 1207.3302 3798.6563)" gradientUnits="userSpaceOnUse">
				<stop  offset="0" style="stop-color:#505050"/>
				<stop  offset="1" style="stop-color:#010101"/>
			</radialGradient>
			<path fill="url(#SVGID_5_)" d="M232.2,380.5c-6.9-2-13.9-1-20.8,2.5c-6.4,4-10.9,9.4-12.9,16.9c-2,7.4-1,14.4,2.5,20.3
				c4,6.9,9.4,11.4,16.9,13.4c6.9,2,13.9,0.5,20.8-3.5c6.4-3.5,10.4-8.9,12.4-16.4c2-7.4,1-14.4-2.5-20.8
				C244.6,387,239.1,382.5,232.2,380.5 M211.4,401.4c0.5-0.5,1.5-0.5,2,0l24.3,6.4c0.5,0.5,1,1,1.5,1.5c0.5,0.5,0.5,1,0,2
				c0,1-0.5,1.5-1.5,2c-0.5,0-1,0.5-2,0.5l-23.8-6.9c-0.5,0-1-0.5-1.5-1.5c-0.5-0.5-0.5-1-0.5-2
				C210.4,402.9,210.9,402.4,211.4,401.4z"/>
			<path fill="#010101" d="M213.8,401.4c-1,0-2,0-2,0c-1,0.5-1.5,1.5-1.5,2c0,1,0,1.5,0.5,2c0.5,1,1,1.5,1.5,1.5l23.8,6.9
				c1,0,1.5,0,2-0.5c1-0.5,1.5-1,1.5-2c0-1,0-1.5,0-2c-0.5-0.5-1-1-1.5-1.5L213.8,401.4z"/>
		</g>
	</g>
</g>
<g transform="matrix( 1, 0, 0, 1, 0,0) ">
	<g>
		<g id="Layer5_735_FILL">
			<path fill="#010101" d="M107.7,209.9c-5.5,0-10.9-1-15.9-3.5v164.7c0,23.8,11.9,35.2,35.7,35.2h60c0-9.9,4-18.9,11.4-25.8
				c6.9-6.9,15.4-10.4,25.3-10.4s18.9,3.5,25.8,10.4c7.4,6.9,10.9,15.9,10.9,25.8h60c23.8,0,35.7-11.9,35.7-35.2V206.4
				c-4.5,2.5-9.9,3.5-15.4,3.5c-9.9,0-18.9-3.5-26.3-10.9c-6.9-7.4-10.4-15.9-10.4-25.8c0-3.5,0.5-6.9,1.5-9.9H143.4
				c1,3,1.5,6.4,1.5,9.9c0,9.9-3.5,18.4-10.4,25.8C126.5,206.4,118.1,209.9,107.7,209.9z"/>
		</g>
	</g>
</g>
<g transform="matrix( 0.4074554443359375, 0, 0, 0.4074554443359375, 244.1,659.65) ">
	<g>
		
			<text transform="matrix(2.4543 0 0 2.4543 -245.0579 -1238.8408)" fill="#FFFFFF" font-family="'TrebuchetMS'" font-size="22.2374">HEATER SWITCH</text>
	</g>
</g>
<g transform="matrix( 1, 0, 0, 1, 0,0) ">
	<g>
		<g id="Layer5_737_FILL">
			<path fill="#FFFFFF" d="M219.3,181.6c0-2.5-0.5-4.5-2-6c-1-1.5-2.5-2.5-5-2.5c-2,0-3.5,1-5,2.5c-1,1.5-2,3.5-2,6
				c0,2.5,0.5,4.5,2,6c1,1.5,2.5,2,5,2c2,0,3.5-0.5,5-2C218.8,186.5,219.3,184.6,219.3,181.6 M212.8,175.6c3,0,4.5,2,4.5,6
				c0,2-0.5,3.5-1,4.5c-1,1.5-2,2-3.5,2c-1.5,0-2.5-0.5-3-2c-0.5-1-1-2.5-1-4.5s0.5-3.5,1-4.5C210.4,176.1,211.4,175.6,212.8,175.6
				 M231.7,173.6h-9.9v15.9h3v-7.4h5v-2h-5v-4.5h6.9V173.6 M243.1,173.6h-9.9v15.9h2.5v-7.4h5.5v-2h-5.5v-4.5h7.4V173.6z"/>
		</g>
	</g>
</g>
<g transform="matrix( 1, 0, 0, 1, 0,0) ">
	<g>
		<g id="Layer5_738_FILL">
			<path fill="#FFFFFF" d="M301.7,214.8c0-2.5-0.5-4.5-1.5-6c-1-1.5-2.5-2.5-5-2.5c-2,0-3.5,1-4.5,2.5c-1.5,1.5-2,3.5-2,5.5
				c0,2.5,0.5,4.5,2,6c1,1.5,2.5,2.5,4.5,2.5s4-0.5,5-2C301.2,219.3,301.7,217.3,301.7,214.8 M291.7,219.3c-0.5-1.5-0.5-3-0.5-5
				s0-3.5,0.5-4.5c1-1,2-1.5,3.5-1.5c3,0,4.5,2,4.5,6c0,2-0.5,3.5-1,5c-1,1-2,2-3.5,2C293.7,221.3,292.7,220.8,291.7,219.3
				 M313.1,206.9v10.9l-7.9-10.9h-0.5v15.9h2v-11.4l8.4,11.4l0,0v-16.4h-2V206.9z"/>
		</g>
	</g>
</g>
<text transform="matrix(1 0 0 1 118.0818 59.537)" font-family="'MSReferenceSansSerif'" font-size="24">HEATER SWITCH</text>
</svg>
