<?xml version="1.0" encoding="utf-8"?>
<!-- Generator: Adobe Illustrator 18.0.0, SVG Export Plug-In . SVG Version: 6.00 Build 0)  -->
<!DOCTYPE svg PUBLIC "-//W3C//DTD SVG 1.1//EN" "http://www.w3.org/Graphics/SVG/1.1/DTD/svg11.dtd">
<svg version="1.1" id="Layer_1" xmlns="http://www.w3.org/2000/svg" xmlns:xlink="http://www.w3.org/1999/xlink" x="0px" y="0px"
	 viewBox="0 0 450 450" enable-background="new 0 0 450 450" xml:space="preserve">
<g transform="matrix( 0.523590087890625, 0, 0, 0.586517333984375, -398.35,359.95) ">
	<g>
		<g id="Layer5_672_MEMBER_0_FILL">
			<path fill="#DFE6EC" d="M1519.3-424.1v-189.6H861.6v189.6H1519.3z"/>
		</g>
	</g>
</g>
<g transform="matrix( 1, 0, 0, 1, 0,0) ">
	<g>
		<g id="Layer5_672_MEMBER_1_FILL">
			
				<radialGradient id="SVGID_1_" cx="-224.7741" cy="-59.2689" r="2.4572" gradientTransform="matrix(3.5553 3.5553 -3.5553 3.5553 661.7161 1066.5182)" gradientUnits="userSpaceOnUse">
				<stop  offset="0" style="stop-color:#A5A39C"/>
				<stop  offset="1" style="stop-color:#34342F"/>
			</radialGradient>
			<path fill="url(#SVGID_1_)" d="M73.4,44.2c-3.5,0-6,1-8.5,3.5c-2.5,2.5-4,5.5-4,9.1c0,3.5,1,6,4,8.5c2,2.5,5,4,8.5,4
				s6.5-1.5,9.1-4c2-2.5,3.5-5,3.5-8.5c0-3.5-1-6.5-3.5-9.1C79.9,45.3,76.9,44.2,73.4,44.2 M76.4,51.3c0.5,0,1,0,1.5,0.5v0.5
				c0.5,0.5,0.5,1,0.5,1.5s0,1.5-0.5,2l-1.5,1.5l1.5,0.5c0.5,0.5,0.5,1,0.5,1.5s0,1-0.5,1.5s-1,0.5-1.5,0.5c-0.5,0-1,0-1.5-0.5
				l-1.5-1.5l-1,1c-0.5,0.5-1,0.5-1.5,0.5c-1,0-1.5,0-1.5-0.5l0,0c-0.5-0.5-1-1-1-1.5s0-1,1-1.5l1.5-1.5l-2-0.5c-0.5-0.5-1-1-1-2
				c0-0.5,0-0.5,1-1.5c0.5-0.5,1-1,1.5-1s1,0,1.5,0.5l1,1.5l1.5-1C74.9,51.8,75.4,51.8,76.4,51.3z"/>
			<path fill="#010101" d="M77.9,51.8c-0.5-0.5-1-0.5-1.5-0.5s-1,0.5-1.5,1l-1.5,1l-1-1.5c-0.5-0.5-1-0.5-1.5-0.5
				c-1,0-1.5,0.5-1.5,1c-0.5,0.5-1,1-1,1.5s0,1.5,1,2l1.5,1.5l-1.5,1.5c-0.5,0.5-1,1-1,1.5c0,0.5,0,1,1,1.5l0,0
				c0.5,0.5,1,0.5,1.5,0.5s1-0.5,1.5-0.5l1-1l1.5,1.5c0.5,0.5,1,0.5,1.5,0.5c0.5,0,1-0.5,1.5-0.5c0.5-0.5,0.5-1,0.5-1.5
				c0-0.5,0-1-0.5-1.5l-1.5-1.5l1.5-2.5c0.5-0.5,0.5-1,0.5-2C78.4,52.8,78.4,52.3,77.9,51.8L77.9,51.8z"/>
		</g>
	</g>
</g>
<g transform="matrix( 1, 0, 0, 1, 0,0) ">
	<g>
		<g id="Layer5_672_MEMBER_2_FILL">
			
				<radialGradient id="SVGID_2_" cx="-224.7741" cy="-59.2689" r="2.4572" gradientTransform="matrix(3.5553 3.5553 -3.5553 3.5553 964.9005 1066.5182)" gradientUnits="userSpaceOnUse">
				<stop  offset="0" style="stop-color:#A5A39C"/>
				<stop  offset="1" style="stop-color:#34342F"/>
			</radialGradient>
			<path fill="url(#SVGID_2_)" d="M376.6,44.2c-3.5,0-6,1-8.5,3.5c-2.5,2.5-3.5,5.5-3.5,9.1c0,3.5,1,6,3.5,8.5c2.5,2.5,5.5,4,8.5,4
				c3.5,0,6.5-1,9.1-4c2-2.5,3-5,3-8.5c0-3.5-1-6.5-3-9.1C383.1,45.3,380.1,44.2,376.6,44.2 M381.1,52.3c0.5,0.5,1,1,1,1.5
				c0,0.5-0.5,1.5-1,2l-1,1.5l1,1.5c0.5,0.5,1,1,1,2c0,0.5-0.5,0.5-1,1.5c-0.5,0.5-1,0.5-1.5,0.5c-1,0-1.5,0-1.5-0.5l-1.5-1.5
				l-1,1.5c-0.5,0.5-1,0.5-1.5,0.5c-0.5,0-1-0.5-1.5-0.5c-0.5-0.5-0.5-1-0.5-1.5c0-1,0-1.5,0.5-2l1.5-1.5l-1.5-1
				c-0.5-0.5-0.5-1.5-0.5-2c0-0.5,0-0.5,0.5-1.5c0.5-0.5,1.5-1,1.5-0.5c0.5,0,1,0,1.5,0.5l1,0.5l1.5-1.5c0.5-0.5,1-0.5,1.5,0
				C380.1,51.8,380.6,51.8,381.1,52.3z"/>
			<path fill="#010101" d="M381.6,53.8c0-0.5-0.5-0.5-1-1.5c-0.5-0.5-1-0.5-1.5-0.5c-1,0-1.5,0-1.5,0l-1.5,1.5l-1-0.5
				c-0.5-0.5-1-1-1.5-0.5c-0.5,0-1,0-1.5,0.5s-0.5,1-0.5,1.5s0,1.5,0.5,2l1.5,1l-1.5,1.5c-0.5,0.5-0.5,1-0.5,2c0,0.5,0,0.5,0.5,1.5
				c0.5,0.5,1.5,0.5,1.5,0.5c0.5,0,1,0,1.5-0.5l1-1.5l1.5,1.5c0.5,0.5,1,0.5,1.5,0.5c0.5,0,1-0.5,1.5-0.5c0.5-0.5,1-1,1-1.5
				c0-1-0.5-1.5-1-2l-1-1.5l1-1.5C381.6,54.8,381.6,54.3,381.6,53.8z"/>
		</g>
	</g>
</g>
<g transform="matrix( 0.39410400390625, 0, 0, 0.39410400390625, -100.45,200.1) ">
	<g>
		<g id="Layer5_673_FILL">
			<path fill="#2F3031" d="M1238.7-115.9c0-55.8-27.7-83.5-84-83.5H495c-55.8,0-83.5,27.7-83.5,83.5v660.2c0,55.8,27.7,84,83.5,84
				h660.2c55.8,0,84-27.7,84-84v-660.2H1238.7z"/>
		</g>
	</g>
	<g transform="matrix( 2.5373992919921875, 0, 0, 2.5373992919921875, 254.9,-507.75) ">
		<path id="Layer5_673_1_STROKES" fill="none" stroke="#585C66" stroke-linecap="round" stroke-linejoin="round" d="M1440.5-2245
			h660.2c55.8,0,83.5,27.7,83.5,83.5v659.7c0,55.8-27.7,83.5-83.5,83.5h-660.2c-55.8,0-84-28.2-83.5-83.5v-659.7
			C1357.1-2216.8,1384.7-2245,1440.5-2245z"/>
	</g>
</g>
<g transform="matrix( 1, 0, 0, 1, 0,0) ">
	<g>
		<g id="Layer5_674_FILL">
			
				<radialGradient id="SVGID_3_" cx="-45.4188" cy="-14.2668" r="5.525" gradientTransform="matrix(5.0279 0 0 5.0279 573.1844 241.0074)" gradientUnits="userSpaceOnUse">
				<stop  offset="0" style="stop-color:#505050"/>
				<stop  offset="1" style="stop-color:#010101"/>
			</radialGradient>
			<path fill="url(#SVGID_3_)" d="M373.1,169.4c0-7-3-13.6-9.1-19.1c-5-5.5-11.6-8-19.1-8s-14.1,2.5-19.6,8s-8.5,12.1-8.5,19.1
				c0,8,3,14.6,8.5,20.6c5.5,5,12.1,7.5,19.6,7.5s14.1-2.5,19.1-7.5C370.1,184,373.1,177,373.1,169.4 M344.9,154.4L344.9,154.4
				c1,0,1.5,0,2,0.5c0.5,0.5,1,1.5,1,2.5v25.1c0,0.5-0.5,1.5-1,2c-0.5,1-1,1.5-1.5,1.5h-0.5c-1,0-1.5-0.5-2-1.5c-0.5-0.5-1-1-1-2
				v-25.1c0-1,0.5-2,1-2.5C343.4,154.9,343.9,154.4,344.9,154.4z"/>
			<path fill="#010101" d="M344.9,154.4L344.9,154.4c-1,0-1.5,0-2.5,0.5c-0.5,0.5-1,1.5-1,2.5v25.1c0,0.5,0.5,1.5,1,2
				c0.5,1,1,1.5,2,1.5h0.5c0.5,0,1-0.5,1.5-1.5c0.5-0.5,1-1,1-2v-25.1c0-1-0.5-2-1-2.5C346.4,154.9,345.9,154.4,344.9,154.4z"/>
		</g>
	</g>
</g>
<g transform="matrix( 1, 0, 0, 1, 0,0) ">
	<g>
		<g id="Layer5_675_FILL">
			
				<radialGradient id="SVGID_4_" cx="-224.7741" cy="-59.2689" r="5.5331" gradientTransform="matrix(3.5553 3.5553 -3.5553 3.5553 692.8893 1179.3954)" gradientUnits="userSpaceOnUse">
				<stop  offset="0" style="stop-color:#505050"/>
				<stop  offset="1" style="stop-color:#010101"/>
			</radialGradient>
			<path fill="url(#SVGID_4_)" d="M123.7,150.3c-5-5.5-11.6-8-19.1-8c-8,0-14.6,3-19.6,8c-5.5,5.5-8.5,12.1-8.5,20.1
				c0,7.5,3,14.1,8.5,19.1c5.5,5.5,12.1,8,19.1,8c8,0,15.1-2.5,20.6-8c5-5,7.5-11.6,7.5-19.6C131.7,162.4,129.2,155.9,123.7,150.3
				 M111.1,158.9c0.5-0.5,1-0.5,2-0.5s1.5,0,2,0.5c0.5,0.5,1,1.5,1,2s-0.5,1.5-1,2L97.5,181c-0.5,0.5-1,0.5-1.5,0.5
				c-1,0-1.5,0-2.5-0.5c-0.5-1-1-1.5-1-2.5c0-1,0.5-1.5,1-2L111.1,158.9z"/>
			<path fill="#010101" d="M113.1,158.4c-1,0-1.5,0-2,0.5L93,177c-0.5,0.5-1,1-1,2c0,0.5,0.5,1.5,1,2.5c0.5,0.5,1.5,0.5,2.5,0.5
				c0.5,0,1.5,0,1.5-0.5l17.6-18.1c0.5-0.5,1-1,1-2c0-1-0.5-2-1-2C114.6,158.4,114.1,158.4,113.1,158.4z"/>
		</g>
	</g>
</g>
<g transform="matrix( 1, 0, 0, 1, 0,0) ">
	<g>
		<g id="Layer5_676_FILL">
			
				<radialGradient id="SVGID_5_" cx="-414.2503" cy="90.9444" r="5.5307" gradientTransform="matrix(-1.3078 4.855 -4.8434 -1.3078 124.191 2537.7451)" gradientUnits="userSpaceOnUse">
				<stop  offset="0" style="stop-color:#505050"/>
				<stop  offset="1" style="stop-color:#010101"/>
			</radialGradient>
			<path fill="url(#SVGID_5_)" d="M238.8,431.4c6.5-3.5,10.6-9.1,12.6-16.6c2-7.5,1.5-14.6-2.5-21.1c-4-7-9.6-11.1-16.6-13.1
				c-7.5-2-14.6-1-21.6,2.5c-6.5,4-11.1,9.6-13.1,16.6c-2,7.5-1,14.6,2.5,21.1c4,7,10.1,11.6,17.6,13.6
				C224.7,436.4,231.8,435.4,238.8,431.4 M239.8,411.8c0,0.5-0.5,1.5-1.5,2c-0.5,0.5-1,0.5-2,0l-24.1-6.5c-0.5,0-1-0.5-1.5-1.5
				c-0.5-0.5-0.5-1.5-0.5-2.5c0-0.5,0.5-1.5,1.5-2c0.5-0.5,1.5-0.5,2,0l24.1,6.5c0.5,0.5,1.5,1,1.5,1.5
				C239.8,409.8,240.3,410.8,239.8,411.8z"/>
			<path fill="#010101" d="M238.3,413.3c1-0.5,1.5-1,1.5-2c0-1,0-2-0.5-2.5s-1-1-1.5-1.5l-24.1-5.5c-1,0-1.5,0-2,0
				c-1,0.5-1.5,1-1.5,2c0,1,0,2,0.5,2.5c0.5,0.5,1,1,1.5,1.5l24.1,6.5C237.3,413.8,237.8,413.8,238.3,413.3z"/>
		</g>
	</g>
</g>
<g transform="matrix( 1, 0, 0, 1, 0,0) ">
	<g>
		<g id="Layer5_677_FILL">
			<path fill="#010101" d="M306.2,170.9c0-4,0.5-7.5,1.5-10.6H142.3c1,3,1.5,6.5,1.5,10.6c0,10.1-3.5,18.6-10.6,26.1
				c-7.5,7-16.1,10.6-26.6,10.6c-6,0-11.1-1-15.6-3.5v166.9c0,24.1,12.1,36.2,36.2,36.2H188c0-10.1,3.5-19.1,11.1-26.1
				c7-7,16.1-10.6,26.1-10.6c10.6,0,19.1,3.5,26.6,10.6c7.5,7,11.1,16.1,11.1,26.1h61.3c24.1,0,36.7-12.1,36.7-36.2V204.1
				c-5,2.5-10.1,3.5-16.1,3.5c-10.1,0-19.1-3.5-26.1-10.6C309.7,189.6,306.2,180.5,306.2,170.9z"/>
		</g>
	</g>
</g>
<g transform="matrix( 1, 0, 0, 1, 0,0) ">
	<g>
		<g id="Layer5_678_FILL">
			<path fill="#FFFFFF" d="M141.3,131.7h-2.5v16.6h9.6v-2.5h-7V131.7 M160.9,133.2c-1-1.5-2.5-2.5-5-2.5c-2,0-3.5,1-4.5,3
				c-1,1.5-1.5,3.5-1.5,5.5c0,2.5,0.5,4.5,1.5,6c1,2,2.5,3,4.5,3s4-0.5,5-2.5c1.5-1.5,2-4,2-6.5S162.4,134.7,160.9,133.2
				 M155.9,133.2c3,0,4.5,2,4.5,6c0,2-0.5,4-1,5c-1,1-2,1.5-3.5,1.5c-1.5,0-2.5-0.5-3-1.5c-1-1.5-1.5-3-1.5-5c0-2,0.5-3.5,1.5-4.5
				C153.4,133.7,154.4,133.2,155.9,133.2 M166.4,133.7c-1.5,1.5-2.5,3.5-2.5,6c0,2.5,0.5,4,2,5.5c1,2,3,3,5,3s3.5-0.5,5-2l-1.5-1.5
				c-1,1-2,1.5-3.5,1.5s-2.5-0.5-3.5-1.5s-1.5-2.5-1.5-4.5c0-2,0.5-3.5,1.5-5c1-1,2-1.5,3.5-1.5c1.5,0,2.5,0.5,3,0.5l1-2
				c-1-0.5-2.5-1-4-1C169.4,131.2,167.9,132.2,166.4,133.7 M192.1,140.3v2h4.5v-2H192.1 M189.6,131.7h-2l-6,9.1v-9.1h-3v16.6h2.5
				v-4.5l2.5-3l4,7.5h2.5l-6-9.6L189.6,131.7 M212.7,139.3c0-2.5-0.5-4.5-2-6c-1-1.5-2.5-2.5-4.5-2.5s-3.5,1-5,3
				c-1,1.5-1.5,3.5-1.5,5.5c0,2.5,0.5,4.5,1.5,6c1,2,2.5,3,5,3c2,0,4-0.5,4.5-2.5C212.2,144.3,212.7,142.3,212.7,139.3 M202.6,134.7
				c1-1,2-1.5,3.5-1.5c3,0,4.5,2,4.5,6c0,2-0.5,4-1,5c-1,1-2,1.5-3.5,1.5c-1.5,0-2.5-0.5-3.5-1.5c-0.5-1.5-1-3-1-5
				C201.6,137.8,202.1,136.3,202.6,134.7 M215.2,131.7v11.1c0,1.5,0.5,3,1.5,4c1,1,2,1.5,4,1.5c1.5,0,3-0.5,4-1.5c1-1,1.5-2.5,1.5-4
				v-11.1h-2v11.1c0,1-0.5,2-1,2c-0.5,1-1.5,1-3,1.5c-1,0-1.5-0.5-2.5-1.5c-0.5-0.5-1-1-1-2v-11.1H215.2 M241.3,133.7v-2.5h-13.1
				v2.5h5.5v14.1h2v-14.1H241.3 M265,138.3v-4.5h7v-2.5h-9.6v16.6h9.6v-2h-7v-5.5h5v-2H265 M258.4,138.8c1-0.5,1.5-1.5,1.5-2.5
				c0-3.5-2-5-6-5c-0.5,0-1.5,0-2.5,0.5h-1.5v16.6h2v-7.5c1,0,2,0,2.5,0l4,7h3l-5-7.5C257.4,140.3,258.4,139.8,258.4,138.8
				 M253.9,138.8c-0.5,0-1.5,0-1.5-0.5v-4.5c0.5-0.5,1-0.5,1.5-0.5c1.5,0,2.5,0.5,3,0.5c0.5,0.5,1,1,1,2s-0.5,2-1,2
				C255.9,138.8,254.9,138.8,253.9,138.8 M284.6,147.8v-2h-7v-14.6H275v16.6H284.6 M291.6,131.2L291.6,131.2l-7,17.1h2l1.5-3.5h6
				l1,3.5h2.5L291.6,131.2 M291.6,135.8l2,7h-4.5L291.6,135.8 M310.7,131.7h-2l-4.5,7l-4-7h-2l4.5,9.1v7h2.5v-7L310.7,131.7z"/>
		</g>
	</g>
</g>
<g transform="matrix( 1, 0, 0, 1, 0,0) ">
	<g>
		<g id="Layer5_679_FILL">
			<path fill="#FFFFFF" d="M216.2,217.7h-6v-5h8.5v-2.5h-11.1v18.1h11.1v-2h-8.5v-6.5h6V217.7 M225.8,212.2c0.5,0,1.5,0,2,0
				c0.5,0,1,0.5,1.5,0.5l1-2c-1-0.5-2-1-4-1c-1.5,0-2.5,0.5-3.5,1.5c-1,1-1.5,2-1.5,3.5c0,1,0,2,0.5,2.5c0.5,0.5,1.5,1.5,2.5,2
				l1.5,0.5c1.5,0.5,2,1.5,2.5,2c0,0.5,0.5,1,0.5,1.5c0,1-0.5,1.5-1,2c-1,1-2,1-2.5,1c-0.5,0-1,0-1.5,0c-1,0-1.5-0.5-1.5-1l-1,2.5
				c1,0.5,2.5,1,4,1c2,0,3.5-0.5,4.5-1.5c1-1,1.5-2,1.5-3.5c0-1-0.5-2-1-3c-0.5-1-1.5-1.5-2.5-2l-1.5-0.5c-1-0.5-1.5-1-1.5-1.5
				c-1,0-1-0.5-1.5-0.5c0-0.5,0-1,0-1.5c0-1,0-1.5,0.5-2C224.2,212.7,224.7,212.2,225.8,212.2 M198.1,210.2c-0.5,0-1.5,0-3,0h-1.5
				v18.1h2.5v-7.5c1,0,2,0,2.5,0l4.5,7.5h3l-5.5-8c1,0,2-0.5,2.5-2c0.5-1,1-2,1-3C204.1,212.2,202.1,210.2,198.1,210.2 M196.1,212.7
				c0.5,0,1,0,1.5,0c1.5,0,3,0,3.5,0.5c0.5,0.5,1,1.5,1,2c0,1-0.5,2-1,2.5c-0.5,0.5-1.5,1-3.5,1c-0.5,0-1,0-1.5-0.5V212.7
				 M159.9,210.2h-2.5v18.1h2.5V210.2 M167.4,210.2c-0.5,0-1.5,0-3.5,0v18.1h2.5v-7c1,0,1.5,0,1.5,0c4.5,0,7-2,7-6
				C175.5,212.2,173,210.2,167.4,210.2 M173,215.7c0,2.5-1.5,3.5-4.5,3.5c0,0-1,0-1.5,0v-7c0.5,0,1,0,1.5,0
				C170.9,212.7,173,213.7,173,215.7 M134.2,212.7h6v-2.5h-14.1v2.5h6v15.6h2.5v-15.6 M147.3,210.2c-0.5,0-1.5,0-2.5,0h-2v18.1h2.5
				v-7.5c1,0,2,0,2.5,0l4.5,7.5h3l-5.5-8c1,0,2-0.5,2.5-2c0.5-1,1-2,1-3C153.4,212.2,151.3,210.2,147.3,210.2 M145.3,212.7
				c0.5,0,1,0,1.5,0c1.5,0,3,0,3.5,0.5c0.5,0.5,1,1.5,1,2c0,1-0.5,2-1,2.5c-0.5,0.5-1.5,1-3.5,1c-0.5,0-1,0-1.5-0.5V212.7
				 M235.8,219.7h6v-2h-6v-5h8.5v-2.5h-11.1v18.1h11.1v-2h-8.5V219.7 M245.4,210.2v2.5h6v15.6h2v-15.6h6v-2.5H245.4z"/>
		</g>
	</g>
</g>
<text transform="matrix(1 0 0 1 167.1178 50.3184)"><tspan x="0" y="0" font-family="'MSReferenceSansSerif'" font-size="24">LOCKOUT</tspan><tspan x="20.2" y="28.8" font-family="'MSReferenceSansSerif'" font-size="24">RELAY</tspan></text>
</svg>
