<?xml version="1.0" encoding="utf-8"?>
<!-- Generator: Adobe Illustrator 18.0.0, SVG Export Plug-In . SVG Version: 6.00 Build 0)  -->
<!DOCTYPE svg PUBLIC "-//W3C//DTD SVG 1.1//EN" "http://www.w3.org/Graphics/SVG/1.1/DTD/svg11.dtd">
<svg version="1.1" id="Layer_1" xmlns="http://www.w3.org/2000/svg" xmlns:xlink="http://www.w3.org/1999/xlink" x="0px" y="0px"
	 viewBox="0 0 450 450" enable-background="new 0 0 450 450" xml:space="preserve">
<g transform="matrix( 0.5235748291015625, 0, 0, 0.586517333984375, 440.3,231.05) ">
	<g>
		<g id="Layer5_297_MEMBER_0_FILL">
			<path fill="#DFE6EC" d="M-178.8-259.7v-134.1h-464.9v134.1H-178.8z"/>
		</g>
	</g>
</g>
<g transform="matrix( 1, 0, 0, 1, 0,0) ">
	<g>
		<g id="Layer5_297_MEMBER_1_FILL">
			
				<radialGradient id="SVGID_1_" cx="-723.7052" cy="592.1683" r="2.4587" gradientTransform="matrix(2.5154 2.5154 -2.5154 2.5154 3427.77 370.2437)" gradientUnits="userSpaceOnUse">
				<stop  offset="0" style="stop-color:#A5A39C"/>
				<stop  offset="1" style="stop-color:#34342F"/>
			</radialGradient>
			<path fill="url(#SVGID_1_)" d="M126.3,39.5c0-2.5-0.7-4.6-2.1-6.4c-1.8-1.4-3.9-2.1-6.4-2.1s-4.6,0.7-6,2.1
				c-1.8,1.8-2.8,3.9-2.8,6.4c0,2.5,1.1,4.3,2.8,6c1.4,1.8,3.6,2.8,6,2.8s4.6-1.1,6.4-2.8C125.6,43.8,126.3,42,126.3,39.5
				 M120.9,36.3c0.4,0.4,0.7,0.7,0.7,1.1c0,0.4-0.4,0.7-0.7,1.1l-0.7,1.1l0.7,1.1c0.4,0.4,0.7,0.7,0.7,1.1c0,0.7-0.4,1.1-0.7,1.1
				c-0.4,0.4-0.7,0.4-1.1,0.4c-0.4,0-1.1,0-1.4,0l-0.7-1.1l-0.7,0.7C116.7,43,116,43,116,43c-0.4,0-0.7,0-1.1,0v-0.4
				c-0.4-0.4-0.7-0.7-0.7-1.1s0.4-0.7,0.7-1.1l1.1-0.7l-1.1-1.1c-0.4-0.4-0.7-0.7-0.7-1.1s0.4-0.7,0.7-1.1c0.4-0.4,0.7-0.7,1.1-0.7
				c0.4,0,0.7,0,1.1,0.4l0.7,1.4l0.7-1.1c0.4-0.4,1.1-0.7,1.4-0.7C120.2,35.9,120.6,35.9,120.9,36.3L120.9,36.3z"/>
			<path fill="#010101" d="M121.7,37.4c0-0.4-0.4-0.7-0.7-1.1v-0.4c-0.4-0.4-0.7-0.4-1.1-0.4c-0.4,0-1.1,0.4-1.4,0.7l-0.7,1.1
				l-0.7-1.4c-0.4-0.4-1.1-0.4-1.1-0.4c-0.4,0-0.7,0.4-1.1,0.7c-0.4,0.4-0.7,0.7-0.7,1.1s0.4,0.7,0.7,1.1l1.1,1.1l-1.1,0.7
				c-0.4,0.4-0.7,0.7-0.7,1.1c0,0.7,0.4,1.1,0.7,1.1v0.4c0.4,0,0.7,0,1.1,0c0.4,0,0.7,0,1.1-0.4l0.7-1.1l0.7,1.1c0.4,0,1.1,0,1.4,0
				c0.4,0,0.7,0,1.1-0.4c0.4-0.4,0.7-0.7,0.7-1.1s-0.4-0.7-0.7-1.1l-0.7-1.1l0.7-1.1C121.3,38.1,121.7,37.7,121.7,37.4z"/>
		</g>
	</g>
</g>
<g transform="matrix( 1, 0, 0, 1, 0,0) ">
	<g>
		<g id="Layer5_297_MEMBER_2_FILL">
			
				<radialGradient id="SVGID_2_" cx="-723.704" cy="592.1683" r="2.4581" gradientTransform="matrix(2.5154 2.5154 -2.5154 2.5154 3641.5647 370.2437)" gradientUnits="userSpaceOnUse">
				<stop  offset="0" style="stop-color:#A5A39C"/>
				<stop  offset="1" style="stop-color:#34342F"/>
			</radialGradient>
			<path fill="url(#SVGID_2_)" d="M325.5,33.1c-1.8,1.8-2.5,3.9-2.5,6.4c0,2.5,0.7,4.3,2.5,6s3.9,2.8,6.4,2.8c2.5,0,4.6-1.1,6.4-2.8
				s2.5-3.6,2.5-6c0-2.5-0.7-4.6-2.5-6.4c-1.8-1.4-3.6-2.1-6.4-2.1C329.4,30.9,327.3,31.7,325.5,33.1 M332.6,35.9
				c0.4-0.4,0.7-0.4,1.4-0.4c0.4,0,0.7,0.4,1.1,0.7c0.4,0.4,0.4,0.7,0.4,1.1c0,0.4,0,0.7-0.4,1.1l-1.1,1.1l1.1,1.1
				c0.4,0.4,0.4,0.7,0.4,1.4c0,0.4,0,0.7-0.4,1.1c-0.4,0.4-0.7,0.4-1.1,0.4c-0.7,0-1.1,0-1.4,0l-1.1-1.1l-0.7,0.4
				c-0.4,0-0.7,0-1.4,0c-0.4,0-0.7,0-1.1-0.4c-0.4-0.4-0.4-0.7-0.4-1.1c0-0.7,0-1.1,0.4-1.4l1.1-1.1l-1.1-0.7
				c-0.4-0.4-0.4-0.7-0.4-1.1c0-0.4,0-0.7,0.4-1.1c0.4-0.4,0.7-0.7,1.1-0.7c0.7,0,1.1,0,1.4,0.7l0.7,0.7L332.6,35.9z"/>
			<path fill="#010101" d="M333.7,35.9c-0.7,0-1.1,0-1.4,0.4l-1.1,1.1l-0.7-0.7c-0.4-0.4-0.7-0.7-1.4-0.7c-0.4,0-0.7,0-1.1,0.7
				c-0.4,0.4-0.4,0.7-0.4,1.1s0,0.7,0.4,1.1l1.1,0.7l-1.1,1.1c-0.4,0.4-0.4,0.7-0.4,1.4c0,0.4,0,0.7,0.4,1.1
				c0.4,0.4,0.7,0.4,1.1,0.4c0.7,0,1.1,0,1.4,0l0.7-1.1l1.4,0.4c0.4,0,0.7,0,1.4,0c0.4,0,0.7,0,1.1-0.4c0.4-0.4,0.4-0.7,0.4-1.1
				c0-0.7,0-1.1-0.4-1.4l-1.1-1.1l1.1-1.1c0.4-0.4,0.4-0.7,0.4-1.1s0-0.7-0.4-1.1C334.4,35.9,334,35.9,333.7,35.9z"/>
		</g>
	</g>
</g>
<g transform="matrix( 0.4074554443359375, 0, 0, 0.4074554443359375, 420.8,243.6) ">
	<g>
		<g id="Layer5_298_FILL">
			<path fill="#232324" d="M-38-282.5c0-26.7-9.6-49.4-28.5-68.7c-18.9-18.9-41.6-28.5-68.3-28.5H-827c-26.7,0-49.4,9.2-68.7,28.5
				c-18.9,18.9-28.1,42-28.1,68.7v692.3c0,26.7,9.6,49.4,28.1,68.3c18.9,18.9,42,28.5,68.7,28.5h692.3c26.7,0,49.4-9.6,68.3-28.5
				c18.9-18.9,28.5-41.6,28.5-68.3V-282.5z"/>
		</g>
	</g>
</g>
<g transform="matrix( 0.4074554443359375, 0, 0, 0.4074554443359375, 420.8,243.6) ">
	<g>
		<g id="Layer5_299_FILL">
			<path fill="#010101" d="M-49.4,63.6c0-119.2-42-220.9-126.3-305.2s-186-126.6-305.2-126.6s-220.9,42-305.2,126.6
				c-84.3,84.3-126.6,186-126.6,305.2s42.3,220.9,126.6,305.2c84.3,84.3,186,126.6,305.2,126.6s220.9-42.3,305.2-126.6
				C-91.4,284.2-49.4,182.5-49.4,63.6z"/>
		</g>
	</g>
</g>
<g transform="matrix( 1.05303955078125, 0, 0, 1.05303955078125, -82.7,-18) ">
	<g>
		<g id="Layer5_300_FILL">
			<path fill="#E8E3DD" d="M403.8,384.6c30.9-30.9,46.2-68.3,46.2-112.1c0-43.8-15.3-81.1-46.2-112.1s-67.9-46.2-111.7-46.2
				S211,129.9,180,160.5c-30.9,30.9-46.2,67.9-46.2,112.1c0,43.8,15.3,81.1,46.2,112.1s68.3,46.2,112.1,46.2
				C335.9,431.2,373.2,415.5,403.8,384.6z"/>
		</g>
	</g>
</g>
<g transform="matrix( 1.05303955078125, 0, 0, 1.05303955078125, -82.7,-18) ">
	<g>
		<g id="Layer5_301_FILL">
			<path fill="#FFFFFF" d="M403.8,384.6c30.9-30.9,46.2-68.3,46.2-112.1c0-43.8-15.3-81.1-46.2-112.1s-67.9-46.2-111.7-46.2
				S211,129.9,180,160.5c-30.9,30.9-46.2,67.9-46.2,112.1c0,43.8,15.3,81.1,46.2,112.1s68.3,46.2,112.1,46.2
				C335.9,431.2,373.2,415.5,403.8,384.6 M424.8,272.9c0,36.6-13.2,68.3-39.1,94.3s-57.3,39.1-93.9,39.1s-67.9-12.8-94.3-39.1
				c-26-26-38.8-57.6-38.8-94.3s12.8-67.9,38.8-93.9s57.3-39.1,94.3-39.1s67.9,13.2,93.9,39.1C412,204.9,424.8,236.2,424.8,272.9z"
				/>
		</g>
	</g>
</g>
<g transform="matrix( 1, 0, 0, 1, 0,0) ">
	<g>
		<g id="Layer5_302_FILL">
			
				<radialGradient id="SVGID_3_" cx="-867.5748" cy="76.8332" r="3.9125" gradientTransform="matrix(3.5573 0 0 3.5573 3168.8538 -151.4217)" gradientUnits="userSpaceOnUse">
				<stop  offset="0" style="stop-color:#505050"/>
				<stop  offset="1" style="stop-color:#010101"/>
			</radialGradient>
			<path fill="url(#SVGID_3_)" d="M96.4,122c0-3.9-1.4-7.1-4.3-10c-2.5-2.8-6-4.3-10-4.3s-7.1,1.4-10,4.3c-2.8,2.8-3.9,6-3.9,10
				c0,3.6,1.4,6.8,3.9,9.6c2.8,2.5,6,3.9,10,3.9s7.1-1.4,10-3.9C95,128.8,96.4,125.6,96.4,122 M80.8,115.3c0.4-0.4,1.1-0.7,1.8-0.7
				c1.1,0,1.4,0.4,1.8,0.7c0.7,0.7,1.1,1.4,1.1,1.8v1.8h1.8c0.7,0,1.4,0.4,1.8,0.7c0.4,0.4,0.7,1.1,0.7,2.1c0,0.4-0.4,1.1-0.7,1.8
				c-0.4,0.4-1.1,0.4-1.8,0.4h-1.8v2.1c0,0.7-0.4,1.1-1.1,1.4c-0.4,0.7-0.7,1.1-1.8,1.1c-0.7,0-1.4-0.4-1.8-1.1
				c-0.4-0.4-0.7-0.7-0.7-1.4v-2.1h-1.8c-0.7,0-1.1-0.4-1.8-0.4c-0.7-0.7-1.1-1.4-1.1-1.8c0-1.1,0.4-1.8,1.1-2.1
				c0.4-0.4,1.1-0.7,1.8-0.7H80V117C80,116.7,80.4,116,80.8,115.3z"/>
			<path fill="#010101" d="M82.5,114.5c-0.7,0-1.4,0.4-1.8,0.7c-0.4,0.7-0.7,1.4-0.7,1.8v1.8h-1.8c-0.7,0-1.1,0.4-1.8,0.7
				c-0.7,0.4-1.1,1.1-1.1,2.1c0,0.4,0.4,1.1,1.1,1.8c0.4,0.4,1.1,0.4,1.8,0.4H80v2.1c0,0.7,0.4,1.1,0.7,1.4c0.4,0.7,1.1,1.1,1.8,1.1
				c1.1,0,1.4-0.4,1.8-1.1c0.7-0.4,1.1-0.7,1.1-1.4v-2.1h1.8c0.7,0,1.4-0.4,1.8-0.4c0.4-0.7,0.7-1.4,0.7-1.8c0-1.1-0.4-1.8-0.7-2.1
				c-0.4-0.4-1.1-0.7-1.8-0.7h-1.8V117c0-0.7-0.4-1.4-1.1-1.8C84.3,114.9,83.6,114.5,82.5,114.5z"/>
		</g>
	</g>
</g>
<g transform="matrix( 1, 0, 0, 1, 0,0) ">
	<g>
		<g id="Layer5_303_FILL">
			
				<radialGradient id="SVGID_4_" cx="-867.5749" cy="76.8332" r="3.9125" gradientTransform="matrix(3.5573 0 0 3.5573 3459.8418 -151.4217)" gradientUnits="userSpaceOnUse">
				<stop  offset="0" style="stop-color:#505050"/>
				<stop  offset="1" style="stop-color:#010101"/>
			</radialGradient>
			<path fill="url(#SVGID_4_)" d="M383.1,131.6c2.8-2.8,4.3-6,4.3-9.6c0-3.9-1.4-7.1-4.3-10c-2.5-2.8-5.7-4.3-9.6-4.3
				c-3.9,0-7.1,1.4-10,4.3c-2.8,2.8-4.3,6-4.3,10c0,3.6,1.4,6.8,4.3,9.6c2.5,2.5,5.7,3.9,10,3.9
				C377.4,135.5,380.6,134.1,383.1,131.6 M376,117v1.8h1.8c0.7,0,1.4,0.4,1.8,0.7c0.4,0.4,0.7,1.1,0.7,2.1c0,0.4,0,1.1-0.7,1.8
				c-0.4,0.4-1.1,0.4-1.8,0.4H376v2.1c0,0.7-0.4,1.1-0.7,1.4c-0.4,0.7-1.1,1.1-1.8,1.1s-1.4-0.4-1.8-1.1c-0.4-0.4-0.7-0.7-0.7-1.4
				v-2.1h-2.1c-0.7,0-1.1-0.4-1.8-0.4c-0.4-0.7-0.7-1.4-0.7-1.8c0-1.1,0.4-1.8,0.7-2.1c0.4-0.4,1.1-0.7,1.8-0.7h2.1V117
				c0-0.7,0.4-1.4,0.7-1.8c0.4-0.4,1.1-0.7,1.8-0.7s1.4,0.4,1.8,0.7C376,116,376,116.7,376,117z"/>
			<path fill="#010101" d="M376,119.2v-1.8c0-0.7-0.4-1.4-0.7-1.8c-0.4-0.4-1.1-0.7-1.8-0.7s-1.4,0.4-1.8,0.7
				c-0.4,0.7-0.7,1.4-0.7,1.8v1.8h-2.1c-0.7,0-1.1,0.4-1.8,0.7c-0.4,0.4-0.7,1.1-0.7,2.1c0,0.4,0.4,1.1,0.7,1.8
				c0.4,0.4,1.1,0.4,1.8,0.4h2.1v2.1c0,0.7,0.4,1.1,0.7,1.4c0.4,0.7,1.1,1.1,1.8,1.1s1.4-0.4,1.8-1.1c0.4-0.4,0.7-0.7,0.7-1.4v-2.1
				h1.8c0.7,0,1.4-0.4,1.8-0.4c0.4-0.7,0.7-1.4,0.7-1.8c0-1.1,0-1.8-0.7-2.1c-0.4-0.4-1.1-0.7-1.8-0.7H376z"/>
		</g>
	</g>
</g>
<g transform="matrix( 1, 0, 0, 1, 0,0) ">
	<g>
		<g id="Layer5_304_FILL">
			
				<radialGradient id="SVGID_5_" cx="-867.5749" cy="76.8332" r="3.9125" gradientTransform="matrix(3.5573 0 0 3.5573 3459.8418 145.6139)" gradientUnits="userSpaceOnUse">
				<stop  offset="0" style="stop-color:#505050"/>
				<stop  offset="1" style="stop-color:#010101"/>
			</radialGradient>
			<path fill="url(#SVGID_5_)" d="M363.9,428.7c2.8,2.5,6,3.9,10,3.9c3.9,0,7.1-1.4,9.6-3.9c2.8-2.8,4.3-6,4.3-9.6
				c0-3.9-1.4-7.1-4.3-10.3c-2.5-2.5-5.7-3.9-9.6-3.9s-7.1,1.4-10,3.9c-2.8,2.8-4.3,6.4-4.3,10.3
				C359.6,422.3,361.1,425.5,363.9,428.7 M376,416.2h1.8c0.7,0,1.4,0.4,1.8,1.1c0.4,0.4,0.7,1.1,0.7,2.1c0,0.4,0,1.1-0.7,1.4
				c-0.4,0.4-1.1,0.7-1.8,0.7H376v2.1c0,0.4-0.4,1.1-0.7,1.4c-0.4,0.4-1.1,0.7-1.4,0.7h-0.4c-0.7,0-1.4-0.4-1.8-0.7
				c-0.4-0.7-0.7-1.1-0.7-1.4v-2.1h-1.8c-0.7,0-1.4-0.4-1.8-0.7c-0.4-0.7-0.7-1.1-0.7-1.4c0-1.1,0.4-1.8,0.7-2.1
				c0.4-0.7,1.1-1.1,1.8-1.1h1.8v-1.8c0-0.7,0.4-1.4,0.7-1.8c0.4-0.4,1.1-0.4,1.8-0.4h0.4c0.7,0,1.1,0,1.4,0.4
				c0.4,0.7,0.7,1.4,0.7,1.8V416.2z"/>
			<path fill="#010101" d="M378.1,416.2h-1.8v-1.8c0-0.7-0.4-1.4-0.7-1.8c-0.4-0.4-1.1-0.4-1.4-0.4h-0.4c-0.7,0-1.4,0-1.8,0.4
				c-0.4,0.7-0.7,1.4-0.7,1.8v1.8h-1.8c-0.7,0-1.4,0.4-1.8,1.1c-0.4,0.4-0.7,1.1-0.7,2.1c0,0.4,0.4,1.1,0.7,1.4
				c0.4,0.4,1.1,0.7,1.8,0.7h1.8v2.1c0,0.4,0.4,1.1,0.7,1.4s1.1,0.7,1.8,0.7h0.4c0.7,0,1.1-0.4,1.4-0.7c0.4-0.7,0.7-1.1,0.7-1.4
				v-2.1h1.8c0.7,0,1.4-0.4,1.8-0.7c0.4-0.7,0.7-1.1,0.7-1.4c0-1.1,0-1.8-0.7-2.1C379.2,416.6,378.9,416.2,378.1,416.2z"/>
		</g>
	</g>
</g>
<g transform="matrix( 1, 0, 0, 1, 0,0) ">
	<g>
		<g id="Layer5_305_FILL">
			
				<radialGradient id="SVGID_6_" cx="-867.5749" cy="76.8332" r="3.9125" gradientTransform="matrix(3.5573 0 0 3.5573 3163.6956 145.0803)" gradientUnits="userSpaceOnUse">
				<stop  offset="0" style="stop-color:#505050"/>
				<stop  offset="1" style="stop-color:#010101"/>
			</radialGradient>
			<path fill="url(#SVGID_6_)" d="M91.8,418.3c0-3.6-1.4-6.8-4.6-9.6c-2.5-2.5-5.7-3.9-10-3.9c-3.6,0-6.8,1.4-9.6,3.9
				c-2.8,2.8-4.3,6-4.3,9.6c0,3.9,1.4,7.1,4.3,10c2.8,2.5,6,3.9,9.6,3.9c3.9,0,7.1-1.4,10-3.9C90.4,425.5,91.8,422.3,91.8,418.3
				 M77.9,411.9c0.7,0,1.1,0,1.8,0.4c0.4,0.7,0.7,1.4,0.7,1.8v1.8h1.8c0.7,0,1.1,0.4,1.8,1.1c0.4,0.4,0.4,0.7,0.4,1.4v0.4
				c0,0.4,0,1.1-0.4,1.4c-0.7,0.4-1.4,0.7-1.8,0.7h-1.8v1.8c0,0.7-0.4,1.1-0.7,1.8c-0.4,0.4-1.1,0.7-1.8,0.7h-0.4
				c-0.4,0-1.1-0.4-1.8-0.7c-0.4-0.7-0.4-1.1-0.4-1.8v-1.8h-2.1c-0.7,0-1.4-0.4-1.8-0.7c-0.4-0.7-0.7-1.1-0.7-1.4v-0.4
				c0-0.7,0.4-1.1,0.7-1.4c0.4-0.7,1.1-1.1,1.8-1.1h1.8v-1.8c0-0.7,0-1.4,0.4-1.8c0.7-0.4,1.4-0.4,1.8-0.4H77.9z"/>
			<path fill="#010101" d="M79.7,412.3c-0.4-0.4-1.1-0.4-1.8-0.4h-0.4c-0.4,0-1.1,0-1.8,0.4c-0.4,0.7-0.4,1.4-0.4,1.8v1.8h-2.1
				c-0.7,0-1.4,0.4-1.8,1.1c-0.4,0.4-0.7,0.7-0.7,1.4v0.4c0,0.4,0.4,1.1,0.7,1.4c0.4,0.4,1.1,0.7,1.8,0.7h1.8v1.8
				c0,0.7,0,1.1,0.4,1.8c0.7,0.4,1.4,0.7,1.8,0.7h0.7c0.7,0,1.1-0.4,1.8-0.7c0.4-0.7,0.7-1.1,0.7-1.8v-1.8h1.8
				c0.7,0,1.1-0.4,1.8-0.7c0.4-0.7,0.4-1.1,0.4-1.4v-0.4c0-0.7,0-1.1-0.4-1.4c-0.7-0.7-1.4-1.1-1.8-1.1h-1.8v-1.8
				C80.4,413.7,80,413,79.7,412.3z"/>
		</g>
	</g>
</g>
<g transform="matrix( 1, 0, 0, 1, 0,0) ">
	<g>
		<g id="Layer5_306_FILL">
			<path fill="#16151A" d="M230.2,104.2l-10.3-0.4l5.3,26L230.2,104.2z"/>
		</g>
	</g>
</g>
<g transform="matrix( 1, 0, 0, 1, 0,0) ">
	<g>
		<g id="Layer5_307_FILL">
			<path fill="#292929" d="M265.7,149.4l-7.5-2.5c-0.7,0-1.8-0.4-2.8-0.7c-1.1-0.4-2.1-0.4-2.5-0.7l-2.5-0.4c0,1.1,0.7,1.8,1.8,2.8
				c0.4,0.4,1.1,0.7,1.8,1.4l2.1,1.4h-2.8c-0.7,0-1.4,0.4-2.1,0.4c-1.1,0.4-2.1,1.1-2.5,1.8l2.5,0.4c0.4,0,1.1,0.4,2.1,0.4
				c1.1,0.4,2.1,0.4,2.8,0.7l7.1,2.1c0.4-0.4,1.4-0.7,2.8-1.1c0.7,0,1.4-0.4,2.5-0.4l17.8,8.5c0.7,0.4,2.1,1.4,5,3.2
				c1.1,0.4,2.5,1.8,4.6,3.6c0.7,0.4,1.4,1.1,2.5,1.8c0.4,0.4,1.1,0.7,2.1,1.8c0.7,0.4,1.4,1.1,2.1,1.8c0.7,0.7,1.4,1.4,2.1,1.8
				c0.4,0.7,1.8,1.8,3.9,3.6l3.6,3.6c0.4,0.7,1.1,1.8,2.1,3.2l3.9,4.6c-1.1-0.4-1.8-0.4-2.5-0.4s-1.4,0.4-1.8,0.7
				c3.9,1.4,7.8,4.3,11.7,8.2c-1.1-2.1-2.1-4.6-2.8-7.1c-0.4-1.8-1.1-3.9-1.8-6.8c-1.1,1.4-1.4,2.8-1.4,4.6l-3.6-4.6
				c0,0-1.1-1.1-2.8-2.8l-3.6-3.6c-2.1-2.1-3.6-3.6-3.9-3.6c-1.8-1.8-3.6-3.2-4.6-3.9c-2.5-1.8-3.9-2.8-4.6-3.6
				c-2.5-1.8-4.3-3.2-5-3.6c-2.5-1.4-3.9-2.5-5-3.2l-14.2-7.1l-3.9-1.8c0,0-0.7-0.7-1.8-1.8C266.4,150.5,265.7,149.8,265.7,149.4
				 M139.8,180.4l-3.2,3.6c-0.7,0.7-1.8,1.8-2.8,2.8l-3.6,4.6c0-1.1,0-1.8-0.4-2.8c-0.4-0.7-0.7-1.4-1.1-1.8
				c-1.1,4.6-2.5,9.2-4.6,13.9c3.2-3.6,7.1-6.4,11.4-8.2c-1.4-0.7-2.8-1.1-4.3-0.4l3.6-4.6c1.1-1.1,2.1-2.1,2.8-3.2l3.2-3.6
				c2.1-2.1,3.6-3.2,3.9-3.6c2.5-1.8,3.9-3.2,4.3-3.6c2.1-1.8,3.9-2.8,5-3.6c1.1-0.7,1.8-1.4,2.1-1.8c1.1-0.7,1.8-1.4,2.5-1.8
				c2.8-1.8,4.6-2.8,4.6-3.2l18.1-8.5c0.7,0,1.4,0,2.5,0.4c1.4,0.4,2.1,0.7,2.5,1.1l7.1-2.1c0.7-0.4,1.8-0.4,2.8-0.7
				c0.4,0,1.4-0.4,2.5-0.4l2.5-0.4c-0.7-0.7-1.4-1.4-2.5-1.8c-0.7,0-1.4-0.4-2.1-0.4c-0.4,0-0.7,0-1.4,0h-1.4l1.1-0.7
				c0.4,0,0.7-0.4,1.1-0.4c0.7-0.4,1.1-1.1,1.8-1.4c1.1-1.1,1.8-2.1,1.8-2.8l-2.5,0.4c-1.1,0.4-1.8,0.4-2.5,0.4
				c-1.1,0.4-2.1,0.4-2.8,0.7l-7.5,2.8c0,0.4-0.4,1.4-1.4,2.5c-1.1,1.1-1.4,1.8-1.8,1.8l-9.2,3.9c-0.4,0-1.8,0.7-4.3,2.1l-5,2.8
				c-1.1,0.7-2.5,1.4-4.6,3.2c-0.4,0.4-2.1,1.4-5,3.6c-0.4,0.4-2.1,1.4-4.6,3.6c-0.7,0.4-2.1,1.8-4.6,3.9
				C143,177.2,141.9,178.2,139.8,180.4z"/>
		</g>
	</g>
</g>
<g transform="matrix( 1, 0, 0, 1, 0,0) ">
	<g>
		<g id="Layer5_308_FILL">
			<path fill="#010101" d="M163.6,210.6h-3.6l-1.4,13.5c0,0.7,0,2.1,0,3.9c0-0.4,0-1.1-0.4-1.4c0-0.7,0-1.4,0-1.8l-1.8-14.2h-2.8
				l-1.8,13.5c0,0.4,0,1.8-0.4,3.6c0,0.7,0,1.1,0,1.1v-0.4c0-0.7,0-1.1,0-1.8c0-0.7,0-1.4,0-1.8l-1.8-14.2h-3.6l3.6,23.5h3.2
				l1.8-13.5c0-0.4,0-0.7,0-1.4c0-0.7,0-1.8,0-3.2c0,0.7,0,1.4,0,2.1c0.4,0.7,0.4,1.4,0.4,1.8l1.8,13.9h2.8L163.6,210.6
				 M142.3,211.3c-0.7-1.1-2.1-1.4-3.9-1.4s-3.2,0.4-4.3,1.4c-1.1,1.1-1.4,2.5-1.4,4.6V228c0,2.1,0.4,3.6,1.4,5
				c1.1,1.4,2.5,1.8,4.3,1.8s3.2-0.7,4.3-1.8c1.1-1.1,1.4-2.8,1.4-5v-12.1C144.1,214.2,143.4,212.7,142.3,211.3 M137,213.8
				c0-0.4,0.7-0.4,1.4-0.4c0.7,0,1.1,0.4,1.4,0.4c0.4,0.7,0.4,1.1,0.4,1.8v13.5c0,0.7,0,1.4-0.4,1.8s-0.7,0.4-1.4,0.4
				s-1.1,0-1.4-0.4c-0.4-0.4-0.4-1.1-0.4-1.8v-13.5C136.6,214.9,136.6,214.2,137,213.8 M125.6,210.6H122v23.5h9.2v-3.6h-5.7V210.6
				 M108.5,215.9c0,1.1,0.4,2.1,0.7,3.2c0.7,1.1,2.1,2.5,3.9,4.6h0.4c1.8,2.1,2.8,3.6,2.8,5c0,0.7,0,1.1-0.4,1.8
				c-0.4,0.4-1.1,0.4-1.8,0.4s-1.4-0.4-1.8-1.1c-0.4-0.4-0.4-1.1-0.4-2.5l-3.6,0.4c0,2.1,0.7,3.6,1.8,5c1.1,1.4,2.5,1.8,4.3,1.8
				s3.2-0.7,4.3-1.8c1.1-1.1,1.8-2.5,1.8-4.3c0-1.1-0.4-2.1-1.1-3.2c-0.4-1.1-1.4-2.1-3.2-3.9H116c-2.5-2.1-3.6-3.9-3.6-5.7
				c0-0.4,0.4-1.1,0.7-1.4c0.4-0.4,0.7-0.7,1.1-0.7c0.7,0,1.1,0.4,1.8,0.7c0.4,0.7,0.4,1.4,0.4,2.1l3.9-0.4
				c-0.4-1.8-0.7-3.2-1.8-3.9c-1.1-1.1-2.5-1.8-3.9-1.8c-1.8,0-2.8,0.7-3.9,1.8C108.9,212.7,108.5,214.2,108.5,215.9z"/>
		</g>
	</g>
</g>
<g transform="matrix( 1, 0, 0, 1, 0,0) ">
	<g>
		<g id="Layer5_309_FILL">
			<path fill="#010101" d="M304.2,210.6h-9.2v23.5h3.6v-10.7h4.6v-3.6h-4.6v-6.4h5.7V210.6 M341.1,210.6h-11.4v3.2h3.9v20.3h3.2
				v-20.3h4.3V210.6 M313,210.6h-4.6l-3.9,23.5h3.6l0.7-5h3.9l0.7,5h3.9L313,210.6 M310.6,215.6h0.4l1.1,10h-2.5L310.6,215.6
				 M319.8,211.7c-1.1,1.1-1.8,2.5-1.8,4.3c0,1.1,0.4,2.1,0.7,3.2c0.7,1.1,1.8,2.5,3.6,4.6h0.4c1.8,2.1,2.8,3.6,2.8,5
				c0,0.7-0.4,1.1-0.7,1.8c-0.4,0.4-1.1,0.4-1.8,0.4s-1.4-0.4-1.8-1.1c-0.4-0.4-0.4-1.1-0.4-2.5l-3.6,0.4c0,2.1,0.7,3.6,1.8,5
				c1.1,1.4,2.8,1.8,4.6,1.8c1.4,0,2.8-0.7,3.9-1.8c1.1-1.1,1.4-2.5,1.4-4.3c0-1.1-0.4-2.1-0.7-3.2c-0.4-1.1-1.4-2.1-3.2-3.9h-0.4
				c-2.1-2.1-3.6-3.9-3.6-5.7c0-0.4,0.4-1.1,0.7-1.4c0.4-0.4,0.7-0.7,1.4-0.7c0.7,0,1.1,0.4,1.4,0.7c0.4,0.7,0.7,1.4,0.7,2.1
				l3.6-0.4c0-1.8-0.7-3.2-1.8-3.9c-1.1-1.1-2.1-1.8-3.6-1.8C322.3,209.9,320.9,210.6,319.8,211.7z"/>
		</g>
	</g>
</g>
<g transform="matrix( 1, 0, 0, 1, 0,0) ">
	<g>
		<g id="Layer5_310_FILL">
			<path fill="#010101" d="M243.7,337.6c0.4,0,0.7,0,1.1,0.4c0.4,0.4,0.4,0.7,0.4,1.4v1.8h2.8v-1.8c0-1.4-0.4-2.5-1.1-3.2
				c-0.7-0.7-1.8-1.4-3.2-1.4s-2.5,0.4-3.2,1.1c-0.7,1.1-0.7,2.1-1.1,3.6v8.9c0,1.8,0.4,2.8,1.1,3.6c0.7,0.7,1.8,1.4,3.2,1.4
				c1.1,0,2.1-0.4,3.2-1.4c0.7-0.7,1.1-2.1,1.1-3.6v-1.8h-2.8v2.5c0,0.4,0,0.7-0.4,1.1s-0.7,0.4-1.1,0.4s-0.7,0-1.1-0.4
				c-0.4-0.4-0.7-0.7-0.7-1.1v-10c0-0.7,0-1.1,0.7-1.4C242.6,337.6,243,337.6,243.7,337.6 M267.2,336.5c-0.7-0.7-1.8-1.1-3.2-1.1
				H260v17.4h2.8v-7.1h1.8c1.1,0,2.1-0.4,2.8-1.4c0.7-1.1,1.1-2.5,1.1-3.9C268.2,338.7,267.9,337.2,267.2,336.5 M262.9,337.9h1.1
				c0.4,0,1.1,0,1.1,0.4c0.4,0.4,0.4,1.1,0.4,2.1s0,2.1-0.4,2.1c-0.4,0.4-0.7,0.4-1.1,0.4h-1.1V337.9 M257.5,339.4
				c0-1.4-0.4-2.5-1.1-3.2c-0.7-0.7-1.8-1.4-2.8-1.4c-1.4,0-2.5,0.4-3.2,1.1c-0.7,1.1-1.1,2.1-1.1,3.6v8.9c0,1.8,0.4,2.8,0.7,3.6
				c0.7,0.7,1.8,1.4,3.6,1.4c1.1,0,2.1-0.4,2.8-1.4c0.7-0.7,1.1-2.1,1.1-3.6V339.4 M254.7,337.9c0.4,0.4,0.4,0.7,0.4,1.4v10
				c0,0.4,0,0.7-0.4,1.1c-0.4,0.4-0.7,0.4-1.1,0.4c-0.7,0-1.1,0-1.4-0.4c0-0.4,0-0.7,0-1.1v-10c0-0.7,0-1.1,0-1.4
				c0.4-0.4,0.7-0.4,1.4-0.4C254,337.6,254.3,337.6,254.7,337.9 M213.1,335.5h-3.9v17.4h2.8v-7.5h1.1l1.8,7.5h2.8l-1.8-7.8
				c0.4-0.7,1.1-1.1,1.1-1.8c0.4-0.7,0.4-1.4,0.4-2.8c0-1.8-0.4-2.8-1.1-3.9C215.9,335.8,214.9,335.5,213.1,335.5 M213.1,337.9
				c0.7,0,1.1,0,1.1,0.4c0.4,0.4,0.4,1.1,0.4,2.1s0,1.8-0.4,2.1c0,0.4-0.7,0.4-1.1,0.4H212v-5H213.1 M230.5,336.2
				c-0.7,1.1-1.4,2.1-1.4,3.2c0,0.7,0.4,1.8,0.7,2.5c0.4,0.7,1.4,1.8,2.8,2.8v0.4c1.4,1.4,2.5,2.8,2.5,3.6c0,0.4-0.4,1.1-0.7,1.4
				c-0.4,0.4-0.7,0.4-1.4,0.4c-0.4,0-0.7-0.4-1.1-0.7c-0.4-0.4-0.4-1.1-0.4-1.8l-2.8,0.4c0.4,1.8,0.7,2.8,1.4,3.6
				c0.7,0.7,1.8,1.4,3.2,1.4c1.1,0,2.1-0.4,2.8-1.1c0.7-1.1,1.1-2.1,1.1-3.2s0-1.8-0.7-2.8c-0.7-1.1-1.1-1.8-2.5-2.8v-0.4
				c-1.4-1.8-2.5-2.8-2.5-3.9c0-0.7,0-1.1,0.4-1.4c0.4,0,0.4,0,0.7,0c0.7,0,1.1,0,1.1,0.4c0.4,0.4,0.4,0.7,0.4,1.8l2.8-0.4
				c0-1.4-0.7-2.5-1.4-3.2c-0.4-0.7-1.4-1.1-2.5-1.1C232.3,335.1,231.2,335.5,230.5,336.2 M226.6,336.2c-0.7-0.7-1.8-1.4-2.8-1.4
				s-2.5,0.4-3.2,1.1c-0.7,1.1-1.1,2.1-1.1,3.6v8.9c0,1.8,0.4,2.8,1.1,3.6c0.7,0.7,1.8,1.4,3.2,1.4s2.1-0.4,2.8-1.4
				c0.7-1.1,1.1-2.1,1.1-3.6v-8.9C227.7,338.3,227.3,337.2,226.6,336.2 M224.5,337.9c0.4,0.4,0.4,0.7,0.4,1.4v10
				c0,0.4,0,0.7-0.4,1.1c-0.4,0.4-0.7,0.4-1.1,0.4s-0.7,0-1.1-0.4c-0.4-0.4-0.4-0.7-0.4-1.1v-10c0-0.7,0-1.1,0.4-1.4
				c0.4-0.4,0.7-0.4,1.1-0.4C223.8,337.6,224.1,337.6,224.5,337.9 M198.5,335.5v17.4h2.8v-7.8h2.8v7.8h2.8v-17.4h-2.8v7.1h-2.8v-7.1
				L198.5,335.5 M169.7,335.5h-2.8l3.6,10.3v7.1h2.8v-7.5l2.8-10h-2.8l-1.8,6.8l0,0L169.7,335.5 M189.2,336.2
				c-0.7,1.1-1.1,2.1-1.1,3.6v8.9c0,1.8,0.4,2.8,1.1,3.6c0.7,0.7,1.8,1.4,3.6,1.4c1.1,0,2.1-0.4,2.8-1.4c0.7-0.7,1.1-2.1,1.1-3.6
				v-1.8h-2.8v2.5c0,0.4,0,0.7-0.7,1.1c-0.4,0.4-0.4,0.4-0.7,0.4c-0.7,0-1.1,0-1.4-0.4c-0.4-0.4-0.4-0.7-0.4-1.1v-10
				c0-0.7,0-1.1,0.4-1.4c0.4-0.4,0.7-0.4,1.4-0.4c0.4,0,0.4,0,0.7,0.4c0.4,0.4,0.7,0.7,0.7,1.4v1.8h2.8v-1.8c0-1.4-0.4-2.5-1.1-3.2
				c-0.7-0.7-1.8-1.4-2.8-1.4C191,335.1,190,335.5,189.2,336.2 M185.3,335.5h-2.5v9.6c0,0.4,0,0.7,0,1.1v0.4c0-0.4,0-0.7,0-1.1
				l-3.6-10.3h-2.5v17.4h2.8v-9.2c0,0,0-0.4,0-1.1c0-0.4,0-0.7-0.4-1.4c0.4,0.4,0.4,1.1,0.7,1.8l0,0l3.2,9.6h2.5v-16.7 M161.1,339.4
				c0-0.7,0-1.1,0-1.4c0.4,0,0.7,0,1.1,0c0.4,0,1.1,0,1.1,0.4c0,0.4,0.4,0.7,0.4,1.8l2.8-0.4c0-1.4-0.7-2.5-1.4-3.2
				c-0.7-0.7-1.4-1.1-2.8-1.1c-1.1,0-2.1,0.4-2.8,1.1c-0.7,1.1-1.4,2.1-1.4,3.2c0,0.7,0,1.8,0.7,2.5c0.4,0.7,1.4,1.8,2.8,2.8v0.4
				c1.4,1.4,2.5,2.8,2.5,3.6c0,0.4,0,1.1-0.4,1.4c-0.4,0.4-0.7,0.4-1.1,0.4c-0.7,0-1.1-0.4-1.1-0.7c-0.4-0.4-0.4-1.1-0.4-1.8h-2.8
				c0,1.8,0.7,2.8,1.4,3.6c0.7,0.7,1.8,1.4,3.2,1.4c1.1,0,2.1-0.4,3.2-1.1c0.7-1.1,1.1-2.1,1.1-3.2s-0.4-1.8-0.7-2.8
				c-0.4-0.7-1.1-1.8-2.5-2.8v-0.4C162.2,341.5,161.1,340.1,161.1,339.4 M277.1,337.9v-2.5H270v17.4h7.1v-2.5h-4.3v-5.3h3.2v-2.5
				h-3.2v-4.6H277.1z"/>
		</g>
	</g>
</g>
<text transform="matrix(1 0 0 1 124.15 30.9487)" font-family="'MicrosoftSansSerif'" font-size="24">SYNCHROSCOPE</text>
</svg>
