<?xml version="1.0" encoding="utf-8"?>
<!-- Generator: Adobe Illustrator 18.0.0, SVG Export Plug-In . SVG Version: 6.00 Build 0)  -->
<!DOCTYPE svg PUBLIC "-//W3C//DTD SVG 1.1//EN" "http://www.w3.org/Graphics/SVG/1.1/DTD/svg11.dtd">
<svg version="1.1" id="Layer_1" xmlns="http://www.w3.org/2000/svg" xmlns:xlink="http://www.w3.org/1999/xlink" x="0px" y="0px"
	 viewBox="0 0 450 450" enable-background="new 0 0 450 450" xml:space="preserve">
<g transform="matrix( 0.523590087890625, 0, 0, 0.586517333984375, 218.95,467.5) ">
	<g>
		<g id="Layer5_328_MEMBER_0_FILL">
			<path fill="#DFE6EC" d="M339.4-608.1v-189.1h-656.2v189.1H339.4z"/>
		</g>
	</g>
</g>
<g transform="matrix( 1, 0, 0, 1, 0,0) ">
	<g>
		<g id="Layer5_328_MEMBER_1_FILL">
			
				<radialGradient id="SVGID_1_" cx="-737.7266" cy="300.1984" r="2.4572" gradientTransform="matrix(3.5473 3.5473 -3.5473 3.5473 3753.2705 1606.8514)" gradientUnits="userSpaceOnUse">
				<stop  offset="0" style="stop-color:#A5A39C"/>
				<stop  offset="1" style="stop-color:#34342F"/>
			</radialGradient>
			<path fill="url(#SVGID_1_)" d="M79.8,46.2c-2.5-2.5-5-3.5-8.5-3.5c-3.5,0-6.5,1-9,3.5c-2.5,2.5-3.5,5.5-3.5,9c0,3.5,1,6.5,3.5,9
				c2,2.5,5,4,9,4c3,0,6-1.5,8.5-4c2.5-3,3.5-6,3.5-9C83.3,51.7,82.3,48.7,79.8,46.2 M75.8,50.7c0.5,0.5,0.5,0.5,0.5,1
				c0,1,0,1.5-0.5,2l-1,1l1,1.5c0.5,0.5,0.5,1,0.5,1.5s0,1-0.5,1.5c-0.5,0.5-1,1-1.5,1s-1.5-0.5-2-0.5l-1-1l-1.5,1
				c0,0-0.5,0.5-1,0.5s-1.5-0.5-1.5-0.5c-0.5-0.5-1-1-1-1.5s0.5-1,1-1.5l0.5-1.5l-1-1.5c-0.5-0.5-1-1-1-2c0,0,0.5-0.5,1-1
				c0.5-0.5,1-1,2-1c0.5,0,1,0,1.5,0.5l1.5,1.5l1-1c0-0.5,0.5-1,1.5-1c0.5,0,1,0,1.5,0.5V50.7z"/>
			<path fill="#010101" d="M76.3,51.7c0-0.5,0-0.5-0.5-1v-0.5c-0.5,0-1-0.5-1.5-0.5c-1,0-1.5,0.5-2,1l-1,1l-1.5-1.5
				c0,0-0.5-0.5-1-0.5s-1.5,0.5-1.5,1c-0.5,0.5-1,1-1,1c0,1,0.5,1.5,1,2l0.5,1.5l-1,1c-0.5,0.5-1,1-1,1.5s0.5,1,1,1.5
				c0.5,0.5,1,1,2,1c0.5,0,1-0.5,1.5-0.5l1.5-1l1,1c0,0,0.5,0.5,1.5,0.5c0.5,0,1-0.5,1.5-0.5c0.5-0.5,0.5-1,0.5-1.5s0-1-0.5-1.5
				l-1-1.5l1-1C75.8,53.2,76.3,52.7,76.3,51.7z"/>
		</g>
	</g>
</g>
<g transform="matrix( 1, 0, 0, 1, 0,0) ">
	<g>
		<g id="Layer5_328_MEMBER_2_FILL">
			
				<radialGradient id="SVGID_2_" cx="-737.7266" cy="300.1984" r="2.4572" gradientTransform="matrix(3.5473 3.5473 -3.5473 3.5473 4060.5449 1606.8514)" gradientUnits="userSpaceOnUse">
				<stop  offset="0" style="stop-color:#A5A39C"/>
				<stop  offset="1" style="stop-color:#34342F"/>
			</radialGradient>
			<path fill="url(#SVGID_2_)" d="M390.8,54.7c0-3.5-1.5-6-4-9c-2-2-5-3.5-8.5-3.5s-6.5,1-9,3.5c-2,2.5-3,5.5-3,9c0,3.5,1,6.5,3,9
				c2.5,2.5,5.5,4,9,4s6-1,8.5-4C389.3,61.2,390.8,58.2,390.8,54.7 M379.3,50.2c0.5-0.5,1.5-0.5,2-0.5c0.5,0,1,0.5,1.5,1
				c0.5,0.5,1,1,1,1.5c0,0.5-0.5,1.5-1,2l-1,1l1,1.5c0.5,0.5,1,1,1,2c0,0.5-0.5,0.5-1,1.5c0,0.5-0.5,0.5-1.5,0.5c-1,0-1.5-0.5-2-0.5
				l-1-1l-1.5,1c-0.5,0.5-1,0.5-1.5,0.5c-0.5,0-1-0.5-1.5-0.5c-0.5-0.5-1-1-1-1.5c0-1,0.5-1.5,1-2l1-1.5l-0.5-1c-0.5-0.5-1-1.5-1-2
				c0-0.5,0.5-0.5,1-1.5c0.5-0.5,1-1,1.5-1c0.5,0,1.5,0.5,1.5,1l1.5,0.5L379.3,50.2z"/>
			<path fill="#010101" d="M381.3,49.7c-0.5,0-1.5,0-2,0.5l-1,1.5l-1.5-0.5c-0.5-0.5-1-1-1.5-1c-0.5,0-1,0.5-1.5,1
				c-0.5,0.5-1,1-1,1.5s0.5,1.5,1,2l1,1l-0.5,0.5c-0.5,0.5-1,1-1,2c0,0.5,0.5,0.5,1,1.5c0.5,0.5,1,0.5,1.5,0.5
				c0.5,0,1.5-0.5,1.5-0.5l1.5-1l1,1c0.5,0.5,1.5,0.5,2,0.5c0.5,0,1-0.5,1.5-0.5c0.5-0.5,1-1,1-1.5c0-1-0.5-1.5-1-2l-1-1.5l1-1
				c0.5-0.5,1-1,1-2c0-0.5-0.5-0.5-1-1.5C382.3,50.2,382.3,49.7,381.3,49.7z"/>
		</g>
	</g>
</g>
<g transform="matrix( 0.39410400390625, 0, 0, 0.39410400390625, 516.85,307.8) ">
	<g>
		<g id="Layer5_329_FILL">
			<path fill="#2F3031" d="M-328.4-388.1c0-55.7-27.6-83.8-83.8-83.8h-658.7c-55.7,0-83.3,27.6-83.3,83.8v658.7
				c0,55.7,27.6,83.8,83.3,83.8h658.7c55.7,0,83.8-27.6,83.8-83.8V-388.1z"/>
		</g>
	</g>
	<g transform="matrix( 2.5373992919921875, 0, 0, 2.5373992919921875, -1311.45,-781) ">
		<path id="Layer5_329_1_STROKES" fill="none" stroke="#585C66" stroke-linecap="round" stroke-linejoin="round" d="M-6419.9-3608.5
			h658.7c55.7,0,83.8,28.1,83.3,83.8v658.2c0,55.7-28.1,83.8-83.3,83.8h-658.7c-55.7,0-83.8-27.6-83.8-83.8v-658.2
			C-6503.7-3580.9-6475.6-3608.5-6419.9-3608.5z"/>
	</g>
</g>
<g transform="matrix( 1, 0, 0, 1, 0,0) ">
	<g>
		<g id="Layer5_330_FILL">
			
				<radialGradient id="SVGID_3_" cx="-662.7188" cy="-122.7169" r="5.525" gradientTransform="matrix(5.0167 0 0 5.0167 3668.9802 785.2861)" gradientUnits="userSpaceOnUse">
				<stop  offset="0" style="stop-color:#505050"/>
				<stop  offset="1" style="stop-color:#010101"/>
			</radialGradient>
			<path fill="url(#SVGID_3_)" d="M316.6,169.6c0,7.5,2.5,14.5,8,20.6c5.5,5,12,7.5,19.6,7.5s14-2.5,19.1-7.5c6-6,8.5-12.5,9-20.6
				c0-7-3-13.5-9-19.1c-5-5-11.5-7.5-19.1-7.5s-14,2.5-19.6,7.5C319.1,156,316.6,162.5,316.6,169.6 M344.1,154.5L344.1,154.5
				c1,0,1.5,0,2,1c0.5,0.5,0.5,1,0.5,2v25.1c0,0.5,0,1-0.5,1.5c-0.5,0.5-1,1-2,1l0,0c-1,0-1.5-0.5-2.5-1c-0.5-0.5-0.5-1.5-0.5-1.5
				v-25.1c0-1,0-1.5,0.5-2C342.6,155,343.6,154.5,344.1,154.5z"/>
			<path fill="#010101" d="M344.6,154.5L344.6,154.5c-1,0-2,0-2.5,1c-0.5,0.5-0.5,1-0.5,2v25.1c0,0.5,0,1,0.5,1.5
				c0.5,0.5,1.5,1,2.5,1l0,0c0.5,0,1.5-0.5,2-1c0.5-0.5,0.5-1.5,0.5-1.5v-25.1c0-1,0-1.5-0.5-2C345.7,155,345.2,154.5,344.6,154.5z"
				/>
		</g>
	</g>
</g>
<g transform="matrix( 1, 0, 0, 1, 0,0) ">
	<g>
		<g id="Layer5_331_FILL">
			
				<radialGradient id="SVGID_4_" cx="-737.7266" cy="300.1984" r="5.5331" gradientTransform="matrix(3.5473 3.5473 -3.5473 3.5473 3786.3813 1721.985)" gradientUnits="userSpaceOnUse">
				<stop  offset="0" style="stop-color:#505050"/>
				<stop  offset="1" style="stop-color:#010101"/>
			</radialGradient>
			<path fill="url(#SVGID_4_)" d="M104.3,142.5c-8,0-14.5,2.5-19.6,7.5c-5.5,5.5-8.5,12-8.5,20.1c0,7.5,3,14,8.5,19.1
				c5.5,5.5,12,8,19.1,8c8,0,15.1-2.5,20.6-8c5-5,7.5-11.5,7.5-19.6c0-7.5-3-14-8.5-19.6C118.4,145.5,111.9,143,104.3,142.5
				 M115.4,159.5c0.5,0.5,1,1,1,2c0,1-0.5,1.5-1,1.5l-17.6,18.1c-0.5,0.5-1,0.5-1.5,0.5c-1,0-1.5,0-2-0.5c-1-0.5-1.5-1.5-1.5-2
				c0-1,0.5-2,1-2.5l18.1-17.6c0.5-0.5,1-0.5,2-0.5C113.9,158.5,114.9,159,115.4,159.5z"/>
			<path fill="#010101" d="M116.4,161.5c0-1-0.5-1.5-1-2c-0.5-0.5-1-0.5-2-0.5s-1.5,0-2,0.5l-18.1,17.6c-0.5,0.5-1,1.5-1,2.5
				c0,0.5,0.5,1.5,1.5,2c0.5,0.5,1,0.5,2,0.5c0.5,0,1.5,0,1.5-0.5l17.6-18.1C115.9,163,115.9,162,116.4,161.5z"/>
		</g>
	</g>
</g>
<g transform="matrix( 1, 0, 0, 1, 0,0) ">
	<g>
		<g id="Layer5_332_FILL">
			
				<radialGradient id="SVGID_5_" cx="-358.0069" cy="715.7169" r="5.5277" gradientTransform="matrix(-1.3048 4.8441 -4.8326 -1.3048 3216.9163 3075.261)" gradientUnits="userSpaceOnUse">
				<stop  offset="0" style="stop-color:#505050"/>
				<stop  offset="1" style="stop-color:#010101"/>
			</radialGradient>
			<path fill="url(#SVGID_5_)" d="M198.2,399.8c-2,7.5-1,14.5,2.5,21.1c4,7,10,11.5,17.6,13.5c7,2,14,0.5,21.1-3.5
				c6-3.5,10-9,12.5-16.6c2-7.5,1.5-14.5-2.5-21.1c-4-7-9.5-11-16.6-13c-7.5-2-14.5-1-21.6,3C204.2,387.3,200.2,392.8,198.2,399.8
				 M209.7,403.3c0-0.5,0.5-1.5,1.5-2c0.5-0.5,1.5-0.5,2.5,0l24.1,6.5c1,0.5,1.5,1,1.5,1.5c0.5,0.5,0.5,1,0.5,2c0,1-0.5,1.5-1.5,2
				c-0.5,0-1.5,0-2,0l-24.6-7c-0.5,0-1-0.5-1.5-1.5C209.7,404.8,209.7,404.3,209.7,403.3z"/>
			<path fill="#010101" d="M211.2,401.3c-1,0.5-1.5,1.5-1.5,2c0,1,0,1.5,0,2c0.5,1,1,1.5,1.5,1.5l24.6,7c0.5,0,1.5,0,2,0
				c1-0.5,1.5-1,1.5-2c0-1,0-1.5-0.5-2c-0.5-0.5-1-1-1.5-1.5l-23.6-7C212.7,400.8,211.7,401.3,211.2,401.3z"/>
		</g>
	</g>
</g>
<g transform="matrix( 1, 0, 0, 1, 0,0) ">
	<g>
		<g id="Layer5_333_FILL">
			<path fill="#010101" d="M342.6,207.7c-10,0-18.6-3.5-26.1-11c-7-7.5-11-16.1-11-26.1c0-3.5,0.5-7,1.5-10H142.5c0.5,3,1,6.5,1,10
				c0,10-3.5,18.6-11,26.1c-7,7-15.6,11-26.1,11c-5.5,0-11-1-15.6-3.5v166.6c0,24.1,12,35.6,36.1,35.6h60.7c0-10,4-19.1,11.5-26.1
				c7-7,15.6-11,26.1-11s19.1,3.5,26.1,11c7,7,11,16.1,11,26.1h61.2c24.1,0,36.6-12,36.6-35.6V204.2
				C354.2,206.7,348.7,207.7,342.6,207.7z"/>
		</g>
	</g>
</g>
<g transform="matrix( 1, 0, 0, 1, 0,0) ">
	<g>
		<g id="Layer5_334_FILL">
			<path fill="#FFFFFF" d="M132.9,146.5h6l1,3h2.5l-6-16.6H136l-6.5,16.6h2.5L132.9,146.5 M136,137.5l2.5,7h-5L136,137.5
				 M155.5,144.5v-11h-2v11c0,1-0.5,2-1,2c-0.5,1-1.5,1-2.5,1.5c-1,0-1.5-0.5-2.5-1.5c-0.5-0.5-1-1-1-2v-11H144v11c0,1.5,0.5,3,2,4
				c1,1,2,1.5,4,1.5c1.5,0,3-0.5,4-1.5C155,147.5,155.5,146.5,155.5,144.5 M170.1,136v-2.5h-12.5v2.5h5v14h2v-14H170.1 M252.3,136
				l0.5-2c-0.5-0.5-2-0.5-4-0.5c-1.5,0-2.5,0.5-3,1.5c-1,1-1.5,2-1.5,3c0,1,0.5,1.5,1,2c0.5,0.5,1,1.5,2.5,2l1,1c1,0.5,2,1,2.5,1.5
				s0.5,1,0.5,1.5c0,0.5-0.5,1-1,1.5c-0.5,0.5-1,1-1.5,1s-1,0-1.5-0.5c-0.5-0.5-1-0.5-1.5-1l-1.5,2c1,0.5,2.5,1,4,1
				c1.5,0,3-0.5,4-1.5c1-1,1.5-2,1.5-2.5c0-1.5-0.5-2.5-1-3c-0.5-0.5-1-1.5-2.5-2l-1.5-0.5c-0.5-0.5-1-0.5-1.5-0.5
				c-0.5-0.5-0.5-0.5-0.5-1s0-0.5,0-1c0-1,0-1.5,0.5-1.5c0.5-0.5,1-1,1.5-1s1,0,1.5,0.5C251.8,136,252.3,136,252.3,136 M268.4,145
				l-3.5-11.5h-0.5l-4,11.5l-3-11.5h-2.5l5,16.6h0.5l3.5-11l4,11h1l5-16.6h-2.5L268.4,145 M277.9,133.4h-2v16.1h2V133.4
				 M184.6,141.5c0-2.5-0.5-4.5-2-6c-1-1.5-2.5-2-5-2c-2,0-3.5,1-5,2.5c-1,1.5-1.5,3.5-1.5,5.5c0,2,0.5,4.5,1.5,6s2.5,2,5,2
				c2,0,3.5-0.5,5-2C184.1,146.5,184.6,144.5,184.6,141.5 M174.6,137c1-1,2-1.5,3-1.5c3,0,4.5,2,4.5,6c0,2-0.5,3.5-1,5
				c-1,1-2,1.5-3.5,1.5s-2.5-0.5-3-1.5c-0.5-1.5-1-3-1-5C173.6,139.5,173.6,138,174.6,137 M191.6,144v-2h-4.5v2H191.6 M206.2,133.4
				h-1.5l-3,12l-4-12h-1.5l-2.5,16.1h2.5l1.5-10l3.5,10h1l3.5-10l1.5,10h2.5L206.2,133.4 M216.7,133.4L216.7,133.4l-7,16.6h2.5
				l1.5-3h6l0.5,3h2.5L216.7,133.4 M216.7,137.5l2,7h-5L216.7,137.5 M225.8,133.4h-1.5v16.1h2.5V138l8.5,12h0.5v-16.6h-2v11
				L225.8,133.4 M293,136v-2.5h-12.5v2.5h5v14h2.5v-14H293 M301,135.5c1.5,0,2.5,0,3,0.5l0.5-2c-1-0.5-2.5-0.5-4-0.5c-2,0-4,1-5,2.5
				c-1.5,1.5-2,3.5-2,6s0.5,4.5,1.5,6c1.5,1.5,3,2,5,2c2,0,3.5-0.5,5-2l-1-1.5c-1,1-2,1.5-3.5,1.5s-2.5-0.5-3.5-1.5
				c-1-1-1.5-2.5-1.5-4.5s0.5-3.5,1.5-5C298.5,136,299.5,135.5,301,135.5 M310.5,142h7v7.5h2v-16.1h-2v6.5h-7v-6.5H308v16.1h2.5V142
				z"/>
		</g>
	</g>
</g>
<g transform="matrix( 1, 0, 0, 1, 0,0) ">
	<g>
		<g id="Layer5_335_FILL">
			<path fill="#FFFFFF" d="M233.3,169.6v16.1h2.5v-7.5h5.5v-1.5h-5.5v-4.5h7.5v-2h-10 M229.3,176.1h-5.5v-4.5h7.5v-2h-10v16.1h2.5
				v-7.5h5.5V176.1 M207.2,171.6c-1,1.5-2,3.5-2,6s0.5,4.5,2,6c1,1.5,2.5,2.5,5,2.5c2,0,4-0.5,5-2c1.5-1.5,2-3.5,2-6.5
				c0-2.5-0.5-4.5-2-6c-1-1.5-2.5-2-5-2C210.2,169.6,208.7,170.1,207.2,171.6 M212.2,171.6c3,0,4.5,2,4.5,6c0,2-0.5,3.5-1.5,4.5
				c-1,1-2,2-3.5,2c-1.5,0-2.5-0.5-3-2c-1-1-1.5-2.5-1.5-4.5s0.5-3.5,1.5-4.5C209.7,172.1,210.7,171.6,212.2,171.6z"/>
		</g>
	</g>
</g>
<g transform="matrix( 1, 0, 0, 1, 0,0) ">
	<g>
		<g id="Layer5_799_FILL">
			<path fill="#FFFFFF" d="M302.5,221.7v2h5v-2H302.5 M291.5,218.7l3-2v12.5h2.5v-16.6h-0.5c-0.5,0.5-1.5,1.5-2.5,2.5
				c-1,0.5-1.5,1-2.5,1.5V218.7 M329.6,215.7l1-2c-1-0.5-2-0.5-4-0.5c-1.5,0-2.5,0.5-3.5,1c-1,1-1.5,2-1.5,3c0,1,0,2,0.5,2.5
				c0.5,1,1,1.5,2,2l1.5,0.5c1,0.5,2,1,2,1.5c0.5,0.5,0.5,1,0.5,1.5c0,1,0,1.5-1,2c-0.5,0.5-1,0.5-2,0.5c-0.5,0-1,0-1.5,0
				c-0.5,0-1-0.5-1.5-0.5l-1,2c1,0.5,2,1,3.5,1s3-0.5,4-1.5c1-1,1.5-2,1.5-3s0-2-0.5-3c-0.5-1-1.5-1.5-2.5-2l-1.5-0.5
				c-1-0.5-1.5-1-1.5-1c-0.5,0-0.5-0.5-1-1c-0.5-0.5,0-0.5,0-1.5c0-0.5,0-1,0.5-1.5c0.5-0.5,1-1,2-1c0.5,0,1,0,1.5,0
				C328.6,215.2,329.1,215.2,329.6,215.7 M311.5,216.7v2l3-2v12.5h2.5v-16.6h-0.5c-0.5,0.5-1.5,1.5-2.5,2.5
				C313,215.7,312,216.2,311.5,216.7 M276.9,221.2c0-2,0.5-3.5,1.5-4.5c1-1.5,2-2,4-2c1,0,2,0.5,3,1.5l1-1.5c-1-1-2.5-1.5-4-1.5
				c-2.5,0-4.5,1-6,2.5c-1.5,1.5-2,3.5-2,6s0.5,4.5,1.5,6c1.5,1.5,3,2.5,5,2.5c1,0,2,0,3-0.5c1-0.5,2-1,2.5-1.5v-7.5h-4.5v2h2v4
				c-0.5,0.5-1.5,1-2.5,1c-1.5,0-3-0.5-4-1.5C277.4,224.7,276.9,223.2,276.9,221.2z"/>
		</g>
	</g>
</g>
<g transform="matrix( 1, 0, 0, 1, 0,0) ">
	<g>
		<g id="Layer5_800_FILL">
			<path fill="#FFFFFF" d="M346.2,276.9c-1.5,0-2.5,0.5-3.5,1c-1,1-1.5,2-1.5,3c0,1,0,2,0.5,2.5c0.5,1,1.5,1.5,2.5,2l1.5,0.5
				c1,0.5,2,1,2,1.5c0.5,0.5,0.5,1,0.5,1.5c0,1,0,1.5-0.5,2c-0.5,0.5-1,0.5-2,0.5c-0.5,0-1,0-1.5,0c-0.5,0-1-0.5-1.5-0.5l-1,2
				c1,0.5,2,1,3.5,1s3-0.5,4-1.5s1.5-2,1.5-3c0-1,0-2-0.5-3c-0.5-1-1.5-1.5-2.5-2l-1.5-0.5c-1-0.5-1.5-1-2-1c-0.5,0-0.5-0.5-0.5-1
				c0-0.5,0-0.5,0-1.5c0-0.5,0-1,0.5-1.5c0.5-0.5,1-1,2-1c0.5,0,1,0,1.5,0c0.5,0,1,0.5,1.5,1l1-2
				C349.2,276.9,348.2,276.9,346.2,276.9 M306.5,277.9c-1-1-2.5-1.5-4-1.5c-2.5,0-4.5,1-6,2.5c-1.5,1.5-2,3.5-2,6s0.5,4.5,2,6
				c1.5,1.5,3,2.5,5,2.5c1,0,2,0,3-0.5c1-0.5,2-1,2.5-1.5v-7h-4v2h2v4c-0.5,0.5-1.5,1-3,1c-1.5,0-3-0.5-4-1.5c-1-1-1.5-2.5-1.5-4.5
				c0-2,0.5-3.5,1.5-4.5c1-1.5,2-2,4-2c1,0,2,0.5,3,1.5L306.5,277.9 M327.1,285.5h-4.5v2h4.5V285.5 M333.6,276.4c-1,0-2,0-3,0.5
				c-0.5,0.5-1,1-1.5,2l1.5,1.5c0.5-0.5,1-1,1.5-1.5c0.5-0.5,1-0.5,1.5-0.5c2,0,2.5,1,2.5,2.5c0,1-0.5,2.5-2,4l-5,7.5v0.5h10v-2
				h-6.5l4-5.5c1-2,2-3.5,2-4.5c0-1.5-0.5-2.5-1.5-3C336.6,276.9,335.1,276.4,333.6,276.4 M313.5,276.4c-1,0-2,0-3,0.5
				c-0.5,0.5-1,1-1.5,2l1.5,1.5c0.5-0.5,1-1,1.5-1.5c0.5-0.5,1-0.5,1.5-0.5c2,0,2.5,1,2.5,2.5c0,1-0.5,2.5-2,4l-5,7.5v0.5h10v-2
				h-6.5l4-5.5c1-2,2-3.5,2-4.5c0-1.5-0.5-2.5-1.5-3C316.6,276.9,315.1,276.4,313.5,276.4z"/>
		</g>
	</g>
</g>
<text transform="matrix(1 0 0 1 138.6312 49.6656)"><tspan x="0" y="0" font-family="'MSReferenceSansSerif'" font-size="24">SYNC MODE</tspan><tspan x="23.6" y="28.8" font-family="'MSReferenceSansSerif'" font-size="24">SWITCH</tspan></text>
</svg>
