<?xml version="1.0" encoding="utf-8"?>
<!-- Generator: Adobe Illustrator 18.0.0, SVG Export Plug-In . SVG Version: 6.00 Build 0)  -->
<!DOCTYPE svg PUBLIC "-//W3C//DTD SVG 1.1//EN" "http://www.w3.org/Graphics/SVG/1.1/DTD/svg11.dtd">
<svg version="1.1" id="Layer_1" xmlns="http://www.w3.org/2000/svg" xmlns:xlink="http://www.w3.org/1999/xlink" x="0px" y="0px"
	 viewBox="0 0 450 450" enable-background="new 0 0 450 450" xml:space="preserve">
<g transform="matrix( 0.523590087890625, 0, 0, 0.586517333984375, -398.35,467.5) ">
	<g>
		<g id="Layer5_680_MEMBER_0_FILL">
			<path fill="#DFE6EC" d="M1518.5-608.1v-189.1H862.3v189.1H1518.5z"/>
		</g>
	</g>
</g>
<g transform="matrix( 1, 0, 0, 1, 0,0) ">
	<g>
		<g id="Layer5_680_MEMBER_1_FILL">
			
				<radialGradient id="SVGID_1_" cx="-301.1432" cy="-136.0865" r="2.458" gradientTransform="matrix(3.5473 3.5473 -3.5473 3.5473 656.6378 1605.7874)" gradientUnits="userSpaceOnUse">
				<stop  offset="0" style="stop-color:#A5A39C"/>
				<stop  offset="1" style="stop-color:#34342F"/>
			</radialGradient>
			<path fill="url(#SVGID_1_)" d="M58.7,54.7c0,3.5,1,6.5,3.5,9c2,2.5,5,4,9,4c3.5,0,6-1.5,8.5-4c2-2.5,3.5-5.5,3.5-8.5
				c0-3.5-1-6.5-3.5-9c-2.5-2-5-3.5-8.5-3.5s-6.5,1-9,3.5C60.2,48.7,58.7,51.7,58.7,54.7 M73.7,49.7c1,0,1.5,0,2,0.5v0.5
				c0.5,0.5,0.5,1,0.5,1.5s0,1.5-0.5,2l-1.5,1l1.5,1.5c0.5,0.5,0.5,1,0.5,1.5s0,1-0.5,1.5c-0.5,0-1,0.5-2,0.5c-0.5,0-1,0-1.5-0.5
				l-1-1.5l-1.5,1c-0.5,0.5-1,1-1.5,1s-1.5,0-2-0.5l0,0c-0.5-0.5-1-1-1-1.5s0.5-1,1-1.5l1.5-1.5l-1.5-1.5c-0.5-0.5-1-1-1-2
				c0-0.5,0.5-0.5,1-1.5c1,0,1.5,0,2-0.5c0.5,0,1,0,1.5,0.5l1.5,1.5l1-1C72.7,50.2,73.2,50.2,73.7,49.7z"/>
			<path fill="#010101" d="M75.8,50.2c-0.5,0-1-0.5-2-0.5c-0.5,0.5-1,0.5-1.5,1l-1,1l-1.5-1.5c-0.5,0-1-0.5-1.5-0.5s-1.5,0.5-2,1
				c-0.5,0.5-1,1-1,1.5c0,0.5,0.5,1.5,1,2l1.5,1l-1.5,1.5c-0.5,0.5-1,1-1,1.5s0.5,1,1,1.5l0,0c1,0,1.5,0.5,2,0.5s1-0.5,1.5-0.5
				l1.5-1l1,1.5c0.5-0.5,1,0,1.5,0c1,0,1.5-0.5,2-0.5c0.5-0.5,0.5-1,0.5-1.5s0-1-0.5-1.5l-1.5-1.5l1.5-1c0.5-0.5,0.5-1,0.5-2
				c0-0.5,0-1-0.5-1.5V50.2z"/>
		</g>
	</g>
</g>
<g transform="matrix( 1, 0, 0, 1, 0,0) ">
	<g>
		<g id="Layer5_680_MEMBER_2_FILL">
			
				<radialGradient id="SVGID_2_" cx="-301.1416" cy="-136.082" r="2.455" gradientTransform="matrix(3.5473 3.5473 -3.5473 3.5473 964.4136 1605.7874)" gradientUnits="userSpaceOnUse">
				<stop  offset="0" style="stop-color:#A5A39C"/>
				<stop  offset="1" style="stop-color:#34342F"/>
			</radialGradient>
			<path fill="url(#SVGID_2_)" d="M366.7,54.7c0,3.5,1,6.5,3.5,9c2.5,2.5,5.5,4,8.5,4c3.5,0,6.5-1,8.5-4c2.5-2.5,3.5-5.5,3.5-9
				c0-3-1-6-3.5-9c-2-2-5-3.5-8.5-3.5s-6,1-8.5,3.5C367.7,48.7,366.7,51.7,366.7,54.7 M378.8,51.7l1.5-1.5c0.5-0.5,1-0.5,1.5,0
				c0.5,0,1,0.5,1.5,0.5c0.5,0.5,1,1,1,1.5s-0.5,1.5-1,2l-1,1l1,1.5c0.5,0.5,1,1,1,2c0,0.5-0.5,0.5-1,1.5c-0.5,0.5-1,0.5-1.5,0.5
				c-1,0-1.5,0-1.5-0.5l-1.5-1.5l-1,1.5c-0.5,0.5-1.5,0.5-1.5,0.5c-0.5,0-1.5-0.5-2-0.5c-0.5-0.5-0.5-1-0.5-1.5c0-1,0-1.5,0.5-2
				l1.5-1.5l-1.5-1c-0.5-0.5-0.5-1.5-0.5-2c0-0.5,0-0.5,0.5-1.5c0.5-0.5,1-1,2-0.5c0.5,0,1,0,1.5,0.5L378.8,51.7z"/>
			<path fill="#010101" d="M380.3,50.2l-1.5,1.5l-1-0.5c-0.5-0.5-1.5-1-1.5-0.5c-0.5,0-1.5,0-2,0.5c-0.5,0.5-0.5,1-0.5,1.5
				s0,1.5,0.5,2l1.5,1l-1.5,0.5c-0.5,0.5-0.5,1-0.5,2c0,0.5,0,0.5,0.5,1.5c0.5,0.5,1,0.5,2,0.5c0.5,0,1,0,1.5-0.5l1-1.5l1.5,1.5
				c0.5,0.5,1,0.5,1.5,0.5c0.5,0,1-0.5,1.5-0.5c0.5-0.5,1-1,1-1.5c0-1-0.5-1.5-1-2l-1-1.5l1-1c0.5-0.5,1-1,1-2c0-0.5-0.5-0.5-1-1.5
				c-0.5,0-1,0-1.5,0C381.3,49.7,380.3,50.2,380.3,50.2z"/>
		</g>
	</g>
</g>
<g transform="matrix( 0.39410400390625, 0, 0, 0.39410400390625, -100.45,307.8) ">
	<g>
		<g id="Layer5_681_FILL">
			<path fill="#2F3031" d="M1237.7-388.1c0-55.7-27.6-83.8-83.8-83.8H495.8c-55.7,0-83.3,27.6-83.3,83.8v658.7
				c0,55.7,27.6,83.8,83.3,83.8h658.7c55.7,0,83.8-27.6,83.8-83.8v-658.7H1237.7z"/>
		</g>
	</g>
	<g transform="matrix( 2.5373992919921875, 0, 0, 2.5373992919921875, 254.9,-781) ">
		<path id="Layer5_681_1_STROKES" fill="none" stroke="#585C66" stroke-linecap="round" stroke-linejoin="round" d="M1437.8-3608.5
			h658.7c55.7,0,83.3,28.1,83.3,83.8v658.2c0,55.7-27.6,83.8-83.3,83.8h-658.7c-55.7,0-83.8-27.6-83.3-83.8v-658.2
			C1354.5-3580.9,1382.1-3608.5,1437.8-3608.5z"/>
	</g>
</g>
<g transform="matrix( 1, 0, 0, 1, 0,0) ">
	<g>
		<g id="Layer5_682_FILL">
			
				<radialGradient id="SVGID_3_" cx="-45.4188" cy="-122.7169" r="5.525" gradientTransform="matrix(5.0167 0 0 5.0167 572.408 785.2861)" gradientUnits="userSpaceOnUse">
				<stop  offset="0" style="stop-color:#505050"/>
				<stop  offset="1" style="stop-color:#010101"/>
			</radialGradient>
			<path fill="url(#SVGID_3_)" d="M363.7,190.1c6-6,9-12.5,9-20.6c0-7-3-13.5-9-19.1c-5-5-11.5-7.5-19.1-7.5s-14,2.5-19.6,7.5
				c-5.5,5.5-8.5,12-8.5,19.1c0,7.5,3,14.5,8.5,20.6c5.5,5,12,7.5,19.6,7.5S358.7,195.2,363.7,190.1 M342.6,155.5c0.5-0.5,1-1,2-1
				h0.5c0.5,0,1,0,1.5,1c0.5,0.5,1,1,1,2v25.1c0,0.5-0.5,1-1,1.5c-0.5,0.5-1,1-1.5,1h-0.5c-1,0-1.5-0.5-2-1c-0.5-0.5-1-1.5-1-1.5
				v-25.1C341.6,156.5,341.6,156,342.6,155.5z"/>
			<path fill="#010101" d="M344.6,154.5c-1,0-1.5,0-2,1c-0.5,0.5-1,1-1,2v25.1c0,0.5,0.5,1,1,1.5s1,1,2,1h0.5c0.5,0,1-0.5,1.5-1
				c0.5-0.5,1-1.5,1-1.5v-25.1c0-1-0.5-1.5-1-2C346.2,155,345.7,154.5,344.6,154.5L344.6,154.5z"/>
		</g>
	</g>
</g>
<g transform="matrix( 1, 0, 0, 1, 0,0) ">
	<g>
		<g id="Layer5_683_FILL">
			
				<radialGradient id="SVGID_4_" cx="-301.1432" cy="-136.0786" r="5.53" gradientTransform="matrix(3.5473 3.5473 -3.5473 3.5473 690.2498 1720.9209)" gradientUnits="userSpaceOnUse">
				<stop  offset="0" style="stop-color:#505050"/>
				<stop  offset="1" style="stop-color:#010101"/>
			</radialGradient>
			<path fill="url(#SVGID_4_)" d="M123.9,150.5c-5-5-11.5-8-19.1-8c-8,0-14.5,2.5-19.6,7.5c-5.5,5.5-8.5,12-8.5,20.1
				c0,7.5,3,14,8.5,19.1c5.5,5.5,12,8,19.1,8c8,0,15.1-2.5,20.6-8c5-5,7.5-11.5,7.5-19.6C131.9,162.5,129.4,156,123.9,150.5
				 M113.4,158.5c1,0,1.5,0,2,0.5c0.5,0.5,1,1,1,2c0,1-0.5,1.5-1,1.5l-17.6,18.1c-0.5,0.5-1,0.5-1.5,0.5c-1,0-1.5,0-2.5-0.5
				c-0.5-0.5-1-1.5-1-2c0-1,0.5-2,1-2.5l18.1-17.6C111.9,159,112.9,158.5,113.4,158.5z"/>
			<path fill="#010101" d="M115.4,159.5c-0.5-0.5-1-0.5-2-0.5c-1,0-1.5,0-2,0.5l-18.1,17.6c-0.5,0.5-1,1.5-1,2.5c0,0.5,0.5,1.5,1,2
				c0.5,0.5,1.5,0.5,2.5,0.5c0.5,0,1.5,0,1.5-0.5l17.6-18.1c0.5-0.5,1-1,1-1.5C116.4,160.5,115.9,159.5,115.4,159.5z"/>
		</g>
	</g>
</g>
<g transform="matrix( 1, 0, 0, 1, 0,0) ">
	<g>
		<g id="Layer5_684_FILL">
			
				<radialGradient id="SVGID_5_" cx="-518.5117" cy="118.6417" r="5.5277" gradientTransform="matrix(-1.3048 4.8441 -4.8326 -1.3048 122.2404 3073.8076)" gradientUnits="userSpaceOnUse">
				<stop  offset="0" style="stop-color:#505050"/>
				<stop  offset="1" style="stop-color:#010101"/>
			</radialGradient>
			<path fill="url(#SVGID_5_)" d="M200.7,420.9c4,7,10,11.5,17.6,13.5c7,2,13.5,0.5,20.6-3.5c6.5-3.5,10.5-9,12.5-16.6
				c2-7.5,1.5-14.5-2.5-21.1c-4-7-9.5-11-16.6-13c-7.5-2-14.5-1-21.6,3c-6.5,4-11,9.5-13,16.6C196.2,407.4,197.2,414.4,200.7,420.9
				 M212.2,406.9c-0.5,0-1-0.5-1.5-1.5c-0.5-0.5-0.5-1-0.5-2c0-0.5,0.5-1.5,1.5-2c0.5-0.5,1.5-0.5,2,0l24.1,6.5
				c0.5,0.5,1.5,1,1.5,1.5c0.5,0.5,0.5,1,0.5,2s-0.5,1.5-1.5,2c-0.5,0-1,0-2,0L212.2,406.9z"/>
			<path fill="#010101" d="M210.7,405.4c0.5,1,1,1.5,1.5,1.5l24.1,7c1,0,1.5,0,2,0c1-0.5,1.5-1,1.5-2c0-1,0-1.5-0.5-2
				c-0.5-0.5-1-1-1.5-1.5l-24.1-7c-1,0-1.5,0-2,0c-1,0.5-1.5,1.5-1.5,2C209.7,404.3,210.2,404.8,210.7,405.4z"/>
		</g>
	</g>
</g>
<g transform="matrix( 1, 0, 0, 1, 0,0) ">
	<g>
		<g id="Layer5_685_FILL">
			<path fill="#010101" d="M106.9,207.7c-6,0-11-1-15.6-3.5v166.6c0,24.1,12,35.6,36.1,35.6h60.7c0-10,3.5-19.1,11-26.1
				c7-7,16.1-11,26.1-11c10.5,0,19.1,3.5,26.6,11c7,7,11,16.1,11,26.1h61.2c24.1,0,36.6-12,36.6-35.6V204.2c-5,2.5-10,3.5-16.1,3.5
				c-10,0-19.1-3.5-26.1-11c-7-7.5-11-16.1-11-26.1c0-3.5,0.5-7,1.5-10H142.5c1,3,1.5,6.5,1.5,10c0,10-3.5,18.6-10.5,26.1
				C125.9,204.2,116.9,207.7,106.9,207.7z"/>
		</g>
	</g>
</g>
<g transform="matrix( 1, 0, 0, 1, 0,0) ">
	<g>
		<g id="Layer5_686_FILL">
			<path fill="#FFFFFF" d="M244.8,136v-2h-10V150h9.5v-2h-7v-5.5h5.5v-2h-5.5V136H244.8 M258.9,136v-2h-13v2h5.5v14h2v-14H258.9
				 M269.9,136v-2h-9.5V150h9v-2h-7v-5.5h5.5v-2h-5.5V136H269.9 M274.4,133.9h-1.5V150h2.5v-7c1,0,1.5,0,2,0l4,7h2.5l-4.5-7
				c1-0.5,1.5-1,2-2c0.5-1,1-1.5,1-2.5c0-3-2-5-6-5C275.9,133.4,275.4,133.4,274.4,133.9 M278.9,136c0.5,0.5,1,1.5,1,2.5
				s-0.5,1.5-1,2c-0.5,0.5-1.5,1-3,1c-0.5,0-1,0-1.5-0.5v-5c0.5,0,1,0,1,0C277.4,136,278.4,136,278.9,136 M197.2,133.9h-2.5V150h9.5
				v-2h-7V133.9 M212.2,136h5v-2h-12.5v2h5.5v14h2V136 M229.3,133.9l-3.5,12l-4-12h-1l-3,16.1h2l1.5-10l3.5,10.5h1l3.5-10.5l1.5,10
				h3l-3-16.1H229.3 M180.6,136c-1,1.5-1.5,3.5-1.5,5.5c0,2.5,0.5,4.5,1.5,6s3,2.5,5,2.5c2,0,4-0.5,5-2c1.5-1.5,2-3.5,2-6.5
				c0-2.5-0.5-4.5-2-6c-1-1.5-2.5-2.5-5-2.5C183.6,133.4,182.1,134.4,180.6,136 M190.1,142c0,2-0.5,3.5-1.5,4.5c-1,1.5-2,2-3.5,2
				s-2.5-0.5-3-2c-1-1-1.5-2.5-1.5-4.5s0.5-3.5,1.5-4.5c0.5-1,1.5-1.5,3-1.5C188.6,136,190.1,138,190.1,142 M176.1,133.9l-4,12
				l-4-12h-2.5l5.5,16.6h1.5l6-16.6H176.1z"/>
		</g>
	</g>
</g>
<g transform="matrix( 1, 0, 0, 1, 0,0) ">
	<g>
		<g id="Layer5_687_FILL">
			<path fill="#FFFFFF" d="M245.8,172.1v-2h-10v16.1h2.5v-7.5h5.5v-1.5h-5.5v-4.5h7.5 M214.7,169.6c-2,0-3.5,1-4.5,2.5
				c-1.5,1.5-2,3.5-2,6s0.5,4.5,2,6c1,1.5,2.5,2.5,4.5,2.5c2,0,4-1,5-2.5c1-1.5,2-3.5,2-6.5s-0.5-4.5-2-6
				C218.7,170.6,217.2,169.6,214.7,169.6 M211.7,173.6c0.5-1,1.5-1.5,3-1.5c3,0,4.5,2,4.5,6c0,2-0.5,4-1.5,5c-1,1-2,1.5-3.5,1.5
				c-1.5,0-2.5-0.5-3-1.5c-0.5-1.5-1-3-1-5C210.7,176.1,211.2,174.6,211.7,173.6 M226.8,176.6v-4.5h8v-2h-10v16.1h2v-7.5h5.5v-1.5
				h-5.5V176.6z"/>
		</g>
	</g>
</g>
<g transform="matrix( 1, 0, 0, 1, 0,0) ">
	<g>
		<g id="Layer5_688_FILL">
			<path fill="#FFFFFF" d="M343.6,284.9L343.6,284.9c1.5,0,2,0,2.5,0.5c0.5,0.5,1,1.5,1,2.5c0,2-1,3-3,3c-1,0-2-0.5-2.5-1.5l-1.5,2
				c0.5,0,1,0.5,2,0.5c0.5,0.5,1.5,0.5,2,0.5c1.5,0,3-0.5,4-1c1-1,1.5-2,1.5-3.5c0-1,0-2-1-2.5c-0.5-0.5-1.5-1-2-1.5
				c0.5,0,1.5-0.5,1.5-1.5c0.5-0.5,1-1.5,1-2.5s-0.5-2-1.5-2.5c-1-1-2-1.5-3.5-1.5s-2.5,0.5-3.5,1.5l1.5,1.5c0.5-0.5,1-1,2-1
				c1.5,0,2.5,1,2.5,2.5s-1,2.5-2.5,2.5h-0.5V284.9 M332.6,284.9v2h4.5v-2H332.6 M324.1,277.9c1.5,0,2.5,1,2.5,2.5
				c0,1-0.5,2.5-1.5,4l-5,7.5v0.5h10V291h-6.5l4-5.5c1-2,1.5-3.5,1.5-4.5c0-1.5-0.5-2.5-1.5-3c-1-1.5-2-2-3.5-2c-1,0-2,0-2.5,0.5
				c-1,0.5-1.5,1-1.5,1.5l1.5,1.5c0-0.5,0.5-0.5,1-1.5C323.1,277.9,323.6,277.9,324.1,277.9z"/>
		</g>
	</g>
</g>
<g transform="matrix( 1, 0, 0, 1, 0,0) ">
	<g>
		<g id="Layer5_689_FILL">
			<path fill="#FFFFFF" d="M304.5,211.7v-1.5H300v1.5H304.5 M294,201.2h-1c-0.5,0.5-1.5,1.5-2,2c-1,0.5-2,1-2.5,1.5v2l3-2v12h2.5
				V201.2 M311,201.2c-1,0-2,0-2.5,0.5c-1,0.5-1.5,1-2,2l2,1c0-0.5,0.5-0.5,0.5-1c0.5-0.5,1.5-0.5,2-0.5c1.5,0,2.5,0.5,2.5,2.5
				c0,1-0.5,2.5-1.5,4l-5.5,7.5l0,0h9.5v-1.5h-6.5l4-6c1-2,2-3.5,2-4.5c0-1.5-0.5-2.5-1.5-3.5C313.5,201.2,312.5,201.2,311,201.2z"
				/>
		</g>
	</g>
</g>
<g transform="matrix( 1, 0, 0, 1, 0,0) ">
	<g>
		<g id="Layer5_794_FILL">
			<path fill="#FFFFFF" d="M313.5,362.2h-5v2h5V362.2 M323.1,353.7h-0.5c-0.5,0.5-1.5,1.5-2.5,2.5c-1,0.5-1.5,1.5-2.5,1.5v2l3.5-2
				v12.5h2V353.7 M300,353.2c-1.5,0-2.5,0.5-3.5,1.5l1,1.5c0.5-0.5,1.5-1,2-1c2,0,3,1,3,2.5s-1,2.5-3,2.5l0,0v2l0,0c1,0,2,0.5,2.5,1
				c0.5,0.5,1,1,1,2c0,2-1,3-3,3c-1,0-2-0.5-3-1l-1,1.5c0.5,0.5,1,1,1.5,1c0.5,0.5,1.5,0.5,2.5,0.5c1.5,0,3-0.5,4-1.5
				c1-1,1-2,1.5-3.5c0-1,0-2-0.5-2.5c-0.5-1-1.5-1.5-2.5-1.5c0.5-0.5,1.5-1,1.5-1.5s1-1.5,1-2.5c0-1.5-0.5-2.5-1.5-3
				C303,353.7,301.5,353.2,300,353.2z"/>
		</g>
	</g>
</g>
<text transform="matrix(1 0 0 1 152.6615 49.9443)"><tspan x="0" y="0" font-family="'MicrosoftSansSerif'" font-size="24">VOLTMETER</tspan><tspan x="26" y="28.8" font-family="'MicrosoftSansSerif'" font-size="24">SWITCH</tspan></text>
</svg>
