<?xml version="1.0" encoding="utf-8"?>
<!-- Generator: Adobe Illustrator 18.0.0, SVG Export Plug-In . SVG Version: 6.00 Build 0)  -->
<!DOCTYPE svg PUBLIC "-//W3C//DTD SVG 1.1//EN" "http://www.w3.org/Graphics/SVG/1.1/DTD/svg11.dtd">
<svg version="1.1" id="Layer_1" xmlns="http://www.w3.org/2000/svg" xmlns:xlink="http://www.w3.org/1999/xlink" x="0px" y="0px"
	 viewBox="0 0 450 450" enable-background="new 0 0 450 450" xml:space="preserve">
<g transform="matrix( 0.5235748291015625, 0, 0, 0.586517333984375, 274.8,193.65) ">
	<g>
		<g id="Layer5_295_MEMBER_0_FILL">
			<path fill="#DFE6EC" d="M50.8-264.6v-65.7h-227.6v65.7H50.8z"/>
		</g>
	</g>
</g>
<g transform="matrix( 1, 0, 0, 1, 0,0) ">
	<g>
		<g id="Layer5_295_MEMBER_1_FILL">
			
				<radialGradient id="SVGID_1_" cx="-591.0157" cy="383.2287" r="2.4598" gradientTransform="matrix(1.2314 1.2314 -1.2314 1.2314 1388.0673 274.8896)" gradientUnits="userSpaceOnUse">
				<stop  offset="0" style="stop-color:#A5A39C"/>
				<stop  offset="1" style="stop-color:#34342F"/>
			</radialGradient>
			<path fill="url(#SVGID_1_)" d="M185.3,16c-0.9,0.7-1.2,1.7-1.2,3s0.3,2.1,1.2,3s1.7,1.4,3.1,1.4c1.2,0,2.1-0.5,3.1-1.4
				c0.7-0.9,1.2-1.7,1.2-3s-0.3-2.3-1.2-3.1c-0.9-0.9-1.9-1.2-3.1-1.2C187.2,14.8,186.2,15.3,185.3,16 M190,17.6
				c0.2,0.2,0.2,0.3,0.2,0.5s0,0.3-0.2,0.5l-0.5,0.5l0.5,0.5c0.2,0.2,0.2,0.3,0.2,0.5s0,0.3-0.2,0.5c-0.2,0.2-0.3,0.3-0.5,0.3
				s-0.3,0-0.5-0.2l-0.5-0.3l-0.5,0c-0.2,0.2-0.2,0.3-0.5,0.3c-0.2,0-0.5,0-0.7-0.2v-0.2c-0.2-0.2-0.3-0.2-0.3-0.5
				c0-0.2,0.2-0.3,0.3-0.5l0.5-0.5l-0.5-0.5c-0.2-0.2-0.3-0.3-0.3-0.5s0.2-0.3,0.3-0.5c0.2-0.2,0.5-0.2,0.7-0.3
				c0.2,0,0.3,0.2,0.5,0.3l0.5,0.3l0.5-0.3c0.2-0.2,0.3-0.2,0.5-0.3C189.6,17.2,189.8,17.2,190,17.6z"/>
			<path fill="#010101" d="M190.2,18.1c0-0.2,0-0.3-0.2-0.5s-0.3-0.3-0.5-0.3c-0.2,0.2-0.3,0.2-0.5,0.3l-0.5,0.3l-0.5-0.3
				c-0.2-0.2-0.2-0.3-0.5-0.3c-0.2,0.2-0.5,0.2-0.7,0.3s-0.3,0.3-0.3,0.5s0.2,0.3,0.3,0.5l0.5,0.5l-0.5,0.5
				c-0.2,0.2-0.3,0.3-0.3,0.5s0.2,0.3,0.3,0.5v0.2c0.2,0.2,0.5,0.2,0.7,0.2s0.3-0.2,0.5-0.3l0.5-0.2l0.5,0.3
				c0.2,0.2,0.3,0.2,0.5,0.2c0.2,0,0.3-0.2,0.5-0.3c0.2-0.2,0.2-0.2,0.2-0.5c0-0.2,0-0.3-0.2-0.5l-0.5-0.5l0.5-0.5
				C190,18.5,190.2,18.3,190.2,18.1z"/>
		</g>
	</g>
</g>
<g transform="matrix( 1, 0, 0, 1, 0,0) ">
	<g>
		<g id="Layer5_295_MEMBER_2_FILL">
			
				<radialGradient id="SVGID_2_" cx="-591.0103" cy="383.2256" r="2.4559" gradientTransform="matrix(1.2314 1.2314 -1.2314 1.2314 1494.8204 274.8896)" gradientUnits="userSpaceOnUse">
				<stop  offset="0" style="stop-color:#A5A39C"/>
				<stop  offset="1" style="stop-color:#34342F"/>
			</radialGradient>
			<path fill="url(#SVGID_2_)" d="M292.2,16c-0.9,0.9-1.2,1.9-1.2,3c0,1.2,0.3,2.1,1.2,3c0.7,0.9,1.7,1.4,3,1.4c1.2,0,2.1-0.5,3-1.4
				c0.9-0.9,1.2-1.7,1.4-3c0-1-0.5-2.1-1.4-3c-0.9-0.9-1.7-1.2-3-1.2C294,14.8,292.9,15.3,292.2,16 M296.7,17.6
				c0.2,0.2,0.2,0.5,0.2,0.7s0,0.2-0.2,0.5l-0.5,0.5l0.5,0.5c0.2,0.2,0.2,0.3,0.2,0.5c0,0.2,0,0.3-0.2,0.5c-0.2,0.2-0.3,0.3-0.5,0.3
				s-0.5,0-0.5-0.2l-0.5-0.3l-0.5,0.3c-0.2,0.2-0.3,0.2-0.5,0.2c-0.2,0-0.3-0.2-0.5-0.3c-0.2-0.2-0.3-0.2-0.3-0.5
				c0-0.2,0.2-0.3,0.3-0.5l0.3-0.5l-0.3-0.3c-0.2-0.2-0.3-0.3-0.3-0.5s0.2-0.3,0.3-0.7c0.2-0.2,0.3-0.3,0.5-0.2
				c0.2-0.2,0.3,0,0.5,0.2l0.5,0.3l0.5-0.3c0.2-0.2,0.3-0.3,0.5-0.2C296.4,17.4,296.6,17.4,296.7,17.6z"/>
			<path fill="#010101" d="M296.9,18.1c0-0.2,0-0.3-0.2-0.7c-0.2-0.2-0.3-0.2-0.5-0.2c-0.2-0.2-0.5,0-0.5,0.2l-0.5,0.3l-0.5-0.3
				c-0.2-0.2-0.3-0.3-0.5-0.2c-0.2-0.2-0.3,0-0.5,0.2c-0.2,0.2-0.3,0.5-0.3,0.7c0,0.2,0.2,0.3,0.3,0.5L294,19l-0.3,0.5
				c-0.2,0.2-0.3,0.3-0.3,0.5s0.2,0.3,0.3,0.5c0.2,0.2,0.3,0.3,0.5,0.3c0.2,0,0.3,0,0.5-0.2l0.5-0.3l0.5,0.3
				c0.2,0.2,0.3,0.2,0.5,0.2c0.2,0,0.3-0.2,0.5-0.3c0.2-0.2,0.2-0.2,0.2-0.5c0-0.2,0-0.3-0.2-0.5l-0.5-0.5l0.5-0.5
				C296.7,18.5,296.9,18.3,296.9,18.1z"/>
		</g>
	</g>
</g>
<g transform="matrix( 1.0240478515625, 0, 0, 1.0240478515625, 130.6,-6.2) ">
	<g>
		<g id="Layer5_749_FILL">
			<path fill="#383E45" d="M225.4,443.8V67.6H-40.9v376.2H225.4z"/>
		</g>
	</g>
	<g transform="matrix( 0.9765167236328125, 0, 0, 0.9765167236328125, -127.55,6.05) ">
		
			<path id="Layer5_749_1_STROKES" fill="none" stroke="#26282C" stroke-width="2" stroke-linecap="round" stroke-linejoin="round" d="
			M132.9,448.3h-266.3"/>
	</g>
	<g transform="matrix( 0.9765167236328125, 0, 0, 0.9765167236328125, -127.55,6.05) ">
		
			<path id="Layer5_749_2_STROKES" fill="none" stroke="#4F535D" stroke-width="2" stroke-linecap="round" stroke-linejoin="round" d="
			M-133.6,72.1h266.4"/>
	</g>
	<g transform="matrix( 0.9765167236328125, 0, 0, 0.9765167236328125, -127.55,6.05) ">
		
			<path id="Layer5_749_3_STROKES" fill="none" stroke="#585C66" stroke-width="2" stroke-linecap="round" stroke-linejoin="round" d="
			M132.9,72.1v376.2 M-133.6,448.3V72.1"/>
	</g>
</g>
<g transform="matrix( 1, 0, 0, 1, 0,0) ">
	<g>
		<g id="Layer5_750_FILL">
			<path fill="#676767" d="M106.1,68.6c-2.4-0.7-4.7-0.3-6.8,0.9c-2.1,1.2-3.5,3.1-4.2,5.4c-0.7,2.4-0.3,4.7,0.9,6.8
				c1.2,2.1,3.1,3.5,5.6,4.2c2.4,0.7,4.7,0.3,6.6-0.9c2.1-1.2,3.5-3.1,4.2-5.4c0.7-2.4,0.3-4.7-0.9-6.8
				C110.2,70.5,108.5,69.1,106.1,68.6 M105.4,71.1c1.7,0.5,3.1,1.4,4,3c1,1.6,1.2,3.3,0.9,4.9c-0.5,1.7-1.6,3.1-3.3,4
				c-1.6,0.9-3.1,1.2-4.9,0.7s-3-1.4-3.8-3c-0.9-1.6-1.2-3.3-0.7-5.1c0.3-1.6,1.4-2.8,3.1-3.7C102.1,70.7,103.6,70.5,105.4,71.1
				 M105.2,74.5c0-0.2,0-0.3,0-0.5c-0.2-0.2-0.3-0.2-0.5-0.2l0,0c-0.2,0-0.2,0-0.5,0c-0.2,0-0.3,0.2-0.5,0.3l-1.4,5.7
				c0,0.2,0,0.3,0.2,0.5c0.2,0.2,0.2,0.3,0.3,0.3l0,0c0.2,0,0.3,0,0.5-0.2c0.2-0.2,0.2-0.2,0.3-0.5L105.2,74.5z"/>
			
				<radialGradient id="SVGID_3_" cx="-675.1233" cy="121.7465" r="3.7144" gradientTransform="matrix(1.6819 0.4512 -0.4512 1.6819 1294.2196 176.9209)" gradientUnits="userSpaceOnUse">
				<stop  offset="0" style="stop-color:#E7E7E7"/>
				<stop  offset="1" style="stop-color:#AEAEAE"/>
			</radialGradient>
			<path fill="url(#SVGID_3_)" d="M109.2,73.8c-0.9-1.4-2.3-2.4-4-3s-3.3-0.2-4.9,0.7c-1.6,0.9-2.6,2.1-3.1,3.7
				c-0.5,1.7-0.2,3.5,0.7,5.1c0.9,1.6,2.1,2.4,3.8,3c1.7,0.5,3.3,0.2,4.9-0.7c1.7-0.9,2.8-2.3,3.3-4
				C110.6,77.1,110.2,75.6,109.2,73.8 M105.2,74c0,0,0,0.2,0,0.5l-1.6,5.6c0,0.2-0.2,0.3-0.3,0.5c-0.2,0.2-0.3,0.2-0.5,0.2l0,0
				c-0.2,0-0.2-0.2-0.3-0.3c-0.2-0.2-0.2-0.3-0.2-0.5l1.4-5.7c0-0.2,0.2-0.3,0.5-0.3c0.2,0,0.3,0,0.5,0l0,0
				C104.8,73.8,105,74,105.2,74z"/>
		</g>
	</g>
</g>
<g transform="matrix( 1, 0, 0, 1, 0,0) ">
	<g>
		<g id="Layer5_751_FILL">
			<path fill="#676767" d="M338.4,74.9c-0.7,2.4-0.3,4.7,0.9,6.8c1.2,2.1,3.1,3.5,5.6,4.2c2.3,0.7,4.5,0.3,6.6-0.9
				c2.1-1.2,3.5-3,4.2-5.4c0.7-2.4,0.3-4.7-0.9-6.8c-1.2-2.1-3.1-3.5-5.6-4.2c-2.4-0.5-4.7-0.2-6.8,1
				C340.5,70.7,338.9,72.6,338.4,74.9 M341.3,80.5c-0.9-1.6-1-3.1-0.7-4.9c0.5-1.7,1.6-3.1,3.3-4.2c1.4-0.9,3-1,4.7-0.5
				c1.7,0.3,3,1.4,3.8,3c0.9,1.6,1.2,3.1,0.9,4.9c-0.5,1.9-1.4,3.3-2.8,4.2c-1.6,0.9-3.3,1-5.1,0.5S342.4,81.8,341.3,80.5
				 M349.9,75.1c-0.2-0.2-0.3-0.2-0.5-0.2l-5.1,3c-0.2,0.2-0.2,0.3-0.2,0.5c0,0.2,0,0.3,0,0.5v0.2c0.2,0.2,0.3,0.2,0.5,0.2
				s0.2,0,0.5,0l5.1-3c0.2-0.2,0.3-0.3,0.3-0.3c0-0.2-0.2-0.3-0.2-0.5v-0.2C350,75.2,349.9,75.2,349.9,75.1z"/>
			
				<radialGradient id="SVGID_4_" cx="-502.035" cy="488.2543" r="3.7134" gradientTransform="matrix(0.8735 1.5066 -1.5066 0.8735 1521.3016 406.8629)" gradientUnits="userSpaceOnUse">
				<stop  offset="0" style="stop-color:#E7E7E7"/>
				<stop  offset="1" style="stop-color:#AEAEAE"/>
			</radialGradient>
			<path fill="url(#SVGID_4_)" d="M340.8,75.6c-0.3,1.7-0.2,3.3,0.7,4.9c1,1.6,2.3,2.4,4,3s3.5,0.3,5.1-0.5c1.4-0.9,2.4-2.3,2.8-4.2
				c0.3-1.7,0.2-3.3-0.9-4.9c-0.9-1.6-2.1-2.6-3.8-3c-1.7-0.5-3.3-0.5-4.7,0.5C342.4,72.4,341.3,73.8,340.8,75.6 M349.2,75.1
				c0.2-0.2,0.5-0.2,0.5,0.2c0.2,0.2,0.2,0.2,0.3,0.2v0.2c0,0.2,0.2,0.3,0.2,0.5c0,0-0.2,0.2-0.3,0.3l-5.1,3c-0.2,0-0.3,0-0.5,0
				c-0.2,0-0.3,0-0.5-0.2v-0.2c0-0.2,0-0.3,0-0.5c0-0.2,0-0.3,0.2-0.5L349.2,75.1z"/>
		</g>
	</g>
</g>
<g transform="matrix( 1, 0, 0, 1, 0,0) ">
	<g>
		<g id="Layer5_752_FILL">
			<path fill="#676767" d="M99.3,425.8c-2.1,1.2-3.5,3.1-4.2,5.4c-0.7,2.4-0.3,4.7,0.9,6.8c1.2,2.1,3.1,3.5,5.6,4.2s4.7,0.3,6.6-0.9
				c2.1-1.2,3.5-3.1,4.2-5.4c0.7-2.4,0.3-4.7-0.9-6.8c-1.2-2.1-3-3.5-5.4-4.2C103.6,424.4,101.4,424.6,99.3,425.8 M97.5,431.7
				c0.3-1.6,1.4-2.8,3.1-3.7c1.6-0.9,3.1-1,4.9-0.7c1.7,0.5,3.1,1.4,4,2.8c1,1.6,1.2,3.3,0.9,4.9c-0.5,1.7-1.6,3.1-3.3,4
				c-1.6,0.9-3.1,1.2-4.9,0.7c-1.7-0.5-3-1.4-3.8-3C97.2,435.2,97,433.6,97.5,431.7 M104.7,430.1c-0.2,0-0.2,0-0.5,0
				c-0.2,0-0.3,0.2-0.5,0.3l-1.4,5.7c0,0.2,0,0.3,0.2,0.5c0.2,0.2,0.2,0.3,0.3,0.3l0,0c0.2,0,0.3,0,0.5,0c0.2-0.2,0.2-0.3,0.3-0.5
				l1.4-5.7c0-0.2,0-0.3,0-0.5C105,430.3,104.8,430.3,104.7,430.1L104.7,430.1z"/>
			
				<radialGradient id="SVGID_5_" cx="-675.1233" cy="121.7465" r="3.7144" gradientTransform="matrix(1.6819 0.4512 -0.4512 1.6819 1294.2196 533.316)" gradientUnits="userSpaceOnUse">
				<stop  offset="0" style="stop-color:#E7E7E7"/>
				<stop  offset="1" style="stop-color:#AEAEAE"/>
			</radialGradient>
			<path fill="url(#SVGID_5_)" d="M100.5,428.1c-1.6,0.9-2.6,2.1-3.1,3.7c-0.5,1.7-0.2,3.5,0.7,5.1s2.1,2.4,3.8,3
				c1.7,0.5,3.3,0.2,4.9-0.7c1.7-0.9,2.8-2.3,3.3-4c0.3-1.6,0.2-3.3-0.9-4.9c-0.9-1.4-2.3-2.4-4-2.8
				C103.6,427,102.1,427.2,100.5,428.1 M104.1,430.1c0.2,0,0.3,0,0.5,0l0,0c0.2,0,0.3,0.2,0.5,0.2c0,0,0,0.2,0,0.5l-1.4,5.7
				c0,0.2-0.2,0.3-0.3,0.5c-0.2,0.2-0.3,0.2-0.5,0l0,0c-0.2,0-0.2-0.2-0.3-0.3c-0.2-0.2-0.2-0.3-0.2-0.5l1.4-5.7
				C103.8,430.3,104,430.1,104.1,430.1z"/>
		</g>
	</g>
</g>
<g transform="matrix( 1, 0, 0, 1, 0,0) ">
	<g>
		<g id="Layer5_753_FILL">
			<path fill="#676767" d="M355.6,435.9c0.7-2.4,0.3-4.7-0.9-6.8c-1.2-2.1-3.1-3.5-5.6-4.4c-2.4-0.5-4.7-0.2-6.8,1
				c-2.3,1.2-3.7,3-4.4,5.4s-0.3,4.7,0.9,6.8c1.2,2.1,3.1,3.5,5.6,4.2c2.3,0.7,4.5,0.3,6.6-0.9C353.7,440.1,355.1,438.3,355.6,435.9
				 M343.9,427.9c1.4-0.9,3-1,4.7-0.5c1.7,0.3,3,1.4,3.8,3c0.9,1.6,1.2,3.1,0.9,4.9c-0.5,1.9-1.4,3.3-2.8,4.2
				c-1.6,0.9-3.3,1-5.1,0.5c-1.7-0.5-3-1.4-4-3c-0.9-1.6-1-3.1-0.7-4.9C341.3,430.1,342.4,428.8,343.9,427.9 M344.5,435.7
				c0.2,0,0.2,0,0.5,0l5.1-3c0.2-0.2,0.3-0.3,0.3-0.3c0-0.2-0.2-0.3-0.2-0.5l0,0c-0.2,0-0.2-0.2-0.3-0.2c-0.2-0.2-0.3-0.2-0.5-0.2
				l-5.1,3c-0.2,0.2-0.2,0.3-0.2,0.5s0,0.3,0,0.5v0.2C344.1,435.5,344.3,435.7,344.5,435.7z"/>
			
				<radialGradient id="SVGID_6_" cx="-502.035" cy="488.2543" r="3.7134" gradientTransform="matrix(0.8735 1.5066 -1.5066 0.8735 1521.3016 763.2579)" gradientUnits="userSpaceOnUse">
				<stop  offset="0" style="stop-color:#E7E7E7"/>
				<stop  offset="1" style="stop-color:#AEAEAE"/>
			</radialGradient>
			<path fill="url(#SVGID_6_)" d="M348.6,427.4c-1.7-0.5-3.3-0.5-4.7,0.5c-1.6,1-2.8,2.4-3.3,4.2c-0.3,1.7-0.2,3.3,0.7,4.9
				c1,1.6,2.3,2.4,4,3c1.7,0.5,3.5,0.3,5.1-0.5c1.4-0.9,2.4-2.3,2.8-4.2c0.3-1.7,0.2-3.3-0.9-4.9
				C351.8,428.8,350.4,427.9,348.6,427.4 M345,435.7c-0.2,0-0.3,0-0.5,0c-0.2,0-0.3,0-0.5-0.2v-0.2c0-0.2,0-0.2,0-0.5
				c0-0.2,0-0.3,0.2-0.5l5.1-3c0.2-0.2,0.5,0,0.5,0.2c0.2,0.2,0.2,0.2,0.3,0.2l0,0c0,0.2,0.2,0.3,0.2,0.5c0,0-0.2,0.2-0.3,0.3
				L345,435.7z"/>
		</g>
	</g>
</g>
<g transform="matrix( 1, 0, 0, 1, 0,0) ">
	<g>
		<g id="Layer5_754_FILL">
			<path fill="#FFFFFF" d="M194.3,273.2c1.4-2.6,3.3-5.1,5.6-7.1c6.4-6.4,14.5-9.8,23.5-9.8c8,0,15,2.4,20.9,7.3l-1.2,1.2l11.3,6.4
				L248,260l-1.4,1.6c-6.6-5.4-14.3-8.2-23.2-8.2c-10.1,0-18.6,3.5-25.8,10.6c-2.4,2.4-4.5,5.1-6.1,7.8L194.3,273.2z"/>
		</g>
	</g>
</g>
<g transform="matrix( 1, 0, 0, 1, 0,0) ">
	<g>
		<g id="Layer5_755_FILL">
			
				<linearGradient id="SVGID_7_" gradientUnits="userSpaceOnUse" x1="45" y1="373.5831" x2="45" y2="413.5831" gradientTransform="matrix(1.7415 0 0 1.7415 86.9001 -332.391)">
				<stop  offset="0" style="stop-color:#787878"/>
				<stop  offset="1" style="stop-color:#3D3D3D"/>
			</linearGradient>
			<path fill="url(#SVGID_7_)" d="M157.8,322.7c-0.2,0.3-0.3,0.7-0.5,1l-9.8,18.5l0,0c-0.3,0.7-0.7,1.4-1,2.1v0.2
				c-1.2,2.6-1.7,5.4-1.7,8.4c0,3,0.5,5.6,1.6,8.2c0.2,0.3,0.3,0.9,0.5,1.4v0.2c0,0.2,0.2,0.3,0.2,0.5l10.3,19.3l0,0
				c0.5,1,1,1.9,1.7,2.6c1.7,1.7,3.7,2.6,6.1,2.6s4.5-0.9,6.1-2.6c0.5-0.5,1-1.2,1.6-1.9l0.2-0.2l10.1-19.2c0.3-0.7,0.7-1.4,1-1.9
				v-0.2l0,0c1-2.6,1.7-5.4,1.7-8.5c0-3.7-0.9-7.1-2.4-10.1v0.2l-10.1-19l0,0c-0.5-1-1-2.1-1.9-3c-1.7-1.7-3.8-2.6-6.1-2.6
				c-2.4,0-4.4,0.9-6.1,2.6C158.5,321.5,158.1,322.2,157.8,322.7L157.8,322.7 M159.2,323.6c0.3-0.5,0.7-1,1-1.4
				c1.4-1.4,3-2.1,4.9-2.1s3.7,0.7,4.9,2.1c0.7,0.7,1.2,1.4,1.7,2.4l0,0l10.1,19h0.2c1.6,2.8,2.3,5.9,2.3,9.4c0,2.8-0.5,5.4-1.4,7.7
				c-0.2,0.2-0.2,0.2-0.3,0.3c-0.3,0.7-0.7,1.2-0.9,1.9l-10.1,19.3l0,0l-0.2,0.2c-0.3,0.5-0.7,1-1.2,1.6c-1.4,1.4-3,1.9-4.9,1.9
				s-3.5-0.7-4.9-1.9c-0.7-0.7-1.2-1.4-1.6-2.3l-10.3-19.5c-0.2-0.2-0.2-0.5-0.3-0.7c-0.2-0.5-0.5-0.9-0.5-1.2
				c-0.9-2.3-1.4-4.7-1.4-7.5c0-2.8,0.5-5.2,1.4-7.5c0.2-0.2,0.2-0.3,0.2-0.5c0.3-0.7,0.7-1.2,1-1.7l0,0l9.8-18.6
				C158.8,324.3,159,323.9,159.2,323.6z"/>
			<path fill="#1C1B1A" d="M160.2,322.2c-0.3,0.3-0.7,0.7-1,1.4c-0.2,0.3-0.3,0.7-0.5,1l-9.8,18.6l0,0c-0.3,0.5-0.7,1-1,1.7
				c0,0.2,0,0.3-0.2,0.5c-1,2.3-1.4,4.7-1.4,7.5c0,2.8,0.5,5.2,1.4,7.5c0.2,0.3,0.3,0.7,0.5,1.2c0.2,0.2,0.2,0.3,0.3,0.7l10.1,19.3
				c0.3,0.7,0.9,1.4,1.6,2.3c1.4,1.4,3,1.9,4.9,1.9s3.7-0.7,4.9-1.9c0.5-0.5,0.9-1,1.2-1.6l0.2-0.2l0,0l10.1-19.3
				c0.3-0.7,0.7-1.2,0.9-1.9c0-0.2,0.2-0.2,0.3-0.3c0.9-2.3,1.4-4.9,1.4-7.7c0-3.3-0.7-6.4-2.3-9.4h-0.2l-10.1-19l0,0
				c-0.3-1-0.9-1.7-1.7-2.4c-1.4-1.4-3-2.1-4.9-2.1C163.2,320.3,161.6,321,160.2,322.2z"/>
		</g>
	</g>
</g>
<g transform="matrix( 1, 0, 0, 1, 0,0) ">
	<g>
		<g id="Layer5_756_FILL">
			<path fill="#676767" d="M161.8,321.5c-1.6,0.9-2.6,2.3-3,4.2c-0.5,1.7-0.3,3.3,0.5,4.9c0.9,1.6,2.3,2.6,4,3.1
				c1.7,0.5,3.3,0.2,4.9-0.7c1.6-0.9,2.6-2.3,3.1-4s0.2-3.3-0.7-4.9c-0.9-1.6-2.3-2.6-4-3.1C165.1,320.4,163.4,320.6,161.8,321.5
				 M160.6,325.8c0.2-1,0.9-1.9,2.3-2.6c1.2-0.7,2.3-0.9,3.5-0.5c1.2,0.3,2.1,1,2.8,2.3c0.7,1.2,1,2.4,0.7,3.5
				c-0.3,1.2-1,2.3-2.4,2.8c-1,0.7-2.3,0.9-3.5,0.5c-1.2-0.3-2.3-1-2.8-2.1C160.4,328.4,160.2,327.2,160.6,325.8 M163.4,326.4
				c-0.2,0-0.2,0-0.3,0.2c-0.2,0.2-0.2,0.2-0.2,0.2c0,0.2,0,0.3,0,0.5h0.2l1.6,0.5l-0.5,1.4c0,0.2,0,0.2,0.2,0.3
				c0,0.2,0.2,0.2,0.3,0.2c0.2,0,0.2,0,0.3,0c0.2,0,0.2-0.2,0.2-0.2l0.3-1.4l1.4,0.3c0.2,0,0.3,0,0.3,0c0.2,0,0.2-0.2,0.2-0.2l0,0
				c0-0.2,0-0.2,0-0.3c0-0.2,0-0.3-0.2-0.3l-1.4-0.3l0.3-1.6c0-0.2,0-0.2,0-0.2c-0.2,0-0.2-0.2-0.3-0.2s-0.2,0-0.3,0
				s-0.3,0.2-0.3,0.2l-0.3,1.6L163.4,326.4z"/>
			
				<radialGradient id="SVGID_8_" cx="-675.144" cy="121.3255" r="3.3383" gradientTransform="matrix(1.6823 0.45 -0.45 1.6823 1355.6708 426.8621)" gradientUnits="userSpaceOnUse">
				<stop  offset="0" style="stop-color:#E7E7E7"/>
				<stop  offset="1" style="stop-color:#AEAEAE"/>
			</radialGradient>
			<path fill="url(#SVGID_8_)" d="M162.8,323.2c-1.2,0.7-1.9,1.6-2.3,2.6c-0.3,1.4-0.2,2.8,0.5,4c0.7,1,1.6,1.7,2.8,2.1
				s2.4,0.2,3.5-0.5c1.2-0.7,2.1-1.6,2.4-2.8c0.3-1.2,0.2-2.4-0.7-3.5c-0.7-1-1.6-1.7-2.8-2.3C165.1,322.3,163.9,322.5,162.8,323.2
				 M163,326.4c0.2-0.2,0.2-0.2,0.3-0.2l1.4,0.3l0.3-1.6c0-0.2,0.2-0.2,0.3-0.2c0.2,0,0.2,0,0.3,0c0.2,0,0.2,0.2,0.3,0.2v0.2
				l-0.3,1.6l1.4,0.3c0.2,0,0.2,0.2,0.2,0.3c0,0,0,0.2,0,0.3l0,0c0,0.2-0.2,0.2-0.2,0.2s-0.2,0-0.3,0l-1.4-0.3l-0.3,1.4
				c0,0.2,0,0.2-0.2,0.2s-0.2,0-0.3,0s-0.2,0-0.3-0.2s-0.2-0.2-0.2-0.3l0.5-1.4l-1.6-0.5c-0.2,0-0.2,0-0.2,0c0-0.2,0-0.2,0-0.5
				C162.8,326.5,163,326.5,163,326.4z"/>
		</g>
	</g>
</g>
<g transform="matrix( 1, 0, 0, 1, 0,0) ">
	<g>
		<g id="Layer5_757_FILL">
			<path fill="#676767" d="M158.8,377c-0.5,1.7-0.3,3.3,0.5,4.9c0.9,1.6,2.3,2.6,4,3.1c1.7,0.5,3.3,0.2,4.9-0.7
				c1.6-0.9,2.6-2.3,3.1-4s0.2-3.3-0.7-5.1c-0.9-1.6-2.3-2.6-4-3.1c-1.7-0.5-3.5-0.2-5.1,0.7C160.2,373.9,159.3,375.3,158.8,377
				 M160.6,377.2c0.2-1,0.9-1.9,2.3-2.6c1.2-0.7,2.3-0.9,3.5-0.5c1.2,0.3,2.1,1,2.8,2.3c0.7,1.2,1,2.4,0.7,3.5c-0.3,1.2-1,2.3-2.4,3
				c-1,0.7-2.3,0.9-3.5,0.5s-2.3-1-2.8-2.1C160.4,380,160.2,378.6,160.6,377.2 M163.4,377.7c-0.2,0-0.2,0-0.3,0
				c-0.2,0.2-0.2,0.2-0.2,0.2c0,0.2,0,0.3,0,0.5l0.2,0.2l1.6,0.5l-0.5,1.4c0,0.2,0,0.2,0.2,0.3c0,0.2,0.2,0.2,0.3,0.2
				c0.2,0,0.2,0,0.3,0c0.2,0,0.2-0.2,0.2-0.3l0.3-1.4l1.6,0.3c0.2,0,0.3,0,0.3,0c0.2,0,0.2-0.2,0.2-0.3l0,0c0-0.2,0-0.2,0-0.2
				c0-0.2,0-0.3-0.2-0.3l-1.4-0.3l0.3-1.6c0-0.2,0-0.2,0-0.2c-0.2,0-0.2-0.2-0.3-0.2s-0.2,0-0.3,0c-0.2,0-0.3,0.2-0.3,0.3l-0.3,1.4
				L163.4,377.7z"/>
			
				<radialGradient id="SVGID_9_" cx="-675.144" cy="121.3255" r="3.3383" gradientTransform="matrix(1.6823 0.45 -0.45 1.6823 1355.6708 478.3228)" gradientUnits="userSpaceOnUse">
				<stop  offset="0" style="stop-color:#E7E7E7"/>
				<stop  offset="1" style="stop-color:#AEAEAE"/>
			</radialGradient>
			<path fill="url(#SVGID_9_)" d="M162.8,374.6c-1.2,0.7-1.9,1.6-2.3,2.6c-0.3,1.4-0.2,2.8,0.5,4c0.7,1,1.6,1.7,2.8,2.1
				s2.4,0.2,3.5-0.5c1.2-0.7,2.1-1.6,2.4-3c0.3-1.2,0.2-2.4-0.7-3.5c-0.7-1-1.6-1.7-2.8-2.3C165.1,373.9,163.9,374.1,162.8,374.6
				 M163,377.9c0.2-0.2,0.2-0.2,0.3,0l1.4,0.3l0.3-1.4c0-0.2,0.2-0.3,0.3-0.3c0.2,0,0.2,0,0.3,0c0.2,0,0.2,0.2,0.3,0.2v0.2l-0.3,1.6
				l1.4,0.3c0.2,0,0.2,0.2,0.2,0.3v0.2l0,0c0,0.2-0.2,0.2-0.2,0.3c0,0-0.2,0-0.3,0l-1.4-0.3l-0.3,1.4c0,0.2,0,0.2-0.2,0.3
				c-0.2,0-0.2,0-0.3,0s-0.2,0-0.3-0.2s-0.2-0.2-0.2-0.3l0.5-1.4l-1.6-0.5c-0.2,0-0.2,0-0.2-0.2s0-0.2,0-0.5
				C162.8,378.1,163,377.9,163,377.9z"/>
		</g>
	</g>
</g>
<g transform="matrix( 1, 0, 0, 1, 0,0) ">
	<g>
		<g id="Layer5_758_FILL">
			
				<linearGradient id="SVGID_10_" gradientUnits="userSpaceOnUse" x1="113.75" y1="373.5831" x2="113.75" y2="413.5831" gradientTransform="matrix(1.7415 0 0 1.7415 86.9001 -332.391)">
				<stop  offset="0" style="stop-color:#787878"/>
				<stop  offset="1" style="stop-color:#3D3D3D"/>
			</linearGradient>
			<path fill="url(#SVGID_10_)" d="M284.9,318.5c-2.4,0-4.4,0.9-6.1,2.6c-0.5,0.5-0.9,1-1.2,1.7l0,0c-0.2,0.3-0.3,0.7-0.5,1
				l-9.8,18.5h-0.2c-0.3,0.7-0.7,1.4-1,2.1v0.2c-1.2,2.6-1.7,5.4-1.7,8.4c0,3,0.5,5.6,1.7,8.2c0.2,0.3,0.3,0.9,0.5,1.4v0.2
				c0,0.2,0.2,0.3,0.3,0.5l10.1,19.3l0,0c0.5,1,1,1.9,1.7,2.6c1.7,1.7,3.7,2.6,6.1,2.6c2.4,0,4.5-0.9,6.1-2.6c0.5-0.5,1-1.2,1.6-1.9
				l0.2-0.2L303,364c0.3-0.7,0.5-1.4,0.9-1.9v-0.2l0,0c1-2.6,1.7-5.4,1.7-8.5c0-3.7-0.9-7.1-2.4-10.1v0.2l-10.1-19l0,0
				c-0.5-1-1-2.1-1.9-3C289.4,319.4,287.3,318.5,284.9,318.5 M279,323.6c0.3-0.5,0.7-1,1-1.4c1.4-1.4,3-2.1,4.9-2.1
				c1.9,0,3.7,0.7,5.1,2.1c0.7,0.7,1.2,1.4,1.6,2.4l0,0l10.1,19l0,0c1.6,2.8,2.3,5.9,2.3,9.4c0,2.8-0.5,5.4-1.4,7.7
				c-0.2,0.2-0.2,0.2-0.3,0.3c-0.3,0.7-0.5,1.2-0.9,1.9l-10.1,19.3l0,0l-0.2,0.2c-0.3,0.5-0.7,1-1.2,1.6c-1.4,1.4-3,1.9-5.1,1.9
				c-1.9,0-3.5-0.7-4.9-1.9c-0.7-0.7-1.2-1.4-1.6-2.3l-10.1-19.3c-0.2-0.2-0.2-0.5-0.3-0.7c-0.2-0.5-0.3-0.9-0.5-1.2
				c-0.9-2.3-1.4-4.7-1.4-7.5c0-2.8,0.5-5.2,1.4-7.5c0.2-0.2,0.2-0.3,0.2-0.5c0.3-0.7,0.7-1.2,1-1.7l0,0l9.8-18.6
				C278.6,324.3,278.8,323.9,279,323.6z"/>
			<path fill="#1C1B1A" d="M280,322.2c-0.3,0.3-0.7,0.7-1,1.4c-0.2,0.3-0.3,0.7-0.5,1l-9.8,18.6l0,0c-0.3,0.5-0.7,1-1,1.7
				c0,0.2,0,0.3-0.2,0.5c-1,2.3-1.4,4.7-1.4,7.5c0,2.8,0.5,5.2,1.4,7.5c0.2,0.3,0.3,0.7,0.5,1.2c0.2,0.2,0.2,0.3,0.3,0.7l10.1,19.3
				c0.3,0.7,0.9,1.4,1.6,2.3c1.4,1.4,3,1.9,4.9,1.9c1.9,0,3.7-0.7,5.1-1.9c0.5-0.5,0.9-1,1.2-1.6l0.2-0.2l0,0l10.1-19.3
				c0.3-0.7,0.7-1.2,0.9-1.9c0-0.2,0.2-0.2,0.3-0.3c0.9-2.3,1.4-4.9,1.4-7.7c0-3.3-0.7-6.4-2.3-9.4l0,0l-10.1-19l0,0
				c-0.3-1-0.9-1.7-1.6-2.4c-1.4-1.4-3-2.1-5.1-2.1C283,320.3,281.4,321,280,322.2z"/>
		</g>
	</g>
</g>
<g transform="matrix( 1, 0, 0, 1, 0,0) ">
	<g>
		<g id="Layer5_759_FILL">
			<path fill="#676767" d="M286.6,321c-1.7-0.5-3.5-0.3-5.1,0.5c-1.6,0.9-2.6,2.3-3,4.2c-0.5,1.7-0.3,3.3,0.5,4.9
				c0.9,1.6,2.3,2.6,4,3.1c1.7,0.5,3.3,0.2,4.9-0.7c1.6-0.9,2.6-2.3,3.1-4s0.2-3.3-0.7-4.9C289.8,322.3,288.4,321.3,286.6,321
				 M280.4,325.8c0.2-1,0.9-1.9,2.3-2.6c1.2-0.7,2.3-0.9,3.5-0.5c1.2,0.3,2.1,1,2.8,2.3c0.7,1.2,0.9,2.4,0.7,3.5
				c-0.3,1.2-1,2.3-2.4,2.8c-1,0.7-2.3,0.9-3.5,0.5c-1.2-0.3-2.3-1-2.8-2.1C280.2,328.4,280,327.2,280.4,325.8 M283.2,326.4
				c-0.2,0-0.2,0-0.3,0.2c-0.2,0.2-0.2,0.2-0.2,0.2c0,0.2,0,0.3,0,0.5c0,0,0.2,0,0.3,0l1.4,0.5l-0.5,1.4c0,0.2,0,0.2,0.2,0.3
				c0,0.2,0.2,0.2,0.3,0.2c0.2,0,0.2,0,0.3,0c0.2,0,0.2-0.2,0.2-0.2l0.3-1.4l1.4,0.3c0.2,0,0.3,0,0.3,0c0.2,0,0.2-0.2,0.3-0.2l0,0
				c0-0.2,0-0.2,0-0.3c0-0.2,0-0.3-0.3-0.3l-1.4-0.3l0.3-1.6c0-0.2,0-0.2,0-0.2c-0.2,0-0.2-0.2-0.3-0.2c-0.2,0-0.2,0-0.3,0
				c-0.2,0-0.3,0.2-0.3,0.2l-0.3,1.6L283.2,326.4z"/>
			
				<radialGradient id="SVGID_11_" cx="-675.144" cy="121.3255" r="3.3383" gradientTransform="matrix(1.6823 0.45 -0.45 1.6823 1475.485 426.8621)" gradientUnits="userSpaceOnUse">
				<stop  offset="0" style="stop-color:#E7E7E7"/>
				<stop  offset="1" style="stop-color:#AEAEAE"/>
			</radialGradient>
			<path fill="url(#SVGID_11_)" d="M282.6,323.2c-1.2,0.7-1.9,1.6-2.3,2.6c-0.3,1.4-0.2,2.8,0.5,4c0.7,1,1.6,1.7,2.8,2.1
				c1.2,0.3,2.4,0.2,3.5-0.5c1.2-0.7,2.1-1.6,2.4-2.8c0.3-1.2,0.2-2.4-0.7-3.5c-0.7-1-1.6-1.7-2.8-2.3
				C284.9,322.3,283.7,322.5,282.6,323.2 M282.8,326.4c0.2-0.2,0.2-0.2,0.3-0.2l1.6,0.3l0.3-1.6c0-0.2,0-0.2,0.3-0.2
				c0.2,0,0.2,0,0.3,0c0.2,0,0.2,0.2,0.3,0.2v0.2l-0.3,1.6l1.4,0.3c0.2,0,0.3,0.2,0.3,0.3c0,0,0,0.2,0,0.3l0,0
				c0,0.2-0.2,0.2-0.3,0.2c0,0,0,0-0.3,0l-1.4-0.3l-0.3,1.4c0,0.2,0,0.2-0.2,0.2c-0.2,0-0.2,0-0.3,0c-0.2,0-0.2,0-0.3-0.2
				c-0.2-0.2-0.2-0.2-0.2-0.3l0.5-1.4l-1.4-0.5c-0.2,0-0.2,0-0.3,0c0-0.2,0-0.2,0-0.5C282.6,326.5,282.8,326.5,282.8,326.4z"/>
		</g>
	</g>
</g>
<g transform="matrix( 1, 0, 0, 1, 0,0) ">
	<g>
		<g id="Layer5_760_FILL">
			<path fill="#676767" d="M291.4,380.3c0.5-1.7,0.2-3.3-0.7-5.1c-0.9-1.6-2.3-2.6-4-3.1c-1.7-0.5-3.5-0.2-5.1,0.7
				c-1.6,0.9-2.6,2.3-3,4.2c-0.5,1.7-0.3,3.3,0.5,4.9c0.9,1.6,2.3,2.6,4,3.1c1.7,0.5,3.3,0.2,4.9-0.7
				C289.8,383.5,290.8,382.1,291.4,380.3 M288.9,376.3c0.7,1.2,0.9,2.4,0.7,3.5c-0.3,1.2-1,2.3-2.4,3c-1,0.7-2.3,0.9-3.5,0.5
				c-1.2-0.3-2.3-1-2.8-2.1c-0.7-1.2-0.9-2.4-0.5-4c0.2-1,0.9-1.9,2.3-2.6c1.2-0.7,2.3-0.9,3.5-0.5
				C287.3,374.6,288.4,375.3,288.9,376.3 M286,376.9c0-0.2,0-0.2,0-0.2c-0.2,0-0.2-0.2-0.3-0.2c-0.2,0-0.2,0-0.3,0
				c-0.2,0-0.3,0.2-0.3,0.3l-0.3,1.4l-1.6-0.3c-0.2,0-0.2,0-0.3,0c-0.2,0.2-0.2,0.2-0.2,0.2c0,0.2,0,0.3,0,0.5c0,0,0.2,0.2,0.3,0.2
				l1.4,0.5l-0.5,1.4c0,0.2,0,0.2,0.2,0.3c0,0.2,0.2,0.2,0.3,0.2c0.2,0,0.2,0,0.3,0c0.2,0,0.2-0.2,0.2-0.3l0.3-1.4l1.4,0.3
				c0.2,0,0.3,0,0.3,0c0.2,0,0.2-0.2,0.3-0.3l0,0c0-0.2,0-0.2,0-0.2c0-0.2,0-0.3-0.3-0.3l-1.4-0.3L286,376.9z"/>
			
				<radialGradient id="SVGID_12_" cx="-675.144" cy="121.3255" r="3.3383" gradientTransform="matrix(1.6823 0.45 -0.45 1.6823 1475.485 478.3228)" gradientUnits="userSpaceOnUse">
				<stop  offset="0" style="stop-color:#E7E7E7"/>
				<stop  offset="1" style="stop-color:#AEAEAE"/>
			</radialGradient>
			<path fill="url(#SVGID_12_)" d="M289.6,379.8c0.3-1.2,0.2-2.4-0.7-3.5c-0.7-1-1.6-1.7-2.8-2.3c-1.2-0.3-2.4-0.2-3.5,0.5
				c-1.2,0.7-1.9,1.6-2.3,2.6c-0.3,1.4-0.2,2.8,0.5,4c0.7,1,1.6,1.7,2.8,2.1c1.2,0.3,2.4,0.2,3.5-0.5
				C288.6,382.1,289.3,381.2,289.6,379.8 M286,376.5v0.2l-0.3,1.6l1.4,0.3c0.2,0,0.3,0.2,0.3,0.3v0.2l0,0c0,0.2-0.2,0.2-0.3,0.3
				c0,0,0,0-0.3,0l-1.4-0.3l-0.3,1.4c0,0.2,0,0.2-0.2,0.3c-0.2,0-0.2,0-0.3,0c-0.2,0-0.2,0-0.3-0.2c-0.2-0.2-0.2-0.2-0.2-0.3
				l0.5-1.4l-1.4-0.5c-0.2,0-0.2,0-0.3-0.2c0-0.2,0-0.2,0-0.5l0.2-0.2c0.2-0.2,0.2-0.2,0.3,0l1.6,0.3l0.3-1.4c0-0.2,0-0.3,0.3-0.3
				c0.2,0,0.2,0,0.3,0C285.8,376.5,286,376.5,286,376.5z"/>
		</g>
	</g>
</g>
<g transform="matrix( 1, 0, 0, 1, 0,0) ">
	<g>
		<g id="Layer5_761_FILL">
			<path fill="#FFFFFF" d="M180.4,72.3h-0.9l-1.7,5.9l-1.7-5.9h-0.9l-1.7,8.7h1.4l0.9-4.7l1.7,4.9h0.7l1.7-4.9l0.9,4.7h1.4
				L180.4,72.3 M184.6,79.2h3l0.7,1.7h1.7l-3.5-8.7h-0.7l-3.5,8.7h1.7L184.6,79.2 M186,74.7l1,3.1h-2.1L186,74.7 M197.1,72.3h-1.6
				v5.2l-4-5.2h-0.9V81h1.4v-5.4l4.4,5.4h0.7V72.3 M276.7,73.7v-1.4h-5.6V81h5.6v-1.4h-4V77h3v-1.4h-3v-2.1h4 M207.1,86.7
				c-0.7,0.9-1,1.9-1,3.1c0,1.4,0.3,2.6,0.9,3.5c0.5,0.9,1.6,1.2,2.6,1.2c1.2,0,2.3-0.3,3-1.2c0.7-0.9,0.9-1.9,0.9-3.5
				c0-1.4-0.3-2.4-0.9-3.1c-0.7-0.7-1.6-1.2-3-1.2C208.6,85.5,207.8,86,207.1,86.7 M207.6,89.9c0-0.9,0.2-1.6,0.5-2.3
				c0.3-0.5,0.9-0.9,1.6-0.9c1.6,0,2.3,1,2.3,3.1c0,1-0.2,1.9-0.7,2.4c-0.3,0.5-1,0.7-1.7,0.7s-1.2-0.3-1.4-0.9
				C207.8,91.8,207.6,90.9,207.6,89.9 M202.7,86.9c0.7,0,1.4,0.2,1.7,0.5l0.5-1.2c-0.5-0.3-1.4-0.7-2.3-0.7c-1.2,0-2.1,0.5-3,1.4
				c-0.7,0.9-1,1.9-1,3.1c0,1.4,0.3,2.4,1,3.3c0.7,0.9,1.6,1.2,2.8,1.2c1.2,0,2.1-0.3,2.8-1l-0.9-1.2c-0.5,0.5-1,0.9-1.9,0.9
				c-0.7,0-1.2-0.2-1.7-0.7c-0.3-0.5-0.5-1.4-0.5-2.3s0.2-1.7,0.7-2.3C201.3,87.2,202,86.9,202.7,86.9 M203.8,78.2
				c0,0.5-0.2,0.9-0.5,1c-0.3,0.3-0.7,0.5-1.4,0.5c-0.5,0-0.9-0.2-1.2-0.5c-0.3-0.3-0.5-0.7-0.5-1v-5.9h-1.6v6.1
				c0,0.9,0.3,1.6,0.9,2.1s1.2,0.7,2.3,0.7s1.9-0.3,2.4-0.7c0.5-0.5,0.9-1.2,0.9-2.1v-6.1h-1.4v5.9 M210.4,72.1h-0.7l-3.5,8.7h1.7
				l0.7-1.7h3l0.5,1.7h1.7L210.4,72.1 M210,74.7l1,3.1H209L210,74.7 M220.3,81v-1.4h-4v-7.3h-1.6V81H220.3 M222.2,87.1h2.8v7.3h1.6
				v-7.3h3v-1.4h-7.3V87.1 M221.3,85.7h-1.4v5.2l-4.2-5.2h-0.9v8.7h1.6V89l4.4,5.4h0.5V85.7 M230.1,72.3l-2.1,5.9l-1.9-5.9h-1.7
				l3.3,8.9h0.9l3.5-8.9H230.1 M248,85.7h-1.6v8.7h5.4V93h-4v-7.3 M235.8,89.5c0.3-0.3,0.5-0.9,0.5-1.4c0-1.7-1-2.6-3.3-2.6
				c-0.3,0-0.9,0-1.4,0.2c-0.5,0-0.9,0-1,0v8.7h1.7v-3.7c0.3,0,0.7,0,0.9,0l2.3,3.7h1.7l-2.6-4C234.9,90.2,235.4,90,235.8,89.5
				 M232.1,87.1c0.2,0,0.3,0,0.5,0c0.7,0,1,0,1.4,0.2c0.3,0.2,0.3,0.5,0.5,0.9c0,0.5-0.2,0.9-0.5,1c-0.3,0.2-0.7,0.2-1.4,0.2
				c-0.2,0-0.3,0-0.5,0V87.1 M238.4,86.7c-0.7,0.9-1,1.9-1,3.1c0,1.4,0.3,2.6,0.9,3.5c0.7,0.9,1.6,1.2,2.6,1.2c1.2,0,2.3-0.3,3-1.2
				s0.9-1.9,0.9-3.5c0-1.4-0.3-2.4-0.9-3.1c-0.7-0.7-1.6-1.2-2.8-1.2C240,85.5,239.1,86,238.4,86.7 M241.2,86.9c1.6,0,2.3,1,2.3,3.1
				c0,1-0.2,1.9-0.7,2.4c-0.3,0.5-1,0.7-1.7,0.7s-1-0.3-1.4-0.9c-0.3-0.5-0.5-1.4-0.5-2.4c0-0.9,0.2-1.6,0.5-2.3
				C240,87.1,240.5,86.9,241.2,86.9 M242.8,72.3h-1.6V81h5.4v-1.4h-4v-7.3 M238.9,73.3c-0.7-0.7-1.6-1-2.8-1c-1,0-2.1,0.3-2.6,1.2
				c-0.7,0.9-1,1.9-1,3.1c0,1.4,0.3,2.6,0.9,3.3c0.7,0.9,1.6,1.2,2.8,1.2c1.2,0,2.3-0.3,3-1.2c0.7-0.9,1-1.9,1-3.3
				C239.8,75.1,239.5,74,238.9,73.3 M237.7,78.9c-0.3,0.5-1,0.7-1.7,0.7c-0.7,0-1.2-0.3-1.6-0.9c-0.3-0.5-0.5-1.4-0.5-2.3
				s0.2-1.6,0.5-2.3c0.3-0.5,0.9-0.9,1.6-0.9c1.6,0,2.3,1,2.3,3.1C238.2,77.5,238.1,78.4,237.7,78.9 M254.3,73.7v-1.4h-7.1v1.4h2.8
				V81h1.6v-7.3H254.3 M256.9,79.2h3l0.7,1.7h1.7l-3.5-8.7h-0.7l-3.5,8.7h1.7L256.9,79.2 M259.3,78h-2.1l1-3.1L259.3,78 M269.4,73
				c-0.7-0.5-1.6-0.7-2.4-0.7c-1.4,0-2.4,0.3-3.1,1.2c-0.9,0.9-1.2,1.9-1.2,3.3s0.3,2.4,1,3.3s1.7,1.2,3,1.2c0.5,0,1.2-0.2,1.7-0.2
				c0.5-0.2,1-0.3,1.4-0.7v-4h-2.6v1.4h1.2v1.7c-0.3,0.3-0.9,0.5-1.4,0.5c-0.9,0-1.6-0.3-2.1-0.9c-0.5-0.5-0.7-1.2-0.7-2.3
				c0-1,0.2-1.7,0.7-2.3c0.5-0.5,1.2-0.9,2.1-0.9c0.3,0,0.7,0.2,1,0.2c0.3,0.2,0.5,0.3,0.9,0.5L269.4,73z"/>
		</g>
	</g>
</g>
<g transform="matrix( 1, 0, 0, 1, 0,0) ">
	<g>
		<g id="Layer5_762_FILL">
			<path fill="#FFFFFF" d="M160.7,109.7h-0.9l-2.4,6.3h0.9L160.7,109.7 M161.8,109.7h-0.5v6.3h1.2v-3.8l3,4h0.5v-6.4h-1v3.8
				L161.8,109.7 M154.1,109.7c-0.2,0-0.5,0-1.4,0.2v6.1h1v-2.3c0.2,0,0.3,0,0.5,0c1.7,0,2.4-0.7,2.4-2.3c0-0.7-0.2-1-0.7-1.4
				C155.9,109.9,155.2,109.7,154.1,109.7 M154.3,110.6c1,0,1.6,0.3,1.6,0.9c0,0.3-0.2,0.7-0.3,0.9c-0.2,0.2-0.7,0.2-1.2,0.2
				c-0.2,0-0.2,0-0.5,0v-1.9C154.1,110.6,154.3,110.6,154.3,110.6 M193,109.7v1h2.8c-1.2,2.1-1.9,3.8-2.4,5.2h1.2
				c0.2-0.3,0.2-0.7,0.3-1s0.3-0.7,0.5-1.2c0.2-0.3,0.3-0.9,0.5-1.4c0.2-0.3,0.5-0.9,0.5-1.2l0.5-1v-0.3H193 M190.7,109.7h-0.5
				c-0.5,0.5-1,1-1.9,1.6v1l1.4-0.9v4.5h1V109.7 M194.2,100.5h-0.7l-1.2,6.3h1l0.7-3.5l1.2,3.5h0.5l1.2-3.5l0.7,3.5h1l-1.4-6.3h-0.5
				l-1.4,4.4L194.2,100.5 M176.8,109.5c-0.5,0-1,0.2-1.4,0.7c-0.3,0.3-0.5,0.9-0.5,1.4c0,0.7,0.2,1,0.5,1.6c0.3,0.5,0.9,0.5,1.4,0.5
				c0.3,0,0.5,0,0.7-0.2c-0.3,0.7-0.9,1.4-1.7,1.9l0.7,0.5c0.7-0.2,1.2-0.5,1.7-1.4c0.5-0.7,0.9-1.6,0.9-2.3
				C179,110.6,178.3,109.5,176.8,109.5 M176.9,112.7c-0.3,0-0.5,0-0.7-0.2c-0.2-0.2-0.2-0.5-0.2-0.9c0-0.3,0-0.7,0.2-0.9
				c0.2-0.2,0.3-0.2,0.7-0.2c0.7,0,0.9,0.3,0.9,1S177.5,112.7,176.9,112.7 M296.7,110.2l-0.5-0.7c-0.7,0.2-1.2,0.7-1.7,1.4
				c-0.5,0.9-0.9,1.6-0.9,2.4c0,1.7,0.7,2.6,2.3,2.6c0.5,0,1-0.2,1.4-0.5c0.3-0.3,0.5-0.9,0.5-1.6c0-0.5-0.2-1-0.5-1.6
				c-0.3-0.3-0.9-0.5-1.4-0.5c-0.2,0-0.5,0-0.9,0.2c0.2-0.3,0.5-0.7,0.9-1C295.9,110.8,296.2,110.4,296.7,110.2 M296.4,114.1
				c0,0.3,0,0.7-0.3,0.9c-0.2,0.2-0.3,0.2-0.5,0.2c-0.7,0-1-0.3-1-1s0.3-1,1-1c0.2,0,0.3,0.2,0.5,0.2
				C296.4,113.4,296.4,113.7,296.4,114.1 M292,109.7h-3.5v3.1l0.5,0.2c0.3-0.3,0.7-0.5,1-0.5c0.3,0,0.5,0.2,0.9,0.3
				c0.2,0.2,0.3,0.5,0.3,0.9c0,0.9-0.3,1.4-1.2,1.4c-0.3,0-0.7-0.2-1.2-0.5l-0.5,0.9c0.5,0.3,1,0.5,1.6,0.5c1.6,0,2.3-0.7,2.3-2.3
				c0-0.7-0.2-1.2-0.5-1.6c-0.3-0.3-0.7-0.5-1.4-0.5c-0.3,0-0.5,0-0.7,0.2v-1h2.4V109.7 M283.9,112.2l1.4-0.9v4.5h1v-6.1h-0.5
				c-0.5,0.5-1,1-1.9,1.6V112.2 M278.8,112.2l1.4-0.7v4.5h1v-6.3h-0.5c-0.5,0.5-1,1-1.9,1.6V112.2 M201.1,114.6
				c0.5-0.7,0.9-1.6,0.9-2.3c0-1.9-0.7-2.8-2.3-2.8c-0.5,0-1,0.2-1.4,0.7c-0.3,0.3-0.5,0.9-0.5,1.4c0,0.5,0.2,1,0.5,1.6
				c0.3,0.3,0.9,0.5,1.4,0.5c0.3,0,0.5,0,0.7-0.2c-0.3,0.7-0.9,1.4-1.7,1.9l0.5,0.5C199.9,116,200.4,115.5,201.1,114.6 M199.1,111.6
				c0-0.3,0-0.7,0.2-0.9c0.2-0.2,0.3-0.2,0.7-0.2c0.7,0,0.9,0.3,0.9,1s-0.3,1-0.9,1c-0.3,0-0.5,0-0.7-0.2
				C199.1,112.3,199.1,112,199.1,111.6 M221.3,110.4c-0.3,0.5-0.5,1.4-0.5,2.3c0,1.2,0.2,2.1,0.5,2.6s0.9,0.7,1.7,0.7
				c0.7,0,1.2-0.3,1.6-0.9c0.3-0.5,0.7-1.4,0.7-2.3c0-2.1-0.7-3.3-2.3-3.3C222.2,109.5,221.7,109.9,221.3,110.4 M223.8,110.9
				c0.2,0.3,0.2,0.9,0.2,1.7s0,1.6-0.2,1.9s-0.5,0.5-0.9,0.5c-0.3,0-0.7-0.2-0.9-0.5c-0.2-0.3-0.3-1-0.3-1.9c0-1.6,0.3-2.3,1.2-2.3
				C223.3,110.4,223.6,110.6,223.8,110.9 M234.8,100.5h-1.2l-1.4,4.4l-1.6-4.4h-1.2l2.3,6.3h0.5L234.8,100.5 M228,100.5h-0.5
				l-1.2,4.4l-1.4-4.4h-0.5l-1.2,6.3h1l0.7-3.5l1.2,3.5h0.5l1.2-3.5l0.7,3.5h1L228,100.5 M217.9,109.5c-0.7,0-1.2,0.3-1.7,0.9
				c-0.3,0.5-0.5,1.4-0.5,2.3c0,1.2,0.2,2.1,0.5,2.6c0.3,0.5,0.9,0.7,1.7,0.7c0.7,0,1.2-0.3,1.7-0.9c0.3-0.5,0.5-1.4,0.5-2.3
				C220.1,110.6,219.4,109.5,217.9,109.5 M216.8,112.7c0-1.6,0.3-2.3,1-2.3c0.3,0,0.5,0.2,0.9,0.5c0.2,0.3,0.3,0.9,0.3,1.7
				s0,1.6-0.3,1.9s-0.5,0.5-0.9,0.5s-0.7-0.2-0.9-0.5C216.8,114.1,216.8,113.5,216.8,112.7 M204.8,109.5c-0.3,0-0.7,0.2-1,0.3
				s-0.5,0.3-0.7,0.7l0.7,0.5c0.3-0.5,0.7-0.7,1-0.7c0.5,0,0.9,0.2,0.9,0.7c0,0.3-0.2,0.9-0.5,1.6l-1.9,2.8v0.3h3.8v-0.9h-2.3
				l1.2-2.1c0.5-0.7,0.7-1.2,0.7-1.7s-0.2-0.9-0.5-1.2C205.8,109.7,205.3,109.5,204.8,109.5 M207.2,100.5c-0.2,0-0.7,0-1.7,0.2v6.1
				h1.4c2.1,0,3.1-1,3.1-3.5c0-0.9-0.2-1.6-0.7-2.1C208.8,100.7,208.1,100.5,207.2,100.5 M206.7,101.5c0.2,0,0.3,0,0.5,0
				c1.2,0,1.7,0.7,1.7,1.9c0,0.7-0.2,1.4-0.5,1.7s-0.9,0.7-1.4,0.7c-0.2,0-0.5,0-0.7-0.2v-4.2 M203.9,101.4
				c-0.5-0.5-1.2-0.9-2.1-0.9s-1.4,0.3-1.9,0.9s-0.7,1.4-0.7,2.3c0,1,0.2,1.7,0.7,2.3c0.3,0.5,1,0.9,1.9,0.9s1.6-0.3,2.1-0.9
				c0.5-0.5,0.7-1.4,0.7-2.3C204.6,102.6,204.3,101.9,203.9,101.4 M200.8,102.1c0.2-0.3,0.5-0.7,1-0.7c1,0,1.6,0.7,1.6,2.3
				c0,0.7-0.2,1.2-0.5,1.6c-0.3,0.3-0.7,0.7-1.2,0.7s-0.9-0.2-1-0.7c-0.2-0.3-0.3-0.9-0.3-1.6C200.3,102.9,200.4,102.4,200.8,102.1
				 M217.2,100.5h-1.2v6.3h4v-0.9h-2.8L217.2,100.5 M215.1,100.5h-4v6.3h4v-0.9h-2.8V104h2.1v-1h-2.1v-1.4h3v-1 M264,109.7h-0.9
				l-2.3,6.3h0.9L264,109.7 M269.2,109.7h-1v3.8l-3-3.8h-0.5v6.3h1v-3.8l3,4h0.5V109.7 M256.5,111.3c0,0.3,0,0.5,0.2,0.9
				c0,0.2,0.2,0.3,0.3,0.5c0.2,0.2,0.5,0.3,0.9,0.7c0.5,0.2,0.9,0.5,1,0.7c0.2,0.2,0.2,0.3,0.2,0.7c0,0.5-0.3,0.7-1,0.7
				c-0.3,0-0.9-0.2-1.2-0.5l-0.5,0.9c0.5,0.3,1,0.5,1.6,0.5c0.7,0,1.2-0.2,1.6-0.5c0.3-0.3,0.7-0.7,0.7-1.4c0-0.3,0-0.5-0.2-0.7
				c-0.2-0.2-0.2-0.5-0.5-0.7c-0.2-0.2-0.5-0.3-0.9-0.5c-0.7-0.3-1-0.7-1-1.2c0-0.2,0-0.3,0.2-0.5c0.2-0.2,0.3-0.2,0.5-0.2
				c0.3,0,0.9,0.2,1.2,0.5l0.3-0.9c-0.3-0.3-0.9-0.5-1.6-0.5c-0.5,0-1,0.2-1.4,0.5C256.7,110.4,256.5,110.8,256.5,111.3
				 M257.2,102.1c0-0.5-0.2-0.9-0.5-1.2s-0.9-0.5-1.4-0.5c-0.3,0-0.7,0.2-1,0.3c-0.3,0.2-0.5,0.3-0.7,0.7l0.7,0.5
				c0.3-0.5,0.7-0.7,1-0.7c0.5,0,0.9,0.2,0.9,0.7c0,0.3-0.2,0.9-0.7,1.6l-1.9,2.8v0.3h4v-0.9h-2.3l1.2-2.1
				C256.9,103.1,257.2,102.6,257.2,102.1 M244.3,110.4c-0.3,0.5-0.7,1.4-0.7,2.3c0,1.2,0.2,2.1,0.5,2.6s0.9,0.7,1.6,0.7
				c0.7,0,1.2-0.3,1.7-0.9c0.3-0.5,0.7-1.4,0.7-2.3c0-2.1-0.7-3.3-2.3-3.3C245.2,109.5,244.7,109.9,244.3,110.4 M244.9,112.7
				c0-1.6,0.3-2.3,1.2-2.3c0.3,0,0.5,0.2,0.7,0.5c0.2,0.3,0.3,0.9,0.3,1.7s0,1.6-0.3,1.9c-0.2,0.3-0.5,0.5-0.9,0.5
				c-0.3,0-0.7-0.2-0.7-0.5C244.9,114.1,244.9,113.5,244.9,112.7 M239.3,110.4c-0.3,0.5-0.5,1.4-0.5,2.3c0,1.2,0.2,2.1,0.5,2.6
				c0.3,0.5,0.9,0.7,1.7,0.7c0.7,0,1.2-0.3,1.7-0.9c0.3-0.5,0.5-1.4,0.5-2.3c0-2.1-0.7-3.3-2.3-3.3
				C240.2,109.5,239.6,109.9,239.3,110.4 M240.8,110.4c0.3,0,0.7,0.2,0.9,0.5s0.2,0.9,0.2,1.7s0,1.6-0.2,1.9s-0.5,0.5-0.9,0.5
				s-0.7-0.2-0.9-0.5c-0.2-0.3-0.3-1-0.3-1.9C239.8,111.3,240.2,110.4,240.8,110.4 M236.7,109.7h-0.5c-0.5,0.5-1,1-1.9,1.6v1
				l1.4-0.9v4.5h1V109.7 M239.3,101.9l0.5-0.9c-0.3-0.3-0.9-0.5-1.7-0.5s-1.6,0.3-2.1,0.9c-0.5,0.7-0.9,1.4-0.9,2.3
				c0,1,0.2,1.7,0.7,2.3c0.5,0.5,1.2,0.9,2.1,0.9s1.6-0.2,2.1-0.7l-0.5-0.9c-0.3,0.3-0.7,0.7-1.4,0.7c-0.5,0-0.9-0.2-1.4-0.7
				c-0.3-0.3-0.5-0.9-0.5-1.6c0-0.7,0.2-1.2,0.5-1.7c0.3-0.3,0.7-0.5,1.2-0.5C238.6,101.5,238.9,101.5,239.3,101.9 M251.3,100.5
				h-0.5c-0.5,0.5-1,1-1.9,1.6v1l1.4-0.9v4.5h1V100.5 M246.2,100.5h-0.5c-0.5,0.5-1,1-1.9,1.6v1l1.4-0.9v4.5h1V100.5z"/>
		</g>
	</g>
</g>
<g transform="matrix( 1, 0, 0, 1, 0,0) ">
	<g>
		<g id="Layer5_763_FILL">
			<path fill="#FFFFFF" d="M229.9,132.4h3v-1h-4.2v6.3h1.2v-3h2.3v-0.9h-2.3V132.4 M220.1,131.3c-0.9,0-1.4,0.3-1.9,1
				c-0.5,0.5-0.7,1.4-0.7,2.3c0,1,0.2,1.7,0.7,2.4c0.3,0.5,1,0.9,1.9,0.9s1.6-0.3,2.1-0.9c0.5-0.5,0.7-1.4,0.7-2.4s-0.2-1.7-0.7-2.4
				C221.7,131.5,221,131.3,220.1,131.3 M218.9,132.9c0.2-0.3,0.5-0.7,1-0.7c1,0,1.6,0.7,1.6,2.3c0,0.7-0.2,1.2-0.5,1.7
				c-0.3,0.3-0.7,0.7-1.2,0.7c-0.5,0-0.9-0.2-1.2-0.7c-0.2-0.3-0.3-0.9-0.3-1.7C218.6,133.7,218.7,133.2,218.9,132.9 M224.8,133.7
				v-1.4h3v-1h-4v6.3h1v-3h2.3v-0.9H224.8z"/>
		</g>
	</g>
</g>
<g transform="matrix( 1, 0, 0, 1, 0,0) ">
	<g>
		<g id="Layer5_764_FILL">
			<path fill="#FFFFFF" d="M151.9,179.4h-0.5l-1.4,4.2l-1.4-4.2H148l-1.2,6.3h1l0.7-3.3l1.2,3.5h0.5l1.2-3.5l0.7,3.3h1L151.9,179.4
				 M157.6,185.6h1.2l-2.4-6.3h-0.5l-2.6,6.3h1.2l0.5-1.4h2.3L157.6,185.6 M155.3,183.6l0.9-2.4l0.7,2.4H155.3 M163.9,179.4h-1v3.8
				l-3-3.8h-0.5v6.3h1v-3.8l3,4h0.5V179.4 M166.3,179.4h-1v4.4c0,0.7,0.2,1,0.7,1.4c0.3,0.3,0.9,0.5,1.6,0.5s1.4-0.2,1.7-0.5
				s0.7-0.9,0.7-1.4v-4.4h-1.2v4.2c0,0.3-0.2,0.7-0.3,0.9c-0.2,0.2-0.5,0.3-1,0.3c-0.3,0-0.5-0.2-0.7-0.3c-0.2-0.2-0.3-0.5-0.3-0.9
				V179.4 M174.8,185.6h1.2l-2.6-6.3h-0.5l-2.6,6.3h1.2l0.5-1.4h2.3L174.8,185.6 M172.6,183.6l0.9-2.4l0.7,2.4H172.6 M177.8,179.4
				h-1.2v6.3h4v-0.9h-2.8V179.4z"/>
		</g>
	</g>
</g>
<g transform="matrix( 1, 0, 0, 1, 0,0) ">
	<g>
		<g id="Layer5_765_FILL">
			<path fill="#FFFFFF" d="M272.9,179.4h-0.5l-2.6,6.3h1.2l0.5-1.4h2.3l0.5,1.4h1.2L272.9,179.4 M273.4,183.6h-1.6l0.9-2.4
				L273.4,183.6 M280,185.3c0.3-0.3,0.5-0.9,0.5-1.4v-4.5h-1v4.2c0,0.3-0.2,0.7-0.3,0.9c-0.2,0.2-0.5,0.3-0.9,0.3s-0.7-0.2-0.9-0.3
				c-0.2-0.2-0.3-0.5-0.3-0.9v-4.2h-1v4.4c0,0.7,0.2,1,0.5,1.4c0.3,0.3,1,0.5,1.7,0.5C279.2,185.8,279.7,185.6,280,185.3
				 M287.7,180.2c-0.5,0.5-0.7,1.4-0.7,2.3c0,1,0.2,1.7,0.7,2.4c0.3,0.5,1,0.9,1.9,0.9c0.9,0,1.6-0.3,2.1-0.9
				c0.5-0.5,0.7-1.4,0.7-2.4c0-1-0.2-1.9-0.7-2.4c-0.5-0.5-1.2-0.9-2.1-0.9C288.9,179.4,288.2,179.7,287.7,180.2 M288.6,184.2
				c-0.2-0.3-0.3-1-0.3-1.7c0-0.7,0.2-1.2,0.5-1.7c0.2-0.3,0.5-0.5,1-0.5c1,0,1.6,0.7,1.6,2.3c0,0.7-0.2,1.2-0.5,1.7
				c-0.3,0.3-0.7,0.5-1.2,0.5C289.3,184.8,288.7,184.6,288.6,184.2 M286.6,180.4v-1h-5.2v1h2.1v5.2h1v-5.2H286.6z"/>
		</g>
	</g>
</g>
<g transform="matrix( 1, 0, 0, 1, 0,0) ">
	<g>
		<g id="Layer5_766_FILL">
			<path fill="#FFFFFF" d="M285.8,276v-0.9h-3.1v5.1h3.1v-0.9h-2.3v-1.6h1.7v-0.7h-1.7v-1H285.8 M279,277.1c0.2,0.2,0.2,0.3,0.3,0.5
				c0.2,0.2,0.3,0.2,0.9,0.5c0.3,0.2,0.7,0.3,0.9,0.5c0.2,0.2,0.2,0.3,0.2,0.5c0,0.3-0.3,0.5-0.9,0.5c-0.3,0-0.7-0.2-1-0.3l-0.3,0.9
				c0.3,0.2,0.9,0.3,1.4,0.3c0.5,0,0.9-0.2,1.2-0.5c0.3-0.2,0.5-0.5,0.5-0.9c0-0.2,0-0.5-0.2-0.7c0-0.2-0.2-0.3-0.3-0.5
				c-0.2-0.2-0.5-0.3-0.9-0.5c-0.7-0.3-0.9-0.5-0.9-0.9c0-0.2,0-0.3,0.2-0.5c0.2-0.2,0.3-0.2,0.5-0.2c0.3,0,0.7,0.2,0.9,0.3l0.3-0.7
				c-0.2-0.2-0.7-0.3-1.2-0.3c-0.5,0-0.9,0.2-1.2,0.3c-0.3,0.3-0.5,0.7-0.5,1C278.8,276.7,278.8,276.9,279,277.1 M275.5,279.2h1.7
				l0.3,1h0.9l-1.9-5.1h-0.3l-2.1,5.1h1L275.5,279.2 M275.7,278.6l0.5-1.9l0.7,1.9H275.7 M270.6,275.3v5.1h3.1v-0.9h-2.3v-1.6h1.7
				v-0.7h-1.7v-1h2.3v-0.9H270.6 M265.2,276.2l0.3-0.7c-0.3-0.2-0.9-0.3-1.4-0.3c-0.7,0-1.2,0.2-1.6,0.7c-0.5,0.5-0.7,1.2-0.7,1.9
				c0,0.7,0.2,1.4,0.7,1.7c0.3,0.5,0.9,0.7,1.6,0.7s1.2-0.2,1.7-0.7l-0.5-0.7c-0.3,0.3-0.7,0.5-1.2,0.5c-0.3,0-0.7-0.2-0.9-0.5
				c-0.2-0.3-0.3-0.9-0.3-1.4s0.2-1,0.3-1.4c0.3-0.3,0.7-0.5,1-0.5C264.7,276,265.1,276,265.2,276.2 M267.8,275.2
				c-0.2,0-0.5,0-0.9,0s-0.5,0-0.5,0v5.1h0.9v-2.1c0.3,0,0.5,0,0.5,0l1.4,2.1h1l-1.4-2.3c0.3,0,0.5-0.2,0.7-0.5
				c0.2-0.2,0.2-0.5,0.2-0.9C269.8,275.7,269.1,275.2,267.8,275.2 M267.7,276c0.3,0,0.7,0,0.9,0.2c0.2,0.2,0.3,0.3,0.3,0.5
				c0,0.3,0,0.5-0.3,0.7c-0.2,0.2-0.3,0.2-0.7,0.2c-0.2,0-0.3,0-0.5,0v-1.4C267.3,276,267.5,276,267.7,276 M256.5,275.3h-0.9v5.1
				h0.9V275.3 M261.2,275.3h-0.9v3l-2.4-3h-0.3v5.1h0.9v-3.1l2.4,3.1h0.5v-5.1H261.2z"/>
		</g>
	</g>
</g>
<g transform="matrix( 1, 0, 0, 1, 0,0) ">
	<g>
		<g id="Layer5_767_FILL">
			<path fill="#FFFFFF" d="M194.5,334.7h-1.2l-1.6,4.4l-1.4-4.4h-1.2l2.4,6.3h0.5L194.5,334.7 M195.6,335.6
				c-0.5,0.5-0.7,1.4-0.7,2.3c0,1,0.2,1.7,0.7,2.3c0.3,0.5,1,0.9,1.9,0.9s1.6-0.3,2.1-0.9c0.5-0.5,0.7-1.4,0.7-2.3
				c0-1-0.2-1.9-0.7-2.4c-0.5-0.5-1-0.9-1.9-0.9C196.8,334.7,196.1,335.1,195.6,335.6 M196.1,337.8c0-0.7,0.2-1.2,0.5-1.7
				c0.2-0.3,0.7-0.7,1.2-0.7c1,0,1.6,0.7,1.6,2.3c0,0.7-0.2,1.2-0.5,1.6c-0.3,0.3-0.7,0.7-1.2,0.7s-0.9-0.2-1-0.7
				C196.1,339.1,196.1,338.5,196.1,337.8 M202.4,334.7h-1.2v6.3h4v-0.9h-2.8L202.4,334.7 M213.7,334.7h-0.5l-2.6,6.3h1.2l0.5-1.4
				h2.3l0.5,1.4h1.2L213.7,334.7 M212.8,338.9l0.9-2.3l0.7,2.3H212.8 M210.7,335.8v-1h-5.2v1h1.9v5.2h1v-5.2H210.7 M223.8,338.2h2.1
				v-1h-2.1v-1.4h2.8v-1h-3.8v6.3h4v-0.9H224v-1.9 M220.5,335.9c0.3,0,0.5,0.2,0.5,0.3l0.5-0.9c-0.5-0.3-1-0.7-1.7-0.7
				c-0.9,0-1.7,0.3-2.3,0.9c-0.5,0.5-0.9,1.4-0.9,2.4c0,0.9,0.3,1.7,0.9,2.3c0.5,0.5,1.2,0.9,2.1,0.9c0.3,0,0.9,0,1.4-0.2
				c0.3-0.2,0.7-0.3,0.9-0.5v-2.8h-1.9v1h0.9v1.2c-0.3,0.2-0.7,0.3-1,0.3c-0.5,0-1-0.2-1.4-0.7c-0.3-0.5-0.5-0.9-0.5-1.6
				s0.2-1.2,0.5-1.7c0.3-0.5,0.9-0.5,1.4-0.5C219.9,335.8,220.1,335.8,220.5,335.9 M232.7,334.7h-0.5l-2.6,6.3h1.2l0.5-1.4h2.3
				l0.5,1.4h1.2L232.7,334.7 M231.6,338.9l0.9-2.3l0.7,2.3H231.6 M237.4,334.7c-0.2,0-0.7,0-1.7,0.2v6.1h1.4c2.1,0,3.3-1,3.3-3.5
				c0-0.9-0.3-1.6-0.9-2.1C238.9,334.9,238.4,334.7,237.4,334.7 M236.8,335.8c0.2,0,0.3,0,0.5,0c1.2,0,1.7,0.7,1.7,1.9
				c0,0.7-0.2,1.4-0.5,1.7s-0.7,0.7-1.4,0.7c-0.2,0-0.5,0-0.5-0.2v-4.2 M245.9,334.7v4.4c0,0.7,0.2,1.2,0.7,1.6
				c0.3,0.3,0.9,0.5,1.7,0.5c0.7,0,1.4-0.2,1.7-0.5c0.3-0.3,0.5-0.9,0.5-1.6v-4.4h-1v4.4c0,0.3-0.2,0.5-0.3,0.7
				c-0.2,0.2-0.5,0.3-0.9,0.3c-0.3,0-0.7-0.2-0.9-0.3c-0.2-0.2-0.3-0.3-0.3-0.7v-4.4H245.9 M244.9,338.7v-4h-1.2v4
				c0,0.5,0,0.9-0.2,1s-0.3,0.3-0.7,0.3c-0.5,0-0.9-0.2-0.9-0.7H241c0,0.5,0.2,0.9,0.5,1c0.3,0.3,0.7,0.3,1.2,0.5
				c0.9,0,1.4-0.2,1.7-0.5C244.7,340.1,244.9,339.4,244.9,338.7 M253.4,335.6c0.3,0,0.9,0.2,1.2,0.5l0.3-0.9
				c-0.3-0.3-0.9-0.5-1.6-0.5c-0.5,0-1,0.2-1.4,0.5c-0.3,0.3-0.5,0.7-0.5,1c0,0.3,0,0.5,0.2,0.9c0,0.2,0.2,0.3,0.3,0.5
				s0.5,0.3,0.9,0.7c0.5,0.2,0.7,0.5,0.9,0.7s0.3,0.3,0.3,0.7c0,0.5-0.3,0.7-1,0.7c-0.3,0-0.9-0.2-1.2-0.5l-0.5,0.9
				c0.5,0.3,1,0.3,1.6,0.5c0.7,0,1.2-0.2,1.6-0.5c0.3-0.3,0.5-0.7,0.5-1.4c0-0.3,0-0.5,0-0.7c-0.2-0.2-0.3-0.5-0.5-0.7
				s-0.5-0.3-0.9-0.5c-0.7-0.3-1.2-0.7-1.2-1.2c0-0.2,0-0.3,0.2-0.5C253,335.8,253.2,335.6,253.4,335.6 M255.7,335.8h2.1v5.2h1v-5.2
				h2.1v-1h-5.2L255.7,335.8 M238.9,325.7h-1.2v6.3h4v-1h-2.8L238.9,325.7 M234.8,325.5h-0.5l-2.6,6.3h1.2l0.5-1.4h2.3l0.5,1.4h1.2
				L234.8,325.5 M235.3,329.8h-1.4l0.7-2.3L235.3,329.8 M227.6,325.7h-1v4.4c0,0.7,0.2,1.2,0.5,1.6c0.3,0.3,1,0.5,1.7,0.5
				c0.7,0,1.4-0.2,1.7-0.5c0.3-0.3,0.5-0.9,0.5-1.6v-4.4h-1v4.4c0,0.3-0.2,0.5-0.3,0.7c-0.2,0.2-0.5,0.3-0.9,0.3
				c-0.3,0-0.7-0.2-0.9-0.3c-0.2-0.2-0.3-0.3-0.3-0.7L227.6,325.7 M221.2,325.7h-0.5v6.3h1.2v-3.8l3,4h0.5v-6.4h-1v3.8L221.2,325.7
				 M217.5,325.5H217l-2.6,6.3h1.4l0.5-1.4h2.3l0.5,1.4h1.2L217.5,325.5 M218,329.8h-1.4l0.9-2.3L218,329.8 M209.8,325.7h-0.7
				l-1.2,6.3h1l0.7-3.5l1.2,3.5h0.5l1.2-3.5l0.7,3.5h1l-1.4-6.3h-0.5l-1.4,4.4L209.8,325.7z"/>
		</g>
	</g>
</g>
<g transform="matrix( 1, 0, 0, 1, 0,0) ">
	<g>
		<g id="Layer5_768_FILL">
			<path fill="#FFFFFF" d="M127.3,397.4c-0.3-0.3-0.9-0.5-1.4-0.5c-0.3,0-0.7,0.2-1,0.3c-0.3,0.2-0.5,0.3-0.7,0.7l0.7,0.7
				c0.3-0.5,0.7-0.7,1-0.7c0.5,0,0.9,0.2,0.9,0.7c0,0.3-0.2,0.9-0.7,1.6l-1.9,2.8v0.3h4v-0.9h-2.3l1.2-1.9c0.5-0.7,0.7-1.2,0.7-1.7
				C127.8,398.1,127.7,397.8,127.3,397.4 M122.4,389h1.9v5.2h1V389h2.1v-1h-5.2v1 M118.6,392.5l0.7-0.9l1.7,2.6h1.4l-2.4-3.5
				l2.1-2.8h-1.4l-2.1,3.1V388h-1v6.3h1V392.5 M122.1,379.8v-1h-4v6.3h1v-2.8h2.3v-0.9h-2.3V380h3 M127.7,378.8h-1v4.2
				c0,0.3-0.2,0.7-0.3,0.9s-0.5,0.3-1,0.3c-0.3,0-0.5-0.2-0.7-0.3c-0.2-0.2-0.3-0.5-0.3-0.9v-4.2h-1.2v4.4c0,0.7,0.2,1,0.7,1.4
				c0.3,0.3,0.9,0.5,1.6,0.5c0.7,0,1.4-0.2,1.7-0.5c0.3-0.3,0.7-0.9,0.7-1.4V378.8 M132.7,402.6c0.3-0.5,0.5-1.4,0.5-2.4
				c0-2.1-0.7-3.3-2.3-3.3c-0.7,0-1.2,0.3-1.7,0.9c-0.3,0.5-0.5,1.4-0.5,2.3c0,1.2,0.2,2.1,0.5,2.6c0.3,0.5,0.9,0.9,1.7,0.9
				C131.8,403.5,132.4,403.2,132.7,402.6 M131.1,397.9c0.3,0,0.7,0.2,0.9,0.5s0.2,0.9,0.2,1.7c0,0.9,0,1.6-0.2,1.9
				c-0.2,0.3-0.5,0.5-0.9,0.5s-0.7-0.2-0.9-0.7c-0.2-0.3-0.3-1-0.3-1.7C130.1,398.6,130.4,397.9,131.1,397.9 M136.5,397.1H136
				l-2.4,6.3h1.2l0.5-1.4h2.1l0.5,1.4h1.2L136.5,397.1 M137.1,401.2h-1.4l0.9-2.4L137.1,401.2 M141.6,388.7
				c-0.3,0.5-0.5,1.4-0.5,2.3c0,1.2,0.2,2.1,0.5,2.6c0.3,0.5,0.9,0.9,1.7,0.9c0.7,0,1.2-0.3,1.6-0.9c0.3-0.5,0.7-1.4,0.7-2.4
				c0-2.1-0.7-3.3-2.3-3.3C142.6,387.8,142.1,388.2,141.6,388.7 M142.5,392.9c-0.2-0.3-0.3-1-0.3-1.7c0-1.6,0.3-2.3,1.2-2.3
				c0.3,0,0.5,0.2,0.9,0.5c0.2,0.3,0.2,0.9,0.2,1.7c0,0.9,0,1.6-0.2,1.9c-0.2,0.3-0.5,0.5-0.9,0.5
				C142.8,393.4,142.5,393.2,142.5,392.9 M136.2,388.9l0.7,0.7c0.3-0.5,0.7-0.7,1-0.7c0.5,0,0.9,0.2,0.9,0.7c0,0.3-0.2,0.9-0.7,1.6
				l-1.9,2.8v0.3h4v-0.9h-2.3l1.2-1.9c0.5-0.7,0.7-1.2,0.7-1.7c0-0.5-0.2-0.9-0.5-1.2c-0.3-0.3-0.9-0.5-1.4-0.5
				c-0.3,0-0.7,0.2-1,0.3C136.5,388.4,136.4,388.7,136.2,388.9 M130.8,390.8l2.1-2.8h-1.4l-2.1,3.1V388h-1.2v6.3h1.2v-1.7l0.7-0.9
				l1.7,2.6h1.4L130.8,390.8 M134.4,381.2v-1.4h3v-1h-4v6.3h4v-0.9h-2.8v-1.9h2.1v-0.9h-2.3 M132.2,379.1c-0.3-0.3-0.9-0.5-1.6-0.5
				c-0.5,0-1,0.2-1.4,0.5s-0.5,0.7-0.5,1c0,0.3,0,0.5,0.2,0.7c0,0.2,0.2,0.3,0.3,0.5c0.2,0.2,0.5,0.3,1,0.7c0.5,0.2,0.9,0.3,0.9,0.5
				s0.2,0.3,0.2,0.7c0,0.5-0.3,0.7-1,0.7c-0.3,0-0.9-0.2-1.2-0.5l-0.5,1c0.5,0.3,1,0.5,1.6,0.5c0.7,0,1.2-0.2,1.6-0.5
				s0.7-0.9,0.7-1.4c0-0.3,0-0.5,0-0.7c-0.2-0.2-0.3-0.5-0.5-0.7c-0.2-0.2-0.5-0.3-1-0.7c-0.7-0.3-1-0.7-1-1c0-0.2,0-0.3,0.2-0.5
				c0.2-0.2,0.3-0.2,0.7-0.2s0.9,0.2,1.2,0.5L132.2,379.1 M143.8,378.8h-0.5c-0.5,0.5-1,1-1.9,1.4v1l1.4-0.7v4.5h1V378.8z"/>
		</g>
	</g>
</g>
<g transform="matrix( 1, 0, 0, 1, 0,0) ">
	<g>
		<g id="Layer5_769_FILL">
			<path fill="#FFFFFF" d="M321.1,401.1h1.2l0.5-1.4h2.3l0.5,1.4h1.2l-2.6-6.3h-0.5L321.1,401.1 M323.9,396.7l0.7,2.3h-1.4
				L323.9,396.7 M315.7,401.1v-0.9h-2.3l1.2-2.1c0.5-0.7,0.7-1.2,0.7-1.7s-0.2-0.9-0.5-1.2c-0.3-0.3-0.9-0.5-1.4-0.5
				c-0.3,0-0.7,0.2-1,0.3c-0.3,0.2-0.5,0.3-0.7,0.7l0.7,0.5c0.3-0.5,0.7-0.7,1-0.7c0.5,0,0.9,0.2,0.9,0.7c0,0.3-0.2,0.9-0.7,1.6
				l-1.9,2.8v0.3h4 M317.1,395.7c-0.3,0.5-0.5,1.4-0.5,2.3c0,1.2,0.2,2.1,0.5,2.6c0.3,0.5,0.9,0.7,1.7,0.7c0.7,0,1.2-0.3,1.6-0.9
				c0.3-0.5,0.7-1.4,0.7-2.3c0-2.1-0.7-3.3-2.3-3.3C318,394.8,317.5,395,317.1,395.7 M319.6,396.2c0.2,0.3,0.2,0.9,0.2,1.7
				c0,0.9,0,1.6-0.2,1.9c-0.2,0.3-0.5,0.5-0.9,0.5s-0.7-0.2-0.9-0.5c-0.2-0.3-0.3-1-0.3-1.9c0-1.6,0.3-2.3,1.2-2.3
				C319,395.7,319.4,395.8,319.6,396.2 M317,385.7h-1.2v6.3h1.2v-1.7l0.7-0.9l1.7,2.6h1.4l-2.3-3.5l1.9-2.8H319l-2.1,3.1V385.7
				 M310,385.7v1h1.9v5.2h1v-5.2h2.1v-1H310 M315.2,380.9v-4.4h-1v4.4c0,0.3-0.2,0.5-0.3,0.7c-0.2,0.2-0.5,0.3-0.9,0.3
				s-0.5-0.2-0.9-0.3c-0.2-0.2-0.3-0.3-0.3-0.7v-4.4h-1.2v4.4c0,0.7,0.2,1.2,0.5,1.6s0.9,0.5,1.7,0.5c0.7,0,1.4-0.2,1.7-0.5
				C315,382.1,315.2,381.6,315.2,380.9 M318.2,377.4c0.3,0,0.9,0.2,1.2,0.5l0.3-0.9c-0.3-0.3-0.9-0.5-1.6-0.5c-0.5,0-1,0.2-1.4,0.5
				s-0.5,0.7-0.5,1s0,0.5,0.2,0.9c0,0.2,0.2,0.3,0.3,0.5c0.2,0.2,0.5,0.3,0.9,0.7c0.5,0.2,0.9,0.5,1,0.7c0.2,0.2,0.2,0.3,0.2,0.7
				c0,0.5-0.3,0.7-1,0.7c-0.3,0-0.9-0.2-1.2-0.5l-0.5,0.9c0.5,0.3,1,0.3,1.6,0.5c0.7,0,1.2-0.2,1.6-0.5s0.7-0.7,0.7-1.4
				c0-0.3,0-0.5-0.2-0.7c-0.2-0.2-0.2-0.5-0.5-0.7c-0.2-0.2-0.5-0.3-0.9-0.5c-0.7-0.3-1-0.7-1-1.2c0-0.2,0-0.3,0.2-0.5
				C317.6,377.6,317.8,377.4,318.2,377.4 M325.5,385.6c-0.3,0-0.7,0.2-1,0.3c-0.3,0.2-0.5,0.3-0.7,0.7l0.7,0.5
				c0.3-0.5,0.7-0.7,1-0.7c0.5,0,0.9,0.2,0.9,0.7c0,0.3-0.2,0.9-0.5,1.6l-1.9,2.8v0.3h4V391h-2.3l1.2-2.1c0.5-0.7,0.7-1.2,0.7-1.7
				c0-0.5-0.2-0.9-0.5-1.2C326.7,385.7,326.2,385.6,325.5,385.6 M330.9,385.6c-0.7,0-1.2,0.3-1.7,0.9c-0.3,0.5-0.7,1.4-0.7,2.3
				c0,1.2,0.2,2.1,0.5,2.6s0.9,0.7,1.6,0.7c0.7,0,1.2-0.3,1.7-0.9c0.3-0.5,0.7-1.4,0.7-2.3C333,386.6,332.3,385.6,330.9,385.6
				 M330.9,386.4c0.3,0,0.5,0.2,0.7,0.5c0.2,0.3,0.3,0.9,0.3,1.7c0,0.9,0,1.6-0.3,1.9c-0.2,0.3-0.5,0.5-0.9,0.5s-0.7-0.2-0.7-0.5
				c-0.2-0.3-0.3-1-0.3-1.9C329.7,387.3,330,386.4,330.9,386.4 M324.1,380v-1H322v-1.4h3v-1h-4v6.3h4v-0.9h-3V380L324.1,380
				 M330.2,376.5c-0.3,0-0.7,0.2-1,0.3c-0.3,0.2-0.5,0.3-0.7,0.7l0.7,0.5c0.3-0.5,0.7-0.7,1-0.7c0.5,0,0.9,0.2,0.9,0.7
				c0,0.3-0.2,0.9-0.5,1.6l-1.9,2.8v0.3h4v-0.9h-2.3l1.2-2.1c0.5-0.7,0.7-1.2,0.7-1.7c0-0.5-0.2-0.9-0.5-1.2
				C331.4,376.7,330.9,376.5,330.2,376.5 M305.5,376.5v6.3h1.2V380h2.3v-1h-2.3v-1.4h3v-1L305.5,376.5 M305.1,385.7v6.3h1.2v-1.7
				l0.7-0.9l1.7,2.6h1.4l-2.4-3.5l2.1-2.8h-1.4l-2.1,3.1v-3.1H305.1z"/>
		</g>
	</g>
</g>
<text transform="matrix(1 0 0 1 222.7083 10.5)"><tspan x="0" y="0" font-family="'MSReferenceSansSerif'" font-size="9">MANUAL</tspan><tspan x="-25.8" y="10.8" font-family="'MSReferenceSansSerif'" font-size="9">VOLTAGE CONTROL</tspan><tspan x="-0.3" y="21.6" font-family="'MSReferenceSansSerif'" font-size="9">MODULE</tspan></text>
</svg>
