<?xml version="1.0" encoding="utf-8"?>
<!-- Generator: Adobe Illustrator 18.0.0, SVG Export Plug-In . SVG Version: 6.00 Build 0)  -->
<!DOCTYPE svg PUBLIC "-//W3C//DTD SVG 1.1//EN" "http://www.w3.org/Graphics/SVG/1.1/DTD/svg11.dtd">
<svg version="1.1" id="Layer_1" xmlns="http://www.w3.org/2000/svg" xmlns:xlink="http://www.w3.org/1999/xlink" x="0px" y="0px"
	 viewBox="0 0 450 450" enable-background="new 0 0 450 450" xml:space="preserve">
<g transform="matrix( 1, 0, 0, 1, -13.65,0) ">
	<g>
		<g id="Layer5_748_FILL">
			<path fill="#949C9C" d="M77.4,2v446h322.2V2H77.4z"/>
		</g>
	</g>
	<g>
		
			<path id="Layer5_748_1_STROKES" fill="none" stroke="#868B8E" stroke-width="2" stroke-linecap="round" stroke-linejoin="round" d="
			M399.7,448H77.4"/>
	</g>
	<g>
		
			<path id="Layer5_748_2_STROKES" fill="none" stroke="#C2C3C5" stroke-width="2" stroke-linecap="round" stroke-linejoin="round" d="
			M77.4,2h322.2"/>
	</g>
	<g>
		
			<path id="Layer5_748_3_STROKES" fill="none" stroke="#A0A2A6" stroke-width="2" stroke-linecap="round" stroke-linejoin="round" d="
			M77.4,448V2 M399.7,2v446"/>
	</g>
</g>
<g transform="matrix( 1, 0, 0, 1, 0,0) ">
	<g>
		<g id="Layer5_770_FILL">
			<path fill="#676767" d="M86,8.7c-2.8-0.8-5.4-0.4-8.1,1c-2.4,1.4-4,3.4-4.8,6.2s-0.4,5.4,1,7.8c1.4,2.4,3.6,4,6.4,4.8
				c2.8,0.8,5.2,0.4,7.8-1c2.4-1.4,4-3.6,4.8-6.4s0.4-5.4-1-7.8C90.7,10.9,88.7,9.3,86,8.7 M89.5,14.7c1.2,1.8,1.4,3.8,1,5.6
				c-0.6,2-1.8,3.6-3.6,4.6s-3.6,1.4-5.6,0.8c-2-0.6-3.4-1.6-4.4-3.4c-1-1.8-1.4-3.8-0.8-5.8c0.4-2,1.6-3.4,3.4-4.4s3.6-1.2,5.6-0.6
				C87,11.9,88.5,13.1,89.5,14.7 M84.8,15.5c0-0.2,0-0.4,0-0.6c-0.2-0.2-0.2-0.2-0.6-0.4H84c-0.2,0-0.4,0-0.6,0
				c-0.2,0-0.4,0.2-0.6,0.4L81,21.5c0,0.2,0,0.4,0.2,0.6c0.2,0.2,0.2,0.4,0.4,0.4h0.2c0.2,0,0.4,0,0.6-0.2c0.2-0.2,0.2-0.2,0.2-0.6
				L84.8,15.5z"/>
			
				<radialGradient id="SVGID_1_" cx="-197.3694" cy="-7.4679" r="3.7144" gradientTransform="matrix(1.9437 0.5214 -0.5214 1.9437 462.9401 135.7972)" gradientUnits="userSpaceOnUse">
				<stop  offset="0" style="stop-color:#E7E7E7"/>
				<stop  offset="1" style="stop-color:#AEAEAE"/>
			</radialGradient>
			<path fill="url(#SVGID_1_)" d="M90.5,20.3c0.4-1.8,0.2-3.8-1-5.6c-1-1.6-2.6-2.8-4.6-3.2c-2-0.6-3.8-0.4-5.6,0.6
				c-1.6,1-2.8,2.4-3.2,4.4c-0.6,2-0.2,4,0.8,5.8c1,1.8,2.4,2.8,4.4,3.4c2,0.6,3.8,0.2,5.6-0.8C88.9,23.9,90.1,22.3,90.5,20.3
				 M84.8,14.9c0,0,0,0.2,0,0.6L83,22.1c0,0.2-0.2,0.4-0.2,0.6c-0.2,0.2-0.4,0.2-0.6,0.2H82c-0.2,0-0.2-0.2-0.4-0.4
				c-0.2-0.2-0.2-0.4-0.2-0.6l1.8-6.6c0-0.2,0.2-0.4,0.6-0.4c0.2,0,0.4,0,0.6,0h0.2C84.6,14.7,84.6,14.7,84.8,14.9z"/>
		</g>
	</g>
</g>
<g transform="matrix( 1, 0, 0, 1, 0,0) ">
	<g>
		<g id="Layer5_771_FILL">
			<path fill="#676767" d="M367,8.5c-2.8-0.6-5.4-0.2-7.8,1.2c-2.6,1.4-4.2,3.4-4.8,6.2s-0.4,5.4,1,7.8s3.6,4,6.2,4.8
				c2.6,0.8,5.2,0.4,7.8-1.2c2.4-1.4,4-3.4,4.8-6.2s0.6-5.4-0.8-7.8C372,10.9,369.8,9.3,367,8.5 M370.6,14.9c1,1.8,1.4,3.6,0.8,5.6
				c-0.6,2.2-1.6,3.8-3.2,4.8c-1.8,1-3.8,1.2-5.8,0.6c-2-0.6-3.4-1.6-4.6-3.4c-1-1.8-1.2-3.6-0.8-5.6c0.6-2,1.8-3.6,3.8-4.8
				c1.6-1,3.4-1.2,5.4-0.6C368.2,11.9,369.8,12.9,370.6,14.9 M367.8,17.5c0.2-0.2,0.4-0.4,0.4-0.4c0-0.2-0.2-0.4-0.2-0.6l0,0
				c-0.2,0-0.2-0.2-0.4-0.4c-0.2-0.2-0.4-0.2-0.6,0l-5.8,3.4c-0.2,0.2-0.2,0.4-0.2,0.6c0,0.2,0,0.4,0,0.6l0,0
				c0.2,0.2,0.4,0.4,0.6,0.4s0.2,0,0.6,0L367.8,17.5z"/>
			
				<radialGradient id="SVGID_2_" cx="-266.3983" cy="65.6138" r="3.7134" gradientTransform="matrix(1.0095 1.741 -1.741 1.0095 747.6959 415.871)" gradientUnits="userSpaceOnUse">
				<stop  offset="0" style="stop-color:#E7E7E7"/>
				<stop  offset="1" style="stop-color:#AEAEAE"/>
			</radialGradient>
			<path fill="url(#SVGID_2_)" d="M371.6,20.3c0.4-2,0.2-3.8-0.8-5.6c-1-1.8-2.4-3-4.4-3.4c-2-0.6-3.8-0.6-5.4,0.6
				c-1.8,1.2-3.2,2.8-3.8,4.8c-0.4,2-0.2,3.8,0.8,5.6c1.2,1.8,2.6,2.8,4.6,3.4c2,0.6,4,0.4,5.8-0.6C370,24.2,371,22.5,371.6,20.3
				 M368.2,17.1c0,0-0.2,0.2-0.4,0.4l-5.8,3.4c-0.2,0-0.4,0-0.6,0s-0.4-0.2-0.6-0.4l0,0c0-0.2,0-0.4,0-0.6c0-0.2,0-0.4,0.2-0.6
				l5.8-3.4c0.2-0.2,0.4-0.2,0.6,0c0.2,0.2,0.2,0.2,0.4,0.4v0.2C368,16.7,368.2,16.9,368.2,17.1z"/>
		</g>
	</g>
</g>
<g transform="matrix( 1, 0, 0, 1, 0,0) ">
	<g>
		<g id="Layer5_772_FILL">
			<path fill="#676767" d="M93.1,433.1c0.8-2.8,0.4-5.4-1-7.8c-1.4-2.4-3.4-4-6.2-4.8c-2.8-0.8-5.4-0.4-8.1,1
				c-2.4,1.4-4,3.6-4.8,6.4c-0.8,2.8-0.4,5.4,1,7.8c1.4,2.4,3.6,4,6.4,4.8c2.8,0.8,5.2,0.4,7.8-1C90.9,438.1,92.5,435.9,93.1,433.1
				 M79.4,423.8c1.8-1,3.6-1.2,5.6-0.6c2,0.6,3.4,1.6,4.6,3.2c1.2,1.8,1.4,3.8,1,5.6c-0.6,2-1.8,3.6-3.6,4.6c-1.8,1-3.6,1.4-5.6,0.8
				c-2-0.6-3.4-1.6-4.4-3.4c-1-1.8-1.4-3.8-0.8-5.8C76.4,426.5,77.6,424.8,79.4,423.8 M84.2,426.5c-0.2,0-0.4,0-0.6,0
				c-0.2,0-0.4,0.2-0.6,0.4l-1.8,6.6c0,0.2,0,0.4,0.2,0.6c0.2,0.2,0.2,0.4,0.4,0.4H82c0.2,0,0.4,0,0.6,0c0.2-0.2,0.2-0.2,0.2-0.6
				l1.8-6.6c0-0.2,0-0.4,0-0.6C84.6,426.7,84.6,426.5,84.2,426.5L84.2,426.5z"/>
			
				<radialGradient id="SVGID_3_" cx="-197.3694" cy="-7.4679" r="3.7144" gradientTransform="matrix(1.9437 0.5214 -0.5214 1.9437 462.9401 547.6598)" gradientUnits="userSpaceOnUse">
				<stop  offset="0" style="stop-color:#E7E7E7"/>
				<stop  offset="1" style="stop-color:#AEAEAE"/>
			</radialGradient>
			<path fill="url(#SVGID_3_)" d="M85,423.2c-2-0.6-3.8-0.4-5.6,0.6c-1.8,1-3,2.4-3.6,4.4c-0.6,2-0.2,4,0.8,5.8
				c1,1.8,2.4,2.8,4.4,3.4c2,0.6,3.8,0.2,5.6-0.8c2-1,3.2-2.6,3.6-4.6c0.4-1.8,0.2-3.8-1-5.6C88.5,424.8,87,423.8,85,423.2
				 M83.6,426.5c0.2,0,0.4,0,0.6,0h0.2c0.2,0,0.4,0.2,0.6,0.4c0,0,0,0.2,0,0.6l-1.8,6.6c0,0.2-0.2,0.4-0.2,0.6
				c-0.2,0.2-0.4,0.2-0.6,0H82c-0.2,0-0.2-0.2-0.4-0.4c-0.2-0.2-0.2-0.4-0.2-0.6l1.8-6.6C83.2,426.7,83.4,426.5,83.6,426.5z"/>
		</g>
	</g>
</g>
<g transform="matrix( 1, 0, 0, 1, 0,0) ">
	<g>
		<g id="Layer5_773_FILL">
			<path fill="#676767" d="M374.2,433.1c0.8-2.8,0.6-5.4-0.8-7.8c-1.4-2.4-3.6-4.2-6.4-5c-2.8-0.6-5.4-0.2-7.8,1.2
				c-2.6,1.4-4.2,3.4-4.8,6.2c-0.8,2.8-0.4,5.4,1,7.8c1.4,2.4,3.6,4,6.2,4.8c2.6,0.8,5.2,0.4,7.8-1
				C372,437.9,373.6,435.9,374.2,433.1 M370.6,426.7c1,1.8,1.4,3.6,0.8,5.6c-0.6,2.2-1.6,3.8-3.2,4.8c-1.8,1-3.8,1.2-5.8,0.6
				s-3.4-1.6-4.6-3.4c-1-1.8-1.2-3.6-0.8-5.6c0.6-2,1.8-3.6,3.8-4.8c1.6-1,3.4-1.2,5.4-0.6C368.2,423.6,369.8,424.8,370.6,426.7
				 M368.2,428.9c0-0.2-0.2-0.4-0.2-0.6l0,0c-0.2,0-0.2-0.2-0.4-0.4c-0.2-0.2-0.4-0.2-0.6,0l-5.8,3.4c-0.2,0.2-0.2,0.4-0.2,0.6
				s0,0.4,0,0.6l0,0c0.2,0.2,0.4,0.4,0.6,0.4s0.2,0,0.6,0l5.8-3.4C368,429.3,368.2,429.1,368.2,428.9z"/>
			
				<radialGradient id="SVGID_4_" cx="-266.3983" cy="65.6138" r="3.7134" gradientTransform="matrix(1.0095 1.741 -1.741 1.0095 747.6959 827.7337)" gradientUnits="userSpaceOnUse">
				<stop  offset="0" style="stop-color:#E7E7E7"/>
				<stop  offset="1" style="stop-color:#AEAEAE"/>
			</radialGradient>
			<path fill="url(#SVGID_4_)" d="M371.6,432.3c0.4-2,0.2-3.8-0.8-5.6c-1-1.8-2.4-3-4.4-3.4c-2-0.6-3.8-0.4-5.4,0.6
				c-1.8,1.2-3.2,2.8-3.8,4.8c-0.4,2-0.2,3.8,0.8,5.6c1.2,1.8,2.6,2.8,4.6,3.4s4,0.4,5.8-0.6C370,435.9,371,434.3,371.6,432.3
				 M368,428.5c0,0.2,0.2,0.4,0.2,0.6c0,0-0.2,0.2-0.4,0.4l-5.8,3.4c-0.2,0-0.4,0-0.6,0s-0.4-0.2-0.6-0.4l0,0c0-0.2,0-0.2,0-0.6
				c0-0.2,0-0.4,0.2-0.6l5.8-3.4c0.2-0.2,0.4-0.2,0.6,0C367.8,428.1,367.8,428.3,368,428.5L368,428.5z"/>
		</g>
	</g>
</g>
<g transform="matrix( 1, 0, 0, 1, 0,0) ">
	<g>
		<g id="Layer5_774_FILL">
			
				<linearGradient id="SVGID_5_" gradientUnits="userSpaceOnUse" x1="130.3" y1="252.35" x2="130.3" y2="292.35" gradientTransform="matrix(2.0125 0 0 2.0125 61.8851 -453.4212)">
				<stop  offset="0" style="stop-color:#787878"/>
				<stop  offset="1" style="stop-color:#3D3D3D"/>
			</linearGradient>
			<path fill="url(#SVGID_5_)" d="M323.7,54.7c-2.8,0-5,1-7,2.8c-0.6,0.6-1,1.2-1.4,2h-0.2c-0.2,0.4-0.4,0.8-0.6,1.2l-11.1,21.5
				c0,0,0,0,0,0.2c-0.4,0.8-0.8,1.6-1.2,2.2v0.2c-1.4,3-2,6.2-2,9.7c0,3.4,0.6,6.4,1.8,9.5c0.2,0.4,0.4,1,0.6,1.6l0,0
				c0,0.2,0.2,0.4,0.2,0.6l11.9,22.3v-0.2c0.6,1.2,1.2,2.2,2,3c2,2,4.2,3,7,3c2.8,0,5.2-1,7.2-3c0.6-0.6,1.2-1.4,1.8-2.2l0.2-0.2
				l11.9-22.3c0.4-0.8,0.8-1.6,1.2-2.2v-0.2l0,0c1.2-3,2-6.2,2-9.9c0-4.2-1-8.3-2.8-11.7l0,0l-11.7-21.9l0,0
				c-0.6-1.2-1.2-2.4-2.2-3.4C328.9,55.7,326.5,54.7,323.7,54.7 M323.7,56.8c2.2,0,4.2,0.8,5.8,2.2c0.8,0.8,1.4,1.6,2,2.8V62
				l11.7,21.7h0.2c1.8,3.2,2.6,6.8,2.6,10.9c0,3.2-0.6,6.2-1.6,8.9c-0.2,0.2-0.2,0.2-0.4,0.4c-0.4,0.8-0.8,1.4-1,2.2l-11.7,22.1l0,0
				l-0.2,0.2c-0.4,0.6-0.8,1.2-1.4,1.8c-1.6,1.6-3.4,2.2-5.8,2.2c-2.2,0-4-0.8-5.6-2.2c-0.8-0.8-1.4-1.6-1.8-2.6l-11.7-22.3
				c-0.2-0.2-0.2-0.6-0.4-0.8c-0.2-0.6-0.6-1-0.8-1.4c-1-2.6-1.6-5.4-1.6-8.7c0-3.2,0.6-6,1.6-8.7c0.2-0.2,0.2-0.4,0.2-0.6
				c0.4-0.8,0.8-1.4,1.2-1.8v-0.2l11.3-21.5c0.2-0.4,0.4-0.8,0.6-1.2c0.4-0.6,0.8-1.2,1.2-1.6C319.7,57.6,321.5,56.8,323.7,56.8z"/>
			<path fill="#1C1B1A" d="M329.6,59.2c-1.6-1.6-3.4-2.2-5.8-2.2c-2.2,0-4,0.8-5.6,2.2c-0.4,0.4-0.8,0.8-1.2,1.6
				c-0.2,0.4-0.4,0.8-0.6,1.2L305,83.5v0.2c-0.4,0.6-0.8,1.2-1.2,1.8c0,0.2,0,0.4-0.2,0.6c-1.2,2.6-1.6,5.4-1.6,8.7s0.6,6,1.6,8.7
				c0.2,0.4,0.4,0.8,0.8,1.4c0.2,0.2,0.2,0.4,0.4,0.8l11.7,22.3c0.4,0.8,1,1.8,1.8,2.6c1.6,1.6,3.4,2.2,5.6,2.2
				c2.2,0,4.2-0.8,5.8-2.2c0.6-0.6,1-1.2,1.4-1.8l0.2-0.2l0,0l11.7-22.1c0.4-0.8,0.8-1.4,1-2.2c0-0.2,0.2-0.2,0.4-0.4
				c1-2.6,1.6-5.6,1.6-8.9c0-3.8-0.8-7.4-2.6-10.9h-0.2l-11.7-21.7v-0.2C331,60.8,330.4,59.8,329.6,59.2z"/>
		</g>
	</g>
</g>
<g transform="matrix( 1, 0, 0, 1, 0,0) ">
	<g>
		<g id="Layer5_775_FILL">
			<path fill="#676767" d="M325.7,57.6c-2-0.6-4-0.2-5.8,0.8c-1.8,1-3,2.6-3.4,4.8c-0.6,2-0.4,3.8,0.6,5.6c1,1.8,2.6,3,4.6,3.6
				c2,0.6,3.8,0.2,5.6-0.8c1.8-1,3-2.6,3.6-4.6c0.6-2,0.2-3.8-0.8-5.8C329.3,59.4,327.7,58.2,325.7,57.6 M326.3,69.6
				c-1.2,0.8-2.6,1-4,0.6c-1.4-0.4-2.6-1.2-3.2-2.4c-0.8-1.4-1-2.8-0.6-4.6c0.2-1.2,1-2.2,2.4-3c1.4-0.8,2.8-1,4-0.6
				c1.4,0.4,2.4,1.2,3.2,2.6c0.8,1.4,1,2.8,0.8,4C328.7,67.6,327.9,68.8,326.3,69.6 M324.9,62.4c-0.2,0-0.2-0.2-0.4-0.2
				c-0.2,0-0.2,0-0.4,0c-0.2,0-0.2,0.2-0.2,0.4l-0.4,1.6l-1.8-0.4c-0.2,0-0.2,0-0.4,0c-0.2,0.2-0.2,0.2-0.2,0.2c0,0.2,0,0.4,0,0.6
				l0.2,0.2l1.8,0.6l-0.6,1.6c0,0.2,0,0.2,0.2,0.4c0,0.2,0.2,0.2,0.2,0.2c0.2,0,0.2,0,0.4,0c0.2,0,0.2-0.2,0.2-0.4l0.4-1.6l1.8,0.4
				c0.2,0,0.2,0,0.2,0c0.2,0,0.2-0.2,0.2-0.4l0,0c0-0.2,0-0.2,0-0.2c0-0.2,0-0.4-0.2-0.4l-1.6-0.4l0.4-1.8
				C324.9,62.6,324.9,62.4,324.9,62.4z"/>
			
				<radialGradient id="SVGID_6_" cx="-197.274" cy="-7.5107" r="3.3383" gradientTransform="matrix(1.9441 0.52 -0.52 1.9441 703.5838 182.0233)" gradientUnits="userSpaceOnUse">
				<stop  offset="0" style="stop-color:#E7E7E7"/>
				<stop  offset="1" style="stop-color:#AEAEAE"/>
			</radialGradient>
			<path fill="url(#SVGID_6_)" d="M322.3,70.2c1.4,0.4,2.8,0.2,4-0.6c1.4-0.8,2.4-1.8,2.8-3.4c0.4-1.4,0.2-2.8-0.8-4
				c-0.8-1.2-1.8-2-3.2-2.6c-1.4-0.4-2.8-0.2-4,0.6c-1.4,0.8-2.2,1.8-2.4,3c-0.4,1.6-0.2,3.2,0.6,4.6
				C319.9,69,320.9,69.8,322.3,70.2 M324.7,62.2c0.2,0,0.2,0.2,0.4,0.2v0.2l-0.4,1.8l1.6,0.4c0.2,0,0.2,0.2,0.2,0.4v0.2l0,0
				c0,0.2-0.2,0.2-0.2,0.4h-0.2l-1.8-0.4l-0.4,1.6c0,0.2,0,0.2-0.2,0.4c-0.2,0-0.2,0-0.4,0c-0.2,0-0.2,0-0.2-0.2
				c-0.2-0.2-0.2-0.2-0.2-0.4l0.6-1.6l-1.8-0.6c-0.2,0-0.2,0-0.2-0.2c0-0.2,0-0.2,0-0.6l0.2-0.2c0.2-0.2,0.2-0.2,0.4,0l1.8,0.4
				l0.4-1.6c0-0.2,0-0.4,0.2-0.4C324.3,62.2,324.5,62.2,324.7,62.2z"/>
		</g>
	</g>
</g>
<g transform="matrix( 1, 0, 0, 1, 0,0) ">
	<g>
		<g id="Layer5_776_FILL">
			<path fill="#676767" d="M330.4,120.6c-1-1.8-2.6-3-4.6-3.6c-2-0.6-4-0.2-5.8,0.8c-1.8,1-3,2.6-3.4,4.8c-0.6,2-0.4,3.8,0.6,5.6
				c1,1.8,2.6,3,4.6,3.6c2,0.6,3.8,0.2,5.6-0.8c1.8-1,3-2.6,3.6-4.6C331.8,124.4,331.4,122.4,330.4,120.6 M325.1,118.9
				c1.4,0.4,2.4,1.2,3.2,2.6s1,2.8,0.8,4.2c-0.4,1.4-1.2,2.6-2.8,3.2c-1.2,0.8-2.6,1-4,0.6c-1.4-0.4-2.6-1.2-3.2-2.4
				c-0.8-1.4-1-3-0.6-4.6c0.2-1.2,1-2.2,2.4-3C322.5,118.9,323.9,118.7,325.1,118.9 M324.7,121.8c-0.2,0-0.2,0-0.4,0
				c-0.2,0-0.2,0-0.2,0.2l-0.4,1.8l-1.8-0.4c-0.2,0-0.2,0-0.4,0.2c-0.2,0.2-0.2,0.2-0.2,0.2c0,0.2,0,0.4,0,0.6h0.2l1.8,0.6l-0.6,1.6
				c0,0.2,0,0.2,0.2,0.4c0,0.2,0.2,0.2,0.2,0.2c0.2,0,0.2,0,0.4,0c0.2,0,0.2-0.2,0.2-0.2l0.4-1.6l1.8,0.4c0.2,0,0.2,0,0.2,0
				c0.2,0,0.2-0.2,0.2-0.2v-0.2c0-0.2,0-0.2,0-0.2c0-0.2,0-0.4-0.2-0.4l-1.6-0.4l0.4-1.8c0-0.2,0-0.2,0-0.2
				C324.9,121.8,324.7,121.8,324.7,121.8z"/>
			
				<radialGradient id="SVGID_7_" cx="-197.2726" cy="-7.5107" r="3.3374" gradientTransform="matrix(1.9441 0.52 -0.52 1.9441 703.5838 241.4933)" gradientUnits="userSpaceOnUse">
				<stop  offset="0" style="stop-color:#E7E7E7"/>
				<stop  offset="1" style="stop-color:#AEAEAE"/>
			</radialGradient>
			<path fill="url(#SVGID_7_)" d="M328.3,121.6c-0.8-1.2-1.8-2-3.2-2.6c-1.4-0.4-2.8-0.2-4,0.6c-1.4,0.8-2.2,1.8-2.4,3
				c-0.4,1.6-0.2,3,0.6,4.6c0.8,1.2,1.8,2,3.2,2.4c1.4,0.4,2.8,0.2,4-0.6c1.4-0.8,2.4-1.8,2.8-3.2
				C329.6,124.4,329.3,123,328.3,121.6 M324.1,121.8c0.2,0,0.2,0,0.4,0c0.2,0,0.2,0.2,0.4,0.2v0.2l-0.4,1.8l1.6,0.4
				c0.2,0,0.2,0.2,0.2,0.4v0.2v0.2c0,0.2-0.2,0.2-0.2,0.2h-0.2l-1.8-0.4l-0.4,1.6c0,0.2,0,0.2-0.2,0.2s-0.2,0-0.4,0
				c-0.2,0-0.2,0-0.2-0.2c-0.2-0.2-0.2-0.2-0.2-0.4l0.6-1.6l-1.8-0.6c-0.2,0-0.2,0-0.2,0c0-0.2,0-0.4,0-0.6l0.2-0.2
				c0.2-0.2,0.2-0.2,0.4-0.2l1.8,0.4l0.4-1.8C323.9,121.8,323.9,121.8,324.1,121.8z"/>
		</g>
	</g>
</g>
<g transform="matrix( 1, 0, 0, 1, -13.6,0) ">
	<g>
		<g id="Layer5_777_FILL">
			<path fill="#383E45" d="M267.9,38.2h-60c-12.5,0-18.7,6.2-18.7,18.7v81.7c0,12.5,6.2,18.7,18.7,18.7h60
				c12.5,0,18.7-6.2,18.7-18.7V57C286.6,44.5,280.4,38.2,267.9,38.2z"/>
		</g>
	</g>
</g>
<g transform="matrix( 1, 0, 0, 1, 0,0) ">
	<g>
		<g id="Layer5_778_FILL">
			<path fill="#FFFFFF" d="M264.1,92.6c-0.6,0-1.2,0.2-1.6,0.8c-0.4,0.6-0.6,1.2-0.6,2c0,0.8,0.2,1.6,0.6,2c0.4,0.6,1,0.8,1.6,0.8
				c0.8,0,1.4-0.2,1.8-0.8c0.4-0.6,0.6-1.2,0.6-2c0-0.8-0.2-1.6-0.6-2C265.6,92.8,264.9,92.6,264.1,92.6 M264.1,93.2
				c1,0,1.6,0.8,1.6,2.2c0,0.6-0.2,1.2-0.4,1.6c-0.2,0.4-0.6,0.6-1.2,0.6c-0.4,0-0.8-0.2-1-0.6c-0.2-0.4-0.4-1-0.4-1.6
				c0-0.6,0.2-1.2,0.4-1.6C263.3,93.4,263.7,93.2,264.1,93.2 M250.1,92.6h-0.2l-2.2,5.6h0.8l0.4-1.2h2l0.4,1.2h0.8L250.1,92.6
				 M249.7,93.8l0.8,2.6H249L249.7,93.8 M257.3,92.6v0.6h1.6V98h0.8v-4.8h1.8v-0.6H257.3 M253.3,92.6h-0.6v3.8c0,0.6,0.2,1,0.6,1.4
				s0.8,0.6,1.4,0.6s1-0.2,1.4-0.6c0.4-0.2,0.6-0.8,0.6-1.4v-3.8h-0.8v3.8c0,0.4-0.2,0.8-0.2,1c-0.2,0.2-0.6,0.2-1,0.2
				s-0.6,0-0.8-0.2c-0.2-0.2-0.4-0.4-0.4-0.8v-4H253.3z"/>
		</g>
	</g>
</g>
<g transform="matrix( 1, 0, 0, 1, 0,0) ">
	<g>
		<g id="Layer5_779_FILL">
			<path fill="#FFFFFF" d="M186.3,92.6h-0.2l-1.4,4l-1.2-4H183l-1,5.6h0.6l0.6-3.6l1.2,3.8h0.2l1.2-3.8l0.6,3.6h0.8L186.3,92.6
				 M190.1,92.6h-0.2l-2.2,5.6h0.8l0.4-1.2h2l0.4,1.2h0.8L190.1,92.6 M189.7,93.8l0.8,2.6h-1.6L189.7,93.8 M192.9,92.6h-0.2v5.6h0.6
				v-4l2.8,4.2h0.2v-5.8h-0.8v3.8L192.9,92.6z"/>
		</g>
	</g>
</g>
<g transform="matrix( 1.019989013671875, 0, 0, 1.019989013671875, -18.85,-7.6) ">
	<g>
		<g id="Layer5_780_FILL">
			<path fill="#2F3031" d="M186.3,224.5c-14.9,14.9-22.3,32.8-22.3,53.9c0,21.1,7.4,39,22.3,53.9s32.8,22.3,53.9,22.3
				s39-7.4,53.9-22.3c14.9-14.9,22.3-32.8,22.3-53.9c0-21.1-7.4-39-22.3-53.9c-14.9-14.9-32.8-22.3-53.9-22.3
				C219.3,202.2,201.2,209.6,186.3,224.5z"/>
		</g>
	</g>
</g>
<g transform="matrix( 1, 0, 0, 1, 0,0) ">
	<g>
		<g id="Layer5_781_FILL">
			<path fill="#FFFFFF" d="M174.4,315.6c0.4,0.6,0.8,1,1.2,1.6l3-2.4c-0.4-0.6-0.8-1-1.2-1.6L174.4,315.6 M171,310.7l3.2-1.8
				c-0.2-0.4-0.4-0.6-0.6-1l-3.2,2C170.8,310.1,171,310.5,171,310.7 M204.8,337.9l1.4-3.6c-0.6-0.2-1.4-0.6-2-0.8l-1.2,3.6
				C203.6,337.5,204.2,337.7,204.8,337.9 M199.1,331.3c-0.2-0.2-0.6-0.2-0.8-0.4l-1.6,3.4c0.2,0.2,0.6,0.2,0.8,0.4L199.1,331.3
				 M192.3,327.2l-2.2,3.2c0.2,0.2,0.6,0.4,0.8,0.6l2-3.2C192.9,327.8,192.7,327.6,192.3,327.2 M185.1,326.8l2.4-3
				c-0.2-0.2-0.6-0.4-0.8-0.6l-2.4,2.8C184.6,326.2,184.9,326.4,185.1,326.8 M182.6,319.2c-0.2-0.2-0.6-0.6-0.8-0.8L179,321
				c0.2,0.2,0.4,0.4,0.6,0.8L182.6,319.2 M247.6,337.9c0.6-0.2,1.2-0.4,1.8-0.6l-1.2-3.8c-0.6,0.2-1.2,0.6-2,0.8L247.6,337.9
				 M253.5,331.3c-0.4,0.2-0.6,0.2-1,0.6l1.8,3.6c0.2-0.2,0.6-0.4,0.8-0.6L253.5,331.3 M259.5,327.8c-0.4,0.2-0.6,0.2-1,0.6l2,3.2
				c0.2-0.2,0.6-0.4,1-0.6L259.5,327.8 M266.8,327.2c0.2-0.2,0.4-0.4,0.6-0.6l-2.2-3c-0.2,0.2-0.6,0.4-0.8,0.6L266.8,327.2
				 M270.2,318.8c-0.2,0.2-0.4,0.4-0.8,0.8l2.8,2.8c0.2-0.2,0.4-0.6,0.8-0.8L270.2,318.8 M277.8,309.1l3.2,2
				c0.2-0.2,0.2-0.6,0.6-0.8l-3.2-2C278.2,308.5,278.2,308.9,277.8,309.1 M276.8,317.2c0.4-0.6,0.8-1,1.2-1.6l-2.8-2.2
				c-0.4,0.6-0.8,1-1.2,1.6L276.8,317.2 M287.5,298.1c0-0.4,0.2-0.6,0.4-1l-3.6-1.2c-0.2,0.2-0.2,0.6-0.4,0.8L287.5,298.1
				 M281.9,302.1c-0.2,0.4-0.4,0.6-0.6,1l3.4,1.8c0-0.4,0.2-0.6,0.4-1L281.9,302.1 M289.7,289.8l-3.6-0.8c0,0.2-0.2,0.6-0.2,1
				l3.6,0.8C289.5,290.4,289.7,290.2,289.7,289.8 M290.9,276.5c0-0.2,0-0.6,0-0.8l-3.8-0.2c0,0.2,0,0.6,0,1l0,0l3.8,0.2
				C290.9,276.5,290.9,276.5,290.9,276.5 M287.1,281.6c0,0.6,0,1.4,0,2l3.6,0.6c0-0.8,0.2-1.4,0.2-2L287.1,281.6 M290.5,268.3
				l-3.6,0.4c0,0.2,0,0.6,0,1l3.8-0.2C290.7,268.9,290.5,268.5,290.5,268.3 M289.3,261l-3.6,0.8c0,0.2,0.2,0.6,0.2,1l3.6-0.8
				C289.5,261.6,289.3,261.4,289.3,261 M226.9,211.5c-0.2,0-0.6,0-0.8,0c-0.4,0-0.8,0-1.2,0v3.8c0.4,0,0.8,0,1.2,0
				c0.2,0,0.6,0,0.8,0V211.5 M232.1,215.7c0.4,0,0.6,0,1,0l0.6-3.8c-0.4,0-0.8,0-1,0L232.1,215.7 M240,212.9l-1,3.6
				c0.2,0,0.6,0.2,1,0.2l0.8-3.8C240.4,213.1,240.2,212.9,240,212.9 M257.3,223.8c0.6,0.4,1.2,0.6,1.8,1l2.2-3.2
				c-0.6-0.4-1.2-0.8-1.8-1L257.3,223.8 M247.8,215.1c-0.4-0.2-0.6-0.2-0.8-0.2l-1.4,3.6c0.2,0,0.6,0.2,0.8,0.2L247.8,215.1
				 M253.7,217.6l-1.8,3.4c0.2,0,0.6,0.2,0.8,0.4l1.8-3.4C254.3,217.8,254.1,217.8,253.7,217.6 M281.5,250.2l3.4-1.6
				c-0.2-0.6-0.6-1.2-1-1.8l-3.4,1.6C281,248.9,281.3,249.6,281.5,250.2 M283.9,256.2l3.6-1.2c-0.2-0.4-0.2-0.6-0.2-0.8l-3.6,1.2
				C283.9,255.4,283.9,255.8,283.9,256.2 M277.4,243.3c0.2,0.2,0.4,0.6,0.6,0.8l3.2-1.8c-0.2-0.4-0.4-0.6-0.6-1L277.4,243.3
				 M276.4,235.5l-3,2.2c0.2,0.2,0.4,0.4,0.6,0.8l3-2.2C276.8,235.9,276.6,235.5,276.4,235.5 M264.3,228.6l2.4-3
				c-0.2-0.2-0.6-0.4-0.8-0.6l-2.4,3C263.7,228.2,263.9,228.4,264.3,228.6 M268.6,232.6c0.2,0.2,0.6,0.4,0.8,0.6l2.8-2.6H272
				c-0.2-0.2-0.4-0.4-0.6-0.6L268.6,232.6 M166.9,303.5c0.2,0.4,0.2,0.6,0.4,1l3.6-1.6c-0.2-0.4-0.2-0.6-0.4-0.8L166.9,303.5
				 M164.7,297.5l3.6-1.2c-0.2-0.4-0.2-0.6-0.4-1l-3.6,1.2C164.5,296.8,164.5,297,164.7,297.5 M162.9,290.4l3.6-0.8
				c0-0.4-0.2-0.8-0.2-1l-3.8,0.8C162.5,289.6,162.7,290,162.9,290.4 M165.5,282l-3.8,0.4c0,0.6,0.2,1.4,0.2,2l3.8-0.4
				C165.5,283.2,165.5,282.6,165.5,282 M161.5,276.5L161.5,276.5h3.8l0,0c0-0.4,0-0.6,0-1h-3.8C161.5,275.7,161.5,276.1,161.5,276.5
				 M162.9,261.8l3.6,1c0-0.4,0.2-0.8,0.4-1l-3.8-1C163.1,261.2,162.9,261.4,162.9,261.8 M165.7,268.5l-3.8-0.6c0,0.4-0.2,0.6-0.2,1
				l3.8,0.6C165.5,269.1,165.7,268.9,165.7,268.5 M168.1,247.1c-0.4,0.6-0.6,1.2-0.8,1.8l3.4,1.8c0.2-0.6,0.6-1.2,0.8-1.8
				L168.1,247.1 M165.1,253.8c0,0.2-0.2,0.6-0.2,0.8l3.6,1.2c0-0.2,0.2-0.6,0.4-0.8L165.1,253.8 M175.4,236.1l3,2.6
				c0.2-0.2,0.4-0.6,0.6-0.8l-3-2.4C175.8,235.5,175.6,235.9,175.4,236.1 M171.2,242.1l3.2,2.2c0.2-0.2,0.2-0.6,0.6-0.8l-3.2-2
				C171.4,241.5,171.4,241.7,171.2,242.1 M192.7,225.2c0.6-0.4,1.2-0.8,1.8-1l-2-3.2c-0.6,0.4-1.2,0.8-1.8,1.2L192.7,225.2
				 M180.2,230.6L180.2,230.6l2.6,2.8c0,0,0-0.2,0.2-0.2c0.2-0.2,0.4-0.4,0.6-0.6l-2.6-2.8C180.6,230.2,180.4,230.4,180.2,230.6
				 M186.5,225.2c-0.2,0.2-0.6,0.4-0.8,0.6l2.4,3.2c0.2-0.2,0.6-0.6,0.8-0.8L186.5,225.2 M198.5,217.6c-0.2,0.2-0.6,0.2-0.8,0.6
				l1.6,3.4c0.2-0.2,0.6-0.2,0.8-0.4L198.5,217.6 M205.4,214.9c-0.4,0-0.6,0.2-0.8,0.2l1.2,3.6c0.2,0,0.6-0.2,0.8-0.2L205.4,214.9
				 M211.4,213.3l0.8,3.8c0.2-0.2,0.6-0.2,1-0.2l-0.8-3.8C212,213.1,211.8,213.1,211.4,213.3 M219.7,211.9c-0.4,0-0.6,0-1,0l0.4,3.8
				c0.4,0,0.6,0,1,0L219.7,211.9z"/>
		</g>
	</g>
</g>
<g transform="matrix( 1, 0, 0, 1, 0,0) ">
	<g>
		<g id="Layer5_782_FILL">
			<path fill="#FFFFFF" d="M174,319.8c-0.4-0.2-0.8,0-1.2,0.4l-2.8,2.2c-0.4,0.4-0.8,0.8-0.8,1.4c0,0.4,0,0.8,0.4,1.2
				c0.2,0.4,0.6,0.6,1.2,0.8c0.4,0,1-0.2,1.4-0.6l2.8-2.2c0.4-0.4,0.6-0.8,0.8-1.2c0-0.4,0-0.8-0.4-1.2
				C174.8,320,174.4,319.8,174,319.8 M173.6,320.8c0,0,0.2,0,0.4,0c0.2,0,0.2,0,0.2,0.2c0.2,0.2,0.2,0.2,0.2,0.4
				c0,0.2-0.2,0.2-0.4,0.4l-3.2,2.6c-0.2,0.2-0.4,0.2-0.6,0.2s-0.2,0-0.4-0.2c0-0.2,0-0.2,0-0.4c0-0.2,0.2-0.4,0.2-0.6L173.6,320.8
				 M173,317.8c-0.2,0-0.6,0-0.8,0c-0.2,0-0.6-0.2-0.6-0.4l-0.6,0.4l0.6,0.6l-4.4,3.4l0.8,1l5.6-4.4L173,317.8 M204.8,340.3
				c-0.4-0.2-0.8-0.2-1.4,0c-0.4,0.2-0.8,0.6-0.8,1.2l-1.2,3.4c-0.2,0.6-0.2,1,0,1.4c0.2,0.4,0.4,0.8,0.8,1c0.4,0.2,0.8,0.2,1.2-0.2
				c0.4-0.2,0.6-0.4,0.8-1l1.2-3.4c0.2-0.6,0.2-1.2,0.2-1.6C205.4,340.7,205.2,340.5,204.8,340.3 M203.8,341.3
				c0.2-0.2,0.4-0.2,0.6,0c0.2,0,0.4,0.2,0.4,0.4c0.2,0,0.2,0.2,0.2,0.4l-1.4,3.8c0,0.2-0.2,0.2-0.4,0.4c0,0-0.2,0-0.4,0
				s-0.2-0.2-0.4-0.2c0-0.2,0-0.4,0.2-0.6l1.4-4C203.6,341.5,203.8,341.3,203.8,341.3 M247,340.7c0,0.2-0.2,0.4-0.2,0.6
				c-0.2,0.2-0.4,0.4-0.6,0.6l0.2,0.8l0.8-0.2l2,5l1-0.2l-2.4-6.6L247,340.7 M253.7,345.3c0.2-0.4,0.2-1,0-1.6l-1.2-3.4
				c-0.2-0.6-0.6-0.8-1-1s-0.8-0.2-1.2,0c-0.4,0.2-0.8,0.6-1,1s-0.2,0.8,0,1.4l1.4,3.4c0.2,0.6,0.4,1,0.8,1.2s0.8,0.2,1.2,0
				C253.3,346.2,253.7,345.8,253.7,345.3 M251.1,340.3c0.2,0,0.2,0.2,0.2,0.2l1.4,4c0,0.2,0,0.4,0,0.6s-0.2,0.2-0.2,0.2
				c-0.2,0-0.4,0-0.6,0c-0.2,0-0.2-0.2-0.2-0.4l-1.4-3.8c0-0.2,0-0.2,0-0.4c0-0.2,0.2-0.2,0.4-0.2
				C250.9,340.3,250.9,340.3,251.1,340.3 M255.3,338.1c-0.4-0.2-0.8-0.4-1.2-0.2s-0.8,0.6-0.8,1c-0.2,0.4-0.2,0.8,0,1.4l1.2,3.4
				c0.2,0.6,0.6,1,0.8,1.2c0.4,0.2,0.8,0.2,1.4,0c0.4-0.2,0.8-0.4,0.8-0.8c0.2-0.4,0-1,0-1.6l-1.2-3.4
				C256.1,338.5,255.7,338.1,255.3,338.1 M254.1,339.7c0-0.2,0-0.2,0-0.4c0-0.2,0.2-0.2,0.4-0.4c0.2,0,0.2,0,0.4,0s0.2,0.2,0.4,0.4
				l1.4,3.8c0,0.2,0,0.4,0,0.6s-0.2,0.2-0.2,0.2c-0.2,0-0.4,0-0.6,0c-0.2,0-0.2-0.2-0.2-0.4L254.1,339.7 M284.9,319.8
				c0.4,0.4,0.8,0.6,1.2,0.6s0.8-0.2,1.2-0.6c0.2-0.4,0.4-0.8,0.2-1.4c0-0.4-0.4-0.8-0.8-1.2l-3-2.2c-0.4-0.4-0.8-0.4-1.2-0.4
				c-0.4,0-0.8,0.2-1.2,0.6s-0.4,0.8-0.4,1.2c0.2,0.4,0.4,0.8,0.8,1.2L284.9,319.8 M282.7,315.6c0.2,0,0.4,0,0.6,0.2l3.2,2.6
				c0.2,0.2,0.2,0.2,0.2,0.4c0,0.2,0,0.2-0.2,0.4c0,0.2-0.2,0.2-0.2,0.2c-0.2,0-0.4,0-0.6,0l-3.2-2.6c0,0-0.2-0.2-0.2-0.4
				c0-0.2,0-0.2,0-0.4C282.5,315.6,282.5,315.6,282.7,315.6 M282.5,321c0,0,0-0.2,0-0.4l1.4,1c0.2,0.2,0.2,0.2,0.2,0.4
				c0,0.2,0,0.2-0.2,0.4c0,0.2-0.2,0.2-0.2,0.4c-0.2,0-0.2,0-0.4-0.2l-0.4-0.2l-0.8,0.8l0.2,0.2c0.4,0.4,0.8,0.6,1.2,0.6
				s0.8-0.2,1-0.6c0.4-0.4,0.4-1,0.4-1.2c0-0.4-0.4-0.8-0.8-1l-2.8-2.2c-0.6-0.4-1-0.6-1.4-0.6s-0.8,0.2-1.2,0.6
				c-0.4,0.4-0.4,1-0.2,1.2c0,0.6,0.4,1,1,1.6c0.6,0.4,1,0.6,1.6,0.8c0.4,0,0.8-0.2,1-0.6C282.5,321.2,282.5,321,282.5,321
				 M281.7,320.6c-0.2,0.2-0.2,0.2-0.2,0.2c-0.2,0-0.4,0-0.6-0.2L280,320c-0.2-0.2-0.2-0.2-0.2-0.4c-0.2-0.2-0.2-0.2,0-0.4
				c0.2-0.2,0.4-0.4,0.6-0.4s0.2,0,0.4,0.2l1.2,1c0,0.2,0,0.2,0,0.4C281.9,320.4,281.9,320.4,281.7,320.6 M289.5,299.1
				c-0.4,0-0.8,0.2-1.2,0.6s-0.6,0.8-0.6,1.2c0,0.4,0.2,0.8,0.6,1.2c0.4,0.4,0.8,0.6,1.2,0.6s0.8-0.2,1.2-0.6s0.6-0.8,0.6-1.2
				c0-0.4-0.2-0.8-0.6-1.2C290.3,299.3,289.9,299.1,289.5,299.1 M296.3,283c-0.2,0-0.6-0.2-1-0.2c-0.6,0-1,0-1.4,0.2s-0.6,0.4-0.6,1
				s0,1,0.4,1.2c0.2,0.2,0.8,0.4,1.4,0.6c0.4,0,0.8,0,1,0c0.2,0,0.4-0.2,0.6-0.4c0.2,0.2,0.2,0.4,0.6,0.6s0.8,0.2,1.2,0.2
				c0.8,0,1.2,0,1.8-0.2c0.4-0.2,0.6-0.6,0.6-1.2c0-0.4,0-0.8-0.6-1c-0.2-0.4-0.8-0.6-1.4-0.6c-0.4,0-1,0-1.2,0.2
				c-0.4,0-0.6,0.2-0.6,0.4C296.7,283.4,296.3,283.2,296.3,283 M299.4,284.4c0.2,0,0.2,0.2,0.2,0.4c0,0.2,0,0.4-0.2,0.6
				c-0.2,0-0.6,0-1,0c-0.4,0-0.6-0.2-0.8-0.2c-0.2-0.2-0.2-0.2-0.2-0.6s0-0.4,0.2-0.4c0.2,0,0.6,0,1,0
				C299,284.2,299.2,284.2,299.4,284.4 M296.1,284.4c0,0.2,0,0.2-0.2,0.2c-0.2,0-0.6,0-1,0s-0.6,0-0.8-0.2c-0.2-0.2-0.2-0.2-0.2-0.4
				c0-0.2,0-0.2,0.2-0.2c0.2,0,0.4-0.2,0.8-0.2c0.4,0,0.6,0.2,0.8,0.2C296.1,284.2,296.1,284.2,296.1,284.4 M295.5,278.7
				c-0.6,0-1,0-1.4,0.2s-0.6,0.6-0.6,1.2c0,0.4,0,1,0.4,1.2c0.2,0.2,0.6,0.4,1.2,0.6l3.6,0.4c0.6,0,1.2,0,1.6-0.2
				c0.4-0.2,0.6-0.6,0.6-1.2s0-1-0.4-1.2c-0.2-0.4-0.8-0.6-1.4-0.6L295.5,278.7 M294.9,279.9c0-0.2,0.2-0.2,0.4-0.2l4.2,0.4
				c0.2,0,0.4,0.2,0.6,0.2c0,0,0,0.2,0,0.4s0,0.4-0.2,0.4c-0.2,0.2-0.4,0.2-0.6,0.2l-4.2-0.4c-0.2,0-0.2,0-0.2-0.2
				c-0.2,0-0.2-0.2-0.2-0.4S294.7,279.9,294.9,279.9 M292.7,242.9c-0.4,0-1,0-1.4,0.2l-3.4,1.6c-0.6,0.2-0.8,0.6-1,1
				c-0.2,0.4-0.2,1,0,1.4c0.2,0.4,0.6,0.8,1,0.8c0.4,0.2,1,0,1.6-0.2l3.2-1.6c0.4-0.2,0.8-0.6,1-0.8c0.2-0.4,0.2-1,0-1.4
				C293.5,243.3,293.3,243.1,292.7,242.9 M292.7,244.7c0,0.2-0.2,0.2-0.2,0.2l-3.8,1.8c-0.2,0.2-0.4,0.2-0.6,0.2s-0.2-0.2-0.2-0.4
				s0-0.2,0-0.6c0,0,0.2-0.2,0.4-0.2l3.8-1.8c0.2,0,0.2-0.2,0.4-0.2c0.2,0.2,0.4,0.2,0.4,0.4C292.9,244.3,292.9,244.5,292.7,244.7
				 M291.9,242.1l0.6-0.4l-1.2-2.6l-1,0.6l1,1.8l-6,1.4l0.4,1L291.9,242.1 M263.1,211.3c-0.4-0.2-1-0.4-1.2-0.2
				c-0.4,0-0.8,0.4-1,0.8l-2,3.2c-0.4,0.6-0.6,1-0.6,1.6c0,0.4,0.2,0.8,0.8,1c0.4,0.2,1,0.4,1.4,0.2c0.4,0,0.8-0.4,1-0.8l0.8-1
				c0.2-0.4,0.2-0.8,0.2-1.2s-0.2-0.6-0.6-0.8c-0.2,0-0.2-0.2-0.6-0.2c-0.2,0-0.2,0-0.6,0.2l1-1.6c0-0.2,0.2-0.2,0.2-0.2
				c0.2,0,0.4,0,0.6,0s0.2,0.2,0.2,0.4s0,0.2,0,0.4l-0.4,0.4l1,0.6l0.2-0.2c0.2-0.4,0.4-1,0.4-1.4
				C263.7,211.9,263.5,211.5,263.1,211.3 M260.7,214.5c0.2,0,0.2,0,0.2,0c0.2,0.2,0.2,0.2,0.2,0.2c0,0.2,0,0.2,0,0.6l-0.8,1
				c-0.2,0.2-0.2,0.2-0.4,0.2h-0.2c-0.2,0-0.2-0.2-0.4-0.4c0-0.2,0-0.4,0.2-0.6l0.8-1.2C260.5,214.5,260.7,214.5,260.7,214.5
				 M267.4,214.3c0-0.4-0.4-0.8-0.8-1c-0.4-0.2-0.8-0.4-1.2-0.2c-0.4,0-0.8,0.4-1,0.8l-2,3c-0.4,0.6-0.4,1-0.4,1.4s0.2,0.8,0.8,1
				c0.4,0.2,1,0.4,1.2,0.2c0.4-0.2,0.8-0.4,1.2-1l2-3.2C267.4,215.1,267.4,214.7,267.4,214.3 M266.4,214.5c0,0.2,0,0.2,0,0.4
				l-2.2,3.6c-0.2,0.2-0.2,0.2-0.4,0.2c-0.2,0-0.2,0-0.4,0c-0.2-0.2-0.2-0.4-0.4-0.6c0,0,0-0.2,0.2-0.4l2.2-3.6
				c0-0.2,0.2-0.2,0.2-0.2c0.2,0,0.4,0,0.6,0C266.2,214.1,266.4,214.3,266.4,214.5 M224.3,201.7h-2.6l-0.2,3.8h0.8
				c0-0.2,0.2-0.4,0.2-0.4c0.2-0.2,0.2-0.2,0.4-0.2c0.2,0,0.2,0,0.2,0.2c0.2,0,0.2,0.2,0.2,0.4v1.8c0,0.2,0,0.4-0.2,0.6
				c0,0.2-0.2,0.2-0.4,0.2s-0.2,0-0.4-0.2c0-0.2-0.2-0.4-0.2-0.6v-0.4h-1v0.2c0,0.6,0.2,1.2,0.4,1.6s0.6,0.6,1.2,0.6
				c0.4,0,0.8-0.2,1.2-0.6s0.4-0.8,0.4-1.2v-1.8c0-0.6,0-1-0.2-1.2s-0.4-0.2-0.8-0.2c-0.2,0-0.4,0-0.6,0c-0.2,0-0.4,0.2-0.6,0.4
				l0.2-1.6h1.8v-1.4 M226.9,201.5c-0.6,0-1,0.2-1.2,0.6c-0.2,0.2-0.4,0.8-0.4,1.4v3.6c0,0.6,0.2,1,0.4,1.4s0.6,0.6,1.2,0.6
				c0.6,0,1-0.2,1.2-0.6c0.4-0.4,0.6-0.8,0.6-1.4v-3.6c0-0.6-0.2-1-0.6-1.4C227.9,201.7,227.5,201.5,226.9,201.5 M226.9,202.5
				c0.2,0,0.4,0,0.4,0.2c0.2,0,0.2,0.2,0.2,0.4v4c0,0.2,0,0.4-0.2,0.6c0,0.2-0.2,0.2-0.4,0.2s-0.2,0-0.4-0.2s-0.2-0.2-0.2-0.6v-4
				c0-0.2,0-0.4,0.2-0.4S226.7,202.5,226.9,202.5 M157.9,285.4l-3.6,0.4c-0.6,0-1.2,0.2-1.4,0.6c-0.4,0.2-0.4,0.6-0.4,1.2
				s0.2,1,0.6,1.2c0.4,0.2,1,0.2,1.6,0.2l3.6-0.4c0.6,0,1-0.2,1.2-0.6c0.4-0.4,0.4-0.8,0.4-1.2c0-0.4-0.2-0.8-0.6-1.2
				C158.9,285.4,158.3,285.2,157.9,285.4 M158.1,286.4c0.2,0,0.4,0,0.6,0.2c0.2,0,0.2,0.2,0.2,0.4s0,0.4-0.2,0.4
				c0,0.2-0.2,0.2-0.4,0.2l-4.2,0.4c-0.2,0-0.4,0-0.6-0.2c-0.2,0-0.2-0.2-0.2-0.4c0-0.2,0-0.4,0.2-0.4c0-0.2,0.2-0.2,0.4-0.2
				L158.1,286.4 M152.9,281.8h-1l0.4,3.2l1-0.2l-0.2-1.8c1.4,0.6,2.4,1,2.8,1.2c0.6,0.2,1.2,0.2,1.8,0.2s0.8-0.2,1-0.6
				c0.4-0.4,0.4-0.8,0.4-1.2c0-0.6-0.4-1-0.8-1.2s-1-0.2-1.6-0.2h-0.2l0.2,1h0.2c0.4,0,0.6,0,0.8,0s0.2,0.2,0.2,0.2
				c0,0.2,0,0.4-0.2,0.6c0,0-0.2,0.2-0.6,0.2c-0.4,0-1.2,0-1.8-0.4C155.1,282.8,154.1,282.4,152.9,281.8 M159.3,244.3
				c0.2,0.4,0.6,0.8,1,1l3.2,1.6c0.6,0.2,1,0.4,1.6,0.4c0.4,0,0.6-0.4,0.8-0.8c0.2-0.4,0.2-1,0.2-1.4c-0.2-0.4-0.6-0.8-1.2-1
				l-3.2-1.6c-0.4-0.2-0.8-0.2-1.2,0c-0.4,0-0.8,0.2-1,0.8C159.1,243.3,159.1,243.9,159.3,244.3 M160.5,244.3
				c-0.2,0-0.2-0.2-0.2-0.2c0-0.2,0-0.2,0-0.4c0-0.2,0.2-0.2,0.4-0.4h0.2l3.8,1.8c0.2,0.2,0.4,0.2,0.6,0.4c0,0,0,0.2-0.2,0.4
				c0,0.2-0.2,0.2-0.2,0.4c-0.2,0-0.4,0-0.6-0.2L160.5,244.3 M158.5,247.5c0-0.2,0-0.4,0-0.6s0.2-0.2,0.4-0.2s0.4,0,0.8,0.2
				c0.4,0.2,0.6,0.4,0.6,0.6c0.2,0.2,0.2,0.4,0.2,0.6h-0.2l0,0l0.8,0.4h0.2c0.2-0.4,0.2-0.6,0.6-0.6c0.2,0,0.6,0,1,0.2
				c0.4,0.2,0.6,0.2,0.6,0.6c0,0.2,0,0.2,0,0.6c0,0.2-0.2,0.2-0.4,0.2c-0.2,0-0.4,0-0.6-0.2h-0.2l-0.6,1h0.2
				c0.6,0.2,1.2,0.4,1.6,0.2c0.4,0,0.6-0.4,0.8-0.8c0.2-0.4,0.2-0.8,0-1.2s-0.6-0.6-1.2-1c-0.4-0.2-0.8-0.4-1.2-0.4
				c-0.2,0-0.4,0.2-0.6,0.2c0-0.2-0.2-0.4-0.4-0.6c-0.2-0.2-0.4-0.4-0.8-0.6c-0.6-0.2-1-0.4-1.4-0.4s-0.8,0.2-1,0.6
				c-0.2,0.4-0.2,1,0,1.4s0.6,0.6,1.2,1h0.2l0.6-1h-0.2h-0.2C158.9,247.5,158.7,247.5,158.5,247.5 M187.9,217.6l-0.6,0.4l-2.2-3.8
				l-0.8,0.6l0.8,4.8l0.6,0.8l1.6-1l0.8,1.6l0.8-0.6l-0.8-1.6l0.6-0.4L187.9,217.6 M186.3,218.6l-0.8,0.6l-0.6-2.8L186.3,218.6
				 M192.1,217.8c0-0.4,0-0.8-0.4-1.4l-2-3c-0.2-0.4-0.6-0.8-1-1c-0.4-0.2-0.8,0-1.2,0.2c-0.4,0.2-0.6,0.6-0.8,1c0,0.4,0,1,0.2,1.4
				l1.8,3c0.4,0.6,0.8,0.8,1.2,1c0.4,0,0.8,0,1.2-0.2C191.7,218.6,192.1,218.2,192.1,217.8 M190.7,218c-0.2,0.2-0.2,0.2-0.4,0
				c-0.2,0-0.2-0.2-0.4-0.4l-2.2-3.6c0-0.2,0-0.2,0-0.2c0-0.2,0.2-0.4,0.2-0.6c0.2,0,0.4,0,0.6,0s0.2,0,0.2,0.2l2.2,3.6
				c0.2,0.2,0.2,0.4,0.2,0.6C190.9,217.8,190.9,218,190.7,218z"/>
		</g>
	</g>
</g>
<g transform="matrix( 1, 0, 0, 1, 0,0) ">
	<g>
		<g id="Layer5_791_FILL">
			<path fill="#FFFFFF" d="M221.3,53.3c0.6-0.6,0.8-1.4,0.8-2.6c0-1-0.2-1.8-0.8-2.4c-0.4-0.6-1-0.8-2-0.8c-0.8,0-1.4,0.2-1.8,1
				c-0.4,0.6-0.6,1.4-0.6,2.2c0,1,0.2,1.8,0.6,2.4c0.4,0.6,1.2,1,1.8,1C220.3,54.3,220.9,53.9,221.3,53.3 M221.3,50.9
				c0,0.8-0.2,1.6-0.4,2c-0.4,0.4-0.8,0.8-1.4,0.8c-0.6,0-1-0.2-1.2-0.8c-0.4-0.4-0.6-1-0.6-2c0-0.8,0.2-1.2,0.6-1.8
				c0.2-0.4,0.6-0.6,1.2-0.6C220.5,48.5,221.3,49.3,221.3,50.9 M228.7,50.3v-1.8h3.2v-0.8h-4v6.4h0.8v-3h2.2v-0.8H228.7 M226.3,51.1
				v-0.8h-2.4v-1.8h3.2v-0.8h-4v6.4h0.8v-3C223.9,51.1,226.3,51.1,226.3,51.1z"/>
		</g>
	</g>
</g>
</svg>
