<?xml version="1.0" encoding="utf-8"?>
<!-- Generator: Adobe Illustrator 18.0.0, SVG Export Plug-In . SVG Version: 6.00 Build 0)  -->
<!DOCTYPE svg PUBLIC "-//W3C//DTD SVG 1.1//EN" "http://www.w3.org/Graphics/SVG/1.1/DTD/svg11.dtd">
<svg version="1.1" id="Layer_1" xmlns="http://www.w3.org/2000/svg" xmlns:xlink="http://www.w3.org/1999/xlink" x="0px" y="0px"
	 viewBox="74.7 0 300.6 375.2" enable-background="new 74.7 0 300.6 375.2" xml:space="preserve">
<g transform="matrix( 0.5235748291015625, 0, 0, 0.586517333984375, -399.05,22.8) ">
	<g>
		<g id="Layer5_375_MEMBER_0_FILL">
			<path fill="#DFE6EC" d="M1385.7,72.7V-39H998.2V72.7C998.2,72.7,1385.7,72.7,1385.7,72.7z"/>
		</g>
	</g>
</g>
<g transform="matrix( 1, 0, 0, 1, 0,0) ">
	<g>
		<g id="Layer5_375_MEMBER_1_FILL">
			
				<radialGradient id="SVGID_1_" cx="8.5516" cy="125.2486" r="2.4572" gradientTransform="matrix(2.0948 2.0948 -2.0948 2.0948 378.4248 -247.7847)" gradientUnits="userSpaceOnUse">
				<stop  offset="0" style="stop-color:#A5A39C"/>
				<stop  offset="1" style="stop-color:#34342F"/>
			</radialGradient>
			<path fill="url(#SVGID_1_)" d="M138.9,27.3c-1.2-1.2-3-2.1-5-2.1s-3.9,0.6-5,2.1c-1.5,1.5-2.1,3.3-2.1,5.3s0.6,3.6,2.1,5
				c1.2,1.5,3,2.4,5,2.4s3.9-0.9,5-2.4c1.5-1.2,2.1-3,2.1-5S140.4,28.7,138.9,27.3 M132.4,29.3c0.3,0,0.6,0.3,0.9,0.6l0.9,0.9
				l0.9-0.6c0.3-0.3,0.6-0.6,0.9-0.9c0.6,0,0.9,0.3,0.9,0.6l0,0c0.3,0.3,0.6,0.6,0.6,0.9c0,0.3,0,0.6-0.6,0.9l-0.9,0.9l0.9,0.6
				c0.3,0.3,0.6,0.6,0.6,0.9c0,0.3,0,0.6-0.6,0.9c-0.3,0.3-0.6,0.3-0.9,0.3s-0.6,0-0.9-0.3l-1.2-0.6l-0.9,0.9
				c-0.3,0.3-0.6,0.3-0.9,0.3c-0.6,0-0.9,0-1.2-0.3c0-0.3,0-0.6,0-1.2c0-0.3,0.3-0.6,0.6-0.9l0.6-0.6l-0.6-0.9
				c-0.6-0.3-0.6-0.6-0.6-0.9c0-0.3,0.3-0.6,0.6-0.9C131.5,29.6,132.1,29.3,132.4,29.3z"/>
			<path fill="#010101" d="M133.3,29.9c-0.3-0.3-0.6-0.6-0.9-0.6c-0.6,0-0.9,0.3-1.2,0.9c-0.3,0-0.3,0.3-0.3,0.6
				c0,0.3,0.3,0.6,0.6,0.9l0.6,0.9l-0.6,0.6c-0.6,0.3-0.6,0.6-0.6,0.9c0,0.3,0.3,0.6,0.6,0.9c0.3,0.3,0.6,0.3,1.2,0.3
				c0.3,0,0.6,0,0.9-0.3l0.9-0.9l0.9,0.9c0.3,0.3,0.6,0.3,0.9,0.3c0.6,0,0.9,0,0.9-0.3c0.3-0.3,0.6-0.6,0.6-0.9c0-0.3,0-0.6-0.6-0.9
				l-1.2-0.6l0.9-0.9c0.3-0.3,0.6-0.9,0.6-0.9s0-0.6-0.6-0.9l0,0c-0.3-0.3-0.6-0.6-0.9-0.6s-0.6,0.3-0.9,0.9l-1.2,0.3L133.3,29.9z"
				/>
		</g>
	</g>
</g>
<g transform="matrix( 1, 0, 0, 1, 0,0) ">
	<g>
		<g id="Layer5_375_MEMBER_2_FILL">
			
				<radialGradient id="SVGID_2_" cx="8.5516" cy="125.2486" r="2.4572" gradientTransform="matrix(2.0948 2.0948 -2.0948 2.0948 560.1727 -247.7847)" gradientUnits="userSpaceOnUse">
				<stop  offset="0" style="stop-color:#A5A39C"/>
				<stop  offset="1" style="stop-color:#34342F"/>
			</radialGradient>
			<path fill="url(#SVGID_2_)" d="M320.8,27.3c-1.2-1.2-3-2.1-5-2.1c-2.1,0-3.6,0.6-5.3,2.1c-1.2,1.5-1.8,3.3-1.8,5.3s0.6,3.6,2.1,5
				c1.5,1.5,3.3,2.4,5.3,2.4c2.1,0,3.9-0.9,5-2.4c1.5-1.2,2.1-3,2.1-5C322.9,30.5,322,28.7,320.8,27.3 M312.8,34.4
				c0-0.6,0-0.9,0.3-1.2l0.9-0.6l-0.9-0.9c-0.3-0.3-0.3-0.6-0.3-0.9c0-0.3,0-0.9,0.3-0.9c0.3-0.6,0.6-0.6,0.9-0.6
				c0.6,0,0.9,0,1.2,0.6l0.9,0.6l0.9-0.9c0.3-0.3,0.6-0.6,0.9-0.6c0.3,0,0.9,0.3,0.9,0.6c0.3,0.3,0.6,0.6,0.6,0.9
				c0,0-0.3,0.3-0.6,0.9l-1.2,1.2l0.9,0.6c0.3,0.3,0.6,0.6,0.6,1.2c0,0.3-0.3,0.6-0.6,0.9c-0.3,0.3-0.6,0.3-0.9,0.3
				c-0.3,0-0.6,0-0.9-0.3l-0.9-0.9l-0.9,0.9c-0.3,0.3-0.6,0.3-1.2,0.3c-0.3,0-0.6,0-0.9-0.3C312.8,35,312.8,34.7,312.8,34.4z"/>
			<path fill="#010101" d="M313.1,33.2c-0.3,0.3-0.3,0.6-0.3,1.2c0,0.3,0,0.6,0.3,0.9c0.3,0.3,0.6,0.3,0.9,0.3c0.6,0,0.9,0,1.2-0.3
				l0.9-0.9l0.9,0.9c0.3,0.3,0.6,0.3,0.9,0.3c0.3,0,0.9,0,0.9-0.3c0.3-0.3,0.6-0.6,0.6-0.9c0-0.6-0.3-0.9-0.6-1.2l-1.2-0.6l0.9-0.9
				c0.3-0.3,0.6-0.6,0.6-0.9c0-0.3-0.3-0.9-0.6-0.9c-0.3-0.3-0.6-0.6-0.9-0.6c-0.3,0-0.6,0-0.9,0.6l-0.9,0.9l-0.9-0.6
				c-0.3-0.6-0.6-0.6-1.2-0.6c-0.3,0-0.6,0-0.9,0.6c-0.3,0.3-0.3,0.6-0.3,0.9c0,0,0,0.3,0.3,0.9l0.9,0.9L313.1,33.2z"/>
		</g>
	</g>
</g>
<g transform="matrix( 0.4074554443359375, 0, 0, 0.4074554443359375, -418.6,35.5) ">
	<g>
		<g id="Layer5_379_FILL">
			<path fill="#232324" d="M1948.4,176.6c0-22.2-8-41.2-23.7-57.2c-15.7-15.7-34.7-23.7-56.9-23.7h-576.5c-22.2,0-41.2,8-57.2,23.7
				c-15.7,15.7-23.4,35-23.4,57.2v576.5c0,22.2,8,41.2,23.4,56.9c15.7,15.7,35,23.7,57.2,23.7h576.5c22.2,0,41.2-8,56.9-23.7
				c15.7-15.7,23.7-34.7,23.7-56.9V176.6z"/>
		</g>
	</g>
</g>
<g transform="matrix( 0.4074554443359375, 0, 0, 0.4074554443359375, -418.6,35.5) ">
	<g>
		<g id="Layer5_380_FILL">
			<path fill="#010101" d="M1938.9,464.9c0-99.2-35-184-105.2-254.2c-70.2-70.2-154.9-105.5-254.2-105.5s-184,35.3-254.2,105.5
				c-70.2,70.2-105.5,154.9-105.5,254.2s35,184,105.5,254.2c70.2,70.2,154.9,105.5,254.2,105.5s184-35.3,254.2-105.5
				C1903.6,648.5,1938.9,563.8,1938.9,464.9z"/>
		</g>
	</g>
</g>
<g transform="matrix( 0.4074554443359375, 0, 0, 0.4074554443359375, -418.6,35.5) ">
	<g>
		<g id="Layer5_381_FILL">
			<path fill="#E8E3DD" d="M1920.2,464.9c0-94.2-33.2-174.5-99.8-241.1s-146.9-99.8-240.8-99.8c-94.2,0-174.5,33.2-241.1,99.8
				s-99.8,146.9-99.8,241.1s33.2,174.5,99.8,241.1s146.9,99.8,241.1,99.8c94.2,0,174.5-33.2,240.8-99.8
				C1887.1,639.1,1920.2,558.8,1920.2,464.9z"/>
		</g>
	</g>
</g>
<g transform="matrix( 1, 0, 0, 1, 0,0) ">
	<g>
		<g id="Layer5_382_FILL">
			
				<radialGradient id="SVGID_3_" cx="-28.1749" cy="260.5832" r="3.9125" gradientTransform="matrix(2.9625 0 0 2.9625 190.339 -670.1603)" gradientUnits="userSpaceOnUse">
				<stop  offset="0" style="stop-color:#505050"/>
				<stop  offset="1" style="stop-color:#010101"/>
			</radialGradient>
			<path fill="url(#SVGID_3_)" d="M106.9,90.1c-3.3,0-5.9,1.2-8.3,3.6c-2.4,2.4-3.6,5-3.6,8.3c0,3.3,1.2,5.9,3.6,8.3
				c2.1,2.1,5,3.3,8.3,3.3c3.3,0,5.9-1.2,8.3-3.3c2.4-2.4,3.6-5,3.6-8.3s-1.2-5.9-3.6-8.3C112.9,91.2,109.9,90.1,106.9,90.1
				 M106.9,96c0.6,0,1.2,0.3,1.5,0.6c0.3,0.3,0.6,0.9,0.6,1.5v1.5h1.5c0.6,0,1.2,0.3,1.5,0.9c0.6,0.3,0.9,0.9,0.9,1.5
				s-0.3,1.2-0.9,1.8c-0.3,0.3-0.9,0.6-1.5,0.6H109v1.5c0,0.6-0.3,1.2-0.6,1.5c-0.3,0.3-0.9,0.6-1.5,0.6c-0.6,0-1.2-0.3-1.5-0.6
				c-0.3-0.3-0.6-0.9-0.6-1.5v-1.5h-1.8c-0.6,0-1.2-0.3-1.5-0.6c-0.6-0.6-0.9-0.9-0.9-1.8c0-0.6,0.3-1.2,0.9-1.5
				c0.3-0.6,0.9-0.9,1.5-0.9h1.8v-1.5c0-0.6,0-1.2,0.6-1.5C105.8,96,106.1,96,106.9,96z"/>
			<path fill="#010101" d="M108.4,96.6c-0.3-0.3-0.9-0.6-1.5-0.6c-0.6,0-1.2,0.3-1.5,0.6c-0.3,0.3-0.6,0.9-0.6,1.5v1.5h-1.8
				c-0.6,0-1.2,0.3-1.5,0.9c-0.3,0.3-0.6,0.6-0.6,1.5c0,0.6,0.3,1.2,0.9,1.8c0.3,0.3,0.9,0.6,1.5,0.6h1.8v1.5c0,0.6,0,1.2,0.6,1.5
				c0.3,0.3,0.9,0.6,1.5,0.6c0.6,0,1.2-0.3,1.5-0.6c0.3-0.3,0.6-0.9,0.6-1.5v-1.5h1.5c0.6,0,1.2-0.3,1.5-0.6
				c0.6-0.6,0.9-0.9,0.9-1.8c0-0.6-0.3-1.2-0.9-1.5c-0.3-0.6-0.9-0.9-1.5-0.9h-1.5v-1.5C109,97.5,108.7,96.9,108.4,96.6z"/>
		</g>
	</g>
</g>
<g transform="matrix( 1, 0, 0, 1, 0,0) ">
	<g>
		<g id="Layer5_383_FILL">
			
				<radialGradient id="SVGID_4_" cx="-28.1749" cy="260.5832" r="3.9125" gradientTransform="matrix(2.9625 0 0 2.9625 432.5214 -670.1603)" gradientUnits="userSpaceOnUse">
				<stop  offset="0" style="stop-color:#505050"/>
				<stop  offset="1" style="stop-color:#010101"/>
			</radialGradient>
			<path fill="url(#SVGID_4_)" d="M341,93.6c-2.4,2.4-3.6,5-3.6,8.3c0,3.3,1.2,5.9,3.6,8.3c2.4,2.1,5,3.3,8.3,3.3
				c3.3,0,5.9-1.2,8-3.3c2.4-2.4,3.6-5,3.6-8.3s-1.2-5.9-3.6-8.3c-2.1-2.4-4.7-3.6-8-3.6C346,90.1,343.1,91.2,341,93.6 M347.5,96.6
				c0.6-0.3,0.9-0.6,1.8-0.6c0.6,0,1.2,0.3,1.5,0.6c0.3,0.3,0.6,0.9,0.6,1.5v1.5h1.8c0.6,0,1.2,0.3,1.5,0.9c0.3,0.3,0.6,0.9,0.6,1.5
				c0,0.6,0,1.2-0.6,1.8c-0.3,0.3-0.9,0.6-1.5,0.6h-1.8v1.5c0,0.6,0,1.2-0.6,1.5c-0.6,0.3-0.9,0.6-1.5,0.6s-1.2-0.3-1.8-0.6
				c-0.3-0.3-0.6-0.9-0.6-1.5v-1.5h-1.8c-0.3,0-0.9-0.3-1.2-0.6c-0.3-0.6-0.6-0.9-0.6-1.8c0-0.6,0.3-1.2,0.6-1.5
				c0.6-0.6,0.9-0.9,1.2-0.9h1.8v-1.5C346.9,97.5,346.9,96.9,347.5,96.6z"/>
			<path fill="#010101" d="M349,96c-0.6,0-1.2,0.3-1.8,0.6c-0.3,0.3-0.6,0.9-0.6,1.5v1.5h-1.8c-0.3,0-0.9,0.3-1.2,0.9
				c-0.3,0.3-0.6,0.9-0.6,1.5s0.3,1.2,0.6,1.8c0.6,0.3,0.9,0.6,1.2,0.6h1.8v1.5c0,0.6,0.3,1.2,0.6,1.5c0.6,0.3,0.9,0.6,1.8,0.6
				c0.6,0,1.2-0.3,1.5-0.6c0.3-0.3,0.6-0.9,0.6-1.5v-1.5h1.8c0.6,0,1.2-0.3,1.5-0.6c0.3-0.6,0.6-0.9,0.6-1.8c0-0.6,0-1.2-0.6-1.5
				c-0.3-0.6-0.9-0.9-1.5-0.9h-1.8v-1.5c0-0.6,0-1.2-0.6-1.5C350.2,96,349.6,96,349,96z"/>
		</g>
	</g>
</g>
<g transform="matrix( 1, 0, 0, 1, 0,0) ">
	<g>
		<g id="Layer5_384_FILL">
			
				<radialGradient id="SVGID_5_" cx="-28.1749" cy="260.5832" r="3.9125" gradientTransform="matrix(2.9625 0 0 2.9625 432.5214 -422.7936)" gradientUnits="userSpaceOnUse">
				<stop  offset="0" style="stop-color:#505050"/>
				<stop  offset="1" style="stop-color:#010101"/>
			</radialGradient>
			<path fill="url(#SVGID_5_)" d="M341,340.7c-2.4,2.4-3.6,5.3-3.6,8.3s1.2,5.9,3.6,8.3c2.4,2.4,5,3.6,8.3,3.6c3.3,0,5.9-1.2,8-3.6
				c2.4-2.4,3.6-5,3.6-8.3s-1.2-5.9-3.6-8.3c-2.1-2.1-4.7-3.3-8-3.3C346,337.4,343.4,338.6,341,340.7 M346.9,346.9v-1.5
				c0-0.6,0.3-0.9,0.6-1.5c0.6-0.3,0.9-0.6,1.8-0.6l0,0c0.6,0,0.9,0.3,1.5,0.6c0.3,0.6,0.6,0.9,0.6,1.5v1.5h1.8
				c0.6,0,1.2,0.3,1.5,0.9c0.3,0.3,0.6,0.9,0.6,1.5c0,0.6,0,1.2-0.6,1.5c-0.3,0.3-0.9,0.6-1.5,0.6h-1.8v1.8c0,0.6,0,1.2-0.6,1.5
				c-0.6,0.3-0.9,0.6-1.5,0.6l0,0c-0.6,0-1.2-0.3-1.8-0.6c-0.3-0.3-0.6-0.9-0.6-1.5v-1.8h-1.8c-0.6,0-0.9-0.3-1.5-0.6
				c-0.3-0.3-0.6-0.9-0.6-1.5c0-0.6,0.3-1.2,0.6-1.5c0.6-0.6,0.9-0.9,1.5-0.9H346.9z"/>
			<path fill="#010101" d="M346.9,345.4v1.5h-1.8c-0.6,0-0.9,0.3-1.5,0.9c-0.3,0.3-0.6,0.9-0.6,1.5c0,0.6,0.3,1.2,0.6,1.5
				c0.6,0.3,0.9,0.6,1.5,0.6h1.8v1.8c0,0.6,0.3,1.2,0.6,1.5c0.6,0.3,0.9,0.6,1.8,0.6l0,0c0.6,0,0.9-0.3,1.5-0.6
				c0.3-0.3,0.6-0.9,0.6-1.5v-1.8h1.8c0.6,0,1.2-0.3,1.5-0.6c0.3-0.3,0.6-0.9,0.6-1.5c0-0.6,0-1.2-0.6-1.5c-0.3-0.6-0.9-0.9-1.5-0.9
				h-1.8v-1.5c0-0.6,0-0.9-0.6-1.5c-0.6-0.3-0.9-0.6-1.5-0.6l0,0c-0.6,0-1.2,0.3-1.8,0.6C346.9,344.2,346.9,344.8,346.9,345.4z"/>
		</g>
	</g>
</g>
<g transform="matrix( 1, 0, 0, 1, 0,0) ">
	<g>
		<g id="Layer5_385_FILL">
			
				<radialGradient id="SVGID_6_" cx="-28.1749" cy="260.5832" r="3.9125" gradientTransform="matrix(2.9625 0 0 2.9625 186.0434 -423.0898)" gradientUnits="userSpaceOnUse">
				<stop  offset="0" style="stop-color:#505050"/>
				<stop  offset="1" style="stop-color:#010101"/>
			</radialGradient>
			<path fill="url(#SVGID_6_)" d="M110.8,340.7c-2.1-2.1-4.7-3.3-8.3-3.3c-3,0-5.6,1.2-8,3.3c-2.4,2.4-3.6,5.3-3.6,8.3
				c0,3.3,1.2,6.2,3.6,8.3c2.4,2.4,5,3.6,8,3.6c3.3,0,5.9-1.2,8.3-3.6c2.4-2.4,3.6-5.3,3.6-8.3S113.2,343.4,110.8,340.7 M96.9,349.3
				L96.9,349.3c0-0.9,0-1.2,0.3-1.5c0.3-0.6,0.9-0.9,1.8-0.9h1.5v-1.5c0-0.6,0-0.9,0.3-1.5c0.6-0.3,0.9-0.6,1.5-0.6h0.6
				c0.3,0,0.9,0.3,1.2,0.6c0.6,0.6,0.9,0.9,0.9,1.5v1.5h1.5c0.3,0,0.9,0.3,1.5,0.9c0.3,0.3,0.3,0.6,0.3,1.2v0.3c0,0.6,0,1.2-0.3,1.5
				c-0.6,0.3-1.2,0.6-1.5,0.6h-1.5v1.5c0,0.6-0.3,1.2-0.9,1.8c-0.3,0.3-0.9,0.6-1.2,0.6h-0.3c-0.6,0-0.9-0.3-1.5-0.6
				c-0.3-0.3-0.3-0.9-0.3-1.8v-1.5h-1.8c-0.6,0-1.2-0.3-1.8-0.6C97.2,350.2,96.9,349.9,96.9,349.3z"/>
			<path fill="#010101" d="M96.9,349L96.9,349c0,0.9,0,1.5,0.3,1.8c0.3,0.3,0.9,0.6,1.8,0.6h1.5v1.5c0,0.6,0,1.2,0.3,1.8
				c0.6,0.3,0.9,0.6,1.5,0.6h0.6c0.3,0,0.9-0.3,1.2-0.6c0.6-0.3,0.9-0.9,0.9-1.8v-1.5h1.5c0.3,0,0.9-0.3,1.5-0.6
				c0.3-0.3,0.3-0.9,0.3-1.5V349c0-0.6,0-0.9-0.3-1.2c-0.6-0.6-1.2-0.9-1.5-0.9h-1.5v-1.5c0-0.6-0.3-0.9-0.9-1.5
				c-0.3-0.3-0.9-0.6-1.2-0.6h-0.3c-0.6,0-0.9,0.3-1.5,0.6c-0.3,0.6-0.3,0.9-0.3,1.5v1.5h-1.8c-0.6,0-1.2,0.3-1.8,0.9
				C97.2,348.1,96.9,348.4,96.9,349z"/>
		</g>
	</g>
</g>
<g transform="matrix( 1, 0, 0, 1, 0,0) ">
	<g>
		<g id="Layer5_386_FILL">
			<path fill="#010101" d="M152.9,265.7c0-1.5-0.3-3-1.2-3.9c-0.9-0.9-1.8-1.2-3.3-1.2s-2.7,0.3-3.3,1.2c-0.9,0.9-1.5,2.1-1.5,3.6
				v10.1c0,1.8,0.6,3.3,1.5,4.1c0.6,0.9,1.8,1.2,3.3,1.2s2.7-0.6,3.6-1.2c0.9-0.9,1.2-2.4,1.2-4.1v-9.8 M149.3,264
				c0.3,0.3,0.6,0.9,0.6,1.2v11.6c0,0.6,0,1.2-0.6,1.2c-0.3,0.6-0.6,0.6-1.2,0.6s-0.9-0.3-1.2-0.6c-0.3-0.3-0.6-0.9-0.6-1.2v-11.6
				c0-0.3,0.3-0.6,0.6-0.9s0.6-0.3,1.2-0.3C148.7,263.7,149,263.7,149.3,264z"/>
		</g>
	</g>
</g>
<g transform="matrix( 1, 0, 0, 1, 0,0) ">
	<g>
		<g id="Layer5_387_FILL">
			<path fill="#16151A" d="M225.4,111.7l4.7-23.4l-9.5-0.3L225.4,111.7z"/>
		</g>
	</g>
</g>
<g transform="matrix( 0.178619384765625, 0.3661956787109375, -0.3661956787109375, 0.178619384765625, -136.55,-345.6) ">
	<g>
		<g id="Layer5_388_FILL">
			<path fill="#010101" d="M1647.6,94.2v48.6h3l0-48.3l-3,0V94.2z"/>
		</g>
	</g>
</g>
<g transform="matrix( 0.1526336669921875, 0.3777618408203125, -0.3777618408203125, 0.1526336669921875, -104.25,-359.5) ">
	<g>
		<g id="Layer5_389_FILL">
			<path fill="#010101" d="M1632.4,67.4l0,48.3h3V67.4L1632.4,67.4z"/>
		</g>
	</g>
</g>
<g transform="matrix( 0.125946044921875, 0.3874664306640625, -0.3874664306640625, 0.125946044921875, -71,-371.1) ">
	<g>
		<g id="Layer5_390_FILL">
			<path fill="#010101" d="M1615.4,41v48.6h3V41H1615.4z"/>
		</g>
	</g>
</g>
<g transform="matrix( -0.0985870361328125, 0.39532470703125, -0.39532470703125, -0.0985870361328125, 208.25,-377.25) ">
	<g>
		<g id="Layer5_391_FILL">
			<path fill="#010101" d="M1422.2-118.3V-70h3v-48.3L1422.2-118.3z"/>
		</g>
	</g>
</g>
<g transform="matrix( -0.1259307861328125, 0.38751220703125, -0.38751220703125, -0.1259307861328125, 242,-366.95) ">
	<g>
		<g id="Layer5_392_FILL">
			<path fill="#010101" d="M1393.3-129.5v48.6h3v-48.6H1393.3z"/>
		</g>
	</g>
</g>
<g transform="matrix( -0.1526336669921875, 0.377777099609375, -0.377777099609375, -0.1526336669921875, 275.2,-354.45) ">
	<g>
		<g id="Layer5_393_FILL">
			<path fill="#010101" d="M1362.7-139.9v48.3h3v-48.3H1362.7z"/>
		</g>
	</g>
</g>
<g transform="matrix( -0.22784423828125, 0.33782958984375, -0.33782958984375, -0.22784423828125, 367.85,-303.5) ">
	<g>
		<g id="Layer5_394_FILL">
			<path fill="#010101" d="M1269.9-154.9l0,48.3l3,0v-48.3H1269.9z"/>
		</g>
	</g>
</g>
<g transform="matrix( -0.2508697509765625, 0.3210906982421875, -0.3210906982421875, -0.2508697509765625, 396.25,-282.35) ">
	<g>
		<g id="Layer5_395_FILL">
			<path fill="#010101" d="M1238-155.7v48.3h3v-48.3H1238z"/>
		</g>
	</g>
</g>
<g transform="matrix( -0.27264404296875, 0.302825927734375, -0.302825927734375, -0.27264404296875, 422.95,-259.45) ">
	<g>
		<g id="Layer5_396_FILL">
			<path fill="#010101" d="M1206-153.6v48.6h3v-48.6H1206z"/>
		</g>
	</g>
</g>
<g transform="matrix( -0.32965087890625, 0.239532470703125, -0.239532470703125, -0.32965087890625, 492.95,-179.95) ">
	<g>
		<g id="Layer5_397_FILL">
			<path fill="#010101" d="M1111.8-136.5l0,48.3l3,0v-48.6h-3V-136.5z"/>
		</g>
	</g>
</g>
<g transform="matrix( -0.345550537109375, 0.2158966064453125, -0.2158966064453125, -0.345550537109375, 512.2,-150.2) ">
	<g>
		<g id="Layer5_398_FILL">
			<path fill="#010101" d="M1082.5-126.6v48.3h3l0-48.3H1082.5z"/>
		</g>
	</g>
</g>
<g transform="matrix( -0.3597869873046875, 0.1912994384765625, -0.1912994384765625, -0.3597869873046875, 529.45,-119) ">
	<g>
		<g id="Layer5_399_FILL">
			<path fill="#010101" d="M1054.6-116.1v48.6h3l0-48.6H1054.6z"/>
		</g>
	</g>
</g>
<g transform="matrix( -0.3917388916015625, 0.112335205078125, -0.112335205078125, -0.3917388916015625, 567.85,-20.6) ">
	<g>
		<g id="Layer5_400_FILL">
			<path fill="#010101" d="M972.4-66.9v48.3l3,0l0-48.3H972.4z"/>
		</g>
	</g>
</g>
<g transform="matrix( -0.3986358642578125, 0.0847320556640625, -0.0847320556640625, -0.3986358642578125, 576,13.65) ">
	<g>
		<g id="Layer5_401_FILL">
			<path fill="#010101" d="M947.2-46.3V2l3,0v-48.3H947.2z"/>
		</g>
	</g>
</g>
<g transform="matrix( -0.4035491943359375, 0.05670166015625, -0.05670166015625, -0.4035491943359375, 581.6,48.85) ">
	<g>
		<g id="Layer5_402_FILL">
			<path fill="#010101" d="M924.2-26.3l0,48.6l3,0l0-48.6L924.2-26.3z"/>
		</g>
	</g>
</g>
<g transform="matrix( 0.1273651123046875, 0.7223052978515625, -0.40130615234375, 0.0707550048828125, -83.2,-768.45) ">
	<g>
		<g id="Layer5_403_FILL">
			<path fill="#010101" d="M1404.5-42.2V4v2.1l3,0v-48.3H1404.5z"/>
		</g>
	</g>
</g>
<g transform="matrix( -0.3667449951171875, 0.63519287109375, -0.3528900146484375, -0.203765869140625, 521.05,-666.45) ">
	<g>
		<g id="Layer5_404_FILL">
			<path fill="#010101" d="M1252.4-185.7v46.2v2.1h3v-48.3H1252.4z"/>
		</g>
	</g>
</g>
<g transform="matrix( -0.6891937255859375, 0.2508697509765625, -0.139373779296875, -0.3829345703125, 918.15,-200.25) ">
	<g>
		<g id="Layer5_405_FILL">
			<path fill="#010101" d="M1084.5-118.2v46.2v2.1h3v-48.3L1084.5-118.2z"/>
		</g>
	</g>
</g>
<g transform="matrix( 1, 0, 0, 1, 0,0) ">
	<g>
		<g id="Layer5_406_FILL">
			<path fill="#16151A" d="M152.3,137.2l-11.8-21l-7.4,5.9L152.3,137.2z"/>
		</g>
	</g>
</g>
<g transform="matrix( 1, 0, 0, 1, 0,0) ">
	<g>
		<g id="Layer5_407_FILL">
			<path fill="#16151A" d="M90.9,195.5l-2.1,9.5l24.6-0.6L90.9,195.5z"/>
		</g>
	</g>
</g>
<g transform="matrix( 1, 0, 0, 1, 0,0) ">
	<g>
		<g id="Layer5_408_FILL">
			<path fill="#16151A" d="M103.4,288.2l4.7,8.6l18.1-16.3L103.4,288.2z"/>
		</g>
	</g>
</g>
<g transform="matrix( -0.37225341796875, 0.1657562255859375, -0.1657562255859375, -0.37225341796875, 544.7,-87.05) ">
	<g>
		<g id="Layer5_409_FILL">
			<path fill="#010101" d="M1025.3-102.4l0,48.6l3,0v-48.6H1025.3z"/>
		</g>
	</g>
</g>
<g transform="matrix( -0.178619384765625, 0.3662109375, -0.3662109375, -0.178619384765625, 307.1,-339.7) ">
	<g>
		<g id="Layer5_410_FILL">
			<path fill="#010101" d="M1332.3-146.1v48.6h3v-48.6H1332.3z"/>
		</g>
	</g>
</g>
<g transform="matrix( -0.2931060791015625, 0.28302001953125, -0.28302001953125, -0.2931060791015625, 448.2,-234.4) ">
	<g>
		<g id="Layer5_411_FILL">
			<path fill="#010101" d="M1174.3-151v48.6h3V-151H1174.3z"/>
		</g>
	</g>
</g>
<g transform="matrix( 0.09857177734375, 0.39532470703125, -0.39532470703125, 0.09857177734375, -36.8,-380.45) ">
	<g>
		<g id="Layer5_412_FILL">
			<path fill="#010101" d="M1596.4,15.4v48.3h3V15.4L1596.4,15.4z"/>
		</g>
	</g>
</g>
<g transform="matrix( -0.406524658203125, 0.0284271240234375, -0.0284271240234375, -0.406524658203125, 584.85,83.9) ">
	<g>
		<g id="Layer5_413_FILL">
			<path fill="#010101" d="M902.5-2.6v48.3h3l0-48.3L902.5-2.6z"/>
		</g>
	</g>
</g>
<g transform="matrix( -0.0425567626953125, 0.4051971435546875, -0.4051971435546875, -0.0425567626953125, 138.75,-390.4) ">
	<g>
		<g id="Layer5_414_FILL">
			<path fill="#010101" d="M1478.5-88.8v48.6l3,0l0-48.6H1478.5z"/>
		</g>
	</g>
</g>
<g transform="matrix( -0.01422119140625, 0.4072113037109375, -0.4072113037109375, -0.01422119140625, 103.7,-393.45) ">
	<g>
		<g id="Layer5_415_FILL">
			<path fill="#010101" d="M1504.3-72.2v48.6l3,0v-48.6H1504.3z"/>
		</g>
	</g>
</g>
<g transform="matrix( 0.01422119140625, 0.4072113037109375, -0.4072113037109375, 0.01422119140625, 68.3,-393.9) ">
	<g>
		<g id="Layer5_416_FILL">
			<path fill="#010101" d="M1529.6-52.5V-4l3,0v-48.6H1529.6z"/>
		</g>
	</g>
</g>
<g transform="matrix( 0.0425567626953125, 0.4051971435546875, -0.4051971435546875, 0.0425567626953125, 32.95,-392) ">
	<g>
		<g id="Layer5_417_FILL">
			<path fill="#010101" d="M1552.6-31.3v48.6h3v-48.6L1552.6-31.3z"/>
		</g>
	</g>
</g>
<g transform="matrix( -0.178619384765625, 0.3661956787109375, 0.3661956787109375, 0.178619384765625, 294.7,-345.55) ">
	<g>
		<g id="Layer5_418_FILL">
			<path fill="#010101" d="M1333,740.1v48.3h3v-48.3H1333z"/>
		</g>
	</g>
</g>
<g transform="matrix( -0.1526336669921875, 0.3777618408203125, 0.3777618408203125, 0.1526336669921875, 262.3,-359.5) ">
	<g>
		<g id="Layer5_419_FILL">
			<path fill="#010101" d="M1363.4,732.9v48.6l3,0v-48.6H1363.4z"/>
		</g>
	</g>
</g>
<g transform="matrix( -0.125946044921875, 0.3874664306640625, 0.3874664306640625, 0.125946044921875, 229.05,-371.05) ">
	<g>
		<g id="Layer5_420_FILL">
			<path fill="#010101" d="M1393.5,724v48.6h3V724H1393.5z"/>
		</g>
	</g>
</g>
<g transform="matrix( 0.0985870361328125, 0.39532470703125, 0.39532470703125, -0.0985870361328125, -50.3,-377.25) ">
	<g>
		<g id="Layer5_421_FILL">
			<path fill="#010101" d="M1595.7,577.9v48.3h3v-48.3H1595.7z"/>
		</g>
	</g>
</g>
<g transform="matrix( 0.1259307861328125, 0.38751220703125, 0.38751220703125, -0.1259307861328125, -84,-366.9) ">
	<g>
		<g id="Layer5_422_FILL">
			<path fill="#010101" d="M1615.5,553.1v48.6h3v-48.6H1615.5z"/>
		</g>
	</g>
</g>
<g transform="matrix( 0.1526336669921875, 0.377777099609375, 0.377777099609375, -0.1526336669921875, -117.2,-354.35) ">
	<g>
		<g id="Layer5_423_FILL">
			<path fill="#010101" d="M1632.1,525.5l0,48.3h3v-48.3H1632.1z"/>
		</g>
	</g>
</g>
<g transform="matrix( 0.22784423828125, 0.33782958984375, 0.33782958984375, -0.22784423828125, -209.9,-303.45) ">
	<g>
		<g id="Layer5_424_FILL">
			<path fill="#010101" d="M1671.4,439.9v48.3h3v-48.3H1671.4z"/>
		</g>
	</g>
</g>
<g transform="matrix( 0.2508697509765625, 0.3210906982421875, 0.3210906982421875, -0.2508697509765625, -238.3,-282.35) ">
	<g>
		<g id="Layer5_425_FILL">
			<path fill="#010101" d="M1679.6,409.6v48.3h3v-48.3H1679.6z"/>
		</g>
	</g>
</g>
<g transform="matrix( 0.27264404296875, 0.302825927734375, 0.302825927734375, -0.27264404296875, -265.1,-259.3) ">
	<g>
		<g id="Layer5_426_FILL">
			<path fill="#010101" d="M1686.3,378.7V427h3v-48.3C1689.3,378.7,1686.3,378.7,1686.3,378.7z"/>
		</g>
	</g>
</g>
<g transform="matrix( 0.32965087890625, 0.239532470703125, 0.239532470703125, -0.32965087890625, -334.9,-179.9) ">
	<g>
		<g id="Layer5_427_FILL">
			<path fill="#010101" d="M1692.7,285.3l0,48.6h3v-48.6H1692.7z"/>
		</g>
	</g>
</g>
<g transform="matrix( 0.345550537109375, 0.2158966064453125, 0.2158966064453125, -0.345550537109375, -354.1,-150.05) ">
	<g>
		<g id="Layer5_428_FILL">
			<path fill="#010101" d="M1692,253.3v48.3h3v-48.3H1692z"/>
		</g>
	</g>
</g>
<g transform="matrix( 0.3597869873046875, 0.1912994384765625, 0.1912994384765625, -0.3597869873046875, -371.45,-118.95) ">
	<g>
		<g id="Layer5_429_FILL">
			<path fill="#010101" d="M1688.4,220.6l0,48.6h3v-48.6H1688.4z"/>
		</g>
	</g>
</g>
<g transform="matrix( 0.3917388916015625, 0.112335205078125, 0.112335205078125, -0.3917388916015625, -409.95,-20.45) ">
	<g>
		<g id="Layer5_430_FILL">
			<path fill="#010101" d="M1661.7,130.1v48.6h3l0-48.3h-3V130.1z"/>
		</g>
	</g>
</g>
<g transform="matrix( 0.3986358642578125, 0.0847320556640625, 0.0847320556640625, -0.3986358642578125, -418.05,13.7) ">
	<g>
		<g id="Layer5_431_FILL">
			<path fill="#010101" d="M1649,102.5v48.3h3v-48.3H1649z"/>
		</g>
	</g>
</g>
<g transform="matrix( 0.4035491943359375, 0.05670166015625, 0.05670166015625, -0.4035491943359375, -423.7,48.9) ">
	<g>
		<g id="Layer5_432_FILL">
			<path fill="#010101" d="M1634.5,73.3v48.3l3,0V73h-3V73.3z"/>
		</g>
	</g>
</g>
<g transform="matrix( -0.1273651123046875, 0.7223052978515625, 0.40130615234375, 0.0707550048828125, 241.1,-768.4) ">
	<g>
		<g id="Layer5_433_FILL">
			<path fill="#010101" d="M1335.3,664.1v46.5v2.1h3v-48.6H1335.3z"/>
		</g>
	</g>
</g>
<g transform="matrix( 1.05303955078125, 0, 0, 1.05303955078125, -558.15,-3) ">
	<g>
		<g id="Layer5_434_FILL">
			<path fill="#CB2026" d="M852.6,152.3l-15.7,8.9l0.9,1.8l16.3-9.5l-0.9-1.8L852.6,152.3z"/>
		</g>
	</g>
</g>
<g transform="matrix( 0.6891937255859375, 0.2508697509765625, 0.139373779296875, -0.3829345703125, -760.35,-200.25) ">
	<g>
		<g id="Layer5_435_FILL">
			<path fill="#010101" d="M1458.7,127v46.2v2.1h3V127H1458.7z"/>
		</g>
	</g>
</g>
<g transform="matrix( 1, 0, 0, 1, 0,0) ">
	<g>
		<g id="Layer5_436_FILL">
			<path fill="#16151A" d="M317.3,122.4l-7.4-5.9l-11.8,21L317.3,122.4z"/>
		</g>
	</g>
</g>
<g transform="matrix( 1, 0, 0, 1, 0,0) ">
	<g>
		<g id="Layer5_437_FILL">
			<path fill="#16151A" d="M361.4,205l-1.8-9.5l-22.8,8.9L361.4,205z"/>
		</g>
	</g>
</g>
<g transform="matrix( 1, 0, 0, 1, 0,0) ">
	<g>
		<g id="Layer5_438_FILL">
			<path fill="#16151A" d="M346.9,288.5l-22.8-7.7l18.4,16.3L346.9,288.5z"/>
		</g>
	</g>
</g>
<g transform="matrix( 0.37225341796875, 0.1657562255859375, 0.1657562255859375, -0.37225341796875, -386.6,-87) ">
	<g>
		<g id="Layer5_439_FILL">
			<path fill="#010101" d="M1681.6,189.6v48.6h3v-48.6H1681.6z"/>
		</g>
	</g>
</g>
<g transform="matrix( 0.178619384765625, 0.3662109375, 0.3662109375, -0.178619384765625, -149.3,-339.65) ">
	<g>
		<g id="Layer5_440_FILL">
			<path fill="#010101" d="M1646.5,498v48.6h3V498H1646.5z"/>
		</g>
	</g>
</g>
<g transform="matrix( 0.2931060791015625, 0.28302001953125, 0.28302001953125, -0.2931060791015625, -290.2,-234.35) ">
	<g>
		<g id="Layer5_441_FILL">
			<path fill="#010101" d="M1690.7,347.6v48.6h3v-48.6H1690.7z"/>
		</g>
	</g>
</g>
<g transform="matrix( -0.09857177734375, 0.39532470703125, 0.39532470703125, 0.09857177734375, 194.9,-380.3) ">
	<g>
		<g id="Layer5_442_FILL">
			<path fill="#010101" d="M1423.5,712.5l0,48.3h3v-48.3C1426.4,712.5,1423.5,712.5,1423.5,712.5z"/>
		</g>
	</g>
</g>
<g transform="matrix( 0.406524658203125, 0.0284271240234375, 0.0284271240234375, -0.406524658203125, -426.8,84) ">
	<g>
		<g id="Layer5_443_FILL">
			<path fill="#010101" d="M1618.4,46.8v48.3h3V46.8H1618.4z"/>
		</g>
	</g>
</g>
<g transform="matrix( 0.0425567626953125, 0.4051971435546875, 0.4051971435546875, -0.0425567626953125, 19.1,-390.4) ">
	<g>
		<g id="Layer5_444_FILL">
			<path fill="#010101" d="M1553.3,624.2v48.3h3l0-48.3H1553.3z"/>
		</g>
	</g>
</g>
<g transform="matrix( 0.01422119140625, 0.4072113037109375, 0.4072113037109375, -0.01422119140625, 54.35,-393.45) ">
	<g>
		<g id="Layer5_445_FILL">
			<path fill="#010101" d="M1529.4,645.4v48.6h3v-48.6H1529.4z"/>
		</g>
	</g>
</g>
<g transform="matrix( -0.01422119140625, 0.4072113037109375, 0.4072113037109375, 0.01422119140625, 89.75,-393.9) ">
	<g>
		<g id="Layer5_446_FILL">
			<path fill="#010101" d="M1504.5,665l0,48.6h3V665H1504.5z"/>
		</g>
	</g>
</g>
<g transform="matrix( -0.0425567626953125, 0.4051971435546875, 0.4051971435546875, 0.0425567626953125, 125,-391.95) ">
	<g>
		<g id="Layer5_447_FILL">
			<path fill="#010101" d="M1478,682.2v48.6h3l0-48.6H1478z"/>
		</g>
	</g>
</g>
<g transform="matrix( 1, 0, 0, 1, 0,0) ">
	<g>
		<g id="Layer5_448_FILL">
			<path fill="#010101" d="M125,209.7v1.8h2.4v15.4h3.3v-19.6h-2.1c-0.3,0.6-0.9,1.2-1.5,1.5C126.5,209.2,125.9,209.4,125,209.7
				 M142.5,212.1c0-1.5-0.3-2.7-1.2-3.9c-0.9-0.9-1.8-1.5-3.3-1.5c-1.5,0-2.7,0.6-3.3,1.5c-0.9,0.9-1.5,2.1-1.5,3.6v10.1
				c0,1.8,0.3,3.3,1.5,4.1c0.6,0.9,1.8,1.2,3.3,1.2c1.5,0,2.7-0.3,3.6-1.2c0.9-0.9,1.2-2.4,1.2-4.1v-9.8 M136.3,211.2
				c0-0.3,0-0.6,0.6-0.9c0.3-0.3,0.6-0.3,1.2-0.3c0.6,0,0.9,0,1.2,0.3c0.3,0.3,0.6,0.9,0.6,1.2v11.6c0,0.6-0.3,0.9-0.6,1.2
				c0,0.3-0.6,0.6-1.2,0.6s-0.9-0.3-1.2-0.6c-0.3-0.6-0.6-0.9-0.6-1.2V211.2 M152.9,208.3c-0.9-0.9-2.1-1.5-3.3-1.5
				c-1.5,0-2.7,0.6-3.6,1.5s-1.2,2.1-1.2,3.6v10.1c0,1.8,0.3,3.3,1.2,4.1c0.6,0.9,1.8,1.2,3.3,1.2c1.5,0,2.7-0.3,3.6-1.2
				c0.6-0.9,0.9-2.4,0.9-4.1v-9.8C153.8,210.3,153.5,209.2,152.9,208.3 M150.5,210c0.3,0.3,0.6,0.9,0.6,1.2v11.6
				c0,0.6,0,0.9-0.6,1.2c-0.6,0.3-0.6,0.6-1.2,0.6c-0.6,0-0.9-0.3-1.2-0.6c-0.3-0.6-0.6-0.9-0.6-1.2v-11.8c0-0.3,0.3-0.6,0.6-0.9
				c0.3-0.3,0.6-0.3,1.2-0.3C149.6,209.7,149.9,210,150.5,210z"/>
		</g>
	</g>
</g>
<g transform="matrix( 1, 0, 0, 1, 0,0) ">
	<g>
		<g id="Layer5_449_FILL">
			<path fill="#010101" d="M176,154.9c-1.5,0-2.7,0.3-3.6,1.2c-0.9,0.9-1.5,2.1-1.5,3.6v10.1c0,1.8,0.6,3.3,1.5,4.1
				c0.6,0.9,1.8,1.5,3.3,1.5c1.5,0,2.7-0.6,3.6-1.5c0.9-0.9,1.2-2.4,1.2-4.1V160c0-1.5-0.3-2.7-1.2-3.9
				C178.3,154.9,177.5,154.9,176,154.9 M174.8,158.2c0.3-0.3,0.6-0.6,1.2-0.6s0.9,0.3,1.2,0.6c0.3,0.3,0.3,0.6,0.3,1.2v11.3
				c0,0.6,0,0.9-0.3,1.2c0,0.3-0.6,0.6-1.2,0.6s-0.9-0.3-1.2-0.6c-0.3-0.3-0.6-0.9-0.6-1.2v-11.6
				C174.2,158.8,174.5,158.5,174.8,158.2 M156.7,164.4c0.6-1.8,0.9-3.3,0.9-4.7c0-1.5,0-2.7-0.9-3.3c-0.9-0.9-2.1-1.2-3.3-1.2
				c-1.5,0-2.4,0.6-3,1.5c-0.9,0.9-1.5,2.4-1.5,4.1v0.3h3v-0.9c0-0.9,0.3-1.5,0.6-1.8c0.3-0.6,0.6-0.6,0.9-0.9
				c0.6,0,0.9,0.3,1.2,0.9c0.3,0.3,0.3,0.9,0.3,1.5c0,1.2-0.6,3-1.5,5c-0.9,2.1-2.7,4.4-4.4,7.1v3h8.9v-3h-5.6
				C154.3,168.9,155.8,166.2,156.7,164.4 M168,156.4c-0.9-0.9-1.8-1.2-3-1.2c-1.5,0-2.7,0.3-3.6,1.2c-0.9,0.6-1.2,1.8-1.2,3.6V170
				c0,1.8,0.3,3.3,1.2,4.1c0.9,0.9,1.8,1.5,3.3,1.5c1.5,0,2.4-0.6,3.3-1.5c0.6-0.9,0.9-2.4,0.9-4.1V160
				C169.2,158.5,168.9,157.3,168,156.4 M162.9,159.1c0-0.3,0-0.6,0.6-0.9c0.3-0.3,0.6-0.6,1.2-0.6c0.3,0,0.6,0.3,1.2,0.6
				c0.3,0.3,0.3,0.6,0.3,1.2v11.3c0,0.6,0,0.9-0.3,1.2s-0.6,0.6-1.2,0.6s-0.9-0.3-1.2-0.6s-0.6-0.9-0.6-1.2V159.1z"/>
		</g>
	</g>
</g>
<g transform="matrix( 1, 0, 0, 1, 0,0) ">
	<g>
		<g id="Layer5_450_FILL">
			<path fill="#010101" d="M214.2,125.6c-1.5,0-2.4,0.6-3.3,1.2c-0.9,1.2-1.2,2.7-1.2,4.1v0.3h3v-0.3c0,0,0-0.3,0-0.6
				c0-0.9,0-1.5,0-1.8c0.3-0.3,0.6-0.3,1.2-0.3c0.6,0,0.9,0,0.9,0.6c0.3,0.6,0.3,1.2,0.3,2.1c0,1.2-0.3,2.1-0.6,2.4
				c-0.3,0.6-0.9,0.9-1.8,0.9h-0.3v3h0.3c1.2,0,1.8,0.3,2.1,0.9s0.6,1.5,0.6,3c0,0.9,0,1.5-0.6,2.4c-0.3,0.3-0.6,0.3-1.2,0.3
				c-0.3,0-0.6,0-0.9-0.3c-0.3-0.6-0.3-1.2-0.3-2.1v-0.9h-2.7v0.6c0,1.8,0.3,3,0.9,3.9c0.9,0.9,1.8,1.5,3.3,1.5
				c1.5,0,2.4-0.6,3.3-1.5c0.9-1.2,1.2-2.7,1.2-4.7c0-1.2-0.3-2.4-0.6-3s-0.9-1.2-1.5-1.5c0.6-0.3,0.9-0.9,1.2-1.5s0.6-1.5,0.6-2.7
				c0-1.8-0.3-3.3-0.9-4.4C216.3,126.2,215.4,125.6,214.2,125.6 M228.4,127.1c-0.9-0.9-2.1-1.2-3.6-1.2c-1.5,0-2.4,0.6-3.3,1.2
				c-0.9,0.9-1.2,2.1-1.2,3.6v10.1c0,1.8,0.3,3,1.2,3.9c0.6,0.9,1.8,1.5,3.3,1.5c1.5,0,2.7-0.6,3.6-1.5c0.6-0.9,0.9-2.4,0.9-3.9
				v-10.1C229.6,129.2,229.3,128,228.4,127.1 M223.7,128.9c0.3-0.3,0.9-0.3,1.2-0.3c0.6,0,0.9,0,1.2,0.3c0.3,0.3,0.6,0.6,0.6,1.2
				v11.3c0,0.6-0.3,1.2-0.6,1.5c-0.3,0.3-0.6,0.3-1.2,0.3c-0.3,0-0.9,0-1.2-0.3c-0.3-0.6-0.6-0.9-0.6-1.5v-11.6
				C223.4,129.5,223.4,129.2,223.7,128.9 M239.7,127.1c-0.9-0.9-1.8-1.2-3.3-1.2c-1.5,0-2.7,0.6-3.6,1.2c-0.9,0.9-1.2,2.1-1.2,3.6
				v10.1c0,1.8,0.3,3,1.2,3.9c0.9,0.9,2.1,1.5,3.6,1.5c1.5,0,2.7-0.6,3.6-1.5c0.9-0.9,1.2-2.4,1.2-3.9v-10.1
				C240.8,129.2,240.6,128,239.7,127.1 M236.4,128.6c0.3,0,0.9,0,0.9,0.3c0.3,0.3,0.6,0.6,0.6,1.2v11.3c0,0.6,0,1.2-0.6,1.5
				c-0.3,0.3-0.6,0.3-0.9,0.3c-0.6,0-0.9,0-1.2-0.3c-0.6-0.3-0.6-0.9-0.6-1.2v-11.6c0-0.6,0.3-0.9,0.6-0.9S235.8,128.6,236.4,128.6z
				"/>
		</g>
	</g>
</g>
<g transform="matrix( 1, 0, 0, 1, 0,0) ">
	<g>
		<g id="Layer5_451_FILL">
			<path fill="#010101" d="M274,152h-3l-5,12.4v2.4h5v5h3v-4.7h1.8v-2.4H274V152 M271.1,164.4h-2.4l2.4-7.1V164.4 M286.8,156.7
				c0-1.5-0.3-3-1.2-3.9c-0.9-0.9-1.8-1.2-3.3-1.2c-1.5,0-2.4,0.3-3.6,1.2c-0.9,0.9-1.2,2.1-1.2,3.9v10.4c0,1.8,0.3,3,1.2,3.9
				c0.9,0.9,1.8,1.2,3.3,1.2c1.5,0,2.7-0.6,3.6-1.2c0.9-0.9,1.2-2.4,1.2-3.9V156.7 M282,154.6c0.6,0,0.9,0,1.2,0.3
				c0.3,0.3,0.6,0.6,0.6,1.2v11.3c0,0.6-0.3,1.2-0.6,1.5c-0.3,0.3-0.6,0.6-1.2,0.6c-0.6,0-0.9,0-1.2-0.6c-0.3-0.3-0.6-0.9-0.6-1.5
				v-11.3c0-0.6,0.3-0.9,0.6-0.9C281.1,155.2,281.7,154.6,282,154.6 M290,152.9c-0.9,0.9-1.2,2.1-1.2,3.9v10.4c0,1.8,0.3,3,1.2,3.9
				c0.6,0.9,1.8,1.2,3.3,1.2c1.5,0,2.7-0.6,3.6-1.2c0.9-0.9,1.2-2.4,1.2-3.9V157c0-1.5-0.3-3-1.2-3.9c-0.9-0.9-1.8-1.2-3.3-1.2
				C292.1,151.7,290.9,152.3,290,152.9 M293.3,154.6c0.3,0,0.9,0,1.2,0.3c0.3,0.3,0.3,0.6,0.3,1.2v11.3c0,0.6,0,1.2-0.3,1.5
				c-0.3,0.3-0.6,0.6-1.2,0.6c-0.6,0-0.9,0-1.2-0.6c-0.3-0.3-0.6-0.9-0.6-1.5v-11.3c0-0.6,0.3-0.9,0.6-0.9
				C292.4,154.9,293,154.6,293.3,154.6z"/>
		</g>
	</g>
</g>
<g transform="matrix( 1, 0, 0, 1, 0,0) ">
	<g>
		<g id="Layer5_452_FILL">
			<path fill="#010101" d="M300.4,206.2l-0.3-2.7h-7.4l-0.3,10.1l2.4,0.3c0-0.6,0.3-0.9,0.9-1.2c0.3-0.3,0.6-0.3,0.9-0.3
				c0.3,0,0.6,0,0.9,0.3c0.3,0.3,0.6,0.6,0.6,1.2v5c0,0.6-0.3,1.2-0.6,1.5c-0.3,0.3-0.6,0.6-0.9,0.6c-0.6,0-1.2-0.3-1.5-0.6
				c-0.3-0.6-0.3-1.2-0.3-1.8v-0.9h-2.7v0.9c0,1.8,0.3,3,0.9,3.9c0.9,0.9,1.8,1.2,3,1.2c1.5,0,2.4-0.3,3.3-1.2
				c0.9-0.9,1.2-2.1,1.2-3.6v-5c0-1.2-0.3-2.1-0.9-2.7c-0.6-0.9-1.2-1.2-2.4-1.2c-0.3,0-0.9,0-1.2,0.3c-0.3,0.3-0.9,0.6-1.2,0.9
				v-4.7h5.6 M304.2,204.4c-0.9,0.9-1.5,2.1-1.5,3.6V218c0,1.8,0.6,3.3,1.5,4.1c0.6,0.9,1.8,1.2,3.3,1.2s2.4-0.6,3.6-1.2
				c0.6-0.9,0.9-2.4,0.9-4.1V208c0-1.5-0.3-2.7-0.9-3.9c-0.9-0.9-2.1-1.5-3.3-1.5C306,202.9,304.8,203.5,304.2,204.4 M305.7,218.9
				v-11.6c0-0.3,0.3-0.9,0.6-1.2s0.6-0.3,1.2-0.3c0.3,0,0.9,0,0.9,0.3c0.3,0.3,0.6,0.6,0.6,1.2v11.3c0,0.6,0,1.2-0.6,1.5
				c-0.3,0.3-0.6,0.6-0.9,0.6s-0.9-0.3-1.2-0.6C305.7,219.8,305.7,219.2,305.7,218.9 M323.2,218V208c0-1.5-0.3-2.7-0.9-3.9
				c-0.9-0.9-2.1-1.5-3.6-1.5s-2.4,0.6-3.6,1.5c-0.9,0.9-1.2,2.1-1.2,3.6v10.1c0,1.8,0.3,3.3,1.2,4.1c0.9,0.9,2.1,1.2,3.6,1.2
				s2.7-0.6,3.6-1.2C322.9,221.3,323.2,219.8,323.2,218 M318.8,205.9c0.3,0,0.9,0,0.9,0.3c0.3,0.3,0.6,0.6,0.6,1.2v11.3
				c0,0.6-0.3,1.2-0.6,1.5c-0.3,0.3-0.6,0.6-0.9,0.6c-0.6,0-0.9-0.3-1.2-0.6c-0.3-0.6-0.6-0.9-0.6-1.5v-11.3c0-0.3,0-0.9,0.6-1.2
				C317.9,206.2,318.2,205.9,318.8,205.9z"/>
		</g>
	</g>
</g>
<g transform="matrix( 1, 0, 0, 1, 0,0) ">
	<g>
		<g id="Layer5_453_FILL">
			<path fill="#010101" d="M308.4,275.8V266c0-1.5-0.3-3-0.9-3.9c-0.9-0.9-1.8-1.2-3.3-1.2c-1.5,0-2.7,0.3-3.6,1.2s-1.2,2.1-1.2,3.6
				v10.1c0,1.8,0.6,3.3,1.2,4.1c0.6,0.9,1.8,1.2,3.3,1.2s2.7-0.6,3.6-1.2C308.1,279.1,308.4,277.6,308.4,275.8 M305.1,264
				c0.3,0.3,0.6,0.9,0.6,1.2v11.6c0,0.6-0.3,1.2-0.6,1.2c-0.3,0.6-0.6,0.6-1.2,0.6c-0.6,0-0.9-0.3-1.2-0.6c-0.3-0.3-0.6-0.9-0.6-1.2
				v-11.6c0-0.3,0.3-0.6,0.6-0.9s0.6-0.3,1.2-0.3C304.5,263.7,304.8,263.7,305.1,264 M286.2,265.7c0-1.5-0.3-3-1.2-3.9
				c-0.9-0.9-2.1-1.2-3.6-1.2s-2.4,0.3-3.3,1.2c-0.9,0.9-1.5,2.1-1.5,3.6v10.1c0,1.8,0.3,3.3,1.2,4.1c0.9,0.9,2.1,1.2,3.6,1.2
				s2.7-0.6,3.6-1.2c0.9-0.9,1.2-2.4,1.2-4.1v-3c0-1.2-0.3-2.4-1.2-3c-0.6-0.6-1.2-0.9-2.4-0.9c-0.6,0-1.2,0-1.5,0.3
				c-0.3,0.3-0.9,0.6-1.2,0.9v-5c0-0.3,0-0.6,0.6-0.9c0.3-0.3,0.6-0.3,0.9-0.3c0.3,0,0.9,0,1.2,0.3c0.3,0.3,0.3,0.9,0.3,1.2v1.5h3.3
				L286.2,265.7 M280,272.5c0.3-0.6,0.6-0.9,0.9-1.2c0.3-0.3,0.6-0.3,0.9-0.3c0.3,0,0.9,0.3,1.2,0.6c0,0.3,0.3,0.6,0.3,1.2v3.9
				c0,0.6,0,1.2-0.3,1.2c-0.6,0.6-0.9,0.6-1.5,0.6c-0.3,0-0.9-0.3-0.9-0.6c-0.3-0.3-0.6-0.9-0.6-1.2V272.5 M289.1,262.2
				c-0.9,0.9-1.2,2.1-1.2,3.6v10.1c0,1.8,0.3,3.3,1.2,4.1c0.9,0.9,2.1,1.2,3.6,1.2s2.7-0.6,3.6-1.2c0.6-0.9,0.9-2.4,0.9-4.1V266
				c0-1.5-0.3-3-0.9-3.9c-0.9-0.9-1.8-1.2-3.3-1.2C291.2,261,290,261.3,289.1,262.2 M290.9,276.7v-11.6c0-0.3,0.3-0.6,0.6-0.9
				s0.6-0.3,1.2-0.3c0.3,0,0.9,0,0.9,0.3c0.3,0.3,0.6,0.9,0.6,1.2V277c0,0.6,0,1.2-0.6,1.2c0,0.3-0.6,0.3-0.9,0.3
				c-0.6,0-0.9-0.3-1.2-0.6C290.9,277.6,290.9,277,290.9,276.7z"/>
		</g>
	</g>
</g>
<text transform="matrix(1 0 0 1 152.6944 39.9934)" font-family="'MSReferenceSansSerif'" font-size="24">VOLTMETER</text>
</svg>
