<?xml version="1.0" encoding="utf-8"?>
<!-- Generator: Adobe Illustrator 18.0.0, SVG Export Plug-In . SVG Version: 6.00 Build 0)  -->
<!DOCTYPE svg PUBLIC "-//W3C//DTD SVG 1.1//EN" "http://www.w3.org/Graphics/SVG/1.1/DTD/svg11.dtd">
<svg version="1.1" id="Layer_1" xmlns="http://www.w3.org/2000/svg" xmlns:xlink="http://www.w3.org/1999/xlink" x="0px" y="0px"
	 viewBox="0 0 450 450" enable-background="new 0 0 450 450" xml:space="preserve">
<g transform="matrix( 1.0240478515625, 0, 0, 1.0240478515625, 130.6,-6.2) ">
	<g>
		<g id="Layer5_749_FILL">
			<path fill="#383E45" d="M246.4,443.4V8H-61.9v435.5H246.4z"/>
		</g>
	</g>
</g>
<g transform="matrix( 1, 0, 0, 1, 0,0) ">
	<g>
		<g id="Layer5_750_FILL">
			<path fill="#676767" d="M87.3,8.3c-2.8-0.6-5.4-0.4-7.9,1c-2.6,1.6-4.2,3.6-4.8,6.5c-0.8,2.8-0.4,5.4,1,7.9
				c1.4,2.4,3.6,4,6.5,4.8c2.8,0.8,5.4,0.4,7.7-1c2.4-1.4,4-3.6,4.8-6.3c0.8-2.8,0.4-5.4-1-7.9C92.1,10.7,90.1,9.1,87.3,8.3
				 M86.5,11.1c2,0.6,3.6,1.6,4.6,3.4c1.2,1.8,1.4,3.8,1,5.6c-0.6,2-1.8,3.6-3.8,4.6c-1.8,1-3.6,1.4-5.6,0.8s-3.4-1.6-4.4-3.4
				c-1.2-1.8-1.4-3.8-0.8-6c0.4-1.8,1.6-3.2,3.6-4.2C82.7,10.9,84.5,10.7,86.5,11.1 M86.3,15.1c0-0.2,0-0.4,0-0.6
				c-0.2-0.2-0.4-0.2-0.6-0.2l0,0c-0.2,0-0.2,0-0.6,0c-0.2,0-0.4,0.2-0.6,0.4l-1.6,6.7c0,0.2,0,0.4,0.2,0.6s0.4,0.4,0.4,0.4l0,0
				c0.2,0,0.4,0,0.6-0.2c0.2-0.2,0.2-0.2,0.4-0.6L86.3,15.1z"/>
			
				<radialGradient id="SVGID_1_" cx="-679.7876" cy="121.5913" r="3.7144" gradientTransform="matrix(1.9472 0.5224 -0.5224 1.9472 1471.8438 136.5331)" gradientUnits="userSpaceOnUse">
				<stop  offset="0" style="stop-color:#E7E7E7"/>
				<stop  offset="1" style="stop-color:#AEAEAE"/>
			</radialGradient>
			<path fill="url(#SVGID_1_)" d="M90.9,14.5c-1-1.6-2.6-2.8-4.6-3.4c-2-0.6-3.8-0.2-5.6,0.8c-1.6,1-2.8,2.4-3.2,4.2
				c-0.6,2-0.2,4,0.8,5.8c1,1.8,2.4,2.8,4.4,3.4s3.8,0.2,5.6-0.8c2-1,3.2-2.6,3.8-4.6C92.5,18.3,92.1,16.3,90.9,14.5 M86.3,14.7
				c0,0,0,0.2,0,0.6L84.7,22c0,0.2-0.2,0.4-0.4,0.6c-0.2,0.2-0.4,0.2-0.6,0.2l0,0c-0.2,0-0.2-0.2-0.4-0.4c-0.2-0.2-0.2-0.4-0.2-0.6
				l1.6-6.7c0-0.2,0.2-0.4,0.6-0.4c0.2,0,0.4,0,0.6,0l0,0C85.9,14.5,86.1,14.5,86.3,14.7z"/>
		</g>
	</g>
</g>
<g transform="matrix( 1, 0, 0, 1, 0,0) ">
	<g>
		<g id="Layer5_751_FILL">
			<path fill="#676767" d="M356.2,15.7c-0.8,2.8-0.4,5.4,1,7.9s3.6,4,6.5,4.8c2.6,0.8,5.2,0.4,7.7-1s4-3.4,4.8-6.3
				c0.8-2.8,0.4-5.4-1-7.9s-3.6-4-6.5-4.8c-2.8-0.6-5.4-0.2-7.9,1.2C358.7,10.9,356.9,12.9,356.2,15.7 M359.7,22
				c-1-1.8-1.2-3.6-0.8-5.6c0.6-2,1.8-3.6,3.8-4.8c1.6-1,3.4-1.2,5.4-0.6c2,0.4,3.4,1.6,4.4,3.4c1,1.8,1.4,3.6,1,5.6
				c-0.6,2.2-1.6,3.8-3.2,4.8c-1.8,1-3.8,1.2-5.8,0.6C362.5,25,360.9,23.8,359.7,22 M369.6,15.9c-0.2-0.2-0.4-0.2-0.6-0.2l-5.8,3.4
				c-0.2,0.2-0.2,0.4-0.2,0.6c0,0.2,0,0.4,0,0.6v0.2c0.2,0.2,0.4,0.2,0.6,0.2s0.2,0,0.6,0l5.8-3.4c0.2-0.2,0.4-0.4,0.4-0.4
				c0-0.2-0.2-0.4-0.2-0.6v-0.2C369.8,16.1,369.6,16.1,369.6,15.9z"/>
			
				<radialGradient id="SVGID_2_" cx="-517.6071" cy="496.4561" r="3.7134" gradientTransform="matrix(1.0113 1.7442 -1.7442 1.0113 1755.7887 418.8663)" gradientUnits="userSpaceOnUse">
				<stop  offset="0" style="stop-color:#E7E7E7"/>
				<stop  offset="1" style="stop-color:#AEAEAE"/>
			</radialGradient>
			<path fill="url(#SVGID_2_)" d="M359.1,16.5c-0.4,2-0.2,3.8,0.8,5.6c1.2,1.8,2.6,2.8,4.6,3.4c2,0.6,4,0.4,5.8-0.6
				c1.6-1,2.8-2.6,3.2-4.8c0.4-2,0.2-3.8-1-5.6c-1-1.8-2.4-3-4.4-3.4c-2-0.6-3.8-0.6-5.4,0.6C360.9,12.9,359.7,14.5,359.1,16.5
				 M368.8,15.7c0.2-0.2,0.6-0.2,0.6,0.2c0.2,0.2,0.4,0.2,0.6,0.2v0.2c0,0.2,0.2,0.4,0.2,0.6c0,0-0.2,0.2-0.4,0.4l-5.8,3.4
				c-0.2,0-0.4,0-0.6,0s-0.4,0-0.6-0.2v-0.2c0-0.2,0-0.4,0-0.6c0-0.2,0-0.4,0.2-0.6L368.8,15.7z"/>
		</g>
	</g>
</g>
<g transform="matrix( 1, 0, 0, 1, 0,0) ">
	<g>
		<g id="Layer5_752_FILL">
			<path fill="#676767" d="M79.4,422c-2.4,1.4-4,3.6-4.8,6.3c-0.8,2.8-0.4,5.4,1,7.9c1.4,2.4,3.6,4,6.5,4.8c2.8,0.8,5.4,0.4,7.7-1
				c2.4-1.4,4-3.6,4.8-6.3c0.8-2.8,0.4-5.4-1-7.9c-1.4-2.4-3.4-4-6.3-4.8C84.5,420.2,81.9,420.6,79.4,422 M77.4,428.8
				c0.4-1.8,1.6-3.2,3.6-4.2c1.8-1,3.6-1.2,5.6-0.8c2,0.6,3.6,1.6,4.6,3.2c1.2,1.8,1.4,3.8,1,5.6c-0.6,2-1.8,3.6-3.8,4.6
				c-1.8,1-3.6,1.4-5.6,0.8c-2-0.6-3.4-1.6-4.4-3.4C77,432.9,76.8,430.8,77.4,428.8 M85.7,427c-0.2,0-0.2,0-0.6,0
				c-0.2,0-0.4,0.2-0.6,0.4l-1.6,6.7c0,0.2,0,0.4,0.2,0.6s0.2,0.4,0.4,0.4l0,0c0.2,0,0.4,0,0.6,0c0.2-0.2,0.2-0.4,0.4-0.6l1.6-6.7
				c0-0.2,0-0.4,0-0.6C86.1,427.2,85.9,427,85.7,427L85.7,427z"/>
			
				<radialGradient id="SVGID_3_" cx="-679.7876" cy="121.5913" r="3.7144" gradientTransform="matrix(1.9472 0.5224 -0.5224 1.9472 1471.8438 549.1337)" gradientUnits="userSpaceOnUse">
				<stop  offset="0" style="stop-color:#E7E7E7"/>
				<stop  offset="1" style="stop-color:#AEAEAE"/>
			</radialGradient>
			<path fill="url(#SVGID_3_)" d="M80.8,424.4c-1.8,1-3,2.4-3.6,4.2c-0.6,2-0.2,4,0.8,5.8s2.4,2.8,4.4,3.4c2,0.6,3.8,0.2,5.6-0.8
				c2-1,3.2-2.6,3.8-4.6c0.4-1.8,0.2-3.8-1-5.6c-1-1.6-2.6-2.8-4.6-3.2C84.5,423.2,82.7,423.4,80.8,424.4 M85.1,427
				c0.2,0,0.4,0,0.6,0l0,0c0.2,0,0.4,0.2,0.6,0.2c0,0,0,0.2,0,0.6l-1.6,6.7c0,0.2-0.2,0.4-0.4,0.6c-0.2,0.2-0.4,0.2-0.6,0l0,0
				c-0.2,0-0.2-0.2-0.4-0.4c-0.2-0.2-0.2-0.4-0.2-0.6l1.6-6.7C84.7,427.2,84.9,427,85.1,427z"/>
		</g>
	</g>
</g>
<g transform="matrix( 1, 0, 0, 1, 0,0) ">
	<g>
		<g id="Layer5_753_FILL">
			<path fill="#676767" d="M376.2,433.7c0.8-2.8,0.4-5.4-1-7.9c-1.4-2.4-3.6-4-6.5-5c-2.8-0.6-5.4-0.2-7.9,1.2
				c-2.6,1.4-4.2,3.4-5,6.3c-0.8,2.8-0.4,5.4,1,7.9s3.6,4,6.5,4.8c2.6,0.8,5.2,0.4,7.7-1C374,438.5,375.6,436.5,376.2,433.7
				 M362.7,424.2c1.6-1,3.4-1.2,5.4-0.6c2,0.4,3.4,1.6,4.4,3.4c1,1.8,1.4,3.6,1,5.6c-0.6,2.2-1.6,3.8-3.2,4.8
				c-1.8,1-3.8,1.2-5.8,0.6c-2-0.6-3.4-1.6-4.6-3.4c-1-1.8-1.2-3.6-0.8-5.6C359.7,427,360.9,425.4,362.7,424.2 M363.3,433.3
				c0.2,0,0.2,0,0.6,0l5.8-3.4c0.2-0.2,0.4-0.4,0.4-0.4c0-0.2-0.2-0.4-0.2-0.6l0,0c-0.2,0-0.2-0.2-0.4-0.2c-0.2-0.2-0.4-0.2-0.6-0.2
				l-5.8,3.4c-0.2,0.2-0.2,0.4-0.2,0.6c0,0.2,0,0.4,0,0.6v0.2C362.9,433.3,363.1,433.3,363.3,433.3z"/>
			
				<radialGradient id="SVGID_4_" cx="-517.6071" cy="496.4561" r="3.7134" gradientTransform="matrix(1.0113 1.7442 -1.7442 1.0113 1755.7887 831.4671)" gradientUnits="userSpaceOnUse">
				<stop  offset="0" style="stop-color:#E7E7E7"/>
				<stop  offset="1" style="stop-color:#AEAEAE"/>
			</radialGradient>
			<path fill="url(#SVGID_4_)" d="M368.1,423.8c-2-0.6-3.8-0.6-5.4,0.6c-1.8,1.2-3.2,2.8-3.8,4.8c-0.4,2-0.2,3.8,0.8,5.6
				c1.2,1.8,2.6,2.8,4.6,3.4c2,0.6,4,0.4,5.8-0.6c1.6-1,2.8-2.6,3.2-4.8c0.4-2,0.2-3.8-1-5.6C371.8,425.4,370.2,424.2,368.1,423.8
				 M363.9,433.3c-0.2,0-0.4,0-0.6,0s-0.4,0-0.6-0.2v-0.2c0-0.2,0-0.2,0-0.6c0-0.2,0-0.4,0.2-0.6l5.8-3.4c0.2-0.2,0.6,0,0.6,0.2
				c0.2,0.2,0.2,0.2,0.4,0.2l0,0c0,0.2,0.2,0.4,0.2,0.6c0,0-0.2,0.2-0.4,0.4L363.9,433.3z"/>
		</g>
	</g>
</g>
<g transform="matrix( 1, 0, 0, 1, 0,0) ">
	<g>
		<g id="Layer5_754_FILL">
			<path fill="#FFFFFF" d="M189.5,245.4c1.6-3,3.8-5.8,6.5-8.3c7.5-7.5,16.7-11.3,27.2-11.3c9.3,0,17.3,2.8,24.2,8.5l-1.4,1.4
				l13.1,7.5l-7.5-13.1l-1.6,1.8c-7.7-6.3-16.5-9.5-26.8-9.5c-11.7,0-21.6,4-29.8,12.3c-2.8,2.8-5.2,5.8-7.1,9.1L189.5,245.4z"/>
		</g>
	</g>
</g>
<g transform="matrix( 1, 0, 0, 1, 0,0) ">
	<g>
		<g id="Layer5_755_FILL">
			
				<linearGradient id="SVGID_5_" gradientUnits="userSpaceOnUse" x1="45" y1="372.8132" x2="45" y2="412.8132" gradientTransform="matrix(2.0161 0 0 2.0161 65.121 -454.2869)">
				<stop  offset="0" style="stop-color:#787878"/>
				<stop  offset="1" style="stop-color:#3D3D3D"/>
			</linearGradient>
			<path fill="url(#SVGID_5_)" d="M147.2,302.6c-0.2,0.4-0.4,0.8-0.6,1.2l-11.3,21.4l0,0c-0.4,0.8-0.8,1.6-1.2,2.4v0.2
				c-1.4,3-2,6.3-2,9.7c0,3.4,0.6,6.5,1.8,9.5c0.2,0.4,0.4,1,0.6,1.6v0.2c0,0.2,0.2,0.4,0.2,0.6l11.9,22.4l0,0c0.6,1.2,1.2,2.2,2,3
				c2,2,4.2,3,7.1,3s5.2-1,7.1-3c0.6-0.6,1.2-1.4,1.8-2.2l0.2-0.2l11.7-22.2c0.4-0.8,0.8-1.6,1.2-2.2v-0.2l0,0c1.2-3,2-6.3,2-9.9
				c0-4.2-1-8.3-2.8-11.7v0.2l-11.7-22l0,0c-0.6-1.2-1.2-2.4-2.2-3.4c-2-2-4.4-3-7.1-3c-2.8,0-5,1-7.1,3
				C148,301.2,147.6,301.8,147.2,302.6L147.2,302.6 M148.8,303.4c0.4-0.6,0.8-1.2,1.2-1.6c1.6-1.6,3.4-2.4,5.6-2.4s4.2,0.8,5.6,2.4
				c0.8,0.8,1.4,1.6,2,2.8l0,0l11.7,22h0.2c1.8,3.2,2.6,6.9,2.6,10.9c0,3.2-0.6,6.3-1.6,8.9c-0.2,0.2-0.2,0.2-0.4,0.4
				c-0.4,0.8-0.8,1.4-1,2.2l-11.7,22.4l0,0l-0.2,0.2c-0.4,0.6-0.8,1.2-1.4,1.8c-1.6,1.6-3.4,2.2-5.6,2.2s-4-0.8-5.6-2.2
				c-0.8-0.8-1.4-1.6-1.8-2.6l-11.7-22.4c-0.2-0.2-0.2-0.6-0.4-0.8c-0.2-0.6-0.6-1-0.6-1.4c-1-2.6-1.6-5.4-1.6-8.7
				c0-3.2,0.6-6,1.6-8.7c0.2-0.2,0.2-0.4,0.2-0.6c0.4-0.8,0.8-1.4,1.2-2l0,0l11.3-21.6C148.4,304.2,148.6,303.8,148.8,303.4z"/>
			<path fill="#1C1B1A" d="M150,302c-0.4,0.4-0.8,0.8-1.2,1.6c-0.2,0.4-0.4,0.8-0.6,1.2l-11.3,21.6l0,0c-0.4,0.6-0.8,1.2-1.2,2
				c0,0.2,0,0.4-0.2,0.6c-1.2,2.6-1.6,5.4-1.6,8.7c0,3.2,0.6,6,1.6,8.7c0.2,0.4,0.4,0.8,0.6,1.4c0.2,0.2,0.2,0.4,0.4,0.8l11.7,22.4
				c0.4,0.8,1,1.6,1.8,2.6c1.6,1.6,3.4,2.2,5.6,2.2s4.2-0.8,5.6-2.2c0.6-0.6,1-1.2,1.4-1.8l0.2-0.2l0,0l11.7-22.4
				c0.4-0.8,0.8-1.4,1-2.2c0-0.2,0.2-0.2,0.4-0.4c1-2.6,1.6-5.6,1.6-8.9c0-3.8-0.8-7.5-2.6-10.9h-0.2l-11.7-22l0,0
				c-0.4-1.2-1-2-2-2.8c-1.6-1.6-3.4-2.4-5.6-2.4C153.4,299.6,151.6,300.4,150,302z"/>
		</g>
	</g>
</g>
<g transform="matrix( 1, 0, 0, 1, 0,0) ">
	<g>
		<g id="Layer5_756_FILL">
			<path fill="#676767" d="M151.8,301.2c-1.8,1-3,2.6-3.4,4.8c-0.6,2-0.4,3.8,0.6,5.6c1,1.8,2.6,3,4.6,3.6c2,0.6,3.8,0.2,5.6-0.8
				c1.8-1,3-2.6,3.6-4.6c0.6-2,0.2-3.8-0.8-5.6c-1-1.8-2.6-3-4.6-3.6C155.6,300,153.6,300.2,151.8,301.2 M150.4,306
				c0.2-1.2,1-2.2,2.6-3c1.4-0.8,2.6-1,4-0.6c1.4,0.4,2.4,1.2,3.2,2.6c0.8,1.4,1.2,2.8,0.8,4c-0.4,1.4-1.2,2.6-2.8,3.2
				c-1.2,0.8-2.6,1-4,0.6c-1.4-0.4-2.6-1.2-3.2-2.4C150.2,309.3,150,307.7,150.4,306 M153.6,306.7c-0.2,0-0.2,0-0.4,0.2
				s-0.2,0.2-0.2,0.2c0,0.2,0,0.4,0,0.6h0.2l1.8,0.6l-0.6,1.6c0,0.2,0,0.2,0.2,0.4c0,0.2,0.2,0.2,0.4,0.2s0.2,0,0.4,0
				s0.2-0.2,0.2-0.2l0.4-1.6l1.6,0.4c0.2,0,0.4,0,0.4,0c0.2,0,0.2-0.2,0.2-0.2l0,0c0-0.2,0-0.2,0-0.4c0-0.2,0-0.4-0.2-0.4l-1.6-0.4
				l0.4-1.8c0-0.2,0-0.2,0-0.2c-0.2,0-0.2-0.2-0.4-0.2s-0.2,0-0.4,0s-0.4,0.2-0.4,0.2l-0.4,1.8L153.6,306.7z"/>
			
				<radialGradient id="SVGID_6_" cx="-679.7946" cy="121.1666" r="3.3383" gradientTransform="matrix(1.9476 0.521 -0.521 1.9476 1542.9595 425.8842)" gradientUnits="userSpaceOnUse">
				<stop  offset="0" style="stop-color:#E7E7E7"/>
				<stop  offset="1" style="stop-color:#AEAEAE"/>
			</radialGradient>
			<path fill="url(#SVGID_6_)" d="M153,303c-1.4,0.8-2.2,1.8-2.6,3c-0.4,1.6-0.2,3.2,0.6,4.6c0.8,1.2,1.8,2,3.2,2.4
				c1.4,0.4,2.8,0.2,4-0.6c1.4-0.8,2.4-1.8,2.8-3.2c0.4-1.4,0.2-2.8-0.8-4c-0.8-1.2-1.8-2-3.2-2.6C155.6,302.2,154.2,302.4,153,303
				 M153.2,306.9c0.2-0.2,0.2-0.2,0.4-0.2l1.6,0.4l0.4-1.8c0-0.2,0.2-0.2,0.4-0.2c0.2,0,0.2,0,0.4,0c0.2,0,0.2,0.2,0.4,0.2v0.2
				l-0.4,1.8l1.6,0.4c0.2,0,0.2,0.2,0.2,0.4c0,0,0,0.2,0,0.4l0,0c0,0.2-0.2,0.2-0.2,0.2s-0.2,0-0.4,0l-1.6-0.4l-0.4,1.6
				c0,0.2,0,0.2-0.2,0.2s-0.2,0-0.4,0s-0.2,0-0.4-0.2s-0.2-0.2-0.2-0.4l0.6-1.6l-1.8-0.6c-0.2,0-0.2,0-0.2,0c0-0.2,0-0.2,0-0.6
				C153,307.1,153.2,307.1,153.2,306.9z"/>
		</g>
	</g>
</g>
<g transform="matrix( 1, 0, 0, 1, 0,0) ">
	<g>
		<g id="Layer5_757_FILL">
			<path fill="#676767" d="M148.4,365.5c-0.6,2-0.4,3.8,0.6,5.6c1,1.8,2.6,3,4.6,3.6c2,0.6,3.8,0.2,5.6-0.8c1.8-1,3-2.6,3.6-4.6
				c0.6-2,0.2-3.8-0.8-5.8c-1-1.8-2.6-3-4.6-3.6s-4-0.2-5.8,0.8C150,361.9,149,363.5,148.4,365.5 M150.4,365.7c0.2-1.2,1-2.2,2.6-3
				c1.4-0.8,2.6-1,4-0.6c1.4,0.4,2.4,1.2,3.2,2.6c0.8,1.4,1.2,2.8,0.8,4c-0.4,1.4-1.2,2.6-2.8,3.4c-1.2,0.8-2.6,1-4,0.6
				c-1.4-0.4-2.6-1.2-3.2-2.4C150.2,368.8,150,367.3,150.4,365.7 M153.6,366.3c-0.2,0-0.2,0-0.4,0c-0.2,0.2-0.2,0.2-0.2,0.2
				c0,0.2,0,0.4,0,0.6l0.2,0.2l1.8,0.6l-0.6,1.6c0,0.2,0,0.2,0.2,0.4c0,0.2,0.2,0.2,0.4,0.2s0.2,0,0.4,0s0.2-0.2,0.2-0.4l0.4-1.6
				l1.6,0.4c0.2,0,0.4,0,0.4,0c0.2,0,0.2-0.2,0.2-0.4l0,0c0-0.2,0-0.2,0-0.2c0-0.2,0-0.4-0.2-0.4l-1.6-0.4l0.4-1.8
				c0-0.2,0-0.2,0-0.2c-0.2,0-0.2-0.2-0.4-0.2s-0.2,0-0.4,0s-0.4,0.2-0.4,0.4l-0.4,1.6L153.6,366.3z"/>
			
				<radialGradient id="SVGID_7_" cx="-679.7946" cy="121.1666" r="3.3383" gradientTransform="matrix(1.9476 0.521 -0.521 1.9476 1542.9595 485.4608)" gradientUnits="userSpaceOnUse">
				<stop  offset="0" style="stop-color:#E7E7E7"/>
				<stop  offset="1" style="stop-color:#AEAEAE"/>
			</radialGradient>
			<path fill="url(#SVGID_7_)" d="M153,362.7c-1.4,0.8-2.2,1.8-2.6,3c-0.4,1.6-0.2,3.2,0.6,4.6c0.8,1.2,1.8,2,3.2,2.4
				c1.4,0.4,2.8,0.2,4-0.6c1.4-0.8,2.4-1.8,2.8-3.4c0.4-1.4,0.2-2.8-0.8-4c-0.8-1.2-1.8-2-3.2-2.6
				C155.6,361.7,154.2,361.9,153,362.7 M153.2,366.3c0.2-0.2,0.2-0.2,0.4,0l1.6,0.4l0.6-1.8c0-0.2,0.2-0.4,0.4-0.4s0.2,0,0.4,0
				s0.2,0.2,0.4,0.2v0.2l-0.4,1.8l1.6,0.4c0.2,0,0.2,0.2,0.2,0.4v0.2l0,0c0,0.2-0.2,0.2-0.2,0.4c0,0-0.2,0-0.4,0l-1.6-0.4l-0.4,1.6
				c0,0.2,0,0.2-0.2,0.4c-0.2,0-0.2,0-0.4,0s-0.2,0-0.4-0.2s-0.2-0.2-0.2-0.4l0.6-1.6l-1.8-0.6c-0.2,0-0.2,0-0.2-0.2s0-0.2,0-0.6
				C153,366.7,153.2,366.5,153.2,366.3z"/>
		</g>
	</g>
</g>
<g transform="matrix( 1, 0, 0, 1, 0,0) ">
	<g>
		<g id="Layer5_758_FILL">
			
				<linearGradient id="SVGID_8_" gradientUnits="userSpaceOnUse" x1="113.75" y1="372.8132" x2="113.75" y2="412.8132" gradientTransform="matrix(2.0161 0 0 2.0161 65.121 -454.2869)">
				<stop  offset="0" style="stop-color:#787878"/>
				<stop  offset="1" style="stop-color:#3D3D3D"/>
			</linearGradient>
			<path fill="url(#SVGID_8_)" d="M294.4,297.6c-2.8,0-5,1-7.1,3c-0.6,0.6-1,1.2-1.4,2l0,0c-0.2,0.4-0.4,0.8-0.6,1.2L274,325.2h-0.2
				c-0.4,0.8-0.8,1.6-1.2,2.4v0.2c-1.4,3-2,6.3-2,9.7c0,3.4,0.6,6.5,2,9.5c0.2,0.4,0.4,1,0.6,1.6v0.2c0,0.2,0.2,0.4,0.4,0.6
				l11.7,22.4l0,0c0.6,1.2,1.2,2.2,2,3c2,2,4.2,3,7.1,3c2.8,0,5.2-1,7.1-3c0.6-0.6,1.2-1.4,1.8-2.2l0.2-0.2l11.9-22.2
				c0.4-0.8,0.6-1.6,1-2.2v-0.2l0,0c1.2-3,2-6.3,2-9.9c0-4.2-1-8.3-2.8-11.7v0.2l-11.7-22l0,0c-0.6-1.2-1.2-2.4-2.2-3.4
				C299.6,298.6,297.2,297.6,294.4,297.6 M287.5,303.4c0.4-0.6,0.8-1.2,1.2-1.6c1.6-1.6,3.4-2.4,5.6-2.4s4.2,0.8,5.8,2.4
				c0.8,0.8,1.4,1.6,1.8,2.8l0,0l11.7,22l0,0c1.8,3.2,2.6,6.9,2.6,10.9c0,3.2-0.6,6.3-1.6,8.9c-0.2,0.2-0.2,0.2-0.4,0.4
				c-0.4,0.8-0.6,1.4-1,2.2l-11.7,22.4l0,0l-0.2,0.2c-0.4,0.6-0.8,1.2-1.4,1.8c-1.6,1.6-3.4,2.2-5.8,2.2c-2.2,0-4-0.8-5.6-2.2
				c-0.8-0.8-1.4-1.6-1.8-2.6L275,348.4c-0.2-0.2-0.2-0.6-0.4-0.8c-0.2-0.6-0.4-1-0.6-1.4c-1-2.6-1.6-5.4-1.6-8.7
				c0-3.2,0.6-6,1.6-8.7c0.2-0.2,0.2-0.4,0.2-0.6c0.4-0.8,0.8-1.4,1.2-2l0,0l11.3-21.6C287.1,304.2,287.3,303.8,287.5,303.4z"/>
			<path fill="#1C1B1A" d="M288.7,302c-0.4,0.4-0.8,0.8-1.2,1.6c-0.2,0.4-0.4,0.8-0.6,1.2l-11.3,21.6l0,0c-0.4,0.6-0.8,1.2-1.2,2
				c0,0.2,0,0.4-0.2,0.6c-1.2,2.6-1.6,5.4-1.6,8.7c0,3.2,0.6,6,1.6,8.7c0.2,0.4,0.4,0.8,0.6,1.4c0.2,0.2,0.2,0.4,0.4,0.8l11.7,22.4
				c0.4,0.8,1,1.6,1.8,2.6c1.6,1.6,3.4,2.2,5.6,2.2c2.2,0,4.2-0.8,5.8-2.2c0.6-0.6,1-1.2,1.4-1.8l0.2-0.2l0,0l11.7-22.4
				c0.4-0.8,0.8-1.4,1-2.2c0-0.2,0.2-0.2,0.4-0.4c1-2.6,1.6-5.6,1.6-8.9c0-3.8-0.8-7.5-2.6-10.9l0,0l-11.7-22l0,0
				c-0.4-1.2-1-2-1.8-2.8c-1.6-1.6-3.4-2.4-5.8-2.4C292.1,299.6,290.3,300.4,288.7,302z"/>
		</g>
	</g>
</g>
<g transform="matrix( 1, 0, 0, 1, 0,0) ">
	<g>
		<g id="Layer5_759_FILL">
			<path fill="#676767" d="M296.4,300.4c-2-0.6-4-0.4-5.8,0.6c-1.8,1-3,2.6-3.4,4.8c-0.6,2-0.4,3.8,0.6,5.6c1,1.8,2.6,3,4.6,3.6
				c2,0.6,3.8,0.2,5.6-0.8c1.8-1,3-2.6,3.6-4.6c0.6-2,0.2-3.8-0.8-5.6C300,302.2,298.4,301,296.4,300.4 M289.1,306
				c0.2-1.2,1-2.2,2.6-3c1.4-0.8,2.6-1,4-0.6c1.4,0.4,2.4,1.2,3.2,2.6s1,2.8,0.8,4c-0.4,1.4-1.2,2.6-2.8,3.2c-1.2,0.8-2.6,1-4,0.6
				c-1.4-0.4-2.6-1.2-3.2-2.4C288.9,309.3,288.7,307.7,289.1,306 M292.3,306.7c-0.2,0-0.2,0-0.4,0.2c-0.2,0.2-0.2,0.2-0.2,0.2
				c0,0.2,0,0.4,0,0.6c0,0,0.2,0,0.4,0l1.6,0.6l-0.6,1.6c0,0.2,0,0.2,0.2,0.4c0,0.2,0.2,0.2,0.4,0.2c0.2,0,0.2,0,0.4,0
				s0.2-0.2,0.2-0.2l0.4-1.6l1.6,0.4c0.2,0,0.4,0,0.4,0c0.2,0,0.2-0.2,0.4-0.2l0,0c0-0.2,0-0.2,0-0.4c0-0.2,0-0.4-0.4-0.4l-1.6-0.4
				l0.4-1.8c0-0.2,0-0.2,0-0.2c-0.2,0-0.2-0.2-0.4-0.2c-0.2,0-0.2,0-0.4,0s-0.4,0.2-0.4,0.2l-0.4,1.8L292.3,306.7z"/>
			
				<radialGradient id="SVGID_9_" cx="-679.7946" cy="121.1666" r="3.3383" gradientTransform="matrix(1.9476 0.521 -0.521 1.9476 1681.6691 425.8842)" gradientUnits="userSpaceOnUse">
				<stop  offset="0" style="stop-color:#E7E7E7"/>
				<stop  offset="1" style="stop-color:#AEAEAE"/>
			</radialGradient>
			<path fill="url(#SVGID_9_)" d="M291.7,303c-1.4,0.8-2.2,1.8-2.6,3c-0.4,1.6-0.2,3.2,0.6,4.6c0.8,1.2,1.8,2,3.2,2.4
				c1.4,0.4,2.8,0.2,4-0.6c1.4-0.8,2.4-1.8,2.8-3.2c0.4-1.4,0.2-2.8-0.8-4c-0.8-1.2-1.8-2-3.2-2.6
				C294.4,302.2,292.9,302.4,291.7,303 M291.9,306.9c0.2-0.2,0.2-0.2,0.4-0.2l1.8,0.4l0.4-1.8c0-0.2,0-0.2,0.4-0.2
				c0.2,0,0.2,0,0.4,0c0.2,0,0.2,0.2,0.4,0.2v0.2l-0.4,1.8l1.6,0.4c0.2,0,0.4,0.2,0.4,0.4c0,0,0,0.2,0,0.4l0,0
				c0,0.2-0.2,0.2-0.4,0.2c0,0,0,0-0.4,0l-1.6-0.4l-0.4,1.6c0,0.2,0,0.2-0.2,0.2c-0.2,0-0.2,0-0.4,0s-0.2,0-0.4-0.2
				c-0.2-0.2-0.2-0.2-0.2-0.4l0.6-1.6l-1.6-0.6c-0.2,0-0.2,0-0.4,0c0-0.2,0-0.2,0-0.6C291.7,307.1,291.9,307.1,291.9,306.9z"/>
		</g>
	</g>
</g>
<g transform="matrix( 1, 0, 0, 1, 0,0) ">
	<g>
		<g id="Layer5_760_FILL">
			<path fill="#676767" d="M301.8,369.4c0.6-2,0.2-3.8-0.8-5.8c-1-1.8-2.6-3-4.6-3.6c-2-0.6-4-0.2-5.8,0.8c-1.8,1-3,2.6-3.4,4.8
				c-0.6,2-0.4,3.8,0.6,5.6c1,1.8,2.6,3,4.6,3.6c2,0.6,3.8,0.2,5.6-0.8C300,372.8,301.2,371.4,301.8,369.4 M299,364.5
				c0.8,1.4,1,2.8,0.8,4c-0.4,1.4-1.2,2.6-2.8,3.4c-1.2,0.8-2.6,1-4,0.6c-1.4-0.4-2.6-1.2-3.2-2.4c-0.8-1.4-1-2.8-0.6-4.6
				c0.2-1.2,1-2.2,2.6-3c1.4-0.8,2.6-1,4-0.6C297.2,362.5,298.4,363.3,299,364.5 M295.6,365.1c0-0.2,0-0.2,0-0.2
				c-0.2,0-0.2-0.2-0.4-0.2s-0.2,0-0.4,0c-0.2,0-0.4,0.2-0.4,0.4l-0.4,1.6l-1.8-0.4c-0.2,0-0.2,0-0.4,0c-0.2,0.2-0.2,0.2-0.2,0.2
				c0,0.2,0,0.4,0,0.6c0,0,0.2,0.2,0.4,0.2l1.6,0.6l-0.6,1.6c0,0.2,0,0.2,0.2,0.4c0,0.2,0.2,0.2,0.4,0.2c0.2,0,0.2,0,0.4,0
				c0.2,0,0.2-0.2,0.2-0.4l0.4-1.6l1.6,0.4c0.2,0,0.4,0,0.4,0c0.2,0,0.2-0.2,0.4-0.4l0,0c0-0.2,0-0.2,0-0.2c0-0.2,0-0.4-0.4-0.4
				l-1.6-0.4L295.6,365.1z"/>
			
				<radialGradient id="SVGID_10_" cx="-679.7946" cy="121.1666" r="3.3383" gradientTransform="matrix(1.9476 0.521 -0.521 1.9476 1681.6691 485.4608)" gradientUnits="userSpaceOnUse">
				<stop  offset="0" style="stop-color:#E7E7E7"/>
				<stop  offset="1" style="stop-color:#AEAEAE"/>
			</radialGradient>
			<path fill="url(#SVGID_10_)" d="M299.8,368.8c0.4-1.4,0.2-2.8-0.8-4c-0.8-1.2-1.8-2-3.2-2.6c-1.4-0.4-2.8-0.2-4,0.6
				c-1.4,0.8-2.2,1.8-2.6,3c-0.4,1.6-0.2,3.2,0.6,4.6c0.8,1.2,1.8,2,3.2,2.4c1.4,0.4,2.8,0.2,4-0.6
				C298.6,371.4,299.4,370.2,299.8,368.8 M295.6,364.9v0.2l-0.4,1.8l1.6,0.4c0.2,0,0.4,0.2,0.4,0.4v0.2l0,0c0,0.2-0.2,0.2-0.4,0.4
				c0,0,0,0-0.4,0l-1.6-0.4l-0.4,1.6c0,0.2,0,0.2-0.2,0.4c-0.2,0-0.2,0-0.4,0c-0.2,0-0.2,0-0.4-0.2s-0.2-0.2-0.2-0.4l0.6-1.6
				l-1.6-0.6c-0.2,0-0.2,0-0.4-0.2c0-0.2,0-0.2,0-0.6l0.2-0.2c0.2-0.2,0.2-0.2,0.4,0l1.8,0.4l0.4-1.6c0-0.2,0-0.4,0.4-0.4
				c0.2,0,0.2,0,0.4,0C295.4,364.7,295.6,364.9,295.6,364.9z"/>
		</g>
	</g>
</g>
<g transform="matrix( 1, 0, 0, 1, 0,0) ">
	<g>
		<g id="Layer5_761_FILL">
			<path fill="#FFFFFF" d="M173.4,12.5h-1l-2,6.9l-2-6.9h-1l-2,10.1h1.6l1-5.4l2,5.6h0.8l2-5.6l1,5.4h1.6L173.4,12.5 M178.2,20.6
				h3.4l0.8,2h2l-4-10.1h-0.8l-4,10.1h2L178.2,20.6 M179.8,15.5l1.2,3.6h-2.4L179.8,15.5 M192.7,12.5h-1.8v6l-4.6-6h-1v10.1h1.6
				v-6.2l5,6.3h0.8V12.5 M284.9,14.1v-1.6h-6.5v10.1h6.5V21h-4.6v-3h3.4v-1.4h-3.4v-2.4H284.9 M204.2,29.4c-0.8,1-1.2,2.2-1.2,3.6
				c0,1.6,0.4,3,1,4c0.6,1,1.8,1.4,3,1.4c1.4,0,2.6-0.4,3.4-1.4c0.8-1,1-2.2,1-4c0-1.6-0.4-2.8-1-3.6c-0.8-0.8-1.8-1.4-3.4-1.4
				C206,28,205,28.4,204.2,29.4 M204.8,33.1c0-1,0.2-1.8,0.6-2.6c0.4-0.6,1-1,1.8-1c1.8,0,2.6,1.2,2.6,3.6c0,1.2-0.2,2.2-0.8,2.8
				c-0.4,0.6-1.2,0.8-2,0.8s-1.4-0.4-1.6-1C205,35.1,204.8,34.3,204.8,33.1 M199.2,29.4c0.8,0,1.6,0.2,2,0.6l0.6-1.4
				c-0.6-0.4-1.6-0.8-2.6-0.8c-1.4,0-2.4,0.6-3.4,1.6c-0.8,1-1.2,2.2-1.2,3.6c0,1.6,0.4,2.8,1.2,3.8c0.8,1,1.8,1.4,3.2,1.4
				s2.4-0.4,3.2-1.2l-0.8-1.4c-0.6,0.6-1.2,1-2.2,1c-0.8,0-1.4-0.2-2-0.8c-0.4-0.6-0.6-1.6-0.6-2.6s0.2-2,0.8-2.6
				C197.6,29.8,198.4,29.4,199.2,29.4 M200.4,19.4c0,0.6-0.2,1-0.6,1.2c-0.4,0.4-0.8,0.6-1.6,0.6c-0.6,0-1-0.2-1.4-0.6
				c-0.4-0.4-0.6-0.8-0.6-1.2v-6.9h-1.8v7.1c0,1,0.4,1.8,1,2.4s1.4,0.8,2.6,0.8s2.2-0.4,2.8-0.8c0.6-0.6,1-1.4,1-2.4v-7.1h-1.6v6.9
				 M208.1,12.5h-0.8l-4,10.1h2l0.8-2h3.4l0.6,2h2L208.1,12.5 M207.7,15.5l1.2,3.6h-2.4L207.7,15.5 M219.6,22.6V21h-4.6v-8.5h-1.8
				v10.1H219.6 M221.8,29.6h3.2v8.5h1.8v-8.5h3.4V28h-8.5V29.6 M220.8,28h-1.6v6l-4.8-6h-1v10.1h1.8v-6.3l5,6.3h0.6V28 M230.8,12.5
				l-2.4,6.9l-2.2-6.9h-2l3.8,10.3h1l4-10.3L230.8,12.5 M251.6,28h-1.8v10.1h6.3v-1.6h-4.6V28 M237.5,32.7c0.4-0.4,0.6-1,0.6-1.6
				c0-2-1.2-3-3.8-3c-0.4,0-1,0-1.6,0.2c-0.6,0-1,0-1.2,0v10.1h2v-4.2c0.4,0,0.8,0,1,0l2.6,4.2h2l-3-4.6
				C236.5,33.5,237.1,33.1,237.5,32.7 M233.3,29.6c0.2,0,0.4,0,0.6,0c0.8,0,1.2,0,1.6,0.2c0.4,0.2,0.4,0.6,0.6,1
				c0,0.6-0.2,1-0.6,1.2c-0.4,0.2-0.8,0.2-1.6,0.2c-0.2,0-0.4,0-0.6,0V29.6 M240.5,29.4c-0.8,1-1.2,2.2-1.2,3.6c0,1.6,0.4,3,1,4
				c0.8,1,1.8,1.4,3,1.4c1.4,0,2.6-0.4,3.4-1.4c0.8-1,1-2.2,1-4c0-1.6-0.4-2.8-1-3.6c-0.8-0.8-1.8-1.4-3.2-1.4
				C242.3,28,241.3,28.4,240.5,29.4 M243.7,29.4c1.8,0,2.6,1.2,2.6,3.6c0,1.2-0.2,2.2-0.8,2.8c-0.4,0.6-1.2,0.8-2,0.8
				s-1.2-0.4-1.6-1c-0.4-0.6-0.6-1.6-0.6-2.8c0-1,0.2-1.8,0.6-2.6C242.3,29.8,242.9,29.4,243.7,29.4 M245.6,12.5h-1.8v10.1h6.3V21
				h-4.6v-8.5 M241.1,13.7c-0.8-0.8-1.8-1.2-3.2-1.2c-1.2,0-2.4,0.4-3,1.4c-0.8,1-1.2,2.2-1.2,3.6c0,1.6,0.4,3,1,3.8
				c0.8,1,1.8,1.4,3.2,1.4s2.6-0.4,3.4-1.4s1.2-2.2,1.2-3.8C242.1,15.9,241.7,14.7,241.1,13.7 M239.7,20.4c-0.4,0.6-1.2,0.8-2,0.8
				s-1.4-0.4-1.8-1c-0.4-0.6-0.6-1.6-0.6-2.6s0.2-1.8,0.6-2.6c0.4-0.6,1-1,1.8-1c1.8,0,2.6,1.2,2.6,3.6
				C240.3,18.8,240.1,19.8,239.7,20.4 M258.9,14.1v-1.6h-8.3v1.6h3.2v8.5h1.8v-8.5H258.9 M261.9,20.6h3.4l0.8,2h2l-4-10.1h-0.8
				l-4,10.1h2L261.9,20.6 M264.7,19.2h-2.4l1.2-3.6L264.7,19.2 M276.4,13.3c-0.8-0.6-1.8-0.8-2.8-0.8c-1.6,0-2.8,0.4-3.6,1.4
				c-1,1-1.4,2.2-1.4,3.8s0.4,2.8,1.2,3.8s2,1.4,3.4,1.4c0.6,0,1.4-0.2,2-0.2c0.6-0.2,1.2-0.4,1.6-0.8v-4.8h-3v1.6h1.4v2
				c-0.4,0.4-1,0.6-1.6,0.6c-1,0-1.8-0.4-2.4-1c-0.6-0.6-0.8-1.4-0.8-2.6s0.2-2,0.8-2.6c0.6-0.6,1.4-1,2.4-1c0.4,0,0.8,0.2,1.2,0.2
				c0.4,0.2,0.6,0.4,1,0.6L276.4,13.3z"/>
		</g>
	</g>
</g>
<g transform="matrix( 1, 0, 0, 1, 0,0) ">
	<g>
		<g id="Layer5_762_FILL">
			<path fill="#FFFFFF" d="M150.6,55.8h-1l-2.8,7.3h1L150.6,55.8 M151.8,55.8h-0.6v7.3h1.4v-4.4l3.4,4.6h0.6V56h-1.2v4.4L151.8,55.8
				 M142.9,55.8c-0.2,0-0.6,0-1.6,0.2v7.1h1.2v-2.6c0.2,0,0.4,0,0.6,0c2,0,2.8-0.8,2.8-2.6c0-0.8-0.2-1.2-0.8-1.6
				C145,56,144.2,55.8,142.9,55.8 M143.1,57.1c1.2,0,1.8,0.4,1.8,1c0,0.4-0.2,0.8-0.4,1s-0.8,0.2-1.4,0.2c-0.2,0-0.2,0-0.6,0v-2.2
				C142.9,57.1,143.1,57.1,143.1,57.1 M187.9,55.8v1.2h3.2c-1.4,2.4-2.2,4.4-2.8,6h1.4c0.2-0.4,0.2-0.8,0.4-1.2
				c0.2-0.4,0.4-0.8,0.6-1.4c0.2-0.4,0.4-1,0.6-1.6c0.2-0.4,0.6-1,0.6-1.4l0.6-1.2v-0.6h-4.6 M185.3,55.8h-0.6
				c-0.6,0.6-1.2,1.2-2.2,1.8v1.2l1.6-1v5.2h1.2V55.8 M189.3,45.4h-0.8l-1.4,7.3h1.2l0.8-4l1.4,4h0.6l1.4-4l0.8,4h1.2l-1.6-7.3h-0.6
				l-1.6,5L189.3,45.4 M169.2,55.8c-0.6,0-1.2,0.2-1.6,0.8c-0.4,0.4-0.6,1-0.6,1.6c0,0.8,0.2,1.2,0.6,1.8c0.4,0.6,1,0.6,1.6,0.6
				c0.4,0,0.6,0,0.8-0.2c-0.4,0.8-1,1.6-2,2.2l0.8,0.6c0.8-0.2,1.4-0.6,2-1.6c0.6-0.8,1-1.8,1-2.6C171.8,56.9,171,55.8,169.2,55.8
				 M169.4,59.5c-0.4,0-0.6,0-0.8-0.2c-0.2-0.2-0.2-0.6-0.2-1c0-0.4,0-0.8,0.2-1c0.2-0.2,0.4-0.2,0.8-0.2c0.8,0,1,0.4,1,1.2
				S170,59.5,169.4,59.5 M308.1,56.5l-0.6-0.8c-0.8,0.2-1.4,0.8-2,1.6c-0.6,1-1,1.8-1,2.8c0,2,0.8,3,2.6,3c0.6,0,1.2-0.2,1.6-0.6
				c0.4-0.4,0.6-1,0.6-1.8c0-0.6-0.2-1.2-0.6-1.8c-0.4-0.4-1-0.6-1.6-0.6c-0.2,0-0.6,0-1,0.2c0.2-0.4,0.6-0.8,1-1.2
				C307.1,57.1,307.5,56.9,308.1,56.5 M307.7,60.9c0,0.4,0,0.8-0.4,1c-0.2,0.2-0.4,0.2-0.6,0.2c-0.8,0-1.2-0.4-1.2-1.2
				c0-0.8,0.4-1.2,1.2-1.2c0.2,0,0.4,0.2,0.6,0.2C307.7,60.3,307.7,60.5,307.7,60.9 M302.6,55.8h-4v3.6l0.6,0.2
				c0.4-0.4,0.8-0.6,1.2-0.6c0.4,0,0.6,0.2,1,0.4c0.2,0.2,0.4,0.6,0.4,1c0,1-0.4,1.6-1.4,1.6c-0.4,0-0.8-0.2-1.4-0.6l-0.6,1
				c0.6,0.4,1.2,0.6,1.8,0.6c1.8,0,2.6-0.8,2.6-2.6c0-0.8-0.2-1.4-0.6-1.8s-0.8-0.6-1.6-0.6c-0.4,0-0.6,0-0.8,0.2v-1.2h2.8V55.8
				 M293.1,58.9l1.6-1v5.2h1.2v-7.3h-0.6c-0.6,0.6-1.2,1.2-2.2,1.8V58.9 M287.3,58.9l1.6-1v5.2h1.2v-7.3h-0.6
				c-0.6,0.6-1.2,1.2-2.2,1.8V58.9 M197.4,61.7c0.6-0.8,1-1.8,1-2.6c0-2.2-0.8-3.2-2.6-3.2c-0.6,0-1.2,0.2-1.6,0.8
				c-0.4,0.4-0.6,1-0.6,1.6c0,0.6,0.2,1.2,0.6,1.8c0.4,0.4,1,0.6,1.6,0.6c0.4,0,0.6,0,0.8-0.2c-0.4,0.8-1,1.6-2,2.2l0.6,0.6
				C196,63.1,196.6,62.7,197.4,61.7 M195,58.3c0-0.4,0-0.8,0.2-1c0.2-0.2,0.4-0.2,0.8-0.2c0.8,0,1,0.4,1,1.2s-0.4,1.2-1,1.2
				c-0.4,0-0.6,0-0.8-0.2C195,58.9,195,58.7,195,58.3 M220.8,56.9c-0.4,0.6-0.6,1.6-0.6,2.6c0,1.4,0.2,2.4,0.6,3
				c0.4,0.6,1,0.8,2,0.8c0.8,0,1.4-0.4,1.8-1s0.8-1.6,0.8-2.6c0-2.4-0.8-3.8-2.6-3.8C221.8,55.8,221.2,56.3,220.8,56.9 M223.6,57.5
				c0.2,0.4,0.2,1,0.2,2s0,1.8-0.2,2.2c-0.2,0.4-0.6,0.6-1,0.6c-0.4,0-0.8-0.2-1-0.6c-0.2-0.4-0.4-1.2-0.4-2.2
				c0-1.8,0.4-2.6,1.4-2.6C223,56.9,223.4,57.1,223.6,57.5 M236.3,45.4h-1.4l-1.6,5l-1.8-5H230l2.6,7.3h0.6L236.3,45.4 M228.4,45.4
				h-0.6l-1.4,4.8l-1.6-5h-0.6l-1.4,7.3h1.2l0.8-4l1.4,4h0.6l1.4-4l0.8,4h1.2L228.4,45.4 M216.7,55.8c-0.8,0-1.4,0.4-2,1
				c-0.4,0.6-0.6,1.6-0.6,2.6c0,1.4,0.2,2.4,0.6,3c0.4,0.6,1,0.8,2,0.8c0.8,0,1.4-0.4,2-1c0.4-0.6,0.6-1.6,0.6-2.6
				C219.4,57.1,218.5,55.8,216.7,55.8 M215.5,59.5c0-1.8,0.4-2.6,1.2-2.6c0.4,0,0.6,0.2,1,0.6c0.2,0.4,0.4,1,0.4,2s0,1.8-0.4,2.2
				c-0.4,0.4-0.6,0.6-1,0.6c-0.4,0-0.8-0.2-1-0.6C215.5,61.1,215.5,60.5,215.5,59.5 M201.6,55.8c-0.4,0-0.8,0.2-1.2,0.4
				c-0.4,0.2-0.6,0.4-0.8,0.8l0.8,0.6c0.4-0.6,0.8-0.8,1.2-0.8c0.6,0,1,0.2,1,0.8c0,0.4-0.2,1-0.6,1.8l-2.2,3.2v0.4h4.4v-1h-2.6
				l1.4-2.4c0.6-0.8,0.8-1.4,0.8-2c0-0.6-0.2-1-0.6-1.4C202.8,56,202.2,55.8,201.6,55.8 M204.4,45.4c-0.2,0-0.8,0-2,0.2v7.1h1.6
				c2.4,0,3.6-1.2,3.6-4c0-1-0.2-1.8-0.8-2.4C206.2,45.6,205.4,45.4,204.4,45.4 M203.8,46.6c0.2,0,0.4,0,0.6,0c1.4,0,2,0.8,2,2.2
				c0,0.8-0.2,1.6-0.6,2c-0.4,0.4-1,0.8-1.6,0.8c-0.2,0-0.6,0-0.8-0.2v-4.8 M200.6,46.2c-0.6-0.6-1.4-1-2.4-1c-1,0-1.6,0.4-2.2,1
				c-0.6,0.6-0.8,1.6-0.8,2.6c0,1.2,0.2,2,0.8,2.6c0.4,0.6,1.2,1,2.2,1c1,0,1.8-0.4,2.4-1c0.6-0.6,0.8-1.6,0.8-2.6
				C201.4,47.8,201,46.8,200.6,46.2 M197,47c0.2-0.4,0.6-0.8,1.2-0.8c1.2,0,1.8,0.8,1.8,2.6c0,0.8-0.2,1.4-0.6,1.8
				c-0.4,0.4-0.8,0.8-1.4,0.8c-0.6,0-1-0.2-1.2-0.8c-0.2-0.4-0.4-1-0.4-1.8C196.4,48,196.6,47.6,197,47 M215.9,45.4h-1.4v7.3h4.6v-1
				h-3.2L215.9,45.4 M213.5,45.4h-4.6v7.3h4.6v-1h-3.2v-2.2h2.4v-1.2h-2.4v-1.6h3.4v-1.2 M270.2,55.8h-1l-2.6,7.3h1L270.2,55.8
				 M276.2,55.8H275v4.4l-3.4-4.4H271v7.3h1.2v-4.4l3.4,4.6h0.6V55.8 M261.5,57.7c0,0.4,0,0.6,0.2,1c0,0.2,0.2,0.4,0.4,0.6
				c0.2,0.2,0.6,0.4,1,0.8c0.6,0.2,1,0.6,1.2,0.8c0.2,0.2,0.2,0.4,0.2,0.8c0,0.6-0.4,0.8-1.2,0.8c-0.4,0-1-0.2-1.4-0.6l-0.6,1
				c0.6,0.4,1.2,0.6,1.8,0.6c0.8,0,1.4-0.2,1.8-0.6s0.8-0.8,0.8-1.6c0-0.4,0-0.6-0.2-0.8c-0.2-0.2-0.2-0.6-0.6-0.8
				c-0.2-0.2-0.6-0.4-1-0.6c-0.8-0.4-1.2-0.8-1.2-1.4c0-0.2,0-0.4,0.2-0.6c0.2-0.2,0.4-0.2,0.6-0.2c0.4,0,1,0.2,1.4,0.6l0.4-1
				c-0.4-0.4-1-0.6-1.8-0.6c-0.6,0-1.2,0.2-1.6,0.6C261.7,56.9,261.5,57.3,261.5,57.7 M262.3,47.2c0-0.6-0.2-1-0.6-1.4
				c-0.4-0.4-1-0.6-1.6-0.6c-0.4,0-0.8,0.2-1.2,0.4c-0.4,0.2-0.6,0.4-0.8,0.8l0.8,0.6c0.4-0.6,0.8-0.8,1.2-0.8c0.6,0,1,0.2,1,0.8
				c0,0.4-0.2,1-0.8,1.8l-2.2,3.2v0.4h4.6v-1h-2.6l1.4-2.4C261.9,48.4,262.3,47.8,262.3,47.2 M247.4,56.9c-0.4,0.6-0.8,1.6-0.8,2.6
				c0,1.4,0.2,2.4,0.6,3c0.4,0.6,1,0.8,1.8,0.8s1.4-0.4,2-1c0.4-0.6,0.8-1.6,0.8-2.6c0-2.4-0.8-3.8-2.6-3.8
				C248.4,55.8,247.8,56.3,247.4,56.9 M248,59.5c0-1.8,0.4-2.6,1.4-2.6c0.4,0,0.6,0.2,0.8,0.6c0.2,0.4,0.4,1,0.4,2s0,1.8-0.4,2.2
				c-0.2,0.4-0.6,0.6-1,0.6s-0.8-0.2-0.8-0.6C248,61.1,248,60.5,248,59.5 M241.5,56.9c-0.4,0.6-0.6,1.6-0.6,2.6c0,1.4,0.2,2.4,0.6,3
				c0.4,0.6,1,0.8,2,0.8c0.8,0,1.4-0.4,2-1c0.4-0.6,0.6-1.6,0.6-2.6c0-2.4-0.8-3.8-2.6-3.8C242.5,55.8,241.9,56.3,241.5,56.9
				 M243.3,56.9c0.4,0,0.8,0.2,1,0.6s0.2,1,0.2,2s0,1.8-0.2,2.2c-0.2,0.4-0.6,0.6-1,0.6c-0.4,0-0.8-0.2-1-0.6
				c-0.2-0.4-0.4-1.2-0.4-2.2C242.1,57.7,242.5,56.9,243.3,56.9 M238.5,55.8h-0.6c-0.6,0.6-1.2,1.2-2.2,1.8v1.2l1.6-1v5.2h1.2V55.8
				 M241.5,46.8l0.6-1c-0.4-0.4-1-0.6-2-0.6c-1,0-1.8,0.4-2.4,1c-0.6,0.8-1,1.6-1,2.6c0,1.2,0.2,2,0.8,2.6c0.6,0.6,1.4,1,2.4,1
				c1,0,1.8-0.2,2.4-0.8l-0.6-1c-0.4,0.4-0.8,0.8-1.6,0.8c-0.6,0-1-0.2-1.6-0.8c-0.4-0.4-0.6-1-0.6-1.8c0-0.8,0.2-1.4,0.6-2
				c0.4-0.4,0.8-0.6,1.4-0.6C240.7,46.4,241.1,46.6,241.5,46.8 M255.4,45.4h-0.6c-0.6,0.6-1.2,1.2-2.2,1.8v1.2l1.6-1v5.2h1.2V45.4
				 M249.6,45.4H249c-0.6,0.6-1.2,1.2-2.2,1.8v1.2l1.6-1v5.2h1.2V45.4z"/>
		</g>
	</g>
</g>
<g transform="matrix( 1, 0, 0, 1, 0,0) ">
	<g>
		<g id="Layer5_763_FILL">
			<path fill="#FFFFFF" d="M230.6,82.3h3.4V81h-4.8v7.3h1.4v-3.4h2.6v-1h-2.6L230.6,82.3 M219.4,80.8c-1,0-1.6,0.4-2.2,1.2
				c-0.6,0.6-0.8,1.6-0.8,2.6c0,1.2,0.2,2,0.8,2.8c0.4,0.6,1.2,1,2.2,1c1,0,1.8-0.4,2.4-1c0.4-0.8,0.6-1.6,0.6-2.8
				c0-1.2-0.2-2-0.8-2.8C221.2,81.3,220.4,80.8,219.4,80.8 M217.9,82.7c0.2-0.4,0.6-0.8,1.2-0.8c1.2,0,1.8,0.8,1.8,2.6
				c0,0.8-0.2,1.4-0.6,2c-0.4,0.4-0.8,0.8-1.4,0.8s-1-0.2-1.4-0.8c-0.2-0.4-0.4-1-0.4-2C217.5,83.9,217.7,83.3,217.9,82.7
				 M224.8,83.9v-1.6h3.4V81h-4.6v7.3h1.2v-3.4h2.6v-1H224.8z"/>
		</g>
	</g>
</g>
<g transform="matrix( 1, 0, 0, 1, 0,0) ">
	<g>
		<g id="Layer5_764_FILL">
			<path fill="#FFFFFF" d="M140.3,136.7h-0.6l-1.6,4.8l-1.6-4.8h-0.6l-1.4,7.3h1.2l0.8-3.8l1.4,4h0.6l1.4-4l0.8,3.8h1.2L140.3,136.7
				 M147,144h1.4l-2.8-7.3H145l-3,7.3h1.4l0.6-1.6h2.6L147,144 M144.4,141.5l1-2.8l0.8,2.8H144.4 M154.2,136.7H153v4.4l-3.4-4.4H149
				v7.3h1.2v-4.4l3.4,4.6h0.6V136.7 M157.1,136.7h-1.2v5c0,0.8,0.2,1.2,0.8,1.6c0.4,0.4,1,0.6,1.8,0.6c0.8,0,1.6-0.2,2-0.6
				c0.4-0.4,0.8-1,0.8-1.6v-5h-1.4v4.8c0,0.4-0.2,0.8-0.4,1s-0.6,0.4-1.2,0.4c-0.4,0-0.6-0.2-0.8-0.4s-0.4-0.6-0.4-1V136.7
				 M166.9,144h1.4l-3-7.3h-0.6l-2.8,7.3h1.4l0.6-1.6h2.6L166.9,144 M164.3,141.5l1-2.8l0.8,2.8H164.3 M170.4,136.7H169v7.3h4.6v-1
				h-3.2V136.7z"/>
		</g>
	</g>
</g>
<g transform="matrix( 1, 0, 0, 1, 0,0) ">
	<g>
		<g id="Layer5_765_FILL">
			<path fill="#FFFFFF" d="M280.4,136.5h-0.6l-3,7.3h1.4l0.6-1.6h2.6l0.6,1.6h1.4L280.4,136.5 M281,141.5h-1.8l1-2.8L281,141.5
				 M288.7,143.3c0.4-0.4,0.6-1,0.6-1.6v-5h-1.2v4.8c0,0.4-0.2,0.8-0.4,1c-0.2,0.2-0.6,0.4-1,0.4c-0.4,0-0.8-0.2-1-0.4
				s-0.4-0.6-0.4-1v-4.8h-1.2v5c0,0.8,0.2,1.2,0.6,1.6c0.4,0.4,1.2,0.6,2,0.6C287.7,144,288.3,143.8,288.7,143.3 M297.6,137.7
				c-0.6,0.6-0.8,1.6-0.8,2.6c0,1.2,0.2,2,0.8,2.8c0.4,0.6,1.2,1,2.2,1s1.8-0.4,2.4-1c0.6-0.6,0.8-1.6,0.8-2.8
				c0-1.2-0.2-2.2-0.8-2.8c-0.6-0.6-1.4-1-2.4-1C299,136.5,298.2,136.9,297.6,137.7 M298.6,142.1c-0.2-0.4-0.4-1.2-0.4-2
				c0-0.8,0.2-1.4,0.6-2c0.2-0.4,0.6-0.6,1.2-0.6c1.2,0,1.8,0.8,1.8,2.6c0,0.8-0.2,1.4-0.6,2c-0.4,0.4-0.8,0.6-1.4,0.6
				C299.4,142.9,298.8,142.7,298.6,142.1 M296.4,137.9v-1.2h-6v1.2h2.4v6h1.2v-6H296.4z"/>
		</g>
	</g>
</g>
<g transform="matrix( 1, 0, 0, 1, 0,0) ">
	<g>
		<g id="Layer5_766_FILL">
			<path fill="#FFFFFF" d="M295.4,248.6v-1h-3.6v5.8h3.6v-1h-2.6v-1.8h2v-0.8h-2v-1.2H295.4 M287.5,249.8c0.2,0.2,0.2,0.4,0.4,0.6
				c0.2,0.2,0.4,0.2,1,0.6c0.4,0.2,0.8,0.4,1,0.6c0.2,0.2,0.2,0.4,0.2,0.6c0,0.4-0.4,0.6-1,0.6c-0.4,0-0.8-0.2-1.2-0.4l-0.4,1
				c0.4,0.2,1,0.4,1.6,0.4c0.6,0,1-0.2,1.4-0.6c0.4-0.2,0.6-0.6,0.6-1c0-0.2,0-0.6-0.2-0.8c0-0.2-0.2-0.4-0.4-0.6s-0.6-0.4-1-0.6
				c-0.8-0.4-1-0.6-1-1c0-0.2,0-0.4,0.2-0.6c0.2-0.2,0.4-0.2,0.6-0.2c0.4,0,0.8,0.2,1,0.4l0.4-0.8c-0.2-0.2-0.8-0.4-1.4-0.4
				s-1,0.2-1.4,0.4c-0.4,0.4-0.6,0.8-0.6,1.2C287.3,249.4,287.3,249.6,287.5,249.8 M283.5,252.2h2l0.4,1.2h1l-2.2-5.8h-0.4l-2.4,5.8
				h1.2L283.5,252.2 M283.7,251.4l0.6-2.2l0.8,2.2H283.7 M277.8,247.6v5.8h3.6v-1h-2.6v-1.8h2v-0.8h-2v-1.2h2.6v-1H277.8
				 M271.6,248.8l0.4-0.8c-0.4-0.2-1-0.4-1.6-0.4c-0.8,0-1.4,0.2-1.8,0.8c-0.6,0.6-0.8,1.4-0.8,2.2s0.2,1.6,0.8,2
				c0.4,0.6,1,0.8,1.8,0.8s1.4-0.2,2-0.8l-0.6-0.8c-0.4,0.4-0.8,0.6-1.4,0.6c-0.4,0-0.8-0.2-1-0.6c-0.2-0.4-0.4-1-0.4-1.6
				c0-0.6,0.2-1.2,0.4-1.6c0.4-0.4,0.8-0.6,1.2-0.6C271,248.4,271.4,248.6,271.6,248.8 M274.6,247.6c-0.2,0-0.6,0-1,0
				c-0.4,0-0.6,0-0.6,0v5.8h1V251c0.4,0,0.6,0,0.6,0l1.6,2.4h1.2l-1.6-2.6c0.4,0,0.6-0.2,0.8-0.6c0.2-0.2,0.2-0.6,0.2-1
				C276.8,248.2,276,247.6,274.6,247.6 M274.4,248.4c0.4,0,0.8,0,1,0.2c0.2,0.2,0.4,0.4,0.4,0.6c0,0.4,0,0.6-0.4,0.8
				c-0.2,0.2-0.4,0.2-0.8,0.2c-0.2,0-0.4,0-0.6,0v-1.6C274,248.6,274.2,248.4,274.4,248.4 M261.5,247.6h-1v5.8h1V247.6 M266.9,247.6
				h-1v3.4l-2.8-3.4h-0.4v5.8h1v-3.6l2.8,3.6h0.6v-5.8H266.9z"/>
		</g>
	</g>
</g>
<g transform="matrix( 1, 0, 0, 1, 0,0) ">
	<g>
		<g id="Layer5_767_FILL">
			<path fill="#FFFFFF" d="M189.7,316.5h-1.4l-1.8,5l-1.6-5h-1.4l2.8,7.3h0.6L189.7,316.5 M190.9,317.5c-0.6,0.6-0.8,1.6-0.8,2.6
				c0,1.2,0.2,2,0.8,2.6c0.4,0.6,1.2,1,2.2,1c1,0,1.8-0.4,2.4-1c0.6-0.6,0.8-1.6,0.8-2.6c0-1.2-0.2-2.2-0.8-2.8s-1.2-1-2.2-1
				C192.3,316.3,191.5,316.7,190.9,317.5 M191.5,320.2c0-0.8,0.2-1.4,0.6-2c0.2-0.4,0.8-0.8,1.4-0.8c1.2,0,1.8,0.8,1.8,2.6
				c0,0.8-0.2,1.4-0.6,1.8c-0.4,0.4-0.8,0.8-1.4,0.8c-0.6,0-1-0.2-1.2-0.8C191.5,321.6,191.5,321,191.5,320.2 M198.8,316.5h-1.4v7.3
				h4.6v-1.2h-3.2L198.8,316.5 M211.9,316.3h-0.6l-3,7.3h1.4l0.6-1.6h2.6l0.6,1.6h1.4L211.9,316.3 M210.9,321.4l1-2.6l0.8,2.6H210.9
				 M208.5,317.7v-1.2h-6v1.2h2.2v6h1.2v-6H208.5 M223.6,320.4h2.4v-1.2h-2.4v-1.6h3.2v-1h-4.4v7.3h4.6v-1.2h-3.2v-2.2 M219.8,317.7
				c0.4,0,0.6,0.2,0.6,0.4l0.6-1c-0.6-0.4-1.2-0.8-2-0.8c-1,0-2,0.4-2.6,1c-0.6,0.6-1,1.6-1,2.8c0,1,0.4,2,1,2.6
				c0.6,0.6,1.4,1,2.4,1c0.4,0,1,0,1.6-0.2c0.4-0.2,0.8-0.4,1-0.6v-3.2h-2.2v1.2h1v1.4c-0.4,0.2-0.8,0.4-1.2,0.4
				c-0.6,0-1.2-0.2-1.6-0.8c-0.4-0.6-0.6-1-0.6-1.8c0-0.8,0.2-1.4,0.6-2c0.4-0.6,1-0.6,1.6-0.6C219.2,317.5,219.4,317.7,219.8,317.7
				 M233.9,316.3h-0.6l-3,7.3h1.4l0.6-1.6h2.6l0.6,1.6h1.4L233.9,316.3 M232.7,321.4l1-2.6l0.8,2.6H232.7 M239.3,316.5
				c-0.2,0-0.8,0-2,0.2v7.1h1.6c2.4,0,3.8-1.2,3.8-4c0-1-0.4-1.8-1-2.4C241.1,316.7,240.5,316.5,239.3,316.5 M238.7,317.7
				c0.2,0,0.4,0,0.6,0c1.4,0,2,0.8,2,2.2c0,0.8-0.2,1.6-0.6,2c-0.4,0.4-0.8,0.8-1.6,0.8c-0.2,0-0.6,0-0.6-0.2v-4.8 M249.2,316.5v5
				c0,0.8,0.2,1.4,0.8,1.8c0.4,0.4,1,0.6,2,0.6c0.8,0,1.6-0.2,2-0.6c0.4-0.4,0.6-1,0.6-1.8v-5h-1.2v5c0,0.4-0.2,0.6-0.4,0.8
				c-0.2,0.2-0.6,0.4-1,0.4c-0.4,0-0.8-0.2-1-0.4c-0.2-0.2-0.4-0.4-0.4-0.8v-5H249.2 M248,321v-4.4h-1.4v4.6c0,0.6,0,1-0.2,1.2
				s-0.4,0.4-0.8,0.4c-0.6,0-1-0.2-1-0.8h-1c0,0.6,0.2,1,0.6,1.2c0.4,0.4,0.8,0.4,1.4,0.6c1,0,1.6-0.2,2-0.6
				C247.8,322.8,248,322,248,321 M257.9,317.5c0.4,0,1,0.2,1.4,0.6l0.4-1c-0.4-0.4-1-0.6-1.8-0.6c-0.6,0-1.2,0.2-1.6,0.6
				c-0.4,0.4-0.6,0.8-0.6,1.2c0,0.4,0,0.6,0.2,1c0,0.2,0.2,0.4,0.4,0.6c0.2,0.2,0.6,0.4,1,0.8c0.6,0.2,0.8,0.6,1,0.8
				c0.2,0.2,0.4,0.4,0.4,0.8c0,0.6-0.4,0.8-1.2,0.8c-0.4,0-1-0.2-1.4-0.6l-0.6,1c0.6,0.4,1.2,0.4,1.8,0.6c0.8,0,1.4-0.2,1.8-0.6
				c0.4-0.4,0.6-0.8,0.6-1.6c0-0.4,0-0.6,0-0.8c-0.2-0.2-0.4-0.6-0.6-0.8s-0.6-0.4-1-0.6c-0.8-0.4-1.4-0.8-1.4-1.4
				c0-0.2,0-0.4,0.2-0.6C257.5,317.5,257.7,317.5,257.9,317.5 M260.5,317.7h2.4v6h1.2v-6h2.4v-1.2h-6V317.7 M241.1,305.8h-1.4v7.3
				h4.6v-1h-3.2L241.1,305.8 M236.3,305.8h-0.6l-3,7.3h1.4l0.6-1.6h2.6l0.6,1.6h1.4L236.3,305.8 M236.9,310.7h-1.6l0.8-2.6
				L236.9,310.7 M228,305.8h-1.2v5c0,0.8,0.2,1.4,0.6,1.8c0.4,0.4,1.2,0.6,2,0.6s1.6-0.2,2-0.6c0.4-0.4,0.6-1,0.6-1.8v-5h-1.2v5
				c0,0.4-0.2,0.6-0.4,0.8c-0.2,0.2-0.6,0.4-1,0.4s-0.8-0.2-1-0.4c-0.2-0.2-0.4-0.4-0.4-0.8L228,305.8 M220.6,305.8H220v7.3h1.4
				v-4.4l3.4,4.6h0.6V306h-1.2v4.4L220.6,305.8 M216.3,305.8h-0.6l-3,7.3h1.6l0.6-1.6h2.6l0.6,1.6h1.4L216.3,305.8 M216.9,310.7
				h-1.6l1-2.6L216.9,310.7 M207.5,305.8h-0.8l-1.4,7.3h1.2l0.8-4l1.4,4h0.6l1.4-4l0.8,4h1.2l-1.6-7.3h-0.6l-1.6,5L207.5,305.8z"/>
		</g>
	</g>
</g>
<g transform="matrix( 1, 0, 0, 1, 0,0) ">
	<g>
		<g id="Layer5_768_FILL">
			<path fill="#FFFFFF" d="M111.9,389.1c-0.4-0.4-1-0.6-1.6-0.6c-0.4,0-0.8,0.2-1.2,0.4c-0.4,0.2-0.6,0.4-0.8,0.8l0.8,0.8
				c0.4-0.6,0.8-0.8,1.2-0.8c0.6,0,1,0.2,1,0.8c0,0.4-0.2,1-0.8,1.8l-2.2,3.2v0.4h4.6v-1h-2.6l1.4-2.2c0.6-0.8,0.8-1.4,0.8-2
				C112.5,389.9,112.3,389.5,111.9,389.1 M106.2,379.2h2.2v6h1.2v-6h2.4V378h-6v1.2 M101.8,383.3l0.8-1l2,3h1.6l-2.8-4l2.4-3.2h-1.6
				l-2.4,3.6V378h-1.2v7.3h1.2V383.3 M105.8,368.8v-1.2h-4.6v7.3h1.2v-3.2h2.6v-1h-2.6V369h3.4 M112.3,367.5h-1.2v4.8
				c0,0.4-0.2,0.8-0.4,1s-0.6,0.4-1.2,0.4c-0.4,0-0.6-0.2-0.8-0.4c-0.2-0.2-0.4-0.6-0.4-1v-4.8h-1.4v5c0,0.8,0.2,1.2,0.8,1.6
				c0.4,0.4,1,0.6,1.8,0.6s1.6-0.2,2-0.6c0.4-0.4,0.8-1,0.8-1.6L112.3,367.5 M118.1,395c0.4-0.6,0.6-1.6,0.6-2.8
				c0-2.4-0.8-3.8-2.6-3.8c-0.8,0-1.4,0.4-2,1c-0.4,0.6-0.6,1.6-0.6,2.6c0,1.4,0.2,2.4,0.6,3c0.4,0.6,1,1,2,1
				C117.1,396,117.7,395.8,118.1,395 M116.3,389.5c0.4,0,0.8,0.2,1,0.6c0.2,0.4,0.2,1,0.2,2c0,1,0,1.8-0.2,2.2
				c-0.2,0.4-0.6,0.6-1,0.6s-0.8-0.2-1-0.8c-0.2-0.4-0.4-1.2-0.4-2C115.1,390.5,115.5,389.5,116.3,389.5 M122.6,388.5H122l-2.8,7.3
				h1.4l0.6-1.6h2.4l0.6,1.6h1.4L122.6,388.5 M123.2,393.5h-1.6l1-2.8L123.2,393.5 M128.4,379c-0.4,0.6-0.6,1.6-0.6,2.6
				c0,1.4,0.2,2.4,0.6,3c0.4,0.6,1,1,2,1c0.8,0,1.4-0.4,1.8-1c0.4-0.6,0.8-1.6,0.8-2.8c0-2.4-0.8-3.8-2.6-3.8
				C129.6,378,129,378.4,128.4,379 M129.4,383.7c-0.2-0.4-0.4-1.2-0.4-2c0-1.8,0.4-2.6,1.4-2.6c0.4,0,0.6,0.2,1,0.6
				c0.2,0.4,0.2,1,0.2,2s0,1.8-0.2,2.2s-0.6,0.6-1,0.6C129.8,384.5,129.4,384.3,129.4,383.7 M122.2,379.2l0.8,0.8
				c0.4-0.6,0.8-0.8,1.2-0.8c0.6,0,1,0.2,1,0.8c0,0.4-0.2,1-0.8,1.8l-2.2,3.2v0.4h4.6v-1h-2.6l1.4-2.2c0.6-0.8,0.8-1.4,0.8-2
				s-0.2-1-0.6-1.4c-0.4-0.4-1-0.6-1.6-0.6c-0.4,0-0.8,0.2-1.2,0.4C122.6,378.6,122.4,378.8,122.2,379.2 M115.9,381.3l2.4-3.2h-1.6
				l-2.4,3.6V378h-1.4v7.3h1.4v-2l0.8-1l2,3h1.6L115.9,381.3 M120.2,370.4v-1.6h3.4v-1.2H119v7.3h4.6v-1h-3.2v-2.2h2.4v-1h-2.6
				 M117.5,367.9c-0.4-0.4-1-0.6-1.8-0.6c-0.6,0-1.2,0.2-1.6,0.6s-0.6,0.8-0.6,1.2s0,0.6,0.2,0.8c0,0.2,0.2,0.4,0.4,0.6
				s0.6,0.4,1.2,0.8c0.6,0.2,1,0.4,1,0.6s0.2,0.4,0.2,0.8c0,0.6-0.4,0.8-1.2,0.8c-0.4,0-1-0.2-1.4-0.6l-0.6,1.2
				c0.6,0.4,1.2,0.6,1.8,0.6c0.8,0,1.4-0.2,1.8-0.6c0.4-0.4,0.8-1,0.8-1.6c0-0.4,0-0.6,0-0.8c-0.2-0.2-0.4-0.6-0.6-0.8
				c-0.2-0.2-0.6-0.4-1.2-0.8c-0.8-0.4-1.2-0.8-1.2-1.2c0-0.2,0-0.4,0.2-0.6s0.4-0.2,0.8-0.2c0.4,0,1,0.2,1.4,0.6L117.5,367.9
				 M131,367.5h-0.6c-0.6,0.6-1.2,1.2-2.2,1.6v1.2l1.6-0.8v5.2h1.2V367.5z"/>
		</g>
	</g>
</g>
<g transform="matrix( 1, 0, 0, 1, 0,0) ">
	<g>
		<g id="Layer5_769_FILL">
			<path fill="#FFFFFF" d="M336.3,393.3h1.4l0.6-1.6h2.6l0.6,1.6h1.4l-3-7.3h-0.6L336.3,393.3 M339.5,388.1l0.8,2.6h-1.6
				L339.5,388.1 M330,393.3v-1h-2.6l1.4-2.4c0.6-0.8,0.8-1.4,0.8-2c0-0.6-0.2-1-0.6-1.4c-0.4-0.4-1-0.6-1.6-0.6
				c-0.4,0-0.8,0.2-1.2,0.4c-0.4,0.2-0.6,0.4-0.8,0.8l0.8,0.6c0.4-0.6,0.8-0.8,1.2-0.8c0.6,0,1,0.2,1,0.8c0,0.4-0.2,1-0.8,1.8
				l-2.2,3.2v0.4h4.6 M331.7,386.9c-0.4,0.6-0.6,1.6-0.6,2.6c0,1.4,0.2,2.4,0.6,3c0.4,0.6,1,0.8,2,0.8c0.8,0,1.4-0.4,1.8-1
				c0.4-0.6,0.8-1.6,0.8-2.6c0-2.4-0.8-3.8-2.6-3.8C332.7,385.9,332.1,386.3,331.7,386.9 M334.5,387.5c0.2,0.4,0.2,1,0.2,2
				s0,1.8-0.2,2.2c-0.2,0.4-0.6,0.6-1,0.6s-0.8-0.2-1-0.6c-0.2-0.4-0.4-1.2-0.4-2.2c0-1.8,0.4-2.6,1.4-2.6
				C333.9,386.9,334.3,387.1,334.5,387.5 M331.5,375.4H330v7.3h1.4v-2l0.8-1l2,3h1.6l-2.6-4l2.2-3.2h-1.6l-2.4,3.6V375.4
				 M323.4,375.4v1.2h2.2v6h1.2v-6h2.4v-1.2H323.4 M329.4,370v-5h-1.2v5c0,0.4-0.2,0.6-0.4,0.8c-0.2,0.2-0.6,0.4-1,0.4
				s-0.6-0.2-1-0.4c-0.2-0.2-0.4-0.4-0.4-0.8v-5H324v5c0,0.8,0.2,1.4,0.6,1.8c0.4,0.4,1,0.6,2,0.6c0.8,0,1.6-0.2,2-0.6
				C329.2,371.2,329.4,370.8,329.4,370 M332.9,365.9c0.4,0,1,0.2,1.4,0.6l0.4-1c-0.4-0.4-1-0.6-1.8-0.6c-0.6,0-1.2,0.2-1.6,0.6
				c-0.4,0.4-0.6,0.8-0.6,1.2c0,0.4,0,0.6,0.2,1c0,0.2,0.2,0.4,0.4,0.6c0.2,0.2,0.6,0.4,1,0.8c0.6,0.2,1,0.6,1.2,0.8
				s0.2,0.4,0.2,0.8c0,0.6-0.4,0.8-1.2,0.8c-0.4,0-1-0.2-1.4-0.6l-0.6,1c0.6,0.4,1.2,0.4,1.8,0.6c0.8,0,1.4-0.2,1.8-0.6
				c0.4-0.4,0.8-0.8,0.8-1.6c0-0.4,0-0.6-0.2-0.8c-0.2-0.2-0.2-0.6-0.6-0.8c-0.2-0.2-0.6-0.4-1-0.6c-0.8-0.4-1.2-0.8-1.2-1.4
				c0-0.2,0-0.4,0.2-0.6C332.3,365.9,332.5,365.9,332.9,365.9 M341.3,375.4c-0.4,0-0.8,0.2-1.2,0.4c-0.4,0.2-0.6,0.4-0.8,0.8
				l0.8,0.6c0.4-0.6,0.8-0.8,1.2-0.8c0.6,0,1,0.2,1,0.8c0,0.4-0.2,1-0.6,1.8l-2.2,3.2v0.4h4.6v-1h-2.6l1.4-2.4
				c0.6-0.8,0.8-1.4,0.8-2c0-0.6-0.2-1-0.6-1.4C342.7,375.6,342.1,375.4,341.3,375.4 M347.6,375.4c-0.8,0-1.4,0.4-2,1
				c-0.4,0.6-0.8,1.6-0.8,2.6c0,1.4,0.2,2.4,0.6,3c0.4,0.6,1,0.8,1.8,0.8c0.8,0,1.4-0.4,2-1c0.4-0.6,0.8-1.6,0.8-2.6
				C350,376.6,349.2,375.4,347.6,375.4 M347.6,376.4c0.4,0,0.6,0.2,0.8,0.6c0.2,0.4,0.4,1,0.4,2s0,1.8-0.4,2.2
				c-0.2,0.4-0.6,0.6-1,0.6c-0.4,0-0.8-0.2-0.8-0.6c-0.2-0.4-0.4-1.2-0.4-2.2C346.2,377.2,346.6,376.4,347.6,376.4 M339.7,368.8
				v-1.2h-2.4v-1.6h3.4v-1h-4.6v7.3h4.6V371h-3.4v-2.2H339.7 M346.8,364.7c-0.4,0-0.8,0.2-1.2,0.4c-0.4,0.2-0.6,0.4-0.8,0.8l0.8,0.6
				c0.4-0.6,0.8-0.8,1.2-0.8c0.6,0,1,0.2,1,0.8c0,0.4-0.2,1-0.6,1.8l-2.2,3.2v0.4h4.6v-1H347l1.4-2.4c0.6-0.8,0.8-1.4,0.8-2
				c0-0.6-0.2-1-0.6-1.4C348.2,364.9,347.6,364.7,346.8,364.7 M318.1,364.9v7.3h1.4V369h2.6v-1.2h-2.6v-1.6h3.4v-1.2H318.1
				 M317.7,375.4v7.3h1.4v-2l0.8-1l2,3h1.6l-2.8-4l2.4-3.2h-1.6l-2.4,3.6v-3.6H317.7z"/>
		</g>
	</g>
</g>
</svg>
