<?xml version="1.0" encoding="utf-8"?>
<!-- Generator: Adobe Illustrator 18.0.0, SVG Export Plug-In . SVG Version: 6.00 Build 0)  -->
<!DOCTYPE svg PUBLIC "-//W3C//DTD SVG 1.1//EN" "http://www.w3.org/Graphics/SVG/1.1/DTD/svg11.dtd">
<svg version="1.1" id="Layer_1" xmlns="http://www.w3.org/2000/svg" xmlns:xlink="http://www.w3.org/1999/xlink" x="0px" y="0px"
	 viewBox="0 0 450 450" enable-background="new 0 0 450 450" xml:space="preserve">
<g transform="matrix( 0.5235748291015625, 0, 0, 0.586517333984375, -288.75,22.8) ">
	<g>
		<g id="Layer5_376_MEMBER_0_FILL">
			<path fill="#DFE6EC" d="M1213.6,95V-39H749V95C749,95,1213.6,95,1213.6,95z"/>
		</g>
	</g>
</g>
<g transform="matrix( 1, 0, 0, 1, 0,0) ">
	<g>
		<g id="Layer5_376_MEMBER_1_FILL">
			
				<radialGradient id="SVGID_1_" cx="-60.3378" cy="225.2257" r="2.4587" gradientTransform="matrix(2.5134 2.5134 -2.5134 2.5134 832.7982 -374.8983)" gradientUnits="userSpaceOnUse">
				<stop  offset="0" style="stop-color:#A5A39C"/>
				<stop  offset="1" style="stop-color:#34342F"/>
			</radialGradient>
			<path fill="url(#SVGID_1_)" d="M108.6,33.4c-1.4,1.8-2.1,3.6-2.1,6.4c0,2.5,0.7,4.6,2.1,5.7c1.8,1.8,3.9,2.8,6.4,2.8
				c2.1,0,4.3-1.1,6-2.8c1.8-1.4,2.5-3.6,2.5-5.7c0-2.5-0.7-4.6-2.5-6.4c-1.8-1.8-3.9-2.5-6-2.5C112.5,30.9,110.4,31.6,108.6,33.4
				 M118.5,37.3c0,0.4,0,0.7-0.4,1.4l-1.1,0.7l1.1,1.1c0.4,0.4,0.4,0.7,0.4,1.1c0,0.4,0,0.4-0.4,0.7c-0.4,0.7-0.7,1.1-1.1,1.1
				c-0.4,0-0.7,0-1.1-0.7l-0.7-1.1l-1.1,0.7c-0.4,0.7-0.7,1.1-1.1,1.1c-0.4,0-1.1,0-1.4-0.7v-0.4c-0.4-0.4-0.7-0.4-0.7-0.7
				s0.4-1.1,0.7-1.1l1.1-1.1l-1.1-0.7c-0.4-0.7-0.7-1.1-0.7-1.4c0,0,0.4-0.4,0.7-1.1c0.4-0.4,1.1-0.7,1.4-0.7c0.4,0,0.7,0,1.1,0.4
				l1.1,1.1l0.7-0.7c0.4-0.4,0.7-0.7,1.1-0.7c0.4,0,1.1,0,1.1,0.4l0,0C118.2,36.6,118.5,37,118.5,37.3z"/>
			<path fill="#010101" d="M118.2,38.7c0.4-0.7,0.4-1.1,0.4-1.4c0-0.4,0-0.7-0.4-1.1l0,0c-0.4-0.4-0.7-0.4-1.1-0.4
				c-0.4,0-0.7,0.4-1.1,0.7l-0.7,0.7l-1.1-1.1c-0.4-0.4-0.7-0.4-1.1-0.4s-1.1,0.4-1.4,0.7c-0.4,0.4-0.7,0.7-0.7,1.1
				c0,0.4,0.4,0.7,0.7,1.4l1.1,0.7l-1.1,1.1c-0.4,0.4-0.7,0.7-0.7,1.1c0,0.4,0.4,0.4,0.7,0.7v0c0.4,0.4,1.1,0.7,1.4,0.7
				c0.4,0,0.7-0.4,1.1-1.1l1.1-0.7l0.4,1.1c0.4,0.4,0.7,0.7,1.1,0.7c0.4,0,1.1-0.4,1.1-1.1c0.4-0.4,0.4-0.4,0.4-0.7
				c0-0.7,0-1.1-0.4-1.1l-1.1-1.1L118.2,38.7z"/>
		</g>
	</g>
</g>
<g transform="matrix( 1, 0, 0, 1, 0,0) ">
	<g>
		<g id="Layer5_376_MEMBER_2_FILL">
			
				<radialGradient id="SVGID_2_" cx="-60.3378" cy="225.2228" r="2.4572" gradientTransform="matrix(2.5134 2.5134 -2.5134 2.5134 1051.5779 -374.8983)" gradientUnits="userSpaceOnUse">
				<stop  offset="0" style="stop-color:#A5A39C"/>
				<stop  offset="1" style="stop-color:#34342F"/>
			</radialGradient>
			<path fill="url(#SVGID_2_)" d="M333.9,30.9c-2.5,0-4.6,0.7-6,2.5c-1.8,1.8-2.5,3.9-2.5,6.4c0,2.5,0.7,4.6,2.5,5.7
				c1.4,1.8,3.6,2.8,6,2.8c2.5,0,4.3-1.1,6-2.8c1.8-1.4,2.8-3.6,2.8-5.7c0-2.5-1.1-4.6-2.8-6.4C338.2,31.6,336.1,30.9,333.9,30.9
				 M331.5,39.5l-0.7-0.7c-0.4-0.7-0.7-1.1-0.7-1.1c0-0.4,0.4-0.7,0.7-1.1c0.4-0.4,0.7-0.7,1.1-0.4c0.7,0,1.1,0,1.4,0.4l1.1,0.7
				l0.7-1.1c0.4-0.4,1.1-0.4,1.4-0.4c0.4,0,0.7,0,1.1,0.4c0.4,0.4,0.7,0.7,0.7,1.1c0,0.4-0.4,0.7-0.7,1.1l-1.4,1.1l0.7,1.1
				c0.4,0.4,0.7,0.7,0.7,1.4c0,0-0.4,0.4-0.7,0.7c-0.4,0.7-0.4,1.1-1.1,1.1c-0.4,0-1.1,0-1.4-0.7l-0.7-1.1l-0.7,0.7
				c-0.4,0.4-0.7,0.7-1.4,0.7c-0.4,0-0.7-0.4-1.1-1.1c-0.4-0.4-0.7-0.4-0.7-0.7c0-0.7,0.4-1.1,0.7-1.4L331.5,39.5z"/>
			<path fill="#010101" d="M330.7,38.7l0.7,0.7l-0.7,1.1c-0.4,0.4-0.7,0.7-0.7,1.4c0,0,0.4,0.4,0.7,0.7c0.4,0.7,0.7,1.1,1.1,1.1
				c0.7,0,1.1,0,1.4-0.7l1.1-1.1L335,43c0.4,0.4,1.1,0.7,1.4,0.7c0.4,0,0.7-0.4,1.1-1.1c0.4-0.4,0.7-0.4,0.7-0.7
				c0-0.7-0.4-1.1-0.7-1.4l-1.4-1.1l0.7-0.7c0.4-0.7,0.7-1.1,0.7-1.1c0-0.4-0.4-0.7-0.7-1.1c-0.4-0.4-0.4-0.4-1.1-0.4
				c-0.4,0-1.1,0-1.4,0.4l-0.7,1.1l-1.1-0.7c-0.4-0.4-0.7-0.7-1.4-0.4c-0.4,0-0.7,0-1.1,0.4c-0.4,0.4-0.7,0.7-0.7,1.1
				C330,37.7,330.4,38.4,330.7,38.7z"/>
		</g>
	</g>
</g>
<g transform="matrix( 0.4074554443359375, 0, 0, 0.4074554443359375, -308.3,35.5) ">
	<g>
		<g id="Layer5_454_FILL">
			<path fill="#232324" d="M1751,229.3c0-26.7-9.6-49.4-28.4-68.6c-18.8-18.8-41.6-28.4-68.2-28.4H962.6c-26.7,0-49.4,9.6-68.6,28.4
				c-18.8,18.8-28.1,41.9-28.1,68.6V921c0,26.7,9.6,49.4,28.1,68.2c18.8,18.8,41.9,28.4,68.6,28.4h691.7c26.7,0,49.4-9.6,68.2-28.4
				c18.8-18.8,28.4-41.6,28.4-68.2L1751,229.3L1751,229.3z"/>
		</g>
	</g>
</g>
<g transform="matrix( 0.4074554443359375, 0, 0, 0.4074554443359375, -308.3,35.5) ">
	<g>
		<g id="Layer5_455_FILL">
			<path fill="#010101" d="M1739.7,575.2c0-119.1-41.9-220.7-126.2-305s-185.9-126.5-305-126.5s-220.4,42.3-305,126.5
				C919.3,354.4,877,456.1,877,575.2s41.9,220.7,126.5,305c84.2,84.2,185.9,126.5,305,126.5s220.7-42.3,305-126.5
				C1697.7,795.6,1739.7,693.9,1739.7,575.2z"/>
		</g>
	</g>
</g>
<g transform="matrix( 0.4074554443359375, 0, 0, 0.4074554443359375, -308.3,35.5) ">
	<g>
		<g id="Layer5_456_FILL">
			<path fill="#E8E3DD" d="M1717.6,575.2c0-113-39.8-209.4-119.8-289.3S1421.5,166,1308.5,166c-113,0-209.4,39.8-289.3,119.8
				S899.4,462.1,899.4,575.2s39.8,209.4,119.8,289.3s176.3,119.8,289.3,119.8c113,0,209.4-39.8,289.3-119.8
				C1677.8,784.2,1717.6,687.8,1717.6,575.2z"/>
		</g>
	</g>
</g>
<g transform="matrix( 1, 0, 0, 1, 0,0) ">
	<g>
		<g id="Layer5_457_FILL">
			
				<radialGradient id="SVGID_3_" cx="-138.4749" cy="286.5832" r="3.9125" gradientTransform="matrix(3.5545 0 0 3.5545 575.1185 -896.5034)" gradientUnits="userSpaceOnUse">
				<stop  offset="0" style="stop-color:#505050"/>
				<stop  offset="1" style="stop-color:#010101"/>
			</radialGradient>
			<path fill="url(#SVGID_3_)" d="M73,112.3c-2.8,2.8-3.9,6-3.9,10c0,3.9,1.4,7.1,3.9,10c2.8,2.5,6,3.9,10,3.9c3.9,0,7.1-1.4,10-3.9
				c2.8-2.8,3.9-6,3.9-10c0-3.9-1.4-7.1-3.9-10c-2.5-2.8-6-4.3-10-4.3C79.1,108.1,75.9,109.5,73,112.3 M87.3,119.4
				c0.7,0,1.4,0.4,2.1,1.1c0.4,0.4,0.7,1.1,0.7,1.8c0,0.7-0.4,1.4-0.7,2.1c-0.4,0.4-1.1,0.7-2.1,0.7h-1.8v1.8c0,0.7-0.4,1.4-1.1,1.8
				c-0.4,0.4-0.7,0.7-1.8,0.7c-0.7,0-1.4-0.4-1.8-0.7c-0.4-0.4-0.7-1.1-0.7-1.8v-1.8h-1.8c-0.7,0-1.1-0.4-1.4-0.7
				c-0.7-0.7-1.1-1.1-1.1-2.1c0-0.7,0.4-1.4,1.1-1.8c0.4-0.7,1.1-1.1,1.4-1.1h2.1v-1.8c0-0.7,0.4-1.4,0.7-1.8
				c0.4-0.4,1.1-0.7,1.8-0.7c1.1,0,1.4,0.4,1.8,0.7c0.7,0.4,1.1,1.1,1.1,1.8v1.8H87.3z"/>
			<path fill="#010101" d="M89.4,120.5c-0.4-0.7-1.1-1.1-2.1-1.1h-1.8v-1.8c0-0.7-0.4-1.4-1.1-1.8c-0.4-0.4-0.7-0.7-1.8-0.7
				c-0.7,0-1.4,0.4-1.8,0.7c-0.4,0.4-0.7,1.1-0.7,1.8v1.8h-1.8c-0.7,0-1.1,0.4-1.4,1.1c-0.7,0.4-1.1,1.1-1.1,1.8
				c0,0.7,0.4,1.4,1.1,2.1c0.4,0.4,1.1,0.7,1.4,0.7h2.1v1.8c0,0.7,0.4,1.4,0.7,1.8c0.4,0.4,1.1,0.7,1.8,0.7c1.1,0,1.4-0.4,1.8-0.7
				c0.7-0.4,1.1-1.1,1.1-1.8v-1.8h1.4c0.7,0,1.4-0.4,2.1-0.7c0.4-0.7,0.7-1.1,0.7-2.1C90.1,121.2,89.8,120.9,89.4,120.5z"/>
		</g>
	</g>
</g>
<g transform="matrix( 1, 0, 0, 1, 0,0) ">
	<g>
		<g id="Layer5_458_FILL">
			
				<radialGradient id="SVGID_4_" cx="-138.4749" cy="286.5832" r="3.9125" gradientTransform="matrix(3.5545 0 0 3.5545 865.8768 -896.5034)" gradientUnits="userSpaceOnUse">
				<stop  offset="0" style="stop-color:#505050"/>
				<stop  offset="1" style="stop-color:#010101"/>
			</radialGradient>
			<path fill="url(#SVGID_4_)" d="M363.8,112.3c-2.8,2.8-4.3,6-4.3,10c0,3.9,1.4,7.1,4.3,10c2.5,2.5,5.7,3.9,10,3.9
				c3.9,0,7.1-1.4,10-3.9c2.5-2.8,3.9-6,3.9-10c0-3.9-1.4-7.1-3.9-10c-2.8-2.8-6-4.3-10-4.3C369.8,108.1,366.6,109.5,363.8,112.3
				 M376.2,119.4h1.8c0.7,0,1.4,0.4,1.8,1.1c0.4,0.4,0.7,1.1,0.7,1.8c0,0.7-0.4,1.4-0.7,2.1c-0.4,0.4-1.1,0.7-1.8,0.7h-1.8v1.8
				c0,0.7-0.4,1.4-1.1,1.8c-0.4,0.4-1.1,0.7-1.8,0.7c-0.7,0-1.4-0.4-2.1-0.7c-0.4-0.4-0.7-1.1-0.7-1.8v-1.8h-2.1
				c-0.7,0-1.1-0.4-1.4-0.7c-0.4-0.7-0.7-1.1-0.7-2.1c0-0.7,0.4-1.4,0.7-1.8c0.4-0.7,1.1-1.1,1.4-1.1h2.1v-1.8
				c0-0.7,0.4-1.4,0.7-1.8c0.4-0.4,1.1-0.7,2.1-0.7c0.7,0,1.4,0.4,1.8,0.7c0.7,0.4,1.1,1.1,1.1,1.8V119.4z"/>
			<path fill="#010101" d="M378,119.4h-1.8v-1.8c0-0.7-0.4-1.4-1.1-1.8c-0.4-0.4-1.1-0.7-1.8-0.7c-0.7,0-1.4,0.4-2.1,0.7
				c-0.4,0.4-0.7,1.1-0.7,1.8v1.8h-2.1c-0.7,0-1.1,0.4-1.4,1.1c-0.4,0.4-0.7,1.1-0.7,1.8c0,0.7,0.4,1.4,0.7,2.1
				c0.4,0.4,1.1,0.7,1.4,0.7h2.1v1.8c0,0.7,0.4,1.4,0.7,1.8c0.4,0.4,1.1,0.7,2.1,0.7c0.7,0,1.4-0.4,1.8-0.7c0.7-0.4,1.1-1.1,1.1-1.8
				v-1.8h1.8c0.7,0,1.4-0.4,1.8-0.7c0.4-0.7,0.7-1.1,0.7-2.1c0-0.7-0.4-1.4-0.7-1.8C379.4,119.8,379.1,119.4,378,119.4z"/>
		</g>
	</g>
</g>
<g transform="matrix( 1, 0, 0, 1, 0,0) ">
	<g>
		<g id="Layer5_459_FILL">
			
				<radialGradient id="SVGID_5_" cx="-138.4749" cy="286.5832" r="3.9125" gradientTransform="matrix(3.5545 0 0 3.5545 865.8768 -599.7025)" gradientUnits="userSpaceOnUse">
				<stop  offset="0" style="stop-color:#505050"/>
				<stop  offset="1" style="stop-color:#010101"/>
			</radialGradient>
			<path fill="url(#SVGID_5_)" d="M387.3,419.1c0-3.9-1.4-7.1-3.9-10c-2.8-2.5-6-3.9-10-3.9c-3.9,0-7.1,1.4-10,3.9
				c-2.8,2.8-4.3,6.4-4.3,10s1.4,7.1,4.3,10c2.8,2.8,6,4.3,10,4.3c3.9,0,7.1-1.4,10-4.3C386.2,425.8,387.3,422.6,387.3,419.1
				 M369.1,416.2h1.8v-1.8c0-0.7,0.4-1.1,0.7-1.8c0.4-0.4,1.1-0.7,2.1-0.7h0.4c0.7,0,1.1,0.4,1.4,0.7c0.7,0.7,1.1,1.1,1.1,1.8v1.8
				h1.8c0.7,0,1.4,0.4,1.8,1.1c0.4,0.4,0.7,1.1,0.7,1.8c0,0.7-0.4,1.4-0.7,1.8c-0.4,0.4-1.1,0.7-1.8,0.7h-1.8v2.1
				c0,0.7-0.4,1.4-1.1,1.8c-0.4,0.4-1.1,0.7-1.4,0.7h-0.4c-0.7,0-1.4-0.4-2.1-0.7c-0.7-0.4-0.7-1.1-0.7-1.8v-2.1h-1.8
				c-0.7,0-1.4-0.4-2.1-0.7c-0.7-0.4-0.7-1.1-0.7-1.8c0-0.7,0.4-1.4,0.7-1.8C367.7,416.6,368.4,416.2,369.1,416.2z"/>
			<path fill="#010101" d="M370.9,416.2h-1.8c-0.7,0-1.4,0.4-2.1,1.1c-0.4,0.4-0.7,1.1-0.7,1.8c0,0.7,0.4,1.4,0.7,1.8
				c0.4,0.4,1.1,0.7,2.1,0.7h1.8v2.1c0,0.7,0.4,1.4,0.7,1.8s1.1,0.7,2.1,0.7h0.4c0.7,0,1.1-0.4,1.4-0.7c0.7-0.4,1.1-1.1,1.1-1.8
				v-2.1h1.8c0.7,0,1.4-0.4,1.8-0.7c0.4-0.4,0.7-1.1,0.7-1.8c0-0.7-0.4-1.4-0.7-1.8c-0.4-0.7-1.1-1.1-1.8-1.1h-1.8v-1.8
				c0-0.7-0.4-1.1-1.1-1.8c-0.4-0.4-1.1-0.7-1.4-0.7h-0.4c-0.7,0-1.4,0.4-2.1,0.7c-0.4,0.7-0.7,1.1-0.7,1.8V416.2z"/>
		</g>
	</g>
</g>
<g transform="matrix( 1, 0, 0, 1, 0,0) ">
	<g>
		<g id="Layer5_460_FILL">
			
				<radialGradient id="SVGID_6_" cx="-138.4749" cy="286.5832" r="3.9125" gradientTransform="matrix(3.5545 0 0 3.5545 570.1422 -600.058)" gradientUnits="userSpaceOnUse">
				<stop  offset="0" style="stop-color:#505050"/>
				<stop  offset="1" style="stop-color:#010101"/>
			</radialGradient>
			<path fill="url(#SVGID_6_)" d="M91.9,418.7c0-3.6-1.4-6.8-4.3-10c-2.5-2.5-5.7-3.9-9.6-3.9c-3.6,0-6.8,1.4-10,3.9
				c-2.8,2.8-4.3,6.4-4.3,10c0,3.9,1.4,7.5,4.3,10c2.8,2.8,6,4.3,10,4.3c3.9,0,7.1-1.4,9.6-4.3C90.5,425.8,91.9,422.6,91.9,418.7
				 M75.9,412.7c0.7-0.4,1.4-0.7,2.1-0.7h0.4c0.7,0,1.1,0.4,1.4,0.7c0.7,0.7,1.1,1.1,1.1,1.8v1.8h1.8c0.7,0,1.4,0.4,2.1,1.1
				c0.4,0.4,0.7,0.7,0.7,1.4v0.4c0,0.7-0.4,1.4-0.7,1.8c-0.7,0.4-1.4,0.7-2.1,0.7h-1.8v1.8c0,0.7-0.4,1.4-1.1,2.1
				c-0.4,0.4-0.7,0.7-1.4,0.7H78c-0.7,0-1.4-0.4-2.1-0.7c-0.4-0.4-0.7-1.1-0.7-2.1v-1.8h-1.4c-0.7,0-1.4-0.4-1.8-0.7
				c-0.4-0.4-0.7-1.1-0.7-1.8v-0.4c0-0.7,0.4-1.1,0.7-1.4c0.4-0.7,1.1-1.1,1.8-1.1h1.8v-1.8C75.5,413.7,75.5,413,75.9,412.7z"/>
			<path fill="#010101" d="M78,412c-0.7,0-1.4,0.4-2.1,0.7c-0.4,0.7-0.7,1.1-0.7,1.8v1.8h-1.4c-0.7,0-1.4,0.4-1.8,1.1
				c-0.4,0.4-0.7,0.7-0.7,1.4v0.4c0,0.7,0.4,1.4,0.7,1.8c0.4,0.4,1.1,0.7,1.8,0.7h1.8v1.8c0,0.7,0.4,1.4,0.7,2.1
				c0.7,0.4,1.4,0.7,2.1,0.7h0.4c0.7,0,1.1-0.4,1.4-0.7c0.7-0.4,1.1-1.1,1.1-2.1v-1.8H83c0.7,0,1.4-0.4,2.1-0.7
				c0.4-0.4,0.7-1.1,0.7-1.8v-0.4c0-0.7-0.4-1.1-0.7-1.4c-0.7-0.7-1.4-1.1-2.1-1.1h-1.8v-1.8c0-0.7-0.4-1.1-1.1-1.8
				C79.4,412,79.1,412,78,412L78,412z"/>
		</g>
	</g>
</g>
<g transform="matrix( 1, 0, 0, 1, 0,0) ">
	<g>
		<g id="Layer5_461_FILL">
			<path fill="#16151A" d="M113.6,346.9l-26.7,11.7l6.8,9.6L113.6,346.9z"/>
		</g>
	</g>
</g>
<g transform="matrix( 1, 0, 0, 1, 0,0) ">
	<g>
		<g id="Layer5_462_FILL">
			<path fill="#16151A" d="M89.8,257.3L62,248.8L61,260.2L89.8,257.3z"/>
		</g>
	</g>
</g>
<g transform="matrix( 1, 0, 0, 1, 0,0) ">
	<g>
		<g id="Layer5_463_FILL">
			<path fill="#16151A" d="M113.6,148.9l-8.2,8.2l24.2,16L113.6,148.9z"/>
		</g>
	</g>
</g>
<g transform="matrix( 1, 0, 0, 1, 0,0) ">
	<g>
		<g id="Layer5_464_FILL">
			<path fill="#16151A" d="M213.8,134.4l3.6-28.8l-11.7,1.1L213.8,134.4z"/>
		</g>
	</g>
</g>
<g transform="matrix( 1, 0, 0, 1, 0,0) ">
	<g>
		<g id="Layer5_465_FILL">
			<path fill="#16151A" d="M303,158.9l21.3-19.5l-9.2-6.8L303,158.9z"/>
		</g>
	</g>
</g>
<g transform="matrix( 1, 0, 0, 1, 0,0) ">
	<g>
		<g id="Layer5_466_FILL">
			<path fill="#16151A" d="M356.3,235l28.8-1.1l-2.8-11.7L356.3,235z"/>
		</g>
	</g>
</g>
<g transform="matrix( 1, 0, 0, 1, 0,0) ">
	<g>
		<g id="Layer5_467_FILL">
			<path fill="#16151A" d="M348.2,327.7l22.7,17.4l5-10.3L348.2,327.7z"/>
		</g>
	</g>
</g>
<g transform="matrix( 0.51861572265625, -0.5186309814453125, 0.2881317138671875, 0.2881317138671875, -439.4,750.4) ">
	<g>
		<g id="Layer5_468_FILL">
			<path fill="#010101" d="M1102,653v55.5v2.5h3.6V653H1102z"/>
		</g>
	</g>
</g>
<g transform="matrix( 0.2098388671875, 0.3492279052734375, -0.3492279052734375, 0.2098388671875, -65.6,-325.15) ">
	<g>
		<g id="Layer5_469_FILL">
			<path fill="#010101" d="M1617.5,475.9v57.9h3.6v-57.9H1617.5z"/>
		</g>
	</g>
</g>
<g transform="matrix( 0.1849822998046875, 0.363006591796875, -0.363006591796875, 0.1849822998046875, -34.25,-341.8) ">
	<g>
		<g id="Layer5_470_FILL">
			<path fill="#010101" d="M1626.1,448.4v57.9h3.6l0-57.9H1626.1z"/>
		</g>
	</g>
</g>
<g transform="matrix( 0.1591949462890625, 0.375030517578125, -0.375030517578125, 0.1591949462890625, -2.25,-356.25) ">
	<g>
		<g id="Layer5_471_FILL">
			<path fill="#010101" d="M1631.6,422.8v58.3h3.6v-58.3H1631.6z"/>
		</g>
	</g>
</g>
<g transform="matrix( 0.1326446533203125, 0.3852386474609375, -0.3852386474609375, 0.1326446533203125, 30.9,-368.45) ">
	<g>
		<g id="Layer5_472_FILL">
			<path fill="#010101" d="M1635.7,395.5l0,57.9h3.6v-57.9H1635.7z"/>
		</g>
	</g>
</g>
<g transform="matrix( 0.0777435302734375, 0.3999176025390625, -0.3999176025390625, 0.0777435302734375, 99.35,-385.7) ">
	<g>
		<g id="Layer5_473_FILL">
			<path fill="#010101" d="M1638.1,340.5l0,57.9h3.6v-57.9H1638.1z"/>
		</g>
	</g>
</g>
<g transform="matrix( 0.049652099609375, 0.4044036865234375, -0.4044036865234375, 0.049652099609375, 134.3,-390.9) ">
	<g>
		<g id="Layer5_474_FILL">
			<path fill="#010101" d="M1635.7,313.1v58.3h3.6v-58.3H1635.7z"/>
		</g>
	</g>
</g>
<g transform="matrix( 0.0213165283203125, 0.406890869140625, -0.406890869140625, 0.0213165283203125, 169.45,-393.6) ">
	<g>
		<g id="Layer5_475_FILL">
			<path fill="#010101" d="M1631.4,286.3l0,57.9h3.6v-57.9H1631.4z"/>
		</g>
	</g>
</g>
<g transform="matrix( -0.0071258544921875, 0.4073638916015625, -0.4073638916015625, -0.0071258544921875, 205,-393.85) ">
	<g>
		<g id="Layer5_476_FILL">
			<path fill="#010101" d="M1624.8,258.1V316h3.6v-57.9H1624.8z"/>
		</g>
	</g>
</g>
<g transform="matrix( -0.0637359619140625, 0.4023895263671875, -0.4023895263671875, -0.0637359619140625, 275.3,-386.55) ">
	<g>
		<g id="Layer5_477_FILL">
			<path fill="#010101" d="M1608.9,205.4v57.9h3.6v-57.9H1608.9z"/>
		</g>
	</g>
</g>
<g transform="matrix( -0.091644287109375, 0.397003173828125, -0.397003173828125, -0.091644287109375, 309.85,-379.4) ">
	<g>
		<g id="Layer5_478_FILL">
			<path fill="#010101" d="M1597.7,180.5v58.3h3.6v-58.3H1597.7z"/>
		</g>
	</g>
</g>
<g transform="matrix( -0.1191253662109375, 0.3896331787109375, -0.3896331787109375, -0.1191253662109375, 344,-369.9) ">
	<g>
		<g id="Layer5_479_FILL">
			<path fill="#010101" d="M1584,155.5v58.3l3.6,0l0-58.3H1584z"/>
		</g>
	</g>
</g>
<g transform="matrix( -0.1460113525390625, 0.3803863525390625, -0.3803863525390625, -0.1460113525390625, 377.2,-357.85) ">
	<g>
		<g id="Layer5_480_FILL">
			<path fill="#010101" d="M1569.9,132.2v58.3l3.6,0v-58.3L1569.9,132.2z"/>
		</g>
	</g>
</g>
<g transform="matrix( -0.1975555419921875, 0.3563690185546875, -0.3563690185546875, -0.1975555419921875, 440.8,-327.05) ">
	<g>
		<g id="Layer5_481_FILL">
			<path fill="#010101" d="M1536.7,88.7V147h3.6l0-58.3L1536.7,88.7z"/>
		</g>
	</g>
</g>
<g transform="matrix( -0.221923828125, 0.3417510986328125, -0.3417510986328125, -0.221923828125, 470.8,-308.65) ">
	<g>
		<g id="Layer5_482_FILL">
			<path fill="#010101" d="M1516.6,69.5v58.3l3.6,0V69.5H1516.6z"/>
		</g>
	</g>
</g>
<g transform="matrix( -0.2452545166015625, 0.325408935546875, -0.325408935546875, -0.2452545166015625, 499.7,-287.8) ">
	<g>
		<g id="Layer5_483_FILL">
			<path fill="#010101" d="M1496.3,49.4v57.9l3.6,0l0-57.9H1496.3z"/>
		</g>
	</g>
</g>
<g transform="matrix( -0.2673492431640625, 0.307525634765625, -0.307525634765625, -0.2673492431640625, 526.75,-265.4) ">
	<g>
		<g id="Layer5_484_FILL">
			<path fill="#010101" d="M1474.2,34l0,57.9h3.6V34L1474.2,34z"/>
		</g>
	</g>
</g>
<g transform="matrix( -0.307525634765625, 0.2673492431640625, -0.2673492431640625, -0.307525634765625, 576.1,-214.6) ">
	<g>
		<g id="Layer5_485_FILL">
			<path fill="#010101" d="M1427.7,3.3v58.3l3.6,0l0-58.3L1427.7,3.3z"/>
		</g>
	</g>
</g>
<g transform="matrix( -0.325408935546875, 0.2452545166015625, -0.2452545166015625, -0.325408935546875, 597.8,-187.05) ">
	<g>
		<g id="Layer5_486_FILL">
			<path fill="#010101" d="M1402.9-7.3V51l3.6,0l0-58.3L1402.9-7.3z"/>
		</g>
	</g>
</g>
<g transform="matrix( -0.3417510986328125, 0.221923828125, -0.221923828125, -0.3417510986328125, 617.8,-157.5) ">
	<g>
		<g id="Layer5_487_FILL">
			<path fill="#010101" d="M1378-19.3v57.9h3.6v-57.9L1378-19.3z"/>
		</g>
	</g>
</g>
<g transform="matrix( -0.3563690185546875, 0.1975555419921875, -0.1975555419921875, -0.3563690185546875, 635.6,-126.95) ">
	<g>
		<g id="Layer5_488_FILL">
			<path fill="#010101" d="M1351.2-28.2v57.9l3.6,0l0-57.9L1351.2-28.2z"/>
		</g>
	</g>
</g>
<g transform="matrix( -0.3804168701171875, 0.1460113525390625, -0.1460113525390625, -0.3804168701171875, 664.65,-62.65) ">
	<g>
		<g id="Layer5_489_FILL">
			<path fill="#010101" d="M1296.5-38.9l0,58.3l3.6,0v-58.3L1296.5-38.9z"/>
		</g>
	</g>
</g>
<g transform="matrix( -0.38970947265625, 0.119140625, -0.119140625, -0.38970947265625, 675.8,-29) ">
	<g>
		<g id="Layer5_490_FILL">
			<path fill="#010101" d="M1269.2-42.4l0,58.3l3.6,0v-58.3L1269.2-42.4z"/>
		</g>
	</g>
</g>
<g transform="matrix( -0.3970794677734375, 0.0916748046875, -0.0916748046875, -0.3970794677734375, 684.45,5.35) ">
	<g>
		<g id="Layer5_491_FILL">
			<path fill="#010101" d="M1241.7-43.9v58.3l3.6,0v-58.3L1241.7-43.9z"/>
		</g>
	</g>
</g>
<g transform="matrix( -0.40252685546875, 0.0637359619140625, -0.0637359619140625, -0.40252685546875, 690.75,40.05) ">
	<g>
		<g id="Layer5_492_FILL">
			<path fill="#010101" d="M1214-42.2v58.3h3.6v-58.3L1214-42.2L1214-42.2z"/>
		</g>
	</g>
</g>
<g transform="matrix( -0.4074554443359375, 0.0071258544921875, -0.0071258544921875, -0.4074554443359375, 695.85,110.5) ">
	<g>
		<g id="Layer5_493_FILL">
			<path fill="#010101" d="M1159.7-34.6l0,58.3l3.6,0v-58.3H1159.7z"/>
		</g>
	</g>
</g>
<g transform="matrix( -0.4780120849609375, -0.025054931640625, 0.0213165283203125, -0.4069366455078125, 783.05,150.5) ">
	<g>
		<g id="Layer5_494_FILL">
			<path fill="#010101" d="M1149-28V30h3.6V-28L1149-28z"/>
		</g>
	</g>
</g>
<g transform="matrix( -0.5225677490234375, -0.064178466796875, 0.0496673583984375, -0.40447998046875, 838.15,199.3) ">
	<g>
		<g id="Layer5_495_FILL">
			<path fill="#010101" d="M1136.1-20.7v58.3l3.6,0v-57.9L1136.1-20.7z"/>
		</g>
	</g>
</g>
<g transform="matrix( -0.5168304443359375, -0.1004638671875, 0.0777740478515625, -0.4000396728515625, 830.45,244.3) ">
	<g>
		<g id="Layer5_496_FILL">
			<path fill="#010101" d="M1116.6-10.2v57.9l3.6,0v-57.9L1116.6-10.2z"/>
		</g>
	</g>
</g>
<g transform="matrix( -0.49786376953125, -0.1714324951171875, 0.1326751708984375, -0.3852996826171875, 806,332) ">
	<g>
		<g id="Layer5_497_FILL">
			<path fill="#010101" d="M1078.8,17.1l0,58.3l3.6,0V17.1L1078.8,17.1z"/>
		</g>
	</g>
</g>
<g transform="matrix( -0.4846649169921875, -0.205718994140625, 0.15924072265625, -0.3751220703125, 789.25,374.6) ">
	<g>
		<g id="Layer5_498_FILL">
			<path fill="#010101" d="M1060.4,32.2v57.9h3.6V32.2H1060.4z"/>
		</g>
	</g>
</g>
<g transform="matrix( -0.4691619873046875, -0.239044189453125, 0.1850128173828125, -0.36309814453125, 769.4,415.7) ">
	<g>
		<g id="Layer5_499_FILL">
			<path fill="#010101" d="M1044.4,49.3v58.3h3.6V49.3L1044.4,49.3z"/>
		</g>
	</g>
</g>
<g transform="matrix( -0.451324462890625, -0.2711944580078125, 0.20989990234375, -0.3493194580078125, 746.8,455.45) ">
	<g>
		<g id="Layer5_500_FILL">
			<path fill="#010101" d="M1028.6,67.6l0,58.3h3.6V67.6L1028.6,67.6z"/>
		</g>
	</g>
</g>
<g transform="matrix( -0.4091949462890625, -0.3313446044921875, 0.2564697265625, -0.31671142578125, 693.6,529.7) ">
	<g>
		<g id="Layer5_501_FILL">
			<path fill="#010101" d="M1000,108.2l0,58.3h3.6l0-58.3H1000z"/>
		</g>
	</g>
</g>
<g transform="matrix( -0.3851165771484375, -0.3590850830078125, 0.277923583984375, -0.2980499267578125, 663.3,563.95) ">
	<g>
		<g id="Layer5_502_FILL">
			<path fill="#010101" d="M987.2,130.2l0,57.9h3.6l0-57.9H987.2z"/>
		</g>
	</g>
</g>
<g transform="matrix( -0.3590850830078125, -0.38507080078125, 0.2980499267578125, -0.277923583984375, 630.65,595.9) ">
	<g>
		<g id="Layer5_503_FILL">
			<path fill="#010101" d="M975.4,153.9v57.9h3.6v-57.9H975.4z"/>
		</g>
	</g>
</g>
<g transform="matrix( -0.3312835693359375, -0.4091644287109375, 0.3167266845703125, -0.2564697265625, 595.7,625.55) ">
	<g>
		<g id="Layer5_504_FILL">
			<path fill="#010101" d="M965.5,177.8v57.9h3.6v-57.9H965.5z"/>
		</g>
	</g>
</g>
<g transform="matrix( -0.2711334228515625, -0.4512939453125, 0.349334716796875, -0.2099151611328125, 520.45,677.05) ">
	<g>
		<g id="Layer5_505_FILL">
			<path fill="#010101" d="M949.5,229.7v57.9h3.6v-57.9L949.5,229.7z"/>
		</g>
	</g>
</g>
<g transform="matrix( -0.2390289306640625, -0.4691009521484375, 0.363128662109375, -0.185028076171875, 480.1,698.75) ">
	<g>
		<g id="Layer5_506_FILL">
			<path fill="#010101" d="M944.1,255V313h3.6V255H944.1z"/>
		</g>
	</g>
</g>
<g transform="matrix( -0.2057037353515625, -0.484649658203125, 0.37518310546875, -0.1592559814453125, 438.55,717.5) ">
	<g>
		<g id="Layer5_507_FILL">
			<path fill="#010101" d="M940,282.8v58.3h3.6v-58.3H940z"/>
		</g>
	</g>
</g>
<g transform="matrix( -0.1714324951171875, -0.497833251953125, 0.385345458984375, -0.1326904296875, 395.7,733.6) ">
	<g>
		<g id="Layer5_508_FILL">
			<path fill="#010101" d="M936.4,309.5v58.3h3.6v-58.3H936.4z"/>
		</g>
	</g>
</g>
<g transform="matrix( -0.1004638671875, -0.516815185546875, 0.4000701904296875, -0.0777587890625, 307.3,756.5) ">
	<g>
		<g id="Layer5_509_FILL">
			<path fill="#010101" d="M933.3,364.7V423l3.6,0v-58.3H933.3z"/>
		</g>
	</g>
</g>
<g transform="matrix( -0.064178466796875, -0.5225830078125, 0.4045257568359375, -0.0496673583984375, 262.05,762.9) ">
	<g>
		<g id="Layer5_510_FILL">
			<path fill="#010101" d="M936.4,392.1l0,57.9l3.6,0l0-57.9H936.4z"/>
		</g>
	</g>
</g>
<g transform="matrix( -0.027557373046875, -0.5258331298828125, 0.40704345703125, -0.0213775634765625, 216.6,766.35) ">
	<g>
		<g id="Layer5_511_FILL">
			<path fill="#010101" d="M939.6,420.2l0,58.3h3.6l0-58.3H939.6z"/>
		</g>
	</g>
</g>
<g transform="matrix( 0.0071258544921875, -0.407379150390625, 0.407379150390625, 0.0071258544921875, 173.4,618.9) ">
	<g>
		<g id="Layer5_512_FILL">
			<path fill="#010101" d="M855.6,446.8v58.3h3.6v-58.3H855.6z"/>
		</g>
	</g>
</g>
<g transform="matrix( 0.0637359619140625, -0.4023895263671875, 0.4023895263671875, 0.0637359619140625, 103.3,611.7) ">
	<g>
		<g id="Layer5_513_FILL">
			<path fill="#010101" d="M872.9,500.5v57.9h3.6v-57.9H872.9z"/>
		</g>
	</g>
</g>
<g transform="matrix( 0.091644287109375, -0.3969879150390625, 0.3969879150390625, 0.091644287109375, 68.55,604.55) ">
	<g>
		<g id="Layer5_514_FILL">
			<path fill="#010101" d="M883.6,525l0,58.3h3.6l0-58.3H883.6z"/>
		</g>
	</g>
</g>
<g transform="matrix( 0.119110107421875, -0.389617919921875, 0.389617919921875, 0.119110107421875, 34.55,594.65) ">
	<g>
		<g id="Layer5_515_FILL">
			<path fill="#010101" d="M898.3,549.2l0,57.9h3.6l0-57.9H898.3z"/>
		</g>
	</g>
</g>
<g transform="matrix( 0.1460113525390625, -0.38037109375, 0.38037109375, 0.1460113525390625, 1.35,582.95) ">
	<g>
		<g id="Layer5_516_FILL">
			<path fill="#010101" d="M911.5,573.6l0,58.3l3.6,0l0-58.3H911.5z"/>
		</g>
	</g>
</g>
<g transform="matrix( 0.197540283203125, -0.3563385009765625, 0.3563385009765625, 0.197540283203125, -62.4,552.15) ">
	<g>
		<g id="Layer5_517_FILL">
			<path fill="#010101" d="M945.4,616.6l0,57.9h3.6l0-57.9H945.4z"/>
		</g>
	</g>
</g>
<g transform="matrix( 0.221923828125, -0.3416900634765625, 0.3416900634765625, 0.221923828125, -92.25,533.45) ">
	<g>
		<g id="Layer5_518_FILL">
			<path fill="#010101" d="M965.5,637.6v57.9h3.6v-57.9H965.5z"/>
		</g>
	</g>
</g>
<g transform="matrix( 0.2451934814453125, -0.3253936767578125, 0.3253936767578125, 0.2451934814453125, -121.05,512.75) ">
	<g>
		<g id="Layer5_519_FILL">
			<path fill="#010101" d="M985.7,655l0,57.9h3.6l0-58.3h-3.6V655z"/>
		</g>
	</g>
</g>
<g transform="matrix( 0.267303466796875, -0.3074951171875, 0.3074951171875, 0.267303466796875, -148.1,490.4) ">
	<g>
		<g id="Layer5_520_FILL">
			<path fill="#010101" d="M1006.6,673.9v58.3h3.6v-58.3H1006.6z"/>
		</g>
	</g>
</g>
<g transform="matrix( 0.1898345947265625, 0.70843505859375, -0.3936004638671875, 0.105438232421875, -49.05,-750.65) ">
	<g>
		<g id="Layer5_521_FILL">
			<path fill="#010101" d="M1439.6,334.3v55.8v2.5h3.6v-58.3L1439.6,334.3L1439.6,334.3z"/>
		</g>
	</g>
</g>
<g transform="matrix( -0.3099822998046875, 0.6647491455078125, -0.369293212890625, -0.172210693359375, 561.65,-701.9) ">
	<g>
		<g id="Layer5_522_FILL">
			<path fill="#010101" d="M1393.4,75.7v55.8v2.5h3.6V75.7L1393.4,75.7L1393.4,75.7z"/>
		</g>
	</g>
</g>
<g transform="matrix( -0.6647491455078125, 0.3099822998046875, -0.172210693359375, -0.369293212890625, 998,-272.25) ">
	<g>
		<g id="Layer5_523_FILL">
			<path fill="#010101" d="M1265.5-66.9l0,55.5V-9l3.6,0v-57.9L1265.5-66.9L1265.5-66.9z"/>
		</g>
	</g>
</g>
<g transform="matrix( -0.70843505859375, -0.1898345947265625, 0.105438232421875, -0.3936004638671875, 1056.05,337.65) ">
	<g>
		<g id="Layer5_524_FILL">
			<path fill="#010101" d="M1116.5-30.1v55.8v2.1l3.6,0l0-57.9L1116.5-30.1z"/>
		</g>
	</g>
</g>
<g transform="matrix( -0.4207000732421875, -0.600799560546875, 0.33380126953125, -0.23370361328125, 708.45,842.25) ">
	<g>
		<g id="Layer5_525_FILL">
			<path fill="#010101" d="M1015.2,169.5v55.8v2.5l3.6,0v-58.3H1015.2z"/>
		</g>
	</g>
</g>
<g transform="matrix( 0.0639190673828125, -0.730682373046875, 0.40594482421875, 0.0355072021484375, 117.95,1005.25) ">
	<g>
		<g id="Layer5_526_FILL">
			<path fill="#010101" d="M1009.7,440.4v55.5v2.5h3.6v-57.9H1009.7z"/>
		</g>
	</g>
</g>
<g transform="matrix( 1.05303955078125, 0, 0, 1.05303955078125, -568.05,-3) ">
	<g>
		<g id="Layer5_527_FILL">
			<path fill="#CB2026" d="M871.7,204.9l20.3-9.6l-0.7-1.4l-20.3,9.6L871.7,204.9z"/>
		</g>
	</g>
</g>
<g transform="matrix( 1, 0, 0, 1, 0,0) ">
	<g>
		<g id="Layer5_528_FILL">
			<path fill="#010101" d="M138.1,330.9v-11.7c0-1.8-0.4-3.2-1.4-4.6c-1.1-1.1-2.5-1.4-3.9-1.4s-2.8,0.4-3.9,1.4
				c-1.1,1.1-1.4,2.5-1.4,4.3v12.1c0,2.1,0.4,3.9,1.4,5c1.1,1.1,2.1,1.4,3.9,1.4s3.2-0.7,4.3-1.4
				C137.7,334.8,138.1,333.1,138.1,330.9 M133.8,316.7c0.4,0.4,0.4,1.1,0.4,1.4V332c0,0.7-0.4,1.4-0.4,1.4c0,0.7-0.7,0.7-1.4,0.7
				c-0.7,0-1.1-0.4-1.4-0.7c-0.4-0.4-0.7-1.1-0.7-1.4v-13.9c0-0.4,0.4-0.7,0.7-1.1c0.4-0.4,0.7-0.4,1.4-0.4
				C133.1,316.4,133.5,316.4,133.8,316.7z"/>
		</g>
	</g>
</g>
<g transform="matrix( 1, 0, 0, 1, 0,0) ">
	<g>
		<g id="Layer5_529_FILL">
			<path fill="#010101" d="M120.7,248.5c-1.8,0-3.2,0.7-4.3,1.8s-1.4,2.5-1.4,4.3v12.1c0,2.1,0.4,3.9,1.4,5c1.1,1.1,2.1,1.4,3.9,1.4
				s3.2-0.4,3.9-1.4c0.7-1.1,1.4-2.8,1.4-5v-11.7c0-1.8-0.4-3.2-1.4-4.6C123.5,248.8,122.1,248.5,120.7,248.5 M121.7,252
				c0.4,0.4,0.7,1.1,0.7,1.4v13.9c0,0.7-0.4,1.4-0.7,1.4c-0.4,0.4-0.7,0.7-1.1,0.7c-0.7,0-1.1-0.4-1.4-0.7c-0.4-0.7-0.7-1.1-0.7-1.4
				v-13.9c0-0.4,0.4-0.7,0.7-1.4c0.4-0.4,1.1-0.4,1.4-0.4C121,251.7,121.4,252,121.7,252 M104.7,251.7v2.1h2.8v18.5h3.9v-23.5h-2.5
				c-0.4,0.7-1.1,1.4-1.4,1.8C106.8,250.9,105.7,251.3,104.7,251.7 M134.2,248.5c-1.8,0-3.2,0.7-3.9,1.8c-1.1,1.1-1.4,2.5-1.4,4.3
				v12.1c0,2.1,0.4,3.9,1.4,5c0.7,1.1,2.1,1.4,3.9,1.4s3.2-0.4,3.9-1.4c1.1-1.1,1.4-2.8,1.4-5v-11.7c0-1.8-0.4-3.2-1.4-4.6
				C137,248.8,135.6,248.5,134.2,248.5 M132.4,252c0.4-0.4,0.7-0.4,1.4-0.4c0.4,0,0.7,0,1.1,0.4c0.4,0.4,0.7,1.1,0.7,1.4v13.9
				c0,0.7-0.4,1.4-0.7,1.4c-0.4,0.4-0.7,0.7-1.1,0.7c-0.7,0-1.1-0.4-1.4-0.7c-0.4-0.7-0.7-1.1-0.7-1.4v-13.9
				C131.7,253.1,132,252.7,132.4,252z"/>
		</g>
	</g>
</g>
<g transform="matrix( 1, 0, 0, 1, 0,0) ">
	<g>
		<g id="Layer5_530_FILL">
			<path fill="#010101" d="M142.7,187.7c-1.1-1.1-2.1-1.4-3.9-1.4s-2.8,0.7-3.9,1.8c-1.1,1.1-1.4,2.8-1.4,5v0.4h3.6v-1.1
				c0-1.1,0-1.8,0.4-2.1c0.4-0.7,0.7-0.7,1.4-1.1c0.4,0,1.1,0.4,1.1,1.1c0.4,0.4,0.7,1.1,0.7,1.8c0,1.4-0.7,3.6-2.1,6
				c-1.1,2.5-3.2,5.3-5.7,8.5v3.6h10.7v-3.6H137c2.8-4.3,4.6-7.1,5.7-9.2c1.1-2.1,1.4-3.9,1.4-5.7S143.8,188.4,142.7,187.7
				 M161.9,187.7c-1.1,1.1-1.4,2.5-1.4,4.3V204c0,2.1,0.4,3.9,1.4,5c1.1,1.1,2.5,1.8,4.3,1.8c1.8,0,2.8-0.7,3.9-1.8
				c0.7-1.1,1.4-2.8,1.4-5v-12.1c0-1.8-0.4-3.2-1.4-4.6c-1.1-1.1-2.5-1.4-3.9-1.4C164.4,185.9,163,186.6,161.9,187.7 M163.7,205.1
				v-13.9c0-0.4,0.4-0.7,0.4-1.1c0.4-0.4,1.1-0.7,1.8-0.7c0.4,0,0.7,0.4,1.1,0.7c0.4,0.4,0.7,0.7,0.7,1.4v13.5
				c0,0.7-0.4,1.1-0.7,1.4c-0.4,0.4-0.7,0.7-1.1,0.7c-0.7,0-1.1-0.4-1.8-0.7C164,206.2,163.7,205.5,163.7,205.1 M152.7,185.9
				c-1.8,0-3.2,0.4-4.3,1.4c-1.1,1.1-1.4,2.5-1.4,4.3v12.1c0,2.1,0.7,3.9,1.4,5c0.7,1.1,2.1,1.8,3.9,1.8s3.2-0.7,3.9-1.8
				c1.1-1.1,1.4-2.8,1.4-5v-11.7c0-1.8-0.4-3.2-1.4-4.6C155.5,186.6,154.1,185.9,152.7,185.9 M150.2,190.9c0-0.4,0.4-0.7,0.7-1.1
				c0.4-0.4,0.7-0.7,1.4-0.7c0.4,0,1.1,0.4,1.4,0.7c0.4,0.4,0.4,0.7,0.4,1.4v13.5c0,0.7,0,1.1-0.4,1.4c-0.4,0.4-0.7,0.7-1.4,0.7
				c-0.7,0-1.1-0.4-1.4-0.7s-0.7-1.1-0.7-1.4V190.9z"/>
		</g>
	</g>
</g>
<g transform="matrix( 1, 0, 0, 1, 0,0) ">
	<g>
		<g id="Layer5_531_FILL">
			<path fill="#010101" d="M220.2,155.3c0-1.8-0.4-3.6-1.4-4.6c-0.7-0.7-2.1-1.4-3.6-1.4c-1.8,0-3.2,0.4-3.9,1.4
				c-1.1,1.1-1.4,2.5-1.4,4.3v12.4c0,2.1,0.4,3.9,1.4,4.6c0.7,1.1,2.1,1.8,3.9,1.8s2.8-0.7,3.9-1.8c1.1-1.1,1.4-2.8,1.4-4.6v-12.1
				 M212.7,154.6c0-0.7,0.4-1.1,0.7-1.4c0.4-0.4,0.7-0.4,1.4-0.4c0.4,0,1.1,0,1.4,0.4s0.4,1.1,0.4,1.4v13.5c0,0.7,0,1.4-0.4,1.8
				c-0.4,0.4-0.7,0.7-1.4,0.7c-0.7,0-1.1-0.4-1.4-0.7c-0.4-0.7-0.7-1.1-0.7-1.8V154.6 M224.5,150.7c-1.1,1.1-1.4,2.5-1.4,4.3v12.4
				c0,2.1,0.4,3.9,1.4,4.6c1.1,1.1,2.1,1.8,3.9,1.8s3.2-0.7,4.3-1.8c0.7-1.1,1.1-2.8,1.1-4.6v-12.1c0-1.8-0.4-3.6-1.1-4.6
				c-1.1-1.1-2.5-1.4-4.3-1.4C227,149.3,225.5,150,224.5,150.7 M226.2,154.6c0-0.7,0.4-1.1,0.4-1.4c0.4-0.4,1.1-0.4,1.4-0.4
				c0.4,0,1.1,0,1.4,0.4s0.4,1.1,0.4,1.4v13.5c0,0.7,0,1.4-0.4,1.8c0,0.4-0.4,0.7-1.1,0.7c-0.7,0-1.4-0.4-1.4-0.7
				c-0.4-0.7-0.4-1.1-0.4-1.8v-13.5 M199.9,156L199.9,156c0-0.4,0-0.7,0-1.1c0-1.1,0-1.8,0.4-2.1c0.4-0.4,0.7-0.4,1.4-0.4
				c0.4,0,0.7,0.4,1.1,0.7c0.4,0.7,0.4,1.4,0.4,2.5c0,1.4-0.4,2.1-0.7,2.8c-0.4,0.7-1.1,1.1-2.1,1.1h-0.4h-0.4v3.6h0.7
				c1.1,0,1.8,0.4,2.1,1.1c0.7,0.7,1.1,1.8,1.1,3.2c0,1.1-0.4,2.1-0.7,2.8c-0.4,0.4-0.7,0.7-1.4,0.7c-0.4,0-0.7-0.4-1.1-0.7
				c-0.4-0.4-0.7-1.1-0.7-2.5v-1.1h-3.2v0.4c0,2.1,0.4,3.9,1.4,4.6c1.1,1.4,2.5,2.1,3.9,2.1c1.8,0,3.2-0.7,3.9-2.1
				c0.7-1.1,1.4-2.8,1.4-5.3c0-1.4,0-2.8-0.4-3.6c-0.4-0.7-1.1-1.4-2.1-1.8c0.7-0.4,1.1-1.1,1.4-1.8c0.4-0.7,0.7-1.8,0.7-3.2
				c0-2.1-0.4-3.9-1.4-5c-0.7-1.1-2.1-1.8-3.6-1.8c-1.4,0-2.8,0.7-3.9,1.8c-1.1,1.4-1.4,2.8-1.4,5v0.4h3.6V156z"/>
		</g>
	</g>
</g>
<g transform="matrix( 1, 0, 0, 1, 0,0) ">
	<g>
		<g id="Layer5_532_FILL">
			<path fill="#010101" d="M294.8,165.6c-1.8,0-3.2,0.4-4.3,1.4c-1.1,1.1-1.4,2.5-1.4,4.6v11.7c0,2.1,0.4,3.9,1.4,5
				c1.1,1.1,2.1,1.8,3.9,1.8s3.2-0.7,3.9-1.8c1.1-1.1,1.4-2.8,1.4-5v-11.7c0-1.8-0.4-3.2-1.4-4.6
				C297.7,166.4,296.6,165.6,294.8,165.6 M292.7,170.6c0-0.4,0.4-1.1,0.4-1.4c0.4,0,0.7,0,1.4,0c0.7,0,1.1,0,1.1,0
				c0.4,0.4,0.7,1.1,0.7,1.8v13.5c0,0.7-0.4,1.4-0.7,1.4c-0.4,0.4-0.7,0.7-1.1,0.7c-0.7,0-1.1-0.4-1.4-0.7s-0.4-0.7-0.4-1.4V170.6
				 M277.1,167.1c-1.1,1.1-1.4,2.5-1.4,4.6v11.7c0,2.1,0.4,3.9,1.4,5c1.1,1.1,2.1,1.8,3.9,1.8s3.2-0.7,4.3-1.8
				c0.7-1.1,1.4-2.8,1.4-5v-11.7c0-1.8-0.4-3.2-1.4-4.6c-1.1-1.1-2.5-1.4-3.9-1.4C279.6,165.6,278.1,166.4,277.1,167.1 M279.2,170.6
				c0-0.4,0.4-1.1,0.7-1.4c0.4,0,0.7,0,1.4,0c0.7,0,1.1,0,1.4,0c0.4,0.4,0.7,1.1,0.7,1.8v13.5c0,0.7-0.4,1.4-0.7,1.4
				c-0.4,0.4-0.7,0.7-1.4,0.7s-1.1-0.4-1.4-0.7c-0.7,0-0.7-0.7-0.7-1.4V170.6 M271.4,166h-3.2l-6.4,14.6v2.8h6.4v6h3.2v-6h2.1v-2.8
				h-2.1V166 M268.2,180.9H265l3.2-8.5V180.9z"/>
		</g>
	</g>
</g>
<g transform="matrix( 1, 0, 0, 1, 0,0) ">
	<g>
		<g id="Layer5_533_FILL">
			<path fill="#010101" d="M315.1,228.6l-0.4-3.6h-8.5l-0.7,12.4l3.2,0.4c0.4-0.7,0.4-1.1,1.1-1.4c0.4-0.4,0.7-0.4,1.1-0.4
				c0.7,0,1.1,0,1.4,0.4c0,0.4,0.4,0.7,0.4,1.4v6c0,0.7-0.4,1.4-0.7,1.4c-0.4,0.4-0.7,0.7-1.1,0.7c-0.7,0-1.1-0.4-1.4-0.7
				c-0.4-0.4-0.4-1.1-0.4-2.1v-1.1h-3.2v1.1c0,2.1,0.4,3.6,1.4,4.6c0.7,1.1,2.1,1.8,3.2,1.8c1.8,0,3.2-0.4,4.3-1.4
				c0.7-1.1,1.1-2.5,1.1-4.3v-6c0-1.4-0.4-2.8-1.1-3.6c-0.7-1.1-1.4-1.4-2.5-1.4c-0.7,0-1.1,0.4-2.1,0.7c-0.4,0.4-0.7,0.7-1.4,1.1
				l0.4-5.7h6 M329,230.7c0-1.8-0.4-3.2-1.4-4.3c-1.1-1.1-2.1-1.4-3.9-1.4s-3.2,0.7-4.3,1.4c-1.1,1.1-1.4,2.5-1.4,4.3v12.1
				c0,2.1,0.4,3.9,1.4,4.6c1.1,1.1,2.1,1.8,3.9,1.8s3.2-0.7,3.9-1.8c0.7-1.1,1.4-2.5,1.4-4.6v-12.1 M323.6,227.8
				c0.4,0,0.7,0.4,1.4,0.7c0.4,0.4,0.4,0.7,0.4,1.4v13.9c0,0.7-0.4,1.4-0.4,1.4c-0.4,0.4-0.7,0.7-1.4,0.7s-1.1-0.4-1.4-0.7
				c-0.4-0.4-0.7-1.1-0.7-1.4V230c0-0.4,0.4-0.7,0.7-1.1S322.9,227.8,323.6,227.8 M341.4,226.1c-1.1-1.1-2.1-1.4-3.9-1.4
				s-2.8,0.7-3.9,1.4c-1.1,1.1-1.4,2.5-1.4,4.3v12.1c0,2.1,0.4,3.9,1.4,4.6c0.7,1.1,2.1,1.8,3.9,1.8s3.2-0.7,3.9-1.8
				c1.1-1.1,1.4-2.5,1.4-4.6v-12.1C342.8,228.6,342.1,227.1,341.4,226.1 M338.6,228.6c0.4,0.4,0.7,0.7,0.7,1.4v13.9
				c0,0.7-0.4,1.4-0.7,1.4c-0.4,0.4-0.7,0.7-1.4,0.7c-0.7,0-1.1-0.4-1.4-0.7c-0.4-0.4-0.4-1.1-0.4-1.4V230c0-0.4,0.4-0.7,0.4-1.1
				c0.4-0.4,0.7-0.7,1.4-0.7C337.9,227.8,338.2,228.2,338.6,228.6z"/>
		</g>
	</g>
</g>
<g transform="matrix( 1, 0, 0, 1, 0,0) ">
	<g>
		<g id="Layer5_534_FILL">
			<path fill="#010101" d="M340,298.6c-1.1-1.1-2.1-1.4-3.9-1.4s-3.2,0.4-4.3,1.4c-1.1,1.1-1.4,2.5-1.4,4.3v12.1
				c0,2.1,0.4,3.6,1.4,5c1.1,1.1,2.1,1.8,3.9,1.4c1.8,0,3.2-0.4,4.3-1.4c0.7-1.4,1.1-2.8,1.1-5v-11.7
				C341.4,301.1,341.1,299.6,340,298.6 M333.9,302.1c0-0.4,0.4-1.1,0.4-1.4c0.4-0.4,1.1-0.4,1.4-0.4s1.1,0,1.4,0.4s0.7,0.7,0.7,1.4
				v13.5c0,0.7-0.4,1.4-0.7,1.8s-0.7,0.4-1.4,0.4c-0.7,0-1.1,0-1.4-0.4c-0.4-0.4-0.4-1.1-0.4-1.8V302.1 M322.6,297.2
				c-1.8,0-3.2,0.4-3.9,1.4c-1.1,1.1-1.4,2.5-1.4,4.3v12.1c0,2.1,0.4,3.6,1.4,5c0.7,1.1,2.1,1.8,3.9,1.4c1.8,0,3.2-0.4,4.3-1.4
				c0.7-1.4,1.1-2.8,1.1-5v-11.7c0-1.8-0.4-3.2-1.1-4.6C325.4,297.5,324,297.2,322.6,297.2 M320.8,300.7c0.4-0.4,0.7-0.4,1.4-0.4
				c0.4,0,1.1,0,1.4,0.4c0.4,0.4,0.4,0.7,0.4,1.4v13.5c0,0.7-0.4,1.4-0.4,1.8c-0.4,0.4-0.7,0.4-1.4,0.4s-1.1,0-1.4-0.4
				s-0.7-1.1-0.7-1.8v-13.5C320.1,301.4,320.4,301.1,320.8,300.7 M305.2,298.6c-1.1,1.1-1.4,2.5-1.4,4.3v12.1c0,2.1,0.4,3.6,1.4,5
				c1.1,1.1,2.1,1.8,3.9,1.4c1.8,0,2.8-0.4,3.9-1.4c1.1-1.4,1.4-2.8,1.4-5V311c0-1.4-0.4-2.5-1.1-3.2c-0.7-1.1-1.8-1.4-2.8-1.4
				c-0.7,0-1.4,0-2.1,0.4c-0.4,0.4-1.1,1.1-1.4,1.1v-5.7c0-0.4,0.4-1.1,0.4-1.4c0.4-0.4,0.7-0.4,1.4-0.4c0.4,0,0.7,0,1.1,0.4
				c0.4,0.4,0.7,0.7,0.7,1.4v1.4h3.6v-0.4c0-1.8-0.4-3.2-1.4-4.6c-1.1-1.1-2.1-1.4-3.9-1.4C307.6,297.2,306.2,297.5,305.2,298.6
				 M310.1,317.8c-0.4,0.4-0.7,0.4-1.1,0.4c-0.7,0-1.1,0-1.4-0.4s-0.4-1.1-0.4-1.8v-5c0.4-0.4,0.4-0.7,1.1-1.1
				c0.4-0.4,0.7-0.4,1.1-0.4c0.4,0,0.7,0.4,1.4,0.7c0.4,0.4,0.4,0.7,0.4,1.1v4.6C310.8,316.7,310.8,317.4,310.1,317.8z"/>
		</g>
	</g>
</g>
<g transform="matrix( 1, 0, 0, 1, 0,0) ">
	<g>
		<g id="Layer5_535_FILL">
			<path fill="#010101" d="M299.5,338v-0.4c0-1.1-0.4-2.1-1.1-2.8c-0.4-0.7-1.4-1.1-2.8-1.1c-1.1,0-1.8,0.4-2.5,1.1
				c-0.7,0.7-1.1,1.8-1.1,2.8v7.8c0,1.4,0.4,2.5,1.1,3.2c0.7,0.7,1.4,1.1,2.5,1.1c1.4,0,2.1-0.4,2.8-1.1c0.7-0.7,1.1-2.1,1.1-3.2
				V343c0-0.7-0.4-1.4-1.1-2.1c-0.4-0.7-1.1-1.1-1.8-1.1c-0.4,0-0.7,0-1.1,0.4c-0.4,0-0.4,0.4-0.7,0.7V337c0-0.4,0-0.7,0.4-1.1
				c0.4-0.4,0.4-0.4,0.7-0.4c0.4,0,0.7,0,1.1,0.4c0.4,0.4,0.4,0.7,0.4,1.1v1.1H299.5 M295.6,341.9l0.4-0.4c0.4,0,0.7,0,1.1,0.4
				c0.4,0.4,0.4,0.7,0.4,1.1v2.8c0,0.4,0,0.7-0.4,1.1c-0.4,0.4-0.7,0.4-1.1,0.4s-0.4,0-0.7-0.4c0-0.4-0.4-0.7-0.4-1.1V343
				C295.2,342.3,295.2,342.3,295.6,341.9 M307.6,336.3l-0.4-2.1h-5.7l-0.4,8.2h1.8c0.4-0.4,0.4-0.4,0.7-0.4c0.4-0.4,0.4-0.7,0.7-0.7
				s0.7,0,0.7,0.4s0.4,0.7,0.4,1.1v3.9c0,0.4,0,0.7-0.4,1.1c0,0.4-0.4,0.7-0.7,0.7s-0.7-0.4-1.1-0.7c-0.4-0.4-0.7-0.7-0.7-1.1v-1.8
				h-2.1v0.7c0,1.1,0.4,2.1,1.1,2.8c0.4,0.7,1.4,1.1,2.5,1.1s1.8-0.4,2.5-1.1c0.7-0.7,1.1-1.4,1.1-2.8v-3.9c0-1.1-0.4-1.8-0.4-2.5
				c-0.4-0.4-1.1-0.7-2.1-0.7c0,0-0.4,0-1.1,0.4c-0.4,0-0.7,0.4-1.4,0.7l0.4-3.6h4.6 M315.8,334.5c-0.7-0.7-1.4-1.1-2.8-1.1
				s-1.8,0.4-2.5,1.1c-0.7,0.7-1.1,1.8-1.1,2.8v7.8c0,1.4,0.4,2.5,1.1,3.2c0.4,0.7,1.4,1.1,2.5,1.1c1.1,0,2.1-0.4,2.8-1.1
				s1.1-2.1,1.1-3.2v-7.8C316.9,336.3,316.5,335.5,315.8,334.5 M313,335.9c0.4,0,0.7,0,1.1,0.4c0.4,0.4,0.4,0.7,0.4,1.1v8.9
				c0,0.4,0,0.7-0.4,1.1c0,0.4-0.4,0.4-1.1,0.4c-0.7,0-0.7,0-1.1-0.4c-0.4-0.4-0.4-0.7-0.4-1.1v-8.9c0-0.4,0.4-0.7,0.4-1.1
				C312.3,335.9,312.6,335.9,313,335.9z"/>
		</g>
	</g>
</g>
<text transform="matrix(1 0 0 1 153.2884 47.9882)" font-family="'MSReferenceSansSerif'" font-size="24">WATTMETER</text>
</svg>
