
<svg xmlns="http://www.w3.org/2000/svg" version="1.1" xmlns:xlink="http://www.w3.org/1999/xlink" preserveAspectRatio="none" x="0px" y="0px" width="19px" height="50px" viewBox="0 0 19 50">
<defs>
<g id="Layer0_0_FILL">
<path fill="#575B65" stroke="none" d="
M 89.2 688.75
L 83.15 682.7 76 682.7 70.05 688.75 73.05 727.8 73.5 733.4 85.7 733.4 86.15 727.8 89.2 688.75
M 82.6 684.1
L 87.75 689.25 84.7 727.8 84.4 732 74.85 732 74.55 727.8 71.5 689.25 76.6 684.1 82.6 684.1 Z"/>

<path fill="#38383A" stroke="none" d="
M 87.75 689.25
L 82.6 684.1 76.6 684.1 71.5 689.25 74.55 727.8 74.85 732 84.4 732 84.7 727.8 87.75 689.25
M 82.35 687.3
Q 83.4 688.45 83.4 689.95 83.4 691.55 82.3 692.65 81.15 693.75 79.6 693.75 78.05 693.75 76.95 692.65 75.9 691.55 75.85 689.95 75.9 688.45 76.95 687.3 78.05 686.2 79.6 686.15 81.2 686.15 82.35 687.3 Z"/>

<path fill="#050505" stroke="none" d="
M 83.4 689.95
Q 83.4 688.45 82.35 687.3 81.2 686.15 79.6 686.15 78.05 686.2 76.95 687.3 75.9 688.45 75.85 689.95 75.9 691.55 76.95 692.65 78.05 693.75 79.6 693.75 81.15 693.75 82.3 692.65 83.4 691.55 83.4 689.95 Z"/>
</g>
</defs>

<g transform="matrix( 1, 0, 0, 1, -70.05,-682.7) ">
<use xlink:href="#Layer0_0_FILL"/>
</g>
</svg>
