
<svg xmlns="http://www.w3.org/2000/svg" version="1.1" xmlns:xlink="http://www.w3.org/1999/xlink" preserveAspectRatio="none" x="0px" y="0px" width="16px" height="7px" viewBox="0 0 16 7">
<defs>
<radialGradient id="Gradient_1" gradientUnits="userSpaceOnUse" cx="0" cy="0" r="3.5874999999999773" fx="0" fy="0" gradientTransform="matrix( 1.0000000000000064, 0, 0, 1.0000000000000064, 378.3,471.8) " spreadMethod="pad">
<stop  offset="0%" stop-color="#E9E9E9"/>

<stop  offset="100%" stop-color="#747474"/>
</radialGradient>

<g id="Layer0_0_FILL">
<path fill="#747474" stroke="none" d="
M 378.2 468.25
L 366.15 470.15
Q 364.85 471.75 366.15 473.25
L 378.2 475.3 378.2 468.25 Z"/>
</g>

<g id="Layer0_0_MEMBER_0_FILL">
<path fill="url(#Gradient_1)" stroke="none" d="
M 380.8 474.25
Q 381.75 473.25 381.75 471.8 381.75 470.3 380.8 469.25 379.7 468.25 378.3 468.25 376.85 468.25 375.75 469.25 374.75 470.3 374.75 471.8 374.75 473.25 375.75 474.25 376.85 475.3 378.3 475.3 379.7 475.3 380.8 474.25 Z"/>
</g>
</defs>

<g transform="matrix( 1, 0, 0, 1, -365.5,-468.25) ">
<use xlink:href="#Layer0_0_FILL"/>
</g>

<g transform="matrix( 1, 0, 0, 1, -365.5,-468.25) ">
<use xlink:href="#Layer0_0_MEMBER_0_FILL"/>
</g>
</svg>
