
<svg xmlns="http://www.w3.org/2000/svg" version="1.1" xmlns:xlink="http://www.w3.org/1999/xlink" preserveAspectRatio="none" x="0px" y="0px" width="32px" height="32px" viewBox="0 0 32 32">
<defs>
<g id="Layer0_0_FILL">
<path fill="#FFFFFF" stroke="none" d="
M 275 184.45
Q 268.3 184.45 263.65 189.15 258.95 193.85 258.95 200.45 258.95 207.15 263.65 211.85 268.3 216.5 275 216.5 281.65 216.5 286.3 211.85 291.05 207.15 291.05 200.45 291.05 193.85 286.3 189.15 281.65 184.45 275 184.45
M 270.25 195.75
Q 272.2 193.85 275 193.85 277.75 193.85 279.7 195.75 281.7 197.75 281.7 200.5 281.7 203.3 279.7 205.25 277.75 207.2 275 207.2 272.2 207.2 270.25 205.25 268.3 203.3 268.3 200.5 268.3 197.75 270.25 195.75 Z"/>

<path fill="#E8E3DD" stroke="none" d="
M 275 193.85
Q 272.2 193.85 270.25 195.75 268.3 197.75 268.3 200.5 268.3 203.3 270.25 205.25 272.2 207.2 275 207.2 277.75 207.2 279.7 205.25 281.7 203.3 281.7 200.5 281.7 197.75 279.7 195.75 277.75 193.85 275 193.85 Z"/>
</g>
</defs>

<g transform="matrix( 1, 0, 0, 1, -258.95,-184.45) ">
<use xlink:href="#Layer0_0_FILL"/>
</g>
</svg>
