
<svg xmlns="http://www.w3.org/2000/svg" version="1.1" xmlns:xlink="http://www.w3.org/1999/xlink" preserveAspectRatio="none" x="0px" y="0px" width="33px" height="33px" viewBox="0 0 33 33">
<defs>
<g id="Layer0_0_MEMBER_0_FILL">
<path fill="#FFFFFF" fill-opacity="0.9019607843137255" stroke="none" d="
M 79.45 537
Q 79.85 538 80.2 537.1
L 83.1 530.05
Q 83.45 529.05 83.05 528.1
L 80.2 521.05
Q 79.85 520.1 79.45 521.1
L 76.55 528.15
Q 76.2 529.05 76.55 530
L 79.45 537 Z"/>
</g>

<g id="Layer0_0_MEMBER_1_MEMBER_0_FILL">
<path fill="#575B65" stroke="none" d="
M 78.15 521.7
L 76.25 521.1
Q 74.55 520.6 72.85 521.3 71.25 521.95 70.45 523.55
L 69.55 525.35
Q 68.85 526.75 67.45 527.5
L 65.7 528.4
Q 64.05 529.2 63.35 530.9 62.7 532.5 63.3 534.25
L 64 536.1
Q 64.45 537.65 63.95 539.25
L 63.35 541.15
Q 62.85 542.8 63.55 544.4 64.25 546.05 65.85 546.85
L 67.65 547.75
Q 69 548.45 69.75 549.9
L 70.75 551.6
Q 71.5 553.25 73.2 553.95 74.85 554.6 76.5 553.95
L 78.35 553.35
Q 79.9 552.85 81.45 553.35
L 83.35 553.9
Q 85.1 554.45 86.75 553.75 88.4 553.1 89.1 551.5
L 90 549.75
Q 90.75 548.3 92.25 547.5
L 93.9 546.6
Q 95.55 545.75 96.2 544.15 96.9 542.45 96.3 540.75
L 95.7 538.9
Q 95.15 537.4 95.6 535.85
L 96.2 533.9
Q 96.8 532.25 96.1 530.6
L 96.05 530.65
Q 95.4 529 93.75 528.15
L 91.95 527.3
Q 90.5 526.55 89.75 525.1
L 88.85 523.4
Q 88.1 521.75 86.45 521.1 84.75 520.4 83.1 521.05
L 81.15 521.65
Q 79.6 522.15 78.15 521.7
M 71.45 524
Q 72.05 522.75 73.25 522.15 74.65 521.65 75.9 522.1
L 77.85 522.65
Q 79.65 523.2 81.45 522.6
L 83.35 522
Q 84.75 521.55 86.05 522.1 87.3 522.6 87.95 523.8
L 87.95 523.85 88.85 525.55 88.9 525.6
Q 89.8 527.35 91.5 528.15
L 93.25 529.1
Q 94.6 529.75 95.1 531 95.7 532.3 95.3 533.6
L 94.7 535.5
Q 94.1 537.35 94.7 539.25
L 95.4 541.15
Q 95.75 542.4 95.2 543.75 94.7 545.05 93.55 545.7
L 91.75 546.6 91.7 546.65
Q 90 547.55 89.15 549.25
L 88.25 551.05
Q 87.6 552.3 86.3 552.8 85 553.45 83.65 553
L 81.75 552.35
Q 79.9 551.8 78.1 552.4
L 76.2 553 76.15 553
Q 74.85 553.45 73.6 552.95 72.3 552.4 71.55 551.15
L 70.65 549.4
Q 69.75 547.65 68.1 546.8
L 66.3 545.95
Q 65.05 545.35 64.45 543.95 63.95 542.75 64.4 541.45
L 64.95 539.5
Q 65.5 537.7 64.9 535.85
L 64.95 535.8 64.3 533.9
Q 63.85 532.6 64.35 531.3 64.9 529.95 66.15 529.35
L 67.9 528.45
Q 69.65 527.5 70.5 525.75
L 71.45 524 Z"/>

<path fill="#0C0C0C" stroke="none" d="
M 73.25 522.15
Q 72.05 522.75 71.45 524
L 70.5 525.75
Q 69.65 527.5 67.9 528.45
L 66.15 529.35
Q 64.9 529.95 64.35 531.3 63.85 532.6 64.3 533.9
L 64.95 535.8 64.9 535.85
Q 65.5 537.7 64.95 539.5
L 64.4 541.45
Q 63.95 542.75 64.45 543.95 65.05 545.35 66.3 545.95
L 68.1 546.8
Q 69.75 547.65 70.65 549.4
L 71.55 551.15
Q 72.3 552.4 73.6 552.95 74.85 553.45 76.15 553
L 76.2 553 78.1 552.4
Q 79.9 551.8 81.75 552.35
L 83.65 553
Q 85 553.45 86.3 552.8 87.6 552.3 88.25 551.05
L 89.15 549.25
Q 90 547.55 91.7 546.65
L 91.75 546.6 93.55 545.7
Q 94.7 545.05 95.2 543.75 95.75 542.4 95.4 541.15
L 94.7 539.25
Q 94.1 537.35 94.7 535.5
L 95.3 533.6
Q 95.7 532.3 95.1 531 94.6 529.75 93.25 529.1
L 91.5 528.15
Q 89.8 527.35 88.9 525.6
L 88.85 525.55 87.95 523.85 87.95 523.8
Q 87.3 522.6 86.05 522.1 84.75 521.55 83.35 522
L 81.45 522.6
Q 79.65 523.2 77.85 522.65
L 75.9 522.1
Q 74.65 521.65 73.25 522.15 Z"/>
</g>

<g id="Layer0_0_MEMBER_1_MEMBER_1_FILL">
<path fill="#3B3B3D" stroke="none" d="
M 68.25 533
Q 66.35 537.7 68.4 542.45 70.4 547.15 75.1 549.1 79.85 551 84.55 549 89.3 546.95 91.2 542.25 93.15 537.45 91.1 532.75 89.1 528 84.35 526.1 79.65 524.15 74.95 526.2 70.2 528.2 68.25 533 Z"/>
</g>

<g id="Layer0_0_MEMBER_1_MEMBER_2_FILL">
<path fill="#050505" stroke="none" d="
M 76.85 538.75
Q 77.3 539.95 78.55 540.5 79.75 540.95 81.05 540.45 82.3 539.9 82.8 538.65 83.35 537.45 82.75 536.15 82.2 534.95 81 534.5 79.75 534 78.55 534.45 77.35 535.05 76.75 536.25 76.35 537.55 76.85 538.75 Z"/>
</g>
</defs>

<g transform="matrix( 1, 0, 0, 1, -63,-520.6) ">
<use xlink:href="#Layer0_0_MEMBER_0_FILL"/>
</g>

<g transform="matrix( 1, 0, 0, 1, -63,-520.6) ">
<use xlink:href="#Layer0_0_MEMBER_1_MEMBER_0_FILL"/>
</g>

<g transform="matrix( 1, 0, 0, 1, -63,-520.6) ">
<use xlink:href="#Layer0_0_MEMBER_1_MEMBER_1_FILL"/>
</g>

<g transform="matrix( 1, 0, 0, 1, -63,-520.6) ">
<use xlink:href="#Layer0_0_MEMBER_1_MEMBER_2_FILL"/>
</g>
</svg>
