
<svg xmlns="http://www.w3.org/2000/svg" version="1.1" xmlns:xlink="http://www.w3.org/1999/xlink" preserveAspectRatio="none" x="0px" y="0px" width="41px" height="41px" viewBox="0 0 41 41">
<defs>
<radialGradient id="Gradient_1" gradientUnits="userSpaceOnUse" cx="0" cy="0" r="17.637500000000045" fx="0" fy="0" gradientTransform="matrix( 0.9999999999999974, 0, 0, 0.9999999999999974, 888.8,213.55) " spreadMethod="pad">
<stop  offset="0%" stop-color="#FFFFFF"/>

<stop  offset="100%" stop-color="#B8B8B8"/>
</radialGradient>

<linearGradient id="Gradient_2" gradientUnits="userSpaceOnUse" x1="888.75" y1="197.95" x2="888.75" y2="225.95" spreadMethod="pad">
<stop  offset="0%" stop-color="#FFFFFF" stop-opacity="0.5019607843137255"/>

<stop  offset="100%" stop-color="#FFFFFF" stop-opacity="0"/>

<stop  offset="100%" stop-color="#FFFFFF" stop-opacity="0"/>
</linearGradient>

<g id="Layer0_0_MEMBER_0_FILL">
<path fill="#484848" stroke="none" d="
M 903.4 227.5
Q 909.4 221.5 909.4 213.05 909.4 204.55 903.4 198.45 897.4 192.5 888.9 192.5 880.35 192.5 874.3 198.45 868.3 204.55 868.3 213.05 868.3 221.5 874.3 227.5 880.35 233.55 888.9 233.55 897.4 233.55 903.4 227.5 Z"/>
</g>

<g id="Layer0_0_MEMBER_1_FILL">
<path fill="url(#Gradient_1)" stroke="none" d="
M 900.75 224.9
Q 905.75 220 905.75 213.05 905.75 206.1 900.75 201.05 895.85 196.2 888.9 196.2 881.9 196.2 876.9 201.05 871.95 206.1 871.95 213.05 871.95 220 876.9 224.9 881.9 229.9 888.9 229.9 895.85 229.9 900.75 224.9 Z"/>
</g>

<g id="Layer0_0_MEMBER_1_MEMBER_0_FILL">
<path fill="url(#Gradient_2)" stroke="none" d="
M 902.7 211.95
Q 902.7 206.2 898.65 202.05 894.45 197.95 888.75 197.95 882.9 197.95 878.85 202.05 874.7 206.2 874.7 211.95 874.7 217.75 878.85 221.85 882.9 225.95 888.75 225.95 894.45 225.95 898.65 221.85 902.7 217.75 902.7 211.95 Z"/>
</g>
</defs>

<g transform="matrix( 1, 0, 0, 1, -868.3,-192.5) ">
<use xlink:href="#Layer0_0_MEMBER_0_FILL"/>
</g>

<g transform="matrix( 1, 0, 0, 1, -868.3,-192.5) ">
<use xlink:href="#Layer0_0_MEMBER_1_FILL"/>
</g>

<g transform="matrix( 1, 0, 0, 1, -868.3,-192.5) ">
<use xlink:href="#Layer0_0_MEMBER_1_MEMBER_0_FILL"/>
</g>
</svg>
