
<svg xmlns="http://www.w3.org/2000/svg" version="1.1" xmlns:xlink="http://www.w3.org/1999/xlink" preserveAspectRatio="none" x="0px" y="0px" width="28px" height="28px" viewBox="0 0 28 28">
<defs>
<radialGradient id="Gradient_1" gradientUnits="userSpaceOnUse" cx="0" cy="0" r="12.262500000000003" fx="0" fy="0" gradientTransform="matrix( 0.9999999999999999, 0, 0, 0.9999999999999999, 79,205.1) " spreadMethod="pad">
<stop  offset="0%" stop-color="#FFFFFF"/>

<stop  offset="100%" stop-color="#B8B8B8"/>
</radialGradient>

<linearGradient id="Gradient_2" gradientUnits="userSpaceOnUse" x1="78.95" y1="194.425" x2="78.95" y2="213.875" spreadMethod="pad">
<stop  offset="0%" stop-color="#FFFFFF" stop-opacity="0.5019607843137255"/>

<stop  offset="100%" stop-color="#FFFFFF" stop-opacity="0"/>

<stop  offset="100%" stop-color="#FFFFFF" stop-opacity="0"/>
</linearGradient>

<g id="Layer0_0_MEMBER_0_FILL">
<path fill="#484848" stroke="none" d="
M 79.05 190.5
Q 73.15 190.5 68.95 194.65 64.75 198.85 64.75 204.8 64.75 210.7 68.95 214.85 73.15 219.05 79.05 219.05 84.95 219.05 89.15 214.85 93.35 210.7 93.35 204.8 93.35 198.85 89.15 194.65 84.95 190.5 79.05 190.5 Z"/>
</g>

<g id="Layer0_0_MEMBER_1_FILL">
<path fill="url(#Gradient_1)" stroke="none" d="
M 79.1 193.05
Q 74.25 193.05 70.8 196.5 67.4 199.95 67.4 204.8 67.4 209.65 70.8 213.05 74.25 216.5 79.1 216.5 83.95 216.5 87.35 213.05 90.85 209.65 90.85 204.8 90.85 199.95 87.35 196.5 83.95 193.05 79.1 193.05 Z"/>
</g>

<g id="Layer0_0_MEMBER_1_MEMBER_0_FILL">
<path fill="url(#Gradient_2)" stroke="none" d="
M 78.95 194.4
Q 74.95 194.4 72.15 197.25 69.25 200.2 69.25 204.2 69.25 208.2 72.15 211 74.95 213.85 78.95 213.85 82.95 213.85 85.9 211 88.7 208.2 88.7 204.2 88.7 200.2 85.9 197.25 82.95 194.4 78.95 194.4 Z"/>
</g>
</defs>

<g transform="matrix( 1, 0, 0, 1, -64.75,-190.5) ">
<use xlink:href="#Layer0_0_MEMBER_0_FILL"/>
</g>

<g transform="matrix( 1, 0, 0, 1, -64.75,-190.5) ">
<use xlink:href="#Layer0_0_MEMBER_1_FILL"/>
</g>

<g transform="matrix( 1, 0, 0, 1, -64.75,-190.5) ">
<use xlink:href="#Layer0_0_MEMBER_1_MEMBER_0_FILL"/>
</g>
</svg>
