
<svg xmlns="http://www.w3.org/2000/svg" version="1.1" xmlns:xlink="http://www.w3.org/1999/xlink" preserveAspectRatio="none" x="0px" y="0px" width="29px" height="29px" viewBox="0 0 29 29">
<defs>
<linearGradient id="Gradient_1" gradientUnits="userSpaceOnUse" x1="43.224999999999994" y1="612.6" x2="67.375" y2="612.6" spreadMethod="pad">
<stop  offset="0%" stop-color="#008311"/>

<stop  offset="100%" stop-color="#00520B"/>
</linearGradient>

<linearGradient id="Gradient_2" gradientUnits="userSpaceOnUse" x1="55.15" y1="601.8375" x2="55.15" y2="621.8625000000001" spreadMethod="pad">
<stop  offset="0%" stop-color="#FFFFFF" stop-opacity="0.5019607843137255"/>

<stop  offset="100%" stop-color="#FFFFFF" stop-opacity="0"/>

<stop  offset="100%" stop-color="#FFFFFF" stop-opacity="0"/>
</linearGradient>

<g id="Layer0_0_MEMBER_0_FILL">
<path fill="#222223" stroke="none" d="
M 65.65 622.95
Q 70 618.65 70 612.6 70 606.5 65.65 602.15 61.35 597.95 55.3 597.95 49.2 597.95 44.9 602.15 40.6 606.5 40.6 612.6 40.6 618.65 44.9 622.95 49.2 627.3 55.3 627.3 61.35 627.3 65.65 622.95 Z"/>
</g>

<g id="Layer0_0_MEMBER_1_FILL">
<path fill="url(#Gradient_1)" stroke="none" d="
M 63.8 621.15
Q 67.4 617.65 67.4 612.6 67.4 607.65 63.8 604.1 60.3 600.55 55.3 600.55 50.35 600.55 46.8 604.1 43.2 607.65 43.2 612.6 43.2 617.65 46.8 621.15 50.35 624.65 55.3 624.65 60.3 624.65 63.8 621.15 Z"/>
</g>

<g id="Layer0_0_MEMBER_1_MEMBER_0_FILL">
<path fill="url(#Gradient_2)" stroke="none" d="
M 48.05 619
Q 51 621.95 55.15 621.95 59.3 621.95 62.2 619 65.15 616.05 65.15 611.95 65.15 607.8 62.2 604.85 59.3 601.9 55.15 601.9 51 601.9 48.05 604.85 45.15 607.8 45.15 611.95 45.15 616.05 48.05 619 Z"/>
</g>
</defs>

<g transform="matrix( 1, 0, 0, 1, -40.6,-597.9) ">
<use xlink:href="#Layer0_0_MEMBER_0_FILL"/>
</g>

<g transform="matrix( 1, 0, 0, 1, -40.6,-597.9) ">
<use xlink:href="#Layer0_0_MEMBER_1_FILL"/>
</g>

<g transform="matrix( 1, 0, 0, 1, -40.6,-597.9) ">
<use xlink:href="#Layer0_0_MEMBER_1_MEMBER_0_FILL"/>
</g>
</svg>
