
<svg xmlns="http://www.w3.org/2000/svg" version="1.1" xmlns:xlink="http://www.w3.org/1999/xlink" preserveAspectRatio="none" x="0px" y="0px" width="29px" height="29px" viewBox="0 0 29 29">
<defs>
<linearGradient id="Gradient_1" gradientUnits="userSpaceOnUse" x1="286.675" y1="612.5" x2="310.825" y2="612.5" spreadMethod="pad">
<stop  offset="0%" stop-color="#FDAF28"/>

<stop  offset="100%" stop-color="#B26D14"/>
</linearGradient>

<linearGradient id="Gradient_2" gradientUnits="userSpaceOnUse" x1="298.65" y1="601.7375" x2="298.65" y2="621.7625" spreadMethod="pad">
<stop  offset="0%" stop-color="#FFFFFF" stop-opacity="0.5019607843137255"/>

<stop  offset="100%" stop-color="#FFFFFF" stop-opacity="0"/>

<stop  offset="100%" stop-color="#FFFFFF" stop-opacity="0"/>
</linearGradient>

<g id="Layer0_0_MEMBER_0_FILL">
<path fill="#222223" stroke="none" d="
M 309.15 622.85
Q 313.5 618.55 313.5 612.5 313.5 606.4 309.15 602.05 304.9 597.85 298.75 597.85 292.7 597.85 288.45 602.05 284.1 606.4 284.1 612.5 284.1 618.55 288.45 622.85 292.7 627.2 298.75 627.2 304.9 627.2 309.15 622.85 Z"/>
</g>

<g id="Layer0_0_MEMBER_1_FILL">
<path fill="url(#Gradient_1)" stroke="none" d="
M 307.35 621.05
Q 310.9 617.55 310.9 612.5 310.9 607.55 307.35 604 303.8 600.45 298.85 600.45 293.85 600.45 290.3 604 286.7 607.55 286.7 612.5 286.7 617.55 290.3 621.05 293.85 624.55 298.85 624.55 303.8 624.55 307.35 621.05 Z"/>
</g>

<g id="Layer0_0_MEMBER_1_MEMBER_0_FILL">
<path fill="url(#Gradient_2)" stroke="none" d="
M 291.55 618.9
Q 294.55 621.85 298.65 621.85 302.8 621.85 305.75 618.9 308.65 615.95 308.65 611.85 308.65 607.7 305.75 604.75 302.8 601.8 298.65 601.8 294.55 601.8 291.55 604.75 288.65 607.7 288.65 611.85 288.65 615.95 291.55 618.9 Z"/>
</g>
</defs>

<g transform="matrix( 1, 0, 0, 1, -284.1,-597.8) ">
<use xlink:href="#Layer0_0_MEMBER_0_FILL"/>
</g>

<g transform="matrix( 1, 0, 0, 1, -284.1,-597.8) ">
<use xlink:href="#Layer0_0_MEMBER_1_FILL"/>
</g>

<g transform="matrix( 1, 0, 0, 1, -284.1,-597.8) ">
<use xlink:href="#Layer0_0_MEMBER_1_MEMBER_0_FILL"/>
</g>
</svg>
