
<svg xmlns="http://www.w3.org/2000/svg" version="1.1" xmlns:xlink="http://www.w3.org/1999/xlink" preserveAspectRatio="none" x="0px" y="0px" width="37px" height="37px" viewBox="0 0 37 37">
<defs>
<g id="Layer0_0_FILL">
<path fill="#575B65" stroke="none" d="
M 82.7 419.7
Q 82.6 419.55 82.4 419.5
L 69.45 412.05 69.45 412
Q 68.3 411.6 67.1 411.45 64.5 411.3 62.7 413
L 62.65 413.05
Q 62.65 413.15 62.55 413.25
L 62.55 413.3 62.5 413.3
Q 60.75 415.05 60.95 417.65 61.05 418.85 61.45 419.9 61.45 419.95 61.55 420.05
L 69 433
Q 69.05 433.05 69.1 433.15 69.15 433.2 69.15 433.3 70.65 435.75 72.7 437.75 74.55 439.55 76.8 440.85 76.8 440.95 76.85 440.95 76.9 440.95 77 440.95
L 89.4 448.1
Q 90.65 448.8 92.2 448.85 94.8 449.05 96.6 447.35 96.65 447.2 96.75 447.2
L 96.75 447.15 96.8 447.1
Q 98.5 445.4 98.4 442.75 98.25 441.2 97.6 439.9
L 97.55 439.85 90.45 427.5
Q 90.35 427.45 90.3 427.3 89 425.05 87.2 423.3 85.25 421.15 82.7 419.7
M 81.85 420.85
Q 84.3 422.2 86.25 424.2 87.9 425.95 89.15 428.15
L 96.3 440.45 96.25 440.4
Q 96.75 441.45 96.85 442.6
L 96.85 442.65
Q 97.05 444.6 95.7 445.95
L 95.65 446 95.6 446
Q 95.55 446.15 95.55 446.2
L 95.45 446.2
Q 94.05 447.5 92.05 447.4 90.9 447.25 89.9 446.8
L 89.95 446.8 77.6 439.7
Q 75.45 438.4 73.7 436.75 71.7 434.85 70.25 432.35
L 62.8 419.4
Q 62.55 418.6 62.4 417.75 62.3 415.75 63.6 414.45 63.6 414.35 63.7 414.35
L 63.7 414.3 63.85 414.15
Q 65.2 412.85 67.2 413 68.1 413.05 68.9 413.35
L 81.85 420.85 Z"/>

<path fill="#38383A" stroke="none" d="
M 86.25 424.2
Q 84.3 422.2 81.85 420.85
L 68.9 413.35
Q 68.1 413.05 67.2 413 65.2 412.85 63.85 414.15
L 63.7 414.3 63.7 414.35
Q 63.6 414.35 63.6 414.45 62.3 415.75 62.4 417.75 62.55 418.6 62.8 419.4
L 70.25 432.35
Q 71.7 434.85 73.7 436.75 75.45 438.4 77.6 439.7
L 89.95 446.8 89.9 446.8
Q 90.9 447.25 92.05 447.4 94.05 447.5 95.45 446.2
L 95.55 446.2
Q 95.55 446.15 95.6 446
L 95.65 446 95.7 445.95
Q 97.05 444.6 96.85 442.65
L 96.85 442.6
Q 96.75 441.45 96.25 440.4
L 96.3 440.45 89.15 428.15
Q 87.9 425.95 86.25 424.2
M 82.65 427.2
Q 83.85 428.5 83.8 430.15 83.8 431.95 82.6 433.15 81.35 434.35 79.6 434.35 77.9 434.35 76.7 433.15 75.5 431.95 75.45 430.15 75.5 428.5 76.7 427.2 77.9 426 79.6 425.95 81.4 425.95 82.65 427.2 Z"/>

<path fill="#050505" stroke="none" d="
M 83.8 430.15
Q 83.85 428.5 82.65 427.2 81.4 425.95 79.6 425.95 77.9 426 76.7 427.2 75.5 428.5 75.45 430.15 75.5 431.95 76.7 433.15 77.9 434.35 79.6 434.35 81.35 434.35 82.6 433.15 83.8 431.95 83.8 430.15 Z"/>
</g>
</defs>

<g transform="matrix( 1, 0, 0, 1, -60.95,-411.45) ">
<use xlink:href="#Layer0_0_FILL"/>
</g>
</svg>
