
<svg xmlns="http://www.w3.org/2000/svg" version="1.1" xmlns:xlink="http://www.w3.org/1999/xlink" preserveAspectRatio="none" x="0px" y="0px" width="59px" height="59px" viewBox="0 0 59 59">
<defs>
<g id="Layer0_0_MEMBER_0_FILL">
<path fill="#FFFFFF" fill-opacity="0.9019607843137255" stroke="none" d="
M 242.3 391.5
Q 242.25 390.4 241.65 391.15
L 236.45 396.8
Q 235.8 397.55 235.85 398.6
L 236.1 406.2
Q 236.1 407.2 236.8 406.4
L 241.95 400.8
Q 242.6 400.05 242.6 399.1
L 242.3 391.5 Z"/>
</g>

<g id="Layer0_0_MEMBER_1_FILL">
<path fill="#575B65" stroke="none" d="
M 239.6 353.1
L 237.05 355.25
Q 235.1 357.1 232.35 357.5
L 229.15 357.95
Q 226.15 358.3 224.15 360.5 222.05 362.85 222 365.8
L 221.85 369.05
Q 221.8 371.75 220.15 373.9
L 218.2 376.65
Q 216.25 378.9 216.4 381.95
L 216.45 381.9
Q 216.6 384.8 218.65 387.05
L 220.9 389.5
Q 222.9 391.55 223.15 394.25
L 223.65 397.6
Q 223.95 400.45 226.15 402.45 228.4 404.5 231.35 404.55
L 234.7 404.7
Q 237.45 404.8 239.45 406.35
L 242.15 408.45
Q 244.55 410.2 247.55 410.1 250.5 410 252.7 407.95
L 255.1 405.65
Q 257.1 403.8 259.7 403.45
L 263 403
Q 266.05 402.8 268.15 400.45 270.15 398.25 270.15 395.15
L 270.2 391.9
Q 270.4 389.15 272 387
L 274.1 384.4
Q 275.85 382 275.75 379.05 275.55 376.05 273.55 373.9
L 271.2 371.45
Q 269.45 369.55 269.05 366.8
L 268.6 363.5
Q 268.3 360.55 266.05 358.5 263.85 356.5 260.9 356.55
L 257.5 356.35
Q 254.9 356.3 252.65 354.6
L 250.05 352.5
Q 247.6 350.65 244.65 350.85 241.6 350.9 239.6 353.1
M 238.05 356.1
L 240.5 353.65
Q 242.25 352.05 244.7 352.05 247.1 351.8 249 353.35
L 251.7 355.6
Q 254.3 357.45 257.6 357.55
L 261.05 357.7 261.15 357.75
Q 263.5 357.75 265.25 359.35 267.05 361 267.4 363.45
L 267.8 366.8
Q 268.25 370.1 270.4 372.6
L 272.8 374.95
Q 274.4 376.6 274.6 379.2 274.65 381.45 273.2 383.35
L 271.1 386.1
Q 269.15 388.75 269 392
L 268.9 392.1 268.85 395.5
Q 268.8 397.85 267.2 399.6 265.55 401.4 263.2 401.7
L 259.8 402.1
Q 256.5 402.55 254.05 404.9
L 251.55 407.25
Q 249.8 408.85 247.55 409 245 409 243.1 407.55
L 240.4 405.5
Q 237.9 403.55 234.55 403.4
L 231.2 403.3
Q 228.7 403.25 226.9 401.6 225.15 400 224.9 397.65
L 224.95 397.6 224.45 394.25 224.35 394.15
Q 223.95 390.9 221.75 388.6
L 219.35 386
Q 217.7 384.2 217.65 381.85 217.4 379.45 218.85 377.55
L 221 374.9
Q 223.05 372.2 223.15 368.85
L 223.2 365.4
Q 223.35 363.1 225 361.3 226.6 359.55 228.85 359.2
L 232.25 358.85 232.35 358.75
Q 235.65 358.35 238.05 356.1 Z"/>

<path fill="#0C0C0C" stroke="none" d="
M 240.5 353.65
L 238.05 356.1
Q 235.65 358.35 232.35 358.75
L 232.25 358.85 228.85 359.2
Q 226.6 359.55 225 361.3 223.35 363.1 223.2 365.4
L 223.15 368.85
Q 223.05 372.2 221 374.9
L 218.85 377.55
Q 217.4 379.45 217.65 381.85 217.7 384.2 219.35 386
L 221.75 388.6
Q 223.95 390.9 224.35 394.15
L 224.45 394.25 224.95 397.6 224.9 397.65
Q 225.15 400 226.9 401.6 228.7 403.25 231.2 403.3
L 234.55 403.4
Q 237.9 403.55 240.4 405.5
L 243.1 407.55
Q 245 409 247.55 409 249.8 408.85 251.55 407.25
L 254.05 404.9
Q 256.5 402.55 259.8 402.1
L 263.2 401.7
Q 265.55 401.4 267.2 399.6 268.8 397.85 268.85 395.5
L 268.9 392.1 269 392
Q 269.15 388.75 271.1 386.1
L 273.2 383.35
Q 274.65 381.45 274.6 379.2 274.4 376.6 272.8 374.95
L 270.4 372.6
Q 268.25 370.1 267.8 366.8
L 267.4 363.45
Q 267.05 361 265.25 359.35 263.5 357.75 261.15 357.75
L 261.05 357.7 257.6 357.55
Q 254.3 357.45 251.7 355.6
L 249 353.35
Q 247.1 351.8 244.7 352.05 242.25 352.05 240.5 353.65 Z"/>
</g>

<g id="Layer0_0_MEMBER_2_FILL">
<path fill="#050505" stroke="none" d="
M 241.8 376.8
Q 240.15 378.55 240.3 381 240.4 383.3 242.1 384.85 244 386.4 246.3 386.35 248.55 386.2 250.3 384.55 251.8 382.65 251.75 380.35 251.65 377.95 249.85 376.35 248.15 374.8 245.8 374.95 243.45 375.05 241.8 376.8 Z"/>
</g>
</defs>

<g transform="matrix( 1, 0, 0, 1, -216.4,-350.85) ">
<use xlink:href="#Layer0_0_MEMBER_0_FILL"/>
</g>

<g transform="matrix( 1, 0, 0, 1, -216.4,-350.85) ">
<use xlink:href="#Layer0_0_MEMBER_1_FILL"/>
</g>

<g transform="matrix( 1, 0, 0, 1, -216.4,-350.85) ">
<use xlink:href="#Layer0_0_MEMBER_2_FILL"/>
</g>
</svg>
