
<svg xmlns="http://www.w3.org/2000/svg" version="1.1" xmlns:xlink="http://www.w3.org/1999/xlink" preserveAspectRatio="none" x="0px" y="0px" width="14px" height="46px" viewBox="0 0 14 46">
<defs>
<linearGradient id="Gradient_1" gradientUnits="userSpaceOnUse" x1="743.25" y1="287.5" x2="743.25" y2="335.9" spreadMethod="pad">
<stop  offset="0%" stop-color="#777777"/>

<stop  offset="100%" stop-color="#3C3C3C"/>
</linearGradient>

<radialGradient id="Gradient_2" gradientUnits="userSpaceOnUse" cx="0" cy="0" r="3.714372423438419" fx="0" fy="0" gradientTransform="matrix( 0.9658428372346755, 0.25912856608735196, -0.25912856608735196, 0.9658428372346755, 743.2,312.15) " spreadMethod="pad">
<stop  offset="0%" stop-color="#E7E7E7"/>

<stop  offset="100%" stop-color="#ADADAD"/>
</radialGradient>

<g id="Layer0_0_FILL">
<path fill="url(#Gradient_1)" stroke="none" d="
M 748.35 295.35
L 748.35 295.3
Q 746.25 288.1 743.2 288.2 740.15 288.1 738.15 295.35 736.2 302.1 736.2 311.7 736.2 321.25 738.15 328.05 740.15 335.25 743.2 335.15 746.25 335.25 748.35 328.05 750.25 321.25 750.25 311.7 750.25 302.1 748.35 295.35
M 739.1 295.6
Q 740.85 289.3 743.2 289.2 745.55 289.3 747.4 295.6 749.25 302.2 749.25 311.7 749.25 321.15 747.4 327.8
L 747.4 327.75
Q 745.55 334.05 743.2 334.15 740.85 334.05 739.1 327.8 737.2 321.15 737.2 311.7 737.2 302.2 739.1 295.6 Z"/>

<path fill="#131310" stroke="none" d="
M 743.2 289.2
Q 740.85 289.3 739.1 295.6 737.2 302.2 737.2 311.7 737.2 321.15 739.1 327.8 740.85 334.05 743.2 334.15 745.55 334.05 747.4 327.75
L 747.4 327.8
Q 749.25 321.15 749.25 311.7 749.25 302.2 747.4 295.6 745.55 289.3 743.2 289.2
M 742.35 300.2
L 740.9 300.2 743.2 291.9 745.5 300.2 744 300.2 744 305.8 742.35 305.8 742.35 300.2
M 741.35 309.05
Q 742.65 308.3 744.1 308.7 745.6 309.1 746.35 310.35 747.2 311.75 746.85 313.15 746.45 314.7 745 315.45 743.7 316.25 742.2 315.85 740.75 315.45 740 314.15 739.2 312.75 739.6 311.2 739.95 309.8 741.35 309.05 Z"/>

<path fill="url(#Gradient_2)" stroke="none" d="
M 744.1 308.7
Q 742.65 308.3 741.35 309.05 739.95 309.8 739.6 311.2 739.2 312.75 740 314.15 740.75 315.45 742.2 315.85 743.7 316.25 745 315.45 746.45 314.7 746.85 313.15 747.2 311.75 746.35 310.35 745.6 309.1 744.1 308.7
M 743.7 310.3
L 743.75 310.3
Q 743.9 310.35 744 310.45 744.05 310.5 744 310.7
L 743.15 313.95
Q 743.1 314.1 743 314.2 742.85 314.3 742.7 314.25
L 742.65 314.25
Q 742.55 314.2 742.45 314.05 742.3 313.9 742.35 313.75
L 743.2 310.5
Q 743.25 310.3 743.45 310.3 743.6 310.25 743.7 310.3 Z"/>

<path fill="#666666" stroke="none" d="
M 743.75 310.3
L 743.7 310.3
Q 743.6 310.25 743.45 310.3 743.25 310.3 743.2 310.5
L 742.35 313.75
Q 742.3 313.9 742.45 314.05 742.55 314.2 742.65 314.25
L 742.7 314.25
Q 742.85 314.3 743 314.2 743.1 314.1 743.15 313.95
L 744 310.7
Q 744.05 310.5 744 310.45 743.9 310.35 743.75 310.3 Z"/>

<path fill="#FFFFFF" stroke="none" d="
M 740.9 300.2
L 742.35 300.2 742.35 305.8 744 305.8 744 300.2 745.5 300.2 743.2 291.9 740.9 300.2 Z"/>
</g>
</defs>

<g transform="matrix( 1, 0, 0, 1, -736.2,-288.2) ">
<use xlink:href="#Layer0_0_FILL"/>
</g>
</svg>
