
<svg xmlns="http://www.w3.org/2000/svg" version="1.1" xmlns:xlink="http://www.w3.org/1999/xlink" preserveAspectRatio="none" x="0px" y="0px" width="33px" height="33px" viewBox="0 0 33 33">
<defs>
<linearGradient id="Gradient_1" gradientUnits="userSpaceOnUse" x1="701.25" y1="343.35" x2="701.25" y2="377.15" spreadMethod="pad">
<stop  offset="0%" stop-color="#777777"/>

<stop  offset="100%" stop-color="#3C3C3C"/>
</linearGradient>

<linearGradient id="Gradient_2" gradientUnits="userSpaceOnUse" x1="743.2" y1="360.575" x2="743.2" y2="387.825" spreadMethod="pad">
<stop  offset="0%" stop-color="#777777"/>

<stop  offset="100%" stop-color="#3C3C3C"/>
</linearGradient>

<g id="Layer0_0_MEMBER_0_FILL">
<path fill="url(#Gradient_1)" stroke="none" d="
M 718.15 360.25
Q 718.15 353.25 713.2 348.3 708.25 343.35 701.25 343.35 694.25 343.35 689.3 348.3 684.35 353.25 684.35 360.25 684.35 367.25 689.3 372.2 694.25 377.15 701.25 377.15 708.25 377.15 713.2 372.2 718.15 367.25 718.15 360.25
M 712.5 349
Q 717.15 353.65 717.15 360.25 717.15 366.85 712.5 371.5 707.85 376.15 701.25 376.15 694.65 376.15 690 371.5 685.35 366.85 685.35 360.25 685.35 353.8638671875 689.7 349.3 689.84921875 349.15078125 690 349 690.2013671875 348.7986328125 690.4 348.6 694.9357421875 344.35 701.25 344.35 707.85 344.35 712.5 349 Z"/>

<path fill="#FFFFFF" stroke="none" d="
M 701.75 359.95
L 690.4 348.6
Q 690.2013671875 348.7986328125 690 349 689.84921875 349.15078125 689.7 349.3
L 701.05 360.65
Q 701.1947265625 360.7982421875 701.4 360.8 701.6052734375 360.7982421875 701.75 360.65 701.8982421875 360.5052734375 701.9 360.3 701.8982421875 360.0947265625 701.75 359.95 Z"/>

<path fill="#131310" stroke="none" d="
M 717.15 360.25
Q 717.15 353.65 712.5 349 707.85 344.35 701.25 344.35 694.9357421875 344.35 690.4 348.6
L 701.75 359.95
Q 701.8982421875 360.0947265625 701.9 360.3 701.8982421875 360.5052734375 701.75 360.65 701.6052734375 360.7982421875 701.4 360.8 701.1947265625 360.7982421875 701.05 360.65
L 689.7 349.3
Q 685.35 353.8638671875 685.35 360.25 685.35 366.85 690 371.5 694.65 376.15 701.25 376.15 707.85 376.15 712.5 371.5 717.15 366.85 717.15 360.25 Z"/>
</g>

<g id="Layer0_0_MEMBER_1_MEMBER_0_FILL">
<path fill="url(#Gradient_2)" stroke="none" d="
M 752.9 364.65
Q 751.9 363.7 750.5 363.5
L 748.95 363.4
Q 747.75 363.35 746.8 362.5
L 745.6 361.5
Q 744.6 360.6 743.25 360.6 741.8 360.6 740.8 361.5
L 739.6 362.5
Q 738.65 363.35 737.5 363.4
L 735.95 363.5
Q 734.55 363.7 733.6 364.65 732.65 365.55 732.5 366.95
L 732.35 368.5
Q 732.3 369.7 731.45 370.65
L 730.5 371.8
Q 729.6 372.85 729.6 374.25 729.6 375.6 730.5 376.65
L 731.45 377.8
Q 732.3 378.8 732.35 380
L 732.5 381.55
Q 732.65 382.9 733.6 383.85 734.55 384.8 735.95 384.95
L 737.5 385.05
Q 738.65 385.15 739.6 386
L 740.8 386.95
Q 741.8 387.85 743.25 387.85 744.6 387.85 745.6 386.95
L 746.8 386
Q 747.75 385.15 748.95 385.05
L 750.5 384.95
Q 751.9 384.8 752.9 383.85 753.85 382.9 753.9 381.55
L 754.05 380
Q 754.15 378.8 754.95 377.8
L 755.95 376.65
Q 756.85 375.6 756.85 374.25 756.85 372.85 755.95 371.8
L 754.95 370.65
Q 754.15 369.7 754.05 368.5
L 753.9 366.95
Q 753.85 365.55 752.9 364.6
L 752.9 364.65
M 753.15 367
L 753.25 368.5
Q 753.4 370 754.4 371.15
L 755.4 372.35
Q 756.05 373.15 756.05 374.25 756.05 375.35 755.4 376.15
L 754.4 377.3 754.4 377.35
Q 753.4 378.5 753.25 379.95
L 753.15 381.5
Q 753.05 382.55 752.3 383.3 751.55 384.1 750.45 384.15
L 748.9 384.25
Q 747.4 384.4 746.3 385.35
L 745.15 386.35 745.1 386.35
Q 744.25 387.05 743.25 387.05 742.15 387.05 741.25 386.35
L 740.1 385.35
Q 739 384.4 737.55 384.25
L 735.95 384.15
Q 734.9 384.1 734.15 383.3 733.4 382.55 733.3 381.5
L 733.2 379.95
Q 733 378.5 732.1 377.35
L 732.1 377.3 731.1 376.15
Q 730.4 375.35 730.4 374.25 730.4 373.15 731.1 372.35
L 732.1 371.15
Q 733.1 370 733.2 368.5
L 733.3 367
Q 733.4 365.95 734.15 365.2 734.9 364.4 736 364.35
L 737.55 364.2
Q 739 364.05 740.1 363.1
L 741.25 362.15
Q 742.15 361.4 743.25 361.4 744.25 361.4 745.1 362.1
L 745.1 362.15 746.25 363.1 746.3 363.1
Q 747.4 364.05 748.9 364.2
L 750.45 364.35
Q 751.55 364.4 752.3 365.2 753.05 365.95 753.15 367 Z"/>

<path fill="#0C0C0C" stroke="none" d="
M 753.25 368.5
L 753.15 367
Q 753.05 365.95 752.3 365.2 751.55 364.4 750.45 364.35
L 748.9 364.2
Q 747.4 364.05 746.3 363.1
L 746.25 363.1 745.1 362.15 745.1 362.1
Q 744.25 361.4 743.25 361.4 742.15 361.4 741.25 362.15
L 740.1 363.1
Q 739 364.05 737.55 364.2
L 736 364.35
Q 734.9 364.4 734.15 365.2 733.4 365.95 733.3 367
L 733.2 368.5
Q 733.1 370 732.1 371.15
L 731.1 372.35
Q 730.4 373.15 730.4 374.25 730.4 375.35 731.1 376.15
L 732.1 377.3 732.1 377.35
Q 733 378.5 733.2 379.95
L 733.3 381.5
Q 733.4 382.55 734.15 383.3 734.9 384.1 735.95 384.15
L 737.55 384.25
Q 739 384.4 740.1 385.35
L 741.25 386.35
Q 742.15 387.05 743.25 387.05 744.25 387.05 745.1 386.35
L 745.15 386.35 746.3 385.35
Q 747.4 384.4 748.9 384.25
L 750.45 384.15
Q 751.55 384.1 752.3 383.3 753.05 382.55 753.15 381.5
L 753.25 379.95
Q 753.4 378.5 754.4 377.35
L 754.4 377.3 755.4 376.15
Q 756.05 375.35 756.05 374.25 756.05 373.15 755.4 372.35
L 754.4 371.15
Q 753.4 370 753.25 368.5 Z"/>
</g>

<g id="Layer0_0_MEMBER_1_MEMBER_0_MEMBER_0_FILL">
<path fill="#FFFFFF" stroke="none" d="
M 743.7 373.9
L 734.6 364.8
Q 734.35 364.95 734.15 365.2 734 365.35 733.9 365.5
L 743 374.6
Q 743.15 374.75 743.35 374.75 743.55 374.75 743.7 374.6 743.85 374.45 743.85 374.25 743.85 374.05 743.7 373.9 Z"/>
</g>

<g id="Layer0_0_MEMBER_1_MEMBER_1_FILL">
<path fill="#050505" stroke="none" d="
M 745.6 374.1
Q 745.6 373.1 744.85 372.3 744.15 371.65 743.1 371.65 742.1 371.65 741.4 372.35 740.6 373.1 740.6 374.1 740.6 375.15 741.4 375.9 742.1 376.6 743.1 376.6 744.15 376.6 744.85 375.9 745.6 375.15 745.6 374.1 Z"/>
</g>
</defs>

<g transform="matrix( 1, 0, 0, 1, -684.35,-343.35) ">
<use xlink:href="#Layer0_0_MEMBER_0_FILL"/>
</g>

<g transform="matrix( 1, 0, 0, 1, -726.3,-357.3) ">
<use xlink:href="#Layer0_0_MEMBER_1_MEMBER_0_FILL"/>
</g>

<g transform="matrix( 1, 0, 0, 1, -726.3,-357.3) ">
<use xlink:href="#Layer0_0_MEMBER_1_MEMBER_0_MEMBER_0_FILL"/>
</g>

<g transform="matrix( 1, 0, 0, 1, -726.3,-357.3) ">
<use xlink:href="#Layer0_0_MEMBER_1_MEMBER_1_FILL"/>
</g>
</svg>
