
<svg xmlns="http://www.w3.org/2000/svg" version="1.1" xmlns:xlink="http://www.w3.org/1999/xlink" preserveAspectRatio="none" x="0px" y="0px" width="19px" height="19px" viewBox="0 0 19 19">
<defs>
<g id="Layer0_0_MEMBER_0_FILL">
<path fill="#38383A" stroke="none" d="
M 442.65 461.35
Q 438.65 461.35 435.8 464.15 433 466.95 433 470.95 433 474.95 435.8 477.8 438.65 480.6 442.65 480.6 446.65 480.6 449.4 477.8 452.25 474.95 452.25 470.95 452.25 466.95 449.4 464.15 446.65 461.35 442.65 461.35
M 439.2 467.55
Q 440.65 466.15 442.65 466.15 444.65 466.15 446 467.55 447.45 468.95 447.45 470.95 447.45 472.95 446 474.4 444.65 475.8 442.65 475.8 440.65 475.8 439.2 474.4 437.8 472.95 437.8 470.95 437.8 468.95 439.2 467.55 Z"/>

<path fill="#000000" stroke="none" d="
M 442.65 466.15
Q 440.65 466.15 439.2 467.55 437.8 468.95 437.8 470.95 437.8 472.95 439.2 474.4 440.65 475.8 442.65 475.8 444.65 475.8 446 474.4 447.45 472.95 447.45 470.95 447.45 468.95 446 467.55 444.65 466.15 442.65 466.15 Z"/>
</g>

<g id="Layer0_0_MEMBER_1_FILL">
<path fill="#FFFFFF" stroke="none" d="
M 446 480.1
Q 446.1 480.05 446.25 480
L 445.75 478.7
Q 445.6 478.75 445.45 478.85
L 446 480.1
M 447.85 479.15
L 447.2 478.1 447.15 478.05
Q 447 478.1 446.9 478.2
L 447.6 479.3
Q 447.75 479.2 447.85 479.15
M 446.75 478.35
L 446.7 478.3
Q 446.6 478.35 446.5 478.4
L 447.15 479.6
Q 447.25 479.5 447.35 479.45
L 446.75 478.35
M 446.3 478.5
Q 446.15 478.55 446.05 478.6
L 446.6 479.85
Q 446.75 479.75 446.9 479.7
L 446.3 478.5
M 448.65 478.55
Q 448.75 478.5 448.85 478.4
L 448.05 477.45 448 477.4
Q 447.9 477.45 447.85 477.55
L 447.85 477.6 448.65 478.55
M 448.2 478.95
Q 448.3 478.85 448.4 478.75
L 447.65 477.75 447.65 477.7 447.15 477
Q 447 477.05 446.9 477.05
L 446.9 477.1 446.95 477.15 447.4 477.85 447.45 477.9 448.2 478.95
M 448.45 477.05
Q 448.3 477.15 448.25 477.25
L 449.1 478.15
Q 449.2 478.05 449.3 477.95
L 448.45 477.05
M 449.9 477.3
Q 450 477.2 450.1 477.15
L 449.1 476.3
Q 449 476.4 448.95 476.5
L 449.9 477.3
M 449.55 477.75
Q 449.6 477.65 449.7 477.55
L 448.75 476.7
Q 448.7 476.75 448.6 476.85
L 449.55 477.75
M 448.7 475.6
L 448.65 475.65 450.3 476.85
Q 450.4 476.7 450.5 476.6
L 448.8 475.4
Q 448.75 475.4 448.75 475.45 448.7 475.5 448.7 475.6
M 451.55 474.65
Q 451.6 474.55 451.65 474.4
L 450.45 473.95
Q 450.4 474.05 450.35 474.2
L 451.55 474.65
M 451.05 475.75
Q 451.1 475.6 451.2 475.5
L 450.05 474.85
Q 449.95 475 449.9 475.1
L 449.95 475.1 451.05 475.75
M 451.35 475.2
Q 451.4 475.05 451.45 474.95
L 450.3 474.4
Q 450.2 474.5 450.15 474.65
L 451.35 475.2
M 450.75 476.25
Q 450.8 476.15 450.9 476.05
L 449.8 475.35
Q 449.7 475.45 449.65 475.55
L 450.75 476.25
M 451.85 473.9
L 450.65 473.5 450.6 473.5 449.8 473.25
Q 449.75 473.3 449.75 473.45
L 449.75 473.5 451.75 474.15
Q 451.8 474 451.85 473.9
M 450.8 472.9
L 450.75 472.9
Q 450.7 473.05 450.7 473.2
L 451.95 473.5
Q 452 473.35 452.05 473.25
L 450.8 472.9
M 450.95 471.85
L 450.9 471.85
Q 450.9 471.95 450.9 472.1
L 450.95 472.1 452.2 472.25
Q 452.2 472.15 452.2 472
L 450.95 471.85
M 450.9 472.4
L 450.85 472.4
Q 450.8 472.55 450.8 472.7
L 450.85 472.7 452.1 472.95
Q 452.1 472.8 452.15 472.65
L 450.9 472.4
M 452.25 471
Q 452.25 470.95 452.25 470.9
L 450.15 470.9
Q 450.15 470.95 450.15 471
L 450.15 471.15 452.25 471.15
Q 452.25 471.05 452.25 471
M 452.25 470.5
Q 452.25 470.35 452.25 470.25
L 450.95 470.3
Q 450.95 470.45 450.95 470.6
L 452.25 470.5
M 452.25 471.75
Q 452.25 471.6 452.25 471.5
L 450.95 471.4
Q 450.95 471.5 450.95 471.65
L 452.25 471.75
M 450.9 469.85
Q 450.9 469.95 450.9 470.05
L 452.2 469.9
Q 452.2 469.8 452.2 469.7
L 450.9 469.85
M 450.75 469.25
Q 450.8 469.35 450.8 469.5
L 450.85 469.5 452.1 469.25
Q 452.1 469.1 452.05 469
L 450.8 469.25 450.75 469.25
M 452 468.65
Q 451.95 468.5 451.95 468.4
L 450.65 468.75 450.6 468.75
Q 450.65 468.85 450.7 468.95
L 452 468.65
M 450.3 467.75
Q 450.3 467.85 450.4 468
L 451.65 467.5
Q 451.55 467.35 451.55 467.25
L 450.3 467.75
M 450.05 467.3
Q 450.1 467.4 450.15 467.5
L 451.4 466.95
Q 451.35 466.8 451.3 466.7
L 450.05 467.3
M 450.55 468.35
L 450.5 468.35 449.75 468.55 449.7 468.6
Q 449.75 468.75 449.8 468.85
L 451.85 468.2
Q 451.8 468.05 451.8 467.95
L 450.55 468.35
M 449.85 466.8
Q 449.9 466.9 449.95 467.05
L 450 467.05 451.1 466.4
Q 451.05 466.3 451 466.2
L 449.85 466.8
M 449.55 466.3
Q 449.6 466.4 449.65 466.5
L 450.75 465.8
Q 450.65 465.7 450.6 465.6
L 449.55 466.3
M 450.1 464.95
Q 449.95 464.8 449.9 464.7
L 448.95 465.5 448.9 465.55
Q 449 465.65 449.1 465.75
L 449.15 465.75 450.1 464.95
M 450.45 465.4
Q 450.35 465.3 450.3 465.2
L 448.6 466.4 448.55 466.4 448.6 466.45
Q 448.7 466.55 448.75 466.6
L 450.45 465.4
M 449.65 464.45
Q 449.55 464.35 449.45 464.25
L 448.55 465.15
Q 448.6 465.2 448.7 465.3
L 449.65 464.45
M 448.4 463.3
Q 448.25 463.2 448.15 463.15
L 447.45 464.15 447.4 464.15 446.9 464.9
Q 447 465 447.1 465.1
L 447.15 465.05 447.65 464.35 447.65 464.3 448.4 463.3
M 449.2 464
Q 449.1 463.9 449 463.85
L 448.15 464.75
Q 448.2 464.8 448.3 464.9
L 449.2 464
M 448.7 463.55
Q 448.6 463.45 448.55 463.4
L 447.75 464.35 447.7 464.4
Q 447.8 464.45 447.9 464.55
L 447.9 464.5 448.7 463.55
M 447.8 462.9
Q 447.7 462.8 447.6 462.75
L 446.95 463.8 446.9 463.8
Q 447 463.85 447.1 463.95
L 447.15 463.9 447.8 462.9
M 446.7 463.7
L 446.7 463.65 447.3 462.6
Q 447.15 462.5 447.05 462.45
L 446.5 463.55 446.45 463.55
Q 446.55 463.6 446.7 463.7
M 446.7 462.25
Q 446.55 462.2 446.45 462.15
L 445.95 463.3 445.9 463.3
Q 446 463.35 446.15 463.4
L 446.7 462.25
M 434.2 475.75
L 435.3 475.15
Q 435.2 475 435.15 474.9
L 434.1 475.5
Q 434.15 475.6 434.2 475.75
M 435.05 474.7
Q 435 474.6 434.95 474.5
L 433.85 475
Q 433.9 475.1 433.95 475.25
L 435.05 474.7
M 434.75 473.95
L 434.7 473.95 433.6 474.4
Q 433.65 474.5 433.7 474.65
L 434.8 474.2 434.85 474.2
Q 434.75 474.05 434.75 473.95
M 434.45 473.2
L 434.5 473.15
Q 434.45 473 434.45 472.9
L 434.4 472.9 433.25 473.2
Q 433.25 473.3 433.3 473.45
L 434.45 473.2
M 433.05 472.1
Q 433.1 472.25 433.1 472.45
L 434.3 472.25 434.35 472.25
Q 434.3 472.1 434.3 471.95
L 434.25 471.95 433.05 472.1
M 433.15 472.65
Q 433.15 472.8 433.2 472.95
L 434.35 472.7 434.4 472.7
Q 434.35 472.55 434.35 472.4
L 434.3 472.4 433.15 472.65
M 434.25 470.6
Q 434.25 470.5 434.3 470.35
L 433.05 470.3
Q 433 470.4 433 470.55
L 434.25 470.6
M 434.3 471.7
Q 434.25 471.55 434.25 471.4
L 434.2 471.4 433 471.5
Q 433 471.6 433.05 471.75
L 434.3 471.7
M 435.25 471
Q 435.25 470.95 435.25 470.9
L 433 470.9
Q 433 470.95 433 471 433 471.05 433 471.15
L 435.25 471.15 435.25 471.1
Q 435.25 471.05 435.25 471
M 443 480.65
Q 443.1 480.65 443.25 480.65
L 443.15 479.35
Q 443.05 479.35 442.95 479.4
L 443 480.65
M 442.75 478.5
L 442.5 478.5 442.5 480.65
Q 442.6 480.65 442.65 480.65 442.7 480.65 442.75 480.65
L 442.75 478.5
M 441.6 479.35
Q 441.45 479.3 441.3 479.3
L 441.15 480.55
Q 441.3 480.55 441.45 480.6
L 441.6 479.35
M 441.15 479.3
L 441.15 479.25
Q 441 479.2 440.85 479.2
L 440.85 479.25 440.6 480.45
Q 440.75 480.45 440.9 480.5
L 441.15 479.3
M 442.05 479.4
Q 441.9 479.35 441.8 479.35
L 441.8 479.4 441.7 480.6
Q 441.85 480.6 442 480.65
L 442.05 479.4
M 444.4 479.15
L 444.4 479.25 444.7 480.45
Q 444.85 480.4 444.95 480.4
L 444.6 479.1
Q 444.5 479.1 444.4 479.15
M 445.05 478.1
Q 444.85 478.1 444.8 478.15
L 444.75 478.15 445.45 480.3
Q 445.55 480.2 445.7 480.2
L 445.05 478.1
M 444.2 479.3
L 444.2 479.2
Q 444.05 479.25 443.9 479.25
L 443.95 479.35 444.2 480.55
Q 444.3 480.5 444.45 480.5
L 444.2 479.3
M 443.4 479.35
L 443.4 479.4 443.6 480.65
Q 443.7 480.6 443.85 480.6
L 443.7 479.35 443.7 479.3
Q 443.55 479.3 443.4 479.35
M 440 480.3
Q 440.1 480.35 440.3 480.4
L 440.6 479.2 440.6 479.15
Q 440.45 479.1 440.3 479.1
L 440 480.3
M 435.45 477.5
Q 435.55 477.6 435.7 477.75
L 436.6 476.9
Q 436.45 476.75 436.35 476.65
L 435.45 477.5
M 437.3 477.5
Q 437.15 477.4 437.05 477.3
L 437.05 477.35 436.25 478.3
Q 436.35 478.4 436.5 478.5
L 437.3 477.5
M 436.9 477.2
Q 436.8 477.1 436.7 477
L 435.85 477.9
Q 435.95 478 436.05 478.1
L 436.9 477.2
M 439.25 478.7
L 439.25 478.75 438.8 479.9
Q 438.9 479.95 439 480
L 439.45 478.85 439.5 478.8
Q 439.35 478.75 439.25 478.7
M 440.3 478.2
L 440.3 478.15
Q 440.25 478.1 440.2 478.1
L 440.15 478.05 440.1 478.05 439.45 480.15
Q 439.55 480.15 439.65 480.2
L 440.05 479.05 440.05 479 440.3 478.2
M 438.4 478.25
L 438.4 478.3 437.8 479.4
Q 437.9 479.45 438.05 479.5
L 438.65 478.4
Q 438.55 478.35 438.5 478.3 438.45 478.25 438.4 478.25
M 439.05 478.6
Q 438.95 478.5 438.85 478.5
L 438.3 479.65
Q 438.4 479.7 438.5 479.75
L 439.05 478.6
M 438.15 478.15
L 438.15 478.1
Q 438.05 478.05 437.95 478
L 437.25 479.05
Q 437.35 479.1 437.45 479.2
L 438.15 478.15
M 438.3 477.1
L 438.35 477.05
Q 438.25 477.05 438.15 477
L 438.1 476.95 436.85 478.75
Q 436.9 478.8 437 478.9
L 437.75 477.9 437.8 477.85 438.3 477.1
M 436 476.2
L 436 476.25 435.05 477
Q 435.15 477.1 435.25 477.25
L 436.2 476.5 436.2 476.45
Q 436.1 476.35 436 476.2
M 435.5 475.5
Q 435.45 475.4 435.4 475.3
L 435.35 475.3 434.35 475.95
Q 434.4 476.05 434.45 476.15
L 435.45 475.55 435.5 475.5
M 436.45 475.35
L 436.45 475.25 435.7 475.8 435.65 475.85 434.7 476.55
Q 434.8 476.65 434.85 476.75
L 435.8 476.05 435.85 476 436.55 475.55 436.6 475.5
Q 436.5 475.4 436.45 475.35
M 435.55 473.25
L 435.55 473.2 435.5 473.25 434.6 473.55 434.55 473.55 433.4 473.9
Q 433.45 474.05 433.5 474.15
L 434.65 473.8 434.7 473.75 435.6 473.45
Q 435.6 473.35 435.55 473.25
M 435.45 464.55
L 436.35 465.4
Q 436.45 465.35 436.5 465.25
L 435.6 464.4
Q 435.55 464.45 435.45 464.55
M 436.7 465.05
Q 436.8 464.95 436.9 464.9
L 436.05 464
Q 435.95 464.05 435.85 464.15
L 436.7 465.05
M 438.6 463.65
L 438 462.55
Q 437.85 462.6 437.75 462.7
L 438.35 463.8
Q 438.5 463.7 438.6 463.65
M 438.55 462.3
Q 438.4 462.35 438.3 462.4
L 438.8 463.5 438.85 463.55
Q 438.95 463.45 439.1 463.4
L 439.05 463.4 438.55 462.3
M 439.1 462.05
Q 438.95 462.1 438.85 462.15
L 439.3 463.3
Q 439.45 463.25 439.6 463.2
L 439.55 463.15 439.1 462.05
M 440.1 461.75
Q 440 461.75 439.9 461.8
L 440.2 462.95 440.2 463
Q 440.3 462.95 440.4 462.95
L 440.4 462.9 440.1 461.75
M 439.7 461.85
Q 439.6 461.85 439.45 461.9
L 439.85 463.05 439.85 463.1 440.15 463.95 440.25 463.95
Q 440.3 463.9 440.4 463.9
L 440.35 463.85 439.7 461.85
M 436.55 463.55
Q 436.45 463.6 436.35 463.7
L 437.15 464.6 437.15 464.65
Q 437.25 464.6 437.35 464.55
L 437.3 464.5 436.55 463.55
M 437.05 463.15
Q 436.9 463.25 436.8 463.35
L 437.5 464.3 437.55 464.35 438.15 465.15 438.15 465.1
Q 438.25 465 438.35 465
L 438.35 464.9 437.8 464.2 437.75 464.15 437.05 463.15
M 437.25 463
L 437.9 464.05 437.95 464.1
Q 438.05 464 438.15 463.95
L 438.1 463.9 437.45 462.9
Q 437.35 462.95 437.25 463
M 445.4 463.05
L 445.35 463.1
Q 445.5 463.15 445.6 463.2
L 445.65 463.15 446.1 462
Q 445.95 461.95 445.85 461.9
L 445.4 463.05
M 445.25 463.05
L 445.25 463 445.65 461.85
Q 445.5 461.8 445.4 461.8
L 445 462.95 445 463 444.75 463.8 444.75 463.85
Q 444.85 463.85 445 463.9
L 445.25 463.05
M 444.15 462.8
L 444.2 462.75 444.4 461.55
Q 444.25 461.5 444.15 461.5
L 443.95 462.7 443.9 462.75
Q 444 462.75 444.15 462.8
M 443.8 461.45
Q 443.65 461.45 443.5 461.45
L 443.35 462.6 443.35 462.7
Q 443.5 462.7 443.65 462.75
L 443.65 462.65 443.8 461.45
M 445 461.7
Q 444.85 461.65 444.75 461.65
L 444.45 462.8 444.45 462.85
Q 444.55 462.85 444.7 462.9
L 444.7 462.85 445 461.7
M 442.9 461.4
L 442.85 462.65
Q 442.95 462.65 443.05 462.65
L 443.15 461.4
Q 443 461.4 442.9 461.4
M 440.75 461.6
Q 440.65 461.6 440.55 461.65
L 440.75 462.8 440.75 462.85
Q 440.85 462.8 441 462.8
L 441 462.75 440.75 461.6
M 441.4 461.5
Q 441.25 461.5 441.15 461.5
L 441.3 462.7 441.3 462.75
Q 441.4 462.7 441.55 462.7
L 441.55 462.65 441.4 461.5
M 442 461.45
Q 441.85 461.4 441.75 461.45
L 441.85 462.7
Q 441.95 462.65 442.05 462.7
L 442 461.45
M 442.75 461.4
Q 442.7 461.4 442.65 461.4 442.55 461.4 442.5 461.4
L 442.5 463.4 442.6 463.4
Q 442.7 463.4 442.75 463.4
L 442.75 461.4
M 433.2 469.1
Q 433.15 469.2 433.15 469.35
L 434.3 469.6 434.35 469.6
Q 434.4 469.45 434.4 469.35
L 434.35 469.35 433.2 469.1
M 433.1 469.7
Q 433.05 469.8 433.05 469.95
L 434.25 470.1 434.3 470.1
Q 434.3 469.95 434.35 469.85
L 434.25 469.85 433.1 469.7
M 433.35 468.45
Q 433.3 468.55 433.3 468.7
L 434.45 469 434.5 469
Q 434.5 468.85 434.55 468.75
L 434.5 468.75 433.35 468.45
M 434.75 468.05
Q 434.8 467.9 434.85 467.8
L 433.7 467.35
Q 433.65 467.45 433.6 467.6
L 434.75 468.05
M 434.55 468.55
L 434.6 468.55 435.5 468.85 435.55 468.85 435.55 468.8
Q 435.55 468.75 435.6 468.6
L 433.5 467.95
Q 433.45 468.05 433.4 468.2
L 434.55 468.55
M 434.55 465.75
Q 434.45 465.85 434.4 465.95
L 435.45 466.6
Q 435.5 466.5 435.6 466.4
L 435.55 466.4 434.55 465.75
M 435.15 467.1
L 435.2 467.1
Q 435.25 466.95 435.3 466.85
L 434.2 466.25
Q 434.15 466.4 434.1 466.5
L 435.15 467.1
M 433.95 466.8
Q 433.9 466.9 433.85 467.05
L 434.95 467.55
Q 435 467.4 435.1 467.3
L 435.05 467.3 433.95 466.8
M 435.2 464.85
Q 435.15 464.95 435.05 465.05
L 436 465.8 436 465.85
Q 436.1 465.7 436.2 465.65
L 436.15 465.6 435.2 464.85
M 434.9 465.25
Q 434.8 465.35 434.7 465.5
L 435.7 466.2 435.7 466.25 436.45 466.75 436.45 466.7
Q 436.55 466.6 436.65 466.5
L 434.9 465.25 Z"/>
</g>

<g id="Layer0_0_MEMBER_2_FILL">
<path fill="#FFFFFF" stroke="none" d="
M 445.85 475.7
Q 445.85 475.85 445.95 476 446.1 476.15 446.25 476.2 446.4 476.2 446.55 476.1 446.65 476.05 446.7 475.95 446.7 476.05 446.7 476.25 446.65 476.5 446.65 476.6
L 446.75 476.65
Q 446.9 476.45 446.9 476.1 446.9 475.85 446.75 475.65 446.4 475.2 446.05 475.45 445.9 475.55 445.85 475.7
M 446.15 475.5
Q 446.3 475.4 446.45 475.6 446.65 475.85 446.45 476 446.4 476.05 446.3 476 446.25 476 446.15 475.9 446.1 475.8 446.1 475.7 446.1 475.6 446.15 475.5
M 448.1 472.45
Q 448.2 472.55 448.3 472.55 448.4 472.65 448.5 472.8 448.65 472.85 448.75 472.95 448.9 473.1 448.95 473.2
L 449.15 473.35 449.2 473.4 449.45 472.6 449.3 472.55 449.1 473.1
Q 448.9 472.9 448.65 472.65 448.3 472.35 448.2 472.25
L 448.1 472.45
M 448.7 468.65
Q 448.6 468.5 448.5 468.5 448.4 468.5 448.3 468.55 447.95 468.65 448.05 469 448.15 469.2 448.25 469.25 448.35 469.35 448.55 469.3 448.75 469.2 448.8 468.9
L 448.9 469
Q 449.05 469.05 449.15 469 449.3 468.95 449.35 468.85 449.4 468.8 449.35 468.6 449.3 468.45 449.2 468.4 449.05 468.3 448.9 468.35 448.85 468.4 448.8 468.45 448.75 468.55 448.7 468.65
M 448.95 468.5
Q 449.15 468.45 449.2 468.65 449.25 468.75 449.2 468.8 449.15 468.85 449.05 468.85 448.95 468.9 448.85 468.8 448.9 468.55 448.95 468.5
M 448.25 469.1
Q 448.25 469.05 448.2 468.95 448.2 468.85 448.2 468.8 448.25 468.7 448.35 468.7 448.5 468.6 448.7 468.8 448.65 468.95 448.55 469.05 448.55 469.1 448.5 469.15 448.35 469.15 448.25 469.1
M 446.15 465.25
Q 446 465.4 446.05 465.5 446.05 465.7 446.2 465.8 446.25 465.85 446.4 465.85 446.3 465.95 446.15 466 445.85 466.05 445.8 466.05
L 445.8 466.15
Q 446 466.25 446.3 466.15 446.55 466.05 446.7 465.85 447 465.35 446.7 465.1 446.55 465 446.4 465.05 446.25 465.1 446.15 465.25
M 446.2 465.5
Q 446.2 465.45 446.25 465.35 446.3 465.25 446.4 465.2 446.5 465.2 446.6 465.25 446.8 465.4 446.65 465.6 446.45 465.85 446.25 465.7 446.2 465.65 446.2 465.5
M 443.05 476.8
L 443.1 476.7
Q 443 476.6 442.85 476.6 442.35 476.6 442.35 477.05 442.35 477.3 442.45 477.4 442.55 477.5 442.75 477.5 442.9 477.5 442.95 477.45
L 442.95 477.75 442.45 477.75 442.45 477.95 443.1 477.95 443.1 477.3 443 477.25
Q 442.95 477.35 442.85 477.35 442.55 477.35 442.55 477.05 442.55 476.75 442.85 476.75 442.95 476.75 443.05 476.8
M 438.9 475.6
L 438.8 475.5 438.75 475.65 438.85 475.75 438.3 476.4 438.35 476.45 439.5 476.15 439.55 476.1 439 475.7 439.25 475.45 439.1 475.35 438.9 475.6
M 438.7 476.2
L 438.95 475.85 439.3 476.1 438.7 476.2
M 436.3 472.85
Q 436.45 472.8 436.5 473
L 436.65 472.95 436.65 472.8
Q 436.75 472.65 436.85 472.65 437.05 472.55 437.1 472.8 437.15 472.9 437.1 473.05
L 437.25 473.1
Q 437.3 473 437.3 472.9 437.3 472.8 437.25 472.8 437.2 472.55 437.05 472.5 436.95 472.4 436.75 472.45 436.65 472.5 436.6 472.6 436.5 472.65 436.5 472.8 436.45 472.75 436.35 472.7 436.3 472.65 436.2 472.7 436.05 472.75 435.95 472.85 435.9 473 435.95 473.15 436.05 473.4 436.2 473.4
L 436.3 473.3
Q 436.15 473.25 436.1 473.15 436.05 472.9 436.3 472.85
M 436.3 468.6
Q 436.2 468.55 436.1 468.65 435.95 468.7 435.9 468.85 435.85 469 435.85 469.05 435.9 469.2 435.95 469.25
L 436.1 469.2
Q 436.05 469.15 436.05 469.05 436 468.95 436.05 468.9 436.1 468.75 436.3 468.8 436.4 468.8 436.55 469
L 437 469.6 437.05 469.6 437.35 468.8 437.2 468.8 437 469.3 436.65 468.85
Q 436.45 468.65 436.3 468.6
M 438.55 465.15
L 438.5 465.2
Q 438.5 465.25 438.45 465.45 438.4 465.5 438.35 465.65
L 438.45 465.8 438.6 465.5 439.2 466.3 439.35 466.2 438.55 465.15
M 442.65 463.85
Q 442.4 463.85 442.3 464.05 442.2 464.2 442.2 464.5 442.2 464.9 442.3 465.05 442.4 465.2 442.65 465.2 442.85 465.2 442.95 465 443.05 464.8 443.05 464.5 443.05 464.15 442.95 464 442.85 463.85 442.65 463.85
M 442.65 464
Q 442.7 464 442.8 464.05 442.85 464.1 442.85 464.2 442.9 464.3 442.9 464.5 442.9 464.8 442.85 464.9 442.75 465.05 442.6 465.05 442.35 465.05 442.35 464.5 442.35 464 442.65 464 Z"/>
</g>
</defs>

<g transform="matrix( 1, 0, 0, 1, -432.95,-461.35) ">
<use xlink:href="#Layer0_0_MEMBER_0_FILL"/>
</g>

<g transform="matrix( 1, 0, 0, 1, -432.95,-461.35) ">
<use xlink:href="#Layer0_0_MEMBER_1_FILL"/>
</g>

<g transform="matrix( 1, 0, 0, 1, -432.95,-461.35) ">
<use xlink:href="#Layer0_0_MEMBER_2_FILL"/>
</g>
</svg>
