
<svg xmlns="http://www.w3.org/2000/svg" version="1.1" xmlns:xlink="http://www.w3.org/1999/xlink" preserveAspectRatio="none" x="0px" y="0px" width="109px" height="109px" viewBox="0 0 109 109">
<defs>
<g id="Layer0_0_MEMBER_0_FILL">
<path fill="#C2C2C2" stroke="none" d="
M -36.1 254.95
Q -36.1 232.35 -52.05 216.4 -68 200.45 -90.6 200.45 -113.2 200.45 -129.15 216.4 -145.1 232.35 -145.1 254.95 -145.1 277.55 -129.15 293.5 -113.2 309.45 -90.6 309.45 -68 309.45 -52.05 293.5 -36.1 277.55 -36.1 254.95 Z"/>
</g>

<g id="Layer0_0_MEMBER_1_FILL">
<path fill="#1A181E" stroke="none" d="
M -36.1 254.95
Q -36.1 232.35 -52.05 216.4 -68 200.45 -90.6 200.45 -113.2 200.45 -129.15 216.4 -145.1 232.35 -145.1 254.95 -145.1 277.55 -129.15 293.5 -113.2 309.45 -90.6 309.45 -68 309.45 -52.05 293.5 -36.1 277.55 -36.1 254.95 Z"/>
</g>

<g id="Layer0_0_MEMBER_2_FILL">
<path fill="#423C39" stroke="none" d="
M -65.65 235.85
Q -65.65 234 -67.5 234
L -117.7 234
Q -119.55 234 -119.55 235.85
L -119.55 251.85
Q -119.55 253.7 -117.7 253.7
L -67.5 253.7
Q -65.65 253.7 -65.65 251.85
L -65.65 235.85 Z"/>
</g>

<g id="Layer0_0_MEMBER_3_FILL">
<path fill="#FFFFFF" stroke="none" d="
M 255.2 -95.6
Q 255.2 -96.6 254.4 -97.15 253.6 -97.65 252.2 -97.65 251.7 -97.65 249.95 -97.6
L 248.4 -89 249.95 -89 250.65 -92.6
Q 251.2 -92.55 251.6 -92.55
L 253.25 -89 254.95 -89 253.05 -92.8
Q 254.05 -93.05 254.65 -93.8 255.2 -94.55 255.2 -95.6
M 253.25 -96.05
Q 253.7 -95.85 253.7 -95.25 253.7 -93.85 251.5 -93.85 251.2 -93.85 250.85 -93.85
L 251.3 -96.25
Q 251.75 -96.3 251.85 -96.3 252.85 -96.3 253.25 -96.05
M 262.8 -95.15
Q 262.8 -97.7 259.35 -97.7 258.75 -97.7 257.5 -97.55
L 255.9 -89 257.45 -89 258.05 -92.15
Q 258.55 -92.05 259.05 -92.05 260.7 -92.05 261.75 -92.85 262.8 -93.7 262.8 -95.15
M 258.25 -93.45
L 258.8 -96.3
Q 259.25 -96.4 259.65 -96.4 261.2 -96.4 261.2 -95.05 261.2 -94.25 260.6 -93.8 260 -93.35 259.05 -93.35 258.55 -93.35 258.25 -93.45
M 271.15 -97.6
L 270.25 -97.6 267.4 -92.15 266.55 -97.6 265.7 -97.6 262.5 -89 264 -89 265.8 -93.7 266.65 -88.9 267.15 -88.9 269.75 -93.65 269.85 -89 271.4 -89 271.15 -97.6 Z"/>
</g>

<path id="Layer0_0_MEMBER_2_1_STROKES" stroke="#A0A3A7" stroke-width="2" stroke-linejoin="round" stroke-linecap="round" fill="none" d="
M -117.7 234
L -67.5 234
Q -65.65 234 -65.65 235.85
L -65.65 251.85
Q -65.65 253.7 -67.5 253.7
L -117.7 253.7
Q -119.55 253.7 -119.55 251.85
L -119.55 235.85
Q -119.55 234 -117.7 234 Z"/>
</defs>

<g transform="matrix( 1, 0, 0, 1, 145.1,-200.45) ">
<use xlink:href="#Layer0_0_MEMBER_0_FILL"/>
</g>

<g transform="matrix( 0.7458648681640625, 0, 0, 0.7458648681640625, 122.05,-135.65) ">
<use xlink:href="#Layer0_0_MEMBER_1_FILL"/>
</g>

<g transform="matrix( 1, 0, 0, 1, 147.1,-199.25) ">
<use xlink:href="#Layer0_0_MEMBER_2_FILL"/>

<use xlink:href="#Layer0_0_MEMBER_2_1_STROKES"/>
</g>

<g transform="matrix( 1, 0, 0, 1, -205.4,158.6) ">
<use xlink:href="#Layer0_0_MEMBER_3_FILL"/>
</g>
</svg>
