<?xml version="1.0" encoding="utf-8"?>
<!-- Generator: Adobe Illustrator 18.0.0, SVG Export Plug-In . SVG Version: 6.00 Build 0)  -->
<!DOCTYPE svg PUBLIC "-//W3C//DTD SVG 1.1//EN" "http://www.w3.org/Graphics/SVG/1.1/DTD/svg11.dtd">
<svg version="1.1" id="Layer_1" xmlns="http://www.w3.org/2000/svg" xmlns:xlink="http://www.w3.org/1999/xlink" x="0px" y="0px"
	 viewBox="0 0 235 195" enable-background="new 0 0 235 195" xml:space="preserve">
<g transform="matrix( 1, 0, 0, 1, -402.25,-390.55) ">
	<g>
		<g id="Layer0_0_MEMBER_0_FILL">
			<path fill="#222223" d="M477.8,438.2c-6.3-6.2-13.9-9.3-23-9.3c-9,0-16.6,3.1-23,9.3c-6.4,6.4-9.5,14.2-9.5,23.2
				c0,9,3.2,16.6,9.5,23c6.4,6.4,14,9.6,23,9.6c9.1,0,16.8-3.2,23-9.6c6.4-6.4,9.6-14,9.6-23C487.4,452.4,484.2,444.6,477.8,438.2z"
				/>
		</g>
	</g>
</g>
<g transform="matrix( 1, 0, 0, 1, -402.25,-390.55) ">
	<g>
		<g id="Layer0_0_MEMBER_1_FILL">
			
				<linearGradient id="SVGID_1_" gradientUnits="userSpaceOnUse" x1="830.25" y1="125.15" x2="883.85" y2="125.15" gradientTransform="matrix(1 0 0 -1 -402.25 586.55)">
				<stop  offset="0" style="stop-color:#830000"/>
				<stop  offset="1" style="stop-color:#520000"/>
			</linearGradient>
			<path fill="url(#SVGID_1_)" d="M473.7,442.5c-5.2-5.3-11.4-7.9-18.8-7.9c-7.5,0-13.8,2.6-19,7.9c-5.3,5.3-8,11.6-8,18.9
				c0,7.5,2.6,13.8,8,19c5.2,5.2,11.5,7.8,19,7.8c7.3,0,13.6-2.6,18.8-7.8c5.3-5.2,8-11.5,8-19C481.7,454.1,479,447.8,473.7,442.5z"
				/>
		</g>
	</g>
</g>
<g transform="matrix( 1, 0, 0, 1, -402.25,-390.55) ">
	<g>
		<g id="Layer0_0_MEMBER_1_MEMBER_0_FILL">
			
				<linearGradient id="SVGID_2_" gradientUnits="userSpaceOnUse" x1="856.65" y1="149.025" x2="856.65" y2="104.575" gradientTransform="matrix(1 0 0 -1 -402.25 586.55)">
				<stop  offset="0" style="stop-color:#FFFFFF;stop-opacity:0.502"/>
				<stop  offset="1" style="stop-color:#FFFFFF;stop-opacity:0"/>
				<stop  offset="1" style="stop-color:#FFFFFF;stop-opacity:0"/>
			</linearGradient>
			<path fill="url(#SVGID_2_)" d="M470.3,444.2c-4.4-4.4-9.7-6.6-15.9-6.6c-6.1,0-11.3,2.2-15.6,6.6c-4.4,4.4-6.5,9.6-6.5,15.8
				c0,6.1,2.2,11.3,6.5,15.6c4.4,4.4,9.6,6.5,15.6,6.5c6.1,0,11.4-2.2,15.9-6.5c4.2-4.4,6.4-9.6,6.4-15.6
				C476.6,453.8,474.5,448.6,470.3,444.2z"/>
		</g>
	</g>
</g>
<g transform="matrix( 1, 0, 0, 1, -368,-271) ">
	<g>
		<g id="Layer0_1_FILL">
			<path fill="#2E2D33" d="M447.5,370.5c-3.3,0-5,1.7-5,5v46.8c0,3.3,1.7,5,5,5h74.8c3.3,0,5-1.7,5-5v-46.8c0-3.3-1.7-5-5-5H447.5z"
				/>
		</g>
	</g>
</g>
<g transform="matrix( 1, 0, 0, 1, -402.25,-390.55) ">
	<g>
		<g id="Layer0_2_MEMBER_0_FILL">
			<path fill="#222223" d="M607,438.2c-6.3-6.2-13.9-9.3-23-9.3c-9,0-16.6,3.1-23,9.3c-6.4,6.4-9.5,14.2-9.5,23.2
				c0,9,3.2,16.6,9.5,23c6.4,6.4,14,9.6,23,9.6c9.1,0,16.8-3.2,23-9.6c6.4-6.4,9.5-14,9.5-23C616.6,452.4,613.4,444.6,607,438.2z"/>
		</g>
	</g>
</g>
<g transform="matrix( 1, 0, 0, 1, -402.25,-390.55) ">
	<g>
		<g id="Layer0_2_MEMBER_1_FILL">
			
				<linearGradient id="SVGID_3_" gradientUnits="userSpaceOnUse" x1="959.5" y1="125.15" x2="1013.1" y2="125.15" gradientTransform="matrix(1 0 0 -1 -402.25 586.55)">
				<stop  offset="0" style="stop-color:#830000"/>
				<stop  offset="1" style="stop-color:#520000"/>
			</linearGradient>
			<path fill="url(#SVGID_3_)" d="M603,442.5c-5.2-5.3-11.4-7.9-18.8-7.9c-7.5,0-13.8,2.6-19,7.9c-5.3,5.3-8,11.6-8,18.9
				c0,7.5,2.6,13.8,8,19c5.2,5.2,11.5,7.8,19,7.8c7.3,0,13.6-2.6,18.8-7.8c5.3-5.2,8-11.5,8-19C611,454.1,608.3,447.8,603,442.5z"/>
		</g>
	</g>
</g>
<g transform="matrix( 1, 0, 0, 1, -402.25,-390.55) ">
	<g>
		<g id="Layer0_2_MEMBER_1_MEMBER_0_FILL">
			
				<linearGradient id="SVGID_4_" gradientUnits="userSpaceOnUse" x1="985.9" y1="149.025" x2="985.9" y2="104.575" gradientTransform="matrix(1 0 0 -1 -402.25 586.55)">
				<stop  offset="0" style="stop-color:#FFFFFF;stop-opacity:0.502"/>
				<stop  offset="1" style="stop-color:#FFFFFF;stop-opacity:0"/>
				<stop  offset="1" style="stop-color:#FFFFFF;stop-opacity:0"/>
			</linearGradient>
			<path fill="url(#SVGID_4_)" d="M583.7,437.6c-6.1,0-11.3,2.2-15.7,6.6c-4.4,4.4-6.5,9.6-6.5,15.8c0,6.1,2.2,11.3,6.5,15.6
				c4.4,4.4,9.6,6.5,15.7,6.5c6.1,0,11.4-2.2,15.8-6.5c4.2-4.4,6.3-9.6,6.3-15.6c0-6.1-2.1-11.4-6.3-15.8
				C595.1,439.8,589.8,437.6,583.7,437.6z"/>
		</g>
	</g>
</g>
<g transform="matrix( 0.803131103515625, 0, 0, 0.875152587890625, -680.7,-20.55) ">
	<g>
		<g id="Layer0_3_MEMBER_0_FILL">
			<path fill="#CCCCCC" d="M978.3,61.2V23.5H847.6v37.7H978.3z"/>
		</g>
	</g>
</g>
<g transform="matrix( 0.7801513671875, 0, 0, 0.79559326171875, -659.7,-17.2) ">
	<g>
		<g id="Layer0_3_MEMBER_1_FILL">
			<path fill="#2E2D33" d="M978.3,61.2V23.5H847.6v37.7H978.3z"/>
		</g>
	</g>
</g>
<g transform="matrix( 1, 0, 0, 1, -402.25,-390.55) ">
	<g>
		<g id="Layer0_3_MEMBER_2_FILL">
			
				<radialGradient id="SVGID_5_" cx="460.713" cy="699.4078" r="3.5709" gradientTransform="matrix(0.7071 0.7071 0.7071 -0.7071 -410.1293 575.7328)" gradientUnits="userSpaceOnUse">
				<stop  offset="0" style="stop-color:#D0D0D0"/>
				<stop  offset="1" style="stop-color:#7E7E7E"/>
			</radialGradient>
			<path fill="url(#SVGID_5_)" d="M407.7,404.5c-0.7,0.7-1,1.5-1,2.4c0,1.1,0.3,1.9,1,2.5c0.7,0.8,1.5,1.1,2.5,1.1
				c1,0,1.8-0.4,2.4-1.1c0.7-0.6,1.1-1.4,1.1-2.5c0-0.9-0.4-1.7-1.1-2.5c-0.7-0.7-1.5-1-2.4-1C409.2,403.5,408.4,403.9,407.7,404.5
				 M409.5,405.6c0.1,0,0.2,0,0.3,0.1l0.5,0.4l0.3-0.4c0.1-0.1,0.3-0.1,0.5-0.1c0.2,0,0.4,0,0.5,0.1c0.1,0.2,0.1,0.3,0.1,0.5
				c0,0.1,0,0.3-0.1,0.5l-0.4,0.2l0.4,0.5c0.1,0.1,0.1,0.3,0.1,0.4c0,0.2,0,0.3-0.1,0.4c-0.2,0.2-0.4,0.2-0.5,0.3
				c-0.2,0-0.3,0-0.5-0.1l-0.3-0.4l-0.5,0.3c0,0.2-0.1,0.2-0.3,0.3c-0.3,0-0.5,0-0.6-0.1v-0.1c-0.1-0.1-0.1-0.2-0.1-0.4
				c0-0.2,0-0.3,0.1-0.4l0.3-0.5l-0.3-0.3c-0.1-0.2-0.1-0.4-0.1-0.5c0-0.1,0-0.3,0.1-0.5C409,405.7,409.2,405.6,409.5,405.6z"/>
			<path d="M409.7,405.8c0-0.1-0.1-0.1-0.3-0.1c-0.3,0-0.5,0.1-0.6,0.1c-0.1,0.2-0.1,0.4-0.1,0.5c0,0.1,0,0.3,0.1,0.5l0.3,0.3
				l-0.3,0.5c-0.1,0.1-0.1,0.3-0.1,0.4c0,0.2,0,0.3,0.1,0.4v0.1c0.1,0.1,0.3,0.1,0.6,0.1c0.1,0,0.2-0.1,0.3-0.3l0.5-0.3l0.3,0.4
				c0.1,0.1,0.3,0.1,0.5,0.1c0.2,0,0.4-0.1,0.5-0.3c0.1-0.1,0.1-0.2,0.1-0.4c0-0.2,0-0.3-0.1-0.4l-0.4-0.5l0.4-0.2
				c0.1-0.2,0.1-0.4,0.1-0.5c0-0.2,0-0.3-0.1-0.5c-0.2-0.1-0.4-0.1-0.5-0.1c-0.2,0-0.3,0.1-0.5,0.1l-0.3,0.4L409.7,405.8z"/>
		</g>
	</g>
</g>
<g transform="matrix( 1, 0, 0, 1, -402.25,-390.55) ">
	<g>
		<g id="Layer0_3_MEMBER_3_FILL">
			
				<radialGradient id="SVGID_6_" cx="460.713" cy="699.4078" r="3.5709" gradientTransform="matrix(0.7071 0.7071 0.7071 -0.7071 -320.5793 575.7328)" gradientUnits="userSpaceOnUse">
				<stop  offset="0" style="stop-color:#D0D0D0"/>
				<stop  offset="1" style="stop-color:#7E7E7E"/>
			</radialGradient>
			<path fill="url(#SVGID_6_)" d="M497.3,404.5c-0.7,0.7-1,1.5-1,2.4c0,1.1,0.3,1.9,1,2.5c0.7,0.8,1.5,1.1,2.5,1.1
				c1,0,1.8-0.4,2.5-1.1c0.7-0.6,1-1.4,1-2.5c0-0.9-0.4-1.7-1-2.5c-0.7-0.7-1.5-1-2.5-1C498.8,403.5,497.9,403.9,497.3,404.5
				 M498.3,406.3c0-0.1,0.1-0.3,0.1-0.5c0.1-0.1,0.3-0.1,0.6-0.1c0.1,0,0.2,0,0.3,0.1l0.5,0.4l0.3-0.4c0.1-0.1,0.3-0.1,0.5-0.1
				c0.2,0,0.4,0,0.5,0.1c0.1,0.2,0.2,0.3,0.2,0.5c0,0.1-0.1,0.3-0.2,0.5l-0.4,0.2l0.4,0.5c0.1,0.1,0.2,0.3,0.2,0.4
				c0,0.2-0.1,0.3-0.2,0.4c-0.2,0.2-0.4,0.2-0.5,0.3c-0.2,0-0.3,0-0.5-0.1l-0.3-0.4l-0.5,0.3c0,0.2-0.1,0.2-0.3,0.3
				c-0.3,0-0.5,0-0.6-0.1v-0.1c-0.1-0.1-0.1-0.2-0.1-0.4c0-0.2,0.1-0.3,0.1-0.4l0.3-0.5l-0.3-0.3
				C498.3,406.6,498.3,406.4,498.3,406.3z"/>
			<path d="M498.4,405.8c-0.1,0.2-0.1,0.4-0.1,0.5c0,0.1,0.1,0.3,0.1,0.5l0.3,0.3l-0.3,0.5c-0.1,0.1-0.1,0.3-0.1,0.4
				c0,0.2,0.1,0.3,0.1,0.4v0.1c0.1,0.1,0.3,0.1,0.6,0.1c0.1,0,0.2-0.1,0.3-0.3l0.5-0.3l0.3,0.4c0.1,0.1,0.3,0.1,0.5,0.1
				c0.2,0,0.4-0.1,0.5-0.3c0.1-0.1,0.2-0.2,0.2-0.4c0-0.2-0.1-0.3-0.2-0.4l-0.4-0.5l0.4-0.2c0.1-0.2,0.2-0.4,0.2-0.5
				c0-0.2-0.1-0.3-0.2-0.5c-0.2-0.1-0.4-0.1-0.5-0.1c-0.2,0-0.3,0.1-0.5,0.1l-0.3,0.4l-0.5-0.4c0-0.1-0.1-0.1-0.3-0.1
				C498.7,405.6,498.5,405.7,498.4,405.8z"/>
		</g>
	</g>
</g>
<g transform="matrix( 1, 0, 0, 1, -402.25,-390.55) ">
	<g>
		<g id="Layer0_3_MEMBER_4_FILL">
			<path fill="#FFFFFF" d="M439.5,404.2h-0.9l2.1,5.8h0.4l2.1-5.8h-0.9l-1.4,4.2L439.5,404.2 M437.6,404.9c-0.4-0.5-1-0.8-1.9-0.8
				c-0.7,0-1.3,0.3-1.6,0.8c-0.4,0.6-0.6,1.3-0.6,2.1c0,0.9,0.2,1.6,0.6,2.1c0.4,0.6,1,0.9,1.6,0.9c0.8,0,1.4-0.3,1.9-0.8
				c0.4-0.5,0.6-1.3,0.6-2.2S438,405.4,437.6,404.9 M435.8,404.8c1.1,0,1.6,0.7,1.6,2.2c0,0.7-0.1,1.3-0.4,1.7
				c-0.3,0.4-0.7,0.6-1.3,0.6c-0.5,0-0.8-0.2-1.1-0.6c-0.2-0.5-0.4-1-0.4-1.6c0-0.7,0.1-1.3,0.4-1.6
				C434.9,405,435.3,404.8,435.8,404.8 M447.3,404.9v-0.7h-3.4v5.7h3.4v-0.7h-2.6v-2.1h1.9v-0.7h-1.9v-1.6H447.3 M449.6,404.1
				c-0.2,0-0.4,0-0.8,0l-0.6,0.1v5.7h0.8v-2.5c0.4,0,0.6,0.1,0.8,0.1l1.5,2.4h0.9l-1.7-2.6c0.3-0.1,0.6-0.2,0.8-0.5
				c0.2-0.3,0.3-0.6,0.3-1C451.6,404.6,451,404.1,449.6,404.1 M449,404.9c0.2,0,0.4,0,0.4,0c0.5,0,0.9,0.1,1.1,0.2
				c0.2,0.1,0.4,0.4,0.4,0.7c0,0.4-0.1,0.7-0.3,0.8c-0.2,0.2-0.6,0.2-1,0.3c-0.2,0-0.4,0-0.5,0V404.9 M456.2,405l0.3-0.6
				c-0.4-0.2-0.9-0.3-1.5-0.3c-0.7,0-1.3,0.3-1.8,0.9c-0.5,0.6-0.7,1.3-0.7,2.1c0,0.9,0.2,1.6,0.6,2.2c0.4,0.5,1,0.8,1.8,0.8
				s1.3-0.2,1.8-0.7l-0.4-0.6c-0.3,0.4-0.7,0.6-1.3,0.6c-0.5,0-0.9-0.2-1.2-0.6c-0.3-0.4-0.4-0.9-0.4-1.6c0-0.7,0.1-1.2,0.4-1.6
				c0.3-0.4,0.7-0.7,1.2-0.7C455.5,404.8,455.9,404.9,456.2,405 M464.2,404.1H464l-2.4,5.8h0.9l0.4-1.2h2.1l0.4,1.2h0.9L464.2,404.1
				 M463.1,408.1l0.9-2.5l0.8,2.5H463.1 M459,404.1c-0.2,0-0.4,0-0.8,0l-0.6,0.1v5.7h0.8v-2.5c0.4,0,0.7,0.1,0.9,0.1l1.5,2.4h0.9
				l-1.6-2.6c0.3-0.1,0.6-0.2,0.8-0.5c0.2-0.3,0.3-0.6,0.3-1C461.1,404.6,460.4,404.1,459,404.1 M458.4,404.9c0.2,0,0.4,0,0.5,0
				c0.5,0,0.9,0.1,1.1,0.2c0.2,0.1,0.3,0.4,0.3,0.7c0,0.4-0.1,0.7-0.3,0.8c-0.2,0.2-0.6,0.2-1,0.3c-0.2,0-0.4,0-0.6,0V404.9
				 M474.1,406.6l1.7-2.4H475l-2.2,3.1v-3.1H472v5.7h0.8v-1.5l0.8-1.1l1.6,2.6h0.8L474.1,406.6 M467.3,404.2H467v5.7h0.8v-4.1
				l2.9,4.2h0.2v-5.8h-0.7v3.9L467.3,404.2z"/>
		</g>
	</g>
</g>
<g transform="matrix( 0.803131103515625, 0, 0, 0.875152587890625, -551.45,-20.55) ">
	<g>
		<g id="Layer0_4_MEMBER_0_FILL">
			<path fill="#CCCCCC" d="M978.3,61.2V23.5H847.6v37.7H978.3z"/>
		</g>
	</g>
</g>
<g transform="matrix( 0.7801513671875, 0, 0, 0.79559326171875, -530.45,-17.2) ">
	<g>
		<g id="Layer0_4_MEMBER_1_FILL">
			<path fill="#2E2D33" d="M978.3,61.2V23.5H847.6v37.7H978.3z"/>
		</g>
	</g>
</g>
<g transform="matrix( 1, 0, 0, 1, -402.25,-390.55) ">
	<g>
		<g id="Layer0_4_MEMBER_2_FILL">
			
				<radialGradient id="SVGID_7_" cx="460.713" cy="699.4078" r="3.5709" gradientTransform="matrix(0.7071 0.7071 0.7071 -0.7071 -280.8793 575.7328)" gradientUnits="userSpaceOnUse">
				<stop  offset="0" style="stop-color:#D0D0D0"/>
				<stop  offset="1" style="stop-color:#7E7E7E"/>
			</radialGradient>
			<path fill="url(#SVGID_7_)" d="M539.5,403.5c-1,0-1.8,0.3-2.5,1c-0.7,0.7-1,1.5-1,2.4c0,1.1,0.3,1.9,1,2.5
				c0.7,0.8,1.5,1.1,2.5,1.1c1,0,1.8-0.4,2.5-1.1c0.7-0.6,1-1.4,1-2.5c0-0.9-0.3-1.7-1-2.5C541.2,403.9,540.4,403.5,539.5,403.5
				 M538.1,408.3c-0.1-0.1-0.1-0.2-0.1-0.4c0-0.2,0-0.3,0.1-0.4l0.3-0.5l-0.3-0.3c-0.1-0.2-0.1-0.4-0.1-0.5c0-0.1,0-0.3,0.1-0.5
				c0.1-0.1,0.3-0.1,0.6-0.1c0.1,0,0.2,0,0.3,0.1l0.5,0.4l0.3-0.4c0.1-0.1,0.3-0.1,0.5-0.1c0.2,0,0.4,0,0.5,0.1
				c0.1,0.2,0.2,0.3,0.2,0.5c0,0.1,0,0.3-0.2,0.5l-0.4,0.2l0.4,0.5c0.1,0.1,0.2,0.3,0.2,0.4c0,0.2,0,0.3-0.2,0.4
				c-0.2,0.2-0.4,0.2-0.5,0.3c-0.2,0-0.3,0-0.5-0.1l-0.3-0.4l-0.5,0.3c0,0.2-0.1,0.2-0.3,0.3c-0.3,0-0.5,0-0.6-0.1V408.3z"/>
			<path d="M538,407.9c0,0.2,0,0.3,0.1,0.4v0.1c0.1,0.1,0.3,0.1,0.6,0.1c0.1,0,0.2-0.1,0.3-0.3l0.5-0.3l0.3,0.4
				c0.1,0.1,0.3,0.1,0.5,0.1c0.2,0,0.4-0.1,0.5-0.3c0.1-0.1,0.2-0.2,0.2-0.4c0-0.2,0-0.3-0.2-0.4l-0.4-0.5l0.4-0.2
				c0.1-0.2,0.2-0.4,0.2-0.5c0-0.2,0-0.3-0.2-0.5c-0.2-0.1-0.4-0.1-0.5-0.1c-0.2,0-0.3,0.1-0.5,0.1l-0.3,0.4l-0.5-0.4
				c0-0.1-0.1-0.1-0.3-0.1c-0.3,0-0.5,0.1-0.6,0.1c-0.1,0.2-0.1,0.4-0.1,0.5c0,0.1,0,0.3,0.1,0.5l0.3,0.3l-0.3,0.5
				C538,407.6,538,407.7,538,407.9z"/>
		</g>
	</g>
</g>
<g transform="matrix( 1, 0, 0, 1, -402.25,-390.55) ">
	<g>
		<g id="Layer0_4_MEMBER_3_FILL">
			
				<radialGradient id="SVGID_8_" cx="460.713" cy="699.4078" r="3.5709" gradientTransform="matrix(0.7071 0.7071 0.7071 -0.7071 -191.3293 575.7328)" gradientUnits="userSpaceOnUse">
				<stop  offset="0" style="stop-color:#D0D0D0"/>
				<stop  offset="1" style="stop-color:#7E7E7E"/>
			</radialGradient>
			<path fill="url(#SVGID_8_)" d="M631.5,404.5c-0.7-0.7-1.5-1-2.5-1c-1,0-1.8,0.3-2.5,1c-0.7,0.7-1,1.5-1,2.4c0,1.1,0.3,1.9,1,2.5
				c0.7,0.8,1.5,1.1,2.5,1.1c1,0,1.8-0.4,2.5-1.1c0.7-0.6,1-1.4,1-2.5C632.5,406.1,632.1,405.3,631.5,404.5 M629,408l-0.5,0.3
				c0,0.2-0.1,0.2-0.3,0.3c-0.3,0-0.5,0-0.6-0.1v-0.1c-0.1-0.1-0.2-0.2-0.2-0.4c0-0.2,0-0.3,0.2-0.4l0.3-0.5l-0.3-0.3
				c-0.1-0.2-0.2-0.4-0.2-0.5c0-0.1,0-0.3,0.2-0.5c0.1-0.1,0.3-0.1,0.6-0.1c0.1,0,0.2,0,0.3,0.1l0.5,0.4l0.3-0.4
				c0.1-0.1,0.3-0.1,0.5-0.1c0.2,0,0.4,0,0.5,0.1c0.1,0.2,0.2,0.3,0.2,0.5c0,0.1-0.1,0.3-0.2,0.5l-0.4,0.2l0.4,0.5
				c0.1,0.1,0.2,0.3,0.2,0.4c0,0.2-0.1,0.3-0.2,0.4c-0.2,0.2-0.3,0.2-0.5,0.3c-0.2,0-0.3,0-0.5-0.1L629,408z"/>
			<path d="M628.5,408.3l0.5-0.3l0.3,0.4c0.1,0.1,0.3,0.1,0.5,0.1c0.2,0,0.4-0.1,0.5-0.3c0.1-0.1,0.2-0.2,0.2-0.4
				c0-0.2-0.1-0.3-0.2-0.4l-0.4-0.5l0.4-0.2c0.1-0.2,0.2-0.4,0.2-0.5c0-0.2-0.1-0.3-0.2-0.5c-0.2-0.1-0.3-0.1-0.5-0.1
				c-0.2,0-0.3,0.1-0.5,0.1l-0.3,0.4l-0.5-0.4c0-0.1-0.1-0.1-0.3-0.1c-0.3,0-0.5,0.1-0.6,0.1c-0.1,0.2-0.2,0.4-0.2,0.5
				c0,0.1,0,0.3,0.2,0.5l0.3,0.3l-0.3,0.5c-0.1,0.1-0.2,0.3-0.2,0.4c0,0.2,0,0.3,0.2,0.4v0.1c0.1,0.1,0.3,0.1,0.6,0.1
				C628.4,408.5,628.5,408.5,628.5,408.3z"/>
		</g>
	</g>
</g>
<g transform="matrix( 1, 0, 0, 1, -402.25,-390.55) ">
	<g>
		<g id="Layer0_4_MEMBER_4_FILL">
			<path fill="#FFFFFF" d="M562.3,404.2h-0.8v5.7h3.4v-0.7h-2.6V404.2 M571.6,407.1c0-0.7,0.2-1.2,0.5-1.6c0.3-0.4,0.7-0.7,1.2-0.7
				c0.5,0,0.9,0.1,1.2,0.3l0.3-0.6c-0.4-0.2-0.8-0.3-1.5-0.3c-0.7,0-1.3,0.3-1.8,0.9s-0.7,1.3-0.7,2.1c0,0.9,0.2,1.6,0.7,2.2
				c0.4,0.5,1,0.8,1.8,0.8s1.3-0.2,1.8-0.7l-0.4-0.6c-0.3,0.4-0.7,0.6-1.3,0.6c-0.5,0-0.9-0.2-1.2-0.6
				C571.8,408.3,571.6,407.8,571.6,407.1 M569.5,404.9c-0.4-0.5-1-0.8-1.8-0.8c-0.7,0-1.3,0.3-1.7,0.8c-0.4,0.6-0.7,1.3-0.7,2.1
				c0,0.9,0.2,1.6,0.7,2.1c0.4,0.6,1,0.9,1.7,0.9c0.8,0,1.4-0.3,1.8-0.8c0.4-0.5,0.7-1.3,0.7-2.2S569.9,405.4,569.5,404.9
				 M567.7,404.8c1.1,0,1.6,0.7,1.6,2.2c0,0.7-0.1,1.3-0.4,1.7c-0.3,0.4-0.7,0.6-1.3,0.6c-0.5,0-0.8-0.2-1.1-0.6
				c-0.2-0.5-0.3-1-0.3-1.6c0-0.7,0.1-1.3,0.3-1.6C566.8,405,567.2,404.8,567.7,404.8 M579.6,404.2h-0.8l-2.2,3.1v-3.1h-0.8v5.7h0.8
				v-1.5l0.8-1.1l1.6,2.6h0.8l-1.9-3.3L579.6,404.2 M581.2,406.5v-1.6h2.6v-0.7h-3.4v5.7h3.3v-0.7h-2.6v-2.1h1.9v-0.7H581.2
				 M588.8,406.8c0-0.8-0.2-1.4-0.7-1.9c-0.5-0.5-1.1-0.7-1.9-0.7c-0.2,0-0.7,0-1.4,0.1v5.7h1.2
				C587.8,409.9,588.8,408.9,588.8,406.8 M587.9,406.9c0,0.7-0.2,1.3-0.5,1.8c-0.3,0.4-0.7,0.6-1.3,0.6c-0.2,0-0.5,0-0.7-0.1v-4.3
				c0.3,0,0.5,0,0.6,0C587.3,404.9,587.9,405.5,587.9,406.9 M592.4,404.9c-0.4,0.6-0.7,1.3-0.7,2.1c0,0.9,0.2,1.6,0.7,2.1
				c0.4,0.6,1,0.9,1.6,0.9c0.8,0,1.4-0.3,1.9-0.8c0.4-0.5,0.6-1.3,0.6-2.2s-0.2-1.6-0.6-2.1c-0.4-0.5-1-0.8-1.9-0.8
				C593.4,404.1,592.8,404.4,592.4,404.9 M594,404.8c1.1,0,1.7,0.7,1.7,2.2c0,0.7-0.1,1.3-0.4,1.7c-0.3,0.4-0.7,0.6-1.3,0.6
				c-0.5,0-0.8-0.2-1.1-0.6c-0.2-0.5-0.4-1-0.4-1.6c0-0.7,0.1-1.3,0.4-1.6C593.2,405,593.6,404.8,594,404.8 M602.1,404.2v0.7h1.9v5
				h0.8v-5h1.9v-0.7H602.1 M598.2,404.2h-0.8v3.9c0,0.6,0.2,1,0.5,1.4c0.4,0.3,0.9,0.5,1.5,0.5c0.6,0,1.1-0.2,1.5-0.5
				c0.4-0.3,0.5-0.8,0.5-1.4v-3.9h-0.8v3.9c0,0.4-0.1,0.6-0.3,0.9c-0.2,0.2-0.5,0.3-0.9,0.3c-0.4,0-0.7-0.1-0.9-0.3
				c-0.2-0.2-0.3-0.5-0.3-0.9V404.2z"/>
		</g>
	</g>
</g>
<g transform="matrix( 1, 0, 0, 1, -402.25,-390.55) ">
	<g>
		<g id="Layer0_5_FILL">
			<path fill="#FFFFFF" d="M481.9,518.5c-0.2,0-0.4,0-0.8,0l-0.6,0v5.7h0.8v-2.5c0.4,0,0.6,0,0.9,0l1.5,2.5h0.9l-1.6-2.6
				c0.3-0.1,0.6-0.2,0.8-0.5c0.2-0.3,0.3-0.6,0.3-1C484,519,483.3,518.5,481.9,518.5 M481.7,519.3c0.5,0,0.9,0.1,1.1,0.2
				c0.2,0.1,0.4,0.4,0.4,0.7c0,0.4-0.1,0.7-0.3,0.8c-0.2,0.2-0.6,0.3-1.1,0.3c-0.2,0-0.4,0-0.5,0v-1.9
				C481.5,519.3,481.6,519.3,481.7,519.3 M482.9,511.5l0.3-0.7c-0.2-0.2-0.7-0.3-1.3-0.3c-0.5,0-0.9,0.1-1.2,0.4s-0.5,0.6-0.5,1.1
				c0,0.4,0.1,0.7,0.3,0.9c0.2,0.3,0.4,0.5,0.8,0.7l0.4,0.3c0.4,0.2,0.7,0.3,0.8,0.5s0.1,0.4,0.1,0.5c0,0.3-0.1,0.5-0.3,0.7
				c-0.2,0.2-0.5,0.3-0.8,0.3c-0.2,0-0.4,0-0.6-0.1c-0.2-0.1-0.4-0.2-0.5-0.3l-0.3,0.8c0.3,0.2,0.8,0.4,1.3,0.4c0.6,0,1-0.2,1.4-0.5
				c0.4-0.3,0.5-0.7,0.5-1.1c0-0.4-0.1-0.7-0.3-0.9c-0.2-0.3-0.5-0.5-0.9-0.7l-0.4-0.2c-0.3-0.2-0.5-0.3-0.6-0.3
				c-0.1-0.1-0.2-0.2-0.2-0.3c-0.1-0.1-0.1-0.3-0.1-0.4c0-0.2,0.1-0.4,0.2-0.6c0.2-0.1,0.4-0.2,0.6-0.2c0.2,0,0.4,0,0.6,0.1
				C482.6,511.3,482.8,511.4,482.9,511.5 M497,519.3h1.9v5h0.8v-5h1.9v-0.7H497V519.3 M496.6,519.3v-0.7h-3.4v5.7h3.4v-0.7H494v-2
				h1.9v-0.7H494v-1.5H496.6 M488.5,519.3v-0.7h-3.4v5.7h3.4v-0.7h-2.6v-2h1.9v-0.7h-1.9v-1.5H488.5 M490.1,519.3
				c0.2-0.1,0.4-0.2,0.6-0.2c0.2,0,0.4,0,0.6,0.1c0.2,0.1,0.3,0.1,0.4,0.2l0.3-0.7c-0.2-0.2-0.7-0.3-1.3-0.3c-0.5,0-0.9,0.1-1.2,0.4
				c-0.3,0.3-0.4,0.6-0.4,1c0,0.4,0.1,0.7,0.3,0.9c0.2,0.3,0.4,0.5,0.8,0.7l0.5,0.3c0.4,0.2,0.7,0.3,0.8,0.5
				c0.1,0.2,0.1,0.4,0.1,0.5c0,0.3-0.1,0.5-0.3,0.7c-0.2,0.2-0.4,0.3-0.8,0.3c-0.2,0-0.4,0-0.6-0.1c-0.2-0.1-0.4-0.2-0.6-0.3
				l-0.3,0.8c0.3,0.2,0.8,0.4,1.3,0.4c0.6,0,1-0.2,1.3-0.5c0.4-0.3,0.6-0.7,0.6-1.1c0-0.4-0.1-0.7-0.3-0.9c-0.2-0.3-0.5-0.5-0.9-0.7
				l-0.5-0.2c-0.3-0.2-0.5-0.3-0.6-0.3c-0.1-0.1-0.2-0.2-0.2-0.3c-0.1-0.1-0.1-0.3-0.1-0.4C489.9,519.7,490,519.5,490.1,519.3
				 M486.4,511.3h1.9v-0.7h-4.5v0.7h1.9v5h0.8V511.3 M493.5,513.4c0-0.9-0.2-1.7-0.7-2.2s-1-0.8-1.8-0.8c-0.7,0-1.3,0.3-1.7,0.8
				c-0.4,0.6-0.6,1.3-0.6,2.1c0,0.9,0.2,1.6,0.6,2.1c0.4,0.6,1,0.9,1.7,0.9c0.8,0,1.4-0.3,1.8-0.8
				C493.2,515.1,493.5,514.3,493.5,513.4 M489.5,513.4c0-0.7,0.1-1.3,0.4-1.7c0.3-0.4,0.6-0.5,1.1-0.5c1.1,0,1.6,0.7,1.6,2.2
				c0,0.7-0.1,1.3-0.4,1.7c-0.3,0.4-0.7,0.6-1.3,0.6c-0.5,0-0.8-0.2-1.1-0.7C489.6,514.6,489.5,514,489.5,513.4 M495.4,510.5
				c-0.1,0-0.5,0-1,0.1v5.7h0.8v-2.2c0.3,0,0.5,0.1,0.6,0.1c1.5,0,2.2-0.7,2.2-2C497.9,511.1,497.1,510.5,495.4,510.5 M495.1,511.3
				c0.2,0,0.3,0,0.4,0c1,0,1.6,0.4,1.6,1c0,0.8-0.5,1.2-1.5,1.2c0,0-0.2,0-0.5,0V511.3z"/>
		</g>
	</g>
</g>
<g transform="matrix( 1, 0, 0, 1, -445,-277) ">
	<g>
		<g id="Layer0_8_FILL">
			<path fill="#B8ACB0" d="M594.3,439.8c0-8.7-3.1-16.1-9.3-22.3c-6.2-6.2-13.6-9.2-22.3-9.3c-8.7,0-16.1,3.1-22.3,9.3
				c-6.2,6.2-9.3,13.6-9.3,22.3s3.1,16.1,9.3,22.3c6.2,6.2,13.6,9.2,22.3,9.3c8.7,0,16.1-3.1,22.3-9.3
				C591.2,455.9,594.3,448.4,594.3,439.8z"/>
		</g>
	</g>
</g>
<g transform="matrix( 0.7923736572265625, 0, 0, 0.792388916015625, -328.15,-185.7) ">
	<g>
		<g id="Layer0_9_FILL">
			<path fill="#2E2D33" d="M594.3,439.7c0-8.7-3.1-16.1-9.3-22.3c-6.2-6.2-13.6-9.2-22.3-9.3c-8.7,0-16.1,3.1-22.3,9.3
				c-6.2,6.2-9.3,13.6-9.3,22.3c0,8.7,3.1,16.1,9.3,22.3c6.2,6.2,13.6,9.2,22.3,9.3c8.7,0,16.1-3.1,22.3-9.3
				C591.2,455.9,594.3,448.4,594.3,439.7z"/>
		</g>
	</g>
</g>
<text transform="matrix(1 0 0 1 133.7 126.8997)" fill="#FFFFFF" font-family="'MyriadPro-Regular'" font-size="9">START</text>
</svg>
