
<svg xmlns="http://www.w3.org/2000/svg" version="1.1" xmlns:xlink="http://www.w3.org/1999/xlink" preserveAspectRatio="none" x="0px" y="0px" width="17px" height="65px" viewBox="0 0 17 65">
<defs>
<g id="Layer0_0_FILL">
<path fill="#2E2D33" stroke="none" d="
M 523.25 541.3
L 516.75 541.3
Q 511.75 541.3 511.75 546.3
L 511.75 600.8
Q 511.75 605.8 516.75 605.8
L 523.25 605.8
Q 528.25 605.8 528.25 600.8
L 528.25 546.3
Q 528.25 541.3 523.25 541.3
M 518.9 542.55
L 521.15 542.55 521.15 554.05 518.9 554.05 518.9 542.55 Z"/>

<path fill="#FFFFFF" stroke="none" d="
M 521.15 542.55
L 518.9 542.55 518.9 554.05 521.15 554.05 521.15 542.55 Z"/>
</g>

<path id="Layer0_0_1_STROKES" stroke="#575B65" stroke-width="2" stroke-linejoin="round" stroke-linecap="round" fill="none" d="
M 516.75 541.3
L 523.25 541.3
Q 528.25 541.3 528.25 546.3
L 528.25 600.8
Q 528.25 605.8 523.25 605.8
L 516.75 605.8
Q 511.75 605.8 511.75 600.8
L 511.75 546.3
Q 511.75 541.3 516.75 541.3 Z"/>
</defs>

<g transform="matrix( 1, 0, 0, 1, -511.5,-541.05) ">
<use xlink:href="#Layer0_0_FILL"/>

<use xlink:href="#Layer0_0_1_STROKES"/>
</g>
</svg>
