
<svg xmlns="http://www.w3.org/2000/svg" version="1.1" xmlns:xlink="http://www.w3.org/1999/xlink" preserveAspectRatio="none" x="0px" y="0px" width="18px" height="18px" viewBox="0 0 18 18">
<defs>
<g id="Layer0_0_FILL">
<path fill="#323232" stroke="none" d="
M 15.8 2.7
Q 14.45 1.3 12.75 0.65 11.15 0 9.25 0 7.35 0 5.75 0.65 4.05 1.3 2.7 2.7 1.3 4.05 0.65 5.75 0 7.35 0 9.25 0 11.2 0.7 12.85 1.35 14.45 2.7 15.8 4 17.15 5.7 17.85 7.3 18.5 9.25 18.5 11.2 18.5 12.85 17.85 14.45 17.15 15.8 15.8 17.15 14.45 17.85 12.8 18.5 11.2 18.5 9.25 18.5 7.35 17.85 5.75 17.2 4.05 15.8 2.7
M 13.75 4.7
Q 15.65 6.6 15.65 9.25 15.65 11.9 13.75 13.75 11.9 15.65 9.25 15.65 6.6 15.65 4.7 13.75 2.85 11.9 2.85 9.25 2.85 6.6 4.7 4.7 6.6 2.85 9.25 2.85 11.9 2.85 13.75 4.7 Z"/>

<path fill="#000000" stroke="none" d="
M 15.65 9.25
Q 15.65 6.6 13.75 4.7 11.9 2.85 9.25 2.85 6.6 2.85 4.7 4.7 2.85 6.6 2.85 9.25 2.85 11.9 4.7 13.75 6.6 15.65 9.25 15.65 11.9 15.65 13.75 13.75 15.65 11.9 15.65 9.25
M 9.75 4.7
Q 10.05 5 10.05 5.35 10.05 5.7 9.75 5.95 9.5 6.25 9.15 6.25 8.8 6.25 8.5 5.95 8.25 5.7 8.25 5.35 8.25 5 8.5 4.7 8.8 4.45 9.15 4.45 9.5 4.45 9.75 4.7 Z"/>

<path fill="#FFFFFF" stroke="none" d="
M 10.05 5.35
Q 10.05 5 9.75 4.7 9.5 4.45 9.15 4.45 8.8 4.45 8.5 4.7 8.25 5 8.25 5.35 8.25 5.7 8.5 5.95 8.8 6.25 9.15 6.25 9.5 6.25 9.75 5.95 10.05 5.7 10.05 5.35 Z"/>
</g>
</defs>

<g transform="matrix( 1, 0, 0, 1, 0,0) ">
<use xlink:href="#Layer0_0_FILL"/>
</g>
</svg>
