
<svg xmlns="http://www.w3.org/2000/svg" version="1.1" xmlns:xlink="http://www.w3.org/1999/xlink" preserveAspectRatio="none" x="0px" y="0px" width="26px" height="26px" viewBox="0 0 26 26">
<defs>
<linearGradient id="Gradient_1" gradientUnits="userSpaceOnUse" x1="701.25" y1="343.35" x2="701.25" y2="377.15" spreadMethod="pad">
<stop  offset="0%" stop-color="#777777"/>

<stop  offset="100%" stop-color="#3C3C3C"/>
</linearGradient>

<linearGradient id="Gradient_2" gradientUnits="userSpaceOnUse" x1="444.45" y1="404.5625" x2="444.45" y2="425.5375" spreadMethod="pad">
<stop  offset="0%" stop-color="#777777"/>

<stop  offset="100%" stop-color="#3C3C3C"/>
</linearGradient>

<g id="Layer0_0_MEMBER_0_FILL">
<path fill="url(#Gradient_1)" stroke="none" d="
M 718.15 360.25
Q 718.15 353.25 713.2 348.3 708.25 343.35 701.25 343.35 694.25 343.35 689.3 348.3 684.35 353.25 684.35 360.25 684.35 367.25 689.3 372.2 694.25 377.15 701.25 377.15 708.25 377.15 713.2 372.2 718.15 367.25 718.15 360.25
M 712.5 349
Q 717.15 353.65 717.15 360.25 717.15 366.85 712.5 371.5 707.85 376.15 701.25 376.15 694.65 376.15 690 371.5 685.35 366.85 685.35 360.25 685.35 353.8638671875 689.7 349.3 689.84921875 349.15078125 690 349 690.2013671875 348.7986328125 690.4 348.6 694.9357421875 344.35 701.25 344.35 707.85 344.35 712.5 349 Z"/>

<path fill="#FFFFFF" stroke="none" d="
M 690.4 348.6
Q 690.2013671875 348.7986328125 690 349 689.84921875 349.15078125 689.7 349.3
L 701.05 360.65
Q 701.1947265625 360.7982421875 701.4 360.8 701.6052734375 360.7982421875 701.75 360.65 701.8982421875 360.5052734375 701.9 360.3 701.8982421875 360.0947265625 701.75 359.95
L 690.4 348.6 Z"/>

<path fill="#131310" stroke="none" d="
M 717.15 360.25
Q 717.15 353.65 712.5 349 707.85 344.35 701.25 344.35 694.9357421875 344.35 690.4 348.6
L 701.75 359.95
Q 701.8982421875 360.0947265625 701.9 360.3 701.8982421875 360.5052734375 701.75 360.65 701.6052734375 360.7982421875 701.4 360.8 701.1947265625 360.7982421875 701.05 360.65
L 689.7 349.3
Q 685.35 353.8638671875 685.35 360.25 685.35 366.85 690 371.5 694.65 376.15 701.25 376.15 707.85 376.15 712.5 371.5 717.15 366.85 717.15 360.25 Z"/>
</g>

<g id="Layer0_0_MEMBER_1_MEMBER_0_FILL">
<path fill="url(#Gradient_2)" stroke="none" d="
M 448.9 406.75
Q 447.95 406.7 447.25 406.05
L 446.3 405.3
Q 445.55 404.6 444.5 404.6 443.4 404.6 442.6 405.3
L 441.7 406.05
Q 440.95 406.7 440.1 406.75
L 438.9 406.8
Q 437.8 406.95 437.05 407.7 436.35 408.4 436.25 409.45
L 436.1 410.65
Q 436.05 411.6 435.4 412.3
L 434.7 413.2
Q 434 414 434 415.1 434 416.15 434.7 416.95
L 435.4 417.85
Q 436.05 418.6 436.1 419.5
L 436.25 420.7
Q 436.35 421.75 437.05 422.5 437.8 423.2 438.9 423.35
L 440.1 423.4
Q 440.95 423.5 441.7 424.15
L 442.6 424.85
Q 443.4 425.55 444.5 425.55 445.55 425.55 446.3 424.85
L 447.25 424.15
Q 447.95 423.5 448.9 423.4
L 450.1 423.35
Q 451.15 423.2 451.95 422.5 452.65 421.75 452.7 420.7
L 452.8 419.5
Q 452.9 418.6 453.5 417.85
L 454.3 416.95
Q 454.95 416.15 454.95 415.1 454.95 414 454.3 413.2
L 453.5 412.3
Q 452.9 411.6 452.8 410.65
L 452.7 409.45
Q 452.65 408.4 451.95 407.65
L 451.95 407.7
Q 451.15 406.95 450.1 406.8
L 448.9 406.75
M 445.9 405.8
L 446.8 406.5 446.85 406.5
Q 447.7 407.25 448.85 407.35
L 450.05 407.45
Q 450.9 407.5 451.45 408.15 452.05 408.7 452.1 409.5
L 452.2 410.65
Q 452.3 411.8 453.1 412.7
L 453.85 413.65
Q 454.35 414.25 454.35 415.1 454.35 415.95 453.85 416.55
L 453.1 417.45 453.1 417.5
Q 452.3 418.35 452.2 419.5
L 452.1 420.65
Q 452.05 421.5 451.45 422.05 450.9 422.65 450.05 422.7
L 448.85 422.8
Q 447.7 422.9 446.85 423.65
L 445.95 424.4 445.9 424.4
Q 445.25 424.95 444.5 424.95 443.65 424.95 442.95 424.4
L 442.1 423.65
Q 441.25 422.9 440.1 422.8
L 438.9 422.7
Q 438.05 422.65 437.5 422.05 436.9 421.5 436.85 420.65
L 436.75 419.5
Q 436.6 418.35 435.9 417.5
L 435.9 417.45 435.15 416.55
Q 434.6 415.95 434.6 415.1 434.6 414.25 435.15 413.65
L 435.9 412.7
Q 436.7 411.8 436.75 410.65
L 436.85 409.5
Q 436.9 408.7 437.5 408.15 438.05 407.5 438.9 407.45
L 440.1 407.35
Q 441.25 407.25 442.1 406.5
L 442.95 405.8
Q 443.65 405.2 444.5 405.2 445.25 405.2 445.9 405.75
L 445.9 405.8 Z"/>

<path fill="#0C0C0C" stroke="none" d="
M 446.8 406.5
L 445.9 405.8 445.9 405.75
Q 445.25 405.2 444.5 405.2 443.65 405.2 442.95 405.8
L 442.1 406.5
Q 441.25 407.25 440.1 407.35
L 438.9 407.45
Q 438.05 407.5 437.5 408.15 436.9 408.7 436.85 409.5
L 436.75 410.65
Q 436.7 411.8 435.9 412.7
L 435.15 413.65
Q 434.6 414.25 434.6 415.1 434.6 415.95 435.15 416.55
L 435.9 417.45 435.9 417.5
Q 436.6 418.35 436.75 419.5
L 436.85 420.65
Q 436.9 421.5 437.5 422.05 438.05 422.65 438.9 422.7
L 440.1 422.8
Q 441.25 422.9 442.1 423.65
L 442.95 424.4
Q 443.65 424.95 444.5 424.95 445.25 424.95 445.9 424.4
L 445.95 424.4 446.85 423.65
Q 447.7 422.9 448.85 422.8
L 450.05 422.7
Q 450.9 422.65 451.45 422.05 452.05 421.5 452.1 420.65
L 452.2 419.5
Q 452.3 418.35 453.1 417.5
L 453.1 417.45 453.85 416.55
Q 454.35 415.95 454.35 415.1 454.35 414.25 453.85 413.65
L 453.1 412.7
Q 452.3 411.8 452.2 410.65
L 452.1 409.5
Q 452.05 408.7 451.45 408.15 450.9 407.5 450.05 407.45
L 448.85 407.35
Q 447.7 407.25 446.85 406.5
L 446.8 406.5 Z"/>
</g>

<g id="Layer0_0_MEMBER_1_MEMBER_0_MEMBER_0_FILL">
<path fill="#FFFFFF" stroke="none" d="
M 444.85 414.8
L 437.85 407.8
Q 437.65 407.95 437.5 408.15 437.4 408.25 437.3 408.35
L 444.3 415.35
Q 444.4 415.5 444.6 415.5 444.75 415.5 444.85 415.35 444.95 415.25 444.95 415.1 444.95 414.95 444.85 414.8 Z"/>
</g>

<g id="Layer0_0_MEMBER_1_MEMBER_1_FILL">
<path fill="#050505" stroke="none" d="
M 446.3 415
Q 446.3 414.2 445.75 413.6 445.2 413.1 444.4 413.1 443.6 413.1 443.1 413.65 442.45 414.2 442.45 415 442.45 415.8 443.1 416.35 443.6 416.9 444.4 416.9 445.2 416.9 445.75 416.35 446.3 415.8 446.3 415 Z"/>
</g>
</defs>

<g transform="matrix( 0.7696533203125, 0, 0, 0.7696533203125, -526.7,-264.25) ">
<use xlink:href="#Layer0_0_MEMBER_0_FILL"/>
</g>

<g transform="matrix( 1, 0, 0, 1, -431.45,-402.05) ">
<use xlink:href="#Layer0_0_MEMBER_1_MEMBER_0_FILL"/>
</g>

<g transform="matrix( 1, 0, 0, 1, -431.45,-402.05) ">
<use xlink:href="#Layer0_0_MEMBER_1_MEMBER_0_MEMBER_0_FILL"/>
</g>

<g transform="matrix( 1, 0, 0, 1, -431.45,-402.05) ">
<use xlink:href="#Layer0_0_MEMBER_1_MEMBER_1_FILL"/>
</g>
</svg>
